<?xml version="1.0" standalone="no"?>
<!DOCTYPE svg PUBLIC "-//W3C//DTD SVG 1.1//EN" "http://www.w3.org/Graphics/SVG/1.1/DTD/svg11.dtd" >
<svg>
<metadata>
Created by FontForge 20120731 at Wed Jul 10 05:12:04 2019
 By www-data
Copyright (c) 2018 by TypeType. Designers Ivan Gladkikh, Pavel Emelyanov. Technical designers Marina Khodak, Vika Usmanova, Nadyr Rakhimov. All rights reserved.
</metadata>
<defs>
<font id="TTCommons-ThinItalic" horiz-adv-x="962" >
  <font-face 
    font-family="TT Commons Thin Italic"
    font-weight="200"
    font-style="italic"
    font-stretch="normal"
    units-per-em="2048"
    panose-1="2 0 5 6 2 0 0 9 0 3"
    ascent="1434"
    descent="-614"
    x-height="901"
    cap-height="1290"
    bbox="-328 -432 2945 1741"
    underline-thickness="0"
    underline-position="0"
    unicode-range="U+000D-FB06"
  />
<missing-glyph horiz-adv-x="0" 
 />
    <glyph glyph-name="uniFB00" unicode="ff" horiz-adv-x="983" 
d="M823 901l29 164q23 123 87.5 179t168.5 56q18 0 33.5 -2t25.5 -4q12 -4 23 -6l-10 -49q-10 2 -23 4q-10 2 -25.5 4t-31.5 2q-166 0 -197 -184l-29 -164h236l-8 -51h-236l-149 -850h-51l149 850h-409l-150 -850h-51l149 850h-164l9 51h163l23 123q23 123 87.5 179.5
t168.5 56.5q18 0 33.5 -2.5t25.5 -4.5q12 -4 23 -6l-10 -49q-10 2 -23 4q-10 2 -25.5 4t-31.5 2q-166 0 -197 -184l-22 -123h409z" />
    <glyph glyph-name="uniFB01" unicode="fi" horiz-adv-x="860" 
d="M815 850h-409l-150 -850h-51l149 850h-164l9 51h163l29 164q23 123 87.5 179t168.5 56q18 0 33.5 -2t26.5 -4q12 -4 22 -6l-10 -49q-10 2 -23 4q-10 2 -25.5 4t-31.5 2q-166 0 -197 -184l-28 -164h460l-157 -901h-51zM850 1178q0 23 14.5 37t36.5 14q18 0 30.5 -12.5
t12.5 -28.5q0 -23 -14.5 -37t-36.5 -14q-18 0 -30.5 12.5t-12.5 28.5z" />
    <glyph glyph-name="uniFB02" unicode="fl" horiz-adv-x="860" 
d="M879 1219q-18 6 -41 14q-20 6 -49 11t-68 5q-119 0 -193.5 -58t-99.5 -204l-14 -86h235l-8 -51h-235l-150 -850h-51l149 850h-164l9 51h163l15 86q29 170 117 241.5t235 71.5q33 0 61.5 -5t51.5 -11q25 -8 47 -14h51l-223 -1270h-51z" />
    <glyph glyph-name="uniFB03" unicode="ffi" horiz-adv-x="1320" 
d="M1276 850h-410l-149 -850h-51l149 850h-409l-150 -850h-51l149 850h-164l9 51h163l23 123q23 123 87.5 179.5t168.5 56.5q18 0 33.5 -2.5t25.5 -4.5q12 -4 23 -6l-10 -49q-10 2 -23 4q-10 2 -25.5 4t-31.5 2q-166 0 -197 -184l-22 -123h409l29 164q23 123 87.5 179
t168.5 56q18 0 33.5 -2t25.5 -4q12 -4 23 -6l-10 -49q-10 2 -23 4q-10 2 -25.5 4t-31.5 2q-166 0 -197 -184l-29 -164h461l-157 -901h-52zM1311 1178q0 23 14 37t37 14q18 0 30.5 -12.5t12.5 -28.5q0 -23 -14.5 -37t-36.5 -14q-18 0 -30.5 12.5t-12.5 28.5z" />
    <glyph glyph-name="uniFB04" unicode="ffl" horiz-adv-x="1320" 
d="M823 901l15 86q29 170 116.5 241.5t235.5 71.5q33 0 61.5 -5t51.5 -11q25 -8 47 -14h51l-223 -1270h-52l213 1219q-18 6 -41 14q-20 6 -48.5 11t-67.5 5q-119 0 -194 -58t-99 -204l-15 -86h236l-8 -51h-236l-149 -850h-51l149 850h-409l-150 -850h-51l149 850h-164l9 51
h163l23 123q23 123 87.5 179.5t168.5 56.5q18 0 33.5 -2.5t25.5 -4.5q12 -4 23 -6l-10 -49q-10 2 -23 4q-10 2 -25.5 4t-31.5 2q-166 0 -197 -184l-22 -123h409z" />
    <glyph glyph-name="f_f_j.liga" unicode="ffj" horiz-adv-x="1320" 
d="M1276 850h-410l-149 -850h-51l149 850h-409l-150 -850h-51l149 850h-164l9 51h163l23 123q23 123 87.5 179.5t168.5 56.5q18 0 33.5 -2.5t25.5 -4.5q12 -4 23 -6l-10 -49q-10 2 -23 4q-10 2 -25.5 4t-31.5 2q-166 0 -197 -184l-22 -123h409l29 164q23 123 87.5 179
t168.5 56q18 0 33.5 -2t25.5 -4q12 -4 23 -6l-10 -49q-10 2 -23 4q-10 2 -25.5 4t-31.5 2q-166 0 -197 -184l-29 -164h461l-176 -1003q-23 -131 -90.5 -183.5t-165.5 -52.5q-39 0 -57 6q-12 4 -21 8l11 52q10 -4 22 -9q20 -6 55 -6q76 0 127.5 43t69.5 152zM1311 1178
q0 23 14 37t37 14q18 0 30.5 -12.5t12.5 -28.5q0 -23 -14.5 -37t-36.5 -14q-18 0 -30.5 12.5t-12.5 28.5z" />
    <glyph glyph-name="f_j.liga" unicode="fj" horiz-adv-x="860" 
d="M815 850h-409l-150 -850h-51l149 850h-164l9 51h163l29 164q23 123 87.5 179t168.5 56q18 0 33.5 -2t26.5 -4q12 -4 22 -6l-10 -49q-10 2 -23 4q-10 2 -25.5 4t-31.5 2q-166 0 -197 -184l-28 -164h460l-176 -1003q-23 -131 -90 -183.5t-166 -52.5q-39 0 -57 6
q-12 4 -20 8l10 52q10 -4 22 -9q20 -6 56 -6q76 0 127 43t69 152zM850 1178q0 23 14.5 37t36.5 14q18 0 30.5 -12.5t12.5 -28.5q0 -23 -14.5 -37t-36.5 -14q-18 0 -30.5 12.5t-12.5 28.5z" />
    <glyph glyph-name="f_t.liga" unicode="ft" horiz-adv-x="1044" 
d="M815 850h-409l-150 -850h-51l149 850h-164l9 51h163l29 164q23 123 87.5 179t168.5 56q18 0 33.5 -2t26.5 -4q12 -4 22 -6l-10 -49q-10 2 -23 4q-10 2 -25.5 4t-31.5 2q-166 0 -197 -184l-28 -164h323q47 0 69.5 17.5t31.5 64.5l32 184h52l-48 -266h236l-8 -51h-236
l-106 -600q-18 -100 21.5 -154.5t125.5 -54.5q16 0 26.5 1t20.5 3q8 2 19 4l-8 -49q-10 -4 -19 -6q-10 -2 -20.5 -3t-26.5 -1q-88 0 -142.5 53t-54.5 147q0 29 7 60z" />
    <glyph glyph-name="f_h.liga" unicode="fh" horiz-adv-x="1525" 
d="M1174 911q68 0 125 -21.5t100 -63.5t66.5 -100t23.5 -132q0 -20 -2 -41t-6 -43l-88 -510h-52l89 510q4 23 6 42t2 38q0 127 -73 198.5t-200 71.5q-72 0 -132 -28.5t-107 -80t-79 -119t-46 -147.5l-84 -485h-51l213 1219q-18 6 -41 14q-20 6 -49 11t-68 5
q-119 0 -193.5 -58t-99.5 -204l-14 -86h235l-8 -51h-235l-150 -850h-51l149 850h-164l9 51h163l15 86q29 170 117 241.5t235 71.5q33 0 61.5 -5t51.5 -11q25 -8 47 -14h51l-96 -537h10q31 49 76 88q39 35 98.5 62.5t145.5 27.5z" />
    <glyph glyph-name="f_k.liga" unicode="fk" horiz-adv-x="1300" 
d="M799 471l-82 -471h-51l213 1219q-18 6 -41 14q-20 6 -49 11t-68 5q-119 0 -193.5 -58t-99.5 -204l-14 -86h235l-8 -51h-235l-150 -850h-51l149 850h-164l9 51h163l15 86q29 170 117 241.5t235 71.5q33 0 61.5 -5t51.5 -11q25 -8 47 -14h51l-141 -799l557 430h76
l-564 -434l439 -467h-68z" />
    <glyph glyph-name="f_b.liga" unicode="fb" horiz-adv-x="1597" 
d="M879 1219q-18 6 -41 14q-20 6 -49 11t-68 5q-119 0 -193.5 -58t-99.5 -204l-14 -86h235l-8 -51h-235l-150 -850h-51l149 850h-164l9 51h163l15 86q29 170 117 241.5t235 71.5q33 0 61.5 -5t51.5 -11q25 -8 47 -14h51l-102 -584h10q41 61 96 113q47 41 118 76.5t163 35.5
q74 0 139.5 -29.5t116.5 -81.5t80.5 -124t29.5 -154q0 -121 -41 -219t-109.5 -167.5t-156.5 -107.5t-180 -38q-100 0 -165 34.5t-103 75.5q-45 49 -72 111h-10l-47 -211h-41zM1112 41q80 0 158 35t137 97.5t96 148.5t37 190q0 78 -25.5 141.5t-68.5 109.5t-102.5 71.5
t-126.5 25.5q-80 0 -157 -41t-137.5 -110.5t-97.5 -162.5t-37 -196q0 -74 26 -131t70 -97t102 -60.5t126 -20.5z" />
    <glyph glyph-name="f_f_h.liga" unicode="ffh" horiz-adv-x="1986" 
d="M1634 911q68 0 125.5 -21.5t100.5 -63.5t66.5 -100t23.5 -132q0 -20 -2 -41t-6 -43l-89 -510h-51l88 510q4 23 6 42t2 38q0 127 -72.5 198.5t-199.5 71.5q-72 0 -132 -28.5t-107.5 -80t-79 -119t-45.5 -147.5l-84 -485h-52l213 1219q-18 6 -41 14q-20 6 -48.5 11t-67.5 5
q-119 0 -194 -58t-99 -204l-15 -86h236l-8 -51h-236l-149 -850h-51l149 850h-409l-150 -850h-51l149 850h-164l9 51h163l23 123q23 123 87.5 179.5t168.5 56.5q18 0 33.5 -2.5t25.5 -4.5q12 -4 23 -6l-10 -49q-10 2 -23 4q-10 2 -25.5 4t-31.5 2q-166 0 -197 -184l-22 -123
h409l15 86q29 170 116.5 241.5t235.5 71.5q33 0 61.5 -5t51.5 -11q25 -8 47 -14h51l-96 -537h10q31 49 76 88q39 35 98 62.5t145 27.5z" />
    <glyph glyph-name="f_f_k.liga" unicode="ffk" horiz-adv-x="1761" 
d="M1260 471l-82 -471h-52l213 1219q-18 6 -41 14q-20 6 -48.5 11t-67.5 5q-119 0 -194 -58t-99 -204l-15 -86h236l-8 -51h-236l-149 -850h-51l149 850h-409l-150 -850h-51l149 850h-164l9 51h163l23 123q23 123 87.5 179.5t168.5 56.5q18 0 33.5 -2.5t25.5 -4.5
q12 -4 23 -6l-10 -49q-10 2 -23 4q-10 2 -25.5 4t-31.5 2q-166 0 -197 -184l-22 -123h409l15 86q29 170 116.5 241.5t235.5 71.5q33 0 61.5 -5t51.5 -11q25 -8 47 -14h51l-141 -799l557 430h75l-563 -434l438 -467h-67z" />
    <glyph glyph-name="f_f_b.liga" unicode="ffb" horiz-adv-x="2058" 
d="M1339 1219q-18 6 -41 14q-20 6 -48.5 11t-67.5 5q-119 0 -194 -58t-99 -204l-15 -86h236l-8 -51h-236l-149 -850h-51l149 850h-409l-150 -850h-51l149 850h-164l9 51h163l23 123q23 123 87.5 179.5t168.5 56.5q18 0 33.5 -2.5t25.5 -4.5q12 -4 23 -6l-10 -49q-10 2 -23 4
q-10 2 -25.5 4t-31.5 2q-166 0 -197 -184l-22 -123h409l15 86q29 170 116.5 241.5t235.5 71.5q33 0 61.5 -5t51.5 -11q25 -8 47 -14h51l-103 -584h11q41 61 96 113q47 41 117.5 76.5t163.5 35.5q74 0 139 -29.5t116.5 -81.5t81 -124t29.5 -154q0 -121 -41 -219
t-109.5 -167.5t-156.5 -107.5t-180 -38q-100 0 -165 34.5t-104 75.5q-45 49 -71 111h-11l-47 -211h-41zM1573 41q80 0 157.5 35t137 97.5t96.5 148.5t37 190q0 78 -25.5 141.5t-68.5 109.5t-102.5 71.5t-127.5 25.5q-80 0 -156.5 -41t-137 -110.5t-97.5 -162.5t-37 -196
q0 -74 25.5 -131t70 -97t102.5 -60.5t126 -20.5z" />
    <glyph glyph-name=".notdef" horiz-adv-x="0" 
 />
    <glyph glyph-name="glyph1" horiz-adv-x="0" 
 />
    <glyph glyph-name="glyph1" horiz-adv-x="0" 
 />
    <glyph glyph-name="uni000D" unicode="&#xd;" horiz-adv-x="0" 
 />
    <glyph glyph-name="space" unicode=" " horiz-adv-x="409" 
 />
    <glyph glyph-name="exclam" unicode="!" horiz-adv-x="460" 
d="M432 1290h51l-170 -962h-51zM190 41q0 23 14.5 37t37.5 14q18 0 30.5 -12t12.5 -29q0 -23 -14.5 -37t-37.5 -14q-18 0 -30.5 12.5t-12.5 28.5z" />
    <glyph glyph-name="quotedbl" unicode="&#x22;" horiz-adv-x="624" 
d="M621 911h-52l68 379h51zM375 911h-51l67 379h51z" />
    <glyph glyph-name="numbersign" unicode="#" horiz-adv-x="1198" 
d="M819 410h-389l-154 -410h-51l154 410h-266l18 51h266l140 368h-258l18 52h258l154 409h51l-154 -409h389l154 409h51l-153 -409h264l-19 -52h-266l-137 -368h256l-19 -51h-256l-153 -410h-51zM449 461h389l139 368h-391z" />
    <glyph glyph-name="dollar" unicode="$" horiz-adv-x="1024" 
d="M479 -8q-152 14 -238.5 102t-86.5 223v21q0 6 2 10h51v-22q0 -139 87 -212t245 -73q186 0 285.5 81t99.5 228q0 80 -46.5 134.5t-116 96.5t-150.5 78.5t-150.5 79.5t-115.5 99.5t-46 140.5q0 74 31.5 133t87 100t130.5 64.5t161 23.5l34 195h52l-35 -199
q63 -8 117.5 -34.5t94.5 -68.5t61.5 -94t21.5 -112v-24h-51v16q0 57 -20.5 106.5t-59.5 86t-95.5 57t-126.5 20.5q-80 0 -144 -20.5t-110.5 -56t-71 -84t-24.5 -105.5q0 -74 46 -125t116 -91t150.5 -76t150.5 -81t116 -104.5t46 -147.5q0 -180 -118 -274t-329 -94l-34 -195
h-52z" />
    <glyph glyph-name="percent" unicode="%" horiz-adv-x="1249" 
d="M717 223q0 61 20.5 113.5t57 91.5t88 61.5t112.5 22.5q47 0 87 -17.5t70 -48t47.5 -71.5t17.5 -86q0 -61 -20.5 -113.5t-57.5 -91.5t-88.5 -61.5t-112.5 -22.5q-47 0 -87 17.5t-69.5 48t-47 71.5t-17.5 86zM760 1067q0 -61 -20.5 -113.5t-57.5 -91.5t-88 -61.5
t-113 -22.5q-47 0 -87 17.5t-69.5 48t-47 71.5t-17.5 86q0 61 20.5 113.5t57.5 91.5t88 61.5t113 22.5q47 0 87 -17.5t69.5 -48t47 -71.5t17.5 -86zM492 829q49 0 89 19.5t67.5 51.5t43 73t15.5 82q0 76 -43 130t-136 54q-49 0 -89 -19.5t-67.5 -51t-43 -72.5t-15.5 -82
q0 -76 43.5 -130.5t135.5 -54.5zM985 461q-49 0 -89 -19.5t-67.5 -51.5t-43 -73t-15.5 -81q0 -76 43 -130.5t135 -54.5q49 0 89 19.5t68 51.5t43 73t15 81q0 76 -43 130.5t-135 54.5zM268 0h-63l1005 1290h64z" />
    <glyph glyph-name="ampersand" unicode="&#x26;" horiz-adv-x="1075" 
d="M862 246q-49 -55 -97 -102.5t-98.5 -81t-106.5 -53t-122 -19.5q-61 0 -113.5 20.5t-89 55t-58 81t-21.5 97.5q0 61 19.5 110t54 91t81.5 80t103 79l96 70l-41 49q-51 61 -90 131t-39 143q0 70 24.5 125.5t66.5 95t97.5 61t118.5 21.5q55 0 101.5 -17t80 -48t53 -73
t19.5 -91q0 -55 -21.5 -105.5t-54 -92.5t-72.5 -75.5t-75 -60.5l-96 -71l282 -344l219 251h62l-250 -288l235 -285h-65zM446 41q115 0 202 67.5t181 176.5l-288 350l-99 -72q-47 -35 -89 -67.5t-74.5 -69.5t-52 -79t-19.5 -93q0 -92 64 -152.5t175 -60.5zM848 1061
q0 88 -55.5 138t-153.5 50q-53 0 -98 -18.5t-79 -51t-52.5 -76.5t-18.5 -95q0 -63 32 -126t83 -124l43 -53l100 73q29 20 64 50t64.5 65t50 77t20.5 91z" />
    <glyph glyph-name="quotesingle" unicode="'" horiz-adv-x="378" 
d="M391 1290h51l-67 -379h-51z" />
    <glyph glyph-name="parenleft" unicode="(" horiz-adv-x="542" 
d="M664 1270q-115 -131 -205 -287q-39 -66 -76 -143.5t-65.5 -165.5t-45 -182.5t-16.5 -194.5q0 -129 21.5 -246t48.5 -205q31 -102 67 -190l-43 -35q-41 96 -74 209q-29 96 -50 219t-21 258q0 102 18.5 200.5t47 188.5t66.5 170t79 148q94 158 213 293z" />
    <glyph glyph-name="parenright" unicode=")" horiz-adv-x="542" 
d="M37 -342q115 131 205 287q39 66 74.5 143.5t64.5 164.5t46 182t17 196q-2 129 -22.5 244.5t-46.5 203.5q-31 102 -68 193l43 35q39 -96 72 -209q29 -96 51.5 -219t22.5 -258q0 -104 -18.5 -201.5t-48.5 -188t-68.5 -170t-77.5 -147.5q-94 -158 -211 -293z" />
    <glyph glyph-name="asterisk" unicode="*" horiz-adv-x="675" 
d="M512 973l-170 -205l-39 31l170 196l-203 66l27 45l201 -72l37 256h61l-55 -256l227 72l10 -53l-225 -62l98 -192l-43 -31z" />
    <glyph glyph-name="plus" unicode="+" horiz-adv-x="890" 
d="M631 911l-64 -358h359l-8 -51h-359l-63 -359h-52l64 359h-358l8 51h358l64 358h51z" />
    <glyph glyph-name="comma" unicode="," horiz-adv-x="337" 
d="M129 43q0 20 13.5 34.5t33.5 14.5q47 0 47 -61q0 -43 -20.5 -80t-44.5 -66q-29 -33 -64 -61l-12 12q23 23 41 49q16 23 29.5 51.5t17.5 63.5q-16 2 -28.5 14.5t-12.5 28.5z" />
    <glyph glyph-name="hyphen" unicode="-" horiz-adv-x="675" 
d="M702 502h-552l8 51h553z" />
    <glyph glyph-name="period" unicode="." horiz-adv-x="337" 
d="M129 41q0 23 14.5 37t36.5 14q18 0 30.5 -12t12.5 -29q0 -23 -14 -37t-37 -14q-18 0 -30.5 12.5t-12.5 28.5z" />
    <glyph glyph-name="slash" unicode="/" horiz-adv-x="583" 
d="M-10 -369h-56l824 1659h55z" />
    <glyph glyph-name="zero" unicode="0" horiz-adv-x="1208" 
d="M219 494q0 193 48 342t130 252.5t189.5 157.5t224.5 54q78 0 150.5 -34.5t129 -100t90 -159t33.5 -209.5q0 -193 -48 -342.5t-130 -253t-189.5 -157.5t-223.5 -54q-78 0 -151 34.5t-129 100t-90 159t-34 210.5zM1161 788q0 109 -28.5 194t-77.5 144.5t-115 91t-137 31.5
q-98 0 -193.5 -50t-170 -146.5t-121 -235.5t-46.5 -315q0 -109 29 -194t78 -144.5t114.5 -91t137.5 -31.5q98 0 193.5 50t170 146.5t120.5 235.5t46 315z" />
    <glyph glyph-name="one" unicode="1" horiz-adv-x="604" 
d="M647 1290l-227 -1290h-51l215 1225l-308 -193l-26 43l346 215h51z" />
    <glyph glyph-name="two" unicode="2" 
d="M858 51l-8 -51h-748l9 51l553 494q61 55 115.5 105t93 101.5t61 106.5t22.5 121q0 119 -74.5 194.5t-205.5 75.5q-141 0 -242.5 -79.5t-130.5 -217.5h-51q35 166 146.5 257t285.5 91q76 0 136.5 -25.5t103.5 -68.5t65.5 -99t22.5 -120q0 -78 -23.5 -141.5t-65.5 -118.5
t-100.5 -109.5t-126.5 -113.5l-514 -453h676z" />
    <glyph glyph-name="three" unicode="3" horiz-adv-x="983" 
d="M258 983q33 147 146.5 232t273.5 85q76 0 138.5 -24.5t106.5 -65.5t67.5 -96t23.5 -117q0 -113 -46 -179t-100 -101q-66 -41 -145 -58q59 -18 106 -55q41 -33 74 -87t33 -142q0 -86 -31 -157t-89 -121t-140 -78.5t-182 -28.5q-84 0 -153 24.5t-117 67.5t-74.5 100.5
t-26.5 124.5h53q0 -121 87 -193.5t239 -72.5q86 0 156.5 24.5t120.5 67.5t77 101.5t27 127.5q0 123 -76 198t-236 75h-82l11 51h82q82 0 151.5 20.5t120.5 59.5t79 94t28 125q0 117 -75 190.5t-216 73.5q-66 0 -125.5 -19.5t-106.5 -54t-80.5 -84t-48.5 -108.5h-51z" />
    <glyph glyph-name="four" unicode="4" horiz-adv-x="942" 
d="M938 328h-154l-57 -328h-51l57 328h-635l8 51l787 911h61l-161 -911h153zM741 379l148 831l-717 -831h569z" />
    <glyph glyph-name="five" unicode="5" horiz-adv-x="1024" 
d="M655 829q78 0 142.5 -28.5t111.5 -77.5t74 -115.5t27 -142.5q0 -104 -37 -192.5t-101.5 -151t-149.5 -97t-181 -34.5q-86 0 -152.5 25.5t-113 69.5t-70 103.5t-23.5 128.5h51q2 -123 82 -199.5t234 -76.5q82 0 156.5 31.5t131 87t89 130.5t32.5 163q0 70 -21.5 130
t-61 103t-97 67.5t-129.5 24.5q-100 0 -164.5 -31.5t-105.5 -70.5q-47 -45 -74 -103h-51l209 717h604l-10 -51h-555l-158 -532q29 35 72 61q37 23 95 42t144 19z" />
    <glyph glyph-name="six" unicode="6" horiz-adv-x="1013" 
d="M530 -10q-80 0 -146.5 27.5t-114.5 75.5t-75.5 114.5t-27.5 144.5q0 63 12 116.5t39 104t66 101.5t92 112l432 504h65l-446 -520q23 16 55 29q29 10 70 20t94 10q80 0 144.5 -28.5t111.5 -78.5t72.5 -116.5t25.5 -140.5q0 -106 -37.5 -193.5t-102 -150t-150 -97
t-179.5 -34.5zM637 778q-82 0 -156.5 -32.5t-133 -90t-93.5 -132t-35 -161.5q0 -145 87 -233t233 -88q82 0 156.5 31.5t131 87t89 130.5t32.5 163q0 70 -20.5 129t-60.5 103t-97 68.5t-133 24.5z" />
    <glyph glyph-name="seven" unicode="7" horiz-adv-x="849" 
d="M1026 1290l-10 -51l-783 -1239h-61l782 1239h-675l10 51h737z" />
    <glyph glyph-name="eight" unicode="8" horiz-adv-x="1024" 
d="M719 1300q68 0 125 -22.5t100 -61t67.5 -92t24.5 -112.5q0 -106 -41 -172t-88 -103q-57 -43 -129 -65q55 -25 99 -64q37 -35 68.5 -90t31.5 -135q0 -86 -32 -158.5t-90 -125t-139 -81t-179 -28.5q-78 0 -145.5 23.5t-117 66.5t-78 102.5t-28.5 130.5q0 59 13.5 107.5
t36 86.5t51 66.5t59.5 49.5q70 49 161 71q-45 20 -79 58q-31 29 -55.5 77t-24.5 115q0 80 28.5 146.5t79.5 112.5t123 71.5t158 25.5zM545 41q82 0 151.5 25.5t120.5 70.5t80 105.5t29 130.5q0 135 -91.5 208.5t-234.5 73.5q-82 0 -151.5 -25.5t-121 -70.5t-80 -105.5
t-28.5 -129.5q0 -135 91.5 -209t234.5 -74zM655 707q70 0 130.5 21.5t104.5 60t69.5 93t25.5 119.5q0 55 -20.5 101.5t-57.5 78t-87 50t-109 18.5q-70 0 -130.5 -21.5t-104.5 -60.5t-69.5 -93t-25.5 -120q0 -55 20.5 -101t57.5 -78t87 -50t109 -18z" />
    <glyph glyph-name="nine" unicode="9" horiz-adv-x="1013" 
d="M709 1300q80 0 146.5 -27.5t114.5 -75.5t75.5 -114.5t27.5 -144.5q0 -63 -12 -116.5t-39 -103.5t-65.5 -101.5t-92.5 -112.5l-432 -504h-65l446 520q-23 -18 -55 -31q-29 -10 -70 -19t-94 -9q-80 0 -144.5 28.5t-111.5 78.5t-72.5 117t-25.5 140q0 106 37.5 193.5
t102 150t150 97t179.5 34.5zM602 512q82 0 157 33t133 90t93 132t35 161q0 145 -87 233t-233 88q-82 0 -156.5 -31.5t-131 -87t-89 -130t-32.5 -162.5q0 -70 20.5 -129.5t60.5 -103.5t97 -68.5t133 -24.5z" />
    <glyph glyph-name="colon" unicode=":" horiz-adv-x="337" 
d="M129 41q0 23 14.5 37t36.5 14q18 0 30.5 -12t12.5 -29q0 -23 -14 -37t-37 -14q-18 0 -30.5 12.5t-12.5 28.5zM270 850q0 23 14.5 37t37.5 14q18 0 30.5 -12t12.5 -29q0 -23 -14.5 -37t-37.5 -14q-18 0 -30.5 12.5t-12.5 28.5z" />
    <glyph glyph-name="semicolon" unicode=";" horiz-adv-x="337" 
d="M129 43q0 20 13.5 34.5t33.5 14.5q47 0 47 -61q0 -43 -20.5 -80t-44.5 -66q-29 -33 -64 -61l-12 12q23 23 41 49q16 23 29.5 51.5t17.5 63.5q-16 2 -28.5 14.5t-12.5 28.5zM270 850q0 23 14.5 37t37.5 14q18 0 30.5 -12t12.5 -29q0 -23 -14.5 -37t-37.5 -14
q-18 0 -30.5 12.5t-12.5 28.5z" />
    <glyph glyph-name="less" unicode="&#x3c;" horiz-adv-x="870" 
d="M223 446l580 -354l-8 -51l-637 389l6 41l776 389l-10 -59z" />
    <glyph glyph-name="equal" unicode="=" horiz-adv-x="880" 
d="M123 358h758l-9 -51h-757zM948 737l-8 -51h-758l8 51h758z" />
    <glyph glyph-name="greater" unicode="&#x3e;" horiz-adv-x="872" 
d="M803 455l-580 354l8 51l637 -389l-6 -41l-776 -389l10 59z" />
    <glyph glyph-name="question" unicode="?" horiz-adv-x="870" 
d="M944 1016q0 -80 -30.5 -137.5t-76.5 -104.5t-101.5 -88t-104.5 -90t-86 -113.5t-47 -154.5h-52l3 20q8 86 44.5 150.5t86 116t104.5 94.5t101 87t77 94t31 116q0 51 -17.5 95t-50 76.5t-80 52t-106.5 19.5q-131 0 -223 -82t-115 -225l-6 -41h-51l6 41q12 84 47 150.5
t87 112.5t118.5 70.5t144.5 24.5q66 0 120 -22.5t94 -60t61.5 -90t21.5 -111.5zM375 41q0 23 14 37t37 14q18 0 30.5 -12t12.5 -29q0 -23 -14.5 -37t-36.5 -14q-18 0 -30.5 12.5t-12.5 28.5z" />
    <glyph glyph-name="at" unicode="@" horiz-adv-x="1536" 
d="M1071 279q-27 -41 -65 -74q-35 -29 -85.5 -50.5t-119.5 -21.5q-57 0 -107.5 20.5t-88.5 57.5t-59.5 88t-21.5 113q0 86 29 155.5t77 118.5t111.5 75.5t132.5 26.5q72 0 119 -24.5t76 -52.5q35 -35 55 -78h11l36 145h31l-72 -397q-16 -82 22 -139.5t118 -57.5
q37 0 75.5 18.5t72.5 61.5t55.5 114t21.5 175q0 111 -40 206t-112.5 165.5t-176 110.5t-230.5 40q-152 0 -282 -53t-225 -146.5t-149.5 -217t-54.5 -265.5q0 -119 43 -219t119 -173t179.5 -114t224.5 -41q68 0 124 14.5t97 33.5q49 23 88 49l24 -41q-43 -31 -96 -54
q-47 -20 -108.5 -36.5t-137.5 -16.5q-127 0 -238.5 45t-194.5 125t-130 187.5t-47 230.5q0 158 59.5 294t163 235.5t244.5 156.5t305 57q131 0 241.5 -45t191.5 -121.5t126 -179t45 -215.5q0 -117 -25.5 -199.5t-67.5 -134t-93 -75t-100 -23.5q-55 0 -90 21.5t-56 50.5
q-23 33 -35 74h-10zM866 737q-61 0 -113.5 -24.5t-92 -66.5t-62.5 -99.5t-23 -122.5q0 -117 67 -178.5t167 -61.5q59 0 111.5 24.5t92.5 70t62.5 105.5t22.5 134q0 98 -65 158.5t-167 60.5z" />
    <glyph glyph-name="A" unicode="A" horiz-adv-x="1146" 
d="M791 1290h40l265 -1290h-52l-73 358h-641l-199 -358h-59zM358 410h603l-162 790z" />
    <glyph glyph-name="B" unicode="B" horiz-adv-x="1136" 
d="M870 690q61 -23 111 -61q41 -35 76 -89.5t35 -138.5q0 -90 -33 -164.5t-92.5 -127t-141.5 -81t-180 -28.5h-461l228 1290h409q72 0 130.5 -22.5t99.5 -61.5t63.5 -91t22.5 -109q0 -96 -42 -158t-91 -96q-60 -42 -134 -62zM352 666l-108 -615h409q84 0 155 25.5t122 72
t79.5 106.5t28.5 132q0 121 -82 200t-233 79h-371zM360 717h369q76 0 140.5 21.5t112.5 59.5t75.5 89t27.5 110q0 100 -67.5 171t-206.5 71h-358z" />
    <glyph glyph-name="C" unicode="C" horiz-adv-x="1310" 
d="M213 545q0 143 49 278t137 241.5t211 171t273 64.5q92 0 171 -32.5t140 -90t104 -136t62 -171.5h-55q-37 168 -147.5 273.5t-283.5 105.5q-131 0 -242.5 -59.5t-192.5 -156.5t-127 -222t-46 -254q0 -111 35 -206t96.5 -163.5t144.5 -107.5t181 -39q92 0 172 28.5
t147.5 80t119.5 121t87 149.5h58q-41 -92 -97.5 -170t-130 -136.5t-165 -91t-199.5 -32.5q-102 0 -193.5 43t-160 118.5t-108.5 176t-40 217.5z" />
    <glyph glyph-name="D" unicode="D" horiz-adv-x="1198" 
d="M1210 745q0 -152 -53 -286.5t-146 -236t-220 -162t-277 -60.5h-330l228 1290h266q113 0 211 -40t168.5 -112.5t111.5 -173t41 -219.5zM522 51q131 0 247 55.5t202 148.5t136 217t50 261q0 115 -35 208t-99.5 159.5t-154.5 102.5t-198 36h-217l-209 -1188h278z" />
    <glyph glyph-name="E" unicode="E" horiz-adv-x="1054" 
d="M961 51l-9 -51h-768l228 1290h747l-10 -51h-696l-97 -543h645l-8 -51h-645l-104 -594h717z" />
    <glyph glyph-name="F" unicode="F" horiz-adv-x="972" 
d="M184 0l228 1290h727l-11 -51h-675l-99 -563h564l-11 -51h-563l-108 -625h-52z" />
    <glyph glyph-name="G" unicode="G" horiz-adv-x="1361" 
d="M213 545q0 143 49 278t137 241.5t211 171t273 64.5q84 0 158.5 -27.5t135 -78.5t103.5 -120.5t66 -151.5h-58q-39 147 -147.5 237t-266.5 90q-131 0 -242.5 -59.5t-192.5 -156.5t-127 -222t-46 -254q0 -111 35 -206t96.5 -163.5t144.5 -107.5t181 -39q109 0 199 50
t158.5 126t112.5 166t60 170h-430l11 51h481l-107 -604h-41l45 317q-53 -92 -125 -163q-63 -61 -155 -112.5t-217 -51.5q-102 0 -193.5 43t-160 118.5t-108.5 176t-40 217.5z" />
    <glyph glyph-name="H" unicode="H" horiz-adv-x="1218" 
d="M463 1290l-107 -604h748l106 604h52l-228 -1290h-51l111 635h-748l-110 -635h-52l228 1290h51z" />
    <glyph glyph-name="I" unicode="I" horiz-adv-x="419" 
d="M236 0h-52l228 1290h51z" />
    <glyph glyph-name="J" unicode="J" horiz-adv-x="983" 
d="M1036 1290l-157 -893q-37 -211 -144.5 -309t-285.5 -98q-74 0 -135.5 21.5t-104.5 60.5t-66.5 91t-23.5 111q0 27 2 37q0 8 2 17h49q-2 -6 -2 -15v-28q0 -106 74.5 -175t212.5 -69q305 0 370 356l158 893h51z" />
    <glyph glyph-name="K" unicode="K" 
d="M350 655l-114 -655h-52l228 1290h51l-113 -635l737 635h78l-741 -639l528 -651h-71z" />
    <glyph glyph-name="L" unicode="L" horiz-adv-x="942" 
d="M909 51l-8 -51h-717l228 1290h51l-219 -1239h665z" />
    <glyph glyph-name="M" unicode="M" horiz-adv-x="1515" 
d="M1487 1290h72l-228 -1290h-51l211 1198l-713 -1198h-41l-291 1198l-210 -1198h-52l228 1290h63l293 -1208z" />
    <glyph glyph-name="N" unicode="N" horiz-adv-x="1228" 
d="M1272 1290l-228 -1290h-40l-560 1188l-208 -1188h-52l228 1290h41l557 -1188l211 1188h51z" />
    <glyph glyph-name="O" unicode="O" horiz-adv-x="1372" 
d="M213 545q0 143 49 278t137 241.5t211 171t273 64.5q102 0 193 -43t160 -118.5t108.5 -176t39.5 -217.5q0 -143 -49 -279t-137 -241.5t-211 -170t-272 -64.5q-102 0 -193.5 43t-160 118.5t-108.5 176t-40 217.5zM1331 733q0 111 -34.5 206t-96 163.5t-144.5 107.5t-182 39
q-131 0 -242.5 -59.5t-192.5 -156.5t-127 -222t-46 -254q0 -111 35 -206t96.5 -163.5t144.5 -107.5t181 -39q131 0 241.5 59.5t192.5 156.5t128 222t46 254z" />
    <glyph glyph-name="P" unicode="P" horiz-adv-x="1064" 
d="M780 1290q76 0 140.5 -26.5t110.5 -72.5t71.5 -106.5t25.5 -130.5q0 -193 -117.5 -307.5t-334.5 -114.5h-348l-92 -532h-52l228 1290h368zM686 584q90 0 162 26.5t123 73.5t77.5 113.5t26.5 146.5q0 129 -82 212t-223 83h-317l-115 -655h348z" />
    <glyph glyph-name="Q" unicode="Q" horiz-adv-x="1372" 
d="M1085 117q-78 -59 -171 -93t-199 -34q-102 0 -193.5 43t-160 118.5t-108.5 176t-40 217.5q0 143 49 278t137 241.5t211 171t273 64.5q102 0 193 -43t160 -118.5t108.5 -176t39.5 -217.5q0 -172 -68.5 -329.5t-191.5 -268.5l152 -178l-39 -30zM1331 733q0 111 -34.5 206
t-96 163.5t-144.5 107.5t-182 39q-131 0 -242.5 -59.5t-192.5 -156.5t-127 -222t-46 -254q0 -111 35 -206t96.5 -163.5t144.5 -107.5t181 -39q92 0 175 30.5t153 84.5l-162 192l39 31l162 -193q113 100 177 245.5t64 301.5z" />
    <glyph glyph-name="R" unicode="R" horiz-adv-x="1116" 
d="M725 573h-389l-100 -573h-52l228 1290h417q72 0 133.5 -24.5t105.5 -67.5t69.5 -100.5t25.5 -120.5q0 -174 -97 -281.5t-288 -120.5l238 -575h-53zM344 625h397q176 0 272.5 94t96.5 250q0 57 -20.5 107t-58.5 86t-92 56.5t-120 20.5h-366z" />
    <glyph glyph-name="S" unicode="S" horiz-adv-x="1024" 
d="M299 979q0 74 33 134.5t88 101t130 63t161 22.5q74 0 136 -24.5t108 -67.5t73 -100t27 -121v-24h-51v16q0 57 -20.5 106.5t-59.5 86t-95.5 57t-126.5 20.5q-80 0 -144 -20.5t-110.5 -56t-71 -84t-24.5 -105.5q0 -74 46 -125t116 -91t150.5 -76t150.5 -81t116 -104.5
t46 -147.5q0 -180 -118 -274t-329 -94q-86 0 -155.5 23.5t-118.5 66.5t-75.5 103.5t-26.5 133.5v21q0 6 2 10h51v-22q0 -139 87 -212t245 -73q186 0 285.5 81t99.5 228q0 80 -46.5 134.5t-116 96.5t-150.5 78.5t-150.5 79.5t-115.5 99.5t-46 140.5z" />
    <glyph glyph-name="T" unicode="T" horiz-adv-x="993" 
d="M1149 1239h-410l-217 -1239h-51l217 1239h-409l10 51h870z" />
    <glyph glyph-name="U" unicode="U" horiz-adv-x="1249" 
d="M647 -10q-180 0 -287.5 104.5t-107.5 294.5q0 59 12 125l137 776h52l-138 -776q-12 -66 -12 -121q0 -170 93 -261t259 -91q182 0 297 106.5t156 333.5l143 809h52l-144 -809q-45 -256 -172 -373.5t-340 -117.5z" />
    <glyph glyph-name="V" unicode="V" horiz-adv-x="1126" 
d="M567 0h-41l-254 1290h52l235 -1202l660 1202h57z" />
    <glyph glyph-name="W" unicode="W" horiz-adv-x="1638" 
d="M1051 1290l127 -1181l544 1181h56l-596 -1290h-41l-131 1178l-545 -1178h-41l-141 1290h51l127 -1181l545 1181h45z" />
    <glyph glyph-name="X" unicode="X" horiz-adv-x="1024" 
d="M299 1290h57l277 -590l481 590h66l-523 -641l306 -649h-58l-284 604l-494 -604h-66l537 657z" />
    <glyph glyph-name="Y" unicode="Y" horiz-adv-x="1054" 
d="M272 1290h56l276 -700h10l527 700h63l-577 -768l-90 -522h-52l90 522z" />
    <glyph glyph-name="Z" unicode="Z" horiz-adv-x="983" 
d="M340 1290h788l-4 -30l-954 -1209h739l-8 -51h-819l4 31l954 1208h-710z" />
    <glyph glyph-name="bracketleft" unicode="[" horiz-adv-x="573" 
d="M199 -317h256l-9 -52h-307l293 1659h307l-10 -51h-256z" />
    <glyph glyph-name="backslash" unicode="\" horiz-adv-x="583" 
d="M227 1290h49l240 -1659h-49z" />
    <glyph glyph-name="bracketright" unicode="]" horiz-adv-x="573" 
d="M535 1239h-256l10 51h307l-293 -1659h-305l6 52h256z" />
    <glyph glyph-name="asciicircum" unicode="^" horiz-adv-x="798" 
d="M768 696l-156 506l-333 -506h-56l379 574h41l174 -574h-49z" />
    <glyph glyph-name="underscore" unicode="_" horiz-adv-x="563" 
d="M551 -297h-643l8 51h643z" />
    <glyph glyph-name="grave" unicode="`" horiz-adv-x="327" 
d="M444 1044h-28l-127 246h78z" />
    <glyph glyph-name="a" unicode="a" horiz-adv-x="921" 
d="M430 41q66 0 126 27.5t109.5 76t83 114t48.5 142.5l12 70h-123q-150 0 -247 -20.5t-154.5 -54.5t-80 -79t-22.5 -92q0 -84 62.5 -134t185.5 -50zM594 911q61 0 114.5 -17t93.5 -51t62.5 -84t22.5 -116q0 -16 -2 -34.5t-6 -37.5l-101 -571h-41l19 168h-11q-35 -51 -81 -90
q-41 -35 -101.5 -61.5t-140.5 -26.5q-137 0 -214 64.5t-77 158.5q0 63 25.5 119.5t90 98.5t173 66.5t274.5 24.5h123l10 49q4 18 6.5 37t2.5 35q0 96 -61.5 156.5t-188.5 60.5q-117 0 -185.5 -48t-107.5 -157h-51q35 123 124 189.5t228 66.5z" />
    <glyph glyph-name="b" unicode="b" horiz-adv-x="1085" 
d="M381 1290h51l-106 -604h10q41 61 96 113q47 41 118 76.5t163 35.5q74 0 139.5 -29.5t116.5 -81.5t80.5 -124t29.5 -154q0 -121 -41 -219t-109.5 -167.5t-156.5 -107.5t-180 -38q-100 0 -165 34.5t-103 75.5q-45 49 -72 111h-10l-47 -211h-41zM600 41q80 0 158 35
t137 97.5t96 148.5t37 190q0 78 -25.5 141.5t-68.5 109.5t-102.5 71.5t-126.5 25.5q-80 0 -157 -41t-137.5 -110.5t-97.5 -162.5t-37 -196q0 -74 26 -131t70 -97t102 -60.5t126 -20.5z" />
    <glyph glyph-name="c" unicode="c" horiz-adv-x="972" 
d="M539 41q121 0 215 65.5t149 180.5h55q-61 -141 -176.5 -219t-251.5 -78q-74 0 -139 29.5t-116.5 82t-81 123t-29.5 154.5q0 121 41 219t109.5 168t156.5 107.5t180 37.5q66 0 123 -22.5t103.5 -63.5t77 -97t44.5 -124h-53q-25 117 -105.5 186.5t-197.5 69.5
q-80 0 -157.5 -34.5t-137 -97t-96.5 -148.5t-37 -191q0 -78 25.5 -141.5t68.5 -109.5t102.5 -71.5t127.5 -25.5z" />
    <glyph glyph-name="d" unicode="d" horiz-adv-x="1085" 
d="M932 0h-41l29 215h-11q-43 -63 -98 -113q-47 -43 -117.5 -77.5t-163.5 -34.5q-74 0 -139 29.5t-116.5 82t-81 123t-29.5 154.5q0 121 41 219t109.5 168t156.5 107.5t180 37.5q98 0 164 -34.5t105 -75.5q45 -49 71 -111h10l107 600h51zM643 860q-80 0 -157.5 -34.5
t-137 -97t-96.5 -148.5t-37 -191q0 -78 25.5 -141.5t68.5 -109.5t102.5 -71.5t127.5 -25.5q80 0 156.5 41t137 110.5t97.5 163t37 195.5q0 74 -26 131t-70 97t-102 60.5t-126 20.5z" />
    <glyph glyph-name="e" unicode="e" horiz-adv-x="1003" 
d="M539 41q98 0 187 44t148 130h62q-70 -109 -176.5 -167t-229.5 -58q-74 0 -139 29.5t-116.5 82t-81 123t-29.5 154.5q0 121 41 219t109.5 168t156.5 107.5t180 37.5q74 0 137.5 -29.5t111.5 -81.5t76 -124t28 -154q0 -16 -2.5 -31.5t-6.5 -29.5q-4 -16 -8 -31h-770
q-2 -6 -2 -14v-27q0 -78 25.5 -141.5t68.5 -109.5t102.5 -71.5t127.5 -25.5zM643 860q-72 0 -140.5 -27.5t-126 -77.5t-98 -120t-55.5 -154h727v13q0 4 1 9t1 9q0 78 -22.5 141.5t-64.5 109.5t-98 71.5t-124 25.5z" />
    <glyph glyph-name="f" unicode="f" horiz-adv-x="522" 
d="M641 850h-235l-150 -850h-51l149 850h-164l9 51h163l29 164q23 123 87.5 179t168.5 56q18 0 33.5 -2t26.5 -4q12 -4 22 -6l-10 -49q-10 2 -23 4q-10 2 -25.5 4t-31.5 2q-166 0 -197 -184l-28 -164h235z" />
    <glyph glyph-name="g" unicode="g" horiz-adv-x="1034" 
d="M897 41q-33 -186 -143.5 -287.5t-272.5 -101.5q-84 0 -147.5 22.5t-107.5 60.5t-66.5 88t-24.5 105h51q10 -104 83 -164.5t220 -60.5q139 0 233.5 89t123.5 249l35 190h-11q-41 -57 -94 -100q-47 -39 -113.5 -69.5t-152.5 -30.5q-72 0 -134.5 26.5t-108.5 75.5
t-73.5 116.5t-27.5 149.5q0 113 41 207t106.5 162t148.5 105.5t169 37.5q92 0 154.5 -33.5t99.5 -74.5q43 -47 67 -107h11l45 205h41zM623 860q-74 0 -145.5 -33.5t-130 -94t-94.5 -142.5t-36 -180q0 -74 22.5 -134.5t62.5 -103.5t95.5 -66.5t120.5 -23.5q76 0 149.5 36
t131 99.5t92.5 149.5t35 184q0 147 -83 228t-220 81z" />
    <glyph glyph-name="h" unicode="h" horiz-adv-x="1013" 
d="M662 911q68 0 125 -21.5t100 -63.5t66.5 -100t23.5 -132q0 -20 -2 -41t-6 -43l-88 -510h-52l89 510q4 23 6 42t2 38q0 127 -73 198.5t-200 71.5q-72 0 -132 -28.5t-107 -80t-79 -119t-46 -147.5l-84 -485h-51l227 1290h51l-100 -557h10q31 49 76 88q39 35 98.5 62.5
t145.5 27.5z" />
    <glyph glyph-name="i" unicode="i" horiz-adv-x="337" 
d="M301 901h51l-157 -901h-52zM328 1178q0 23 14 37t37 14q18 0 30.5 -12.5t12.5 -28.5q0 -23 -14.5 -37t-36.5 -14q-18 0 -30.5 12.5t-12.5 28.5z" />
    <glyph glyph-name="j" unicode="j" horiz-adv-x="337" 
d="M328 1178q0 23 14 37t37 14q18 0 30.5 -12.5t12.5 -28.5q0 -23 -14.5 -37t-36.5 -14q-18 0 -30.5 12.5t-12.5 28.5zM301 901h51l-176 -1003q-23 -131 -90.5 -183.5t-165.5 -52.5q-39 0 -57 6q-12 4 -21 8l11 52q10 -4 22 -9q20 -6 55 -6q76 0 127.5 43t69.5 152z" />
    <glyph glyph-name="k" unicode="k" horiz-adv-x="808" 
d="M287 471l-82 -471h-51l227 1290h51l-145 -819l557 430h76l-564 -434l439 -467h-68z" />
    <glyph glyph-name="l" unicode="l" horiz-adv-x="358" 
d="M205 0h-51l227 1290h51z" />
    <glyph glyph-name="m" unicode="m" horiz-adv-x="1454" 
d="M1165 911q53 0 99.5 -18.5t81 -55t55 -91t20.5 -123.5q0 -23 -2 -45.5t-6 -47.5l-92 -530h-51l92 530q4 23 6 45.5t2 42.5q0 117 -57.5 179.5t-155.5 62.5q-117 0 -198.5 -89t-108.5 -243l-92 -528h-51l92 528q8 41 8 86q0 117 -57.5 181.5t-155.5 64.5q-117 0 -201 -97
t-112 -269l-86 -494h-52l158 901h41l-16 -143h10q29 41 65 76q33 29 82 53t119 24q82 0 130 -33.5t75 -74.5q31 -47 43 -107q27 59 70 107q37 41 97 74.5t148 33.5z" />
    <glyph glyph-name="n" unicode="n" horiz-adv-x="1003" 
d="M651 911q68 0 125.5 -21.5t100.5 -63.5t66.5 -100t23.5 -132q0 -20 -2 -41t-7 -43l-88 -510h-51l88 510q4 23 6 42t2 38q0 127 -72.5 198.5t-199.5 71.5q-72 0 -132 -28.5t-107.5 -80t-79 -119t-45.5 -147.5l-84 -485h-52l158 901h41l-20 -168h10q31 49 76 88
q39 35 98 62.5t145 27.5z" />
    <glyph glyph-name="o" unicode="o" horiz-adv-x="1024" 
d="M651 911q74 0 139.5 -29.5t116.5 -81.5t81 -124t30 -154q0 -121 -41 -219t-109.5 -167.5t-156.5 -107.5t-181 -38q-74 0 -139 29.5t-116.5 82t-81 123t-29.5 154.5q0 121 41 219t109.5 168t156.5 107.5t180 37.5zM539 41q80 0 157.5 35t137 97.5t96.5 148.5t37 190
q0 78 -26 141.5t-69 109.5t-102 71.5t-127 25.5q-80 0 -157.5 -34.5t-137 -97t-96.5 -148.5t-37 -191q0 -78 25.5 -141.5t68.5 -109.5t102.5 -71.5t127.5 -25.5z" />
    <glyph glyph-name="p" unicode="p" horiz-adv-x="1075" 
d="M301 901h41l-29 -215h11q41 61 96 113q47 41 118.5 76.5t163.5 35.5q74 0 139.5 -29.5t117 -81.5t81 -124t29.5 -154q0 -121 -41 -219t-109.5 -167.5t-156.5 -107.5t-180 -38q-100 0 -165 34.5t-104 75.5q-45 49 -71 111h-11l-96 -539h-51zM590 41q80 0 157.5 35
t137 97.5t96.5 148.5t37 190q0 78 -25.5 141.5t-68.5 109.5t-102.5 71.5t-127.5 25.5q-80 0 -156.5 -41t-137 -110.5t-97.5 -162.5t-37 -196q0 -74 25.5 -131t70 -97t102.5 -60.5t126 -20.5z" />
    <glyph glyph-name="q" unicode="q" horiz-adv-x="1075" 
d="M872 -328h-51l97 543h-11q-41 -63 -96 -113q-47 -43 -117.5 -77.5t-163.5 -34.5q-74 0 -139 29.5t-116.5 82t-81 123t-29.5 154.5q0 121 41 219t109.5 168t156.5 107.5t180 37.5q98 0 164 -34.5t105 -75.5q45 -49 71 -111h10l48 211h41zM643 860q-80 0 -157.5 -34.5
t-137 -97t-96.5 -148.5t-37 -191q0 -78 25.5 -141.5t68.5 -109.5t102.5 -71.5t127.5 -25.5q80 0 156.5 41t137 110.5t97.5 163t37 195.5q0 74 -26 131t-70 97t-102 60.5t-126 20.5z" />
    <glyph glyph-name="r" unicode="r" horiz-adv-x="593" 
d="M713 911l-8 -51h-62q-61 0 -119.5 -26.5t-107.5 -73.5t-85 -114.5t-50 -147.5l-86 -498h-52l158 901h41l-20 -168h10q29 49 76 88q39 35 99 62.5t144 27.5h62z" />
    <glyph glyph-name="s" unicode="s" horiz-adv-x="808" 
d="M752 246q0 -66 -25 -113t-67 -80t-99 -48t-123 -15q-68 0 -122 19.5t-94 51t-61.5 74.5t-21.5 92v27q0 8 2 12h54v-30q0 -88 66.5 -141.5t189.5 -53.5q117 0 184 54.5t67 140.5q0 61 -35.5 101t-88 68.5t-115 51t-114.5 51.5t-88 67.5t-36 100.5q0 98 78 166.5t225 68.5
q68 0 121 -19.5t90 -51t56.5 -75.5t19.5 -93q0 -4 -1 -9.5t-1 -9.5v-8h-49v23q0 92 -65.5 142t-178.5 50q-123 0 -183.5 -53t-60.5 -121q0 -53 35 -87t88.5 -59.5t114.5 -49t114.5 -54t88.5 -75.5t35 -115z" />
    <glyph glyph-name="t" unicode="t" horiz-adv-x="604" 
d="M375 850h-185l9 51h98q47 0 69.5 17.5t30.5 64.5l33 184h51l-47 -266h236l-8 -51h-236l-107 -600q-18 -100 22 -154.5t126 -54.5q16 0 26.5 1t20.5 3q8 2 18 4l-8 -49q-10 -4 -18 -6q-10 -2 -20.5 -3t-26.5 -1q-88 0 -142.5 53t-54.5 147q0 29 6 60z" />
    <glyph glyph-name="u" unicode="u" horiz-adv-x="1013" 
d="M520 -10q-68 0 -125 21.5t-100 63.5t-66.5 100t-23.5 132q0 20 2 41t6 43l88 510h51l-88 -510q-4 -23 -6 -42t-2 -38q0 -127 72.5 -198.5t199.5 -71.5q70 0 131.5 28.5t108.5 80t79 119t46 147.5l84 485h51l-158 -901h-41l21 168h-10q-31 -51 -76 -90
q-39 -35 -98.5 -61.5t-145.5 -26.5z" />
    <glyph glyph-name="v" unicode="v" horiz-adv-x="880" 
d="M987 901l-526 -901h-41l-211 901h51l193 -819l477 819h57z" />
    <glyph glyph-name="w" unicode="w" horiz-adv-x="1290" 
d="M389 0h-41l-129 901h51l115 -799l391 799h47l115 -799l391 799h55l-442 -901h-41l-115 809z" />
    <glyph glyph-name="x" unicode="x" horiz-adv-x="819" 
d="M459 467l-230 434h58l209 -393l346 393h65l-387 -440l244 -461h-57l-224 420l-368 -420h-66z" />
    <glyph glyph-name="y" unicode="y" horiz-adv-x="880" 
d="M987 901l-598 -1034q-35 -59 -64.5 -98t-59 -62.5t-61.5 -34t-71 -10.5q-27 0 -41 6q-8 2 -16 6l10 50q8 -4 16 -7q20 -4 41 -4q27 0 50.5 7.5t46 24.5t45 47t47.5 75l117 201l-240 833h51l219 -764h10l441 764h57z" />
    <glyph glyph-name="z" unicode="z" horiz-adv-x="788" 
d="M786 850h-544l8 51h624l-4 -31l-710 -819h565l-8 -51h-645l4 31z" />
    <glyph glyph-name="braceleft" unicode="{" horiz-adv-x="624" 
d="M207 481q164 0 194 174l70 400q23 133 86.5 184t171.5 51h62l-11 -51h-61q-86 0 -133 -42t-64 -142l-69 -400q-12 -66 -36 -104.5t-48 -61.5q-29 -25 -62 -34q27 -14 47 -41q16 -23 26.5 -62t0.5 -98l-64 -363q-6 -37 -6 -65q0 -76 40 -109.5t114 -33.5h41l-8 -52h-41
q-92 0 -144.5 50.5t-52.5 144.5q0 31 6 65l64 363q16 86 -14.5 136t-116.5 50z" />
    <glyph glyph-name="bar" unicode="|" horiz-adv-x="542" 
d="M473 1290h51l-286 -1618h-52z" />
    <glyph glyph-name="braceright" unicode="}" horiz-adv-x="624" 
d="M578 440q-164 0 -195 -174l-70 -399q-23 -133 -87 -184.5t-171 -51.5h-61l10 52h62q86 0 133 42t63 142l70 399q10 66 34.5 105t49.5 61q29 25 61 35q-27 14 -47 41q-16 23 -26.5 61.5t-0.5 98.5l64 362q6 37 6 66q0 76 -40 109.5t-114 33.5h-40l8 51h41q92 0 144 -50
t52 -144q0 -33 -6 -66l-63 -362q-16 -86 14.5 -136.5t116.5 -50.5z" />
    <glyph glyph-name="asciitilde" unicode="~" horiz-adv-x="901" 
d="M346 625q-66 0 -117 -51.5t-61 -143.5h-51q12 117 78.5 181.5t158.5 64.5q55 0 104.5 -32t96.5 -70.5t94 -70.5t99 -32q66 0 116.5 51t61.5 144h51q-12 -117 -79 -181.5t-159 -64.5q-55 0 -104 31.5t-96 70.5t-94.5 71t-98.5 32z" />
    <glyph glyph-name="uni00A0" unicode="&#xa0;" horiz-adv-x="409" 
 />
    <glyph glyph-name="exclamdown" unicode="&#xa1;" horiz-adv-x="460" 
d="M197 -328h-52l160 901h51zM428 860q0 -23 -14.5 -37t-36.5 -14q-18 0 -30.5 12.5t-12.5 28.5q0 23 14 37t37 14q18 0 30.5 -12.5t12.5 -28.5z" />
    <glyph glyph-name="cent" unicode="&#xa2;" horiz-adv-x="972" 
d="M479 -6q-66 8 -123 42t-100 84t-67.5 116.5t-24.5 142.5q0 119 40 216t106.5 165.5t151.5 107.5t177 43l39 215h51l-39 -217q117 -14 200 -98t109 -207h-53q-25 117 -105.5 186.5t-197.5 69.5q-80 0 -157.5 -34.5t-137 -97t-96.5 -148.5t-37 -191q0 -78 25.5 -141.5
t68.5 -109.5t102.5 -71.5t127.5 -25.5q121 0 215 65.5t149 180.5h55q-61 -141 -176.5 -219t-251.5 -78l-34 -195h-52z" />
    <glyph glyph-name="sterling" unicode="&#xa3;" horiz-adv-x="993" 
d="M340 246q-10 -63 -31.5 -100t-44.5 -60q-25 -25 -53 -35h729l-8 -51h-830l9 51q66 18 113.5 60.5t64.5 134.5l55 317h-143l8 51h143l60 328q33 180 134 269t255 89q70 0 126 -23.5t95 -68.5t58.5 -107.5t13.5 -137.5h-52q8 139 -59.5 212.5t-189.5 73.5
q-123 0 -212 -74.5t-118 -232.5l-60 -328h379l-8 -51h-379z" />
    <glyph glyph-name="currency" unicode="&#xa4;" horiz-adv-x="1095" 
d="M150 625h186l117 665h360q82 0 146 -24q65 -25 110 -68t69 -100t23 -123q0 -186 -113 -294q-114 -108 -331 -108h-340l-39 -215h461l-8 -51h-461l-54 -307h-51l54 307h-185l8 51h187l37 215h-185zM727 625q186 0 284 93q97 93 97 247q0 123 -77 198q-77 76 -228 76h-309
l-107 -614h340z" />
    <glyph glyph-name="yen" unicode="&#xa5;" horiz-adv-x="1054" 
d="M950 573l-10 -51h-307l-33 -194h307l-10 -52h-307l-47 -276h-51l47 276h-308l11 52h307l33 194h-308l11 51h276l-282 717h55l276 -700h11l526 700h63l-538 -717h278z" />
    <glyph glyph-name="brokenbar" unicode="&#xa6;" horiz-adv-x="542" 
d="M299 307h51l-112 -635h-52zM473 1290h51l-112 -635h-52z" />
    <glyph glyph-name="section" unicode="&#xa7;" horiz-adv-x="972" 
d="M207 492q0 92 50 158.5t112 111.5q72 53 163 86q-66 35 -110.5 81t-44.5 122q0 51 21.5 96t62.5 79t98 54t129 20q61 0 110.5 -18t84.5 -52t53 -79t18 -96q0 -6 -1 -12.5t-1 -10.5v-8h-51v20q0 92 -55 148.5t-166 56.5q-61 0 -107.5 -16t-78 -43t-48 -61.5t-16.5 -73.5
q0 -57 38 -96t95.5 -69t124 -57.5t123.5 -62.5t96 -84t39 -123q0 -92 -49 -157.5t-109 -108.5q-70 -51 -159 -86q72 -35 121 -82t49 -125q0 -53 -23.5 -98t-67.5 -79t-105.5 -53.5t-137.5 -19.5q-66 0 -118 18.5t-90 52.5t-58.5 78t-20.5 97v27q0 8 2 14h51v-31
q0 -92 62.5 -148.5t179.5 -56.5q63 0 114.5 16.5t86.5 43t53 61.5t18 74q0 57 -39.5 96t-99 69t-130 57.5t-130 62t-99.5 84t-40 123.5zM895 555q0 55 -27.5 94t-70.5 69t-96.5 53.5t-106.5 47.5q-94 -31 -168 -78q-63 -41 -115.5 -100t-52.5 -141q0 -55 27.5 -94t71.5 -69
t98.5 -52.5t109.5 -44.5q92 33 164 77q61 39 113.5 97.5t52.5 140.5z" />
    <glyph glyph-name="dieresis" unicode="&#xa8;" horiz-adv-x="512" 
d="M270 1188q0 23 14.5 37t37.5 14q18 0 30.5 -12.5t12.5 -28.5q0 -23 -14.5 -37t-37.5 -14q-18 0 -30.5 12.5t-12.5 28.5zM567 1188q0 23 14.5 37t36.5 14q18 0 31 -12.5t13 -28.5q0 -23 -14.5 -37t-37.5 -14q-18 0 -30.5 12.5t-12.5 28.5z" />
    <glyph glyph-name="copyright" unicode="&#xa9;" horiz-adv-x="1474" 
d="M924 1300q119 0 223 -45t182 -121.5t122 -179t44 -219.5q0 -164 -58.5 -301t-157.5 -235.5t-229 -153.5t-274 -55q-121 0 -224 45t-181 121.5t-122 179t-44 219.5q0 164 58.5 301t157.5 235.5t229.5 153.5t273.5 55zM915 1249q-131 0 -249.5 -51t-209.5 -141t-145.5 -216
t-54.5 -274q0 -113 41 -209t111.5 -166.5t167 -110.5t208.5 -40q131 0 250 51t210 141.5t145.5 216t54.5 273.5q0 113 -41 209t-111.5 166.5t-167 110.5t-209.5 40zM891 932q-61 0 -114.5 -27.5t-93.5 -73t-62.5 -103.5t-22.5 -122q0 -117 61.5 -182.5t155.5 -65.5t155.5 44
t98.5 130h51q-41 -109 -120.5 -167t-182.5 -58q-59 0 -108.5 21.5t-85 59.5t-56 90t-20.5 116q0 86 29.5 156.5t80 123t116 81t136.5 28.5q96 0 164 -58.5t80 -166.5h-51q-25 174 -211 174z" />
    <glyph glyph-name="ordfeminine" unicode="&#xaa;" horiz-adv-x="563" 
d="M395 799q78 0 136.5 56t74.5 149l2 10h-82q-78 0 -127 -10.5t-77.5 -28t-40 -39t-11.5 -43.5q0 -94 125 -94zM500 1300q88 0 138 -58t36 -146l-60 -338h-41l7 82h-9q-20 -27 -47 -47q-23 -16 -57.5 -30.5t-79.5 -14.5q-78 0 -124 38.5t-46 100.5q0 37 15.5 69.5t51 57
t97 38t154.5 13.5h81l7 31q14 68 -22 110.5t-109 42.5q-127 0 -162 -102h-51q18 70 76.5 111.5t144.5 41.5z" />
    <glyph glyph-name="guillemotleft" unicode="&#xab;" horiz-adv-x="737" 
d="M182 461l271 307h63l-276 -313l159 -301h-55zM479 461l271 307h63l-276 -313l159 -301h-55z" />
    <glyph glyph-name="logicalnot" unicode="&#xac;" horiz-adv-x="890" 
d="M961 748l-58 -328h-51l47 276h-737l10 52h789z" />
    <glyph glyph-name="uni00AD" unicode="&#xad;" horiz-adv-x="675" 
d="M702 502h-552l8 51h553z" />
    <glyph glyph-name="registered" unicode="&#xae;" horiz-adv-x="1474" 
d="M924 1300q119 0 223 -45t182 -121.5t122 -179t44 -219.5q0 -164 -58.5 -301t-157.5 -235.5t-229 -153.5t-274 -55q-121 0 -224 45t-181 121.5t-122 179t-44 219.5q0 164 58.5 301t157.5 235.5t229.5 153.5t273.5 55zM915 1249q-131 0 -249.5 -51t-209.5 -141t-145.5 -216
t-54.5 -274q0 -113 41 -209t111.5 -166.5t167 -110.5t208.5 -40q131 0 250 51t210 141.5t145.5 216t54.5 273.5q0 113 -41 209t-111.5 166.5t-167 110.5t-209.5 40zM844 604h-154l-51 -287h-51l114 656h238q78 0 125 -49.5t47 -114.5q0 -86 -53 -143.5t-158 -61.5l143 -287
h-57zM893 655q78 0 123 42t45 102q0 51 -32 87t-97 36h-187l-47 -267h195z" />
    <glyph glyph-name="macron" unicode="&#xaf;" horiz-adv-x="593" 
d="M731 1137h-471l10 51h471z" />
    <glyph glyph-name="degree" unicode="&#xb0;" horiz-adv-x="655" 
d="M760 1073q0 -57 -19.5 -107.5t-55.5 -87t-87 -58t-115 -21.5q-47 0 -88 18.5t-70.5 48t-47 68.5t-17.5 82q0 57 19.5 107.5t55.5 87t87 58t115 21.5q47 0 88 -18.5t70.5 -48t47 -68.5t17.5 -82zM313 1028q0 -74 49.5 -126t131.5 -52q43 0 81.5 16.5t67.5 44t46.5 66.5
t17.5 84q0 74 -49.5 126t-131.5 52q-43 0 -81.5 -16.5t-67.5 -44t-46.5 -66.5t-17.5 -84z" />
    <glyph glyph-name="plusminus" unicode="&#xb1;" horiz-adv-x="890" 
d="M856 154l-10 -52h-768l10 52h358l76 430h-358l8 51h358l64 358h51l-63 -358h358l-8 -51h-359l-75 -430h358z" />
    <glyph glyph-name="uni00B2" unicode="&#xb2;" horiz-adv-x="501" 
d="M295 932h299l-10 -51h-369l10 51l277 237q39 35 74.5 72t35.5 90q0 102 -114 103q-113 0 -150 -123h-51q23 86 77 130t132 44q76 0 117 -43t41 -103q0 -35 -10.5 -62.5t-28 -51t-40 -44t-48.5 -42.5z" />
    <glyph glyph-name="uni00B3" unicode="&#xb3;" horiz-adv-x="522" 
d="M539 1192q43 -12 69.5 -48t26.5 -83q0 -86 -57.5 -138.5t-153.5 -52.5q-78 0 -127 44t-49 116v14h51q0 -66 36 -94t99 -28q74 0 112 41t38 94q0 45 -31 77.5t-102 32.5h-52l9 52h61q68 0 105.5 37.5t37.5 82.5q0 43 -27.5 69t-86.5 26q-53 0 -96.5 -32t-53.5 -91h-51
q14 80 72.5 127t136.5 47q72 0 115 -41t43 -98q0 -49 -20.5 -79t-43.5 -46q-26 -21 -61 -29z" />
    <glyph glyph-name="acute" unicode="&#xb4;" horiz-adv-x="327" 
d="M412 1290h86l-215 -246h-39z" />
    <glyph glyph-name="mu" unicode="&#xb5;" horiz-adv-x="1013" 
d="M520 -10q-86 0 -141 29.5t-88 64.5q-37 41 -55 94h-11l-90 -506h-51l217 1229h51l-86 -485q-4 -25 -6 -47.5t-2 -44.5q0 -133 71.5 -208t198.5 -75q70 0 131.5 28.5t108.5 80t79 119t46 147.5l84 485h51l-158 -901h-41l21 168h-10q-31 -51 -76 -90q-39 -35 -98.5 -61.5
t-145.5 -26.5z" />
    <glyph glyph-name="paragraph" unicode="&#xb6;" horiz-adv-x="921" 
d="M965 1290l-260 -1474h-52l250 1423h-225l-250 -1423h-51l166 942q-57 0 -103.5 18.5t-78 51t-48 75.5t-16.5 90q0 135 87 216t232 81h349z" />
    <glyph glyph-name="periodcentered" unicode="&#xb7;" horiz-adv-x="409" 
d="M274 635q0 23 14.5 37t37.5 14q18 0 30.5 -12t12.5 -29q0 -23 -14.5 -37t-37.5 -14q-18 0 -30.5 12.5t-12.5 28.5z" />
    <glyph glyph-name="cedilla" unicode="&#xb8;" horiz-adv-x="348" 
d="M139 -86q47 0 80 -30.5t33 -78.5q0 -59 -40 -96t-126 -37q-37 0 -57 6q-12 2 -23 7l8 39q10 -4 23 -7q10 -2 24.5 -3t32.5 -1q59 0 83 24.5t24 59.5t-20.5 57.5t-71.5 22.5q-20 0 -37 -4q-8 -2 -13 -2l82 129h54z" />
    <glyph glyph-name="uni00B9" unicode="&#xb9;" horiz-adv-x="378" 
d="M473 1475h41l-104 -594h-52l95 528l-158 -92l-14 45z" />
    <glyph glyph-name="ordmasculine" unicode="&#xba;" horiz-adv-x="655" 
d="M539 1300q49 0 91 -19t72.5 -53t48 -78t17.5 -93q0 -66 -21.5 -122t-60.5 -98t-92 -65.5t-117 -23.5q-49 0 -91 19t-72.5 53t-48 78t-17.5 93q0 66 21.5 122t60.5 98t92.5 65.5t116.5 23.5zM715 1044q0 88 -49.5 146.5t-135.5 58.5q-45 0 -86 -18.5t-72.5 -51t-51 -77.5
t-19.5 -98q0 -88 49 -146.5t135 -58.5q45 0 86 18.5t73 51t51.5 77.5t19.5 98z" />
    <glyph glyph-name="guillemotright" unicode="&#xbb;" horiz-adv-x="737" 
d="M715 461l-271 -307h-63l276 313l-159 301h55zM418 461l-271 -307h-63l276 313l-159 301h55z" />
    <glyph glyph-name="onequarter" unicode="&#xbc;" horiz-adv-x="1198" 
d="M225 0h-61l1005 1290h62zM514 1290h41l-104 -594h-52l95 529l-158 -92l-14 45zM1047 184h81l-8 -51h-82l-24 -133h-51l24 133h-276l8 51l338 410h61zM995 184l62 342l-281 -342h219z" />
    <glyph glyph-name="onehalf" unicode="&#xbd;" horiz-adv-x="1239" 
d="M827 51h299l-10 -51h-368l10 51l276 238q39 35 75 71q36 37 36 91q0 102 -115 102q-113 0 -149 -123h-52q23 86 77 130t132 44q76 0 117 -43t41 -102q0 -35 -10 -63t-28 -51q-17 -24 -40 -44t-49 -43zM514 1290h41l-104 -594h-52l95 529l-158 -92l-14 45zM225 0h-61
l1005 1290h62z" />
    <glyph glyph-name="threequarters" unicode="&#xbe;" horiz-adv-x="1339" 
d="M1188 184h82l-8 -51h-82l-25 -133h-51l24 133h-276l8 51l338 410h62zM1137 184l61 342l-280 -342h219zM367 0h-62l1006 1290h61zM557 1008q43 -12 70 -49q27 -36 26 -82q0 -86 -57 -139q-57 -52 -154 -52q-78 0 -127 44t-49 116v14h51q0 -66 36 -94q36 -29 100 -29
q74 0 111 41q38 41 38 94q0 45 -31 78t-102 33h-51l8 51h61q68 0 106 38t38 83q0 43 -28 69t-87 25q-53 0 -96 -31q-43 -32 -53 -92h-52q14 80 73 127q58 47 136 47q72 0 115 -40q43 -41 43 -99q0 -49 -20 -79t-44 -46q-26 -20 -61 -28z" />
    <glyph glyph-name="questiondown" unicode="&#xbf;" horiz-adv-x="849" 
d="M82 -74q0 78 30.5 133.5t77 98.5t101.5 80.5t104 84t86 105.5t47 145h52l-2 -20q-8 -80 -44 -140.5t-85.5 -107.5t-105.5 -88t-102 -82t-77 -89t-31 -109q0 -102 67.5 -163t186.5 -61q131 0 223 82t115 225l6 41h51l-6 -41q-12 -84 -47 -150.5t-87 -112.5t-119.5 -70.5
t-143.5 -24.5q-131 0 -214 72.5t-83 191.5zM651 860q0 -23 -14 -37t-37 -14q-18 0 -30.5 12.5t-12.5 28.5q0 23 14.5 37t36.5 14q18 0 30.5 -12.5t12.5 -28.5z" />
    <glyph glyph-name="Agrave" unicode="&#xc0;" horiz-adv-x="1146" 
d="M791 1290h40l265 -1290h-52l-73 358h-641l-199 -358h-59zM358 410h603l-162 790zM813 1444h-29l-127 246h78z" />
    <glyph glyph-name="Aacute" unicode="&#xc1;" horiz-adv-x="1146" 
d="M975 1690h86l-215 -246h-39zM791 1290h40l265 -1290h-52l-73 358h-641l-199 -358h-59zM358 410h603l-162 790z" />
    <glyph glyph-name="Acircumflex" unicode="&#xc2;" horiz-adv-x="1146" 
d="M1051 1444h-56l-133 182l-196 -182h-66l246 225h41zM791 1290h40l265 -1290h-52l-73 358h-641l-199 -358h-59zM358 410h603l-162 790z" />
    <glyph glyph-name="Atilde" unicode="&#xc3;" horiz-adv-x="1146" 
d="M942 1487q39 0 70 26q31 27 37 97h51q-10 -92 -57 -133q-46 -41 -107 -41q-39 0 -68 20t-54 46q-26 26 -50 46q-25 20 -57 21q-39 0 -70 -27t-37 -96h-51q10 92 56 133t108 41q39 0 67 -21q29 -20 55 -46t50 -46t57 -20zM791 1290h40l265 -1290h-52l-73 358h-641
l-199 -358h-59zM358 410h603l-162 790z" />
    <glyph glyph-name="Adieresis" unicode="&#xc4;" horiz-adv-x="1146" 
d="M649 1536q0 23 15 37q14 14 36 14q18 0 31 -12q12 -12 12 -29q0 -23 -14 -37t-37 -14q-18 0 -30 12q-13 13 -13 29zM946 1536q0 23 15 37q14 14 36 14q18 0 31 -12q12 -12 12 -29q0 -23 -14 -37t-37 -14q-18 0 -31 12q-12 13 -12 29zM791 1290h40l265 -1290h-52l-73 358
h-641l-199 -358h-59zM358 410h603l-162 790z" />
    <glyph glyph-name="Aring" unicode="&#xc5;" horiz-adv-x="1146" 
d="M860 1731q63 0 107 -43q43 -43 43 -101q0 -80 -53 -132q-52 -52 -132 -52q-63 0 -106 43t-43 100q0 80 52 132q52 53 132 53zM836 1454q47 0 85 32t37 89q0 47 -28 76q-29 29 -80 28q-47 0 -85 -31q-38 -32 -38 -89q0 -47 29 -76t80 -29zM791 1290h40l265 -1290h-52
l-73 358h-641l-199 -358h-59zM358 410h603l-162 790z" />
    <glyph glyph-name="AE" unicode="&#xc6;" horiz-adv-x="1607" 
d="M975 1290h737l-10 -51h-635l-96 -543h583l-8 -51h-583l-105 -594h655l-8 -51h-706l63 369h-508l-272 -369h-62zM391 420h481l144 819h-19z" />
    <glyph glyph-name="Ccedilla" unicode="&#xc7;" horiz-adv-x="1310" 
d="M213 545q0 143 49 278t137 241.5t211 171t273 64.5q92 0 171 -32.5t140 -90t104 -136t62 -171.5h-55q-37 168 -147.5 273.5t-283.5 105.5q-131 0 -242.5 -59.5t-192.5 -156.5t-127 -222t-46 -254q0 -111 35 -206t96.5 -163.5t144.5 -107.5t181 -39q92 0 172 28.5
t147.5 80t119.5 121t87 149.5h58q-39 -90 -93.5 -167t-125 -134.5t-157.5 -91t-190 -37.5l-49 -76q47 0 80 -30.5t33 -78.5q0 -59 -40 -96t-126 -37q-37 0 -57 6q-12 2 -23 7l8 39q10 -4 23 -7q10 -2 24.5 -3t32.5 -1q59 0 83 24.5t24 59.5t-20.5 57.5t-71.5 22.5
q-20 0 -37 -4q-8 -2 -13 -2l76 121q-98 6 -185 51t-151.5 119t-101.5 172t-37 211z" />
    <glyph glyph-name="Egrave" unicode="&#xc8;" horiz-adv-x="1054" 
d="M823 1444h-28l-127 246h77zM961 51l-9 -51h-768l228 1290h747l-10 -51h-696l-97 -543h645l-8 -51h-645l-104 -594h717z" />
    <glyph glyph-name="Eacute" unicode="&#xc9;" horiz-adv-x="1054" 
d="M924 1690h86l-215 -246h-39zM961 51l-9 -51h-768l228 1290h747l-10 -51h-696l-97 -543h645l-8 -51h-645l-104 -594h717z" />
    <glyph glyph-name="Ecircumflex" unicode="&#xca;" horiz-adv-x="1054" 
d="M1018 1444h-55l-134 182l-196 -182h-66l246 225h41zM961 51l-9 -51h-768l228 1290h747l-10 -51h-696l-97 -543h645l-8 -51h-645l-104 -594h717z" />
    <glyph glyph-name="Edieresis" unicode="&#xcb;" horiz-adv-x="1054" 
d="M618 1536q0 23 15 37q14 14 37 14q18 0 30 -12t13 -29q0 -23 -15 -37q-14 -14 -36 -14q-18 0 -31 12q-13 13 -13 29zM915 1536q0 23 15 37q14 14 37 14q18 0 30 -12t13 -29q0 -23 -15 -37q-14 -14 -37 -14q-18 0 -30 12q-13 13 -13 29zM961 51l-9 -51h-768l228 1290h747
l-10 -51h-696l-97 -543h645l-8 -51h-645l-104 -594h717z" />
    <glyph glyph-name="Igrave" unicode="&#xcc;" horiz-adv-x="419" 
d="M455 1444h-29l-127 246h78zM236 0h-52l228 1290h51z" />
    <glyph glyph-name="Iacute" unicode="&#xcd;" horiz-adv-x="419" 
d="M604 1690h86l-215 -246h-39zM236 0h-52l228 1290h51z" />
    <glyph glyph-name="Icircumflex" unicode="&#xce;" horiz-adv-x="419" 
d="M672 1444h-56l-133 182l-196 -182h-66l246 225h41zM236 0h-52l228 1290h51z" />
    <glyph glyph-name="Idieresis" unicode="&#xcf;" horiz-adv-x="419" 
d="M236 0h-52l228 1290h51zM276 1536q0 23 15 37q14 14 37 14q18 0 30 -12t13 -29q0 -23 -15 -37q-14 -14 -37 -14q-18 0 -30 12q-13 13 -13 29zM573 1536q0 23 15 37q14 14 37 14q18 0 30 -12t13 -29q0 -23 -15 -37q-14 -14 -37 -14q-18 0 -30 12q-13 13 -13 29z" />
    <glyph glyph-name="Eth" unicode="&#xd0;" horiz-adv-x="1218" 
d="M137 666h185l110 624h266q113 0 211 -40t169 -112q71 -73 112 -173t41 -220q0 -152 -53 -286q-53 -135 -147 -237q-93 -101 -220 -162q-127 -60 -276 -60h-330l106 614h-184zM543 51q131 0 247 55t201 149q86 93 136 217t51 261q0 115 -35 208t-100 160t-154 102
q-90 36 -199 36h-217l-100 -573h317l-10 -52h-318l-98 -563h279z" />
    <glyph glyph-name="Ntilde" unicode="&#xd1;" horiz-adv-x="1228" 
d="M981 1505q39 0 70 27t36 96h52q-10 -92 -57 -133q-46 -41 -107 -41q-39 0 -68 21q-29 20 -54 46q-26 26 -50 46q-25 20 -58 20q-39 0 -69 -26q-31 -27 -37 -97h-51q10 92 56 133t108 41q39 0 67 -20q29 -20 54 -46q26 -26 51 -46q24 -21 57 -21zM1272 1290l-228 -1290
h-40l-560 1188l-208 -1188h-52l228 1290h41l557 -1188l211 1188h51z" />
    <glyph glyph-name="Ograve" unicode="&#xd2;" horiz-adv-x="1372" 
d="M911 1444h-28l-127 246h78zM213 545q0 143 49 278t137 242q88 106 211 171t273 64q102 0 193 -43t160 -118q69 -76 109 -176t39 -218q0 -143 -49 -279t-137 -242q-88 -105 -211 -170t-272 -64q-102 0 -194 43q-91 43 -160 119t-108 176q-40 100 -40 217zM1331 733
q0 111 -35 206t-96 164t-144 107q-83 39 -182 39q-131 0 -242 -59q-112 -59 -193 -157q-81 -97 -127 -222t-46 -254q0 -111 35 -206t96 -164t145 -107q83 -39 181 -39q131 0 242 59t192 157q82 97 128 222t46 254z" />
    <glyph glyph-name="Oacute" unicode="&#xd3;" horiz-adv-x="1372" 
d="M1057 1690h86l-215 -246h-39zM213 545q0 143 49 278t137 242q88 106 211 171t273 64q102 0 193 -43t160 -118q69 -76 109 -176t39 -218q0 -143 -49 -279t-137 -242q-88 -105 -211 -170t-272 -64q-102 0 -194 43q-91 43 -160 119t-108 176q-40 100 -40 217zM1331 733
q0 111 -35 206t-96 164t-144 107q-83 39 -182 39q-131 0 -242 -59q-112 -59 -193 -157q-81 -97 -127 -222t-46 -254q0 -111 35 -206t96 -164t145 -107q83 -39 181 -39q131 0 242 59t192 157q82 97 128 222t46 254z" />
    <glyph glyph-name="Ocircumflex" unicode="&#xd4;" horiz-adv-x="1372" 
d="M1141 1444h-56l-133 182l-196 -182h-66l246 225h41zM213 545q0 143 49 278t137 242q88 106 211 171t273 64q102 0 193 -43t160 -118q69 -76 109 -176t39 -218q0 -143 -49 -279t-137 -242q-88 -105 -211 -170t-272 -64q-102 0 -194 43q-91 43 -160 119t-108 176
q-40 100 -40 217zM1331 733q0 111 -35 206t-96 164t-144 107q-83 39 -182 39q-131 0 -242 -59q-112 -59 -193 -157q-81 -97 -127 -222t-46 -254q0 -111 35 -206t96 -164t145 -107q83 -39 181 -39q131 0 242 59t192 157q82 97 128 222t46 254z" />
    <glyph glyph-name="Otilde" unicode="&#xd5;" horiz-adv-x="1372" 
d="M1053 1505q39 0 69 27q31 27 37 96h51q-10 -92 -56 -133t-107 -41q-39 0 -68 21q-29 20 -54 46q-26 26 -51 46t-57 20q-39 0 -69 -26q-31 -27 -37 -97h-52q10 92 57 133q46 41 107 41q39 0 68 -20t54 -46q26 -26 50 -46q25 -21 58 -21zM213 545q0 143 49 278t137 242
q88 106 211 171t273 64q102 0 193 -43t160 -118q69 -76 109 -176t39 -218q0 -143 -49 -279t-137 -242q-88 -105 -211 -170t-272 -64q-102 0 -194 43q-91 43 -160 119t-108 176q-40 100 -40 217zM1331 733q0 111 -35 206t-96 164t-144 107q-83 39 -182 39q-131 0 -242 -59
q-112 -59 -193 -157q-81 -97 -127 -222t-46 -254q0 -111 35 -206t96 -164t145 -107q83 -39 181 -39q131 0 242 59t192 157q82 97 128 222t46 254z" />
    <glyph glyph-name="Odieresis" unicode="&#xd6;" horiz-adv-x="1372" 
d="M731 1536q0 23 14 37t37 14q18 0 31 -12q12 -12 12 -29q0 -23 -14 -37t-37 -14q-18 0 -31 12q-12 13 -12 29zM1028 1536q0 23 14 37t37 14q18 0 31 -12q12 -12 12 -29q0 -23 -14 -37t-37 -14q-18 0 -31 12q-12 13 -12 29zM213 545q0 143 49 278t137 242q88 106 211 171
t273 64q102 0 193 -43t160 -118q69 -76 109 -176t39 -218q0 -143 -49 -279t-137 -242q-88 -105 -211 -170t-272 -64q-102 0 -194 43q-91 43 -160 119t-108 176q-40 100 -40 217zM1331 733q0 111 -35 206t-96 164t-144 107q-83 39 -182 39q-131 0 -242 -59
q-112 -59 -193 -157q-81 -97 -127 -222t-46 -254q0 -111 35 -206t96 -164t145 -107q83 -39 181 -39q131 0 242 59t192 157q82 97 128 222t46 254z" />
    <glyph glyph-name="multiply" unicode="&#xd7;" horiz-adv-x="860" 
d="M557 518l219 -272l-41 -31l-217 270l-317 -274l-35 37l319 276l-221 275l41 30l219 -272l318 274l35 -36z" />
    <glyph glyph-name="Oslash" unicode="&#xd8;" horiz-adv-x="1372" 
d="M106 106l181 150q-20 35 -37 80q-14 39 -25.5 91t-11.5 118q0 143 49 278t137 241.5t211 171t273 64.5q98 0 172.5 -34.5t126.5 -75.5q59 -49 102 -111l174 144l33 -39l-180 -150q20 -35 37 -80q14 -39 25 -91t11 -118q0 -143 -49 -279t-137 -241.5t-211 -170t-272 -64.5
q-100 0 -174 34.5t-125 75.5q-59 49 -103 111l-174 -143zM1331 733q0 59 -10 109.5t-21 85.5q-14 41 -30 73l-916 -755q37 -57 90 -103q47 -39 115 -70.5t164 -31.5q131 0 241.5 59.5t192.5 156.5t128 222t46 254zM266 557q0 -61 9.5 -110.5t21.5 -84.5q12 -41 31 -73
l915 755q-37 57 -90 103q-47 39 -115.5 70.5t-163.5 31.5q-131 0 -242.5 -59.5t-192.5 -156.5t-127 -222t-46 -254z" />
    <glyph glyph-name="Ugrave" unicode="&#xd9;" horiz-adv-x="1249" 
d="M874 1444h-28l-127 246h78zM647 -10q-180 0 -288 104t-107 295q0 59 12 125l137 776h52l-138 -776q-12 -66 -12 -121q0 -170 93 -261t259 -91q182 0 297 106t156 334l143 809h52l-144 -809q-45 -256 -172 -373q-127 -118 -340 -118z" />
    <glyph glyph-name="Uacute" unicode="&#xda;" horiz-adv-x="1249" 
d="M989 1690h86l-215 -246h-39zM647 -10q-180 0 -288 104t-107 295q0 59 12 125l137 776h52l-138 -776q-12 -66 -12 -121q0 -170 93 -261t259 -91q182 0 297 106t156 334l143 809h52l-144 -809q-45 -256 -172 -373q-127 -118 -340 -118z" />
    <glyph glyph-name="Ucircumflex" unicode="&#xdb;" horiz-adv-x="1249" 
d="M1081 1434h-55l-133 182l-197 -182h-65l246 225h41zM647 -10q-180 0 -288 104t-107 295q0 59 12 125l137 776h52l-138 -776q-12 -66 -12 -121q0 -170 93 -261t259 -91q182 0 297 106t156 334l143 809h52l-144 -809q-45 -256 -172 -373q-127 -118 -340 -118z" />
    <glyph glyph-name="Udieresis" unicode="&#xdc;" horiz-adv-x="1249" 
d="M690 1536q0 23 15 37q14 14 36 14q18 0 31 -12q12 -12 12 -29q0 -23 -14 -37t-37 -14q-18 0 -31 12q-12 13 -12 29zM987 1536q0 23 14 37t37 14q18 0 31 -12q12 -12 12 -29q0 -23 -14 -37t-37 -14q-18 0 -31 12q-12 13 -12 29zM647 -10q-180 0 -288 104t-107 295
q0 59 12 125l137 776h52l-138 -776q-12 -66 -12 -121q0 -170 93 -261t259 -91q182 0 297 106t156 334l143 809h52l-144 -809q-45 -256 -172 -373q-127 -118 -340 -118z" />
    <glyph glyph-name="Yacute" unicode="&#xdd;" horiz-adv-x="1054" 
d="M903 1690h86l-215 -246h-39zM272 1290h56l276 -700h10l527 700h63l-577 -768l-90 -522h-52l90 522z" />
    <glyph glyph-name="Thorn" unicode="&#xde;" horiz-adv-x="1208" 
d="M463 1290l-45 -246h444q80 0 146.5 -24.5t113.5 -68.5t73 -103.5t26 -128.5q0 -96 -32 -172t-91.5 -129t-142.5 -82t-187 -29h-479l-53 -307h-52l228 1290h51zM410 993l-113 -635h481q86 0 158 25t123 71t79.5 110.5t28.5 144.5q0 129 -83 206.5t-232 77.5h-442z" />
    <glyph glyph-name="germandbls" unicode="&#xdf;" horiz-adv-x="1034" 
d="M758 670q47 -4 90 -28t75.5 -61.5t52 -88t19.5 -107.5q0 -86 -29.5 -157.5t-83 -122t-125 -78t-153.5 -27.5h-153l8 51h153q70 0 130.5 24.5t105.5 67.5t70.5 102.5t25.5 129.5q0 111 -70.5 185.5t-199.5 74.5h-62l11 51q63 0 122.5 23.5t104.5 64.5t72.5 97.5
t27.5 121.5q0 109 -65.5 177.5t-186.5 68.5q-131 0 -222 -76t-118 -227l-163 -936h-52l164 936q31 178 139.5 266t262.5 88q66 0 120 -23.5t93 -62.5t60.5 -91t21.5 -109q0 -68 -21.5 -124.5t-56.5 -98.5t-79 -69.5t-89 -41.5z" />
    <glyph glyph-name="agrave" unicode="&#xe0;" horiz-adv-x="921" 
d="M649 1073h-28l-127 246h77zM430 41q66 0 126 28t110 75q49 48 83 114t48 143l12 70h-123q-150 0 -247 -20t-154 -55q-57 -34 -80 -79t-23 -92q0 -84 63 -134q62 -50 185 -50zM594 911q61 0 115 -17q53 -17 93 -51t62 -84q23 -50 23 -116q0 -16 -2 -35q-2 -18 -6 -37
l-101 -571h-41l19 168h-11q-35 -51 -81 -90q-41 -35 -102 -62q-60 -27 -140 -26q-137 0 -214 64q-77 65 -77 159q0 63 26 120q26 56 90 98q65 42 173 67q109 25 274 24h123l10 49q4 18 7 37q2 18 2 35q0 96 -62 157q-61 60 -188 60q-117 0 -186 -48t-107 -157h-51
q35 123 124 190q89 66 228 66z" />
    <glyph glyph-name="aacute" unicode="&#xe1;" horiz-adv-x="921" 
d="M780 1319h86l-215 -246h-39zM430 41q66 0 126 28t110 75q49 48 83 114t48 143l12 70h-123q-150 0 -247 -20t-154 -55q-57 -34 -80 -79t-23 -92q0 -84 63 -134q62 -50 185 -50zM594 911q61 0 115 -17q53 -17 93 -51t62 -84q23 -50 23 -116q0 -16 -2 -35q-2 -18 -6 -37
l-101 -571h-41l19 168h-11q-35 -51 -81 -90q-41 -35 -102 -62q-60 -27 -140 -26q-137 0 -214 64q-77 65 -77 159q0 63 26 120q26 56 90 98q65 42 173 67q109 25 274 24h123l10 49q4 18 7 37q2 18 2 35q0 96 -62 157q-61 60 -188 60q-117 0 -186 -48t-107 -157h-51
q35 123 124 190q89 66 228 66z" />
    <glyph glyph-name="acircumflex" unicode="&#xe2;" horiz-adv-x="921" 
d="M858 1075h-55l-133 182l-197 -182h-65l245 225h41zM430 41q66 0 126 28t110 75q49 48 83 114t48 143l12 70h-123q-150 0 -247 -20t-154 -55q-57 -34 -80 -79t-23 -92q0 -84 63 -134q62 -50 185 -50zM594 911q61 0 115 -17q53 -17 93 -51t62 -84q23 -50 23 -116
q0 -16 -2 -35q-2 -18 -6 -37l-101 -571h-41l19 168h-11q-35 -51 -81 -90q-41 -35 -102 -62q-60 -27 -140 -26q-137 0 -214 64q-77 65 -77 159q0 63 26 120q26 56 90 98q65 42 173 67q109 25 274 24h123l10 49q4 18 7 37q2 18 2 35q0 96 -62 157q-61 60 -188 60
q-117 0 -186 -48t-107 -157h-51q35 123 124 190q89 66 228 66z" />
    <glyph glyph-name="atilde" unicode="&#xe3;" horiz-adv-x="921" 
d="M764 1116q39 0 70 27t36 96h52q-10 -92 -57 -133q-46 -41 -107 -41q-39 0 -68 20t-54 47q-26 26 -50 46q-25 20 -58 20q-39 0 -69 -27q-31 -27 -37 -96h-51q10 92 56 133t108 41q39 0 67 -20q29 -20 54 -46q26 -26 51 -46q24 -21 57 -21zM430 41q66 0 126 28t110 75
q49 48 83 114t48 143l12 70h-123q-150 0 -247 -20t-154 -55q-57 -34 -80 -79t-23 -92q0 -84 63 -134q62 -50 185 -50zM594 911q61 0 115 -17q53 -17 93 -51t62 -84q23 -50 23 -116q0 -16 -2 -35q-2 -18 -6 -37l-101 -571h-41l19 168h-11q-35 -51 -81 -90q-41 -35 -102 -62
q-60 -27 -140 -26q-137 0 -214 64q-77 65 -77 159q0 63 26 120q26 56 90 98q65 42 173 67q109 25 274 24h123l10 49q4 18 7 37q2 18 2 35q0 96 -62 157q-61 60 -188 60q-117 0 -186 -48t-107 -157h-51q35 123 124 190q89 66 228 66z" />
    <glyph glyph-name="adieresis" unicode="&#xe4;" horiz-adv-x="921" 
d="M455 1167q0 23 14 37t37 15q18 0 31 -13q12 -12 12 -28q0 -23 -14 -37t-37 -15q-18 0 -31 13q-12 12 -12 28zM752 1167q0 23 14 37t37 15q18 0 31 -13q12 -12 12 -28q0 -23 -15 -37q-14 -14 -36 -15q-18 0 -31 13q-12 12 -12 28zM430 41q66 0 126 28t110 75q49 48 83 114
t48 143l12 70h-123q-150 0 -247 -20t-154 -55q-57 -34 -80 -79t-23 -92q0 -84 63 -134q62 -50 185 -50zM594 911q61 0 115 -17q53 -17 93 -51t62 -84q23 -50 23 -116q0 -16 -2 -35q-2 -18 -6 -37l-101 -571h-41l19 168h-11q-35 -51 -81 -90q-41 -35 -102 -62
q-60 -27 -140 -26q-137 0 -214 64q-77 65 -77 159q0 63 26 120q26 56 90 98q65 42 173 67q109 25 274 24h123l10 49q4 18 7 37q2 18 2 35q0 96 -62 157q-61 60 -188 60q-117 0 -186 -48t-107 -157h-51q35 123 124 190q89 66 228 66z" />
    <glyph glyph-name="aring" unicode="&#xe5;" horiz-adv-x="921" 
d="M676 1372q63 0 106 -43t43 -100q0 -80 -52 -132t-132 -53q-63 0 -106 43t-43 101q0 80 52 132t132 52zM651 1096q47 0 85 31q38 32 38 90q0 47 -29 75q-29 29 -79 29q-47 0 -85 -32t-38 -89q0 -47 28 -76q29 -28 80 -28zM430 41q66 0 126 28t110 75q49 48 83 114t48 143
l12 70h-123q-150 0 -247 -20t-154 -55q-57 -34 -80 -79t-23 -92q0 -84 63 -134q62 -50 185 -50zM594 911q61 0 115 -17q53 -17 93 -51t62 -84q23 -50 23 -116q0 -16 -2 -35q-2 -18 -6 -37l-101 -571h-41l19 168h-11q-35 -51 -81 -90q-41 -35 -102 -62q-60 -27 -140 -26
q-137 0 -214 64q-77 65 -77 159q0 63 26 120q26 56 90 98q65 42 173 67q109 25 274 24h123l10 49q4 18 7 37q2 18 2 35q0 96 -62 157q-61 60 -188 60q-117 0 -186 -48t-107 -157h-51q35 123 124 190q89 66 228 66z" />
    <glyph glyph-name="ae" unicode="&#xe6;" horiz-adv-x="1579" 
d="M1149 41q98 0 173 44t132 130h62q-70 -109 -161 -167t-214 -58t-209 77.5t-115 198.5h-10q-37 -78 -90 -139q-47 -53 -119 -95t-174 -42q-137 0 -214 64.5t-77 158.5q0 63 25.5 115.5t90 91.5t172 60.5t273.5 21.5h123l12 69q10 57 -1 110.5t-41.5 92.5t-81 62.5
t-117.5 23.5q-117 0 -185.5 -48t-107.5 -157h-51q35 123 124 189.5t228 66.5q117 0 193.5 -65.5t91.5 -167.5h10q35 63 88 117q45 43 111.5 79.5t158.5 36.5q76 0 138.5 -29.5t105.5 -81.5t66.5 -124t23.5 -154q0 -16 -1 -28.5t-3 -22.5t-2 -20h-719q-2 -12 -2 -25
q-2 -10 -2 -21.5v-15.5q0 -78 20.5 -141.5t59.5 -109.5t93 -71.5t122 -25.5zM432 41q66 0 126 27.5t109.5 76t83 114t48.5 142.5l8 50h-121q-150 0 -247 -17.5t-153.5 -48.5t-79 -72t-22.5 -88q0 -84 62.5 -134t185.5 -50zM1241 860q-63 0 -122.5 -27.5t-108.5 -74.5
t-86 -113.5t-56 -142.5h664v10q0 160 -74 254t-217 94z" />
    <glyph glyph-name="ccedilla" unicode="&#xe7;" horiz-adv-x="972" 
d="M539 41q121 0 215 65.5t149 180.5h55q-59 -135 -169.5 -214t-241.5 -83l-49 -76q47 0 79.5 -30.5t32.5 -78.5q0 -59 -40 -96t-126 -37q-37 0 -57 6q-12 2 -22 7l8 39q10 -4 22 -7q10 -2 24.5 -3t33.5 -1q59 0 82.5 24.5t23.5 59.5t-20.5 57.5t-71.5 22.5q-20 0 -37 -4
q-8 -2 -12 -2l76 121q-68 6 -127.5 38.5t-104.5 84t-71.5 119t-26.5 145.5q0 121 41 219t109.5 168t156.5 107.5t180 37.5q66 0 123 -22.5t103.5 -63.5t77 -97t44.5 -124h-53q-25 117 -105.5 186.5t-197.5 69.5q-80 0 -157.5 -34.5t-137 -97t-96.5 -148.5t-37 -191
q0 -78 25.5 -141.5t68.5 -109.5t102.5 -71.5t127.5 -25.5z" />
    <glyph glyph-name="egrave" unicode="&#xe8;" horiz-adv-x="1003" 
d="M690 1073h-28l-127 246h77zM539 41q98 0 187 44t148 130h62q-70 -109 -176 -167t-230 -58q-74 0 -139 29q-66 30 -117 82t-80 123q-30 71 -30 155q0 121 41 219t109 168q69 70 157 107q88 38 180 38q74 0 137 -29q63 -30 112 -82q48 -52 76 -124t28 -154q0 -16 -3 -32
q-2 -15 -6 -29q-4 -16 -8 -31h-770q-2 -6 -2 -14v-27q0 -78 26 -141t68 -110q43 -46 103 -71q59 -26 127 -26zM643 860q-72 0 -140 -27q-69 -28 -126 -78t-98 -120t-56 -154h727v13q0 4 1 9t1 9q0 78 -22 141q-23 63 -65 110q-42 46 -98 72q-56 25 -124 25z" />
    <glyph glyph-name="eacute" unicode="&#xe9;" horiz-adv-x="1003" 
d="M811 1319h86l-215 -246h-39zM539 41q98 0 187 44t148 130h62q-70 -109 -176 -167t-230 -58q-74 0 -139 29q-66 30 -117 82t-80 123q-30 71 -30 155q0 121 41 219t109 168q69 70 157 107q88 38 180 38q74 0 137 -29q63 -30 112 -82q48 -52 76 -124t28 -154q0 -16 -3 -32
q-2 -15 -6 -29q-4 -16 -8 -31h-770q-2 -6 -2 -14v-27q0 -78 26 -141t68 -110q43 -46 103 -71q59 -26 127 -26zM643 860q-72 0 -140 -27q-69 -28 -126 -78t-98 -120t-56 -154h727v13q0 4 1 9t1 9q0 78 -22 141q-23 63 -65 110q-42 46 -98 72q-56 25 -124 25z" />
    <glyph glyph-name="ecircumflex" unicode="&#xea;" horiz-adv-x="1003" 
d="M907 1075h-55l-133 182l-197 -182h-65l245 225h41zM539 41q98 0 187 44t148 130h62q-70 -109 -176 -167t-230 -58q-74 0 -139 29q-66 30 -117 82t-80 123q-30 71 -30 155q0 121 41 219t109 168q69 70 157 107q88 38 180 38q74 0 137 -29q63 -30 112 -82q48 -52 76 -124
t28 -154q0 -16 -3 -32q-2 -15 -6 -29q-4 -16 -8 -31h-770q-2 -6 -2 -14v-27q0 -78 26 -141t68 -110q43 -46 103 -71q59 -26 127 -26zM643 860q-72 0 -140 -27q-69 -28 -126 -78t-98 -120t-56 -154h727v13q0 4 1 9t1 9q0 78 -22 141q-23 63 -65 110q-42 46 -98 72
q-56 25 -124 25z" />
    <glyph glyph-name="edieresis" unicode="&#xeb;" horiz-adv-x="1003" 
d="M494 1167q0 23 14 37t37 15q18 0 30 -13q12 -12 13 -28q0 -23 -15 -37q-14 -14 -36 -15q-18 0 -31 13q-12 12 -12 28zM791 1167q0 23 14 37t37 15q18 0 30 -13q12 -12 13 -28q0 -23 -15 -37q-14 -14 -36 -15q-18 0 -31 13q-12 12 -12 28zM539 41q98 0 187 44t148 130h62
q-70 -109 -176 -167t-230 -58q-74 0 -139 29q-66 30 -117 82t-80 123q-30 71 -30 155q0 121 41 219t109 168q69 70 157 107q88 38 180 38q74 0 137 -29q63 -30 112 -82q48 -52 76 -124t28 -154q0 -16 -3 -32q-2 -15 -6 -29q-4 -16 -8 -31h-770q-2 -6 -2 -14v-27
q0 -78 26 -141t68 -110q43 -46 103 -71q59 -26 127 -26zM643 860q-72 0 -140 -27q-69 -28 -126 -78t-98 -120t-56 -154h727v13q0 4 1 9t1 9q0 78 -22 141q-23 63 -65 110q-42 46 -98 72q-56 25 -124 25z" />
    <glyph glyph-name="igrave" unicode="&#xec;" horiz-adv-x="337" 
d="M352 1065h-28l-127 246h77zM195 0h-52l158 901h51z" />
    <glyph glyph-name="iacute" unicode="&#xed;" horiz-adv-x="337" 
d="M498 1311h86l-215 -246h-39zM195 0h-52l158 901h51z" />
    <glyph glyph-name="icircumflex" unicode="&#xee;" horiz-adv-x="337" 
d="M565 1075h-55l-133 182l-197 -182h-65l245 225h41zM195 0h-52l158 901h51z" />
    <glyph glyph-name="idieresis" unicode="&#xef;" horiz-adv-x="337" 
d="M162 1167q0 23 14 37t37 15q18 0 31 -13q12 -12 12 -28q0 -23 -14 -37t-37 -15q-18 0 -31 13q-12 12 -12 28zM459 1167q0 23 14 37t37 15q18 0 31 -13q12 -12 12 -28q0 -23 -14 -37t-37 -15q-18 0 -31 13q-12 12 -12 28zM195 0h-52l158 901h51z" />
    <glyph glyph-name="eth" unicode="&#xf0;" horiz-adv-x="1003" 
d="M555 1065l213 133q-49 47 -97 73.5t-89 43.5q-47 18 -90 26l28 41q45 -8 94 -30q41 -18 93.5 -50t103.5 -79l205 129l24 -45l-194 -121q68 -78 116 -195t48 -291q0 -180 -38 -314t-103.5 -222t-154.5 -131t-194 -43q-72 0 -136.5 26.5t-114.5 75.5t-79.5 118t-29.5 150
q0 121 39 215.5t103.5 160t146 100t167.5 34.5q100 0 166 -37.5t103 -82.5q43 -53 65 -119h11q2 23 1 29t-1 26q0 170 -45.5 284.5t-112.5 188.5l-223 -139zM528 41q80 0 151 32.5t125 92t86 143.5t32 187q0 74 -24 133t-65.5 102t-98 65.5t-120.5 22.5q-74 0 -146.5 -30.5
t-128.5 -88t-92 -141.5t-36 -188q0 -76 25.5 -137.5t68.5 -104.5t100 -65.5t123 -22.5z" />
    <glyph glyph-name="ntilde" unicode="&#xf1;" horiz-adv-x="1003" 
d="M809 1137q39 0 70 26q31 27 36 97h52q-10 -92 -57 -134q-46 -41 -107 -41q-39 0 -68 21q-29 20 -54 46q-26 26 -50 46q-25 20 -58 21q-39 0 -69 -27q-31 -27 -37 -96h-51q10 92 56 133t108 41q39 0 67 -21q29 -20 54 -46q26 -26 51 -46q24 -20 57 -20zM651 911
q68 0 125 -21q57 -22 101 -64q43 -42 66 -100q24 -58 24 -132q0 -20 -2 -41q-2 -20 -7 -43l-88 -510h-51l88 510q4 23 6 42t2 38q0 127 -72 198q-73 72 -200 72q-72 0 -132 -29t-108 -79q-47 -51 -78 -119q-32 -68 -46 -148l-84 -485h-52l158 901h41l-20 -168h10
q31 49 76 88q39 35 98 63q59 27 145 27z" />
    <glyph glyph-name="ograve" unicode="&#xf2;" horiz-adv-x="1024" 
d="M700 1065h-28l-127 246h78zM651 911q74 0 140 -29q66 -30 116 -82q51 -52 81 -124t30 -154q0 -121 -41 -219t-110 -168t-156 -107q-88 -38 -181 -38q-74 0 -139 29q-66 30 -117 82t-80 123q-30 71 -30 155q0 121 41 219t109 168q69 70 157 107q88 38 180 38zM539 41
q80 0 157 35q78 35 138 97q59 62 96 149q37 86 37 190q0 78 -26 141t-69 110q-43 46 -102 72t-127 25q-80 0 -158 -35t-137 -97t-96 -148t-37 -191q0 -78 26 -141t68 -110q43 -46 103 -71q59 -26 127 -26z" />
    <glyph glyph-name="oacute" unicode="&#xf3;" horiz-adv-x="1024" 
d="M831 1311h87l-216 -246h-38zM651 911q74 0 140 -29q66 -30 116 -82q51 -52 81 -124t30 -154q0 -121 -41 -219t-110 -168t-156 -107q-88 -38 -181 -38q-74 0 -139 29q-66 30 -117 82t-80 123q-30 71 -30 155q0 121 41 219t109 168q69 70 157 107q88 38 180 38zM539 41
q80 0 157 35q78 35 138 97q59 62 96 149q37 86 37 190q0 78 -26 141t-69 110q-43 46 -102 72t-127 25q-80 0 -158 -35t-137 -97t-96 -148t-37 -191q0 -78 26 -141t68 -110q43 -46 103 -71q59 -26 127 -26z" />
    <glyph glyph-name="ocircumflex" unicode="&#xf4;" horiz-adv-x="1024" 
d="M920 1075h-56l-133 182l-196 -182h-66l246 225h41zM651 911q74 0 140 -29q66 -30 116 -82q51 -52 81 -124t30 -154q0 -121 -41 -219t-110 -168t-156 -107q-88 -38 -181 -38q-74 0 -139 29q-66 30 -117 82t-80 123q-30 71 -30 155q0 121 41 219t109 168q69 70 157 107
q88 38 180 38zM539 41q80 0 157 35q78 35 138 97q59 62 96 149q37 86 37 190q0 78 -26 141t-69 110q-43 46 -102 72t-127 25q-80 0 -158 -35t-137 -97t-96 -148t-37 -191q0 -78 26 -141t68 -110q43 -46 103 -71q59 -26 127 -26z" />
    <glyph glyph-name="otilde" unicode="&#xf5;" horiz-adv-x="1024" 
d="M819 1126q39 0 70 27t37 96h51q-10 -92 -56 -133t-108 -41q-39 0 -68 21q-29 20 -54 46q-26 26 -50 46q-25 20 -57 20q-39 0 -70 -26q-31 -27 -37 -97h-51q10 92 56 134q46 41 108 41q39 0 67 -21q29 -20 55 -46t50 -46q24 -21 57 -21zM651 911q74 0 140 -29
q66 -30 116 -82q51 -52 81 -124t30 -154q0 -121 -41 -219t-110 -168t-156 -107q-88 -38 -181 -38q-74 0 -139 29q-66 30 -117 82t-80 123q-30 71 -30 155q0 121 41 219t109 168q69 70 157 107q88 38 180 38zM539 41q80 0 157 35q78 35 138 97q59 62 96 149q37 86 37 190
q0 78 -26 141t-69 110q-43 46 -102 72t-127 25q-80 0 -158 -35t-137 -97t-96 -148t-37 -191q0 -78 26 -141t68 -110q43 -46 103 -71q59 -26 127 -26z" />
    <glyph glyph-name="odieresis" unicode="&#xf6;" horiz-adv-x="1024" 
d="M526 1167q0 23 15 37q14 14 37 15q18 0 30 -13q12 -12 13 -28q0 -23 -15 -37q-14 -14 -37 -15q-18 0 -30 13q-13 12 -13 28zM823 1167q0 23 15 37q14 14 36 15q18 0 31 -13q12 -12 13 -28q0 -23 -15 -37q-14 -14 -37 -15q-18 0 -30 13q-13 12 -13 28zM651 911
q74 0 140 -29q66 -30 116 -82q51 -52 81 -124t30 -154q0 -121 -41 -219t-110 -168t-156 -107q-88 -38 -181 -38q-74 0 -139 29q-66 30 -117 82t-80 123q-30 71 -30 155q0 121 41 219t109 168q69 70 157 107q88 38 180 38zM539 41q80 0 157 35q78 35 138 97q59 62 96 149
q37 86 37 190q0 78 -26 141t-69 110q-43 46 -102 72t-127 25q-80 0 -158 -35t-137 -97t-96 -148t-37 -191q0 -78 26 -141t68 -110q43 -46 103 -71q59 -26 127 -26z" />
    <glyph glyph-name="divide" unicode="&#xf7;" horiz-adv-x="870" 
d="M158 553h747l-8 -51h-747zM635 881q0 -23 -14.5 -37.5t-36.5 -14.5q-18 0 -30.5 12.5t-12.5 28.5q0 23 14 37.5t37 14.5q18 0 30.5 -12.5t12.5 -28.5zM420 174q0 23 14.5 37t36.5 14q18 0 30.5 -12t12.5 -29q0 -23 -14.5 -37t-36.5 -14q-18 0 -30.5 12.5t-12.5 28.5z" />
    <glyph glyph-name="oslash" unicode="&#xf8;" horiz-adv-x="1024" 
d="M82 68l135 110q-16 25 -27 55q-10 27 -18 63t-8 83q0 121 41 219t109.5 168t156.5 107.5t180 37.5q70 0 122 -22.5t89 -50.5q41 -33 74 -72l131 106l33 -38l-135 -111q14 -25 26 -55q10 -27 18.5 -64t8.5 -82q0 -121 -41 -219t-109.5 -167.5t-156.5 -107.5t-181 -38
q-70 0 -123 21.5t-88 49.5q-43 33 -73 74l-131 -106zM215 389q0 -41 6 -73.5t15 -55.5q8 -27 22 -49l639 522q-25 35 -61 64q-31 23 -79 43t-114 20q-80 0 -157.5 -34.5t-137 -97t-96.5 -149t-37 -190.5zM539 41q80 0 157.5 35t137 97.5t96.5 148.5t37 190q0 41 -7.5 73.5
t-15.5 55.5q-8 27 -20 49l-639 -522q25 -37 61 -64q31 -25 79 -44t114 -19z" />
    <glyph glyph-name="ugrave" unicode="&#xf9;" horiz-adv-x="1013" 
d="M721 1073h-29l-127 246h78zM520 -10q-68 0 -125 21q-57 22 -100 64t-67 100t-23 132q0 20 2 41q2 20 6 43l88 510h51l-88 -510q-4 -23 -6 -42t-2 -38q0 -127 73 -198q73 -72 199 -72q70 0 131 29t109 80q47 51 79 118q32 68 46 148l84 485h51l-158 -901h-41l21 168h-10
q-31 -51 -76 -90q-39 -35 -98 -62q-60 -26 -146 -26z" />
    <glyph glyph-name="uacute" unicode="&#xfa;" horiz-adv-x="1013" 
d="M811 1321h86l-215 -246h-39zM520 -10q-68 0 -125 21q-57 22 -100 64t-67 100t-23 132q0 20 2 41q2 20 6 43l88 510h51l-88 -510q-4 -23 -6 -42t-2 -38q0 -127 73 -198q73 -72 199 -72q70 0 131 29t109 80q47 51 79 118q32 68 46 148l84 485h51l-158 -901h-41l21 168h-10
q-31 -51 -76 -90q-39 -35 -98 -62q-60 -26 -146 -26z" />
    <glyph glyph-name="ucircumflex" unicode="&#xfb;" horiz-adv-x="1013" 
d="M905 1075h-55l-133 182l-197 -182h-65l245 225h41zM520 -10q-68 0 -125 21q-57 22 -100 64t-67 100t-23 132q0 20 2 41q2 20 6 43l88 510h51l-88 -510q-4 -23 -6 -42t-2 -38q0 -127 73 -198q73 -72 199 -72q70 0 131 29t109 80q47 51 79 118q32 68 46 148l84 485h51
l-158 -901h-41l21 168h-10q-31 -51 -76 -90q-39 -35 -98 -62q-60 -26 -146 -26z" />
    <glyph glyph-name="udieresis" unicode="&#xfc;" horiz-adv-x="1013" 
d="M508 1167q0 23 14 37t37 15q18 0 31 -13q12 -12 12 -28q0 -23 -14 -37t-37 -15q-18 0 -31 13q-12 12 -12 28zM805 1167q0 23 14 37t37 15q18 0 31 -13q12 -12 12 -28q0 -23 -14 -37t-37 -15q-18 0 -31 13q-12 12 -12 28zM520 -10q-68 0 -125 21q-57 22 -100 64t-67 100
t-23 132q0 20 2 41q2 20 6 43l88 510h51l-88 -510q-4 -23 -6 -42t-2 -38q0 -127 73 -198q73 -72 199 -72q70 0 131 29t109 80q47 51 79 118q32 68 46 148l84 485h51l-158 -901h-41l21 168h-10q-31 -51 -76 -90q-39 -35 -98 -62q-60 -26 -146 -26z" />
    <glyph glyph-name="yacute" unicode="&#xfd;" horiz-adv-x="880" 
d="M766 1319h86l-215 -246h-39zM987 901l-598 -1034q-35 -59 -64 -98q-30 -39 -60 -63t-61 -34q-32 -10 -71 -10q-27 0 -41 6q-8 2 -16 6l10 50q8 -4 16 -7q20 -4 41 -4q27 0 51 7t46 25q23 17 45 47q23 30 47 75l117 201l-240 833h51l219 -764h10l441 764h57z" />
    <glyph glyph-name="thorn" unicode="&#xfe;" horiz-adv-x="1085" 
d="M381 1290h51l-106 -604h10q41 61 96 113q47 41 118 76.5t163 35.5q74 0 139.5 -29.5t116.5 -81.5t80.5 -124t29.5 -154q0 -121 -41 -219t-109.5 -167.5t-156.5 -107.5t-180 -38q-100 0 -165 34.5t-103 75.5q-45 49 -72 111h-10l-97 -539h-51zM600 41q80 0 158 35
t137 97.5t96 148.5t37 190q0 78 -25.5 141.5t-68.5 109.5t-102.5 71.5t-126.5 25.5q-80 0 -157 -41t-137.5 -110.5t-97.5 -162.5t-37 -196q0 -74 26 -131t70 -97t102 -60.5t126 -20.5z" />
    <glyph glyph-name="ydieresis" unicode="&#xff;" horiz-adv-x="880" 
d="M430 1167q0 23 14 37t37 15q18 0 31 -13q12 -12 12 -28q0 -23 -14 -37t-37 -15q-18 0 -31 13q-12 12 -12 28zM727 1167q0 23 14 37t37 15q18 0 31 -13q12 -12 12 -28q0 -23 -14 -37t-37 -15q-18 0 -31 13q-12 12 -12 28zM987 901l-598 -1034q-35 -59 -64 -98
q-30 -39 -60 -63t-61 -34q-32 -10 -71 -10q-27 0 -41 6q-8 2 -16 6l10 50q8 -4 16 -7q20 -4 41 -4q27 0 51 7t46 25q23 17 45 47q23 30 47 75l117 201l-240 833h51l219 -764h10l441 764h57z" />
    <glyph glyph-name="Amacron" unicode="&#x100;" horiz-adv-x="1146" 
d="M1059 1495h-471l10 51h471zM791 1290h40l265 -1290h-52l-73 358h-641l-199 -358h-59zM358 410h603l-162 790z" />
    <glyph glyph-name="amacron" unicode="&#x101;" horiz-adv-x="921" 
d="M874 1147h-471l11 51h471zM430 41q66 0 126 28t110 75q49 48 83 114t48 143l12 70h-123q-150 0 -247 -20t-154 -55q-57 -34 -80 -79t-23 -92q0 -84 63 -134q62 -50 185 -50zM594 911q61 0 115 -17q53 -17 93 -51t62 -84q23 -50 23 -116q0 -16 -2 -35q-2 -18 -6 -37
l-101 -571h-41l19 168h-11q-35 -51 -81 -90q-41 -35 -102 -62q-60 -27 -140 -26q-137 0 -214 64q-77 65 -77 159q0 63 26 120q26 56 90 98q65 42 173 67q109 25 274 24h123l10 49q4 18 7 37q2 18 2 35q0 96 -62 157q-61 60 -188 60q-117 0 -186 -48t-107 -157h-51
q35 123 124 190q89 66 228 66z" />
    <glyph glyph-name="Abreve" unicode="&#x102;" horiz-adv-x="1146" 
d="M842 1485q61 0 112 41t64 102h51q-14 -86 -81 -140t-154 -54q-43 0 -80 16t-64 43t-41 61q-14 35 -10 74h51q-2 -61 40 -102t112 -41zM791 1290h40l265 -1290h-52l-73 358h-641l-199 -358h-59zM358 410h603l-162 790z" />
    <glyph glyph-name="abreve" unicode="&#x103;" horiz-adv-x="921" 
d="M647 1116q61 0 113 41q51 41 63 103h51q-14 -86 -80 -141q-67 -54 -155 -54q-43 0 -80 16t-63 43q-27 27 -41 62t-11 74h52q-2 -61 40 -103q41 -41 111 -41zM430 41q66 0 126 28t110 75q49 48 83 114t48 143l12 70h-123q-150 0 -247 -20t-154 -55q-57 -34 -80 -79
t-23 -92q0 -84 63 -134q62 -50 185 -50zM594 911q61 0 115 -17q53 -17 93 -51t62 -84q23 -50 23 -116q0 -16 -2 -35q-2 -18 -6 -37l-101 -571h-41l19 168h-11q-35 -51 -81 -90q-41 -35 -102 -62q-60 -27 -140 -26q-137 0 -214 64q-77 65 -77 159q0 63 26 120q26 56 90 98
q65 42 173 67q109 25 274 24h123l10 49q4 18 7 37q2 18 2 35q0 96 -62 157q-61 60 -188 60q-117 0 -186 -48t-107 -157h-51q35 123 124 190q89 66 228 66z" />
    <glyph glyph-name="Aogonek" unicode="&#x104;" horiz-adv-x="1146" 
d="M791 1290h40l265 -1290q-39 -27 -68 -57q-25 -27 -45 -61t-20 -68q0 -90 104 -90q18 0 39 4l16 4l-10 -51q-8 -2 -16 -5q-20 -4 -39 -4q-68 0 -108 38t-40 93q0 37 17.5 72t40 61.5t44 46t31.5 25.5l-71 350h-641l-199 -358h-59zM358 410h603l-162 790z" />
    <glyph glyph-name="aogonek" unicode="&#x105;" horiz-adv-x="921" 
d="M594 911q61 0 114.5 -17t93.5 -51t62.5 -84t22.5 -116q0 -16 -2 -34.5t-6 -37.5l-101 -571q-39 -27 -67 -57q-25 -27 -45.5 -61t-20.5 -68q0 -90 105 -90q18 0 38 4q8 2 17 4l-10 -51q-8 -2 -17 -5q-20 -4 -39 -4q-68 0 -107.5 38t-39.5 93q0 43 21.5 80t49 67t50 47
t26.5 19l17 152h-11q-35 -51 -81 -90q-41 -35 -101.5 -61.5t-140.5 -26.5q-137 0 -214 64.5t-77 158.5q0 63 25.5 119.5t90 98.5t173 66.5t274.5 24.5h123l10 49q4 18 6.5 37t2.5 35q0 96 -61.5 156.5t-188.5 60.5q-117 0 -185.5 -48t-107.5 -157h-51q35 123 124 189.5
t228 66.5zM430 41q66 0 126 27.5t109.5 76t83 114t48.5 142.5l12 70h-123q-150 0 -247 -20.5t-154.5 -54.5t-80 -79t-22.5 -92q0 -84 62.5 -134t185.5 -50z" />
    <glyph glyph-name="Cacute" unicode="&#x106;" horiz-adv-x="1310" 
d="M1047 1690h86l-215 -246h-39zM213 545q0 143 49 278t137 242q88 106 211 171t273 64q92 0 171 -32q79 -33 140 -90t104 -137q43 -79 62 -171h-55q-37 168 -148 274q-111 105 -283 105q-131 0 -242 -59q-112 -59 -193 -157q-81 -97 -127 -222t-46 -254q0 -111 35 -206
t96 -164t145 -107q83 -39 181 -39q92 0 172 29t147 80q68 51 120 120q52 70 87 150h58q-41 -92 -98 -170q-56 -78 -130 -136t-165 -91t-199 -33q-102 0 -194 43q-91 43 -160 119t-108 176q-40 100 -40 217z" />
    <glyph glyph-name="cacute" unicode="&#x107;" horiz-adv-x="972" 
d="M821 1319h86l-215 -246h-39zM539 41q121 0 215 65q94 66 149 181h55q-61 -141 -177 -219t-251 -78q-74 0 -139 29q-66 30 -117 82t-80 123q-30 71 -30 155q0 121 41 219t109 168q69 70 157 107q88 38 180 38q66 0 123 -22q57 -23 104 -64q46 -41 76 -97q31 -56 45 -124
h-53q-25 117 -105 187q-81 70 -198 69q-80 0 -158 -35t-137 -97t-96 -148t-37 -191q0 -78 26 -141t68 -110q43 -46 103 -71q59 -26 127 -26z" />
    <glyph glyph-name="Ccircumflex" unicode="&#x108;" horiz-adv-x="1310" 
d="M1124 1444h-55l-133 182l-197 -182h-65l246 225h41zM213 545q0 143 49 278t137 242q88 106 211 171t273 64q92 0 171 -32q79 -33 140 -90t104 -137q43 -79 62 -171h-55q-37 168 -148 274q-111 105 -283 105q-131 0 -242 -59q-112 -59 -193 -157q-81 -97 -127 -222
t-46 -254q0 -111 35 -206t96 -164t145 -107q83 -39 181 -39q92 0 172 29t147 80q68 51 120 120q52 70 87 150h58q-41 -92 -98 -170q-56 -78 -130 -136t-165 -91t-199 -33q-102 0 -194 43q-91 43 -160 119t-108 176q-40 100 -40 217z" />
    <glyph glyph-name="ccircumflex" unicode="&#x109;" horiz-adv-x="972" 
d="M907 1075h-55l-133 182l-197 -182h-65l245 225h41zM539 41q121 0 215 65q94 66 149 181h55q-61 -141 -177 -219t-251 -78q-74 0 -139 29q-66 30 -117 82t-80 123q-30 71 -30 155q0 121 41 219t109 168q69 70 157 107q88 38 180 38q66 0 123 -22q57 -23 104 -64
q46 -41 76 -97q31 -56 45 -124h-53q-25 117 -105 187q-81 70 -198 69q-80 0 -158 -35t-137 -97t-96 -148t-37 -191q0 -78 26 -141t68 -110q43 -46 103 -71q59 -26 127 -26z" />
    <glyph glyph-name="Ccaron" unicode="&#x10c;" horiz-adv-x="1310" 
d="M705 1669h55l133 -182l197 182h65l-246 -225h-41zM213 545q0 143 49 278t137 242q88 106 211 171t273 64q92 0 171 -32q79 -33 140 -90t104 -137q43 -79 62 -171h-55q-37 168 -148 274q-111 105 -283 105q-131 0 -242 -59q-112 -59 -193 -157q-81 -97 -127 -222t-46 -254
q0 -111 35 -206t96 -164t145 -107q83 -39 181 -39q92 0 172 29t147 80q68 51 120 120q52 70 87 150h58q-41 -92 -98 -170q-56 -78 -130 -136t-165 -91t-199 -33q-102 0 -194 43q-91 43 -160 119t-108 176q-40 100 -40 217z" />
    <glyph glyph-name="ccaron" unicode="&#x10d;" horiz-adv-x="972" 
d="M489 1300h56l133 -182l196 182h66l-246 -225h-41zM539 41q121 0 215 65q94 66 149 181h55q-61 -141 -177 -219t-251 -78q-74 0 -139 29q-66 30 -117 82t-80 123q-30 71 -30 155q0 121 41 219t109 168q69 70 157 107q88 38 180 38q66 0 123 -22q57 -23 104 -64
q46 -41 76 -97q31 -56 45 -124h-53q-25 117 -105 187q-81 70 -198 69q-80 0 -158 -35t-137 -97t-96 -148t-37 -191q0 -78 26 -141t68 -110q43 -46 103 -71q59 -26 127 -26z" />
    <glyph glyph-name="Dcaron" unicode="&#x10e;" horiz-adv-x="1198" 
d="M633 1669h55l133 -182l197 182h65l-245 -225h-41zM1210 745q0 -152 -53 -286q-53 -135 -146 -237q-93 -101 -220 -162q-127 -60 -277 -60h-330l228 1290h266q113 0 211 -40t169 -112q71 -73 111 -173q41 -101 41 -220zM522 51q131 0 247 55t202 149q86 93 136 217t50 261
q0 115 -35 208t-99 160q-65 67 -155 102q-90 36 -198 36h-217l-209 -1188h278z" />
    <glyph glyph-name="dcaron" unicode="&#x10f;" horiz-adv-x="1157" 
d="M1364 1290h84l-158 -246h-43zM932 0h-41l29 215h-11q-43 -63 -98 -113q-47 -43 -117.5 -77.5t-163.5 -34.5q-74 0 -139 29.5t-116.5 82t-81 123t-29.5 154.5q0 121 41 219t109.5 168t156.5 107.5t180 37.5q98 0 164 -34.5t105 -75.5q45 -49 71 -111h10l107 600h51z
M643 860q-80 0 -157.5 -34.5t-137 -97t-96.5 -148.5t-37 -191q0 -78 25.5 -141.5t68.5 -109.5t102.5 -71.5t127.5 -25.5q80 0 156.5 41t137 110.5t97.5 163t37 195.5q0 74 -26 131t-70 97t-102 60.5t-126 20.5z" />
    <glyph glyph-name="Dcroat" unicode="&#x110;" horiz-adv-x="1218" 
d="M137 666h185l110 624h266q113 0 211.5 -40t169 -112.5t111.5 -173t41 -219.5q0 -152 -53.5 -286.5t-146.5 -236t-220 -162t-276 -60.5h-330l106 614h-184zM543 51q131 0 246.5 55.5t201.5 148.5t136.5 217t50.5 261q0 115 -35 208t-99.5 159.5t-154.5 102.5t-199 36h-217
l-100 -573h317l-10 -52h-318l-98 -563h279z" />
    <glyph glyph-name="dcroat" unicode="&#x111;" horiz-adv-x="1085" 
d="M756 1096h532l-10 -52h-533zM901 0h-41l25 197h-11q-39 -59 -92 -105q-47 -39 -114.5 -70.5t-157.5 -31.5q-74 0 -139.5 24.5t-114.5 71.5t-79 112.5t-30 149.5q0 106 37 194.5t99.5 152t145.5 99t175 35.5q100 0 166 -33.5t107 -74.5q47 -47 71 -107h10l119 676h51z
M596 778q-80 0 -152.5 -31.5t-127 -87t-86 -132t-31.5 -169.5q0 -78 24.5 -137t67.5 -99t101.5 -60.5t125.5 -20.5q80 0 153.5 39t130 101.5t90.5 139t34 152.5q0 74 -27 130t-72 95t-104 59.5t-127 20.5z" />
    <glyph glyph-name="Emacron" unicode="&#x112;" horiz-adv-x="1054" 
d="M1047 1516h-472l11 51h471zM961 51l-9 -51h-768l228 1290h747l-10 -51h-696l-97 -543h645l-8 -51h-645l-104 -594h717z" />
    <glyph glyph-name="emacron" unicode="&#x113;" horiz-adv-x="1003" 
d="M926 1147h-471l10 51h471zM539 41q98 0 187 44t148 130h62q-70 -109 -176 -167t-230 -58q-74 0 -139 29q-66 30 -117 82t-80 123q-30 71 -30 155q0 121 41 219t109 168q69 70 157 107q88 38 180 38q74 0 137 -29q63 -30 112 -82q48 -52 76 -124t28 -154q0 -16 -3 -32
q-2 -15 -6 -29q-4 -16 -8 -31h-770q-2 -6 -2 -14v-27q0 -78 26 -141t68 -110q43 -46 103 -71q59 -26 127 -26zM643 860q-72 0 -140 -27q-69 -28 -126 -78t-98 -120t-56 -154h727v13q0 4 1 9t1 9q0 78 -22 141q-23 63 -65 110q-42 46 -98 72q-56 25 -124 25z" />
    <glyph glyph-name="Edotaccent" unicode="&#x116;" horiz-adv-x="1054" 
d="M776 1536q0 23 15 37q14 14 36 14q18 0 31 -12q12 -12 12 -29q0 -23 -14 -37t-37 -14q-18 0 -31 12q-12 13 -12 29zM961 51l-9 -51h-768l228 1290h747l-10 -51h-696l-97 -543h645l-8 -51h-645l-104 -594h717z" />
    <glyph glyph-name="edotaccent" unicode="&#x117;" horiz-adv-x="1003" 
d="M657 1167q0 23 15 37q14 14 37 15q18 0 30 -13q12 -12 13 -28q0 -23 -15 -37q-14 -14 -37 -15q-18 0 -30 13q-13 12 -13 28zM539 41q98 0 187 44t148 130h62q-70 -109 -176 -167t-230 -58q-74 0 -139 29q-66 30 -117 82t-80 123q-30 71 -30 155q0 121 41 219t109 168
q69 70 157 107q88 38 180 38q74 0 137 -29q63 -30 112 -82q48 -52 76 -124t28 -154q0 -16 -3 -32q-2 -15 -6 -29q-4 -16 -8 -31h-770q-2 -6 -2 -14v-27q0 -78 26 -141t68 -110q43 -46 103 -71q59 -26 127 -26zM643 860q-72 0 -140 -27q-69 -28 -126 -78t-98 -120t-56 -154
h727v13q0 4 1 9t1 9q0 78 -22 141q-23 63 -65 110q-42 46 -98 72q-56 25 -124 25z" />
    <glyph glyph-name="Eogonek" unicode="&#x118;" horiz-adv-x="1054" 
d="M184 0l228 1290h747l-10 -51h-696l-97 -543h645l-8 -51h-645l-104 -594h717l-9 -51q-39 -27 -67 -57q-25 -27 -45.5 -61t-20.5 -68q0 -90 105 -90q18 0 39 4l16 4l-10 -51q-8 -2 -17 -5q-20 -4 -39 -4q-68 0 -107.5 38t-39.5 93q0 43 19.5 79t41.5 63q27 31 64 55h-707z
" />
    <glyph glyph-name="eogonek" unicode="&#x119;" horiz-adv-x="1003" 
d="M539 41q98 0 187 44t148 130h62q-66 -100 -162 -157.5t-207 -65.5q-12 -10 -31.5 -27.5t-39 -41t-33.5 -51.5t-14 -58q0 -90 104 -90q18 0 39 4l16 4l-10 -51q-8 -2 -16 -5q-20 -4 -39 -4q-68 0 -108 38t-40 93q0 35 13.5 65t31 54.5t36 42t30.5 27.5q-70 4 -131.5 35.5
t-108.5 83t-74.5 120t-27.5 148.5q0 121 41 219t109.5 168t156.5 107.5t180 37.5q74 0 137.5 -29.5t111.5 -81.5t76 -124t28 -154q0 -16 -2.5 -31.5t-6.5 -29.5q-4 -16 -8 -31h-770q-2 -6 -2 -14v-27q0 -78 25.5 -141.5t68.5 -109.5t102.5 -71.5t127.5 -25.5zM643 860
q-72 0 -140.5 -27.5t-126 -77.5t-98 -120t-55.5 -154h727v13q0 4 1 9t1 9q0 78 -22.5 141.5t-64.5 109.5t-98 71.5t-124 25.5z" />
    <glyph glyph-name="Ecaron" unicode="&#x11a;" horiz-adv-x="1054" 
d="M608 1669h56l133 -182l196 182h66l-246 -225h-41zM961 51l-9 -51h-768l228 1290h747l-10 -51h-696l-97 -543h645l-8 -51h-645l-104 -594h717z" />
    <glyph glyph-name="ecaron" unicode="&#x11b;" horiz-adv-x="1003" 
d="M489 1300h56l133 -182l196 182h66l-246 -225h-41zM539 41q98 0 187 44t148 130h62q-70 -109 -176 -167t-230 -58q-74 0 -139 29q-66 30 -117 82t-80 123q-30 71 -30 155q0 121 41 219t109 168q69 70 157 107q88 38 180 38q74 0 137 -29q63 -30 112 -82q48 -52 76 -124
t28 -154q0 -16 -3 -32q-2 -15 -6 -29q-4 -16 -8 -31h-770q-2 -6 -2 -14v-27q0 -78 26 -141t68 -110q43 -46 103 -71q59 -26 127 -26zM643 860q-72 0 -140 -27q-69 -28 -126 -78t-98 -120t-56 -154h727v13q0 4 1 9t1 9q0 78 -22 141q-23 63 -65 110q-42 46 -98 72
q-56 25 -124 25z" />
    <glyph glyph-name="Gbreve" unicode="&#x11e;" horiz-adv-x="1361" 
d="M909 1485q61 0 113 41q51 41 63 102h52q-14 -86 -81 -140t-155 -54q-43 0 -80 16t-63 43q-27 27 -41 61q-14 35 -10 74h51q-2 -61 40 -102q41 -41 111 -41zM213 545q0 143 49 278t137 242q88 106 211 171t273 64q84 0 158 -27q75 -28 136 -79q60 -51 103 -121t66 -151
h-58q-39 147 -147 237q-109 90 -267 90q-131 0 -242 -59q-112 -59 -193 -157q-81 -97 -127 -222t-46 -254q0 -111 35 -206t96 -164t145 -107q83 -39 181 -39q109 0 199 50t158 126q69 76 113 166t60 170h-430l11 51h481l-107 -604h-41l45 317q-53 -92 -125 -163
q-63 -61 -155 -113q-92 -51 -217 -51q-102 0 -194 43q-91 43 -160 119t-108 176q-40 100 -40 217z" />
    <glyph glyph-name="gbreve" unicode="&#x11f;" horiz-adv-x="1034" 
d="M713 1116q61 0 112 41t64 103h51q-14 -86 -81 -141q-67 -54 -154 -54q-43 0 -80 16t-64 43t-41 62t-10 74h51q-2 -61 40 -103q42 -41 112 -41zM897 41q-33 -186 -143 -288q-111 -101 -273 -101q-84 0 -147 22q-63 23 -108 61q-44 38 -66 88q-23 50 -25 105h51
q10 -104 83 -165q73 -60 220 -60q139 0 234 89q94 89 123 249l35 190h-11q-41 -57 -94 -100q-47 -39 -113 -70q-67 -31 -153 -30q-72 0 -134 26q-62 27 -109 76q-46 49 -73 117q-28 68 -28 149q0 113 41 207t106 162q66 68 149 105q83 38 169 38q92 0 154 -33
q62 -34 100 -75q43 -47 67 -107h11l45 205h41zM623 860q-74 0 -146 -34t-130 -94t-94 -142t-36 -180q0 -74 23 -135q23 -60 62 -103q40 -43 95 -67t121 -23q76 0 150 36t131 99t92 150q35 86 35 184q0 147 -83 228t-220 81z" />
    <glyph glyph-name="uni0122" unicode="&#x122;" horiz-adv-x="1361" 
d="M635 -213q0 20 13 35q13 14 34 14q47 0 47 -61q0 -43 -20 -80t-45 -66q-29 -33 -64 -61l-12 12q23 23 41 49q16 23 29 52t18 63q-16 2 -29 14q-12 13 -12 29zM213 545q0 143 49 278t137 242q88 106 211 171t273 64q84 0 158 -27q75 -28 136 -79q60 -51 103 -121t66 -151
h-58q-39 147 -147 237q-109 90 -267 90q-131 0 -242 -59q-112 -59 -193 -157q-81 -97 -127 -222t-46 -254q0 -111 35 -206t96 -164t145 -107q83 -39 181 -39q109 0 199 50t158 126q69 76 113 166t60 170h-430l11 51h481l-107 -604h-41l45 317q-53 -92 -125 -163
q-63 -61 -155 -113q-92 -51 -217 -51q-102 0 -194 43q-91 43 -160 119t-108 176q-40 100 -40 217z" />
    <glyph glyph-name="uni0123" unicode="&#x123;" horiz-adv-x="1034" 
d="M754 1143q0 -20 -13.5 -34.5t-33.5 -14.5q-47 0 -48 61q0 41 19.5 79t44.5 66q29 33 65 62l13 -12q-23 -23 -41 -50q-16 -23 -30.5 -52t-16.5 -62q16 -2 28.5 -14.5t12.5 -28.5zM897 41q-33 -186 -143.5 -287.5t-272.5 -101.5q-84 0 -147.5 22.5t-107.5 60.5t-66.5 88
t-24.5 105h51q10 -104 83 -164.5t220 -60.5q139 0 233.5 89t123.5 249l35 190h-11q-41 -57 -94 -100q-47 -39 -113.5 -69.5t-152.5 -30.5q-72 0 -134.5 26.5t-108.5 75.5t-73.5 116.5t-27.5 149.5q0 113 41 207t106.5 162t148.5 105.5t169 37.5q92 0 154.5 -33.5t99.5 -74.5
q43 -47 67 -107h11l45 205h41zM623 860q-74 0 -145.5 -33.5t-130 -94t-94.5 -142.5t-36 -180q0 -74 22.5 -134.5t62.5 -103.5t95.5 -66.5t120.5 -23.5q76 0 149.5 36t131 99.5t92.5 149.5t35 184q0 147 -83 228t-220 81z" />
    <glyph glyph-name="Imacron" unicode="&#x12a;" horiz-adv-x="419" 
d="M692 1505h-471l10 51h471zM236 0h-52l228 1290h51z" />
    <glyph glyph-name="imacron" unicode="&#x12b;" horiz-adv-x="337" 
d="M588 1147h-471l10 51h471zM195 0h-52l158 901h51z" />
    <glyph glyph-name="Iogonek" unicode="&#x12e;" horiz-adv-x="419" 
d="M236 0q-39 -27 -68 -57q-25 -27 -45.5 -61t-20.5 -68q0 -90 105 -90q18 0 39 4l16 4l-10 -51q-8 -2 -16 -5q-20 -4 -39 -4q-68 0 -108 38t-40 93q0 37 16.5 70t39 60.5t46 48t35.5 30.5l226 1278h51z" />
    <glyph glyph-name="iogonek" unicode="&#x12f;" horiz-adv-x="337" 
d="M195 0q-39 -27 -68 -57q-25 -27 -45.5 -61t-20.5 -68q0 -90 105 -90q18 0 39 4l16 4l-10 -51q-8 -2 -16 -5q-20 -4 -39 -4q-68 0 -108 38t-40 93q0 39 18.5 74t41 62.5t45 46t32.5 24.5l156 891h51zM328 1178q0 23 14 37t37 14q18 0 30.5 -12.5t12.5 -28.5
q0 -23 -14.5 -37t-36.5 -14q-18 0 -30.5 12.5t-12.5 28.5z" />
    <glyph glyph-name="Idotaccent" unicode="&#x130;" horiz-adv-x="419" 
d="M236 0h-52l228 1290h51zM434 1536q0 23 15 37q14 14 36 14q18 0 31 -12q12 -12 12 -29q0 -23 -14 -37t-37 -14q-18 0 -31 12q-12 13 -12 29z" />
    <glyph glyph-name="dotlessi" unicode="&#x131;" horiz-adv-x="337" 
d="M195 0h-52l158 901h51z" />
    <glyph glyph-name="ij" unicode="&#x133;" horiz-adv-x="829" 
d="M645 59q-29 -20 -63 -34q-29 -14 -69 -24.5t-85 -10.5q-113 0 -177.5 56t-64.5 171q0 18 2 37.5t7 42.5l106 604h51l-106 -600q-8 -41 -8 -82q0 -98 53 -138t145 -40q47 0 87 11t69 28q35 18 63 41l138 780h51l-176 -1003q-23 -131 -90.5 -183.5t-165.5 -52.5
q-39 0 -58 6q-12 4 -20 8l10 52q10 -4 23 -9q20 -6 55 -6q76 0 127 43t69 152zM328 1178q0 23 14 37t37 14q18 0 30.5 -12.5t12.5 -28.5q0 -23 -14.5 -37t-36.5 -14q-18 0 -30.5 12.5t-12.5 28.5zM819 1178q0 23 14.5 37t36.5 14q18 0 30.5 -12.5t12.5 -28.5q0 -23 -14 -37
t-37 -14q-18 0 -30.5 12.5t-12.5 28.5z" />
    <glyph glyph-name="uni0136" unicode="&#x136;" 
d="M471 -213q0 20 13 35q13 14 34 14q47 0 47 -61q0 -43 -20 -80t-45 -66q-29 -33 -64 -61l-12 12q23 23 41 49q16 23 30 52q13 29 17 63q-16 2 -29 14q-12 13 -12 29zM350 655l-114 -655h-52l228 1290h51l-113 -635l737 635h78l-741 -639l528 -651h-71z" />
    <glyph glyph-name="uni0137" unicode="&#x137;" horiz-adv-x="808" 
d="M379 -213q0 20 13 35q13 14 34 14q47 0 47 -61q0 -43 -20 -80t-45 -66q-29 -33 -64 -61l-12 12q23 23 41 49q16 23 29 52t18 63q-16 2 -29 14q-12 13 -12 29zM287 471l-82 -471h-51l227 1290h51l-145 -819l557 430h76l-564 -434l439 -467h-68z" />
    <glyph glyph-name="Lacute" unicode="&#x139;" horiz-adv-x="942" 
d="M604 1690h86l-215 -246h-39zM909 51l-8 -51h-717l228 1290h51l-219 -1239h665z" />
    <glyph glyph-name="lacute" unicode="&#x13a;" horiz-adv-x="358" 
d="M575 1690h87l-216 -246h-38zM205 0h-51l227 1290h51z" />
    <glyph glyph-name="uni013B" unicode="&#x13b;" horiz-adv-x="942" 
d="M492 -213q0 20 13 35q13 14 34 14q47 0 47 -61q0 -43 -21 -80q-20 -37 -45 -66q-29 -33 -63 -61l-13 12q23 23 41 49q16 23 30 52q13 29 17 63q-16 2 -28 14q-12 13 -12 29zM909 51l-8 -51h-717l228 1290h51l-219 -1239h665z" />
    <glyph glyph-name="uni013C" unicode="&#x13c;" horiz-adv-x="358" 
d="M113 -213q0 20 13 35q13 14 34 14q47 0 47 -61q0 -43 -21 -80q-20 -37 -45 -66q-29 -33 -63 -61l-12 12q23 23 40 49q16 23 30 52q13 29 18 63q-16 2 -29 14q-12 13 -12 29zM205 0h-51l227 1290h51z" />
    <glyph glyph-name="Lcaron" unicode="&#x13d;" horiz-adv-x="942" 
d="M709 1290h84l-158 -246h-43zM909 51l-8 -51h-717l228 1290h51l-219 -1239h665z" />
    <glyph glyph-name="lcaron" unicode="&#x13e;" horiz-adv-x="430" 
d="M637 1290h84l-158 -246h-43zM205 0h-51l227 1290h51z" />
    <glyph glyph-name="Lslash" unicode="&#x141;" horiz-adv-x="942" 
d="M117 432l159 92l136 766h51l-131 -733l401 234l-12 -64l-399 -231l-78 -445h665l-8 -51h-717l80 461l-160 -92z" />
    <glyph glyph-name="lslash" unicode="&#x142;" horiz-adv-x="440" 
d="M113 524l192 111l117 655h51l-111 -622l195 112l-12 -63l-193 -111l-106 -606h-51l100 573l-195 -112z" />
    <glyph glyph-name="Nacute" unicode="&#x143;" horiz-adv-x="1228" 
d="M991 1690h86l-215 -246h-39zM1272 1290l-228 -1290h-40l-560 1188l-208 -1188h-52l228 1290h41l557 -1188l211 1188h51z" />
    <glyph glyph-name="nacute" unicode="&#x144;" horiz-adv-x="1003" 
d="M831 1321h87l-216 -246h-38zM651 911q68 0 125 -21q57 -22 101 -64q43 -42 66 -100q24 -58 24 -132q0 -20 -2 -41q-2 -20 -7 -43l-88 -510h-51l88 510q4 23 6 42t2 38q0 127 -72 198q-73 72 -200 72q-72 0 -132 -29t-108 -79q-47 -51 -78 -119q-32 -68 -46 -148l-84 -485
h-52l158 901h41l-20 -168h10q31 49 76 88q39 35 98 63q59 27 145 27z" />
    <glyph glyph-name="uni0145" unicode="&#x145;" horiz-adv-x="1228" 
d="M565 -213q0 20 14 35q13 14 33 14q47 0 47 -61q0 -43 -20 -80t-45 -66q-29 -33 -64 -61l-12 12q23 23 41 49q16 23 30 52q13 29 17 63q-16 2 -28 14q-13 13 -13 29zM1272 1290l-228 -1290h-40l-560 1188l-208 -1188h-52l228 1290h41l557 -1188l211 1188h51z" />
    <glyph glyph-name="uni0146" unicode="&#x146;" horiz-adv-x="1003" 
d="M440 -213q0 20 14 35q13 14 33 14q47 0 48 -61q0 -43 -21 -80q-20 -37 -45 -66q-29 -33 -63 -61l-13 12q23 23 41 49q16 23 30 52q13 29 17 63q-16 2 -28 14q-13 13 -13 29zM651 911q68 0 125 -21q57 -22 101 -64q43 -42 66 -100q24 -58 24 -132q0 -20 -2 -41
q-2 -20 -7 -43l-88 -510h-51l88 510q4 23 6 42t2 38q0 127 -72 198q-73 72 -200 72q-72 0 -132 -29t-108 -79q-47 -51 -78 -119q-32 -68 -46 -148l-84 -485h-52l158 901h41l-20 -168h10q31 49 76 88q39 35 98 63q59 27 145 27z" />
    <glyph glyph-name="Ncaron" unicode="&#x147;" horiz-adv-x="1228" 
d="M657 1669h56l133 -182l196 182h66l-246 -225h-41zM1272 1290l-228 -1290h-40l-560 1188l-208 -1188h-52l228 1290h41l557 -1188l211 1188h51z" />
    <glyph glyph-name="ncaron" unicode="&#x148;" horiz-adv-x="1003" 
d="M479 1300h56l133 -182l196 182h66l-246 -225h-41zM651 911q68 0 125 -21q57 -22 101 -64q43 -42 66 -100q24 -58 24 -132q0 -20 -2 -41q-2 -20 -7 -43l-88 -510h-51l88 510q4 23 6 42t2 38q0 127 -72 198q-73 72 -200 72q-72 0 -132 -29t-108 -79q-47 -51 -78 -119
q-32 -68 -46 -148l-84 -485h-52l158 901h41l-20 -168h10q31 49 76 88q39 35 98 63q59 27 145 27z" />
    <glyph glyph-name="Omacron" unicode="&#x14c;" horiz-adv-x="1372" 
d="M1165 1505h-471l11 51h471zM213 545q0 143 49 278t137 242q88 106 211 171t273 64q102 0 193 -43t160 -118q69 -76 109 -176t39 -218q0 -143 -49 -279t-137 -242q-88 -105 -211 -170t-272 -64q-102 0 -194 43q-91 43 -160 119t-108 176q-40 100 -40 217zM1331 733
q0 111 -35 206t-96 164t-144 107q-83 39 -182 39q-131 0 -242 -59q-112 -59 -193 -157q-81 -97 -127 -222t-46 -254q0 -111 35 -206t96 -164t145 -107q83 -39 181 -39q131 0 242 59t192 157q82 97 128 222t46 254z" />
    <glyph glyph-name="omacron" unicode="&#x14d;" horiz-adv-x="1024" 
d="M946 1147h-471l10 51h471zM651 911q74 0 140 -29q66 -30 116 -82q51 -52 81 -124t30 -154q0 -121 -41 -219t-110 -168t-156 -107q-88 -38 -181 -38q-74 0 -139 29q-66 30 -117 82t-80 123q-30 71 -30 155q0 121 41 219t109 168q69 70 157 107q88 38 180 38zM539 41
q80 0 157 35q78 35 138 97q59 62 96 149q37 86 37 190q0 78 -26 141t-69 110q-43 46 -102 72t-127 25q-80 0 -158 -35t-137 -97t-96 -148t-37 -191q0 -78 26 -141t68 -110q43 -46 103 -71q59 -26 127 -26z" />
    <glyph glyph-name="Ohungarumlaut" unicode="&#x150;" horiz-adv-x="1372" 
d="M965 1690h86l-238 -246h-37zM1210 1690h86l-237 -246h-37zM213 545q0 143 49 278t137 242q88 106 211 171t273 64q102 0 193 -43t160 -118q69 -76 109 -176t39 -218q0 -143 -49 -279t-137 -242q-88 -105 -211 -170t-272 -64q-102 0 -194 43q-91 43 -160 119t-108 176
q-40 100 -40 217zM1331 733q0 111 -35 206t-96 164t-144 107q-83 39 -182 39q-131 0 -242 -59q-112 -59 -193 -157q-81 -97 -127 -222t-46 -254q0 -111 35 -206t96 -164t145 -107q83 -39 181 -39q131 0 242 59t192 157q82 97 128 222t46 254z" />
    <glyph glyph-name="ohungarumlaut" unicode="&#x151;" horiz-adv-x="1024" 
d="M729 1311h86l-237 -246h-37zM975 1311h86l-238 -246h-37zM651 911q74 0 140 -29q66 -30 116 -82q51 -52 81 -124t30 -154q0 -121 -41 -219t-110 -168t-156 -107q-88 -38 -181 -38q-74 0 -139 29q-66 30 -117 82t-80 123q-30 71 -30 155q0 121 41 219t109 168
q69 70 157 107q88 38 180 38zM539 41q80 0 157 35q78 35 138 97q59 62 96 149q37 86 37 190q0 78 -26 141t-69 110q-43 46 -102 72t-127 25q-80 0 -158 -35t-137 -97t-96 -148t-37 -191q0 -78 26 -141t68 -110q43 -46 103 -71q59 -26 127 -26z" />
    <glyph glyph-name="OE" unicode="&#x152;" horiz-adv-x="1710" 
d="M748 0q-115 0 -212.5 40t-168 112.5t-111.5 172t-41 220.5q0 150 53.5 286t146.5 237t220 161.5t276 60.5h904l-11 -51h-635l-96 -543h584l-8 -51h-584l-104 -594h655l-8 -51h-860zM909 51l209 1188h-215q-131 0 -246.5 -55.5t-201.5 -148.5t-136.5 -217t-50.5 -261
q0 -115 35 -209t98.5 -159.5t153.5 -101.5t199 -36h155z" />
    <glyph glyph-name="oe" unicode="&#x153;" horiz-adv-x="1689" 
d="M1255 41q98 0 173 44t133 130h61q-70 -109 -161 -167t-214 -58q-117 0 -205 76.5t-116 205.5h-11q-25 -66 -67.5 -118t-97 -88.5t-118 -56t-128.5 -19.5q-72 0 -134.5 30.5t-109.5 83t-73.5 123t-26.5 152.5q0 125 36.5 223t100 167t148.5 105.5t180 36.5
q57 0 111.5 -22.5t98.5 -61.5t74.5 -91t42.5 -111h11q35 80 92 143q49 53 125.5 98t187.5 45q74 0 133.5 -29.5t101.5 -81.5t64.5 -124t22.5 -154q0 -16 -2 -31.5t-5 -29.5q-2 -16 -4 -31h-714q-2 -6 -2 -14v-27q0 -78 21.5 -141.5t60 -109.5t93 -71.5t117.5 -25.5zM512 41
q82 0 155.5 35t129 96t88.5 148.5t33 191.5q0 76 -23 140.5t-62.5 110.5t-95 71.5t-121.5 25.5q-82 0 -155.5 -34.5t-129 -96t-88 -148.5t-32.5 -192q0 -76 22.5 -140.5t62.5 -110.5t95 -71.5t121 -25.5zM1360 860q-68 0 -131.5 -25.5t-115.5 -73.5t-90 -119t-52 -161h665
v13q0 4 1 9t1 9q0 156 -68.5 252t-209.5 96z" />
    <glyph glyph-name="Racute" unicode="&#x154;" horiz-adv-x="1116" 
d="M944 1690h86l-215 -246h-39zM725 573h-389l-100 -573h-52l228 1290h417q72 0 134 -24q61 -25 105 -68t70 -100t25 -121q0 -174 -97 -282t-288 -120l238 -575h-53zM344 625h397q176 0 273 94q96 94 96 250q0 57 -20 107t-59 86q-38 36 -92 57q-54 20 -120 20h-366z" />
    <glyph glyph-name="racute" unicode="&#x155;" horiz-adv-x="593" 
d="M657 1311h86l-215 -246h-39zM713 911l-8 -51h-62q-61 0 -120 -26q-58 -27 -107 -74t-85 -115t-50 -147l-86 -498h-52l158 901h41l-20 -168h10q29 49 76 88q39 35 99 63t144 27h62z" />
    <glyph glyph-name="uni0156" unicode="&#x156;" horiz-adv-x="1116" 
d="M532 -193q0 20 14 35q13 14 34 15q47 0 47 -62q0 -43 -21 -80q-20 -37 -45 -65q-29 -33 -63 -62l-13 13q23 23 41 49q16 23 30 51q13 29 17 63q-16 2 -28 15q-13 12 -13 28zM725 573h-389l-100 -573h-52l228 1290h417q72 0 134 -24q61 -25 105 -68t70 -100t25 -121
q0 -174 -97 -282t-288 -120l238 -575h-53zM344 625h397q176 0 273 94q96 94 96 250q0 57 -20 107t-59 86q-38 36 -92 57q-54 20 -120 20h-366z" />
    <glyph glyph-name="uni0157" unicode="&#x157;" horiz-adv-x="593" 
d="M90 -213q0 20 13 35q13 14 34 14q47 0 47 -61q0 -43 -20 -80t-45 -66q-29 -33 -64 -61l-12 12q23 23 41 49q16 23 30 52q13 29 17 63q-16 2 -29 14q-12 13 -12 29zM713 911l-8 -51h-62q-61 0 -120 -26q-58 -27 -107 -74t-85 -115t-50 -147l-86 -498h-52l158 901h41
l-20 -168h10q29 49 76 88q39 35 99 63t144 27h62z" />
    <glyph glyph-name="Rcaron" unicode="&#x158;" horiz-adv-x="1116" 
d="M623 1669h55l133 -182l197 182h65l-246 -225h-41zM725 573h-389l-100 -573h-52l228 1290h417q72 0 134 -24q61 -25 105 -68t70 -100t25 -121q0 -174 -97 -282t-288 -120l238 -575h-53zM344 625h397q176 0 273 94q96 94 96 250q0 57 -20 107t-59 86q-38 36 -92 57
q-54 20 -120 20h-366z" />
    <glyph glyph-name="rcaron" unicode="&#x159;" horiz-adv-x="593" 
d="M330 1300h55l133 -182l197 182h65l-245 -225h-41zM713 911l-8 -51h-62q-61 0 -120 -26q-58 -27 -107 -74t-85 -115t-50 -147l-86 -498h-52l158 901h41l-20 -168h10q29 49 76 88q39 35 99 63t144 27h62z" />
    <glyph glyph-name="Sacute" unicode="&#x15a;" horiz-adv-x="1024" 
d="M883 1690h86l-215 -246h-39zM299 979q0 74 33 134t88 101t130 64t161 22q74 0 136 -24q62 -25 108 -68t73 -100t27 -121v-24h-51v16q0 57 -21 106q-20 49 -59 86t-96 58q-56 20 -126 20q-80 0 -144 -20q-65 -20 -111 -57q-46 -36 -70 -83q-25 -48 -25 -106q0 -74 46 -125
t116 -91t151 -76t150 -81q70 -45 116 -104t46 -148q0 -180 -118 -274t-329 -94q-86 0 -155 23q-70 24 -119 67t-76 103t-26 134v21q0 6 2 10h51v-22q0 -139 87 -212t245 -73q186 0 285 81t100 228q0 80 -46 134t-116 97q-70 42 -151 78q-81 37 -150 80q-70 43 -116 100
q-46 56 -46 140z" />
    <glyph glyph-name="sacute" unicode="&#x15b;" horiz-adv-x="808" 
d="M719 1311h86l-215 -246h-39zM752 246q0 -66 -25 -113t-67 -80t-99 -48t-123 -15q-68 0 -122 19t-94 51t-61 75q-22 43 -22 92v27q0 8 2 12h54v-30q0 -88 66 -142q67 -53 190 -53q117 0 184 54q68 54 67 141q0 61 -35 101q-36 40 -88 69t-115 51q-62 23 -115 51
q-52 29 -88 67q-36 39 -36 101q0 98 78 167t225 68q68 0 121 -19t90 -51t57 -76q19 -44 19 -93q0 -4 -1 -9t-1 -10v-8h-49v23q0 92 -66 142t-178 50q-123 0 -183 -53t-61 -121q0 -53 35 -87t88 -59q53 -26 115 -50q61 -24 115 -54q53 -31 88 -76q35 -44 35 -114z" />
    <glyph glyph-name="Scedilla" unicode="&#x15e;" horiz-adv-x="1024" 
d="M299 979q0 74 33 134.5t88 101t130 63t161 22.5q74 0 136 -24.5t108 -67.5t73 -100t27 -121v-24h-51v16q0 57 -20.5 106.5t-59.5 86t-95.5 57t-126.5 20.5q-80 0 -144 -20.5t-110.5 -56t-71 -84t-24.5 -105.5q0 -74 46 -125t116 -91t150.5 -76t150.5 -81t116 -104.5
t46 -147.5q0 -170 -104.5 -263t-294.5 -103l-50 -78q47 0 80 -30.5t33 -78.5q0 -59 -40 -96t-126 -37q-37 0 -57 6q-12 2 -23 7l8 39q10 -4 23 -7q10 -2 24.5 -3t32.5 -1q59 0 83 24.5t24 59.5t-20.5 57.5t-71.5 22.5q-20 0 -37 -4q-8 -2 -12 -2l75 119q-174 2 -272 92
t-98 235v21q0 6 2 10h51v-22q0 -139 87 -212t245 -73q186 0 285.5 81t99.5 228q0 80 -46.5 134.5t-116 96.5t-150.5 78.5t-150.5 79.5t-115.5 99.5t-46 140.5z" />
    <glyph glyph-name="scedilla" unicode="&#x15f;" horiz-adv-x="808" 
d="M752 246q0 -61 -22.5 -108.5t-61.5 -79t-93.5 -49t-115.5 -19.5l-49 -76q47 0 79.5 -30.5t32.5 -78.5q0 -59 -40 -96t-126 -37q-37 0 -57 6q-12 2 -23 7l9 39q10 -4 22 -7q10 -2 24.5 -3t33.5 -1q59 0 82.5 24.5t23.5 59.5t-20.5 57.5t-71.5 22.5q-20 0 -37 -4
q-8 -2 -12 -2l76 121q-121 8 -194 75.5t-73 159.5v27q0 8 2 12h54v-30q0 -88 66.5 -141.5t189.5 -53.5q117 0 184 54.5t67 140.5q0 61 -35.5 101t-88 68.5t-115 51t-114.5 51.5t-88 67.5t-36 100.5q0 98 78 166.5t225 68.5q68 0 121 -19.5t90 -51t56.5 -75.5t19.5 -93
q0 -4 -1 -9.5t-1 -9.5v-8h-49v23q0 92 -65.5 142t-178.5 50q-123 0 -183.5 -53t-60.5 -121q0 -53 35 -87t88.5 -59.5t114.5 -49t114.5 -54t88.5 -75.5t35 -115z" />
    <glyph glyph-name="Scaron" unicode="&#x160;" horiz-adv-x="1024" 
d="M551 1669h55l133 -182l197 182h65l-245 -225h-41zM299 979q0 74 33 134t88 101t130 64t161 22q74 0 136 -24q62 -25 108 -68t73 -100t27 -121v-24h-51v16q0 57 -21 106q-20 49 -59 86t-96 58q-56 20 -126 20q-80 0 -144 -20q-65 -20 -111 -57q-46 -36 -70 -83
q-25 -48 -25 -106q0 -74 46 -125t116 -91t151 -76t150 -81q70 -45 116 -104t46 -148q0 -180 -118 -274t-329 -94q-86 0 -155 23q-70 24 -119 67t-76 103t-26 134v21q0 6 2 10h51v-22q0 -139 87 -212t245 -73q186 0 285 81t100 228q0 80 -46 134t-116 97q-70 42 -151 78
q-81 37 -150 80q-70 43 -116 100q-46 56 -46 140z" />
    <glyph glyph-name="scaron" unicode="&#x161;" horiz-adv-x="808" 
d="M387 1300h55l133 -182l197 182h66l-246 -225h-41zM752 246q0 -66 -25 -113t-67 -80t-99 -48t-123 -15q-68 0 -122 19t-94 51t-61 75q-22 43 -22 92v27q0 8 2 12h54v-30q0 -88 66 -142q67 -53 190 -53q117 0 184 54q68 54 67 141q0 61 -35 101q-36 40 -88 69t-115 51
q-62 23 -115 51q-52 29 -88 67q-36 39 -36 101q0 98 78 167t225 68q68 0 121 -19t90 -51t57 -76q19 -44 19 -93q0 -4 -1 -9t-1 -10v-8h-49v23q0 92 -66 142t-178 50q-123 0 -183 -53t-61 -121q0 -53 35 -87t88 -59q53 -26 115 -50q61 -24 115 -54q53 -31 88 -76
q35 -44 35 -114z" />
    <glyph glyph-name="uni0162" unicode="&#x162;" horiz-adv-x="993" 
d="M430 -213q0 20 13 35q13 14 34 14q47 0 47 -61q0 -43 -20 -80t-45 -66q-29 -33 -64 -61l-12 12q23 23 41 49q16 23 30 52q13 29 17 63q-16 2 -29 14q-12 13 -12 29zM1149 1239h-410l-217 -1239h-51l217 1239h-409l10 51h870z" />
    <glyph glyph-name="uni0163" unicode="&#x163;" horiz-adv-x="604" 
d="M287 -213q0 20 13 35q13 14 34 14q47 0 47 -61q0 -43 -21 -80q-20 -37 -45 -66q-29 -33 -63 -61l-12 12q23 23 41 49q16 23 29 52t18 63q-16 2 -29 14q-12 13 -12 29zM375 850h-185l9 51h98q47 0 70 18q23 17 30 64l33 184h51l-47 -266h236l-8 -51h-236l-107 -600
q-18 -100 22 -155q40 -54 126 -54q16 0 27 1q10 1 20 3q8 2 18 4l-8 -49q-10 -4 -18 -6q-10 -2 -21 -3q-10 -1 -26 -1q-88 0 -143 53q-54 53 -54 147q0 29 6 60z" />
    <glyph glyph-name="Tcaron" unicode="&#x164;" horiz-adv-x="993" 
d="M545 1669h55l133 -182l197 182h65l-245 -225h-41zM1149 1239h-410l-217 -1239h-51l217 1239h-409l10 51h870z" />
    <glyph glyph-name="tcaron" unicode="&#x165;" horiz-adv-x="665" 
d="M842 1290h84l-158 -246h-43zM375 850h-185l9 51h98q47 0 69.5 17.5t30.5 64.5l33 184h51l-47 -266h236l-8 -51h-236l-107 -600q-18 -100 22 -154.5t126 -54.5q16 0 26.5 1t20.5 3q8 2 18 4l-8 -49q-10 -4 -18 -6q-10 -2 -20.5 -3t-26.5 -1q-88 0 -142.5 53t-54.5 147
q0 29 6 60z" />
    <glyph glyph-name="Umacron" unicode="&#x16a;" horiz-adv-x="1249" 
d="M1114 1505h-471l10 51h471zM647 -10q-180 0 -288 104t-107 295q0 59 12 125l137 776h52l-138 -776q-12 -66 -12 -121q0 -170 93 -261t259 -91q182 0 297 106t156 334l143 809h52l-144 -809q-45 -256 -172 -373q-127 -118 -340 -118z" />
    <glyph glyph-name="umacron" unicode="&#x16b;" horiz-adv-x="1013" 
d="M930 1137h-471l10 51h471zM520 -10q-68 0 -125 21q-57 22 -100 64t-67 100t-23 132q0 20 2 41q2 20 6 43l88 510h51l-88 -510q-4 -23 -6 -42t-2 -38q0 -127 73 -198q73 -72 199 -72q70 0 131 29t109 80q47 51 79 118q32 68 46 148l84 485h51l-158 -901h-41l21 168h-10
q-31 -51 -76 -90q-39 -35 -98 -62q-60 -26 -146 -26z" />
    <glyph glyph-name="Uring" unicode="&#x16e;" horiz-adv-x="1249" 
d="M907 1741q63 0 107 -43q43 -43 43 -101q0 -80 -52 -132t-133 -52q-63 0 -106 43t-43 100q0 80 52 133q52 52 132 52zM883 1464q47 0 85 32t38 89q0 47 -29 76t-80 29q-47 0 -85 -32t-38 -89q0 -47 29 -76t80 -29zM647 -10q-180 0 -288 104t-107 295q0 59 12 125l137 776
h52l-138 -776q-12 -66 -12 -121q0 -170 93 -261t259 -91q182 0 297 106t156 334l143 809h52l-144 -809q-45 -256 -172 -373q-127 -118 -340 -118z" />
    <glyph glyph-name="uring" unicode="&#x16f;" horiz-adv-x="1013" 
d="M721 1372q63 0 106 -43t43 -100q0 -80 -52 -132t-132 -53q-63 0 -106 43t-43 101q0 80 52 132t132 52zM696 1096q47 0 85 31q38 32 38 90q0 47 -28 75q-29 29 -80 29q-47 0 -85 -32t-38 -89q0 -47 28 -76q29 -28 80 -28zM520 -10q-68 0 -125 21q-57 22 -100 64t-67 100
t-23 132q0 20 2 41q2 20 6 43l88 510h51l-88 -510q-4 -23 -6 -42t-2 -38q0 -127 73 -198q73 -72 199 -72q70 0 131 29t109 80q47 51 79 118q32 68 46 148l84 485h51l-158 -901h-41l21 168h-10q-31 -51 -76 -90q-39 -35 -98 -62q-60 -26 -146 -26z" />
    <glyph glyph-name="Uhungarumlaut" unicode="&#x170;" horiz-adv-x="1249" 
d="M893 1690h86l-238 -246h-36zM1139 1690h86l-238 -246h-37zM647 -10q-180 0 -288 104t-107 295q0 59 12 125l137 776h52l-138 -776q-12 -66 -12 -121q0 -170 93 -261t259 -91q182 0 297 106t156 334l143 809h52l-144 -809q-45 -256 -172 -373q-127 -118 -340 -118z" />
    <glyph glyph-name="uhungarumlaut" unicode="&#x171;" horiz-adv-x="1013" 
d="M719 1321h86l-238 -246h-37zM965 1321h86l-238 -246h-37zM520 -10q-68 0 -125 21q-57 22 -100 64t-67 100t-23 132q0 20 2 41q2 20 6 43l88 510h51l-88 -510q-4 -23 -6 -42t-2 -38q0 -127 73 -198q73 -72 199 -72q70 0 131 29t109 80q47 51 79 118q32 68 46 148l84 485
h51l-158 -901h-41l21 168h-10q-31 -51 -76 -90q-39 -35 -98 -62q-60 -26 -146 -26z" />
    <glyph glyph-name="Uogonek" unicode="&#x172;" horiz-adv-x="1249" 
d="M1159 481q-43 -246 -161.5 -363.5t-317.5 -125.5q-12 -10 -31.5 -27.5t-39 -41t-34 -51.5t-14.5 -58q0 -90 105 -90q18 0 39 4l16 4l-10 -51q-8 -2 -17 -5q-20 -4 -39 -4q-68 0 -107.5 38t-39.5 93q0 35 12 65t30.5 54.5t37 41t30.5 26.5q-168 8 -267 112.5t-99 286.5
q0 57 12 125l137 776h52l-138 -776q-12 -66 -12 -121q0 -170 93 -261t259 -91q182 0 297 106.5t156 333.5l143 809h52l-144 -809v0z" />
    <glyph glyph-name="uogonek" unicode="&#x173;" horiz-adv-x="1013" 
d="M520 -10q-68 0 -125 21.5t-100 63.5t-66.5 100t-23.5 132q0 20 2 41t6 43l88 510h51l-88 -510q-4 -23 -6 -42t-2 -38q0 -127 72.5 -198.5t199.5 -71.5q70 0 131.5 28.5t108.5 80t79 119t46 147.5l84 485h51l-158 -901q-39 -27 -67 -57q-25 -27 -45.5 -61t-20.5 -68
q0 -90 105 -90q18 0 39 4l16 4l-10 -51q-8 -2 -17 -5q-20 -4 -39 -4q-68 0 -107.5 38t-39.5 93q0 41 20.5 77t47 64.5t50 46t29.5 21.5l19 156h-10q-31 -51 -76 -90q-39 -35 -98.5 -61.5t-145.5 -26.5z" />
    <glyph glyph-name="Ydieresis" unicode="&#x178;" horiz-adv-x="1054" 
d="M582 1536q0 23 14 37t37 14q18 0 31 -12q12 -12 12 -29q0 -23 -14 -37t-37 -14q-18 0 -31 12q-12 13 -12 29zM879 1536q0 23 14 37t37 14q18 0 31 -12q12 -12 12 -29q0 -23 -15 -37q-14 -14 -36 -14q-18 0 -31 12q-12 13 -12 29zM272 1290h56l276 -700h10l527 700h63
l-577 -768l-90 -522h-52l90 522z" />
    <glyph glyph-name="Zacute" unicode="&#x179;" horiz-adv-x="983" 
d="M872 1690h86l-215 -246h-38zM340 1290h788l-4 -30l-954 -1209h739l-8 -51h-819l4 31l954 1208h-710z" />
    <glyph glyph-name="zacute" unicode="&#x17a;" horiz-adv-x="788" 
d="M715 1321h86l-215 -246h-39zM786 850h-544l8 51h624l-4 -31l-710 -819h565l-8 -51h-645l4 31z" />
    <glyph glyph-name="Zdotaccent" unicode="&#x17b;" horiz-adv-x="983" 
d="M711 1536q0 23 14 37t37 14q18 0 31 -12q12 -12 12 -29q0 -23 -14 -37t-37 -14q-18 0 -31 12q-12 13 -12 29zM340 1290h788l-4 -30l-954 -1209h739l-8 -51h-819l4 31l954 1208h-710z" />
    <glyph glyph-name="zdotaccent" unicode="&#x17c;" horiz-adv-x="788" 
d="M551 1167q0 23 14 37t37 15q18 0 31 -13q12 -12 12 -28q0 -23 -14 -37t-37 -15q-18 0 -31 13q-12 12 -12 28zM786 850h-544l8 51h624l-4 -31l-710 -819h565l-8 -51h-645l4 31z" />
    <glyph glyph-name="Zcaron" unicode="&#x17d;" horiz-adv-x="983" 
d="M557 1669h55l133 -182l197 182h66l-246 -225h-41zM340 1290h788l-4 -30l-954 -1209h739l-8 -51h-819l4 31l954 1208h-710z" />
    <glyph glyph-name="zcaron" unicode="&#x17e;" horiz-adv-x="788" 
d="M383 1300h55l133 -182l197 182h66l-246 -225h-41zM786 850h-544l8 51h624l-4 -31l-710 -819h565l-8 -51h-645l4 31z" />
    <glyph glyph-name="florin" unicode="&#x192;" horiz-adv-x="542" 
d="M379 707l-123 -666q-39 -207 -116 -293t-191 -86q-16 0 -28.5 1t-22.5 3t-21 6l10 52q10 -4 21 -7q10 -2 20.5 -3t20.5 -1q92 0 156.5 72t99.5 256l123 666h-154l10 51h154l31 164q39 207 115.5 292.5t191.5 85.5q16 0 28.5 -2t22.5 -4t21 -4l-11 -51q-8 2 -18 4t-21.5 4
t-21.5 2q-92 0 -156.5 -71.5t-99.5 -255.5l-31 -164h225l-10 -51h-225z" />
    <glyph glyph-name="uni0218" unicode="&#x218;" horiz-adv-x="1024" 
d="M461 -193q0 20 13 35q13 14 34 15q47 0 47 -62q0 -43 -20 -80t-46 -65q-29 -33 -63 -62l-12 13q23 23 41 49q16 23 29 51q13 29 18 63q-16 2 -29 15q-12 12 -12 28zM299 979q0 74 33 134t88 101t130 64t161 22q74 0 136 -24q62 -25 108 -68t73 -100t27 -121v-24h-51v16
q0 57 -21 106q-20 49 -59 86t-96 58q-56 20 -126 20q-80 0 -144 -20q-65 -20 -111 -57q-46 -36 -70 -83q-25 -48 -25 -106q0 -74 46 -125t116 -91t151 -76t150 -81q70 -45 116 -104t46 -148q0 -180 -118 -274t-329 -94q-86 0 -155 23q-70 24 -119 67t-76 103t-26 134v21
q0 6 2 10h51v-22q0 -139 87 -212t245 -73q186 0 285 81t100 228q0 80 -46 134t-116 97q-70 42 -151 78q-81 37 -150 80q-70 43 -116 100q-46 56 -46 140z" />
    <glyph glyph-name="uni0219" unicode="&#x219;" horiz-adv-x="808" 
d="M348 -213q0 20 13 35q13 14 34 14q47 0 47 -61q0 -43 -20 -80t-45 -66q-29 -33 -64 -61l-12 12q23 23 41 49q16 23 30 52q13 29 17 63q-16 2 -29 14q-12 13 -12 29zM752 246q0 -66 -25 -113t-67 -80t-99 -48t-123 -15q-68 0 -122 19t-94 51t-61 75q-22 43 -22 92v27
q0 8 2 12h54v-30q0 -88 66 -142q67 -53 190 -53q117 0 184 54q68 54 67 141q0 61 -35 101q-36 40 -88 69t-115 51q-62 23 -115 51q-52 29 -88 67q-36 39 -36 101q0 98 78 167t225 68q68 0 121 -19t90 -51t57 -76q19 -44 19 -93q0 -4 -1 -9t-1 -10v-8h-49v23q0 92 -66 142
t-178 50q-123 0 -183 -53t-61 -121q0 -53 35 -87t88 -59q53 -26 115 -50q61 -24 115 -54q53 -31 88 -76q35 -44 35 -114z" />
    <glyph glyph-name="uni021A" unicode="&#x21a;" horiz-adv-x="993" 
d="M430 -213q0 20 13 35q13 14 34 14q47 0 47 -61q0 -43 -20 -80t-45 -66q-29 -33 -64 -61l-12 12q23 23 41 49q16 23 30 52q13 29 17 63q-16 2 -29 14q-12 13 -12 29zM1149 1239h-410l-217 -1239h-51l217 1239h-409l10 51h870z" />
    <glyph glyph-name="uni021B" unicode="&#x21b;" horiz-adv-x="604" 
d="M287 -213q0 20 13 35q13 14 34 14q47 0 47 -61q0 -43 -21 -80q-20 -37 -45 -66q-29 -33 -63 -61l-12 12q23 23 41 49q16 23 29 52t18 63q-16 2 -29 14q-12 13 -12 29zM375 850h-185l9 51h98q47 0 70 18q23 17 30 64l33 184h51l-47 -266h236l-8 -51h-236l-107 -600
q-18 -100 22 -155q40 -54 126 -54q16 0 27 1q10 1 20 3q8 2 18 4l-8 -49q-10 -4 -18 -6q-10 -2 -21 -3q-10 -1 -26 -1q-88 0 -143 53q-54 53 -54 147q0 29 6 60z" />
    <glyph glyph-name="uni02BC" unicode="&#x2bc;" horiz-adv-x="245" 
d="M309 1241q0 20 13.5 34.5t33.5 14.5q47 0 47 -61q0 -43 -20.5 -80t-44.5 -66q-29 -33 -64 -61l-12 12q23 23 41 49q16 23 29.5 51.5t17.5 63.5q-16 2 -28.5 14.5t-12.5 28.5z" />
    <glyph glyph-name="circumflex" unicode="&#x2c6;" horiz-adv-x="573" 
d="M694 1044h-55l-133 183l-197 -183h-65l245 226h41z" />
    <glyph glyph-name="caron" unicode="&#x2c7;" horiz-adv-x="573" 
d="M285 1270h55l133 -183l197 183h65l-246 -226h-40z" />
    <glyph glyph-name="breve" unicode="&#x2d8;" horiz-adv-x="573" 
d="M494 1106q61 0 112 41t64 102h51q-14 -86 -81 -140t-155 -54q-43 0 -79.5 16t-63.5 43t-41 61.5t-10 73.5h51q-2 -61 40 -102t112 -41z" />
    <glyph glyph-name="dotaccent" unicode="&#x2d9;" horiz-adv-x="215" 
d="M274 1208q0 23 14.5 37.5t37.5 14.5q18 0 30.5 -12.5t12.5 -28.5q0 -23 -14.5 -37.5t-37.5 -14.5q-18 0 -30.5 12.5t-12.5 28.5z" />
    <glyph glyph-name="ring" unicode="&#x2da;" horiz-adv-x="450" 
d="M451 1352q63 0 106 -43t43 -101q0 -80 -52 -132t-132 -52q-63 0 -106.5 43t-43.5 100q0 80 52.5 132.5t132.5 52.5zM426 1075q47 0 85 32t38 89q0 47 -28.5 75.5t-80.5 28.5q-47 0 -85 -31.5t-38 -88.5q0 -47 29 -76t80 -29z" />
    <glyph glyph-name="ogonek" unicode="&#x2db;" horiz-adv-x="348" 
d="M213 0q-39 -27 -68 -57q-25 -27 -45 -61t-20 -68q0 -90 104 -90q18 0 39 4q8 2 17 4l-11 -51q-8 -2 -16 -5q-20 -4 -39 -4q-68 0 -107.5 38t-39.5 93q0 43 19.5 79t41.5 63q27 31 64 55h61z" />
    <glyph glyph-name="tilde" unicode="&#x2dc;" horiz-adv-x="645" 
d="M645 1126q39 0 69.5 27t37.5 96h51q-10 -92 -56.5 -133t-107.5 -41q-39 0 -67.5 20.5t-54 46t-50.5 46t-57 20.5q-39 0 -70 -26.5t-37 -96.5h-51q10 92 56 133.5t108 41.5q39 0 67.5 -20.5t54 -46.5t50 -46.5t57.5 -20.5z" />
    <glyph glyph-name="hungarumlaut" unicode="&#x2dd;" horiz-adv-x="593" 
d="M432 1290h86l-237 -246h-37zM678 1290h86l-238 -246h-37z" />
    <glyph glyph-name="uni0401" unicode="&#x401;" horiz-adv-x="1054" 
d="M623 1536q0 23 14 37t37 14q18 0 31 -12q12 -12 12 -29q0 -23 -15 -37q-14 -14 -36 -14q-18 0 -31 12q-12 13 -12 29zM920 1536q0 23 14 37t37 14q18 0 30 -12t13 -29q0 -23 -15 -37q-14 -14 -36 -14q-18 0 -31 12q-12 13 -12 29zM961 51l-9 -51h-768l228 1290h747
l-10 -51h-696l-97 -543h645l-8 -51h-645l-104 -594h717z" />
    <glyph glyph-name="uni0402" unicode="&#x402;" horiz-adv-x="1259" 
d="M1225 469q0 -115 -38 -210t-106.5 -168t-165 -117t-215.5 -56l11 51q92 8 176 45t146.5 99.5t100 149.5t37.5 196q0 150 -80.5 234.5t-226.5 84.5q-82 0 -148.5 -29.5t-116.5 -81t-83 -122t-47 -150.5l-70 -395h-51l217 1239h-348l10 51h758l-10 -51h-359l-104 -594h10
q31 51 80 92q41 35 107.5 63.5t162.5 28.5q76 0 140.5 -27.5t111.5 -75.5t74 -113.5t27 -143.5z" />
    <glyph glyph-name="uni0403" unicode="&#x403;" horiz-adv-x="901" 
d="M903 1690h86l-215 -246h-39zM453 1239l-217 -1239h-52l228 1290h696l-10 -51h-645z" />
    <glyph glyph-name="uni0404" unicode="&#x404;" horiz-adv-x="1310" 
d="M213 545q0 143 49 278t137 241.5t211 171t273 64.5q92 0 171 -32.5t140 -90t104 -136t62 -171.5h-55q-37 168 -147.5 273.5t-283.5 105.5q-117 0 -217 -47t-179 -127t-131 -183.5t-71 -215.5h590l-10 -51h-586q-2 -10 -2 -21q-2 -10 -2 -21.5v-25.5q0 -111 35 -206
t96.5 -163.5t144.5 -107.5t181 -39q92 0 172 28.5t147.5 80t119.5 121t87 149.5h58q-41 -92 -97.5 -170t-130 -136.5t-165 -91t-199.5 -32.5q-102 0 -193.5 43t-160 118.5t-108.5 176t-40 217.5z" />
    <glyph glyph-name="uni0405" unicode="&#x405;" horiz-adv-x="1024" 
d="M299 979q0 74 33 134t88 101t130 64t161 22q74 0 136 -24q62 -25 108 -68t73 -100t27 -121v-24h-51v16q0 57 -21 106q-20 49 -59 86t-96 58q-56 20 -126 20q-80 0 -144 -20q-65 -20 -111 -57q-46 -36 -70 -83q-25 -48 -25 -106q0 -74 46 -125t116 -91t151 -76t150 -81
q70 -45 116 -104t46 -148q0 -180 -118 -274t-329 -94q-86 0 -155 23q-70 24 -119 67t-76 103t-26 134v21q0 6 2 10h51v-22q0 -139 87 -212t245 -73q186 0 285 81t100 228q0 80 -46 134t-116 97q-70 42 -151 78q-81 37 -150 80q-70 43 -116 100q-46 56 -46 140z" />
    <glyph glyph-name="uni0406" unicode="&#x406;" horiz-adv-x="419" 
d="M236 0h-52l228 1290h51z" />
    <glyph glyph-name="uni0407" unicode="&#x407;" horiz-adv-x="419" 
d="M276 1536q0 23 15 37q14 14 37 14q18 0 30 -12t13 -29q0 -23 -15 -37q-14 -14 -37 -14q-18 0 -30 12q-13 13 -13 29zM573 1536q0 23 15 37q14 14 37 14q18 0 30 -12t13 -29q0 -23 -15 -37q-14 -14 -37 -14q-18 0 -30 12q-13 13 -13 29zM236 0h-52l228 1290h51z" />
    <glyph glyph-name="uni0408" unicode="&#x408;" horiz-adv-x="983" 
d="M1036 1290l-157 -893q-37 -211 -145 -309t-285 -98q-74 0 -136 21q-61 22 -104 61t-67 91t-23 111q0 27 2 37q0 8 2 17h49q-2 -6 -2 -15v-28q0 -106 75 -175t212 -69q305 0 370 356l158 893h51z" />
    <glyph glyph-name="uni0409" unicode="&#x409;" horiz-adv-x="1802" 
d="M1210 1290l-94 -532h307q76 0 140.5 -26.5t110.5 -73t72 -106.5t26 -130q0 -193 -118 -307.5t-335 -114.5h-387l217 1239h-555l-227 -895q-27 -104 -61 -173t-73.5 -108.5t-86 -56t-97.5 -16.5q-16 0 -27.5 1t-21.5 3t-20 6l8 41h59q43 0 81 14.5t71.5 49t62.5 95
t53 152.5l240 938h655zM1329 51q90 0 162 26.5t123 74t77.5 114t26.5 146.5q0 129 -82 212t-223 83h-307l-115 -656h338z" />
    <glyph glyph-name="uni040A" unicode="&#x40a;" horiz-adv-x="1812" 
d="M1124 737h293q84 0 151.5 -25.5t115 -69.5t73 -103.5t25.5 -126.5q0 -193 -118 -302.5t-335 -109.5h-387l121 686h-707l-120 -686h-52l228 1290h51l-98 -553h706l98 553h52zM1339 51q180 0 285 95.5t105 254.5q0 127 -82 206t-240 79h-293l-113 -635h338z" />
    <glyph glyph-name="uni040B" unicode="&#x40b;" horiz-adv-x="1310" 
d="M227 1290h758l-10 -51h-359l-104 -594h10q31 51 80 92q41 35 107.5 63.5t162.5 28.5q76 0 140.5 -25.5t111.5 -71.5t74 -111.5t27 -143.5q0 -20 -2 -39.5t-6 -42.5l-70 -395h-51l69 395q4 20 6.5 41t2.5 39q0 70 -23 126t-65 95t-98 60.5t-124 21.5q-78 0 -143.5 -28.5
t-116.5 -78.5t-86 -121t-49 -155l-70 -395h-51l217 1239h-348z" />
    <glyph glyph-name="uni040C" unicode="&#x40c;" 
d="M350 655l-114 -655h-52l228 1290h51l-113 -635l737 635h78l-741 -639l528 -651h-71zM903 1690h86l-215 -246h-39z" />
    <glyph glyph-name="uni040E" unicode="&#x40e;" horiz-adv-x="1013" 
d="M748 1475q61 0 112 41t64 102h51q-14 -86 -81 -140t-155 -55q-43 0 -80 17q-37 16 -63 43q-27 27 -41 61q-14 35 -10 74h51q-2 -61 40 -102t112 -41zM1176 1290l-674 -1085q-41 -63 -74 -107q-33 -43 -64 -69q-32 -27 -67 -38t-80 -11q-23 0 -40 4t-30 8q-14 6 -26 12
l8 51q12 -6 27 -12q12 -4 29 -8t40 -4q74 0 120 48t95 126l109 174l-285 911h53l265 -844h10l522 844h62z" />
    <glyph glyph-name="uni040F" unicode="&#x40f;" horiz-adv-x="1218" 
d="M1262 1290l-228 -1290h-399l-53 -297h-52l54 297h-400l228 1290h51l-219 -1239h747l219 1239h52z" />
    <glyph glyph-name="uni0410" unicode="&#x410;" horiz-adv-x="1146" 
d="M791 1290h40l265 -1290h-52l-73 358h-641l-199 -358h-59zM358 410h603l-162 790z" />
    <glyph glyph-name="uni0411" unicode="&#x411;" horiz-adv-x="1116" 
d="M412 1290h737l-10 -51h-686l-88 -502h360q80 0 145.5 -24.5t113.5 -68.5t73.5 -103.5t25.5 -128.5q0 -193 -119.5 -302.5t-342.5 -109.5h-437zM631 51q186 0 292.5 95.5t106.5 254.5q0 129 -84 207t-231 78h-359l-112 -635h387z" />
    <glyph glyph-name="uni0412" unicode="&#x412;" horiz-adv-x="1136" 
d="M870 690q61 -23 111 -61q41 -35 76 -89t35 -139q0 -90 -33 -164q-33 -75 -92 -127t-142 -81q-82 -29 -180 -29h-461l228 1290h409q72 0 130 -22q58 -23 100 -62q41 -39 63 -91q23 -52 23 -109q0 -96 -42 -158q-42 -61 -91 -96q-60 -42 -134 -62zM352 666l-108 -615h409
q84 0 155 26t122 71q51 46 80 107q29 60 28 132q0 121 -82 200t-233 79h-371zM360 717h369q76 0 140 21q65 22 113 60t76 89t27 110q0 100 -67 171q-68 71 -207 71h-358z" />
    <glyph glyph-name="uni0413" unicode="&#x413;" horiz-adv-x="901" 
d="M453 1239l-217 -1239h-52l228 1290h696l-10 -51h-645z" />
    <glyph glyph-name="uni0414" unicode="&#x414;" horiz-adv-x="1187" 
d="M-10 51h63q41 16 78 47q33 27 66.5 73t56.5 122l291 997h645l-219 -1239h164l-62 -348h-51l53 297h-1044l-51 -297h-52zM307 293q-23 -78 -51.5 -124t-54.5 -73q-31 -31 -62 -45h781l208 1188h-544z" />
    <glyph glyph-name="uni0415" unicode="&#x415;" horiz-adv-x="1054" 
d="M961 51l-9 -51h-768l228 1290h747l-10 -51h-696l-97 -543h645l-8 -51h-645l-104 -594h717z" />
    <glyph glyph-name="uni0416" unicode="&#x416;" horiz-adv-x="1433" 
d="M862 655l-114 -655h-52l228 1290h51l-113 -635l697 635h77l-702 -641l483 -649h-65zM811 655l-719 -655h-78l727 662l-469 628h66z" />
    <glyph glyph-name="uni0417" unicode="&#x417;" horiz-adv-x="1003" 
d="M264 963q16 76 55 138t94.5 107t125 68.5t149.5 23.5t144.5 -23.5t109.5 -63t68.5 -93t23.5 -112.5q0 -115 -46 -183.5t-99 -105.5q-66 -43 -146 -60q59 -16 107 -53q41 -31 73.5 -86t32.5 -145q0 -84 -29.5 -154.5t-88 -122t-142.5 -80t-192 -28.5q-84 0 -151.5 24.5
t-116 68.5t-75 103.5t-26.5 130.5v21q0 6 2 10h51v-20q0 -131 84 -209t240 -78q92 0 165 24.5t123 67.5t76.5 101.5t26.5 127.5q0 129 -75.5 201t-235.5 72h-82l10 51h82q82 0 151.5 21.5t121 61.5t79 97.5t27.5 128.5q0 117 -76 185.5t-225 68.5q-66 0 -125 -20.5
t-107.5 -58t-83 -91t-49.5 -116.5h-51z" />
    <glyph glyph-name="uni0418" unicode="&#x418;" horiz-adv-x="1228" 
d="M993 0l211 1182l-979 -1182h-41l228 1290h51l-211 -1181l979 1181h41l-228 -1290h-51z" />
    <glyph glyph-name="uni0419" unicode="&#x419;" horiz-adv-x="1228" 
d="M862 1495q72 0 123 43t64 111h51q-16 -96 -83 -151q-67 -54 -165 -54t-153 59q-54 59 -50 146h51q-2 -72 40 -113t122 -41zM993 0l211 1182l-979 -1182h-41l228 1290h51l-211 -1181l979 1181h41l-228 -1290h-51z" />
    <glyph glyph-name="uni041A" unicode="&#x41a;" 
d="M350 655l-114 -655h-52l228 1290h51l-113 -635l737 635h78l-741 -639l528 -651h-71z" />
    <glyph glyph-name="uni041B" unicode="&#x41b;" horiz-adv-x="1208" 
d="M1251 1290l-227 -1290h-51l217 1239h-596l-227 -895q-27 -104 -61 -173t-73.5 -108.5t-86 -56t-97.5 -16.5q-16 0 -27.5 1t-21.5 3t-20 6l8 41h59q43 0 81 14.5t71.5 49t62.5 95t53 152.5l240 938h696z" />
    <glyph glyph-name="uni041C" unicode="&#x41c;" horiz-adv-x="1515" 
d="M1487 1290h72l-228 -1290h-51l211 1198l-713 -1198h-41l-291 1198l-210 -1198h-52l228 1290h63l293 -1208z" />
    <glyph glyph-name="uni041D" unicode="&#x41d;" horiz-adv-x="1218" 
d="M463 1290l-107 -604h748l106 604h52l-228 -1290h-51l111 635h-748l-110 -635h-52l228 1290h51z" />
    <glyph glyph-name="uni041E" unicode="&#x41e;" horiz-adv-x="1372" 
d="M213 545q0 143 49 278t137 242q88 106 211 171t273 64q102 0 193 -43t160 -118q69 -76 109 -176t39 -218q0 -143 -49 -279t-137 -242q-88 -105 -211 -170t-272 -64q-102 0 -194 43q-91 43 -160 119t-108 176q-40 100 -40 217zM1331 733q0 111 -35 206t-96 164t-144 107
q-83 39 -182 39q-131 0 -242 -59q-112 -59 -193 -157q-81 -97 -127 -222t-46 -254q0 -111 35 -206t96 -164t145 -107q83 -39 181 -39q131 0 242 59t192 157q82 97 128 222t46 254z" />
    <glyph glyph-name="uni041F" unicode="&#x41f;" horiz-adv-x="1218" 
d="M1262 1290l-228 -1290h-51l217 1239h-747l-217 -1239h-52l228 1290h850z" />
    <glyph glyph-name="uni0420" unicode="&#x420;" horiz-adv-x="1064" 
d="M780 1290q76 0 141 -26q65 -27 110 -73q46 -46 72 -107q26 -60 25 -130q0 -193 -117 -307q-118 -115 -335 -115h-348l-92 -532h-52l228 1290h368zM686 584q90 0 162 26q72 27 123 74t78 114t26 146q0 129 -82 212t-223 83h-317l-115 -655h348z" />
    <glyph glyph-name="uni0421" unicode="&#x421;" horiz-adv-x="1310" 
d="M213 545q0 143 49 278t137 242q88 106 211 171t273 64q92 0 171 -32q79 -33 140 -90t104 -137q43 -79 62 -171h-55q-37 168 -148 274q-111 105 -283 105q-131 0 -242 -59q-112 -59 -193 -157q-81 -97 -127 -222t-46 -254q0 -111 35 -206t96 -164t145 -107q83 -39 181 -39
q92 0 172 29t147 80q68 51 120 120q52 70 87 150h58q-41 -92 -98 -170q-56 -78 -130 -136t-165 -91t-199 -33q-102 0 -194 43q-91 43 -160 119t-108 176q-40 100 -40 217z" />
    <glyph glyph-name="uni0422" unicode="&#x422;" horiz-adv-x="993" 
d="M1149 1239h-410l-217 -1239h-51l217 1239h-409l10 51h870z" />
    <glyph glyph-name="uni0423" unicode="&#x423;" horiz-adv-x="1013" 
d="M1176 1290l-674 -1085q-41 -63 -74 -106.5t-64.5 -70t-66.5 -37.5t-80 -11q-23 0 -40 4t-30 8q-14 6 -26 12l8 51q12 -6 27 -12q12 -4 29.5 -8t39.5 -4q74 0 120 48t95 126l109 174l-285 911h53l265 -844h10l522 844h62z" />
    <glyph glyph-name="uni0424" unicode="&#x424;" horiz-adv-x="1443" 
d="M725 164q-129 0 -227.5 34.5t-165 95t-99 139.5t-32.5 165q0 123 46 224.5t135 174t219 111.5t298 39l25 143h51l-25 -143q129 0 227.5 -36t164 -95.5t99.5 -138t34 -164.5q0 -123 -46.5 -224.5t-135.5 -174t-219 -111.5t-298 -39l-31 -174h-51zM1421 700q0 86 -28.5 158
t-88 125t-150.5 83t-214 30l-154 -881q154 0 273 35t199.5 99.5t121.5 153t41 197.5zM254 610q0 -86 28.5 -157.5t89 -125t150.5 -83t213 -29.5l154 881q-154 0 -272.5 -35t-198.5 -99.5t-122 -153.5t-42 -198z" />
    <glyph glyph-name="uni0425" unicode="&#x425;" horiz-adv-x="1024" 
d="M299 1290h57l277 -590l481 590h66l-523 -641l306 -649h-58l-284 604l-494 -604h-66l537 657z" />
    <glyph glyph-name="uni0426" unicode="&#x426;" horiz-adv-x="1239" 
d="M1241 1290l-219 -1239h164l-62 -348h-51l53 297h-942l228 1290h51l-219 -1239h727l219 1239h51z" />
    <glyph glyph-name="uni0427" unicode="&#x427;" horiz-adv-x="1157" 
d="M1200 1290l-227 -1290h-51l96 543q-43 -33 -96 -58q-47 -23 -113 -39t-147 -16q-166 0 -260.5 91t-94.5 247q0 23 2 46.5t6 47.5l76 428h51l-75 -428q-4 -25 -6.5 -47t-2.5 -45q0 -137 82 -213t230 -76q82 0 147.5 20.5t112.5 45.5q53 29 98 65l121 678h51z" />
    <glyph glyph-name="uni0428" unicode="&#x428;" horiz-adv-x="1669" 
d="M463 1290l-219 -1239h573l219 1239h51l-219 -1239h574l219 1239h51l-227 -1290h-1301l228 1290h51z" />
    <glyph glyph-name="uni0429" unicode="&#x429;" horiz-adv-x="1710" 
d="M1712 1290l-219 -1239h164l-62 -348h-51l53 297h-1413l228 1290h51l-219 -1239h573l219 1239h51l-219 -1239h574l219 1239h51z" />
    <glyph glyph-name="uni042A" unicode="&#x42a;" horiz-adv-x="1198" 
d="M512 758h307q76 0 140.5 -26.5t110.5 -73t71.5 -106.5t25.5 -130q0 -193 -117.5 -307.5t-334.5 -114.5h-387l217 1239h-328l10 51h379zM725 51q90 0 161.5 26.5t123 74t78 114t26.5 146.5q0 129 -82 212t-223 83h-307l-115 -656h338z" />
    <glyph glyph-name="uni042B" unicode="&#x42b;" horiz-adv-x="1423" 
d="M1415 1290h51l-227 -1290h-51zM369 758h307q76 0 140.5 -26.5t110.5 -73t71.5 -106.5t25.5 -130q0 -193 -118 -307.5t-335 -114.5h-387l228 1290h51zM582 51q90 0 161.5 26.5t123 74t78 114t26.5 146.5q0 129 -82 212t-223 83h-308l-114 -656h338z" />
    <glyph glyph-name="uni042C" unicode="&#x42c;" horiz-adv-x="1075" 
d="M369 758h327q76 0 140.5 -26.5t110.5 -73t71.5 -106.5t25.5 -130q0 -193 -117.5 -307.5t-334.5 -114.5h-408l228 1290h51zM602 51q90 0 162 26.5t123 74t77.5 114t26.5 146.5q0 129 -82 212t-223 83h-328l-114 -656h358z" />
    <glyph glyph-name="uni042D" unicode="&#x42d;" horiz-adv-x="1310" 
d="M682 676h586v18q0 8 1 18.5t1 20.5q0 111 -35 206t-96.5 163.5t-144.5 107.5t-181 39q-86 0 -163 -27.5t-141.5 -74.5t-115.5 -113.5t-88 -142.5h-57q39 88 95 162.5t128 130t159 86t191 30.5q102 0 193.5 -43t160 -118.5t108.5 -176t40 -217.5q0 -143 -49 -279
t-137 -241.5t-211 -170t-273 -64.5q-90 0 -165.5 30.5t-135 85t-100.5 129t-59 164.5h55q37 -160 142.5 -259t271.5 -99q117 0 218 48t180 129t131 186.5t71 220.5h-590z" />
    <glyph glyph-name="uni042E" unicode="&#x42e;" horiz-adv-x="1710" 
d="M1722 745q0 -143 -48 -279t-135 -241.5t-206 -170t-260 -64.5q-102 0 -190 43t-152.5 118.5t-101.5 176t-37 217.5v45q0 12 2 24h-252l-106 -614h-52l228 1290h51l-111 -624h248q18 125 73.5 240.5t139.5 202.5t192.5 139t235.5 52q102 0 190.5 -43t153 -118.5t101 -176
t36.5 -217.5zM645 557q0 -111 32 -206t89 -163.5t137 -107.5t178 -39q123 0 230.5 59.5t186.5 156.5t125 222t46 254q0 111 -31.5 206t-89 163.5t-137.5 107.5t-178 39q-123 0 -230.5 -59.5t-186.5 -156.5t-125 -222t-46 -254z" />
    <glyph glyph-name="uni042F" unicode="&#x42f;" horiz-adv-x="1116" 
d="M541 582q-117 25 -183.5 108.5t-66.5 192.5q0 88 30.5 163.5t87 129t135.5 84t175 30.5h440l-227 -1290h-51l100 573h-383l-442 -573h-64zM1098 1239h-389q-80 0 -147.5 -25.5t-116 -71.5t-76 -108.5t-27.5 -138.5q0 -125 79 -197.5t214 -72.5h354z" />
    <glyph glyph-name="uni0430" unicode="&#x430;" horiz-adv-x="921" 
d="M430 41q66 0 126 28t110 75q49 48 83 114t48 143l12 70h-123q-150 0 -247 -20t-154 -55q-57 -34 -80 -79t-23 -92q0 -84 63 -134q62 -50 185 -50zM594 911q61 0 115 -17q53 -17 93 -51t62 -84q23 -50 23 -116q0 -16 -2 -35q-2 -18 -6 -37l-101 -571h-41l19 168h-11
q-35 -51 -81 -90q-41 -35 -102 -62q-60 -27 -140 -26q-137 0 -214 64q-77 65 -77 159q0 63 26 120q26 56 90 98q65 42 173 67q109 25 274 24h123l10 49q4 18 7 37q2 18 2 35q0 96 -62 157q-61 60 -188 60q-117 0 -186 -48t-107 -157h-51q35 123 124 190q89 66 228 66z" />
    <glyph glyph-name="uni0431" unicode="&#x431;" horiz-adv-x="993" 
d="M270 637q35 63 88 117q47 43 117 79.5t168 36.5q72 0 134.5 -28.5t108.5 -78.5t72.5 -119t26.5 -146q0 -117 -38 -211t-101.5 -160t-145.5 -101.5t-168 -35.5q-72 0 -136 27.5t-111 81t-75 132t-28 183.5q0 29 4 68.5t11 80.5q27 197 85 330t158.5 219t249 129t357.5 59
l-9 -51q-184 -16 -318 -53t-226.5 -107.5t-147.5 -180t-86 -271.5h10zM541 41q72 0 142.5 30.5t125.5 89t89 140.5t34 184q0 74 -21.5 134.5t-60.5 105.5t-93.5 69.5t-121.5 24.5q-84 0 -155.5 -39t-124 -102.5t-82 -142t-29.5 -160.5q0 -80 22.5 -141.5t62.5 -104.5
t94.5 -65.5t117.5 -22.5z" />
    <glyph glyph-name="uni0432" unicode="&#x432;" horiz-adv-x="880" 
d="M678 465q41 -16 74 -41q29 -23 51 -59.5t22 -96.5q0 -119 -81.5 -193.5t-241.5 -74.5h-359l158 901h328q111 0 175 -61.5t64 -153.5q0 -72 -30.5 -114t-65.5 -66q-41 -29 -94 -41zM344 850l-63 -358h276q121 0 189.5 52t68.5 134q0 76 -45 124t-149 48h-277zM270 440
l-67 -389h307q131 0 196.5 59.5t65.5 145.5t-55 135t-154 49h-293z" />
    <glyph glyph-name="uni0433" unicode="&#x433;" horiz-adv-x="716" 
d="M846 850h-502l-149 -850h-52l158 901h553z" />
    <glyph glyph-name="uni0434" unicode="&#x434;" horiz-adv-x="972" 
d="M940 51l-51 -287h-51l43 236h-840l-41 -236h-51l51 287h66q33 16 63 45q27 25 53.5 68t46.5 108l183 629h524l-150 -850h154zM281 272q-20 -66 -44 -108.5t-47 -67.5q-25 -29 -51 -45h596l142 799h-426z" />
    <glyph glyph-name="uni0435" unicode="&#x435;" horiz-adv-x="1003" 
d="M539 41q98 0 187 44t148 130h62q-70 -109 -176 -167t-230 -58q-74 0 -139 29q-66 30 -117 82t-80 123q-30 71 -30 155q0 121 41 219t109 168q69 70 157 107q88 38 180 38q74 0 137 -29q63 -30 112 -82q48 -52 76 -124t28 -154q0 -16 -3 -32q-2 -15 -6 -29q-4 -16 -8 -31
h-770q-2 -6 -2 -14v-27q0 -78 26 -141t68 -110q43 -46 103 -71q59 -26 127 -26zM643 860q-72 0 -140 -27q-69 -28 -126 -78t-98 -120t-56 -154h727v13q0 4 1 9t1 9q0 78 -22 141q-23 63 -65 110q-42 46 -98 72q-56 25 -124 25z" />
    <glyph glyph-name="uni0436" unicode="&#x436;" horiz-adv-x="1146" 
d="M762 901l-76 -430l496 430h75l-501 -436l374 -465h-65l-379 471l-82 -471h-51l158 901h51zM92 0h-76l549 477l-340 424h66l344 -430z" />
    <glyph glyph-name="uni0437" unicode="&#x437;" horiz-adv-x="788" 
d="M584 461q41 -14 73 -41q29 -23 52.5 -60.5t23.5 -95.5q0 -133 -89 -203.5t-236 -70.5q-63 0 -116.5 19.5t-91.5 51t-59.5 74.5t-21.5 92v25q0 8 2 14h51v-20q0 -92 63.5 -148.5t180.5 -56.5q127 0 195.5 56.5t68.5 154.5q0 82 -56.5 135t-168.5 53h-82l10 52h72
q135 0 208.5 54t73.5 142q0 72 -54 122t-173 50q-100 0 -172 -49t-92 -135h-51q6 49 33.5 92t69.5 74.5t98.5 50t121.5 18.5q66 0 116 -17t85 -47t52 -69t17 -82q0 -76 -31.5 -122t-70.5 -70q-45 -31 -102 -43z" />
    <glyph glyph-name="uni0438" unicode="&#x438;" horiz-adv-x="1003" 
d="M1018 901l-158 -901h-51l141 803l-766 -803h-41l158 901h51l-143 -803l768 803h41z" />
    <glyph glyph-name="uni0439" unicode="&#x439;" horiz-adv-x="1003" 
d="M688 1126q61 0 113 41q51 41 63 103h51q-14 -86 -80 -141q-67 -54 -155 -54q-43 0 -80 17q-37 16 -63 43q-27 27 -41 61q-14 35 -11 74h52q-2 -61 40 -103q41 -41 111 -41zM1018 901l-158 -901h-51l141 803l-766 -803h-41l158 901h51l-143 -803l768 803h41z" />
    <glyph glyph-name="uni043A" unicode="&#x43a;" horiz-adv-x="798" 
d="M276 471l-81 -471h-52l158 901h51l-76 -430l558 430h75l-561 -434l436 -467h-67z" />
    <glyph glyph-name="uni043B" unicode="&#x43b;" horiz-adv-x="952" 
d="M967 901l-158 -901h-51l149 850h-454l-146 -561q-25 -90 -51.5 -148.5t-58 -92.5t-67.5 -46t-79 -12q-12 0 -22.5 1t-20.5 3t-18 6l8 41h59q31 0 58.5 11t52.5 41t46.5 79t41.5 127l158 602h553z" />
    <glyph glyph-name="uni043C" unicode="&#x43c;" horiz-adv-x="1167" 
d="M563 0l-227 809l-141 -809h-52l158 901h61l234 -829l524 829h62l-158 -901h-51l141 809l-510 -809h-41z" />
    <glyph glyph-name="uni043D" unicode="&#x43d;" horiz-adv-x="993" 
d="M1008 901l-158 -901h-51l75 430h-604l-75 -430h-52l158 901h51l-73 -420h604l73 420h52z" />
    <glyph glyph-name="uni043E" unicode="&#x43e;" horiz-adv-x="1024" 
d="M651 911q74 0 140 -29q66 -30 116 -82q51 -52 81 -124t30 -154q0 -121 -41 -219t-110 -168t-156 -107q-88 -38 -181 -38q-74 0 -139 29q-66 30 -117 82t-80 123q-30 71 -30 155q0 121 41 219t109 168q69 70 157 107q88 38 180 38zM539 41q80 0 157 35q78 35 138 97
q59 62 96 149q37 86 37 190q0 78 -26 141t-69 110q-43 46 -102 72t-127 25q-80 0 -158 -35t-137 -97t-96 -148t-37 -191q0 -78 26 -141t68 -110q43 -46 103 -71q59 -26 127 -26z" />
    <glyph glyph-name="uni043F" unicode="&#x43f;" horiz-adv-x="993" 
d="M1008 901l-158 -901h-51l149 850h-604l-149 -850h-52l158 901h707z" />
    <glyph glyph-name="uni0440" unicode="&#x440;" horiz-adv-x="1075" 
d="M301 901h41l-29 -215h11q41 61 96 113q47 41 119 77t163 35q74 0 140 -29q66 -30 116 -82q51 -52 81 -124t30 -154q0 -121 -41 -219t-109 -168q-69 -70 -157 -107q-88 -38 -180 -38q-100 0 -165 35t-104 75q-45 49 -71 111h-11l-96 -539h-51zM590 41q80 0 158 35t137 97
t96 149q37 86 37 190q0 78 -26 141t-68 110q-43 46 -103 72q-59 26 -127 25q-80 0 -156 -41q-77 -41 -138 -110q-60 -70 -97 -163t-37 -196q0 -74 26 -131t69 -97q44 -40 103 -61q58 -20 126 -20z" />
    <glyph glyph-name="uni0441" unicode="&#x441;" horiz-adv-x="972" 
d="M539 41q121 0 215 65q94 66 149 181h55q-61 -141 -177 -219t-251 -78q-74 0 -139 29q-66 30 -117 82t-80 123q-30 71 -30 155q0 121 41 219t109 168q69 70 157 107q88 38 180 38q66 0 123 -22q57 -23 104 -64q46 -41 76 -97q31 -56 45 -124h-53q-25 117 -105 187
q-81 70 -198 69q-80 0 -158 -35t-137 -97t-96 -148t-37 -191q0 -78 26 -141t68 -110q43 -46 103 -71q59 -26 127 -26z" />
    <glyph glyph-name="uni0442" unicode="&#x442;" horiz-adv-x="768" 
d="M199 901h686l-8 -51h-318l-149 -850h-52l150 850h-318z" />
    <glyph glyph-name="uni0443" unicode="&#x443;" horiz-adv-x="880" 
d="M987 901l-598 -1034q-35 -59 -64 -98q-30 -39 -60 -63t-61 -34q-32 -10 -71 -10q-27 0 -41 6q-8 2 -16 6l10 50q8 -4 16 -7q20 -4 41 -4q27 0 51 7t46 25q23 17 45 47q23 30 47 75l117 201l-240 833h51l219 -764h10l441 764h57z" />
    <glyph glyph-name="uni0444" unicode="&#x444;" horiz-adv-x="1402" 
d="M688 80q-25 -25 -57 -45q-29 -16 -70 -30.5t-94 -14.5q-68 0 -124 26.5t-97 75.5t-63.5 116.5t-22.5 149.5q0 135 36.5 237.5t98 173.5t140.5 106.5t163 35.5q51 0 92 -15t70 -34q35 -23 59 -49l84 477h51l-84 -469q25 25 58 45q29 16 69.5 30.5t94.5 14.5
q68 0 124 -26.5t97 -75.5t63.5 -116.5t22.5 -149.5q0 -135 -37 -237.5t-98.5 -173.5t-140.5 -106.5t-162 -35.5q-53 0 -93.5 14t-68.5 33q-33 23 -58 49l-73 -414h-52zM475 41q51 0 93 17.5t71 39.5q35 25 61 58l107 594q-20 31 -51 55q-27 20 -68 37.5t-98 17.5
q-68 0 -135.5 -31.5t-121.5 -94t-87 -154t-33 -209.5q0 -154 69.5 -242t192.5 -88zM1083 860q-53 0 -94 -17.5t-69 -39.5q-35 -25 -62 -58l-106 -593q20 -33 51 -56q27 -23 67.5 -39t98.5 -16q68 0 135 31.5t121.5 94t87.5 154t33 209.5q0 154 -70 242t-193 88z" />
    <glyph glyph-name="uni0445" unicode="&#x445;" horiz-adv-x="819" 
d="M459 467l-230 434h58l209 -393l346 393h65l-387 -440l244 -461h-57l-224 420l-368 -420h-66z" />
    <glyph glyph-name="uni0446" unicode="&#x446;" horiz-adv-x="1003" 
d="M971 51l-51 -287h-52l43 236h-768l158 901h51l-149 -850h563l149 850h52l-150 -850h154z" />
    <glyph glyph-name="uni0447" unicode="&#x447;" horiz-adv-x="921" 
d="M936 901l-158 -901h-51l70 393q-37 -25 -80 -43q-37 -16 -88 -29.5t-111 -13.5q-129 0 -210 66.5t-81 195.5q0 18 2 38t7 40l45 254h51l-45 -254q-4 -20 -6 -38.5t-2 -35.5q0 -113 66.5 -164t180.5 -51q59 0 110.5 14.5t88.5 33.5q43 23 80 49l80 446h51z" />
    <glyph glyph-name="uni0448" unicode="&#x448;" horiz-adv-x="1320" 
d="M1335 901l-157 -901h-1035l158 901h51l-149 -850h440l150 850h51l-150 -850h441l149 850h51z" />
    <glyph glyph-name="uni0449" unicode="&#x449;" horiz-adv-x="1372" 
d="M1339 51l-51 -287h-51l43 236h-1137l158 901h51l-149 -850h440l150 850h51l-150 -850h441l149 850h51l-149 -850h153z" />
    <glyph glyph-name="uni044A" unicode="&#x44a;" horiz-adv-x="942" 
d="M649 553q57 0 106.5 -20.5t83 -54.5t53 -78t19.5 -93q0 -141 -85 -224t-242 -83h-338l149 850h-245l8 51h297l-62 -348h256zM592 51q129 0 198.5 69.5t69.5 174.5q0 88 -55 147.5t-164 59.5h-256l-80 -451h287z" />
    <glyph glyph-name="uni044B" unicode="&#x44b;" horiz-adv-x="1136" 
d="M1100 901h51l-158 -901h-51zM547 553q57 0 106 -20.5t83 -54.5t53.5 -78t19.5 -93q0 -141 -85 -224t-243 -83h-338l158 901h51l-61 -348h256zM489 51q129 0 199 69.5t70 174.5q0 88 -55.5 147.5t-163.5 59.5h-256l-80 -451h286z" />
    <glyph glyph-name="uni044C" unicode="&#x44c;" horiz-adv-x="860" 
d="M567 553q57 0 106.5 -20.5t83.5 -54.5t53 -78t19 -93q0 -141 -85 -224t-242 -83h-359l158 901h51l-61 -348h276zM510 51q129 0 198.5 69.5t69.5 174.5q0 88 -55 147.5t-164 59.5h-276l-80 -451h307z" />
    <glyph glyph-name="uni044D" unicode="&#x44d;" 
d="M494 481h409v11q0 4 1 10t1 10q0 78 -25.5 141.5t-68.5 109.5t-102.5 71.5t-126.5 25.5q-121 0 -212 -70.5t-143 -185.5h-55q27 70 71 127t98 97t117.5 61.5t131.5 21.5q74 0 139.5 -29.5t116.5 -81.5t80.5 -124t29.5 -154q0 -121 -41 -219t-109.5 -167.5t-156.5 -107.5
t-180 -38q-133 0 -226 78.5t-122 218.5h53q25 -121 105.5 -183.5t197.5 -62.5q72 0 141.5 27.5t128 79t98.5 123t54 159.5h-414z" />
    <glyph glyph-name="uni044E" unicode="&#x44e;" horiz-adv-x="1249" 
d="M918 911q74 0 133 -29.5t102 -81.5t66.5 -124t23.5 -154q0 -121 -37 -219t-98 -167.5t-142 -107.5t-169 -38q-74 0 -133.5 29.5t-102.5 82t-66.5 123t-23.5 154.5v33q0 8 2 18h-203l-75 -430h-52l158 901h51l-73 -420h200q14 98 55 178t99.5 136.5t131.5 86t153 29.5z
M805 41q76 0 146.5 35t123.5 97.5t85 148.5t32 190q0 160 -74 254t-209 94q-78 0 -147.5 -34.5t-122.5 -97t-85 -148.5t-32 -191q0 -160 74 -254t209 -94z" />
    <glyph glyph-name="uni044F" unicode="&#x44f;" horiz-adv-x="890" 
d="M397 356q-92 23 -141 93.5t-49 148.5q0 66 23.5 121t67.5 96t104.5 63.5t134.5 22.5h368l-157 -901h-52l60 348h-303l-308 -348h-63zM766 399l80 451h-318q-59 0 -108 -18.5t-85 -50t-56.5 -77t-20.5 -96.5q0 -41 12.5 -77.5t40 -66.5t68.5 -47.5t100 -17.5h287z" />
    <glyph glyph-name="uni0451" unicode="&#x451;" horiz-adv-x="1003" 
d="M539 41q98 0 187 44t148 130h62q-70 -109 -176 -167t-230 -58q-74 0 -139 29q-66 30 -117 82t-80 123q-30 71 -30 155q0 121 41 219t109 168q69 70 157 107q88 38 180 38q74 0 137 -29q63 -30 112 -82q48 -52 76 -124t28 -154q0 -16 -3 -32q-2 -15 -6 -29q-4 -16 -8 -31
h-770q-2 -6 -2 -14v-27q0 -78 26 -141t68 -110q43 -46 103 -71q59 -26 127 -26zM643 860q-72 0 -140 -27q-69 -28 -126 -78t-98 -120t-56 -154h727v13q0 4 1 9t1 9q0 78 -22 141q-23 63 -65 110q-42 46 -98 72q-56 25 -124 25zM516 1167q0 23 14 37t37 15q18 0 31 -13
q12 -12 12 -28q0 -23 -14 -37t-37 -15q-18 0 -31 13q-12 12 -12 28zM813 1167q0 23 14 37t37 15q18 0 31 -13q12 -12 12 -28q0 -23 -14 -37t-37 -15q-18 0 -31 13q-12 12 -12 28z" />
    <glyph glyph-name="uni0452" unicode="&#x452;" horiz-adv-x="1003" 
d="M668 829q70 0 128 -24.5t99 -69.5t63.5 -108.5t22.5 -141.5q0 -119 -33 -213t-90 -163.5t-136 -112.5t-171 -57l10 51q74 12 140.5 51t117.5 101.5t81 145.5t30 185q0 145 -71 225t-200 80q-72 0 -132 -28.5t-107 -80t-79 -119t-46 -147.5l-70 -403h-51l182 1034h-174
l8 51h175l36 205h52l-37 -205h327l-8 -51h-327l-70 -383h10q31 49 76 88q39 35 98.5 62.5t145.5 27.5z" />
    <glyph glyph-name="uni0453" unicode="&#x453;" horiz-adv-x="716" 
d="M750 1311h86l-215 -246h-39zM846 850h-502l-149 -850h-52l158 901h553z" />
    <glyph glyph-name="uni0454" unicode="&#x454;" horiz-adv-x="972" 
d="M539 41q121 0 215 65.5t149 180.5h55q-61 -141 -176.5 -219t-251.5 -78q-74 0 -139 29.5t-116.5 82t-81 123t-29.5 154.5q0 121 41 219t109.5 168t156.5 107.5t180 37.5q66 0 123 -22.5t103.5 -63.5t77 -97t44.5 -124h-53q-25 117 -105.5 186.5t-197.5 69.5
q-72 0 -140.5 -27.5t-126 -77.5t-98 -120t-55.5 -154h414l-8 -51h-412q-2 -6 -2 -14v-27q0 -78 25.5 -141.5t68.5 -109.5t102.5 -71.5t127.5 -25.5z" />
    <glyph glyph-name="uni0455" unicode="&#x455;" horiz-adv-x="808" 
d="M752 246q0 -66 -25 -113t-67 -80t-99 -48t-123 -15q-68 0 -122 19t-94 51t-61 75q-22 43 -22 92v27q0 8 2 12h54v-30q0 -88 66 -142q67 -53 190 -53q117 0 184 54q68 54 67 141q0 61 -35 101q-36 40 -88 69t-115 51q-62 23 -115 51q-52 29 -88 67q-36 39 -36 101
q0 98 78 167t225 68q68 0 121 -19t90 -51t57 -76q19 -44 19 -93q0 -4 -1 -9t-1 -10v-8h-49v23q0 92 -66 142t-178 50q-123 0 -183 -53t-61 -121q0 -53 35 -87t88 -59q53 -26 115 -50q61 -24 115 -54q53 -31 88 -76q35 -44 35 -114z" />
    <glyph glyph-name="uni0456" unicode="&#x456;" horiz-adv-x="337" 
d="M301 901h51l-157 -901h-52zM328 1178q0 23 14 36q14 14 37 15q18 0 31 -12q12 -12 12 -29q0 -23 -14 -37t-37 -14q-18 0 -31 12q-12 13 -12 29z" />
    <glyph glyph-name="uni0457" unicode="&#x457;" horiz-adv-x="337" 
d="M178 1167q0 23 15 37q14 14 36 15q18 0 31 -13q12 -12 12 -28q0 -23 -14 -37t-37 -15q-18 0 -31 13q-12 12 -12 28zM475 1167q0 23 14 37t37 15q18 0 31 -13q12 -12 12 -28q0 -23 -14 -37t-37 -15q-18 0 -31 13q-12 12 -12 28zM195 0h-52l158 901h51z" />
    <glyph glyph-name="uni0458" unicode="&#x458;" horiz-adv-x="337" 
d="M328 1178q0 23 14 36q14 14 37 15q18 0 31 -12q12 -12 12 -29q0 -23 -14 -37t-37 -14q-18 0 -31 12q-12 13 -12 29zM301 901h51l-176 -1003q-23 -131 -90 -184q-68 -52 -166 -52q-39 0 -57 6q-12 4 -21 8l11 52q10 -4 22 -9q20 -6 55 -6q76 0 127 43t70 152z" />
    <glyph glyph-name="uni0459" unicode="&#x459;" horiz-adv-x="1402" 
d="M1110 553q57 0 106.5 -20.5t83 -54.5t53 -78t19.5 -93q0 -141 -85 -224t-243 -83h-327l149 850h-413l-146 -561q-25 -90 -51.5 -148.5t-58 -92.5t-67.5 -46t-79 -12q-12 0 -22.5 1t-20.5 3t-18 6l8 41h59q31 0 58.5 11t52.5 41t46.5 79t41.5 127l158 602h512l-62 -348
h246zM1053 51q129 0 198.5 69.5t69.5 174.5q0 88 -55.5 147.5t-163.5 59.5h-246l-80 -451h277z" />
    <glyph glyph-name="uni045A" unicode="&#x45a;" horiz-adv-x="1443" 
d="M1147 532q61 0 111.5 -18t84 -51t52 -75t18.5 -91q0 -135 -85 -216t-243 -81h-327l84 481h-563l-84 -481h-52l158 901h51l-65 -369h563l65 369h52l-66 -369h246zM1094 51q129 0 198.5 66.5t69.5 167.5q0 88 -53.5 142t-169.5 54h-246l-76 -430h277z" />
    <glyph glyph-name="uni045B" unicode="&#x45b;" horiz-adv-x="1054" 
d="M688 829q68 0 125 -21.5t100 -63.5t67 -100t24 -132q0 -20 -2.5 -40.5t-6.5 -43.5l-73 -428h-52l74 428q4 23 6 42t2 38q0 127 -72.5 198.5t-199.5 71.5q-72 0 -132.5 -28.5t-107.5 -80t-78.5 -119t-46.5 -147.5l-69 -403h-51l182 1034h-174l8 51h174l37 205h51l-37 -205
h328l-8 -51h-328l-70 -383h11q31 49 75 88q39 35 98.5 62.5t145.5 27.5z" />
    <glyph glyph-name="uni045C" unicode="&#x45c;" horiz-adv-x="798" 
d="M750 1311h86l-215 -246h-39zM276 471l-81 -471h-52l158 901h51l-76 -430l558 430h75l-561 -434l436 -467h-67z" />
    <glyph glyph-name="uni045E" unicode="&#x45e;" horiz-adv-x="880" 
d="M616 1096q61 0 113 41q51 41 64 102h51q-14 -86 -81 -140t-155 -55q-43 0 -80 17q-37 16 -63 43q-27 27 -41 61q-14 35 -10 74h51q-2 -61 40 -102q41 -41 111 -41zM987 901l-598 -1034q-35 -59 -64 -98q-30 -39 -60 -63t-61 -34q-32 -10 -71 -10q-27 0 -41 6q-8 2 -16 6
l10 50q8 -4 16 -7q20 -4 41 -4q27 0 51 7t46 25q23 17 45 47q23 30 47 75l117 201l-240 833h51l219 -764h10l441 764h57z" />
    <glyph glyph-name="uni045F" unicode="&#x45f;" horiz-adv-x="993" 
d="M471 0h-328l158 901h51l-149 -850h604l149 850h52l-158 -901h-328l-43 -236h-51z" />
    <glyph glyph-name="uni0490" unicode="&#x490;" horiz-adv-x="901" 
d="M453 1239l-217 -1239h-52l228 1290h645l39 226h51l-49 -277h-645z" />
    <glyph glyph-name="uni0491" unicode="&#x491;" horiz-adv-x="716" 
d="M846 850h-502l-149 -850h-52l158 901h502l37 205h51z" />
    <glyph glyph-name="uni1E9E" unicode="&#x1e9e;" horiz-adv-x="1177" 
d="M821 717q78 0 140 -25q61 -25 104 -67q43 -43 65 -100q23 -56 23 -119q0 -90 -30 -165t-86 -128t-137 -83t-183 -30h-164l8 51h164q86 0 156 26t118 71q49 46 75 109q26 62 26 138q0 117 -71 194t-216 77h-92l8 51l438 522h-448q-131 0 -216 -76t-114 -229l-164 -934h-51
l164 934q33 186 135 271t256 85h512l-10 -51l-438 -522h28z" />
    <glyph glyph-name="endash" unicode="&#x2013;" horiz-adv-x="921" 
d="M948 502h-798l8 51h798z" />
    <glyph glyph-name="emdash" unicode="&#x2014;" horiz-adv-x="1423" 
d="M1450 502h-1300l8 51h1300z" />
    <glyph glyph-name="quoteleft" unicode="&#x2018;" horiz-adv-x="337" 
d="M406 1071q0 -20 -13.5 -34.5t-34.5 -14.5q-47 0 -47 61q0 41 19.5 79t44.5 67q29 33 65 61l13 -12q-23 -23 -41 -49q-16 -23 -30.5 -52.5t-16.5 -62.5q16 -2 28.5 -14.5t12.5 -28.5z" />
    <glyph glyph-name="quoteright" unicode="&#x2019;" horiz-adv-x="337" 
d="M340 1241q0 20 13.5 34.5t33.5 14.5q47 0 47 -61q0 -43 -20.5 -80t-44.5 -66q-29 -33 -64 -61l-12 12q23 23 41 49q16 23 29.5 51.5t17.5 63.5q-16 2 -28.5 14.5t-12.5 28.5z" />
    <glyph glyph-name="quotesinglbase" unicode="&#x201a;" horiz-adv-x="337" 
d="M129 43q0 20 13.5 34.5t33.5 14.5q47 0 47 -61q0 -43 -20.5 -80t-44.5 -66q-29 -33 -64 -61l-12 12q23 23 41 49q16 23 29.5 51.5t17.5 63.5q-16 2 -28.5 14.5t-12.5 28.5z" />
    <glyph glyph-name="quotedblleft" unicode="&#x201c;" horiz-adv-x="542" 
d="M610 1071q0 -20 -13 -34.5t-34 -14.5q-47 0 -47 61q0 41 19.5 79t44.5 67q29 33 65 61l12 -12q-23 -23 -41 -49q-16 -23 -30.5 -52.5t-16.5 -62.5q16 -2 28.5 -14.5t12.5 -28.5zM406 1071q0 -20 -13.5 -34.5t-34.5 -14.5q-47 0 -47 61q0 41 19.5 79t44.5 67q29 33 65 61
l13 -12q-23 -23 -41 -49q-16 -23 -30.5 -52.5t-16.5 -62.5q16 -2 28.5 -14.5t12.5 -28.5z" />
    <glyph glyph-name="quotedblright" unicode="&#x201d;" horiz-adv-x="542" 
d="M340 1241q0 20 13.5 34.5t33.5 14.5q47 0 47 -61q0 -43 -20.5 -80t-44.5 -66q-29 -33 -64 -61l-12 12q23 23 41 49q16 23 29.5 51.5t17.5 63.5q-16 2 -28.5 14.5t-12.5 28.5zM545 1241q0 20 13 34.5t34 14.5q47 0 47 -61q0 -43 -20.5 -80t-45.5 -66q-29 -33 -63 -61
l-12 12q23 23 41 49q16 23 29.5 51.5t17.5 63.5q-16 2 -28.5 14.5t-12.5 28.5z" />
    <glyph glyph-name="quotedblbase" unicode="&#x201e;" horiz-adv-x="542" 
d="M129 43q0 20 13.5 34.5t33.5 14.5q47 0 47 -61q0 -43 -20.5 -80t-44.5 -66q-29 -33 -64 -61l-12 12q23 23 41 49q16 23 29.5 51.5t17.5 63.5q-16 2 -28.5 14.5t-12.5 28.5zM334 43q0 20 13 34.5t34 14.5q47 0 47 -61q0 -43 -20.5 -80t-45.5 -66q-29 -33 -63 -61l-12 12
q23 23 41 49q16 23 29.5 51.5t17.5 63.5q-16 2 -28.5 14.5t-12.5 28.5z" />
    <glyph glyph-name="dagger" unicode="&#x2020;" horiz-adv-x="747" 
d="M526 1014l49 276h52l-49 -276h245l-10 -51h-246l-104 -594h-51l104 594h-246l11 51h245z" />
    <glyph glyph-name="daggerdbl" unicode="&#x2021;" horiz-adv-x="747" 
d="M215 645l8 51h246l47 267h-246l11 51h245l49 276h52l-49 -276h245l-10 -51h-246l-47 -267h246l-8 -51h-246l-49 -276h-51l49 276h-246z" />
    <glyph glyph-name="bullet" unicode="&#x2022;" horiz-adv-x="696" 
d="M342 545q0 45 28.5 77.5t80.5 32.5q41 0 69.5 -27.5t28.5 -66.5q0 -45 -28.5 -77.5t-80.5 -32.5q-41 0 -69.5 27.5t-28.5 66.5z" />
    <glyph glyph-name="ellipsis" unicode="&#x2026;" horiz-adv-x="911" 
d="M129 41q0 23 14.5 37t36.5 14q18 0 30.5 -12t12.5 -29q0 -23 -14 -37t-37 -14q-18 0 -30.5 12.5t-12.5 28.5zM416 41q0 23 14 37t37 14q18 0 30.5 -12t12.5 -29q0 -23 -14.5 -37t-36.5 -14q-18 0 -30.5 12.5t-12.5 28.5zM702 41q0 23 14.5 37t37.5 14q18 0 30.5 -12
t12.5 -29q0 -23 -14.5 -37t-37.5 -14q-18 0 -30.5 12.5t-12.5 28.5z" />
    <glyph glyph-name="perthousand" unicode="&#x2030;" horiz-adv-x="1832" 
d="M985 512q47 0 87 -17.5t69.5 -48t47 -71.5t17.5 -86q0 -61 -20.5 -113.5t-57 -91.5t-88 -61.5t-112.5 -22.5q-47 0 -87 17.5t-70 48t-47 71.5t-17 86q0 61 20.5 113.5t57 91.5t88 61.5t112.5 22.5zM760 1067q0 -61 -20.5 -113.5t-57.5 -91.5t-88 -61.5t-113 -22.5
q-47 0 -87 17.5t-69.5 48t-47 71.5t-17.5 86q0 61 20.5 113.5t57.5 91.5t88 61.5t113 22.5q47 0 87 -17.5t69.5 -48t47 -71.5t17.5 -86zM1579 512q47 0 87 -17.5t69.5 -48t47 -71.5t17.5 -86q0 -61 -20.5 -113.5t-57 -91.5t-88 -61.5t-112.5 -22.5q-47 0 -87 17.5t-70 48
t-47.5 71.5t-17.5 86q0 61 20.5 113.5t57.5 91.5t88.5 61.5t112.5 22.5zM492 829q49 0 89 19.5t67.5 51.5t43 73t15.5 82q0 76 -43 130t-136 54q-49 0 -89 -19.5t-67.5 -51t-43 -72.5t-15.5 -82q0 -76 43.5 -130.5t135.5 -54.5zM975 461q-49 0 -89 -19.5t-67.5 -51.5
t-43 -73t-15.5 -81q0 -76 43 -130.5t135 -54.5q49 0 89 19.5t67.5 51.5t43 73t15.5 81q0 76 -43 130.5t-135 54.5zM1569 461q-49 0 -89 -19.5t-68 -51.5t-43 -73t-15 -81q0 -76 43 -130.5t135 -54.5q49 0 89 19.5t67.5 51.5t43 73t15.5 81q0 76 -43 130.5t-135 54.5zM268 0
h-63l1005 1290h64z" />
    <glyph glyph-name="guilsinglleft" unicode="&#x2039;" horiz-adv-x="440" 
d="M182 461l271 307h63l-276 -313l159 -301h-55z" />
    <glyph glyph-name="guilsinglright" unicode="&#x203a;" horiz-adv-x="440" 
d="M418 461l-271 -307h-63l276 313l-159 301h55z" />
    <glyph glyph-name="fraction" unicode="&#x2044;" horiz-adv-x="184" 
d="M-266 0h-62l1006 1290h61z" />
    <glyph glyph-name="uni2070" unicode="&#x2070;" horiz-adv-x="573" 
d="M453 870q-86 0 -139.5 68t-53.5 176q0 94 23.5 164t62.5 116t88 68.5t101 22.5q86 0 139 -67.5t53 -176.5q0 -94 -23.5 -163.5t-62.5 -116t-88 -69t-100 -22.5zM313 1124q0 -96 40 -149t110 -53q39 0 77 18t67.5 57t48 97.5t18.5 136.5q0 96 -40 149.5t-110 53.5
q-39 0 -76.5 -19.5t-67.5 -57.5t-48.5 -96.5t-18.5 -136.5z" />
    <glyph glyph-name="uni2074" unicode="&#x2074;" horiz-adv-x="481" 
d="M514 1065h82l-8 -51h-82l-25 -133h-51l25 133h-277l8 51l338 410h62zM463 1065l61 342l-280 -342h219z" />
    <glyph glyph-name="uni2075" unicode="&#x2075;" horiz-adv-x="491" 
d="M463 1260q72 0 120 -48.5t48 -117.5q0 -98 -61.5 -161t-161.5 -63q-76 0 -123 43t-47 107v14h51v-8q0 -43 31.5 -73.5t97.5 -30.5q68 0 114 44t46 115q0 57 -33 92t-96 35q-37 0 -64 -12t-43 -29q-20 -18 -33 -41h-51l100 349h310l-9 -52h-264l-59 -206q10 12 29 20
q16 8 39.5 15.5t58.5 7.5z" />
    <glyph glyph-name="uni2076" unicode="&#x2076;" horiz-adv-x="512" 
d="M420 870q-76 0 -126 49.5t-50 118.5q0 68 30.5 121t96.5 129l161 187h64l-197 -226q6 2 17 4l22.5 4.5t32.5 2.5q72 0 121 -48.5t49 -117.5q0 -106 -64.5 -165t-156.5 -59zM451 1208q-66 0 -110 -46t-44 -113q0 -59 36 -93t95 -34q70 0 115 46t45 113q0 55 -32.5 91
t-104.5 36z" />
    <glyph glyph-name="uni2077" unicode="&#x2077;" horiz-adv-x="419" 
d="M350 1475h359l-9 -52l-352 -542h-55l352 542h-303z" />
    <glyph glyph-name="uni2078" unicode="&#x2078;" horiz-adv-x="532" 
d="M674 1339q0 -51 -29 -93t-82 -58q35 -14 59.5 -49t24.5 -76q0 -86 -57.5 -139.5t-157.5 -53.5q-72 0 -126 41t-54 115q0 66 41 115t102 59q-31 16 -51 46t-20 67q0 74 51 123t141 49q72 0 115 -43.5t43 -102.5zM440 922q72 0 114 39.5t42 93.5q0 57 -38 84.5t-91 27.5h-8
q-72 0 -114 -40t-42 -93q0 -59 41 -85.5t96 -26.5zM481 1219q72 0 107 34.5t35 77.5q0 45 -30 74t-85 29q-66 0 -99.5 -35t-33.5 -78t26.5 -70.5t79.5 -31.5z" />
    <glyph glyph-name="uni2079" unicode="&#x2079;" horiz-adv-x="512" 
d="M504 1485q76 0 126 -49.5t50 -118.5q0 -68 -31 -121t-96 -129l-162 -186h-63l196 225q-6 -4 -16 -6t-23.5 -3t-31.5 -1q-72 0 -121 48t-49 118q0 106 64.5 164.5t156.5 58.5zM473 1147q66 0 110 46t44 114q0 59 -36 93t-95 34q-70 0 -115 -46.5t-45 -113.5
q0 -55 32.5 -91t104.5 -36z" />
    <glyph glyph-name="uni2080" unicode="&#x2080;" horiz-adv-x="573" 
d="M268 -195q-86 0 -139 68t-53 176q0 94 23 164q24 70 63 116t88 68q49 23 100 23q86 0 139 -68t54 -176q0 -94 -24 -164t-62 -115q-39 -46 -88 -69q-50 -23 -101 -23zM129 59q0 -96 40 -149t110 -53q39 0 76 18q38 18 68 57t48 98q18 58 18 136q0 96 -39 149
q-40 53 -110 54q-39 0 -77 -20q-38 -19 -67 -57q-30 -38 -49 -96q-18 -59 -18 -137z" />
    <glyph glyph-name="uni2081" unicode="&#x2081;" horiz-adv-x="378" 
d="M289 410h41l-105 -594h-51l94 528l-157 -92l-15 45z" />
    <glyph glyph-name="uni2082" unicode="&#x2082;" horiz-adv-x="501" 
d="M111 -133h299l-11 -51h-368l10 51l276 237q39 35 75 72t36 90q0 102 -115 103q-113 0 -149 -123h-51q23 86 76 130q54 44 133 44q76 0 116 -43q41 -43 41 -103q0 -35 -10 -62q-10 -28 -28 -51q-17 -24 -40 -44t-49 -43z" />
    <glyph glyph-name="uni2083" unicode="&#x2083;" horiz-adv-x="522" 
d="M354 127q43 -12 70 -48t27 -83q0 -86 -58 -138q-57 -52 -153 -53q-78 0 -127 44t-50 116v15h52q0 -66 36 -95t99 -28q74 0 111 41q38 41 38 94q0 45 -30 78q-31 33 -103 32h-51l8 52h62q68 0 105 37q38 38 38 83q0 43 -28 69t-87 26q-53 0 -96 -32t-53 -91h-51
q14 80 72 127t137 47q72 0 114 -41q43 -41 43 -98q0 -49 -20 -79t-43 -46q-27 -21 -62 -29z" />
    <glyph glyph-name="uni2084" unicode="&#x2084;" horiz-adv-x="481" 
d="M371 0h82l-9 -51h-82l-24 -133h-51l24 133h-276l8 51l338 410h61zM319 0l62 342l-281 -342h219z" />
    <glyph glyph-name="uni2085" unicode="&#x2085;" horiz-adv-x="491" 
d="M299 195q72 0 120 -49q48 -48 48 -117q0 -98 -61 -161q-61 -62 -162 -63q-76 0 -123 43t-47 107v14h51v-8q0 -43 32 -74t97 -30q68 0 114 44t46 115q0 57 -33 93q-33 35 -96 34q-37 0 -64 -12t-43 -29q-20 -18 -33 -41h-51l101 349h309l-8 -52h-265l-59 -206q10 12 29 20
q16 8 40 15q23 8 58 8z" />
    <glyph glyph-name="uni2086" unicode="&#x2086;" horiz-adv-x="512" 
d="M246 -195q-76 0 -126 50q-50 49 -50 118q0 68 30 121q31 53 97 129l161 187h64l-197 -226q6 2 17 4q10 2 22 5q12 2 33 2q72 0 121 -49q49 -48 49 -117q0 -106 -65 -165q-64 -59 -156 -59zM276 143q-66 0 -109 -46q-44 -46 -44 -113q0 -59 36 -94q36 -34 95 -33
q70 0 115 46t45 113q0 55 -33 92q-33 35 -105 35z" />
    <glyph glyph-name="uni2087" unicode="&#x2087;" horiz-adv-x="419" 
d="M125 410h358l-8 -52l-352 -542h-55l352 542h-303z" />
    <glyph glyph-name="uni2088" unicode="&#x2088;" horiz-adv-x="532" 
d="M489 274q0 -51 -28 -93q-29 -42 -82 -58q35 -14 59 -49q25 -35 25 -76q0 -86 -57 -139t-158 -54q-72 0 -126 41t-54 115q0 66 41 115t102 59q-31 16 -51 46t-21 67q0 74 51 123t142 49q72 0 114 -43q43 -44 43 -103zM256 -143q72 0 114 40t42 93q0 57 -38 85t-91 27h-9
q-72 0 -113 -40q-42 -40 -42 -93q0 -59 41 -86q41 -26 96 -26zM297 154q72 0 106 34q35 35 35 78q0 45 -29 74q-30 29 -85 29q-66 0 -100 -35t-34 -78t27 -71q27 -27 80 -31z" />
    <glyph glyph-name="uni2089" unicode="&#x2089;" horiz-adv-x="512" 
d="M319 420q76 0 126 -49t51 -119q0 -68 -31 -121t-96 -129l-162 -186h-64l197 225q-6 -4 -16 -6t-24 -3q-13 -1 -32 -1q-72 0 -121 48t-49 118q0 106 65 164q64 59 156 59zM289 82q66 0 109 46q44 46 44 114q0 59 -35 93q-36 34 -96 34q-70 0 -114 -46q-45 -46 -45 -114
q0 -55 32 -91q33 -36 105 -36z" />
    <glyph glyph-name="Euro" unicode="&#x20ac;" horiz-adv-x="1402" 
d="M305 522v23q0 78 10 135q6 31 13 57h-138l9 51h143q33 106 92.5 199.5t140 163.5t182 109.5t218.5 39.5q92 0 171 -32.5t140.5 -90t104.5 -136t61 -171.5h-55q-37 168 -147.5 273.5t-282.5 105.5q-102 0 -191.5 -35.5t-163 -99t-129 -147.5t-86.5 -179h488l-8 -51h-496
q-6 -25 -12 -53q-4 -25 -7.5 -57.5t-3.5 -69.5v-35h480l-9 -51h-464q12 -96 51 -175t98 -135.5t136 -88t165 -31.5q92 0 172 28.5t147.5 80t120 121t86.5 149.5h58q-41 -92 -97.5 -170t-130 -136.5t-165 -91t-199.5 -32.5q-94 0 -179 36.5t-151.5 101.5t-110.5 153t-57 190
h-166l9 51h153z" />
    <glyph glyph-name="uni20B4" unicode="&#x20b4;" horiz-adv-x="1024" 
d="M1083 809l-8 -51h-860l8 51h594q43 20 80 51q31 27 56.5 67t25.5 95q0 98 -68.5 162.5t-199.5 64.5t-214 -66.5t-102 -178.5h-51q23 139 122 217.5t253 78.5q72 0 130 -22.5t98 -59t61.5 -85t21.5 -101.5q0 -61 -20.5 -103t-42.5 -69q-29 -31 -64 -51h180zM166 481l8 51
h860l-8 -51h-594q-45 -20 -82 -51q-31 -27 -55.5 -66.5t-24.5 -95.5q0 -98 69 -162.5t200 -64.5t214 66.5t101 179.5h51q-23 -139 -122 -218t-253 -79q-72 0 -130 22.5t-98 59.5t-61.5 85t-21.5 101q0 59 19.5 102t44.5 70q27 31 63 51h-180z" />
    <glyph glyph-name="uni20BD" unicode="&#x20bd;" horiz-adv-x="1095" 
d="M150 625h186l117 665h360q82 0 146.5 -24.5t109.5 -67.5t68.5 -100.5t23.5 -122.5q0 -186 -113.5 -294t-330.5 -108h-340l-39 -215h461l-8 -51h-461l-54 -307h-51l54 307h-185l8 51h187l37 215h-185zM727 625q186 0 283.5 93t97.5 247q0 123 -77 198.5t-228 75.5h-309
l-107 -614h340z" />
    <glyph glyph-name="uni2116" unicode="&#x2116;" horiz-adv-x="1781" 
d="M1272 1290l-228 -1290h-40l-560 1188l-208 -1188h-52l228 1290h41l557 -1188l211 1188h51zM1221 133h471l-9 -51h-471zM1280 524q0 61 20.5 113.5t56.5 90.5t87 59.5t112 21.5q47 0 88.5 -18.5t71 -49t47 -72.5t17.5 -87q0 -61 -20.5 -113.5t-56.5 -90.5t-87 -59.5
t-113 -21.5q-47 0 -88 18.5t-70.5 49t-47 71.5t-17.5 88zM1726 569q0 82 -49 135.5t-131 53.5q-41 0 -78.5 -16.5t-67.5 -45t-48.5 -69.5t-18.5 -90q0 -82 49.5 -135.5t130.5 -53.5q41 0 79 16.5t68 45t48 69.5t18 90z" />
    <glyph glyph-name="trademark" unicode="&#x2122;" horiz-adv-x="1103" 
d="M637 1239h-174l-82 -471h-51l82 471h-174l10 51h399zM899 922l-129 258l-72 -412h-51l92 522h31l148 -297l253 297h37l-92 -522h-49l72 412l-219 -258h-21z" />
    <glyph glyph-name="arrowleft" unicode="&#x2190;" horiz-adv-x="2048" 
d="M891 1116v-61l-399 -400h1392v-41h-1392l399 -399v-61l-481 481z" />
    <glyph glyph-name="arrowup" unicode="&#x2191;" horiz-adv-x="2048" 
d="M1628 911h-61l-400 400v-1393h-41v1393l-399 -400h-61l481 482z" />
    <glyph glyph-name="arrowright" unicode="&#x2192;" horiz-adv-x="2048" 
d="M1884 635l-481 -481v61l399 399h-1392v41h1392l-399 400v61z" />
    <glyph glyph-name="arrowdown" unicode="&#x2193;" horiz-adv-x="2048" 
d="M1147 -82l-481 481h61l399 -399v1393h41v-1393l400 399h61z" />
    <glyph glyph-name="arrowboth" unicode="&#x2194;" horiz-adv-x="2048" 
d="M1884 635l-481 -481v61l399 399h-1310l399 -399v-61l-481 481l481 481v-61l-399 -400h1310l-399 400v61z" />
    <glyph glyph-name="arrowupdn" unicode="&#x2195;" horiz-adv-x="2048" 
d="M1147 1393l481 -482h-61l-400 400v-1311l400 399h61l-481 -481l-481 481h61l399 -399v1311l-399 -400h-61z" />
    <glyph glyph-name="uni2196" unicode="&#x2196;" horiz-adv-x="2048" 
d="M1679 133l-30 -31l-994 994v-564l-41 -40v675h676l-41 -41h-563z" />
    <glyph glyph-name="uni2197" unicode="&#x2197;" horiz-adv-x="2048" 
d="M1608 1126h-564l-40 41h675v-675l-41 40v564l-993 -994l-31 31z" />
    <glyph glyph-name="uni2198" unicode="&#x2198;" horiz-adv-x="2048" 
d="M614 1137l31 30l993 -993v563l41 41v-676h-675l40 41h564z" />
    <glyph glyph-name="uni2199" unicode="&#x2199;" horiz-adv-x="2048" 
d="M686 143h563l41 -41h-676v676l41 -41v-563l994 993l30 -30z" />
    <glyph glyph-name="minus" unicode="&#x2212;" horiz-adv-x="890" 
d="M918 502h-768l8 51h768z" />
    <glyph glyph-name="approxequal" unicode="&#x2248;" horiz-adv-x="901" 
d="M377 788q-66 0 -115 -37.5t-59 -115.5h-51q12 100 76.5 152.5t156.5 52.5q63 0 110.5 -26t90.5 -56.5t88 -56t104 -25.5q66 0 116 38t60 115h52q-12 -100 -78 -152t-158 -52q-63 0 -110.5 25.5t-90.5 56t-88 56t-104 25.5zM311 410q-66 0 -115 -38t-59 -116h-51
q12 100 76.5 152.5t156.5 52.5q63 0 110.5 -25.5t90.5 -56.5t88 -56.5t105 -25.5q66 0 116 38t60 116h51q-12 -100 -77.5 -152.5t-157.5 -52.5q-63 0 -110.5 25.5t-90.5 56t-88.5 56.5t-104.5 26z" />
    <glyph glyph-name="notequal" unicode="&#x2260;" horiz-adv-x="890" 
d="M123 358h287l194 328h-422l8 51h445l147 246h60l-148 -246h264l-8 -51h-286l-195 -328h422l-8 -51h-445l-147 -246h-60l148 246h-264z" />
    <glyph glyph-name="lessequal" unicode="&#x2264;" horiz-adv-x="870" 
d="M250 549l581 -303l-10 -51l-647 337l8 41l766 338l-8 -57zM90 51h707l-9 -51h-706z" />
    <glyph glyph-name="greaterequal" unicode="&#x2265;" horiz-adv-x="870" 
d="M813 557l-582 303l11 51l647 -338l-8 -41l-766 -337l8 57zM788 0h-706l8 51h707z" />
    <glyph glyph-name="uni2460" unicode="&#x2460;" horiz-adv-x="2048" 
d="M328 655q0 168 64.5 317.5t176 261.5t260 176.5t318.5 64.5q168 0 317.5 -64.5t261 -175.5t176 -260.5t64.5 -319.5t-64.5 -318.5t-176 -260t-261 -176t-317.5 -64.5q-170 0 -318.5 64.5t-260 176t-176 260t-64.5 318.5zM379 655q0 -158 61.5 -297t166 -243.5t243.5 -166
t297 -61.5t297 61.5t243.5 166t166 244t61.5 296.5q0 160 -61.5 299.5t-166 244t-243.5 164.5t-297 60t-297 -61.5t-243.5 -165.5t-166 -243.5t-61.5 -297.5zM1229 1065v-819h-51v758l-164 -113l-31 41l195 133h51z" />
    <glyph glyph-name="uni2461" unicode="&#x2461;" horiz-adv-x="2048" 
d="M1393 297v-51h-492v41l328 348q29 27 51 59q18 29 34.5 66t16.5 80q0 78 -53 131t-131 53q-86 0 -141.5 -53t-63.5 -131h-51q8 100 77.5 167.5t178.5 67.5q49 0 92 -18.5t75 -50t50 -74.5t18 -92q0 -51 -19.5 -94.5t-41.5 -77.5q-27 -39 -61 -74l-287 -297h420zM328 655
q0 168 64.5 317.5t176 261.5t260 176.5t318.5 64.5q168 0 317.5 -64.5t261 -175.5t176 -260.5t64.5 -319.5t-64.5 -318.5t-176 -260t-261 -176t-317.5 -64.5q-170 0 -318.5 64.5t-260 176t-176 260t-64.5 318.5zM379 655q0 -158 61.5 -297t166 -243.5t243.5 -166t297 -61.5
t297 61.5t243.5 166t166 244t61.5 296.5q0 160 -61.5 299.5t-166 244t-243.5 164.5t-297 60t-297 -61.5t-243.5 -165.5t-166 -243.5t-61.5 -297.5z" />
    <glyph glyph-name="uni2462" unicode="&#x2462;" horiz-adv-x="2048" 
d="M1270 666q39 -14 71 -41q27 -23 49.5 -63t22.5 -101q0 -92 -71.5 -158.5t-194.5 -66.5q-117 0 -183.5 61t-82.5 154h49q16 -70 70.5 -117t146.5 -47q100 0 157.5 52t57.5 122q0 78 -57.5 131t-157.5 53h-62v51h62q92 0 143 47.5t51 116.5q0 70 -51 117t-143 47
q-39 0 -73 -14.5t-59.5 -37t-42 -52t-20.5 -60.5h-51q4 43 24.5 82t52.5 68.5t76 47t93 17.5q117 0 181.5 -61.5t64.5 -153.5q0 -53 -19.5 -88t-42.5 -57q-27 -25 -61 -39v-10zM328 655q0 168 64.5 317.5t176 261.5t260 176.5t318.5 64.5q168 0 317.5 -64.5t261 -175.5
t176 -260.5t64.5 -319.5t-64.5 -318.5t-176 -260t-261 -176t-317.5 -64.5q-170 0 -318.5 64.5t-260 176t-176 260t-64.5 318.5zM379 655q0 -158 61.5 -297t166 -243.5t243.5 -166t297 -61.5t297 61.5t243.5 166t166 244t61.5 296.5q0 160 -61.5 299.5t-166 244t-243.5 164.5
t-297 60t-297 -61.5t-243.5 -165.5t-166 -243.5t-61.5 -297.5z" />
    <glyph glyph-name="uni2463" unicode="&#x2463;" horiz-adv-x="2048" 
d="M1341 451h-92v-205h-51v205h-399v41l399 573h51v-563h92v-51zM1198 502v481l-338 -481h338zM328 655q0 168 64.5 317.5t176 261.5t260 176.5t318.5 64.5q168 0 317.5 -64.5t261 -175.5t176 -260.5t64.5 -319.5t-64.5 -318.5t-176 -260t-261 -176t-317.5 -64.5
q-170 0 -318.5 64.5t-260 176t-176 260t-64.5 318.5zM379 655q0 -158 61.5 -297t166 -243.5t243.5 -166t297 -61.5t297 61.5t243.5 166t166 244t61.5 296.5q0 160 -61.5 299.5t-166 244t-243.5 164.5t-297 60t-297 -61.5t-243.5 -165.5t-166 -243.5t-61.5 -297.5z" />
    <glyph glyph-name="uni2464" unicode="&#x2464;" horiz-adv-x="2048" 
d="M1147 768q117 0 191.5 -75t74.5 -191q0 -117 -74.5 -191.5t-191.5 -74.5t-183.5 62t-82.5 163h51q16 -78 69.5 -126t145.5 -48t153.5 61.5t61.5 153.5t-61.5 153.5t-153.5 61.5q-53 0 -88 -17.5t-58 -40.5q-25 -25 -38 -55h-52l52 461h399v-51h-358l-31 -307q20 16 45 30
q23 10 54.5 20.5t74.5 10.5zM328 655q0 168 64.5 317.5t176 261.5t260 176.5t318.5 64.5q168 0 317.5 -64.5t261 -175.5t176 -260.5t64.5 -319.5t-64.5 -318.5t-176 -260t-261 -176t-317.5 -64.5q-170 0 -318.5 64.5t-260 176t-176 260t-64.5 318.5zM379 655
q0 -158 61.5 -297t166 -243.5t243.5 -166t297 -61.5t297 61.5t243.5 166t166 244t61.5 296.5q0 160 -61.5 299.5t-166 244t-243.5 164.5t-297 60t-297 -61.5t-243.5 -165.5t-166 -243.5t-61.5 -297.5z" />
    <glyph glyph-name="uni2465" unicode="&#x2465;" horiz-adv-x="2048" 
d="M1147 236q-53 0 -101.5 21.5t-85 59t-58 88t-21.5 107.5q0 39 9 72.5t21 58.5q12 29 31 53l246 369h61l-205 -297q12 4 29 10q14 4 32.5 7t41.5 3q53 0 101 -21.5t85 -59t58.5 -88t21.5 -107.5t-21.5 -107.5t-58.5 -88t-85 -59t-101 -21.5zM932 512q0 -47 17.5 -88
t47 -71.5t68.5 -48t82 -17.5t82 17.5t68.5 48t47 71.5t17.5 88q0 45 -17.5 86t-47 71.5t-68.5 49t-82 18.5t-82 -18.5t-68.5 -49t-47 -71.5t-17.5 -86zM328 655q0 168 64.5 317.5t176 261.5t260 176.5t318.5 64.5q168 0 317.5 -64.5t261 -175.5t176 -260.5t64.5 -319.5
t-64.5 -318.5t-176 -260t-261 -176t-317.5 -64.5q-170 0 -318.5 64.5t-260 176t-176 260t-64.5 318.5zM379 655q0 -158 61.5 -297t166 -243.5t243.5 -166t297 -61.5t297 61.5t243.5 166t166 244t61.5 296.5q0 160 -61.5 299.5t-166 244t-243.5 164.5t-297 60t-297 -61.5
t-243.5 -165.5t-166 -243.5t-61.5 -297.5z" />
    <glyph glyph-name="uni2466" unicode="&#x2466;" horiz-adv-x="2048" 
d="M1403 1065v-41l-359 -778h-51l359 768h-430v51h481zM328 655q0 168 64.5 317.5t176 261.5t260 176.5t318.5 64.5q168 0 317.5 -64.5t261 -175.5t176 -260.5t64.5 -319.5t-64.5 -318.5t-176 -260t-261 -176t-317.5 -64.5q-170 0 -318.5 64.5t-260 176t-176 260
t-64.5 318.5zM379 655q0 -158 61.5 -297t166 -243.5t243.5 -166t297 -61.5t297 61.5t243.5 166t166 244t61.5 296.5q0 160 -61.5 299.5t-166 244t-243.5 164.5t-297 60t-297 -61.5t-243.5 -165.5t-166 -243.5t-61.5 -297.5z" />
    <glyph glyph-name="uni2467" unicode="&#x2467;" horiz-adv-x="2048" 
d="M1147 236q-61 0 -110.5 19t-84 52t-53 75t-18.5 89q0 57 23.5 96t51.5 64q35 29 78 45q-35 18 -61 43q-23 23 -42.5 56.5t-19.5 84.5q0 43 16.5 82t47.5 68.5t75 47t97 17.5t97 -17.5t75 -47t47 -68.5t16 -82q0 -51 -19.5 -85t-41.5 -56q-27 -25 -61 -43q41 -16 75 -45
q29 -25 53.5 -64t24.5 -96q0 -47 -18.5 -89t-53 -75t-84 -52t-110.5 -19zM1147 655q-49 0 -89 -15t-67.5 -42t-43 -59.5t-15.5 -67.5t15.5 -67.5t43 -59.5t67.5 -42t89 -15t89 15t67.5 42t43 59.5t15.5 67.5t-15.5 67.5t-43 59.5t-67.5 42t-89 15zM1147 1024q-86 0 -135 -51
t-49 -113q0 -61 49 -112.5t135 -51.5t135 51.5t49 112.5t-49 112.5t-135 51.5zM328 655q0 168 64.5 317.5t176 261.5t260 176.5t318.5 64.5q168 0 317.5 -64.5t261 -175.5t176 -260.5t64.5 -319.5t-64.5 -318.5t-176 -260t-261 -176t-317.5 -64.5q-170 0 -318.5 64.5
t-260 176t-176 260t-64.5 318.5zM379 655q0 -158 61.5 -297t166 -243.5t243.5 -166t297 -61.5t297 61.5t243.5 166t166 244t61.5 296.5q0 160 -61.5 299.5t-166 244t-243.5 164.5t-297 60t-297 -61.5t-243.5 -165.5t-166 -243.5t-61.5 -297.5z" />
    <glyph glyph-name="uni2468" unicode="&#x2468;" horiz-adv-x="2048" 
d="M1147 1075q53 0 101 -21.5t85 -59.5t58.5 -88t21.5 -107q0 -39 -10 -73t-21 -58q-14 -29 -30 -54l-246 -368h-62l205 297q-12 -6 -28 -11q-31 -10 -74 -10q-53 0 -101.5 21.5t-85 59.5t-58 88t-21.5 108q0 57 21.5 107t58 88t85 59.5t101.5 21.5zM1362 799q0 45 -17.5 86
t-47 71.5t-68.5 49t-82 18.5t-82 -18.5t-68.5 -49t-47 -71.5t-17.5 -86q0 -47 17.5 -88t47 -72t68.5 -48.5t82 -17.5t82 17.5t68.5 48.5t47 72t17.5 88zM1966 655q0 -170 -64.5 -318.5t-176 -260t-261 -176t-317.5 -64.5q-170 0 -318.5 64.5t-260 175t-176 260t-64.5 319.5
q0 168 64.5 317.5t176 261.5t260 176.5t318.5 64.5q168 0 317.5 -64.5t261 -176.5t176 -261.5t64.5 -317.5zM1915 655q0 158 -61.5 297.5t-166 243.5t-243.5 165.5t-297 61.5t-297 -61.5t-243.5 -165.5t-166 -243.5t-61.5 -297.5q0 -160 61.5 -299t166 -243.5t243.5 -165
t297 -60.5t297 61.5t243.5 166t166 243.5t61.5 297z" />
    <glyph glyph-name="uni24EA" unicode="&#x24ea;" horiz-adv-x="2048" 
d="M881 655q0 -88 22.5 -156.5t60 -115.5t86 -71.5t97.5 -24.5t97 24.5t86 71.5t60.5 115.5t22.5 156.5t-22.5 157t-60.5 116t-86 71.5t-97 24.5t-97.5 -24.5t-86 -71.5t-60 -116t-22.5 -157zM1464 655q0 -100 -26.5 -178t-70.5 -132t-101.5 -81.5t-118.5 -27.5t-118.5 27.5
t-101.5 81.5t-71 132t-27 178t27 178t71 131.5t101 82t119 28.5q61 0 118.5 -28.5t101.5 -82t70.5 -131.5t26.5 -178zM328 655q0 168 64.5 317.5t176 261.5t260 176.5t318.5 64.5q168 0 317.5 -64.5t261 -175.5t176 -260.5t64.5 -319.5t-64.5 -318.5t-176 -260t-261 -176
t-317.5 -64.5q-170 0 -318.5 64.5t-260 176t-176 260t-64.5 318.5zM379 655q0 -158 61.5 -297t166 -243.5t243.5 -166t297 -61.5t297 61.5t243.5 166t166 244t61.5 296.5q0 160 -61.5 299.5t-166 244t-243.5 164.5t-297 60t-297 -61.5t-243.5 -165.5t-166 -243.5
t-61.5 -297.5z" />
    <glyph glyph-name="uni24FF" unicode="&#x24ff;" horiz-adv-x="2048" 
d="M881 655q0 88 22.5 157t60 116t86 71.5t97.5 24.5t97 -24.5t86 -71.5t60.5 -116t22.5 -157t-22.5 -156.5t-60.5 -115.5t-86 -71.5t-97 -24.5t-97.5 24.5t-86 71.5t-60 115.5t-22.5 156.5zM1464 655q0 100 -26.5 178t-70.5 131.5t-101.5 82t-118.5 28.5t-118.5 -28.5
t-101.5 -82t-71 -131t-27 -178.5q0 -100 27 -178t71 -132t101 -81.5t119 -27.5q61 0 118.5 27.5t101.5 81.5t70.5 132t26.5 178zM328 655q0 168 64.5 317.5t176 261.5t260 176.5t318.5 64.5q168 0 317.5 -64.5t261 -175.5t176 -260.5t64.5 -319.5t-64.5 -318.5t-176 -260
t-261 -176t-317.5 -64.5q-170 0 -318.5 64.5t-260 176t-176 260t-64.5 318.5z" />
    <glyph glyph-name="uni2776" unicode="&#x2776;" horiz-adv-x="2048" 
d="M328 655q0 168 64.5 317.5t176 261.5t260 176.5t318.5 64.5q168 0 317.5 -64.5t261 -175.5t176 -260.5t64.5 -319.5t-64.5 -318.5t-176 -260t-261 -176t-317.5 -64.5q-170 0 -318.5 64.5t-260 176t-176 260t-64.5 318.5zM1178 1065l-195 -133l31 -41l164 113v-758h51v819
h-51z" />
    <glyph glyph-name="uni2777" unicode="&#x2777;" horiz-adv-x="2048" 
d="M973 297l287 297q35 35 61 74q23 35 42 77.5t19 94.5q0 49 -18 92t-50 74.5t-75 50t-92 18.5q-109 0 -178.5 -67.5t-77.5 -167.5h51q8 78 63.5 131t141.5 53q78 0 131 -53t53 -131q0 -43 -16.5 -80t-34.5 -66q-23 -33 -51 -59l-328 -348v-41h492v51h-420zM328 655
q0 168 64.5 317.5t176 261.5t260 176.5t318.5 64.5q168 0 317.5 -64.5t261 -175.5t176 -260.5t64.5 -319.5t-64.5 -318.5t-176 -260t-261 -176t-317.5 -64.5q-170 0 -318.5 64.5t-260 176t-176 260t-64.5 318.5z" />
    <glyph glyph-name="uni2778" unicode="&#x2778;" horiz-adv-x="2048" 
d="M1270 676q35 14 61 39q23 23 42.5 57.5t19.5 87.5q0 92 -64.5 153.5t-181.5 61.5q-49 0 -93 -17.5t-76 -47t-52.5 -68.5t-24.5 -82h51q4 31 20.5 60.5t42 52t59.5 37t73 14.5q92 0 143 -47t51 -117t-51 -117t-143 -47h-62v-51h62q100 0 157.5 -53t57.5 -131
q0 -70 -57.5 -122t-157.5 -52q-92 0 -146.5 47t-70.5 117h-49q16 -92 82.5 -153.5t183.5 -61.5q123 0 194.5 66.5t71.5 158.5q0 61 -22.5 101t-49.5 63q-33 27 -71 41v10zM328 655q0 168 64.5 317.5t176 261.5t260 176.5t318.5 64.5q168 0 317.5 -64.5t261 -175.5
t176 -260.5t64.5 -319.5t-64.5 -318.5t-176 -260t-261 -176t-317.5 -64.5q-170 0 -318.5 64.5t-260 176t-176 260t-64.5 318.5z" />
    <glyph glyph-name="uni2779" unicode="&#x2779;" horiz-adv-x="2048" 
d="M1341 502h-92v563h-51l-399 -573v-41h399v-205h51v205h92v51zM860 502l338 481v-481h-338zM328 655q0 168 64.5 317.5t176 261.5t260 176.5t318.5 64.5q168 0 317.5 -64.5t261 -175.5t176 -260.5t64.5 -319.5t-64.5 -318.5t-176 -260t-261 -176t-317.5 -64.5
q-170 0 -318.5 64.5t-260 176t-176 260t-64.5 318.5z" />
    <glyph glyph-name="uni277A" unicode="&#x277a;" horiz-adv-x="2048" 
d="M1147 768q-43 0 -75 -10t-54 -21q-25 -14 -45 -30l31 307h358v51h-399l-52 -461h52q14 31 38 55q23 23 58 40.5t88 17.5q92 0 153.5 -61.5t61.5 -153.5t-61.5 -153.5t-153.5 -61.5t-145.5 48t-69.5 126h-51q16 -100 82.5 -162.5t183.5 -62.5t191.5 74.5t74.5 191.5
t-74.5 191.5t-191.5 74.5zM328 655q0 168 64.5 317.5t176 261.5t260 176.5t318.5 64.5q168 0 317.5 -64.5t261 -175.5t176 -260.5t64.5 -319.5t-64.5 -318.5t-176 -260t-261 -176t-317.5 -64.5q-170 0 -318.5 64.5t-260 176t-176 260t-64.5 318.5z" />
    <glyph glyph-name="uni277B" unicode="&#x277b;" horiz-adv-x="2048" 
d="M1147 236q53 0 101 21.5t85 59t58.5 88t21.5 107.5t-21.5 107.5t-58.5 88t-85 59t-101 21.5q-23 0 -41.5 -3t-32.5 -7q-16 -6 -29 -10l205 297h-61l-246 -369q-18 -25 -31 -53q-12 -25 -21 -58.5t-9 -72.5q0 -57 21.5 -107.5t58 -88t85 -59t101.5 -21.5zM932 512
q0 45 17.5 86t47 71.5t68.5 49t82 18.5t82 -18.5t68.5 -49t47 -71.5t17.5 -86q0 -47 -17.5 -88t-47 -71.5t-68.5 -48t-82 -17.5t-82 17.5t-68.5 48t-47 71.5t-17.5 88zM328 655q0 168 64.5 317.5t176 261.5t260 176.5t318.5 64.5q168 0 317.5 -64.5t261 -175.5t176 -260.5
t64.5 -319.5t-64.5 -318.5t-176 -260t-261 -176t-317.5 -64.5q-170 0 -318.5 64.5t-260 176t-176 260t-64.5 318.5z" />
    <glyph glyph-name="uni277C" unicode="&#x277c;" horiz-adv-x="2048" 
d="M922 1065v-51h430l-359 -768h51l359 778v41h-481zM328 655q0 168 64.5 317.5t176 261.5t260 176.5t318.5 64.5q168 0 317.5 -64.5t261 -175.5t176 -260.5t64.5 -319.5t-64.5 -318.5t-176 -260t-261 -176t-317.5 -64.5q-170 0 -318.5 64.5t-260 176t-176 260t-64.5 318.5z
" />
    <glyph glyph-name="uni277D" unicode="&#x277d;" horiz-adv-x="2048" 
d="M1147 236q61 0 110.5 19t84 52t53 75t18.5 89q0 57 -24.5 96t-53.5 64q-35 29 -75 45q35 18 61 43q23 23 42 56.5t19 84.5q0 43 -16 82t-47 68.5t-75 47t-97 17.5t-97 -17.5t-75 -47t-47.5 -68.5t-16.5 -82q0 -51 19.5 -85t42.5 -56q27 -25 61 -43q-43 -16 -78 -45
q-29 -25 -52 -64t-23 -96q0 -47 18.5 -89t53 -75t84 -52t110.5 -19zM1147 655q49 0 89 -15t67.5 -42t43 -59.5t15.5 -67.5t-15.5 -67.5t-43 -59.5t-67.5 -42t-89 -15t-89 15t-67.5 42t-43 59.5t-15.5 67.5t15.5 67.5t43 59.5t67.5 42t89 15zM1147 1024q86 0 135 -51t49 -113
q0 -61 -49 -112.5t-135 -51.5t-135 51.5t-49 112.5t49 112.5t135 51.5zM328 655q0 168 64.5 317.5t176 261.5t260 176.5t318.5 64.5q168 0 317.5 -64.5t261 -175.5t176 -260.5t64.5 -319.5t-64.5 -318.5t-176 -260t-261 -176t-317.5 -64.5q-170 0 -318.5 64.5t-260 176
t-176 260t-64.5 318.5z" />
    <glyph glyph-name="uni277E" unicode="&#x277e;" horiz-adv-x="2048" 
d="M1147 1075q-53 0 -101.5 -21.5t-85 -59.5t-58 -88t-21.5 -107t21.5 -107.5t58 -88.5t85 -59.5t101.5 -21.5q43 0 74 10q16 4 28 11l-205 -297h62l246 368q16 25 30 54q10 25 20.5 58.5t10.5 72.5q0 57 -21.5 107t-58.5 88t-85 59.5t-101 21.5zM1362 799q0 -47 -17.5 -88
t-47 -72t-68.5 -48.5t-82 -17.5t-82 17.5t-68.5 48.5t-47 72t-17.5 88q0 45 17.5 86t47 71.5t68.5 49t82 18.5t82 -18.5t68.5 -49t47 -71.5t17.5 -86zM1966 655q0 -170 -64.5 -318.5t-176 -260t-261 -176t-317.5 -64.5q-170 0 -318.5 64.5t-260 175t-176 260t-64.5 319.5
q0 168 64.5 317.5t176 261.5t260 176.5t318.5 64.5q168 0 317.5 -64.5t261 -176.5t176 -261.5t64.5 -317.5z" />
    <glyph glyph-name="uniF6C3" unicode="&#xf6c3;" horiz-adv-x="245" 
d="M51 -213q0 20 13.5 34.5t33.5 14.5q47 0 47 -61q0 -43 -20.5 -80t-44.5 -66q-29 -33 -64 -61l-12 12q23 23 41 49q16 23 29.5 51.5t17.5 63.5q-16 2 -28.5 14.5t-12.5 28.5z" />
    <glyph glyph-name="uniF6D1" unicode="&#xf6d1;" horiz-adv-x="573" 
d="M563 1485q72 0 123 43t64 110h51q-16 -96 -83 -150t-165 -54t-152.5 59t-50.5 145h51q-2 -72 40 -112.5t122 -40.5z" />
    <glyph glyph-name="uniF6D4" unicode="&#xf6d4;" horiz-adv-x="532" 
d="M475 1126q61 0 112.5 41t63.5 103h51q-14 -86 -80.5 -140.5t-154.5 -54.5q-43 0 -80 16.5t-63.5 43t-41 61.5t-10.5 74h52q-2 -61 39.5 -102.5t111.5 -41.5z" />
    <glyph glyph-name="uniF730" unicode="&#xf730;" horiz-adv-x="1146" 
d="M592 -10q-78 0 -147.5 29.5t-123 82t-85 123t-31.5 154.5q0 121 42 219t111.5 168t161.5 107.5t193 37.5q76 0 146.5 -29.5t123.5 -81.5t85 -124t32 -154q0 -121 -42 -219t-111.5 -167.5t-162 -107.5t-192.5 -38zM600 41q88 0 169 34t143.5 96t99.5 149.5t37 191.5
q0 78 -27 141.5t-74 109.5t-109.5 71.5t-133.5 25.5q-88 0 -169 -33.5t-143.5 -96t-99.5 -149.5t-37 -192q0 -78 26.5 -141.5t73.5 -109.5t109.5 -71.5t134.5 -25.5z" />
    <glyph glyph-name="uniF731" unicode="&#xf731;" horiz-adv-x="604" 
d="M578 901l-158 -901h-51l147 836l-309 -193l-25 43l344 215h52z" />
    <glyph glyph-name="uniF732" unicode="&#xf732;" horiz-adv-x="942" 
d="M827 51l-8 -51h-696l8 51l483 297q131 82 194.5 149.5t63.5 157.5q0 86 -62 145.5t-187 59.5q-129 0 -220.5 -68.5t-126.5 -177.5h-51q41 139 146.5 218t259.5 79q68 0 122 -20.5t92 -54t58.5 -78.5t20.5 -96q0 -55 -16.5 -102.5t-52.5 -89.5t-90 -83t-130 -86l-416 -250
h608z" />
    <glyph glyph-name="uniF733" unicode="&#xf733;" horiz-adv-x="1003" 
d="M322 901h655l-6 -41l-512 -512q10 2 22 4q10 2 25.5 4t36.5 2q82 0 147.5 -26.5t110.5 -71.5t68.5 -105.5t23.5 -127.5q0 -94 -32 -172t-90 -134.5t-142 -88t-189 -31.5q-86 0 -153.5 25.5t-114.5 69.5t-72.5 103.5t-25.5 128.5h51q4 -123 88 -199.5t238 -76.5
q88 0 160.5 27.5t123.5 75.5t79 116t28 147q0 123 -79 206t-228 83q-31 0 -56.5 -3t-44.5 -7q-23 -6 -37 -10l-24 45l518 518h-578z" />
    <glyph glyph-name="uniF734" unicode="&#xf734;" horiz-adv-x="942" 
d="M881 0h-154l-70 -389h-51l70 389h-635l8 51l774 850h62l-150 -850h154zM684 51l137 774l-704 -774h567z" />
    <glyph glyph-name="uniF735" unicode="&#xf735;" horiz-adv-x="1024" 
d="M594 440q78 0 142 -28q65 -29 112 -78t74 -116t26 -142q0 -104 -37 -193q-37 -88 -101 -150q-65 -62 -150 -98q-85 -35 -181 -34q-86 0 -152 25q-67 26 -113 70t-70 103t-23 129h51q2 -123 82 -199q80 -77 233 -77q82 0 157 32t131 87t89 130t33 162q0 70 -21 131
q-22 60 -62 103t-97 68t-129 24q-100 0 -165 -32t-106 -70q-47 -45 -73 -103h-51l208 717h605l-11 -51h-555l-157 -533q29 35 71 62q37 23 96 42q58 19 144 19z" />
    <glyph glyph-name="uniF736" unicode="&#xf736;" horiz-adv-x="1013" 
d="M530 -10q-80 0 -146 27q-67 28 -115 76t-75 115q-28 67 -28 144q0 63 12 117q12 53 39 103t66 102q39 51 92 112l432 504h65l-446 -520q23 16 55 29q29 10 70 20t94 10q80 0 145 -28q65 -29 111 -79q47 -50 73 -117t25 -140q0 -106 -37 -194q-38 -87 -103 -149t-149 -97
q-86 -35 -180 -35zM637 778q-82 0 -157 -33t-133 -90t-93 -132t-35 -161q0 -145 87 -233t233 -88q82 0 156 32q75 32 131 87t89 130t33 163q0 70 -20 129t-61 103q-40 44 -97 69q-57 24 -133 24z" />
    <glyph glyph-name="uniF737" unicode="&#xf737;" horiz-adv-x="849" 
d="M965 901l-11 -51l-782 -1239h-61l782 1239h-676l10 51h738z" />
    <glyph glyph-name="uniF738" unicode="&#xf738;" horiz-adv-x="1024" 
d="M719 1300q68 0 125 -22q57 -23 100 -61q43 -39 68 -93q25 -53 24 -112q0 -106 -41 -172t-88 -103q-57 -43 -129 -65q55 -25 99 -64q37 -35 68 -90q32 -55 32 -135q0 -86 -32 -159t-90 -125t-139 -81t-179 -28q-78 0 -146 23q-68 24 -117 67t-77 102q-29 59 -29 131
q0 59 13 108q13 48 36 86t51 66q29 29 60 50q70 49 161 71q-45 20 -79 58q-31 29 -56 76q-25 48 -24 116q0 80 28 147q29 67 80 112q51 46 123 72q72 25 158 25zM545 41q82 0 151 26q70 26 121 70q51 45 80 106q29 60 29 130q0 135 -91 209t-235 73q-82 0 -151 -25
q-70 -26 -121 -71t-80 -105t-29 -130q0 -135 91 -209q92 -74 235 -74zM655 707q70 0 130 21q60 22 105 60q44 39 69 94q26 54 26 119q0 55 -20 102q-20 46 -58 78q-37 32 -87 50t-109 18q-70 0 -130 -21q-60 -22 -105 -61q-44 -39 -69 -93q-26 -54 -26 -120q0 -55 20 -101
t58 -78q37 -32 87 -50t109 -18z" />
    <glyph glyph-name="uniF739" unicode="&#xf739;" horiz-adv-x="1013" 
d="M647 911q80 0 147 -27q67 -28 114 -76q48 -48 76 -115t28 -144q0 -63 -13 -117q-12 -53 -38 -103q-27 -50 -66 -102q-39 -51 -92 -112l-432 -504h-66l447 520q-23 -18 -56 -31q-29 -10 -69 -19q-41 -9 -95 -9q-80 0 -144 28q-65 29 -112 79t-72 117q-26 67 -26 140
q0 106 38 194q38 87 102 149q65 62 150 98q85 34 179 34zM541 123q82 0 156 33q75 33 133 90t94 132q35 75 34 161q0 145 -87 233t-232 88q-82 0 -157 -32t-131 -87t-89 -130t-33 -162q0 -70 21 -130q20 -59 60 -103t98 -69q57 -24 133 -24z" />
    <glyph glyph-name="uniFB06" unicode="&#xfb06;" horiz-adv-x="1413" 
d="M752 246q0 -66 -25 -113t-67 -80t-99 -48t-123 -15q-68 0 -122 19.5t-94 51t-61.5 74.5t-21.5 92v27q0 8 2 12h54v-30q0 -88 66.5 -141.5t189.5 -53.5q117 0 184 54.5t67 140.5q0 61 -35.5 101t-88 68.5t-115 51t-114.5 51.5t-88 67.5t-36 100.5q0 98 78 166.5t225 68.5
q35 0 60.5 -5t42.5 -11l35 -14q-18 23 -31 49q-10 23 -19.5 55.5t-9.5 69.5q0 74 26.5 134t75 103t113 66.5t140.5 23.5q66 0 122 -19.5t97 -57t64.5 -92t23.5 -123.5q0 -49 -8 -97l-17 -92h236l-9 -51h-235l-107 -600q-6 -31 -6 -57q0 -74 40 -113t114 -39q16 0 26.5 1
t20.5 3q8 2 18 4l-8 -49q-10 -4 -18 -6q-10 -2 -20.5 -3t-26.5 -1q-88 0 -142.5 53t-54.5 147q0 29 6 60l107 600h-185l9 51h98q47 0 69.5 17.5t30.5 64.5l2 10q8 41 9 86q0 129 -72 190.5t-195 61.5q-133 0 -213 -77.5t-80 -196.5q0 -61 25 -108.5t54.5 -89.5t54 -86
t24.5 -101q0 -4 -1 -9.5t-1 -9.5v-8h-49v23q0 92 -65.5 142t-178.5 50q-123 0 -183.5 -53t-60.5 -121q0 -53 35 -87t88.5 -59.5t114.5 -49t114.5 -54t88.5 -75.5t35 -115z" />
    <glyph glyph-name="lslash.salt" horiz-adv-x="481" 
d="M113 524l192 111l117 655h51l-111 -622l195 112l-12 -63l-195 -113l-65 -377q-6 -37 -6 -63q0 -66 32.5 -94.5t94.5 -28.5q27 0 47 4l16 4l-8 -51q-8 -2 -17 -4q-20 -4 -47 -4q-78 0 -125 41t-47 127q0 29 6 59l64 354l-195 -110z" />
    <glyph glyph-name="glyph484" horiz-adv-x="1177" 
d="M821 717q78 0 139.5 -24.5t104.5 -67.5t65.5 -99.5t22.5 -119.5q0 -90 -29.5 -165t-86 -128.5t-137.5 -83t-183 -29.5h-164l8 51h164q86 0 155.5 25.5t119 72t75 108.5t25.5 138q0 117 -71 194t-216 77h-92l8 51l438 522h-448q-131 0 -216 -76t-114 -229l-164 -934h-51
l164 934q33 186 135 271t256 85h512l-10 -51l-438 -522h28z" />
    <glyph glyph-name="a.salt" horiz-adv-x="1075" 
d="M932 0h-41l29 217h-11q-43 -63 -98 -115q-47 -43 -117.5 -77.5t-163.5 -34.5q-74 0 -139 29.5t-116.5 82t-81 123t-29.5 154.5q0 121 41 219t109.5 168t156.5 107.5t180 37.5q98 0 164 -34.5t105 -75.5q45 -49 71 -111h10l48 211h41zM643 860q-80 0 -157.5 -34.5
t-137 -97t-96.5 -148.5t-37 -191q0 -78 25.5 -141.5t68.5 -109.5t102.5 -71.5t127.5 -25.5q80 0 156.5 41t137 110.5t97.5 163t37 195.5q0 74 -26 131t-70 97t-102 60.5t-126 20.5z" />
    <glyph glyph-name="uni0443.salt" horiz-adv-x="880" 
d="M987 901l-708 -1229h-58l230 394l-242 835h51l221 -762h11l438 762h57z" />
    <glyph glyph-name="l.salt" horiz-adv-x="440" 
d="M244 227q-6 -37 -6 -63q0 -66 32.5 -94.5t94.5 -28.5q27 0 47 4l16 4l-8 -51q-8 -2 -17 -4q-20 -4 -47 -4q-78 0 -125 41t-47 127q0 29 6 59l191 1073h51z" />
    <glyph glyph-name="y.salt" horiz-adv-x="1013" 
d="M854 199h-10q-31 -51 -76 -90q-39 -35 -98.5 -62t-145.5 -27q-68 0 -125 21.5t-100 63.5t-66.5 100.5t-23.5 132.5q0 20 2 40.5t6 43.5l84 479h51l-84 -479q-4 -23 -6 -42.5t-2 -37.5q0 -127 73 -198.5t199 -71.5q70 0 131.5 28.5t108.5 79.5t79 119t46 147l80 455h51
l-151 -866q-33 -186 -133.5 -284.5t-262.5 -98.5q-84 0 -145.5 22.5t-103.5 60.5t-63.5 88t-23.5 105h52q10 -109 77.5 -167t214.5 -58q139 0 223.5 86t112.5 246z" />
    <glyph glyph-name="I.salt" horiz-adv-x="624" 
d="M299 1239l10 51h461l-10 -51h-205l-209 -1188h205l-8 -51h-461l8 51h205l209 1188h-205z" />
    <glyph glyph-name="c_t.dlig" horiz-adv-x="1546" 
d="M1317 850h-184l8 51h98q47 0 69.5 17.5t30.5 64.5l2 10q8 41 9 86q0 129 -72 190.5t-195 61.5q-133 0 -212.5 -77.5t-79.5 -196.5q0 -68 28.5 -121t65.5 -103.5t70.5 -104.5t43.5 -124h-53q-25 117 -105.5 186.5t-197.5 69.5q-80 0 -157.5 -34.5t-137 -97t-96.5 -148.5
t-37 -191q0 -78 25.5 -141.5t68.5 -109.5t102.5 -71.5t127.5 -25.5q121 0 215 65.5t149 180.5h55q-61 -141 -176.5 -219t-251.5 -78q-74 0 -139 29.5t-116.5 82t-81 123t-29.5 154.5q0 121 41 219t109.5 168t156.5 107.5t180 37.5q33 0 59.5 -6t45.5 -12q23 -8 39 -19
q-16 20 -29 50q-10 23 -18.5 56.5t-8.5 74.5q0 74 27 134t75 103t112.5 66.5t140.5 23.5q66 0 122 -19.5t97 -57t64.5 -92t23.5 -123.5q0 -49 -8 -97l-17 -92h236l-8 -51h-236l-106 -600q-6 -31 -7 -57q0 -74 40 -113t114 -39q16 0 26.5 1t20.5 3q8 2 19 4l-9 -49
q-10 -4 -18 -6q-10 -2 -20.5 -3t-26.5 -1q-88 0 -142.5 53t-54.5 147q0 29 6 60z" />
    <glyph glyph-name="r_f.dlig" horiz-adv-x="983" 
d="M1102 850h-236l-149 -850h-51l149 850h-172q-63 0 -121.5 -23.5t-107.5 -68.5t-84 -110.5t-49 -149.5l-86 -498h-52l158 901h41l-20 -168h10q29 47 76 84q39 31 99 57.5t144 26.5h172l29 164q23 123 87.5 179t168.5 56q18 0 33.5 -2t25.5 -4q12 -4 23 -6l-10 -49
q-10 2 -23 4q-10 2 -25.5 4t-31.5 2q-166 0 -197 -184l-29 -164h236z" />
    <glyph glyph-name="r_t.dlig" horiz-adv-x="1044" 
d="M815 850h-172q-63 0 -121.5 -23.5t-107.5 -68.5t-84 -110.5t-49 -149.5l-86 -498h-52l158 901h41l-20 -168h10q29 47 76 84q39 31 99 57.5t144 26.5h86q47 0 69.5 17.5t31.5 64.5l32 184h52l-48 -266h236l-8 -51h-236l-106 -600q-18 -100 21.5 -154.5t125.5 -54.5
q16 0 26.5 1t20.5 3q8 2 19 4l-8 -49q-10 -4 -19 -6q-10 -2 -20.5 -3t-26.5 -1q-88 0 -142.5 53t-54.5 147q0 29 7 60z" />
    <glyph glyph-name="uni0430.salt" horiz-adv-x="1075" 
d="M932 0h-41l29 217h-11q-43 -63 -98 -115q-47 -43 -118 -77q-71 -35 -163 -35q-74 0 -139 29q-66 30 -117 82t-80 123q-30 71 -30 155q0 121 41 219t109 168q69 70 157 107q88 38 180 38q98 0 164 -34q66 -35 105 -76q45 -49 71 -111h10l48 211h41zM643 860
q-80 0 -158 -35t-137 -97t-96 -148t-37 -191q0 -78 26 -141t68 -110q43 -46 103 -71q59 -26 127 -26q80 0 156 41q77 41 138 111q60 70 97 162q37 93 37 196q0 74 -26 131t-70 97t-102 61q-58 20 -126 20z" />
    <glyph glyph-name="uni045E.salt" horiz-adv-x="880" 
d="M623 1116q61 0 112 41t64 103h51q-14 -86 -81 -141q-67 -54 -155 -54q-43 0 -79 16q-37 16 -64 43t-41 62t-10 74h51q-2 -61 40 -103q42 -41 112 -41zM987 901l-708 -1229h-58l230 394l-242 835h51l221 -762h11l438 762h57z" />
    <glyph glyph-name="agrave.salt" horiz-adv-x="1075" 
d="M731 1075h-29l-127 246h78zM932 0h-41l29 217h-11q-43 -63 -98 -115q-47 -43 -118 -77q-71 -35 -163 -35q-74 0 -139 29q-66 30 -117 82t-80 123q-30 71 -30 155q0 121 41 219t109 168q69 70 157 107q88 38 180 38q98 0 164 -34q66 -35 105 -76q45 -49 71 -111h10l48 211
h41zM643 860q-80 0 -158 -35t-137 -97t-96 -148t-37 -191q0 -78 26 -141t68 -110q43 -46 103 -71q59 -26 127 -26q80 0 156 41q77 41 138 111q60 70 97 162q37 93 37 196q0 74 -26 131t-70 97t-102 61q-58 20 -126 20z" />
    <glyph glyph-name="aacute.salt" horiz-adv-x="1075" 
d="M852 1321h86l-215 -246h-39zM932 0h-41l29 217h-11q-43 -63 -98 -115q-47 -43 -118 -77q-71 -35 -163 -35q-74 0 -139 29q-66 30 -117 82t-80 123q-30 71 -30 155q0 121 41 219t109 168q69 70 157 107q88 38 180 38q98 0 164 -34q66 -35 105 -76q45 -49 71 -111h10
l48 211h41zM643 860q-80 0 -158 -35t-137 -97t-96 -148t-37 -191q0 -78 26 -141t68 -110q43 -46 103 -71q59 -26 127 -26q80 0 156 41q77 41 138 111q60 70 97 162q37 93 37 196q0 74 -26 131t-70 97t-102 61q-58 20 -126 20z" />
    <glyph glyph-name="abreve.salt" horiz-adv-x="1075" 
d="M729 1116q61 0 113 41q51 41 63 103h51q-14 -86 -80 -141q-67 -54 -155 -54q-43 0 -80 16t-63 43q-27 27 -41 62t-11 74h52q-2 -61 39 -103q42 -41 112 -41zM932 0h-41l29 217h-11q-43 -63 -98 -115q-47 -43 -118 -77q-71 -35 -163 -35q-74 0 -139 29q-66 30 -117 82
t-80 123q-30 71 -30 155q0 121 41 219t109 168q69 70 157 107q88 38 180 38q98 0 164 -34q66 -35 105 -76q45 -49 71 -111h10l48 211h41zM643 860q-80 0 -158 -35t-137 -97t-96 -148t-37 -191q0 -78 26 -141t68 -110q43 -46 103 -71q59 -26 127 -26q80 0 156 41
q77 41 138 111q60 70 97 162q37 93 37 196q0 74 -26 131t-70 97t-102 61q-58 20 -126 20z" />
    <glyph glyph-name="acircumflex.salt" horiz-adv-x="1075" 
d="M930 1075h-56l-133 182l-196 -182h-66l246 225h41zM932 0h-41l29 217h-11q-43 -63 -98 -115q-47 -43 -118 -77q-71 -35 -163 -35q-74 0 -139 29q-66 30 -117 82t-80 123q-30 71 -30 155q0 121 41 219t109 168q69 70 157 107q88 38 180 38q98 0 164 -34q66 -35 105 -76
q45 -49 71 -111h10l48 211h41zM643 860q-80 0 -158 -35t-137 -97t-96 -148t-37 -191q0 -78 26 -141t68 -110q43 -46 103 -71q59 -26 127 -26q80 0 156 41q77 41 138 111q60 70 97 162q37 93 37 196q0 74 -26 131t-70 97t-102 61q-58 20 -126 20z" />
    <glyph glyph-name="adieresis.salt" horiz-adv-x="1075" 
d="M537 1167q0 23 14 37t37 15q18 0 30 -13q12 -12 13 -28q0 -23 -15 -37q-14 -14 -36 -15q-18 0 -31 13q-12 12 -12 28zM834 1167q0 23 14 37t37 15q18 0 30 -13q12 -12 13 -28q0 -23 -15 -37q-14 -14 -36 -15q-18 0 -31 13q-12 12 -12 28zM932 0h-41l29 217h-11
q-43 -63 -98 -115q-47 -43 -118 -77q-71 -35 -163 -35q-74 0 -139 29q-66 30 -117 82t-80 123q-30 71 -30 155q0 121 41 219t109 168q69 70 157 107q88 38 180 38q98 0 164 -34q66 -35 105 -76q45 -49 71 -111h10l48 211h41zM643 860q-80 0 -158 -35t-137 -97t-96 -148
t-37 -191q0 -78 26 -141t68 -110q43 -46 103 -71q59 -26 127 -26q80 0 156 41q77 41 138 111q60 70 97 162q37 93 37 196q0 74 -26 131t-70 97t-102 61q-58 20 -126 20z" />
    <glyph glyph-name="amacron.salt" horiz-adv-x="1075" 
d="M956 1147h-471l11 51h471zM932 0h-41l29 217h-11q-43 -63 -98 -115q-47 -43 -118 -77q-71 -35 -163 -35q-74 0 -139 29q-66 30 -117 82t-80 123q-30 71 -30 155q0 121 41 219t109 168q69 70 157 107q88 38 180 38q98 0 164 -34q66 -35 105 -76q45 -49 71 -111h10l48 211
h41zM643 860q-80 0 -158 -35t-137 -97t-96 -148t-37 -191q0 -78 26 -141t68 -110q43 -46 103 -71q59 -26 127 -26q80 0 156 41q77 41 138 111q60 70 97 162q37 93 37 196q0 74 -26 131t-70 97t-102 61q-58 20 -126 20z" />
    <glyph glyph-name="aogonek.salt" horiz-adv-x="1075" 
d="M932 0q-39 -27 -68 -57q-25 -27 -45 -61t-20 -68q0 -90 104 -90q18 0 39 4l16 4l-10 -51q-8 -2 -16 -5q-20 -4 -39 -4q-68 0 -108 38t-40 93q0 39 20.5 76t46.5 64.5t49.5 45t29.5 21.5l29 207h-11q-43 -63 -98 -115q-47 -43 -117.5 -77.5t-163.5 -34.5q-74 0 -139 29.5
t-116.5 82t-81 123t-29.5 154.5q0 121 41 219t109.5 168t156.5 107.5t180 37.5q98 0 164 -34.5t105 -75.5q45 -49 71 -111h10l48 211h41zM643 860q-80 0 -157.5 -34.5t-137 -97t-96.5 -148.5t-37 -191q0 -78 25.5 -141.5t68.5 -109.5t102.5 -71.5t127.5 -25.5q80 0 156.5 41
t137 110.5t97.5 163t37 195.5q0 74 -26 131t-70 97t-102 60.5t-126 20.5z" />
    <glyph glyph-name="aring.salt" horiz-adv-x="1075" 
d="M752 1372q63 0 106 -43t43 -100q0 -80 -52 -132t-132 -53q-63 0 -107 43q-43 43 -43 101q0 80 53 132q52 52 132 52zM727 1096q47 0 85 31q38 32 38 90q0 47 -29 75q-29 29 -80 29q-47 0 -85 -32t-38 -89q0 -47 29 -76q29 -28 80 -28zM932 0h-41l29 217h-11
q-43 -63 -98 -115q-47 -43 -118 -77q-71 -35 -163 -35q-74 0 -139 29q-66 30 -117 82t-80 123q-30 71 -30 155q0 121 41 219t109 168q69 70 157 107q88 38 180 38q98 0 164 -34q66 -35 105 -76q45 -49 71 -111h10l48 211h41zM643 860q-80 0 -158 -35t-137 -97t-96 -148
t-37 -191q0 -78 26 -141t68 -110q43 -46 103 -71q59 -26 127 -26q80 0 156 41q77 41 138 111q60 70 97 162q37 93 37 196q0 74 -26 131t-70 97t-102 61q-58 20 -126 20z" />
    <glyph glyph-name="atilde.salt" horiz-adv-x="1075" 
d="M860 1126q39 0 70 27t37 96h51q-10 -92 -56 -133t-108 -41q-39 0 -68 21q-29 20 -54 46q-26 26 -50 46q-25 20 -57 20q-39 0 -70 -26q-31 -27 -37 -97h-51q10 92 56 134q46 41 108 41q39 0 67 -21q29 -20 55 -46t50 -46q24 -21 57 -21zM932 0h-41l29 217h-11
q-43 -63 -98 -115q-47 -43 -118 -77q-71 -35 -163 -35q-74 0 -139 29q-66 30 -117 82t-80 123q-30 71 -30 155q0 121 41 219t109 168q69 70 157 107q88 38 180 38q98 0 164 -34q66 -35 105 -76q45 -49 71 -111h10l48 211h41zM643 860q-80 0 -158 -35t-137 -97t-96 -148
t-37 -191q0 -78 26 -141t68 -110q43 -46 103 -71q59 -26 127 -26q80 0 156 41q77 41 138 111q60 70 97 162q37 93 37 196q0 74 -26 131t-70 97t-102 61q-58 20 -126 20z" />
    <glyph glyph-name="lacute.salt" horiz-adv-x="440" 
d="M575 1690h87l-216 -246h-38zM244 227q-6 -37 -6 -63q0 -66 32 -94q33 -29 95 -29q27 0 47 4l16 4l-8 -51q-8 -2 -17 -4q-20 -4 -47 -4q-78 0 -125 41t-47 127q0 29 6 59l191 1073h51z" />
    <glyph glyph-name="lcaron.salt" horiz-adv-x="460" 
d="M637 1290h84l-158 -246h-43zM244 227q-6 -37 -6 -63q0 -66 32.5 -94.5t94.5 -28.5q27 0 47 4l16 4l-8 -51q-8 -2 -17 -4q-20 -4 -47 -4q-78 0 -125 41t-47 127q0 29 6 59l191 1073h51z" />
    <glyph glyph-name="uni013C.salt" horiz-adv-x="440" 
d="M195 -213q0 20 13 35q13 14 34 14q47 0 47 -61q0 -43 -21 -80q-20 -37 -45 -66q-29 -33 -63 -61l-13 12q23 23 41 49q16 23 30 52q13 29 18 63q-16 2 -29 14q-12 13 -12 29zM244 227q-6 -37 -6 -63q0 -66 32 -94q33 -29 95 -29q27 0 47 4l16 4l-8 -51q-8 -2 -17 -4
q-20 -4 -47 -4q-78 0 -125 41t-47 127q0 29 6 59l191 1073h51z" />
    <glyph glyph-name="Igrave.salt" horiz-adv-x="624" 
d="M547 1444h-29l-127 246h78zM299 1239l10 51h461l-10 -51h-205l-209 -1188h205l-8 -51h-461l8 51h205l209 1188h-205z" />
    <glyph glyph-name="Iacute.salt" horiz-adv-x="624" 
d="M698 1690h86l-215 -246h-39zM299 1239l10 51h461l-10 -51h-205l-209 -1188h205l-8 -51h-461l8 51h205l209 1188h-205z" />
    <glyph glyph-name="Icircumflex.salt" horiz-adv-x="624" 
d="M784 1434h-55l-133 182l-197 -182h-65l246 225h41zM299 1239l10 51h461l-10 -51h-205l-209 -1188h205l-8 -51h-461l8 51h205l209 1188h-205z" />
    <glyph glyph-name="Idieresis.salt" horiz-adv-x="624" 
d="M377 1536q0 23 14 37t37 14q18 0 31 -12q12 -12 12 -29q0 -23 -14 -37t-37 -14q-18 0 -31 12q-12 13 -12 29zM674 1536q0 23 14 37t37 14q18 0 31 -12q12 -12 12 -29q0 -23 -14 -37t-37 -14q-18 0 -31 12q-12 13 -12 29zM299 1239l10 51h461l-10 -51h-205l-209 -1188h205
l-8 -51h-461l8 51h205l209 1188h-205z" />
    <glyph glyph-name="Idotaccent.salt" horiz-adv-x="624" 
d="M530 1536q0 23 15 37q14 14 37 14q18 0 30 -12t13 -29q0 -23 -15 -37q-14 -14 -37 -14q-18 0 -30 12q-13 13 -13 29zM299 1239l10 51h461l-10 -51h-205l-209 -1188h205l-8 -51h-461l8 51h205l209 1188h-205z" />
    <glyph glyph-name="Imacron.salt" horiz-adv-x="624" 
d="M299 1239l10 51h461l-10 -51h-205l-209 -1188h205l-8 -51h-461l8 51h205l209 1188h-205zM803 1505h-471l10 51h471z" />
    <glyph glyph-name="Iogonek.salt" horiz-adv-x="624" 
d="M82 0l8 51h205l209 1188h-205l10 51h461l-10 -51h-205l-209 -1188h205l-8 -51q-39 -27 -68 -57q-25 -27 -45 -61t-20 -68q0 -90 104 -90q18 0 39 4l16 4l-10 -51q-8 -2 -16 -5q-20 -4 -39 -4q-68 0 -108 38t-40 93q0 43 19.5 79t42.5 63q27 31 63 55h-399z" />
    <glyph glyph-name="yacute.salt" horiz-adv-x="1013" 
d="M821 1321h86l-215 -246h-39zM854 199h-10q-31 -51 -76 -90q-39 -35 -98 -62t-146 -27q-68 0 -125 22t-100 63q-43 42 -67 101q-24 58 -23 132q0 20 2 41q2 20 6 43l84 479h51l-84 -479q-4 -23 -6 -42t-2 -38q0 -127 73 -199t199 -71q70 0 132 28q61 29 108 80t79 119
t46 147l80 455h51l-151 -866q-33 -186 -134 -285q-100 -98 -262 -98q-84 0 -145 22q-61 23 -104 61q-42 38 -63 88q-22 50 -24 105h52q10 -109 77 -167q68 -58 215 -58q139 0 224 86q84 86 112 246z" />
    <glyph glyph-name="ydieresis.salt" horiz-adv-x="1013" 
d="M512 1167q0 23 14 37t37 15q18 0 31 -13q12 -12 12 -28q0 -23 -14 -37t-37 -15q-18 0 -31 13q-12 12 -12 28zM809 1167q0 23 14 37t37 15q18 0 31 -13q12 -12 12 -28q0 -23 -14 -37t-37 -15q-18 0 -31 13q-12 12 -12 28zM854 199h-10q-31 -51 -76 -90q-39 -35 -98 -62
t-146 -27q-68 0 -125 22t-100 63q-43 42 -67 101q-24 58 -23 132q0 20 2 41q2 20 6 43l84 479h51l-84 -479q-4 -23 -6 -42t-2 -38q0 -127 73 -199t199 -71q70 0 132 28q61 29 108 80t79 119t46 147l80 455h51l-151 -866q-33 -186 -134 -285q-100 -98 -262 -98q-84 0 -145 22
q-61 23 -104 61q-42 38 -63 88q-22 50 -24 105h52q10 -109 77 -167q68 -58 215 -58q139 0 224 86q84 86 112 246z" />
    <glyph glyph-name="zero.tnum" 
d="M96 494q0 193 48 342q48 150 130 253t190 157t224 54q78 0 151 -34q73 -35 129 -101t90 -158q34 -93 34 -210q0 -193 -49 -342q-48 -150 -130 -253t-189 -158q-108 -54 -224 -54q-78 0 -151 35t-129 100q-56 66 -90 159t-34 210zM1038 788q0 109 -28 194q-29 85 -78 144
t-115 92q-66 32 -137 31q-98 0 -194 -50q-95 -50 -170 -146t-120 -236q-46 -139 -46 -315q0 -109 28 -194q29 -85 78 -144t115 -91t137 -32q98 0 193 50t170 147q75 96 121 235t46 315z" />
    <glyph glyph-name="one.tnum" 
d="M770 1290l-219 -1239h287l-9 -51h-624l8 51h287l207 1174l-308 -193l-26 43l346 215h51z" />
    <glyph glyph-name="two.tnum" 
d="M868 51l-8 -51h-747l8 51l553 494q61 55 116 105q54 50 93 102q39 51 61 106q23 55 23 121q0 119 -75 195t-206 75q-141 0 -243 -80q-101 -80 -130 -217h-51q35 166 147 257t285 91q76 0 136 -25q60 -26 104 -69q43 -43 65 -99q23 -56 23 -120q0 -78 -24 -141t-65 -119
q-42 -55 -100 -110q-58 -54 -126 -113l-514 -453h675z" />
    <glyph glyph-name="three.tnum" 
d="M268 983q33 147 147 232t273 85q76 0 138 -24q62 -25 107 -66q44 -41 67 -96q24 -55 24 -117q0 -113 -46 -179q-46 -67 -99 -101q-66 -41 -146 -58q59 -18 107 -55q41 -33 73 -87q33 -54 33 -142q0 -86 -31 -157t-89 -121t-140 -79t-182 -28q-84 0 -153 24
q-69 25 -117 68t-74 100q-27 57 -27 125h53q0 -121 87 -193q87 -73 239 -73q86 0 157 25t121 67q50 43 76 101q27 58 27 128q0 123 -76 198t-235 75h-82l10 51h82q82 0 151 21q70 20 121 59t79 94t28 125q0 117 -75 191t-216 73q-66 0 -125 -19t-106 -54t-81 -84t-49 -109
h-51z" />
    <glyph glyph-name="four.tnum" 
d="M958 328h-153l-57 -328h-52l58 328h-635l8 51l786 911h62l-162 -911h154zM762 379l147 831l-716 -831h569z" />
    <glyph glyph-name="five.tnum" 
d="M614 829q78 0 143 -28q65 -29 111 -78q47 -49 74 -116t27 -142q0 -104 -37 -193q-37 -88 -102 -150t-149 -97q-85 -35 -181 -35q-86 0 -153 25q-67 26 -113 70t-69 103q-24 59 -24 129h52q2 -123 81 -199q80 -77 234 -77q82 0 157 32t131 87t89 130t33 163q0 70 -22 130
t-61 103q-40 43 -98 68q-57 25 -129 24q-100 0 -165 -32t-105 -70q-47 -45 -74 -103h-51l209 717h604l-10 -51h-555l-158 -532q29 35 72 61q37 23 95 42t144 19z" />
    <glyph glyph-name="six.tnum" 
d="M500 -10q-80 0 -147 27q-67 28 -114 76q-48 48 -76 115t-28 144q0 63 12 117q12 53 39 103t66 102q39 51 92 112l432 504h66l-447 -520q23 16 56 29q29 10 69 20q41 10 94 10q80 0 145 -28q65 -29 111 -79q47 -50 73 -117t26 -140q0 -106 -38 -194q-38 -87 -103 -149
t-149 -97q-85 -35 -179 -35zM606 778q-82 0 -156 -33q-75 -33 -134 -90q-58 -57 -93 -132t-35 -161q0 -145 87 -233t233 -88q82 0 157 32t131 87t89 130t33 163q0 70 -21 129q-20 59 -60 103t-98 69q-57 24 -133 24z" />
    <glyph glyph-name="seven.tnum" 
d="M1098 1290l-11 -51l-782 -1239h-61l782 1239h-676l10 51h738z" />
    <glyph glyph-name="eight.tnum" 
d="M688 1300q68 0 125 -22q57 -23 100 -61q43 -39 68 -93q25 -53 25 -112q0 -106 -41 -172t-88 -103q-57 -43 -129 -65q55 -25 98 -64q37 -35 68 -90q32 -55 32 -135q0 -86 -32 -159t-90 -125t-139 -81t-179 -28q-78 0 -146 23q-68 24 -116 67q-49 43 -78 102t-29 131
q0 59 14 108q13 48 35 86q23 38 52 66q29 29 59 50q70 49 162 71q-45 20 -80 58q-31 29 -55 76q-25 48 -25 116q0 80 29 147t80 112q51 46 122 72q72 25 158 25zM514 41q82 0 152 26t120 70q51 45 80 106q29 60 29 130q0 135 -91 209t-235 73q-82 0 -151 -25
q-70 -26 -121 -71t-80 -105t-29 -130q0 -135 92 -209q91 -74 234 -74zM625 707q70 0 130 21q60 22 104 60q44 39 70 94q26 54 25 119q0 55 -20 102q-20 46 -57 78t-87 50t-110 18q-70 0 -130 -21q-60 -22 -105 -61q-44 -39 -69 -93q-26 -54 -26 -120q0 -55 21 -101
q20 -46 57 -78t87 -50q51 -18 110 -18z" />
    <glyph glyph-name="nine.tnum" 
d="M688 1300q80 0 147 -27q67 -28 114 -76q48 -48 76 -115t28 -144q0 -63 -13 -117q-12 -53 -39 -103t-65 -102q-39 -51 -92 -112l-432 -504h-66l447 520q-23 -18 -56 -31q-29 -10 -69 -19q-41 -9 -95 -9q-80 0 -144 28q-65 29 -112 79t-72 117q-26 67 -26 140q0 106 38 194
q38 87 102 149q65 62 150 98q85 34 179 34zM582 512q82 0 156 33q75 33 133 90t94 132q35 75 34 161q0 145 -87 233t-232 88q-82 0 -157 -31q-75 -32 -131 -88q-56 -55 -89 -130t-33 -162q0 -70 21 -129q20 -59 60 -104q40 -44 98 -68q57 -25 133 -25z" />
    <glyph glyph-name="at.case" horiz-adv-x="1536" 
d="M1071 432q-27 -41 -65 -74q-35 -29 -85 -50q-50 -22 -120 -21q-57 0 -108 20q-50 20 -88 58q-38 37 -59 88q-22 51 -22 112q0 86 29 156t77 119t111 75q63 27 133 27q72 0 119 -24q47 -25 76 -54q35 -35 55 -78h11l36 146h31l-72 -397q-16 -82 22 -140q38 -57 118 -57
q37 0 76 18t72 62q34 43 56 113q22 71 21 176q0 111 -40 205q-40 95 -113 166t-176 111t-230 40q-152 0 -282 -53t-225 -147q-95 -93 -149 -217t-55 -265q0 -119 43 -219t119 -173t179 -114t225 -41q68 0 123 14q56 14 98 33q49 23 88 49l24 -41q-43 -31 -96 -53
q-47 -20 -108 -37q-61 -16 -138 -16q-127 0 -238 45q-112 45 -195 125t-130 187q-47 108 -47 231q0 158 59 293q59 136 163 236q103 99 245 157q141 57 305 57q131 0 242 -45t191 -122q81 -77 126 -179t45 -215q0 -117 -25 -200q-26 -83 -68 -134t-93 -75t-100 -23
q-55 0 -91 21q-35 22 -55 50q-23 33 -35 74h-10zM866 891q-61 0 -113 -25t-93 -66q-40 -42 -62 -100q-23 -57 -23 -122q0 -117 67 -179q67 -61 167 -61q59 0 112 24q52 25 92 70t62 106q23 60 23 134q0 98 -65 158q-65 61 -167 61z" />
    <glyph glyph-name="parenleft.case" horiz-adv-x="542" 
d="M664 1423q-115 -131 -205 -286q-39 -66 -76 -144t-66 -166t-45 -182t-16 -194q0 -129 22 -246t48 -205q31 -102 67 -190l-43 -35q-41 96 -74 209q-29 96 -50 219q-22 123 -21 258q0 102 18 201q18 98 47 188t67 170t79 147q94 158 213 293z" />
    <glyph glyph-name="parenright.case" horiz-adv-x="542" 
d="M37 -188q115 131 205 286q39 66 74 144q36 78 65 165t46 182t17 195q-2 129 -22 245t-47 204q-31 102 -68 192l43 35q39 -96 72 -209q29 -96 51 -219q23 -123 23 -258q0 -104 -19 -202q-18 -97 -48 -187t-69 -170t-77 -147q-94 -158 -211 -293z" />
    <glyph glyph-name="bracketleft.case" horiz-adv-x="573" 
d="M199 -164h256l-9 -51h-307l293 1659h307l-10 -51h-256z" />
    <glyph glyph-name="bracketright.case" horiz-adv-x="573" 
d="M535 1393h-256l10 51h307l-293 -1659h-305l6 51h256z" />
    <glyph glyph-name="braceleft.case" horiz-adv-x="624" 
d="M207 635q164 0 194 174l70 399q23 133 86 185q63 51 172 51h62l-11 -51h-61q-86 0 -133 -42t-64 -143l-69 -399q-12 -66 -36 -104q-24 -39 -48 -62q-29 -25 -62 -35q27 -14 47 -41q16 -23 27 -61q10 -39 0 -98l-64 -363q-6 -37 -6 -65q0 -76 40 -110t114 -34h41l-8 -51
h-41q-92 0 -145 50q-52 50 -52 145q0 31 6 65l64 363q16 86 -15 136t-116 50z" />
    <glyph glyph-name="braceright.case" horiz-adv-x="624" 
d="M578 594q-164 0 -195 -174l-70 -400q-23 -133 -87 -184q-65 -51 -171 -51h-61l10 51h62q86 0 133 42t63 142l70 400q10 66 35 104q25 39 49 62q29 25 61 35q-27 14 -47 41q-16 23 -27 61q-10 39 0 98l64 363q6 37 6 65q0 76 -40 110t-114 34h-40l8 51h41q92 0 144 -50
t52 -145q0 -33 -6 -65l-63 -363q-16 -86 14 -136q31 -50 117 -50z" />
    <glyph glyph-name="exclamdown.case" horiz-adv-x="460" 
d="M254 0h-51l170 963h51zM496 1249q0 -23 -14.5 -37t-37.5 -14q-18 0 -30.5 12.5t-12.5 28.5q0 23 14.5 37t37.5 14q18 0 30.5 -12.5t12.5 -28.5z" />
    <glyph glyph-name="questiondown.case" horiz-adv-x="870" 
d="M152 274q0 80 30.5 137.5t76.5 104.5t101.5 88t104.5 91t86 113.5t47 154.5h51l-2 -21q-8 -86 -45 -150.5t-86 -115.5t-104.5 -94t-101.5 -87t-76.5 -94.5t-30.5 -115.5q0 -51 17.5 -95.5t50 -77t79.5 -52t107 -19.5q131 0 223 82t115 225l6 41h51l-6 -41
q-12 -84 -47 -150.5t-87.5 -112.5t-120 -70.5t-142.5 -24.5q-66 0 -120.5 22.5t-94 60.5t-61 90t-21.5 111zM721 1249q0 -23 -14.5 -37t-36.5 -14q-18 0 -30.5 12.5t-12.5 28.5q0 23 14 37t37 14q18 0 30.5 -12.5t12.5 -28.5z" />
    <glyph glyph-name="guillemotleft.case" horiz-adv-x="737" 
d="M182 614l271 308h63l-276 -314l159 -301h-55zM479 614l271 308h63l-276 -314l159 -301h-55z" />
    <glyph glyph-name="guillemotright.case" horiz-adv-x="737" 
d="M715 614l-271 -307h-63l276 314l-159 301h55zM418 614l-271 -307h-63l276 314l-159 301h55z" />
    <glyph glyph-name="guilsinglleft.case" horiz-adv-x="440" 
d="M182 614l271 308h63l-276 -314l159 -301h-55z" />
    <glyph glyph-name="guilsinglright.case" horiz-adv-x="440" 
d="M418 614l-271 -307h-63l276 314l-159 301h55z" />
    <glyph glyph-name="hyphen.case" horiz-adv-x="675" 
d="M702 655h-552l8 52h553z" />
    <glyph glyph-name="endash.case" horiz-adv-x="921" 
d="M948 655h-798l8 52h798z" />
    <glyph glyph-name="emdash.case" horiz-adv-x="1423" 
d="M1450 655h-1300l8 52h1300z" />
    </font>
</defs>
</svg>
