<?xml version="1.0" standalone="no"?>
<!DOCTYPE svg PUBLIC "-//W3C//DTD SVG 1.1//EN" "http://www.w3.org/Graphics/SVG/1.1/DTD/svg11.dtd" >
<svg>
<metadata>
Created by FontForge 20120731 at Wed Jul 10 05:17:49 2019
 By www-data
Copyright (c) 2018 by TypeType. Designers Ivan Gladkikh, Pavel Emelyanov. Technical designers Marina Khodak, Vika Usmanova, Nadyr Rakhimov. All rights reserved.
</metadata>
<defs>
<font id="TTCommons-Italic" horiz-adv-x="1003" >
  <font-face 
    font-family="TT Commons Italic"
    font-weight="400"
    font-style="italic"
    font-stretch="normal"
    units-per-em="2048"
    panose-1="2 0 5 6 3 0 0 9 0 4"
    ascent="1434"
    descent="-614"
    x-height="922"
    cap-height="1290"
    bbox="-346 -516 2945 1745"
    underline-thickness="0"
    underline-position="0"
    unicode-range="U+000D-FB06"
  />
<missing-glyph horiz-adv-x="0" 
 />
    <glyph glyph-name="uniFB00" unicode="ff" horiz-adv-x="1085" 
d="M1186 922l-25 -144h-205l-137 -778h-153l137 778h-369l-137 -778h-154l138 778h-113l25 144h112l10 55q12 68 41 120t69 88t88 55.5t97 19.5q57 0 83 -15.5t26 -13.5l-21 -133q-10 2 -20 6t-21.5 6t-27.5 2q-61 0 -104.5 -39t-57.5 -110l-8 -41h370l15 86
q10 63 38.5 115.5t68.5 89t89.5 57t98.5 20.5q57 0 82.5 -15t25.5 -13l-20 -134q-10 2 -21 7q-10 4 -21 6t-28 2q-61 0 -105 -39t-57 -111l-12 -71h203z" />
    <glyph glyph-name="uniFB01" unicode="fi" horiz-adv-x="952" 
d="M819 0h-153l135 778h-367l-137 -778h-154l138 778h-113l25 144h112l17 86q10 63 38.5 115.5t68.5 89t89 57t98 20.5q57 0 83 -15t26 -13l-20 -134q-10 2 -21 7q-10 4 -21.5 6t-27.5 2q-61 0 -105.5 -39t-56.5 -111l-12 -71h520zM942 1085q-41 0 -65.5 27t-24.5 64
q0 45 29.5 74.5t72.5 29.5q41 0 65.5 -26.5t24.5 -63.5q0 -45 -29.5 -75t-72.5 -30z" />
    <glyph glyph-name="uniFB02" unicode="fl" horiz-adv-x="962" 
d="M829 0h-153l198 1126q-16 12 -38 21q-20 8 -49 14t-68 6q-100 0 -167 -56t-85 -148l-8 -41h205l-25 -144h-205l-137 -778h-154l138 778h-113l25 144h112l8 41q14 74 53.5 137t95.5 110t129 74t152 27q39 0 68 -5.5t49 -11.5q23 -8 41 -14h154z" />
    <glyph glyph-name="uniFB03" unicode="ffi" horiz-adv-x="1474" 
d="M1341 0h-153l135 778h-367l-137 -778h-153l137 778h-369l-137 -778h-154l138 778h-113l25 144h112l10 55q12 68 41 120t69 88t88 55.5t97 19.5q57 0 83 -15.5t26 -13.5l-21 -133q-10 2 -20 6t-21.5 6t-27.5 2q-61 0 -104.5 -39t-57.5 -110l-8 -41h370l15 86
q10 63 38.5 115.5t68.5 89t89.5 57t98.5 20.5q57 0 82.5 -15t25.5 -13l-20 -134q-10 2 -21 7q-10 4 -21 6t-28 2q-61 0 -105 -39t-57 -111l-12 -71h520zM1464 1085q-41 0 -65.5 27t-24.5 64q0 45 30 74.5t73 29.5q41 0 65.5 -26.5t24.5 -63.5q0 -45 -30 -75t-73 -30z" />
    <glyph glyph-name="uniFB04" unicode="ffl" horiz-adv-x="1484" 
d="M1352 0h-154l199 1126q-16 12 -39 21q-20 8 -49 14t-68 6q-100 0 -166.5 -56t-85.5 -148l-8 -41h205l-25 -144h-205l-137 -778h-153l137 778h-369l-137 -778h-154l138 778h-113l25 144h112l10 55q12 68 41 120t69 88t88 55.5t97 19.5q57 0 83 -15.5t26 -13.5l-21 -133
q-10 2 -20 6t-21.5 6t-27.5 2q-61 0 -104.5 -39t-57.5 -110l-8 -41h368l9 41q14 74 53 137t95 110t129 74t153 27q39 0 67.5 -5.5t48.5 -11.5q23 -8 41 -14h154z" />
    <glyph glyph-name="f_f_j.liga" unicode="ffj" horiz-adv-x="1474" 
d="M1323 778h-367l-137 -778h-153l137 778h-369l-137 -778h-154l138 778h-113l25 144h112l10 55q12 68 41 120t69 88t88 55.5t97 19.5q57 0 83 -15.5t26 -13.5l-21 -133q-10 2 -20 6t-21.5 6t-27.5 2q-61 0 -104.5 -39t-57.5 -110l-8 -41h368l17 86q10 63 38.5 115.5
t68.5 89t89.5 57t98.5 20.5q57 0 82.5 -15t25.5 -13l-20 -134q-10 2 -21 7q-10 4 -21 6t-28 2q-61 0 -105 -39t-57 -111l-12 -71h520l-170 -965q-12 -66 -39.5 -119t-67.5 -90t-88 -56.5t-100 -19.5q-47 0 -80 15q-16 8 -28 16l22 131q8 -4 19 -6q10 -2 21.5 -3t27.5 -1
q61 0 105 38t59 113zM1464 1085q-41 0 -65.5 27t-24.5 64q0 45 30 74.5t73 29.5q41 0 65.5 -26.5t24.5 -63.5q0 -45 -30 -75t-73 -30z" />
    <glyph glyph-name="f_j.liga" unicode="fj" horiz-adv-x="952" 
d="M801 778h-367l-137 -778h-154l138 778h-113l25 144h112l17 86q10 63 38.5 115.5t68.5 89t89 57t98 20.5q57 0 83 -15t26 -13l-20 -134q-10 2 -21 7q-10 4 -21.5 6t-27.5 2q-61 0 -105.5 -39t-56.5 -111l-12 -71h520l-170 -965q-12 -66 -40 -119t-67.5 -90t-88 -56.5
t-99.5 -19.5q-47 0 -80 15q-16 8 -28 16l22 131q8 -4 19 -6q10 -2 21 -3t28 -1q61 0 105 38t59 113zM942 1085q-41 0 -65.5 27t-24.5 64q0 45 29.5 74.5t72.5 29.5q41 0 65.5 -26.5t24.5 -63.5q0 -45 -29.5 -75t-72.5 -30z" />
    <glyph glyph-name="f_t.liga" unicode="ft" horiz-adv-x="1136" 
d="M895 307q-12 -72 20.5 -124t114.5 -52q20 0 29 2l12 4l-24 -133q-8 -4 -17 -8q-18 -6 -51 -6q-111 0 -176.5 74.5t-65.5 189.5q0 33 6 68l80 456h-389l-137 -778h-154l138 778h-113l25 144h114l15 86q10 63 38.5 115.5t68.5 89t89 57t98 20.5q57 0 83 -15t26 -13
l-20 -134q-10 2 -21 7q-10 4 -21.5 6t-27.5 2q-61 0 -105.5 -39t-56.5 -111l-12 -71h295q53 0 88 29.5t45 82.5l22 133h136l-46 -245h205l-24 -144h-207z" />
    <glyph glyph-name="f_h.liga" unicode="fh" horiz-adv-x="1576" 
d="M1227 932q90 0 151.5 -32t100.5 -83t55 -113.5t16 -123.5q0 -43 -6 -80l-88 -500h-153l90 514q12 57 0.5 107.5t-40 87t-71.5 58t-92 21.5q-98 0 -171 -63t-91 -172l-97 -553h-153l196 1126q-16 12 -38 21q-20 8 -49 14t-68 6q-100 0 -167 -56t-85 -148l-8 -41h205
l-25 -144h-205l-137 -778h-154l138 778h-113l25 144h112l8 41q14 74 53.5 137t95.5 110t129 74t152 27q39 0 68 -5.5t49 -11.5q23 -8 41 -14h154l-76 -451q29 29 65 52q33 18 78.5 34.5t104.5 16.5z" />
    <glyph glyph-name="f_k.liga" unicode="fk" horiz-adv-x="1382" 
d="M1219 0l-306 479l-84 -479h-153l198 1126q-16 12 -38 21q-20 8 -49 14t-68 6q-100 0 -167 -56t-85 -148l-8 -41h205l-25 -144h-205l-137 -778h-154l138 778h-113l25 144h112l8 41q14 74 53.5 137t95.5 110t129 74t152 27q39 0 68 -5.5t49 -11.5q23 -8 41 -14h154
l-142 -799l426 441h189l-438 -445l305 -477h-176z" />
    <glyph glyph-name="f_b.liga" unicode="fb" horiz-adv-x="1617" 
d="M795 0h-115l194 1126q-16 12 -38 21q-20 8 -49 14t-68 6q-100 0 -167 -56t-85 -148l-8 -41h205l-25 -144h-205l-137 -778h-154l138 778h-113l25 144h112l8 41q14 74 53.5 137t95.5 110t129 74t152 27q39 0 68 -5.5t49 -11.5q23 -8 41 -14h154l-78 -461q29 31 67 55
q35 23 82.5 40.5t108.5 17.5q84 0 154.5 -31t123 -85t82 -130t29.5 -166q0 -119 -41 -216t-108.5 -166.5t-153.5 -108.5t-176 -39q-72 0 -124 19.5t-87 43.5q-39 29 -68 66zM1149 133q57 0 113.5 27.5t102.5 77t74.5 119t28.5 153.5q0 61 -19 112.5t-53 88.5t-79 57t-94 20
q-57 0 -113.5 -27.5t-102.5 -76.5t-75 -117.5t-29 -152.5q0 -61 19.5 -113.5t53.5 -89.5t79 -57.5t94 -20.5z" />
    <glyph glyph-name="f_f_h.liga" unicode="ffh" horiz-adv-x="2099" 
d="M1749 932q90 0 151.5 -32t100.5 -83t55.5 -113.5t16.5 -123.5q0 -43 -7 -80l-88 -500h-153l90 514q12 57 1 107.5t-40 87t-72 58t-92 21.5q-98 0 -171 -63t-91 -172l-96 -553h-154l197 1126q-16 12 -39 21q-20 8 -49 14t-68 6q-100 0 -166.5 -56t-85.5 -148l-8 -41h205
l-25 -144h-205l-137 -778h-153l137 778h-369l-137 -778h-154l138 778h-113l25 144h112l10 55q12 68 41 120t69 88t88 55.5t97 19.5q57 0 83 -15.5t26 -13.5l-21 -133q-10 2 -20 6t-21.5 6t-27.5 2q-61 0 -104.5 -39t-57.5 -110l-8 -41h368l9 41q14 74 53 137t95 110t129 74
t153 27q39 0 67.5 -5.5t48.5 -11.5q23 -8 41 -14h154l-76 -451q29 29 66 52q33 18 78 34.5t104 16.5z" />
    <glyph glyph-name="f_f_k.liga" unicode="ffk" horiz-adv-x="1904" 
d="M1741 0l-305 479l-84 -479h-154l199 1126q-16 12 -39 21q-20 8 -49 14t-68 6q-100 0 -166.5 -56t-85.5 -148l-8 -41h205l-25 -144h-205l-137 -778h-153l137 778h-369l-137 -778h-154l138 778h-113l25 144h112l10 55q12 68 41 120t69 88t88 55.5t97 19.5q57 0 83 -15.5
t26 -13.5l-21 -133q-10 2 -20 6t-21.5 6t-27.5 2q-61 0 -104.5 -39t-57.5 -110l-8 -41h368l9 41q14 74 53 137t95 110t129 74t153 27q39 0 67.5 -5.5t48.5 -11.5q23 -8 41 -14h154l-141 -799l426 441h188l-438 -445l305 -477h-176z" />
    <glyph glyph-name="f_f_b.liga" unicode="ffb" horiz-adv-x="2140" 
d="M1317 0h-115l195 1126q-16 12 -39 21q-20 8 -49 14t-68 6q-100 0 -166.5 -56t-85.5 -148l-8 -41h205l-25 -144h-205l-137 -778h-153l137 778h-369l-137 -778h-154l138 778h-113l25 144h112l10 55q12 68 41 120t69 88t88 55.5t97 19.5q57 0 83 -15.5t26 -13.5l-21 -133
q-10 2 -20 6t-21.5 6t-27.5 2q-61 0 -104.5 -39t-57.5 -110l-8 -41h368l9 41q14 74 53 137t95 110t129 74t153 27q39 0 67.5 -5.5t48.5 -11.5q23 -8 41 -14h154l-78 -461q29 31 68 55q35 23 82 40.5t108 17.5q84 0 154.5 -31t123 -85t82 -130t29.5 -166q0 -119 -41 -216
t-108.5 -166.5t-153.5 -108.5t-176 -39q-72 0 -124 19.5t-87 43.5q-39 29 -67 66zM1671 133q57 0 113.5 27.5t102.5 77t75 119t29 153.5q0 61 -19.5 112.5t-53.5 88.5t-79 57t-94 20q-57 0 -113.5 -27.5t-102.5 -76.5t-75 -117.5t-29 -152.5q0 -61 19.5 -113.5t53.5 -89.5
t79 -57.5t94 -20.5z" />
    <glyph glyph-name=".notdef" horiz-adv-x="0" 
 />
    <glyph glyph-name="glyph1" horiz-adv-x="0" 
 />
    <glyph glyph-name="glyph1" horiz-adv-x="0" 
 />
    <glyph glyph-name="uni000D" unicode="&#xd;" horiz-adv-x="0" 
 />
    <glyph glyph-name="space" unicode=" " horiz-adv-x="440" 
 />
    <glyph glyph-name="exclam" unicode="!" horiz-adv-x="532" 
d="M270 -10q-47 0 -71.5 23.5t-24.5 64.5q0 53 31 85t78 32t71.5 -24t24.5 -65q0 -53 -31 -84.5t-78 -31.5zM377 307h-123l133 983h205z" />
    <glyph glyph-name="quotedbl" unicode="&#x22;" horiz-adv-x="624" 
d="M330 1290h143l-67 -379h-144zM606 1290h144l-68 -379h-143z" />
    <glyph glyph-name="numbersign" unicode="#" horiz-adv-x="1228" 
d="M139 492h236l114 307h-245l53 123h235l136 368h123l-136 -368h308l135 368h123l-136 -368h246l-53 -123h-236l-114 -307h246l-54 -123h-235l-137 -369h-123l137 369h-307l-138 -369h-122l137 369h-246zM498 492h307l115 307h-308z" />
    <glyph glyph-name="dollar" unicode="$" horiz-adv-x="1013" 
d="M254 918q0 90 37 159.5t96 116.5t133 73.5t148 30.5l32 177h144l-35 -191q119 -35 190.5 -133t71.5 -240h-162q0 49 -17.5 93.5t-48 78t-72.5 54t-91 20.5q-63 0 -111.5 -19.5t-82 -50t-51 -69.5t-17.5 -80q0 -66 43 -106.5t107.5 -73.5t140 -63.5t140 -71.5
t107.5 -101.5t43 -150.5q0 -72 -28.5 -139.5t-82.5 -120t-132 -86t-176 -35.5l-29 -174h-143l30 186q-143 33 -219 134.5t-76 242.5h162q0 -117 67.5 -181.5t198.5 -64.5q123 0 193 62.5t70 154.5q0 66 -43 108t-108 74.5t-139.5 62.5t-139 71t-107.5 100.5t-43 151.5z" />
    <glyph glyph-name="percent" unicode="%" horiz-adv-x="1228" 
d="M162 0l1016 1290h116l-1015 -1290h-117zM508 1198q-33 0 -64.5 -14.5t-56.5 -39t-40 -57t-15 -69.5q0 -59 39 -104.5t98 -45.5q33 0 64.5 14.5t56 39t40 57.5t15.5 70q0 59 -39 104t-98 45zM508 1290q104 0 169.5 -66.5t65.5 -164.5q0 -59 -22.5 -110.5t-60 -90.5
t-88 -60.5t-103.5 -21.5q-104 0 -170 66.5t-66 165.5q0 59 23 110t60.5 90t88 60.5t103.5 21.5zM948 92q33 0 64.5 14.5t56.5 39t40 57.5t15 69q0 59 -38.5 104.5t-98.5 45.5q-33 0 -64.5 -14.5t-56 -39t-40 -57t-15.5 -69.5q0 -59 39 -104.5t98 -45.5zM948 0
q-104 0 -169.5 66.5t-65.5 164.5q0 59 22.5 110.5t60.5 90.5t88 60.5t103 21.5q104 0 170 -66.5t66 -164.5q0 -59 -22.5 -110.5t-60.5 -90.5t-88.5 -60.5t-103.5 -21.5z" />
    <glyph glyph-name="ampersand" unicode="&#x26;" horiz-adv-x="1085" 
d="M965 0l-140 172q-49 -51 -106 -90q-49 -35 -116.5 -62.5t-143.5 -27.5t-135.5 22.5t-100.5 60.5t-62.5 89t-21.5 108q0 94 45 167t101 124q63 59 145 105l-72 110q-18 23 -32 51q-12 25 -22.5 61t-10.5 79q0 61 27.5 119.5t73.5 103.5t106.5 71.5t126.5 26.5
q59 0 109 -21.5t86 -58t56.5 -86t20.5 -104.5q0 -63 -27.5 -116.5t-61.5 -92.5t-62.5 -61.5t-30.5 -24.5l-94 -76l211 -262l161 207h174l-251 -311l229 -283h-182zM547 750l94 65l17 13q18 14 39.5 39.5t39 61.5t17.5 81q0 55 -37 96t-107 41q-37 0 -68.5 -13.5t-55 -37
t-37 -54t-13.5 -63.5q0 -31 8.5 -57.5t18.5 -49.5q10 -25 26 -45zM295 287q0 -70 49 -116t125 -46q53 0 101 23.5t87 52.5q45 33 86 75l-229 281l-34 -19q-34 -18 -74.5 -52.5t-75.5 -85t-35 -113.5z" />
    <glyph glyph-name="quotesingle" unicode="'" horiz-adv-x="348" 
d="M330 1290h143l-67 -379h-144z" />
    <glyph glyph-name="parenleft" unicode="(" horiz-adv-x="542" 
d="M702 1237q-113 -131 -198 -289q-37 -68 -73 -145.5t-63.5 -164.5t-45 -182.5t-17.5 -193.5q0 -125 19.5 -233.5t42.5 -190.5q27 -96 61 -176l-113 -61q-43 82 -77 182q-29 86 -52.5 203.5t-23.5 261.5q0 119 19.5 228.5t51 206.5t71.5 182t83 157q98 166 227 299z" />
    <glyph glyph-name="parenright" unicode=")" horiz-adv-x="542" 
d="M-14 -315q111 131 198 288q37 68 73 146t63.5 165t45 181t17.5 194q0 123 -19.5 232.5t-41.5 191.5q-27 96 -62 177l113 61q41 -82 76 -182q29 -86 53 -205t24 -260q0 -119 -19.5 -228.5t-52 -207t-72.5 -183.5t-83 -155q-98 -166 -225 -299z" />
    <glyph glyph-name="asterisk" unicode="*" horiz-adv-x="675" 
d="M346 727l-98 72l174 174l-207 51l61 113l183 -72l28 225h123l-49 -225l207 72l20 -113l-223 -51l113 -174l-127 -72l-70 186z" />
    <glyph glyph-name="plus" unicode="+" horiz-adv-x="901" 
d="M401 123l60 338h-318l23 133h317l62 338h143l-61 -338h317l-22 -133h-318l-59 -338h-144z" />
    <glyph glyph-name="comma" unicode="," horiz-adv-x="348" 
d="M166 -10q-41 4 -63.5 27.5t-22.5 62.5q0 53 31.5 84t76.5 31q47 0 73 -25t26 -66q0 -43 -17.5 -86t-47 -82.5t-68.5 -71.5t-80 -52l-17 32q23 16 45 39q18 18 36 45t28 62z" />
    <glyph glyph-name="hyphen" unicode="-" horiz-adv-x="706" 
d="M705 461h-564l23 133h563z" />
    <glyph glyph-name="period" unicode="." horiz-adv-x="348" 
d="M178 -10q-47 0 -72.5 24.5t-25.5 65.5q0 51 30.5 83t77.5 32t73 -25t26 -66q0 -51 -31 -82.5t-78 -31.5z" />
    <glyph glyph-name="slash" unicode="/" horiz-adv-x="675" 
d="M41 -369h-143l825 1659h143z" />
    <glyph glyph-name="zero" unicode="0" horiz-adv-x="1146" 
d="M750 1157q-66 0 -139.5 -38t-135 -116.5t-101.5 -199.5t-40 -287q0 -96 22.5 -168t60.5 -120t89 -71.5t108 -23.5q66 0 139.5 38t135 118t101.5 200.5t40 286.5q0 96 -22.5 168t-61.5 119t-89 70.5t-107 23.5zM756 1300q92 0 172 -34.5t139 -102t93 -165t34 -222.5
q0 -190 -53.5 -336.5t-137 -247t-188 -151.5t-207.5 -51q-92 0 -172 34.5t-139 102.5t-93 165t-34 222q0 190 53 336.5t137 247t189 151.5t207 51z" />
    <glyph glyph-name="one" unicode="1" horiz-adv-x="634" 
d="M674 1290l-228 -1290h-163l188 1065l-207 -123l-49 123l356 225h103z" />
    <glyph glyph-name="two" unicode="2" horiz-adv-x="983" 
d="M909 143l-24 -143h-799l23 123l610 553l27 24q28 23 60 63t58.5 91t26.5 107q0 82 -58.5 139t-162.5 57q-49 0 -94.5 -19.5t-81 -53t-61 -78.5t-34.5 -95h-163q12 82 53 154t99 124t133 81.5t155 29.5q86 0 156.5 -27.5t119.5 -73.5t76 -106.5t27 -127.5
q0 -78 -37 -147.5t-82 -124t-82 -86.5t-39 -34l-489 -430h583z" />
    <glyph glyph-name="three" unicode="3" horiz-adv-x="993" 
d="M229 963q20 70 60.5 131t96.5 107t125 72.5t144 26.5q86 0 157 -26.5t121 -72.5t76.5 -106.5t26.5 -127.5q0 -86 -36.5 -145.5t-81 -95.5t-80.5 -52l-37 -17q49 -27 86 -65q33 -35 59.5 -87t26.5 -124q0 -78 -34 -148.5t-93.5 -125t-141 -86t-180.5 -31.5
q-94 0 -168.5 27.5t-126 74.5t-79 108.5t-27.5 127.5h162q6 -84 71.5 -139.5t180.5 -55.5q59 0 109 19.5t87 52.5t57.5 77t20.5 93q0 41 -15.5 79t-45 66.5t-71.5 46t-97 17.5h-74l24 143h91q53 0 98 17.5t79 48t53 73.5t19 95q0 82 -58 139t-163 57q-47 0 -88 -16.5
t-74.5 -43t-57 -61.5t-34.5 -73h-168z" />
    <glyph glyph-name="four" unicode="4" horiz-adv-x="983" 
d="M987 276h-143l-49 -276h-164l49 276h-574l23 134l698 880h195l-154 -870h144zM705 420l112 635l-502 -635h390z" />
    <glyph glyph-name="five" unicode="5" horiz-adv-x="1024" 
d="M649 850q84 0 151.5 -34t116 -87t74 -122.5t25.5 -139.5q0 -102 -38 -190.5t-102.5 -152t-149.5 -99t-179 -35.5q-88 0 -161 27.5t-125 73.5t-80.5 107.5t-28.5 129.5h161q8 -90 76 -142.5t168 -52.5q57 0 110.5 23.5t95.5 66.5t66.5 103.5t24.5 136.5q0 113 -67.5 178.5
t-178.5 65.5q-59 0 -105 -25t-79 -53q-37 -35 -68 -76h-143l213 737h655l-26 -153h-512l-101 -351q25 16 58 31q29 12 65.5 22.5t83.5 10.5z" />
    <glyph glyph-name="six" unicode="6" horiz-adv-x="1013" 
d="M545 -10q-102 0 -178 36.5t-127.5 94t-77 128t-25.5 140.5q0 74 26.5 141.5t58.5 118.5t59.5 83t29.5 34l465 524h189l-379 -424q6 0 14 2q6 0 15.5 1t19.5 1q86 0 157.5 -32.5t122 -87t79 -126t28.5 -151.5q0 -102 -40 -190t-105.5 -154t-151.5 -102.5t-180 -36.5z
M606 717q-57 0 -111.5 -24.5t-97.5 -67.5t-69.5 -103.5t-26.5 -132.5q0 -53 18.5 -100t52.5 -82t80 -54.5t101 -19.5q57 0 111.5 24.5t97.5 67.5t69.5 103.5t26.5 132.5q0 53 -18.5 100t-52 82t-80 54.5t-101.5 19.5z" />
    <glyph glyph-name="seven" unicode="7" horiz-adv-x="901" 
d="M1077 1290l-20 -112l-750 -1178h-174l735 1147h-594l25 143h778z" />
    <glyph glyph-name="eight" unicode="8" 
d="M547 -10q-78 0 -151.5 22.5t-131 67.5t-93.5 111.5t-36 154.5q0 109 45 180.5t99 112.5q63 49 143 76q-39 20 -68 51q-25 27 -45 69t-20 101q0 70 31.5 135.5t86 116.5t128 81.5t157.5 30.5q80 0 145.5 -27.5t112.5 -72.5t73 -103.5t26 -119.5q0 -90 -36 -146.5
t-77 -91.5q-49 -39 -111 -61q49 -27 86 -66q33 -35 59.5 -88t26.5 -127q0 -82 -33.5 -155.5t-94 -130t-143.5 -89t-179 -32.5zM684 1157q-49 0 -91 -17.5t-73 -47t-48 -67.5t-17 -81q0 -78 54 -132t146 -54q49 0 91 17.5t73 47t48.5 67.5t17.5 81q0 78 -54.5 132t-146.5 54z
M557 131q61 0 112.5 19.5t87.5 55.5t56.5 84t20.5 103q0 96 -67 158.5t-189 62.5q-61 0 -112.5 -19.5t-87.5 -55t-56.5 -83.5t-20.5 -104q0 -96 66.5 -158.5t189.5 -62.5z" />
    <glyph glyph-name="nine" unicode="9" horiz-adv-x="1013" 
d="M698 1300q100 0 177 -36.5t128.5 -94t77 -128t25.5 -140.5q0 -74 -26.5 -141.5t-58.5 -118.5t-59.5 -83t-29.5 -34l-465 -524h-188l378 424q-6 -2 -14 -2q-6 -2 -15.5 -2h-19.5q-86 0 -157.5 32.5t-121.5 87t-79 126t-29 151.5q0 102 39 190.5t105.5 154t152.5 102
t180 36.5zM637 573q57 0 111.5 25t97.5 68t69.5 103t26.5 132q0 53 -18.5 100.5t-52 82t-80 54t-101.5 19.5q-57 0 -111.5 -24.5t-97.5 -67.5t-69.5 -103.5t-26.5 -132.5q0 -53 18.5 -100t52 -82t80 -54.5t101.5 -19.5z" />
    <glyph glyph-name="colon" unicode=":" horiz-adv-x="348" 
d="M178 -10q-47 0 -72.5 24.5t-25.5 65.5q0 51 30.5 83t77.5 32t73 -25t26 -66q0 -51 -31 -82.5t-78 -31.5zM307 717q-47 0 -72.5 24.5t-25.5 65.5q0 51 30.5 83t77.5 32t73 -25t26 -66q0 -51 -31 -82.5t-78 -31.5z" />
    <glyph glyph-name="semicolon" unicode=";" horiz-adv-x="348" 
d="M307 717q-47 0 -72.5 24.5t-25.5 65.5q0 51 30.5 83t77.5 32t73 -25t26 -66q0 -51 -31 -82.5t-78 -31.5zM166 -10q-41 4 -63.5 27.5t-22.5 62.5q0 53 31.5 84t76.5 31q47 0 73 -25t26 -66q0 -43 -17.5 -86t-47 -82.5t-68.5 -71.5t-80 -52l-17 32q23 16 45 39q18 18 36 45
t28 62z" />
    <glyph glyph-name="less" unicode="&#x3c;" horiz-adv-x="901" 
d="M838 152l-29 -144l-647 389l18 103l785 389l-27 -164l-594 -287z" />
    <glyph glyph-name="equal" unicode="=" horiz-adv-x="890" 
d="M965 788l-25 -143h-768l25 143h768zM129 410h768l-25 -144h-768z" />
    <glyph glyph-name="greater" unicode="&#x3e;" horiz-adv-x="901" 
d="M223 745l29 144l647 -389l-18 -103l-785 -389l27 164l594 287z" />
    <glyph glyph-name="question" unicode="?" horiz-adv-x="880" 
d="M981 991q0 -92 -25.5 -151.5t-65.5 -102.5t-88 -76.5t-93 -74.5t-82 -96.5t-54 -141.5l-2 -10h-163l4 20q20 100 58 167t83 112t91 78t84 68.5t62.5 81.5t24.5 118q0 76 -50 125t-136 49q-98 0 -160.5 -66.5t-87.5 -189.5l-4 -20h-162l6 34q33 180 141.5 282.5
t274.5 102.5q76 0 138.5 -23.5t108.5 -64.5t71.5 -97t25.5 -124zM442 -10q-47 0 -71.5 23.5t-24.5 64.5q0 53 31 85t78 32t71.5 -24t24.5 -65q0 -53 -31 -84.5t-78 -31.5z" />
    <glyph glyph-name="at" unicode="@" horiz-adv-x="1515" 
d="M1008 225q-25 -33 -62 -57q-31 -23 -76 -39t-102 -16q-59 0 -110.5 22.5t-88.5 63.5t-58.5 97t-21.5 122q0 86 30 158.5t79 124t111.5 80t126.5 28.5q57 0 98 -16.5t67 -34.5q31 -23 50 -51l47 92h94l-70 -393q-12 -74 7.5 -127.5t84.5 -53.5q27 0 60 17.5t59.5 57.5
t45 104.5t18.5 158.5q0 88 -39 172t-106.5 150.5t-160 107.5t-198.5 41q-115 0 -224.5 -49t-195.5 -134t-138 -198.5t-52 -244.5q0 -106 37.5 -200.5t103 -165.5t157 -113t195.5 -42q53 0 101.5 10.5t83.5 24.5q41 14 77 35l43 -109q-45 -20 -98 -36q-45 -14 -101.5 -25.5
t-117.5 -11.5q-135 0 -248 50t-193.5 136t-126.5 199.5t-46 238.5q0 156 62 292t165.5 237.5t239 160t282.5 58.5q137 0 253 -46t201 -125t132 -182.5t47 -220.5q0 -115 -28.5 -200.5t-77 -143t-109 -87t-121.5 -29.5q-53 0 -89 17t-58.5 37.5t-26.5 30.5zM840 686
q-45 0 -86 -17.5t-73 -51t-50.5 -83t-18.5 -110.5q0 -86 51.5 -137t135.5 -51q45 0 86 17t72.5 51t50 83t18.5 111q0 86 -51 137t-135 51z" />
    <glyph glyph-name="A" unicode="A" horiz-adv-x="1126" 
d="M897 317h-532l-179 -317h-176l719 1290h143l265 -1290h-172zM442 461h430l-116 563z" />
    <glyph glyph-name="B" unicode="B" horiz-adv-x="1146" 
d="M993 670q39 -27 70 -64q27 -33 49.5 -82t22.5 -118q0 -78 -33 -152t-91.5 -130t-138 -90t-174.5 -34h-534l227 1290h483q70 0 128.5 -25.5t98.5 -69.5t62.5 -101.5t22.5 -118.5q0 -86 -31 -145.5t-65 -94.5q-44 -40 -97 -65zM459 748h346q47 0 89 17t72.5 47t48 68
t17.5 81q0 37 -13 69.5t-37 59t-57.5 42t-74.5 15.5h-320zM711 143q53 0 100 19.5t83 53.5t57.5 81t21.5 100q0 39 -14.5 77t-42 66.5t-65.5 46t-85 17.5h-332l-82 -461h359z" />
    <glyph glyph-name="C" unicode="C" horiz-adv-x="1314" 
d="M1208 860q-27 82 -78 148q-43 55 -113.5 102t-176.5 47q-90 0 -179.5 -43t-160 -119.5t-115.5 -182t-45 -230.5q0 -100 31.5 -183.5t86 -141.5t126 -91t151.5 -33q68 0 133.5 25.5t122 66.5t101.5 95.5t71 109.5h172q-41 -92 -104.5 -172t-144 -140.5t-174 -94
t-189.5 -33.5q-115 0 -214 45t-173 123t-117 185.5t-43 231.5q0 154 59.5 286t154.5 230.5t216 153.5t246 55q102 0 189 -35.5t155 -96t114 -140.5t66 -168h-168z" />
    <glyph glyph-name="D" unicode="D" horiz-adv-x="1218" 
d="M588 143q92 0 182 43t163 119t117 178.5t44 223.5q0 90 -29 170.5t-78 141t-116.5 95.5t-143.5 35l-197 -2l-178 -1004h236zM1257 719q0 -143 -53 -273.5t-145 -229.5t-216 -157.5t-263 -58.5h-416l227 1290h363q111 0 204 -46t159.5 -124t103 -181t36.5 -220z" />
    <glyph glyph-name="E" unicode="E" horiz-adv-x="1105" 
d="M1028 143l-24 -143h-840l227 1290h819l-24 -143h-656l-73 -410h604l-25 -143h-604l-80 -451h676z" />
    <glyph glyph-name="F" unicode="F" horiz-adv-x="1024" 
d="M530 1147l-75 -430h512l-27 -144h-512l-100 -573h-164l227 1290h789l-25 -143h-625z" />
    <glyph glyph-name="G" unicode="G" horiz-adv-x="1372" 
d="M1208 881q-29 76 -78 137q-43 53 -112.5 96t-177.5 43q-90 0 -179.5 -43t-160 -119.5t-115.5 -182t-45 -230.5q0 -98 30.5 -180.5t83 -141.5t123 -93t148.5 -34q72 0 145.5 33t135 85t103.5 118.5t54 132.5h-379l25 143h543l-113 -645h-123l-14 152q-45 -45 -105 -82
q-51 -31 -121.5 -55.5t-156.5 -24.5q-113 0 -212 45t-173 123t-116 185.5t-42 231.5q0 154 59.5 286t154.5 230.5t217 153.5t245 55q106 0 193.5 -33.5t154 -91t112.5 -134t68 -160.5h-172z" />
    <glyph glyph-name="H" unicode="H" horiz-adv-x="1280" 
d="M1343 1290l-227 -1290h-164l103 584h-625l-102 -584h-164l227 1290h164l-98 -563h624l99 563h163z" />
    <glyph glyph-name="I" unicode="I" horiz-adv-x="491" 
d="M328 0h-164l227 1290h164z" />
    <glyph glyph-name="J" unicode="J" horiz-adv-x="942" 
d="M1026 1290l-170 -962q-12 -74 -49 -136.5t-90 -107.5t-122 -69.5t-146 -24.5q-80 0 -148 29.5t-118 80t-77.5 115t-27.5 133.5h168q0 -92 58 -153.5t153 -61.5q96 0 159.5 62.5t79.5 154.5l166 940h164z" />
    <glyph glyph-name="K" unicode="K" horiz-adv-x="1044" 
d="M328 0h-164l227 1290h164zM1065 0h-195l-428 655l615 635h200l-628 -639z" />
    <glyph glyph-name="L" unicode="L" horiz-adv-x="962" 
d="M967 143l-25 -143h-778l227 1290h164l-203 -1147h615z" />
    <glyph glyph-name="M" unicode="M" horiz-adv-x="1556" 
d="M1479 1290h141l-227 -1290h-164l153 870l-553 -870h-102l-246 870l-153 -870h-164l227 1290h125l299 -1034z" />
    <glyph glyph-name="N" unicode="N" horiz-adv-x="1280" 
d="M1343 1290l-227 -1290h-143l-473 973l-172 -973h-164l227 1290h144l473 -973l172 973h163z" />
    <glyph glyph-name="O" unicode="O" horiz-adv-x="1351" 
d="M729 133q96 0 186.5 45t160 123t111.5 184.5t42 227.5q0 96 -32 178t-85 141.5t-123.5 92t-148.5 32.5q-90 0 -179.5 -42t-160 -118.5t-115.5 -183t-45 -233.5q0 -96 31.5 -178.5t85 -141.5t124 -93t148.5 -34zM852 1300q113 0 211 -45t172 -123.5t116 -185t42 -231.5
q0 -154 -58.5 -286t-154 -230.5t-217 -153.5t-246.5 -55q-113 0 -211 45t-172 124t-116 185.5t-42 230.5q0 154 58.5 286t153.5 230.5t217 153.5t247 55z" />
    <glyph glyph-name="P" unicode="P" horiz-adv-x="1095" 
d="M831 1290q76 0 138.5 -30.5t108.5 -83t72 -119t26 -137.5q0 -86 -37 -164t-99.5 -136.5t-143.5 -93t-169 -34.5h-313l-86 -492h-164l227 1290h440zM739 635q51 0 100.5 22.5t87.5 60.5t60.5 89t22.5 111q0 45 -15.5 87t-42 73.5t-63.5 50t-82 18.5h-277l-90 -512h299z
" />
    <glyph glyph-name="Q" unicode="Q" horiz-adv-x="1372" 
d="M1063 100q-80 -53 -168 -81.5t-178 -28.5q-113 0 -211 45t-172 124t-116 185.5t-42 230.5q0 154 58.5 286t153.5 230.5t217 153.5t247 55q113 0 211 -45t172 -123.5t116 -185t42 -231.5q0 -166 -59.5 -291t-151.5 -223l112 -140l-114 -102zM729 133q129 0 242 78
l-121 147l115 103l120 -148q61 78 102.5 181.5t41.5 218.5q0 96 -32 178t-85 141.5t-123.5 92t-148.5 32.5q-90 0 -179.5 -42t-160 -118.5t-115.5 -183t-45 -233.5q0 -96 31.5 -178.5t85 -141.5t124 -93t148.5 -34z" />
    <glyph glyph-name="R" unicode="R" horiz-adv-x="1136" 
d="M668 532h-246l-94 -532h-164l227 1290h481q72 0 131.5 -29.5t102.5 -77.5t66.5 -110.5t23.5 -130.5q0 -63 -15.5 -114.5t-40 -91.5t-55 -70.5t-63.5 -53.5q-78 -53 -174 -75l217 -537h-184zM446 676h340q47 0 92.5 20.5t80 55t55 83t20.5 103.5q0 41 -14 79t-39 66.5
t-58.5 46t-74.5 17.5h-318z" />
    <glyph glyph-name="S" unicode="S" horiz-adv-x="1013" 
d="M254 918q0 94 40 165.5t103.5 119.5t141 72.5t153.5 24.5q82 0 151.5 -28.5t121 -79.5t79 -123t27.5 -158h-162q0 49 -17.5 93.5t-48 78t-72.5 54t-91 20.5q-63 0 -111.5 -19.5t-82 -50t-51 -69.5t-17.5 -80q0 -66 43 -106.5t107.5 -73.5t140 -63.5t140 -71.5
t107.5 -101.5t43 -150.5q0 -74 -29.5 -142.5t-87 -122t-138 -85t-183.5 -31.5q-100 0 -178 29.5t-131 82t-81 123t-28 154.5h162q0 -117 67.5 -181.5t198.5 -64.5q123 0 193 62.5t70 154.5q0 66 -43 108t-108 74.5t-139.5 62.5t-139 71t-107.5 100.5t-43 151.5z" />
    <glyph glyph-name="T" unicode="T" 
d="M1176 1147h-390l-202 -1147h-164l203 1147h-390l25 143h942z" />
    <glyph glyph-name="U" unicode="U" horiz-adv-x="1228" 
d="M659 -10q-115 0 -197.5 35.5t-136 95t-78 134.5t-24.5 153q0 51 8 90l140 792h164l-142 -803q-4 -20 -6 -40.5t-2 -38.5q0 -123 75 -199t210 -76q61 0 116.5 21.5t98.5 59.5t71.5 93t40.5 123l152 860h164l-154 -872q-16 -92 -61 -171t-110.5 -136.5t-150 -89
t-178.5 -31.5z" />
    <glyph glyph-name="V" unicode="V" horiz-adv-x="1146" 
d="M645 0h-164l-243 1290h168l192 -1054l565 1054h180z" />
    <glyph glyph-name="W" unicode="W" horiz-adv-x="1597" 
d="M952 932l-430 -932h-112l-172 1290h168l122 -932l430 932h109l102 -932l451 932h174l-627 -1290h-112z" />
    <glyph glyph-name="X" unicode="X" horiz-adv-x="1064" 
d="M555 655l-287 635h174l222 -491l393 491h194l-512 -635l305 -655h-184l-229 512l-416 -512h-195z" />
    <glyph glyph-name="Y" unicode="Y" horiz-adv-x="1024" 
d="M238 1290h168l208 -614l426 614h181l-549 -788l-88 -502h-164l88 502z" />
    <glyph glyph-name="Z" unicode="Z" horiz-adv-x="993" 
d="M291 143h665l-24 -143h-871l19 102l819 1045h-614l24 143h819l-18 -102z" />
    <glyph glyph-name="bracketleft" unicode="[" horiz-adv-x="583" 
d="M264 -236h236l-23 -133h-379l293 1659h379l-25 -133h-235z" />
    <glyph glyph-name="backslash" unicode="\" horiz-adv-x="675" 
d="M248 1290h143l240 -1659h-144z" />
    <glyph glyph-name="bracketright" unicode="]" horiz-adv-x="583" 
d="M479 1157h-235l24 133h379l-293 -1659h-379l23 133h235z" />
    <glyph glyph-name="asciicircum" unicode="^" horiz-adv-x="778" 
d="M705 707l-115 389l-254 -389h-129l379 583h61l174 -583h-116z" />
    <glyph glyph-name="underscore" unicode="_" horiz-adv-x="532" 
d="M514 -338h-614l22 123h615z" />
    <glyph glyph-name="grave" unicode="`" horiz-adv-x="399" 
d="M516 1044h-102l-174 246h153z" />
    <glyph glyph-name="a" unicode="a" horiz-adv-x="952" 
d="M608 932q106 0 175 -36t107 -88t48 -111.5t2 -104.5l-104 -592h-113l-25 102q-29 -33 -67 -57q-35 -23 -83 -39t-112 -16q-70 0 -124 20.5t-92 56t-57.5 84t-19.5 101.5q0 90 49.5 149.5t135.5 95t202.5 51t251.5 15.5l6 35q6 39 -5 74t-37.5 60.5t-64.5 40.5t-83 15
q-72 0 -119 -39.5t-69 -93.5h-170q14 51 48 101.5t82 89.5t108 62.5t130 23.5zM455 133q57 0 107 19.5t88 50t62.5 68.5t30.5 77l13 72q-156 0 -247 -13.5t-138 -37t-60.5 -55t-13.5 -68.5q0 -57 47.5 -85t110.5 -28z" />
    <glyph glyph-name="b" unicode="b" horiz-adv-x="1075" 
d="M252 0h-115l223 1290h154l-80 -471q29 31 68 55q35 23 82 40.5t108 17.5q84 0 155 -31t123 -85t81.5 -130t29.5 -166q0 -119 -41 -216t-108.5 -166.5t-153.5 -108.5t-176 -39q-72 0 -124 19.5t-87 43.5q-39 29 -67 66zM606 133q57 0 113.5 27.5t102.5 77t75 119t29 153.5
q0 61 -19.5 112.5t-53.5 88.5t-79 57t-94 20q-57 0 -113.5 -27.5t-102.5 -76.5t-75 -117.5t-29 -152.5q0 -61 19.5 -113.5t53.5 -89.5t79 -57.5t94 -20.5z" />
    <glyph glyph-name="c" unicode="c" horiz-adv-x="962" 
d="M848 594q-6 27 -23.5 61.5t-46 63.5t-68.5 49t-94 20q-55 0 -112.5 -26.5t-102.5 -75.5t-73.5 -118.5t-28.5 -153.5q0 -61 19.5 -113.5t52 -89.5t78 -57.5t94.5 -20.5q86 0 160.5 55.5t113.5 139.5h156q-23 -63 -63 -124t-96 -109t-127 -76.5t-157 -28.5
q-84 0 -153.5 30.5t-121.5 86t-81 130t-29 162.5q0 119 41 216.5t108.5 168t154 109.5t176.5 39q80 0 146.5 -26.5t115.5 -73t79.5 -107.5t41.5 -131h-160z" />
    <glyph glyph-name="d" unicode="d" horiz-adv-x="1062" 
d="M793 102q-29 -33 -68 -57q-35 -23 -83 -39t-107 -16q-84 0 -155 30.5t-123 85t-82 130t-30 165.5q0 119 41 216.5t108.5 167t154 108.5t176.5 39q78 0 133 -22.5t90 -50.5t51 -51l16 -22l89 504h153l-227 -1290h-113zM547 133q57 0 113.5 27.5t102.5 77t74.5 119
t28.5 153.5q0 61 -19.5 112.5t-53 88.5t-78.5 57t-94 20q-57 0 -113.5 -27.5t-103 -76.5t-75 -117.5t-28.5 -152.5q0 -61 19.5 -113.5t53.5 -89.5t79 -57.5t94 -20.5z" />
    <glyph glyph-name="e" unicode="e" horiz-adv-x="972" 
d="M944 246q-63 -113 -170.5 -184.5t-238.5 -71.5q-84 0 -155 30.5t-123 85t-82 129t-30 164.5q0 119 41 216.5t107.5 168t150.5 109.5t172 39q94 0 167 -34t122 -89t74 -126t25 -144q0 -72 -15.5 -111t-13.5 -39h-674q2 -47 19.5 -93t47 -82t73.5 -58.5t104 -22.5
q39 0 73.5 12.5t64.5 30t50.5 36.5t30.5 34h180zM618 788q-47 0 -93 -20t-86 -55t-71.5 -84t-50.5 -107h531q2 61 -15.5 110.5t-50 84.5t-76 53t-88.5 18z" />
    <glyph glyph-name="f" unicode="f" horiz-adv-x="563" 
d="M639 778h-205l-137 -778h-154l138 778h-113l25 144h114l15 82q10 63 38.5 115t68.5 89t89 57.5t98 20.5q57 0 83 -15.5t26 -13.5l-20 -133q-10 2 -21 6q-10 4 -21.5 6.5t-27.5 2.5q-61 0 -104.5 -39t-57.5 -111l-12 -67h203z" />
    <glyph glyph-name="g" unicode="g" horiz-adv-x="1044" 
d="M782 131q-29 -29 -65 -51q-31 -18 -76 -33.5t-100 -15.5q-88 0 -160 28.5t-123 81t-78.5 125t-27.5 158.5q0 113 38.5 206t103 160.5t149.5 104.5t180 37q66 0 114.5 -20.5t83.5 -45.5q37 -29 66 -63l71 119h115l-160 -926q-12 -76 -50 -138.5t-93 -108.5t-127 -71.5
t-154 -25.5q-76 0 -141 20.5t-115.5 56t-83 87t-40.5 112.5h161q20 -61 74.5 -97t149.5 -36q104 0 176.5 59.5t89.5 153.5zM608 788q-55 0 -109.5 -24.5t-96.5 -70.5t-68.5 -109.5t-26.5 -143.5q0 -121 69.5 -193.5t174.5 -72.5q55 0 109.5 24.5t96.5 70.5t68.5 109.5
t26.5 143.5q0 121 -70 193.5t-174 72.5z" />
    <glyph glyph-name="h" unicode="h" horiz-adv-x="1034" 
d="M682 932q90 0 151.5 -32t100.5 -83t55.5 -113.5t16.5 -123.5q0 -43 -7 -80l-88 -500h-153l90 514q10 57 -2 107.5t-40 87t-70 58t-91 21.5q-98 0 -171 -63t-91 -172l-96 -553h-154l225 1290h154l-78 -461q29 29 66 52q33 18 78 34.5t104 16.5z" />
    <glyph glyph-name="i" unicode="i" horiz-adv-x="419" 
d="M287 0h-154l162 922h154zM410 1085q-41 0 -66 27t-25 64q0 45 30 74.5t73 29.5q41 0 65.5 -26.5t24.5 -63.5q0 -45 -29.5 -75t-72.5 -30z" />
    <glyph glyph-name="j" unicode="j" horiz-adv-x="419" 
d="M295 922h154l-170 -965q-12 -66 -40 -119t-68 -90t-88 -56.5t-99 -19.5q-47 0 -80 15q-16 8 -29 16l23 131q8 -4 18 -6t21.5 -3t27.5 -1q61 0 105.5 38t58.5 113zM410 1085q-41 0 -66 27t-25 64q0 45 30 74.5t73 29.5q41 0 65.5 -26.5t24.5 -63.5q0 -45 -29.5 -75
t-72.5 -30z" />
    <glyph glyph-name="k" unicode="k" horiz-adv-x="849" 
d="M297 0h-154l228 1290h153zM686 0l-305 481l426 441h188l-438 -445l305 -477h-176z" />
    <glyph glyph-name="l" unicode="l" horiz-adv-x="430" 
d="M297 0h-154l228 1290h153z" />
    <glyph glyph-name="m" unicode="m" horiz-adv-x="1480" 
d="M1296 543q6 31 7 59q0 78 -39 132t-121 54q-37 0 -73 -14t-65.5 -41.5t-52 -67.5t-30.5 -92l-101 -573h-153l94 543q6 31 6 59q0 78 -39 132t-121 54q-37 0 -72.5 -14t-65.5 -41.5t-52.5 -67.5t-30.5 -92l-100 -573h-154l162 922h113l24 -103q20 31 53 55q29 23 72 40.5
t105 17.5q59 0 102 -21.5t70 -46.5q31 -31 49 -67q33 37 78 67q39 25 92 46.5t125 21.5q80 0 133 -29t84.5 -75t46 -103t14.5 -113q0 -23 -2 -44t-6 -42l-92 -526h-154z" />
    <glyph glyph-name="n" unicode="n" horiz-adv-x="1034" 
d="M682 932q90 0 151.5 -32t100.5 -83t55.5 -113.5t16.5 -123.5q0 -43 -7 -80l-88 -500h-153l90 514q10 57 -2 107.5t-40 87t-70 58t-91 21.5q-98 0 -171 -63t-91 -172l-96 -553h-154l162 922h113l24 -103q31 31 68 55q33 23 78 40.5t104 17.5z" />
    <glyph glyph-name="o" unicode="o" 
d="M616 788q-57 0 -113.5 -27.5t-101.5 -76.5t-72.5 -118.5t-27.5 -153.5q0 -61 19.5 -112.5t52.5 -88.5t77 -57.5t93 -20.5q57 0 113.5 27.5t101.5 77t72.5 118t27.5 152.5q0 61 -19.5 113.5t-52 89.5t-77 57t-93.5 20zM625 932q84 0 154.5 -31t122.5 -85t82 -129t30 -165
q0 -119 -41 -216t-108.5 -167.5t-153.5 -109.5t-176 -39q-84 0 -155 30.5t-123 85t-82 129t-30 164.5q0 119 41 216.5t108.5 168t154 109.5t176.5 39z" />
    <glyph glyph-name="p" unicode="p" horiz-adv-x="1071" 
d="M434 819q29 31 68 55q35 23 82 40.5t108 17.5q84 0 155 -31t123 -85t81.5 -130t29.5 -166q0 -119 -41 -216t-108.5 -166.5t-153.5 -108.5t-176 -39q-78 0 -133 22.5t-90 50t-51 49.5l-17 23l-82 -463h-151l219 1250h113zM680 788q-57 0 -113.5 -27.5t-102.5 -76.5
t-75 -118.5t-29 -153.5q0 -61 19.5 -112.5t53.5 -88.5t79 -57.5t94 -20.5q57 0 113.5 27.5t102.5 77t75 118t29 152.5q0 61 -19.5 113.5t-53.5 89.5t-79 57t-94 20z" />
    <glyph glyph-name="q" unicode="q" horiz-adv-x="1064" 
d="M979 922h115l-215 -1250h-154l72 430q-29 -33 -68 -57q-35 -23 -83 -39t-107 -16q-84 0 -155 30.5t-123 85t-81.5 130t-29.5 165.5q0 119 40.5 216.5t108.5 167t154 108.5t176 39q72 0 124 -20.5t87 -45.5q39 -29 67 -63zM625 788q-57 0 -113.5 -27.5t-103 -76.5
t-75 -118.5t-28.5 -153.5q0 -61 19.5 -112.5t53.5 -88.5t79 -57.5t94 -20.5q57 0 113.5 27.5t102.5 77t74.5 118t28.5 152.5q0 61 -19.5 113.5t-53 89.5t-78.5 57t-94 20z" />
    <glyph glyph-name="r" unicode="r" horiz-adv-x="614" 
d="M711 778h-41q-109 0 -190 -69.5t-101 -186.5l-92 -522h-154l162 922h113l24 -103q35 31 78 55q37 23 89 40.5t118 17.5h20z" />
    <glyph glyph-name="s" unicode="s" horiz-adv-x="808" 
d="M791 293q0 -66 -25 -121t-68 -96t-103 -63.5t-132 -22.5q-78 0 -138.5 23.5t-101.5 63.5t-62.5 91t-21.5 108h152q0 -66 47 -104.5t133 -38.5q74 0 120 41t46 98q0 41 -31 65.5t-77 43t-99 35t-99 43t-77 68.5t-31 110q0 57 23.5 111.5t65.5 94.5t101.5 64.5t131.5 24.5
q74 0 131 -22.5t95 -60.5t57.5 -88t19.5 -106h-156q0 55 -37 94t-118 39q-72 0 -115 -40.5t-43 -90.5q0 -41 30.5 -65.5t75.5 -43t99.5 -34.5t99.5 -43t76 -68.5t31 -109.5z" />
    <glyph glyph-name="t" unicode="t" horiz-adv-x="655" 
d="M412 307q-12 -72 20.5 -124t114.5 -52q20 0 28 2l13 4l-25 -133l-16 -8q-18 -6 -51 -6q-111 0 -176.5 74.5t-65.5 189.5q0 33 6 68l80 456h-164l25 144h71q53 0 88 29.5t46 82.5l22 133h135l-45 -245h205l-25 -144h-206z" />
    <glyph glyph-name="u" unicode="u" horiz-adv-x="1044" 
d="M524 -10q-90 0 -151.5 31.5t-100.5 83t-55 114t-16 123.5q0 43 6 80l88 500h154l-91 -514q-10 -57 2.5 -107.5t40 -87.5t69.5 -58.5t91 -21.5q98 0 171 63.5t91 172.5l97 553h153l-162 -922h-112l-25 102q-31 -33 -67 -57q-33 -23 -79.5 -39t-103.5 -16z" />
    <glyph glyph-name="v" unicode="v" horiz-adv-x="921" 
d="M1053 922l-531 -922h-143l-207 922h158l151 -707l402 707h170z" />
    <glyph glyph-name="w" unicode="w" horiz-adv-x="1310" 
d="M440 0h-123l-145 922h156l100 -656l320 656h110l90 -656l330 656h164l-469 -922h-123l-90 655z" />
    <glyph glyph-name="x" unicode="x" horiz-adv-x="839" 
d="M596 471l244 -471h-168l-183 358l-309 -358h-180l412 471l-230 451h166l166 -338l285 338h182z" />
    <glyph glyph-name="y" unicode="y" horiz-adv-x="921" 
d="M170 922h164l151 -707l402 707h172l-592 -1026q-72 -125 -138.5 -178.5t-146.5 -55.5q-14 0 -28.5 2t-26.5 6q-14 4 -29 8l23 121h24q57 0 93 29t67 82l64 110z" />
    <glyph glyph-name="z" unicode="z" horiz-adv-x="778" 
d="M659 778h-450l24 144h635l-22 -134l-565 -645h471l-25 -143h-655l22 133z" />
    <glyph glyph-name="braceleft" unicode="{" horiz-adv-x="614" 
d="M184 522q53 0 88 30t45 83l70 399q23 123 101.5 189.5t209.5 66.5h103l-25 -133h-106q-51 0 -90 -35t-50 -88l-71 -399q-10 -53 -35 -88t-51 -53q-31 -23 -68 -33q33 -10 55 -33q20 -20 35 -54t4 -87l-71 -400q-10 -53 18.5 -88t79.5 -35h106l-24 -133h-102
q-113 0 -170.5 50.5t-57.5 142.5q0 29 6 63l70 400q18 113 -92 112z" />
    <glyph glyph-name="bar" unicode="|" horiz-adv-x="634" 
d="M338 -328h-143l284 1618h144z" />
    <glyph glyph-name="braceright" unicode="}" horiz-adv-x="614" 
d="M592 399q-113 0 -131 -112l-72 -400q-23 -123 -101.5 -189.5t-209.5 -66.5h-103l23 133h106q51 0 91.5 35t50.5 88l69 400q10 53 35 87t51 54q31 23 68 33q-33 10 -55 33q-20 18 -33.5 53t-3.5 88l72 399q10 53 -19 88t-80 35h-106l24 133h103q113 0 170 -50t57 -142
q0 -31 -6 -64l-72 -399q-18 -113 94 -113z" />
    <glyph glyph-name="asciitilde" unicode="~" horiz-adv-x="901" 
d="M752 543q53 0 94 35.5t51 97.5h123q-23 -131 -99.5 -198.5t-193.5 -67.5q-47 0 -100.5 22.5t-104.5 49t-98 49t-82 22.5q-53 0 -94 -36t-51 -97h-123q23 131 99.5 198.5t193.5 67.5q49 0 101 -22.5t103.5 -49t97.5 -49t83 -22.5z" />
    <glyph glyph-name="uni00A0" unicode="&#xa0;" horiz-adv-x="440" 
 />
    <glyph glyph-name="exclamdown" unicode="&#xa1;" horiz-adv-x="532" 
d="M432 932q47 0 71.5 -23.5t24.5 -64.5q0 -53 -30.5 -85t-77.5 -32t-71.5 23.5t-24.5 64.5q0 53 30.5 85t77.5 32zM326 614h123l-127 -942h-205z" />
    <glyph glyph-name="cent" unicode="&#xa2;" horiz-adv-x="962" 
d="M625 1106h153l-35 -193q111 -35 179.5 -121.5t85.5 -197.5h-160q-6 27 -23.5 61.5t-46 63.5t-68.5 49t-94 20q-55 0 -112.5 -26.5t-102.5 -75.5t-73.5 -118.5t-28.5 -153.5q0 -61 19.5 -113.5t52 -89.5t78 -57.5t94.5 -20.5q86 0 160.5 55.5t113.5 139.5h156
q-23 -59 -58.5 -114.5t-85 -101.5t-112 -78t-135.5 -40l-31 -178h-154l33 186q-63 16 -115.5 52t-90.5 88.5t-58.5 118t-20.5 138.5q0 113 38 208t100.5 165t143.5 111t167 47z" />
    <glyph glyph-name="sterling" unicode="&#xa3;" horiz-adv-x="1075" 
d="M827 655l-24 -143h-348l-39 -225q-8 -39 -25.5 -66.5t-36.5 -44.5q-23 -20 -47 -33h686l-24 -143h-891l24 143q23 0 47.5 11.5t45 30t36 45t21.5 57.5l39 225h-113l25 143h112l54 295q12 72 50 134.5t94 109.5t127 73.5t151 26.5q78 0 144 -29.5t115.5 -79.5t77 -114.5
t27.5 -134.5v-17.5t-2 -17.5l-164 14q0 6 1 12.5t1 12.5q0 90 -57 149.5t-154 59.5q-45 0 -87 -16.5t-74.5 -44t-56 -67.5t-32.5 -85l-51 -281h348z" />
    <glyph glyph-name="currency" unicode="&#xa4;" horiz-adv-x="1126" 
d="M168 655h154l110 635h430q78 0 142 -29q63 -30 108 -79t70 -114t24 -134q0 -88 -35 -165t-94 -134t-139 -90t-170 -33h-309l-29 -164h389l-24 -143h-389l-37 -205h-164l37 205h-154l25 143h153l29 164h-154zM776 655q55 0 104 21q48 20 84 57t56 87t20 110q0 92 -54 154
t-148 63h-267l-86 -492h291z" />
    <glyph glyph-name="yen" unicode="&#xa5;" horiz-adv-x="1105" 
d="M711 492l-25 -134h275l-25 -143h-274l-37 -215h-164l37 215h-277l25 143h276l25 134h-277l25 143h207l-223 655h167l209 -614l426 614h181l-457 -655h207l-25 -143h-276z" />
    <glyph glyph-name="brokenbar" unicode="&#xa6;" horiz-adv-x="655" 
d="M616 1290l-110 -635h-144l111 635h143zM301 307h164l-113 -635h-164z" />
    <glyph glyph-name="section" unicode="&#xa7;" horiz-adv-x="962" 
d="M952 528q0 -94 -42 -153.5t-91 -93.5q-57 -39 -131 -60q33 -16 60 -41q23 -23 42 -55.5t19 -79.5q0 -57 -24.5 -109.5t-68.5 -92.5t-105.5 -64.5t-135.5 -24.5q-68 0 -124 22.5t-97 61.5t-63.5 91.5t-22.5 111.5h143q0 -61 48.5 -107.5t134.5 -46.5q78 0 125 42t47 108
q0 47 -36 80t-90.5 61.5t-118 56t-117.5 65.5t-90 90t-36 130q0 90 41 149.5t92 96.5q59 43 135 68q-27 14 -49 38q-18 20 -33.5 54.5t-15.5 81.5q0 55 23.5 107t66.5 93t101.5 66.5t126.5 25.5q72 0 127 -21.5t92 -58t55 -85t18 -101.5h-141q0 23 -10 46.5t-30.5 43
t-52.5 31.5t-75 12q-70 0 -113.5 -42t-43.5 -101q0 -49 33.5 -84t85 -64.5t111.5 -59.5t111.5 -68.5t85 -91t33.5 -128.5zM573 739q-66 -10 -118 -34q-45 -23 -82 -63t-37 -112q0 -66 50 -114.5t175 -100.5q66 8 119 33q45 23 82 64t37 112q0 33 -12.5 60.5t-39 53.5t-70 50
t-104.5 51z" />
    <glyph glyph-name="dieresis" unicode="&#xa8;" horiz-adv-x="614" 
d="M352 1098q-39 0 -62.5 23.5t-23.5 60.5q0 41 30 69.5t71 28.5q39 0 62.5 -23.5t23.5 -60.5q0 -41 -30 -69.5t-71 -28.5zM657 1098q-39 0 -62.5 23.5t-23.5 60.5q0 41 30 69.5t71 28.5q39 0 62.5 -23.5t23.5 -60.5q0 -41 -30 -69.5t-71 -28.5z" />
    <glyph glyph-name="copyright" unicode="&#xa9;" horiz-adv-x="1413" 
d="M834 881q-51 0 -93.5 -25t-71 -62.5t-45 -86t-16.5 -95.5q0 -98 54.5 -150t128.5 -52q66 0 109.5 37.5t66.5 84.5h135q-47 -111 -133 -173t-191 -62q-57 0 -108.5 23.5t-89 65.5t-60 98.5t-22.5 121.5q0 82 30.5 152.5t82 123t114.5 82t129 29.5q109 0 179.5 -68.5
t84.5 -166.5h-112q-14 53 -58 88t-114 35zM870 1300q121 0 224.5 -45t179.5 -124.5t119 -187t43 -230.5q0 -154 -59.5 -286t-157 -229.5t-221.5 -152.5t-255 -55q-121 0 -224 45t-179 125t-119 187.5t-43 230.5q0 154 59.5 285.5t157 229t221 152.5t254.5 55zM862 1188
q-104 0 -204.5 -45t-179.5 -126t-128 -190.5t-49 -238.5q0 -102 35 -191.5t95.5 -155t142 -102.5t178.5 -37q104 0 204.5 45.5t179 126t128 190t49.5 238.5q0 102 -35 191.5t-95.5 155t-143.5 102.5t-177 37z" />
    <glyph glyph-name="ordfeminine" unicode="&#xaa;" horiz-adv-x="573" 
d="M479 1300q43 0 82 -16t66.5 -47t40 -73t4.5 -93l-51 -293h-82l-9 62q-18 -18 -41 -33q-20 -12 -46.5 -22.5t-61.5 -10.5q-82 0 -129 42t-47 95q0 57 28.5 93t77.5 56.5t113.5 28t138.5 7.5q8 39 -17.5 70.5t-78.5 31.5q-41 0 -65.5 -20.5t-34.5 -40.5h-103
q4 29 22.5 57.5t47 52t66.5 38.5t79 15zM551 1014q-76 0 -123 -8.5t-73.5 -21.5t-36 -29.5t-9.5 -32.5q0 -27 21.5 -44.5t70.5 -17.5q53 0 93.5 35t50.5 88z" />
    <glyph glyph-name="guillemotleft" unicode="&#xab;" horiz-adv-x="901" 
d="M322 133l-168 328l282 327h164l-293 -339l162 -316h-147zM700 133l-168 328l283 327h164l-293 -339l162 -316h-148z" />
    <glyph glyph-name="logicalnot" unicode="&#xac;" horiz-adv-x="901" 
d="M1008 778l-72 -409h-143l49 276h-697l23 133h840z" />
    <glyph glyph-name="uni00AD" unicode="&#xad;" horiz-adv-x="706" 
d="M705 461h-564l23 133h563z" />
    <glyph glyph-name="registered" unicode="&#xae;" horiz-adv-x="1413" 
d="M1079 778q0 -66 -28.5 -107.5t-63.5 -64.5q-39 -27 -90 -41l123 -258h-123l-121 246h-82l-43 -246h-112l118 676h234q41 0 75.5 -18.5t59.5 -47t39 -65.5t14 -74zM844 655q47 0 85 36t38 87q0 39 -27 69t-68 34h-118l-41 -226h131zM870 1300q121 0 224.5 -45
t179.5 -124.5t119 -187t43 -230.5q0 -154 -59.5 -286t-157 -229.5t-221.5 -152.5t-255 -55q-121 0 -224 45t-179 125t-119 187.5t-43 230.5q0 154 59.5 285.5t157 229t221 152.5t254.5 55zM862 1188q-104 0 -204.5 -45t-179.5 -126t-128 -190.5t-49 -238.5q0 -102 35 -191.5
t95.5 -155t142 -102.5t178.5 -37q104 0 204.5 45.5t179 126t128 190t49.5 238.5q0 102 -35 191.5t-95.5 155t-143.5 102.5t-177 37z" />
    <glyph glyph-name="macron" unicode="&#xaf;" horiz-adv-x="614" 
d="M748 1106h-492l23 123h491z" />
    <glyph glyph-name="degree" unicode="&#xb0;" horiz-adv-x="634" 
d="M516 1300q49 0 90 -18t71 -49t46 -72t16 -86q0 -55 -23.5 -103t-61.5 -84t-86 -57.5t-99 -21.5q-49 0 -90 18.5t-70.5 49t-46 71.5t-16.5 86q0 55 23.5 103.5t61.5 84t86 57t99 21.5zM473 922q55 0 97 43t42 102q0 47 -28.5 84t-71.5 37q-55 0 -97 -43t-42 -103
q0 -47 28.5 -83.5t71.5 -36.5z" />
    <glyph glyph-name="plusminus" unicode="&#xb1;" horiz-adv-x="901" 
d="M72 61l22 134h318l61 348h-317l24 133h318l59 338h143l-59 -338h317l-24 -133h-318l-61 -348h317l-22 -134h-778z" />
    <glyph glyph-name="uni00B2" unicode="&#xb2;" horiz-adv-x="522" 
d="M393 983h242l-19 -102h-399l14 82l269 233q31 27 55.5 51.5t24.5 63.5q0 29 -21.5 50t-69.5 21q-37 0 -64.5 -25.5t-33.5 -66.5h-108q6 43 25.5 78t49 61.5t65.5 41t75 14.5q92 0 142 -50.5t50 -119.5q0 -31 -12 -57.5t-26.5 -46t-29 -32t-16.5 -14.5z" />
    <glyph glyph-name="uni00B3" unicode="&#xb3;" horiz-adv-x="542" 
d="M606 1188q16 -10 29 -27q10 -14 20.5 -35.5t10.5 -52.5q0 -86 -60.5 -144.5t-154.5 -58.5q-92 0 -149.5 51.5t-61.5 143.5h110q0 -35 23.5 -63.5t70.5 -28.5q49 0 78 26.5t29 61.5t-21.5 58.5t-62.5 23.5h-55l16 92h64q39 0 61 23.5t22 56.5q0 29 -19 48t-60 19
t-67 -24.5t-36 -57.5h-106q8 39 27.5 73t49 58.5t65.5 39t75 14.5q86 0 135 -48t49 -114q0 -39 -12 -64.5t-29 -41.5q-18 -19 -41 -29z" />
    <glyph glyph-name="acute" unicode="&#xb4;" horiz-adv-x="399" 
d="M420 1290h153l-217 -246h-102z" />
    <glyph glyph-name="mu" unicode="&#xb5;" horiz-adv-x="1044" 
d="M532 -10q-55 0 -98 19.5t-72 41.5q-35 27 -57 62l-76 -441h-153l219 1250h154l-95 -539q-10 -53 3.5 -98t43 -79t71.5 -53.5t89 -19.5q98 0 171 63.5t91 172.5l97 553h153l-162 -922h-112l-25 102q-27 -33 -63 -57q-31 -23 -76.5 -39t-102.5 -16z" />
    <glyph glyph-name="paragraph" unicode="&#xb6;" horiz-adv-x="1024" 
d="M1071 1290l-260 -1474h-133l235 1337h-215l-235 -1337h-133l153 882q-55 4 -102 29t-81 63.5t-53.5 87t-19.5 99.5q0 63 29 119.5t76 99.5t107.5 68.5t123.5 25.5h508z" />
    <glyph glyph-name="periodcentered" unicode="&#xb7;" horiz-adv-x="440" 
d="M340 543q-47 0 -72.5 24.5t-25.5 65.5q0 51 30.5 83t77.5 32t73 -25t26 -66q0 -51 -31 -82.5t-78 -31.5z" />
    <glyph glyph-name="cedilla" unicode="&#xb8;" horiz-adv-x="399" 
d="M205 -82q53 -12 81.5 -44t28.5 -77q0 -59 -45 -101t-133 -42q-49 0 -84 10q-20 4 -35 10l15 82q0 2 28.5 -7t63.5 -9q43 0 66.5 18.5t23.5 42.5q0 20 -23.5 40t-70.5 20q-10 0 -17.5 -1t-11.5 -1q-6 -2 -10 -2l86 143h94z" />
    <glyph glyph-name="uni00B9" unicode="&#xb9;" horiz-adv-x="419" 
d="M465 1475h82l-105 -594h-112l78 450l-89 -41l-36 82z" />
    <glyph glyph-name="ordmasculine" unicode="&#xba;" horiz-adv-x="634" 
d="M516 1188q-29 0 -58.5 -12.5t-53 -35t-39 -52t-15.5 -64.5q0 -59 37 -101t90 -42q29 0 58.5 12t53 34.5t39 52.5t15.5 64q0 59 -37 101.5t-90 42.5zM526 1300q49 0 91 -19t73 -53t48.5 -78t17.5 -95q0 -59 -24.5 -111.5t-65.5 -91.5t-93.5 -61.5t-105.5 -22.5
q-49 0 -91 19.5t-73 53t-48 78t-17 95.5q0 59 24.5 111.5t65.5 91t93 61t105 22.5z" />
    <glyph glyph-name="guillemotright" unicode="&#xbb;" horiz-adv-x="901" 
d="M756 788l168 -327l-283 -328h-164l293 340l-162 315h148zM377 788l168 -327l-283 -328h-164l293 340l-162 315h148z" />
    <glyph glyph-name="onequarter" unicode="&#xbc;" horiz-adv-x="1167" 
d="M995 215h72l-18 -102h-72l-21 -113h-112l20 113h-256l15 82l315 399h123zM883 215l37 215l-170 -215h133zM489 1290h82l-104 -594h-113l78 451l-88 -41l-37 82zM98 0l1016 1290h117l-1016 -1290h-117z" />
    <glyph glyph-name="onehalf" unicode="&#xbd;" horiz-adv-x="1177" 
d="M866 102h242l-18 -102h-400l15 82l268 233q31 27 55 52q25 25 25 63q0 29 -22 50q-22 22 -68 22q-37 0 -65 -26t-34 -66h-108q6 43 25 77q19 35 49 62t66 41t75 14q92 0 142 -50t50 -120q0 -31 -12 -57q-12 -27 -27 -46q-14 -19 -28 -32q-14 -12 -17 -14zM489 1290h82
l-104 -594h-113l78 451l-88 -41l-37 82zM98 0l1016 1290h117l-1016 -1290h-117z" />
    <glyph glyph-name="threequarters" unicode="&#xbe;" horiz-adv-x="1228" 
d="M586 1004q16 -10 28 -27q10 -14 21 -36q10 -22 10 -52q0 -86 -60 -145q-60 -58 -155 -58q-92 0 -149 51t-62 144h111q0 -35 23 -64q24 -29 71 -29q49 0 78 27t28 62q0 35 -21 58q-22 24 -63 23h-55l17 93h63q39 0 61 23q23 24 23 56q0 29 -19 49q-19 19 -61 19
q-41 0 -66 -24q-26 -25 -36 -58h-107q8 39 28 73q19 34 49 58q30 25 66 39t74 14q86 0 135 -48t50 -113q0 -39 -13 -65q-12 -26 -28 -42q-18 -18 -41 -28zM1057 215h71l-18 -102h-72l-20 -113h-113l21 113h-256l14 82l315 399h123zM944 215l37 215l-170 -215h133zM160 0
l1016 1290h116l-1016 -1290h-116z" />
    <glyph glyph-name="questiondown" unicode="&#xbf;" horiz-adv-x="880" 
d="M451 -184q98 0 160.5 66.5t86.5 189.5l4 20h162l-6 -35q-33 -180 -141.5 -282.5t-274.5 -102.5q-76 0 -138 21.5t-108 61.5t-72 94.5t-26 121.5q0 86 24.5 141.5t63.5 94.5t86 69.5t92.5 69.5t82 94.5t57.5 143.5l4 18h164l-4 -20q-20 -104 -58.5 -171t-83.5 -111
t-92 -74.5t-85 -63.5t-61.5 -75t-23.5 -107q0 -76 54.5 -120t132.5 -44zM627 932q47 0 71.5 -23.5t24.5 -64.5q0 -53 -30.5 -85t-78.5 -32q-47 0 -71.5 23.5t-24.5 64.5q0 53 31 85t78 32z" />
    <glyph glyph-name="Agrave" unicode="&#xc0;" horiz-adv-x="1126" 
d="M840 1444h-103l-174 246h154zM897 317h-532l-179 -317h-176l719 1290h143l265 -1290h-172zM442 461h430l-116 563z" />
    <glyph glyph-name="Aacute" unicode="&#xc1;" horiz-adv-x="1126" 
d="M942 1690h154l-217 -246h-103zM897 317h-532l-179 -317h-176l719 1290h143l265 -1290h-172zM442 461h430l-116 563z" />
    <glyph glyph-name="Acircumflex" unicode="&#xc2;" horiz-adv-x="1126" 
d="M762 1679h143l142 -245h-144l-78 143l-127 -143h-163zM897 317h-532l-179 -317h-176l719 1290h143l265 -1290h-172zM442 461h430l-116 563z" />
    <glyph glyph-name="Atilde" unicode="&#xc3;" horiz-adv-x="1126" 
d="M938 1528q33 0 62 28q30 29 40 89h93q-18 -117 -76 -174q-57 -56 -125 -56q-47 0 -75 21q-28 20 -49 45q-22 25 -41 45t-46 20q-33 0 -63 -28q-30 -29 -40 -88h-92q18 117 76 173q57 56 125 56q45 0 74 -21q29 -20 50 -45q22 -25 40 -45t47 -20zM897 317h-532l-179 -317
h-176l719 1290h143l265 -1290h-172zM442 461h430l-116 563z" />
    <glyph glyph-name="Adieresis" unicode="&#xc4;" horiz-adv-x="1126" 
d="M662 1464q-39 0 -63 24t-24 60q0 41 30 70t71 29q39 0 62 -24q24 -24 24 -60q0 -41 -30 -70q-29 -29 -70 -29zM967 1464q-39 0 -63 24t-23 60q0 41 29 70q30 29 71 29q39 0 62 -24q24 -24 24 -60q0 -41 -30 -70q-29 -29 -70 -29zM897 317h-532l-179 -317h-176l719 1290
h143l265 -1290h-172zM442 461h430l-116 563z" />
    <glyph glyph-name="Aring" unicode="&#xc5;" horiz-adv-x="1126" 
d="M840 1638q-29 0 -53 -22q-24 -23 -23 -57q0 -27 19 -46q19 -18 51 -18q29 0 52 23q24 23 23 57q0 27 -19 45t-50 18zM850 1731q66 0 107 -42q42 -42 42 -106q0 -78 -52 -129t-124 -51q-66 0 -107 42q-42 42 -42 105q0 78 52 129q52 52 124 52zM897 317h-532l-179 -317
h-176l719 1290h143l265 -1290h-172zM442 461h430l-116 563z" />
    <glyph glyph-name="AE" unicode="&#xc6;" horiz-adv-x="1648" 
d="M1571 143l-25 -143h-758l58 328h-481l-242 -328h-184l954 1290h860l-24 -143h-574l-74 -410h523l-25 -143h-522l-80 -451h594zM473 471h399l119 676h-20z" />
    <glyph glyph-name="Ccedilla" unicode="&#xc7;" horiz-adv-x="1314" 
d="M1208 860q-27 82 -78 148q-43 55 -113.5 102t-176.5 47q-90 0 -179.5 -43t-160 -119.5t-115.5 -182t-45 -230.5q0 -100 31.5 -183.5t86 -141.5t126 -91t151.5 -33q68 0 133.5 25.5t122 66.5t101.5 95.5t71 109.5h172q-37 -84 -94 -158.5t-128 -132t-153.5 -95.5
t-168.5 -48l-54 -78q53 -12 82 -44t29 -77q0 -59 -45 -101t-133 -42q-49 0 -84 10q-20 4 -35 10l14 82q0 2 29 -7t63 -9q43 0 67 18.5t24 42.5q0 20 -24 40t-71 20q-10 0 -17 -1t-11 -1q-6 -2 -11 -2l80 135q-109 6 -204 52t-164.5 124t-109.5 182.5t-40 224.5
q0 154 59.5 286t154.5 230.5t216 153.5t246 55q102 0 189 -35.5t155 -96t114 -140.5t66 -168h-168z" />
    <glyph glyph-name="Egrave" unicode="&#xc8;" horiz-adv-x="1105" 
d="M905 1444h-102l-174 246h153zM1028 143l-24 -143h-840l227 1290h819l-24 -143h-656l-73 -410h604l-25 -143h-604l-80 -451h676z" />
    <glyph glyph-name="Eacute" unicode="&#xc9;" horiz-adv-x="1105" 
d="M932 1690h153l-217 -246h-102zM1028 143l-24 -143h-840l227 1290h819l-24 -143h-656l-73 -410h604l-25 -143h-604l-80 -451h676z" />
    <glyph glyph-name="Ecircumflex" unicode="&#xca;" horiz-adv-x="1105" 
d="M809 1679h143l142 -245h-144l-78 143l-127 -143h-163zM1028 143l-24 -143h-840l227 1290h819l-24 -143h-656l-73 -410h604l-25 -143h-604l-80 -451h676z" />
    <glyph glyph-name="Edieresis" unicode="&#xcb;" horiz-adv-x="1105" 
d="M1028 143l-24 -143h-840l227 1290h819l-24 -143h-656l-73 -410h604l-25 -143h-604l-80 -451h676zM678 1466q-39 0 -62.5 23.5t-23.5 60.5q0 41 29.5 70t70.5 29q39 0 62.5 -23.5t23.5 -60.5q0 -41 -29.5 -70t-70.5 -29zM983 1466q-39 0 -62.5 23.5t-23.5 60.5
q0 41 29.5 70t70.5 29q39 0 62.5 -23.5t23.5 -60.5q0 -41 -29.5 -70t-70.5 -29z" />
    <glyph glyph-name="Igrave" unicode="&#xcc;" horiz-adv-x="491" 
d="M526 1444h-102l-174 246h153zM328 0h-164l227 1290h164z" />
    <glyph glyph-name="Iacute" unicode="&#xcd;" horiz-adv-x="491" 
d="M608 1690h154l-217 -246h-103zM328 0h-164l227 1290h164z" />
    <glyph glyph-name="Icircumflex" unicode="&#xce;" horiz-adv-x="491" 
d="M461 1679h143l141 -245h-143l-78 143l-127 -143h-164zM328 0h-164l227 1290h164z" />
    <glyph glyph-name="Idieresis" unicode="&#xcf;" horiz-adv-x="491" 
d="M342 1434q-39 0 -62 23q-24 24 -24 61q0 41 30 69q30 29 70 29q39 0 63 -24t23 -60q0 -41 -29 -70q-30 -28 -71 -28zM647 1434q-39 0 -62 23q-24 24 -24 61q0 41 30 69q30 29 71 29q39 0 62 -24q24 -24 24 -60q0 -41 -30 -70q-30 -28 -71 -28zM328 0h-164l227 1290h164z
" />
    <glyph glyph-name="Eth" unicode="&#xd0;" horiz-adv-x="1269" 
d="M1307 719q0 -143 -53.5 -273.5t-145.5 -229.5t-216 -157.5t-263 -58.5h-416l98 563h-182l25 144h184l102 583h363q111 0 204 -46t159.5 -124t103.5 -181t37 -220zM637 143q92 0 182 43t163 119t117 178.5t44 223.5q0 90 -29 170.5t-78 141t-116.5 95.5t-143.5 35l-196 -2
l-78 -440h246l-25 -144h-248l-74 -420h236z" />
    <glyph glyph-name="Ntilde" unicode="&#xd1;" horiz-adv-x="1280" 
d="M1014 1548q33 0 62 29q30 29 40 88h92q-18 -117 -75 -173t-125 -56q-47 0 -75 20t-49 45q-22 25 -41 45t-46 21q-33 0 -63 -29t-40 -88h-92q18 117 76 173q57 56 125 56q45 0 74 -20t50 -45q22 -25 40 -45q18 -21 47 -21zM1343 1290l-227 -1290h-143l-473 973l-172 -973
h-164l227 1290h144l473 -973l172 973h163z" />
    <glyph glyph-name="Ograve" unicode="&#xd2;" horiz-adv-x="1351" 
d="M944 1444h-102l-174 246h153zM729 133q96 0 186 45t160 123t112 184t42 228q0 96 -32 178t-85 141t-124 92t-148 33q-90 0 -180 -42q-89 -42 -159 -119q-71 -77 -116 -183t-45 -233q0 -96 32 -179q32 -82 85 -141t124 -93q70 -34 148 -34zM852 1300q113 0 211 -45
t172 -123q74 -79 116 -186q42 -106 42 -231q0 -154 -59 -286q-58 -132 -153 -230t-217 -154q-122 -55 -247 -55q-113 0 -211 45t-172 124t-116 185t-42 231q0 154 58 286t154 231q95 98 217 153t247 55z" />
    <glyph glyph-name="Oacute" unicode="&#xd3;" horiz-adv-x="1351" 
d="M1004 1690h153l-217 -246h-102zM729 133q96 0 186 45t160 123t112 184t42 228q0 96 -32 178t-85 141t-124 92t-148 33q-90 0 -180 -42q-89 -42 -159 -119q-71 -77 -116 -183t-45 -233q0 -96 32 -179q32 -82 85 -141t124 -93q70 -34 148 -34zM852 1300q113 0 211 -45
t172 -123q74 -79 116 -186q42 -106 42 -231q0 -154 -59 -286q-58 -132 -153 -230t-217 -154q-122 -55 -247 -55q-113 0 -211 45t-172 124t-116 185t-42 231q0 154 58 286t154 231q95 98 217 153t247 55z" />
    <glyph glyph-name="Ocircumflex" unicode="&#xd4;" horiz-adv-x="1351" 
d="M850 1679h143l142 -245h-144l-78 143l-127 -143h-163zM729 133q96 0 186 45t160 123t112 184t42 228q0 96 -32 178t-85 141t-124 92t-148 33q-90 0 -180 -42q-89 -42 -159 -119q-71 -77 -116 -183t-45 -233q0 -96 32 -179q32 -82 85 -141t124 -93q70 -34 148 -34z
M852 1300q113 0 211 -45t172 -123q74 -79 116 -186q42 -106 42 -231q0 -154 -59 -286q-58 -132 -153 -230t-217 -154q-122 -55 -247 -55q-113 0 -211 45t-172 124t-116 185t-42 231q0 154 58 286t154 231q95 98 217 153t247 55z" />
    <glyph glyph-name="Otilde" unicode="&#xd5;" horiz-adv-x="1351" 
d="M1010 1544q33 0 62 29q30 29 40 88h92q-18 -117 -76 -173q-57 -56 -124 -56q-47 0 -75 20t-49 45q-22 25 -41 45t-46 21q-33 0 -63 -29t-40 -88h-92q18 117 76 173q57 56 125 56q45 0 73 -20q29 -20 51 -45t40 -45q18 -21 47 -21zM729 133q96 0 186 45t160 123t112 184
t42 228q0 96 -32 178t-85 141t-124 92t-148 33q-90 0 -180 -42q-89 -42 -159 -119q-71 -77 -116 -183t-45 -233q0 -96 32 -179q32 -82 85 -141t124 -93q70 -34 148 -34zM852 1300q113 0 211 -45t172 -123q74 -79 116 -186q42 -106 42 -231q0 -154 -59 -286
q-58 -132 -153 -230t-217 -154q-122 -55 -247 -55q-113 0 -211 45t-172 124t-116 185t-42 231q0 154 58 286t154 231q95 98 217 153t247 55z" />
    <glyph glyph-name="Odieresis" unicode="&#xd6;" horiz-adv-x="1351" 
d="M723 1464q-39 0 -63 24t-23 60q0 41 30 70t70 29q39 0 63 -24t23 -60q0 -41 -29 -70q-30 -29 -71 -29zM1028 1464q-39 0 -62 24q-24 24 -24 60q0 41 30 70t70 29q39 0 63 -24t23 -60q0 -41 -29 -70q-30 -29 -71 -29zM729 133q96 0 186 45t160 123t112 184t42 228
q0 96 -32 178t-85 141t-124 92t-148 33q-90 0 -180 -42q-89 -42 -159 -119q-71 -77 -116 -183t-45 -233q0 -96 32 -179q32 -82 85 -141t124 -93q70 -34 148 -34zM852 1300q113 0 211 -45t172 -123q74 -79 116 -186q42 -106 42 -231q0 -154 -59 -286q-58 -132 -153 -230
t-217 -154q-122 -55 -247 -55q-113 0 -211 45t-172 124t-116 185t-42 231q0 154 58 286t154 231q95 98 217 153t247 55z" />
    <glyph glyph-name="multiply" unicode="&#xd7;" horiz-adv-x="901" 
d="M829 283l-108 -93l-191 232l-276 -236l-86 103l278 235l-190 232l109 92l190 -232l276 236l87 -102l-279 -236z" />
    <glyph glyph-name="Oslash" unicode="&#xd8;" horiz-adv-x="1351" 
d="M1323 1004q70 -129 70 -289q0 -154 -58.5 -286t-154 -230.5t-217 -153.5t-246.5 -55q-119 0 -222.5 49t-177.5 135l-186 -154l-84 103l197 162q-33 66 -50.5 138.5t-17.5 151.5q0 154 58.5 286t153.5 230.5t217 153.5t247 55q119 0 221.5 -50t175.5 -136l189 156l84 -103
zM729 133q96 0 186.5 45t160 123t111.5 184.5t42 227.5q0 98 -35 184l-754 -621q53 -68 128 -105.5t161 -37.5zM340 580q0 -100 35 -187l751 621q-53 66 -127.5 104.5t-158.5 38.5q-90 0 -179.5 -42t-160 -118.5t-115.5 -183t-45 -233.5z" />
    <glyph glyph-name="Ugrave" unicode="&#xd9;" horiz-adv-x="1228" 
d="M920 1444h-103l-174 246h154zM659 -10q-115 0 -197 36q-83 36 -136 95t-78 134t-25 153q0 51 8 90l140 792h164l-142 -803q-4 -20 -6 -41q-2 -20 -2 -38q0 -123 75 -199t210 -76q61 0 116 22t99 59q43 38 71 93q29 55 41 123l152 860h164l-154 -872q-16 -92 -61 -171
t-111 -136t-149 -89q-85 -32 -179 -32z" />
    <glyph glyph-name="Uacute" unicode="&#xda;" horiz-adv-x="1228" 
d="M942 1690h154l-217 -246h-103zM659 -10q-115 0 -197 36q-83 36 -136 95t-78 134t-25 153q0 51 8 90l140 792h164l-142 -803q-4 -20 -6 -41q-2 -20 -2 -38q0 -123 75 -199t210 -76q61 0 116 22t99 59q43 38 71 93q29 55 41 123l152 860h164l-154 -872q-16 -92 -61 -171
t-111 -136t-149 -89q-85 -32 -179 -32z" />
    <glyph glyph-name="Ucircumflex" unicode="&#xdb;" horiz-adv-x="1228" 
d="M827 1679h144l141 -245h-143l-78 143l-127 -143h-164zM659 -10q-115 0 -197 36q-83 36 -136 95t-78 134t-25 153q0 51 8 90l140 792h164l-142 -803q-4 -20 -6 -41q-2 -20 -2 -38q0 -123 75 -199t210 -76q61 0 116 22t99 59q43 38 71 93q29 55 41 123l152 860h164
l-154 -872q-16 -92 -61 -171t-111 -136t-149 -89q-85 -32 -179 -32z" />
    <glyph glyph-name="Udieresis" unicode="&#xdc;" horiz-adv-x="1228" 
d="M705 1464q-39 0 -63 24t-24 60q0 41 30 70t71 29q39 0 62 -24q24 -24 24 -60q0 -41 -30 -70q-29 -29 -70 -29zM1010 1464q-39 0 -63 24t-23 60q0 41 29 70q30 29 71 29q39 0 62 -24q24 -24 24 -60q0 -41 -30 -70q-29 -29 -70 -29zM659 -10q-115 0 -197 36q-83 36 -136 95
t-78 134t-25 153q0 51 8 90l140 792h164l-142 -803q-4 -20 -6 -41q-2 -20 -2 -38q0 -123 75 -199t210 -76q61 0 116 22t99 59q43 38 71 93q29 55 41 123l152 860h164l-154 -872q-16 -92 -61 -171t-111 -136t-149 -89q-85 -32 -179 -32z" />
    <glyph glyph-name="Yacute" unicode="&#xdd;" horiz-adv-x="1024" 
d="M850 1690h154l-218 -246h-102zM238 1290h168l208 -614l426 614h181l-549 -788l-88 -502h-164l88 502z" />
    <glyph glyph-name="Thorn" unicode="&#xde;" horiz-adv-x="1198" 
d="M555 1290l-39 -225h369q74 0 136 -32t107.5 -83t71 -116.5t25.5 -133.5q0 -82 -36 -156.5t-97.5 -132t-140.5 -91t-165 -33.5h-407l-51 -287h-164l227 1290h164zM795 430q51 0 100 21.5t87 57.5t60.5 84t22.5 101q0 43 -15.5 84t-43 73t-65.5 51.5t-81 19.5h-371
l-86 -492h392z" />
    <glyph glyph-name="germandbls" unicode="&#xdf;" horiz-adv-x="1044" 
d="M866 666q43 -25 80 -62q31 -33 56.5 -85t25.5 -128q0 -86 -31.5 -157.5t-84 -124t-121 -81t-142.5 -28.5h-137l23 133h118q43 0 83 17.5t71 51.5t49 82t18 107q0 80 -41.5 136.5t-115.5 56.5h-103l25 133h18q43 0 84 18.5t73 52t51.5 79.5t19.5 104q0 86 -52.5 141
t-132.5 55q-41 0 -78.5 -16t-70.5 -43t-55.5 -63.5t-28.5 -75.5l-170 -969h-154l174 983q10 66 46 123t88.5 100t118 68.5t137.5 25.5q74 0 135 -24.5t104 -67.5t67.5 -102t24.5 -127q0 -90 -26.5 -149.5t-59.5 -96.5q-37 -42 -86 -67z" />
    <glyph glyph-name="agrave" unicode="&#xe0;" horiz-adv-x="952" 
d="M745 1075h-102l-174 246h154zM608 932q106 0 175 -36t107 -88t48 -112q10 -59 2 -104l-104 -592h-113l-25 102q-29 -33 -67 -57q-35 -23 -83 -39t-112 -16q-70 0 -124 20t-92 57q-38 36 -57 84t-20 101q0 90 50 149q49 59 135 96q86 36 202 51q117 15 252 15l6 35
q6 39 -5 74t-38 60q-27 26 -64 41q-38 15 -83 15q-72 0 -119 -39q-47 -40 -69 -94h-170q14 51 48 102q34 50 82 89t108 62q60 24 130 24zM455 133q57 0 107 20q50 19 88 50t63 68q25 38 30 77l13 72q-156 0 -247 -13t-138 -37t-61 -56q-13 -32 -13 -68q0 -57 47 -85
q48 -28 111 -28z" />
    <glyph glyph-name="aacute" unicode="&#xe1;" horiz-adv-x="952" 
d="M788 1321h154l-217 -246h-102zM608 932q106 0 175 -36t107 -88t48 -112q10 -59 2 -104l-104 -592h-113l-25 102q-29 -33 -67 -57q-35 -23 -83 -39t-112 -16q-70 0 -124 20t-92 57q-38 36 -57 84t-20 101q0 90 50 149q49 59 135 96q86 36 202 51q117 15 252 15l6 35
q6 39 -5 74t-38 60q-27 26 -64 41q-38 15 -83 15q-72 0 -119 -39q-47 -40 -69 -94h-170q14 51 48 102q34 50 82 89t108 62q60 24 130 24zM455 133q57 0 107 20q50 19 88 50t63 68q25 38 30 77l13 72q-156 0 -247 -13t-138 -37t-61 -56q-13 -32 -13 -68q0 -57 47 -85
q48 -28 111 -28z" />
    <glyph glyph-name="acircumflex" unicode="&#xe2;" horiz-adv-x="952" 
d="M645 1311h143l142 -246h-144l-77 143l-127 -143h-164zM608 932q106 0 175 -36t107 -88t48 -112q10 -59 2 -104l-104 -592h-113l-25 102q-29 -33 -67 -57q-35 -23 -83 -39t-112 -16q-70 0 -124 20t-92 57q-38 36 -57 84t-20 101q0 90 50 149q49 59 135 96q86 36 202 51
q117 15 252 15l6 35q6 39 -5 74t-38 60q-27 26 -64 41q-38 15 -83 15q-72 0 -119 -39q-47 -40 -69 -94h-170q14 51 48 102q34 50 82 89t108 62q60 24 130 24zM455 133q57 0 107 20q50 19 88 50t63 68q25 38 30 77l13 72q-156 0 -247 -13t-138 -37t-61 -56q-13 -32 -13 -68
q0 -57 47 -85q48 -28 111 -28z" />
    <glyph glyph-name="atilde" unicode="&#xe3;" horiz-adv-x="952" 
d="M795 1159q33 0 62 29q30 29 40 88h92q-18 -117 -76 -173q-57 -56 -125 -56q-47 0 -74 20q-28 20 -49 45q-22 25 -41 45t-46 21q-33 0 -63 -29t-40 -88h-92q18 117 76 173q57 56 125 56q45 0 73 -20q29 -20 51 -45t40 -45q18 -21 47 -21zM608 932q106 0 175 -36t107 -88
t48 -112q10 -59 2 -104l-104 -592h-113l-25 102q-29 -33 -67 -57q-35 -23 -83 -39t-112 -16q-70 0 -124 20t-92 57q-38 36 -57 84t-20 101q0 90 50 149q49 59 135 96q86 36 202 51q117 15 252 15l6 35q6 39 -5 74t-38 60q-27 26 -64 41q-38 15 -83 15q-72 0 -119 -39
q-47 -40 -69 -94h-170q14 51 48 102q34 50 82 89t108 62q60 24 130 24zM455 133q57 0 107 20q50 19 88 50t63 68q25 38 30 77l13 72q-156 0 -247 -13t-138 -37t-61 -56q-13 -32 -13 -68q0 -57 47 -85q48 -28 111 -28z" />
    <glyph glyph-name="adieresis" unicode="&#xe4;" horiz-adv-x="952" 
d="M535 1096q-39 0 -63 23q-24 24 -23 61q0 41 29 69q30 29 71 29q39 0 62 -24q24 -24 24 -60q0 -41 -30 -70q-29 -28 -70 -28zM840 1096q-39 0 -63 23q-24 24 -23 61q0 41 29 69q30 29 71 29q39 0 62 -24q24 -24 24 -60q0 -41 -30 -70q-29 -28 -70 -28zM608 932
q106 0 175 -36t107 -88t48 -112q10 -59 2 -104l-104 -592h-113l-25 102q-29 -33 -67 -57q-35 -23 -83 -39t-112 -16q-70 0 -124 20t-92 57q-38 36 -57 84t-20 101q0 90 50 149q49 59 135 96q86 36 202 51q117 15 252 15l6 35q6 39 -5 74t-38 60q-27 26 -64 41q-38 15 -83 15
q-72 0 -119 -39q-47 -40 -69 -94h-170q14 51 48 102q34 50 82 89t108 62q60 24 130 24zM455 133q57 0 107 20q50 19 88 50t63 68q25 38 30 77l13 72q-156 0 -247 -13t-138 -37t-61 -56q-13 -32 -13 -68q0 -57 47 -85q48 -28 111 -28z" />
    <glyph glyph-name="aring" unicode="&#xe5;" horiz-adv-x="952" 
d="M709 1280q-29 0 -53 -23t-23 -57q0 -27 19 -45t50 -18q29 0 53 22q24 23 23 58q0 27 -19 45t-50 18zM719 1372q66 0 107 -42q42 -42 42 -105q0 -78 -52 -129t-124 -52q-66 0 -107 42q-42 42 -42 106q0 78 52 129t124 51zM608 932q106 0 175 -36t107 -88t48 -112
q10 -59 2 -104l-104 -592h-113l-25 102q-29 -33 -67 -57q-35 -23 -83 -39t-112 -16q-70 0 -124 20t-92 57q-38 36 -57 84t-20 101q0 90 50 149q49 59 135 96q86 36 202 51q117 15 252 15l6 35q6 39 -5 74t-38 60q-27 26 -64 41q-38 15 -83 15q-72 0 -119 -39
q-47 -40 -69 -94h-170q14 51 48 102q34 50 82 89t108 62q60 24 130 24zM455 133q57 0 107 20q50 19 88 50t63 68q25 38 30 77l13 72q-156 0 -247 -13t-138 -37t-61 -56q-13 -32 -13 -68q0 -57 47 -85q48 -28 111 -28z" />
    <glyph glyph-name="ae" unicode="&#xe6;" horiz-adv-x="1591" 
d="M608 932q119 0 194 -44t109 -104q66 70 151 109t173 39q94 0 167 -34t122 -89t73.5 -126t24.5 -144q0 -72 -15.5 -106t-13.5 -34h-673q2 -47 19 -94t47 -86t74 -62.5t103 -23.5q39 0 74 12.5t64.5 30t50 36.5t30.5 34h181q-63 -113 -171 -184.5t-239 -71.5
q-63 0 -118.5 19.5t-98.5 49t-74 63.5t-43 62q-12 -18 -40.5 -51t-74 -64.5t-107.5 -55t-140 -23.5t-136.5 20.5t-97.5 56t-59.5 84t-20.5 101.5q0 90 49.5 148.5t135.5 92t202.5 47t251.5 13.5l6 45q6 39 -5 74t-37.5 60.5t-64.5 40.5t-83 15q-72 0 -119 -39.5t-69 -93.5
h-170q14 51 48 101.5t82 89.5t108 62.5t130 23.5zM1247 788q-47 0 -93 -16t-86 -48t-71.5 -78t-50.5 -103h520q2 57 -15 103t-49 78t-72 48t-83 16zM455 133q57 0 107 19.5t88 50t62.5 68.5t30.5 77l13 62q-156 0 -247 -12.5t-138 -34t-60.5 -51t-13.5 -66.5q0 -57 47.5 -85
t110.5 -28z" />
    <glyph glyph-name="ccedilla" unicode="&#xe7;" horiz-adv-x="962" 
d="M848 594q-6 27 -23.5 61.5t-46 63.5t-68.5 49t-94 20q-55 0 -112.5 -26.5t-102.5 -75.5t-73.5 -118.5t-28.5 -153.5q0 -61 19.5 -113.5t52 -89.5t78 -57.5t94.5 -20.5q86 0 160.5 55.5t113.5 139.5h156q-23 -57 -57.5 -113.5t-84 -102.5t-111 -78t-134.5 -40l-54 -76
q53 -12 82 -44t29 -77q0 -59 -45 -101t-133 -42q-49 0 -84 10q-20 4 -35 10l14 82q0 2 29 -7t64 -9q43 0 66.5 18.5t23.5 42.5q0 20 -23.5 40t-70.5 20q-10 0 -17.5 -1t-11.5 -1q-6 -2 -10 -2l79 135q-76 6 -138 40t-108 88t-72 124.5t-26 154.5q0 119 41 216.5t108.5 168
t154 109.5t176.5 39q80 0 146.5 -26.5t115.5 -73t79.5 -107.5t41.5 -131h-160z" />
    <glyph glyph-name="egrave" unicode="&#xe8;" horiz-adv-x="972" 
d="M731 1073h-102l-174 246h153zM944 246q-63 -113 -171 -185t-238 -71q-84 0 -155 30q-71 31 -123 85t-82 129t-30 165q0 119 41 216t108 168t150 110q84 39 172 39q94 0 167 -34t122 -89t74 -126t25 -144q0 -72 -16 -111q-15 -39 -13 -39h-674q2 -47 20 -93q17 -46 47 -82
t73 -58q44 -23 104 -23q39 0 73 12q35 12 65 30q30 17 50 37q20 19 31 34h180zM618 788q-47 0 -93 -20t-86 -55t-71 -84q-32 -49 -51 -107h531q2 61 -15 111q-17 49 -51 84q-33 35 -75 53q-44 18 -89 18z" />
    <glyph glyph-name="eacute" unicode="&#xe9;" horiz-adv-x="972" 
d="M758 1309h153l-217 -246h-102zM944 246q-63 -113 -171 -185t-238 -71q-84 0 -155 30q-71 31 -123 85t-82 129t-30 165q0 119 41 216t108 168t150 110q84 39 172 39q94 0 167 -34t122 -89t74 -126t25 -144q0 -72 -16 -111q-15 -39 -13 -39h-674q2 -47 20 -93
q17 -46 47 -82t73 -58q44 -23 104 -23q39 0 73 12q35 12 65 30q30 17 50 37q20 19 31 34h180zM618 788q-47 0 -93 -20t-86 -55t-71 -84q-32 -49 -51 -107h531q2 61 -15 111q-17 49 -51 84q-33 35 -75 53q-44 18 -89 18z" />
    <glyph glyph-name="ecircumflex" unicode="&#xea;" horiz-adv-x="972" 
d="M637 1311h143l142 -246h-144l-78 143l-127 -143h-163zM944 246q-63 -113 -171 -185t-238 -71q-84 0 -155 30q-71 31 -123 85t-82 129t-30 165q0 119 41 216t108 168t150 110q84 39 172 39q94 0 167 -34t122 -89t74 -126t25 -144q0 -72 -16 -111q-15 -39 -13 -39h-674
q2 -47 20 -93q17 -46 47 -82t73 -58q44 -23 104 -23q39 0 73 12q35 12 65 30q30 17 50 37q20 19 31 34h180zM618 788q-47 0 -93 -20t-86 -55t-71 -84q-32 -49 -51 -107h531q2 61 -15 111q-17 49 -51 84q-33 35 -75 53q-44 18 -89 18z" />
    <glyph glyph-name="edieresis" unicode="&#xeb;" horiz-adv-x="972" 
d="M532 1096q-39 0 -62 23q-24 24 -24 61q0 41 30 69q30 29 71 29q39 0 62 -24q24 -24 24 -60q0 -41 -30 -70q-30 -28 -71 -28zM838 1096q-39 0 -63 23q-24 24 -23 61q0 41 29 69q30 29 71 29q39 0 62 -24q24 -24 24 -60q0 -41 -30 -70q-29 -28 -70 -28zM944 246
q-63 -113 -171 -185t-238 -71q-84 0 -155 30q-71 31 -123 85t-82 129t-30 165q0 119 41 216t108 168t150 110q84 39 172 39q94 0 167 -34t122 -89t74 -126t25 -144q0 -72 -16 -111q-15 -39 -13 -39h-674q2 -47 20 -93q17 -46 47 -82t73 -58q44 -23 104 -23q39 0 73 12
q35 12 65 30q30 17 50 37q20 19 31 34h180zM618 788q-47 0 -93 -20t-86 -55t-71 -84q-32 -49 -51 -107h531q2 61 -15 111q-17 49 -51 84q-33 35 -75 53q-44 18 -89 18z" />
    <glyph glyph-name="igrave" unicode="&#xec;" horiz-adv-x="419" 
d="M434 1065h-102l-174 246h153zM287 0h-154l162 922h154z" />
    <glyph glyph-name="iacute" unicode="&#xed;" horiz-adv-x="419" 
d="M512 1311h154l-217 -246h-103zM287 0h-154l162 922h154z" />
    <glyph glyph-name="icircumflex" unicode="&#xee;" horiz-adv-x="419" 
d="M358 1311h144l141 -246h-143l-78 143l-127 -143h-164zM287 0h-154l162 922h154z" />
    <glyph glyph-name="idieresis" unicode="&#xef;" horiz-adv-x="419" 
d="M244 1096q-39 0 -63 23q-24 24 -23 61q0 41 29 69q30 29 71 29q39 0 63 -24t23 -60q0 -41 -30 -70q-29 -28 -70 -28zM549 1096q-39 0 -63 23q-24 24 -23 61q0 41 30 69q30 29 70 29q39 0 63 -24t23 -60q0 -41 -29 -70q-30 -28 -71 -28zM287 0h-154l162 922h154z" />
    <glyph glyph-name="eth" unicode="&#xf0;" horiz-adv-x="1044" 
d="M924 743q0 90 -21.5 160t-46.5 117q-29 55 -65 96l-207 -123l-54 103l172 102q-31 23 -65.5 40t-63.5 30q-35 12 -69 22l71 123q47 -16 95 -39q41 -18 83 -41.5t76 -52.5l185 113l53 -103l-160 -92q41 -51 76 -127q29 -66 53.5 -162t24.5 -227q0 -164 -38 -292
t-105.5 -217t-159.5 -136t-199 -47q-90 0 -165 30.5t-129 85t-83.5 128t-29.5 159.5q0 109 40.5 200t106.5 157.5t151 103.5t171 37q84 0 142 -22.5t93 -51.5q41 -33 68 -74zM623 748q-59 0 -115.5 -27t-102 -73t-72 -108.5t-26.5 -133.5q0 -59 19.5 -108.5t54.5 -86.5
t82 -57.5t102 -20.5q59 0 115.5 26.5t101.5 73t72 108.5t27 134q0 57 -19.5 107.5t-54.5 87.5t-82 57.5t-102 20.5z" />
    <glyph glyph-name="ntilde" unicode="&#xf1;" horiz-adv-x="1034" 
d="M823 1180q33 0 63 28q30 29 40 88h92q-18 -117 -76 -173q-57 -56 -125 -56q-47 0 -75 20t-49 46q-22 25 -41 45t-46 20q-33 0 -62 -29q-30 -29 -40 -88h-92q18 117 75 173t125 57q45 0 74 -21q29 -20 50 -45q22 -25 40 -45t47 -20zM682 932q90 0 152 -32q61 -32 100 -83
t55 -114q16 -62 17 -123q0 -43 -7 -80l-88 -500h-153l90 514q10 57 -2 108q-12 50 -40 87t-70 58q-42 22 -91 21q-98 0 -171 -63t-91 -172l-96 -553h-154l162 922h113l24 -103q31 31 68 55q33 23 78 40q45 18 104 18z" />
    <glyph glyph-name="ograve" unicode="&#xf2;" 
d="M715 1065h-103l-174 246h154zM616 788q-57 0 -113 -27q-56 -28 -102 -77q-45 -49 -72 -119q-28 -70 -28 -153q0 -61 20 -113q19 -51 52 -88t77 -57t93 -21q57 0 113 28t102 77q45 49 72 117q28 69 28 153q0 61 -19 114q-19 52 -53 89q-33 37 -76 57q-45 20 -94 20z
M625 932q84 0 154 -31q71 -31 123 -85t82 -129t30 -165q0 -119 -41 -216t-109 -168t-153 -109q-86 -39 -176 -39q-84 0 -155 30q-71 31 -123 85t-82 129t-30 165q0 119 41 216t109 168t154 110t176 39z" />
    <glyph glyph-name="oacute" unicode="&#xf3;" 
d="M768 1311h154l-217 -246h-103zM616 788q-57 0 -113 -27q-56 -28 -102 -77q-45 -49 -72 -119q-28 -70 -28 -153q0 -61 20 -113q19 -51 52 -88t77 -57t93 -21q57 0 113 28t102 77q45 49 72 117q28 69 28 153q0 61 -19 114q-19 52 -53 89q-33 37 -76 57q-45 20 -94 20z
M625 932q84 0 154 -31q71 -31 123 -85t82 -129t30 -165q0 -119 -41 -216t-109 -168t-153 -109q-86 -39 -176 -39q-84 0 -155 30q-71 31 -123 85t-82 129t-30 165q0 119 41 216t109 168t154 110t176 39z" />
    <glyph glyph-name="ocircumflex" unicode="&#xf4;" 
d="M645 1311h143l142 -246h-144l-77 143l-127 -143h-164zM616 788q-57 0 -113 -27q-56 -28 -102 -77q-45 -49 -72 -119q-28 -70 -28 -153q0 -61 20 -113q19 -51 52 -88t77 -57t93 -21q57 0 113 28t102 77q45 49 72 117q28 69 28 153q0 61 -19 114q-19 52 -53 89
q-33 37 -76 57q-45 20 -94 20zM625 932q84 0 154 -31q71 -31 123 -85t82 -129t30 -165q0 -119 -41 -216t-109 -168t-153 -109q-86 -39 -176 -39q-84 0 -155 30q-71 31 -123 85t-82 129t-30 165q0 119 41 216t109 168t154 110t176 39z" />
    <glyph glyph-name="otilde" unicode="&#xf5;" 
d="M807 1163q33 0 62 29q30 29 40 88h92q-18 -117 -75 -173t-125 -56q-47 0 -75 20t-49 45q-22 25 -41 45t-46 21q-33 0 -63 -29t-40 -88h-92q18 117 76 173q57 56 125 56q45 0 74 -20t50 -45q22 -25 40 -45q18 -21 47 -21zM616 788q-57 0 -113 -27q-56 -28 -102 -77
q-45 -49 -72 -119q-28 -70 -28 -153q0 -61 20 -113q19 -51 52 -88t77 -57t93 -21q57 0 113 28t102 77q45 49 72 117q28 69 28 153q0 61 -19 114q-19 52 -53 89q-33 37 -76 57q-45 20 -94 20zM625 932q84 0 154 -31q71 -31 123 -85t82 -129t30 -165q0 -119 -41 -216
t-109 -168t-153 -109q-86 -39 -176 -39q-84 0 -155 30q-71 31 -123 85t-82 129t-30 165q0 119 41 216t109 168t154 110t176 39z" />
    <glyph glyph-name="odieresis" unicode="&#xf6;" 
d="M522 1096q-39 0 -62 23q-24 24 -24 61q0 41 30 69q30 29 71 29q39 0 62 -24q24 -24 24 -60q0 -41 -30 -70q-30 -28 -71 -28zM827 1096q-39 0 -62 23q-24 24 -24 61q0 41 30 69q30 29 71 29q39 0 62 -24q24 -24 24 -60q0 -41 -30 -70q-30 -28 -71 -28zM616 788
q-57 0 -113 -27q-56 -28 -102 -77q-45 -49 -72 -119q-28 -70 -28 -153q0 -61 20 -113q19 -51 52 -88t77 -57t93 -21q57 0 113 28t102 77q45 49 72 117q28 69 28 153q0 61 -19 114q-19 52 -53 89q-33 37 -76 57q-45 20 -94 20zM625 932q84 0 154 -31q71 -31 123 -85t82 -129
t30 -165q0 -119 -41 -216t-109 -168t-153 -109q-86 -39 -176 -39q-84 0 -155 30q-71 31 -123 85t-82 129t-30 165q0 119 41 216t109 168t154 110t176 39z" />
    <glyph glyph-name="divide" unicode="&#xf7;" horiz-adv-x="901" 
d="M479 92q-45 0 -71.5 22.5t-26.5 63.5q0 55 32.5 86t78.5 31q45 0 71.5 -22.5t26.5 -63.5q0 -55 -33 -86t-78 -31zM911 461h-757l22 133h758zM596 760q-45 0 -71.5 22.5t-26.5 63.5q0 55 32.5 86t77.5 31t72 -22.5t27 -63.5q0 -55 -33 -86t-78 -31z" />
    <glyph glyph-name="oslash" unicode="&#xf8;" 
d="M979 702q35 -82 35 -180q0 -119 -41 -216t-108.5 -167.5t-153.5 -109.5t-176 -39q-88 0 -161 31.5t-126 91.5l-139 -113l-74 102l145 117q-35 82 -35 180q0 119 41 216.5t108.5 168t154 109.5t176.5 39q86 0 159.5 -32t126.5 -91l140 113l73 -103zM858 508q0 45 -12 88
l-475 -385q68 -78 172 -78q57 0 113.5 27.5t101.5 77t72.5 118t27.5 152.5zM616 788q-57 0 -113.5 -27.5t-101.5 -76.5t-72.5 -118.5t-27.5 -153.5q0 -23 2 -44.5t8 -41.5l477 383q-70 79 -172 79z" />
    <glyph glyph-name="ugrave" unicode="&#xf9;" horiz-adv-x="1034" 
d="M797 1075h-103l-174 246h154zM524 -10q-90 0 -151 32t-101 82q-39 51 -55 114q-16 62 -16 124q0 43 6 80l88 500h154l-91 -514q-10 -57 2 -108q12 -50 40 -87t70 -58q42 -22 91 -22q98 0 171 64q73 63 91 172l97 553h153l-162 -922h-112l-25 102q-31 -33 -67 -57
q-33 -23 -79 -39q-47 -16 -104 -16z" />
    <glyph glyph-name="uacute" unicode="&#xfa;" horiz-adv-x="1034" 
d="M799 1321h153l-217 -246h-102zM524 -10q-90 0 -151 32t-101 82q-39 51 -55 114q-16 62 -16 124q0 43 6 80l88 500h154l-91 -514q-10 -57 2 -108q12 -50 40 -87t70 -58q42 -22 91 -22q98 0 171 64q73 63 91 172l97 553h153l-162 -922h-112l-25 102q-31 -33 -67 -57
q-33 -23 -79 -39q-47 -16 -104 -16z" />
    <glyph glyph-name="ucircumflex" unicode="&#xfb;" horiz-adv-x="1034" 
d="M676 1311h143l142 -246h-144l-78 143l-127 -143h-163zM524 -10q-90 0 -151 32t-101 82q-39 51 -55 114q-16 62 -16 124q0 43 6 80l88 500h154l-91 -514q-10 -57 2 -108q12 -50 40 -87t70 -58q42 -22 91 -22q98 0 171 64q73 63 91 172l97 553h153l-162 -922h-112l-25 102
q-31 -33 -67 -57q-33 -23 -79 -39q-47 -16 -104 -16z" />
    <glyph glyph-name="udieresis" unicode="&#xfc;" horiz-adv-x="1034" 
d="M557 1098q-39 0 -62 23q-24 24 -24 61q0 41 30 69q30 29 70 29q39 0 63 -24t23 -60q0 -41 -29 -70q-30 -28 -71 -28zM862 1098q-39 0 -62 23q-24 24 -24 61q0 41 30 69q30 29 71 29q39 0 62 -24q24 -24 24 -60q0 -41 -30 -70q-30 -28 -71 -28zM524 -10q-90 0 -151 32
t-101 82q-39 51 -55 114q-16 62 -16 124q0 43 6 80l88 500h154l-91 -514q-10 -57 2 -108q12 -50 40 -87t70 -58q42 -22 91 -22q98 0 171 64q73 63 91 172l97 553h153l-162 -922h-112l-25 102q-31 -33 -67 -57q-33 -23 -79 -39q-47 -16 -104 -16z" />
    <glyph glyph-name="yacute" unicode="&#xfd;" horiz-adv-x="921" 
d="M733 1321h154l-217 -246h-103zM170 922h164l151 -707l402 707h172l-592 -1026q-72 -125 -138 -179q-67 -53 -147 -55q-14 0 -28 2t-27 6q-14 4 -29 8l23 121h24q57 0 94 29q36 29 66 82l64 110z" />
    <glyph glyph-name="thorn" unicode="&#xfe;" horiz-adv-x="1071" 
d="M606 133q57 0 113.5 27.5t102.5 77t75 119t29 153.5q0 61 -19.5 112.5t-53.5 88.5t-79 57t-94 20q-57 0 -113.5 -27.5t-102.5 -76.5t-75 -117.5t-29 -152.5q0 -61 19.5 -113.5t53.5 -89.5t79 -57.5t94 -20.5zM434 819q29 31 68 55q35 23 82 40.5t108 17.5q84 0 155 -31
t123 -85t81.5 -130t29.5 -166q0 -119 -41 -216t-108.5 -166.5t-153.5 -108.5t-176 -39q-78 0 -133 22.5t-90 50t-51 49.5l-17 23l-82 -463h-151l282 1618h154z" />
    <glyph glyph-name="ydieresis" unicode="&#xff;" horiz-adv-x="921" 
d="M481 1096q-39 0 -62 23q-24 24 -24 61q0 41 30 69q30 29 71 29q39 0 62 -24q24 -24 24 -60q0 -41 -30 -70q-30 -28 -71 -28zM786 1096q-39 0 -62 23q-24 24 -24 61q0 41 30 69q30 29 71 29q39 0 62 -24q24 -24 24 -60q0 -41 -30 -70q-30 -28 -71 -28zM170 922h164
l151 -707l402 707h172l-592 -1026q-72 -125 -138 -179q-67 -53 -147 -55q-14 0 -28 2t-27 6q-14 4 -29 8l23 121h24q57 0 94 29q36 29 66 82l64 110z" />
    <glyph glyph-name="Amacron" unicode="&#x100;" horiz-adv-x="1126" 
d="M1049 1464h-492l23 123h491zM897 317h-532l-179 -317h-176l719 1290h143l265 -1290h-172zM442 461h430l-116 563z" />
    <glyph glyph-name="amacron" unicode="&#x101;" horiz-adv-x="952" 
d="M932 1116h-492l23 123h491zM608 932q106 0 175 -36t107 -88t48 -112q10 -59 2 -104l-104 -592h-113l-25 102q-29 -33 -67 -57q-35 -23 -83 -39t-112 -16q-70 0 -124 20t-92 57q-38 36 -57 84t-20 101q0 90 50 149q49 59 135 96q86 36 202 51q117 15 252 15l6 35
q6 39 -5 74t-38 60q-27 26 -64 41q-38 15 -83 15q-72 0 -119 -39q-47 -40 -69 -94h-170q14 51 48 102q34 50 82 89t108 62q60 24 130 24zM455 133q57 0 107 20q50 19 88 50t63 68q25 38 30 77l13 72q-156 0 -247 -13t-138 -37t-61 -56q-13 -32 -13 -68q0 -57 47 -85
q48 -28 111 -28z" />
    <glyph glyph-name="Abreve" unicode="&#x102;" horiz-adv-x="1126" 
d="M823 1434q-53 0 -96 19t-72 50t-45 72t-18 84h117q0 -59 33 -91q34 -32 87 -32q49 0 87 36t55 87h123q-33 -92 -104 -159q-71 -66 -167 -66zM897 317h-532l-179 -317h-176l719 1290h143l265 -1290h-172zM442 461h430l-116 563z" />
    <glyph glyph-name="abreve" unicode="&#x103;" horiz-adv-x="952" 
d="M686 1063q-53 0 -96 19t-72 51q-29 31 -45 71q-16 41 -18 84h116q0 -59 34 -91t87 -32q49 0 87 36t55 87h122q-33 -92 -103 -159q-71 -66 -167 -66zM608 932q106 0 175 -36t107 -88t48 -112q10 -59 2 -104l-104 -592h-113l-25 102q-29 -33 -67 -57q-35 -23 -83 -39
t-112 -16q-70 0 -124 20t-92 57q-38 36 -57 84t-20 101q0 90 50 149q49 59 135 96q86 36 202 51q117 15 252 15l6 35q6 39 -5 74t-38 60q-27 26 -64 41q-38 15 -83 15q-72 0 -119 -39q-47 -40 -69 -94h-170q14 51 48 102q34 50 82 89t108 62q60 24 130 24zM455 133
q57 0 107 20q50 19 88 50t63 68q25 38 30 77l13 72q-156 0 -247 -13t-138 -37t-61 -56q-13 -32 -13 -68q0 -57 47 -85q48 -28 111 -28z" />
    <glyph glyph-name="Aogonek" unicode="&#x104;" horiz-adv-x="1126" 
d="M897 317h-532l-179 -317h-176l719 1290h143l265 -1290h-74q-33 -27 -55 -57q-20 -27 -37 -61t-17 -68q0 -45 31 -65.5t78 -20.5q27 0 37 2q8 0 14 2l-14 -82q-8 -2 -17 -2q-10 -2 -36 -2q-96 0 -146.5 43t-50.5 112q0 41 17.5 76t39.5 64q25 33 58 59zM442 461h430
l-116 563z" />
    <glyph glyph-name="aogonek" unicode="&#x105;" horiz-adv-x="952" 
d="M698 102q-29 -33 -67 -57q-35 -23 -83 -39t-112 -16q-70 0 -124 20.5t-92 56t-57.5 84t-19.5 101.5q0 90 49.5 149.5t135.5 95t202.5 51t251.5 15.5l6 35q6 39 -5 74t-37.5 60.5t-64.5 40.5t-83 15q-72 0 -119 -39.5t-69 -93.5h-170q14 51 48 101.5t82 89.5t108.5 62.5
t129.5 23.5q106 0 175 -36t107 -88t48 -111.5t2 -104.5l-104 -592h-15q-33 -27 -55 -57q-20 -27 -36.5 -61t-16.5 -68q0 -45 30.5 -65.5t77.5 -20.5q27 0 37 2q8 0 14 2l-14 -82q-8 -2 -16 -2q-10 -2 -37 -2q-96 0 -146.5 43t-50.5 112q0 41 17.5 76t40.5 64q25 33 57 59z
M455 133q57 0 107 19.5t88 50t62.5 68.5t30.5 77l13 72q-156 0 -247 -13.5t-138 -37t-60.5 -55t-13.5 -68.5q0 -57 47.5 -85t110.5 -28z" />
    <glyph glyph-name="Cacute" unicode="&#x106;" horiz-adv-x="1314" 
d="M993 1690h154l-217 -246h-103zM1208 860q-27 82 -78 148q-43 55 -113 102q-71 47 -177 47q-90 0 -180 -43q-89 -43 -159 -120q-71 -77 -116 -182t-45 -230q0 -100 32 -184q32 -83 86 -141t126 -91t151 -33q68 0 133 26q66 26 122 66q56 41 102 96q45 54 71 109h172
q-41 -92 -104 -172t-145 -140q-81 -60 -174 -94t-189 -34q-115 0 -214 45t-173 123t-117 185q-43 108 -43 232q0 154 60 286q59 132 154 231q95 98 216 153t246 55q102 0 189 -35q87 -36 155 -97q68 -60 114 -140t66 -168h-168z" />
    <glyph glyph-name="cacute" unicode="&#x107;" horiz-adv-x="962" 
d="M768 1319h154l-217 -246h-103zM848 594q-6 27 -24 61q-17 35 -46 64t-68 49q-40 20 -94 20q-55 0 -112 -26q-57 -27 -103 -76q-45 -49 -73 -119q-29 -70 -29 -153q0 -61 19 -114q19 -52 53 -89q33 -37 78 -57t94 -21q86 0 160 55q75 55 114 140h156q-23 -63 -63 -124
q-40 -60 -96 -109q-56 -48 -127 -77t-157 -28q-84 0 -153 30q-70 31 -122 86t-81 131q-29 75 -29 162q0 119 41 216t109 168t154 110t176 39q80 0 146 -27q67 -27 116 -72q49 -46 80 -108q31 -61 41 -131h-160z" />
    <glyph glyph-name="Ccircumflex" unicode="&#x108;" horiz-adv-x="1314" 
d="M860 1679h144l141 -245h-144l-77 143l-127 -143h-164zM1208 860q-27 82 -78 148q-43 55 -113 102q-71 47 -177 47q-90 0 -180 -43q-89 -43 -159 -120q-71 -77 -116 -182t-45 -230q0 -100 32 -184q32 -83 86 -141t126 -91t151 -33q68 0 133 26q66 26 122 66q56 41 102 96
q45 54 71 109h172q-41 -92 -104 -172t-145 -140q-81 -60 -174 -94t-189 -34q-115 0 -214 45t-173 123t-117 185q-43 108 -43 232q0 154 60 286q59 132 154 231q95 98 216 153t246 55q102 0 189 -35q87 -36 155 -97q68 -60 114 -140t66 -168h-168z" />
    <glyph glyph-name="ccircumflex" unicode="&#x109;" horiz-adv-x="962" 
d="M635 1311h143l142 -246h-144l-78 143l-127 -143h-163zM848 594q-6 27 -24 61q-17 35 -46 64t-68 49q-40 20 -94 20q-55 0 -112 -26q-57 -27 -103 -76q-45 -49 -73 -119q-29 -70 -29 -153q0 -61 19 -114q19 -52 53 -89q33 -37 78 -57t94 -21q86 0 160 55q75 55 114 140
h156q-23 -63 -63 -124q-40 -60 -96 -109q-56 -48 -127 -77t-157 -28q-84 0 -153 30q-70 31 -122 86t-81 131q-29 75 -29 162q0 119 41 216t109 168t154 110t176 39q80 0 146 -27q67 -27 116 -72q49 -46 80 -108q31 -61 41 -131h-160z" />
    <glyph glyph-name="Ccaron" unicode="&#x10c;" horiz-adv-x="1314" 
d="M961 1434h-144l-141 245h143l78 -143l127 143h164zM1208 860q-27 82 -78 148q-43 55 -113 102q-71 47 -177 47q-90 0 -180 -43q-89 -43 -159 -120q-71 -77 -116 -182t-45 -230q0 -100 32 -184q32 -83 86 -141t126 -91t151 -33q68 0 133 26q66 26 122 66q56 41 102 96
q45 54 71 109h172q-41 -92 -104 -172t-145 -140q-81 -60 -174 -94t-189 -34q-115 0 -214 45t-173 123t-117 185q-43 108 -43 232q0 154 60 286q59 132 154 231q95 98 216 153t246 55q102 0 189 -35q87 -36 155 -97q68 -60 114 -140t66 -168h-168z" />
    <glyph glyph-name="ccaron" unicode="&#x10d;" horiz-adv-x="962" 
d="M727 1065h-143l-142 246h144l78 -144l127 144h163zM848 594q-6 27 -24 61q-17 35 -46 64t-68 49q-40 20 -94 20q-55 0 -112 -26q-57 -27 -103 -76q-45 -49 -73 -119q-29 -70 -29 -153q0 -61 19 -114q19 -52 53 -89q33 -37 78 -57t94 -21q86 0 160 55q75 55 114 140h156
q-23 -63 -63 -124q-40 -60 -96 -109q-56 -48 -127 -77t-157 -28q-84 0 -153 30q-70 31 -122 86t-81 131q-29 75 -29 162q0 119 41 216t109 168t154 110t176 39q80 0 146 -27q67 -27 116 -72q49 -46 80 -108q31 -61 41 -131h-160z" />
    <glyph glyph-name="Dcaron" unicode="&#x10e;" horiz-adv-x="1218" 
d="M909 1434h-143l-141 245h143l78 -143l127 143h164zM588 143q92 0 182 43t163 119t117 178t44 224q0 90 -29 171t-78 141t-117 95t-143 35l-197 -2l-178 -1004h236zM1257 719q0 -143 -53 -274q-53 -130 -145 -229t-216 -158q-124 -58 -263 -58h-416l227 1290h363
q111 0 203 -46q93 -46 160 -124t104 -181q36 -103 36 -220z" />
    <glyph glyph-name="dcaron" unicode="&#x10f;" horiz-adv-x="1167" 
d="M1346 1290h143l-166 -246h-92zM795 102q-29 -33 -68 -57q-35 -23 -83 -39t-107 -16q-84 0 -155 30.5t-123 85t-82 130t-30 165.5q0 119 41 216.5t109 167t154 108.5t176 39q78 0 133 -22.5t90 -50.5t52 -51l16 -22l88 504h153l-227 -1290h-113zM549 133q57 0 113.5 27.5
t102.5 77t74.5 119t28.5 153.5q0 61 -19.5 112.5t-53 88.5t-78.5 57t-94 20q-57 0 -113.5 -27.5t-103 -76.5t-75 -117.5t-28.5 -152.5q0 -61 19.5 -113.5t53.5 -89.5t79 -57.5t94 -20.5z" />
    <glyph glyph-name="Dcroat" unicode="&#x110;" horiz-adv-x="1269" 
d="M1307 719q0 -143 -54 -274q-53 -130 -145 -229t-216 -158q-124 -58 -263 -58h-416l98 563h-182l25 144h184l102 583h363q111 0 204 -46t159 -124q67 -78 104 -181t37 -220zM637 143q92 0 182 43t163 119t117 178t44 224q0 90 -29 171t-78 141t-116 95q-68 35 -144 35
l-196 -2l-78 -440h246l-25 -144h-248l-74 -420h236z" />
    <glyph glyph-name="dcroat" unicode="&#x111;" horiz-adv-x="1050" 
d="M684 1126h256l31 164h153l-30 -164h153l-22 -133h-154l-172 -993h-113l-24 102q-33 -33 -70 -57q-33 -23 -77 -39t-97 -16q-80 0 -147.5 29.5t-117.5 82t-78 123t-28 150.5q0 102 38 189t100.5 150.5t144.5 99.5t168 36q72 0 123 -21.5t84 -46.5q37 -31 63 -67l50 278
h-256zM598 707q-55 0 -107.5 -24t-94.5 -67t-67.5 -101t-25.5 -128q0 -55 18.5 -101t50 -80t74.5 -53.5t95 -19.5q55 0 107 23.5t94 66.5t68 101.5t26 128.5q0 55 -18.5 101t-50.5 80t-75 53.5t-94 19.5z" />
    <glyph glyph-name="Emacron" unicode="&#x112;" horiz-adv-x="1105" 
d="M1075 1485h-491l22 123h492zM1028 143l-24 -143h-840l227 1290h819l-24 -143h-656l-73 -410h604l-25 -143h-604l-80 -451h676z" />
    <glyph glyph-name="emacron" unicode="&#x113;" horiz-adv-x="972" 
d="M926 1116h-492l23 123h491zM944 246q-63 -113 -171 -185t-238 -71q-84 0 -155 30q-71 31 -123 85t-82 129t-30 165q0 119 41 216t108 168t150 110q84 39 172 39q94 0 167 -34t122 -89t74 -126t25 -144q0 -72 -16 -111q-15 -39 -13 -39h-674q2 -47 20 -93q17 -46 47 -82
t73 -58q44 -23 104 -23q39 0 73 12q35 12 65 30q30 17 50 37q20 19 31 34h180zM618 788q-47 0 -93 -20t-86 -55t-71 -84q-32 -49 -51 -107h531q2 61 -15 111q-17 49 -51 84q-33 35 -75 53q-44 18 -89 18z" />
    <glyph glyph-name="Edotaccent" unicode="&#x116;" horiz-adv-x="1105" 
d="M819 1454q-41 0 -65 26q-25 26 -25 60q0 47 31 78t74 31q41 0 65 -26q25 -26 25 -60q0 -47 -31 -78t-74 -31zM1028 143l-24 -143h-840l227 1290h819l-24 -143h-656l-73 -410h604l-25 -143h-604l-80 -451h676z" />
    <glyph glyph-name="edotaccent" unicode="&#x117;" horiz-adv-x="972" 
d="M655 1085q-41 0 -65 26q-25 26 -25 60q0 47 31 78t74 31q41 0 65 -26q25 -26 25 -60q0 -47 -31 -78t-74 -31zM944 246q-63 -113 -171 -185t-238 -71q-84 0 -155 30q-71 31 -123 85t-82 129t-30 165q0 119 41 216t108 168t150 110q84 39 172 39q94 0 167 -34t122 -89
t74 -126t25 -144q0 -72 -16 -111q-15 -39 -13 -39h-674q2 -47 20 -93q17 -46 47 -82t73 -58q44 -23 104 -23q39 0 73 12q35 12 65 30q30 17 50 37q20 19 31 34h180zM618 788q-47 0 -93 -20t-86 -55t-71 -84q-32 -49 -51 -107h531q2 61 -15 111q-17 49 -51 84q-33 35 -75 53
q-44 18 -89 18z" />
    <glyph glyph-name="Eogonek" unicode="&#x118;" horiz-adv-x="1105" 
d="M164 0l227 1290h819l-24 -143h-656l-73 -410h604l-25 -143h-604l-80 -451h676l-24 -143q-33 -27 -56 -57q-20 -27 -36.5 -61t-16.5 -68q0 -45 30.5 -65.5t78.5 -20.5q27 0 36 2q8 0 15 2l-15 -82q-8 -2 -16 -2q-10 -2 -37 -2q-96 0 -146 43t-50 112q0 41 17 76t40 64
q25 33 57 59h-741z" />
    <glyph glyph-name="eogonek" unicode="&#x119;" horiz-adv-x="972" 
d="M944 246q-59 -104 -156.5 -174t-218.5 -80q-8 -8 -24.5 -25.5t-32.5 -41t-28.5 -52.5t-12.5 -59q0 -45 30.5 -65.5t78.5 -20.5q27 0 36 2q8 0 15 2l-15 -82q-8 -2 -16 -2q-10 -2 -37 -2q-96 0 -146 43t-50 112q0 35 13 67t31.5 57.5t36 43l25.5 25.5q-72 10 -132 44
t-103 87t-68 122.5t-25 151.5q0 119 41 216.5t107.5 168t150.5 109.5t172 39q94 0 167 -34t122 -89t74 -126t25 -144q0 -72 -15.5 -111t-13.5 -39h-674q2 -47 19.5 -93t47 -82t73.5 -58.5t104 -22.5q39 0 73.5 12.5t64.5 30t50.5 36.5t30.5 34h180zM618 788q-47 0 -93 -20
t-86 -55t-71.5 -84t-50.5 -107h531q2 61 -15.5 110.5t-50 84.5t-76 53t-88.5 18z" />
    <glyph glyph-name="Ecaron" unicode="&#x11a;" horiz-adv-x="1105" 
d="M891 1434h-143l-142 245h144l77 -143l127 143h164zM1028 143l-24 -143h-840l227 1290h819l-24 -143h-656l-73 -410h604l-25 -143h-604l-80 -451h676z" />
    <glyph glyph-name="ecaron" unicode="&#x11b;" horiz-adv-x="972" 
d="M735 1065h-143l-141 246h143l78 -144l127 144h164zM944 246q-63 -113 -171 -185t-238 -71q-84 0 -155 30q-71 31 -123 85t-82 129t-30 165q0 119 41 216t108 168t150 110q84 39 172 39q94 0 167 -34t122 -89t74 -126t25 -144q0 -72 -16 -111q-15 -39 -13 -39h-674
q2 -47 20 -93q17 -46 47 -82t73 -58q44 -23 104 -23q39 0 73 12q35 12 65 30q30 17 50 37q20 19 31 34h180zM618 788q-47 0 -93 -20t-86 -55t-71 -84q-32 -49 -51 -107h531q2 61 -15 111q-17 49 -51 84q-33 35 -75 53q-44 18 -89 18z" />
    <glyph glyph-name="Gbreve" unicode="&#x11e;" horiz-adv-x="1372" 
d="M905 1434q-53 0 -96 19t-72 50t-45 72t-18 84h117q0 -59 33 -91q34 -32 87 -32q49 0 87 36t55 87h123q-33 -92 -104 -159q-71 -66 -167 -66zM1208 881q-29 76 -78 137q-43 53 -112 96q-70 43 -178 43q-90 0 -180 -43q-89 -43 -159 -120q-71 -77 -116 -182t-45 -230
q0 -98 31 -181q31 -82 83 -141t123 -93t148 -34q72 0 145 33q74 33 136 85q61 52 103 119t54 132h-379l25 143h543l-113 -645h-123l-14 152q-45 -45 -105 -82q-51 -31 -121 -56q-71 -25 -157 -24q-113 0 -212 45t-173 123t-116 185q-42 108 -42 232q0 154 60 286
q59 132 154 231q95 98 217 153t245 55q106 0 194 -33q87 -34 153 -91q67 -57 113 -135q46 -77 68 -160h-172z" />
    <glyph glyph-name="gbreve" unicode="&#x11f;" horiz-adv-x="1034" 
d="M696 1053q-53 0 -96 19t-72 50t-45 72t-18 84h117q0 -59 33 -91q34 -32 87 -32q49 0 88 36q38 36 54 87h123q-33 -92 -104 -159q-71 -66 -167 -66zM772 131q-29 -29 -65 -51q-31 -18 -76 -34q-45 -15 -101 -15q-88 0 -159 28q-72 29 -123 81t-79 125t-28 159
q0 113 39 206t104 161t149 104q85 37 179 37q66 0 115 -21q49 -20 84 -45q37 -29 66 -63l71 119h115l-160 -926q-12 -76 -50 -138t-93 -109q-55 -46 -127 -72t-154 -25q-76 0 -141 20q-66 20 -116 57q-50 36 -83 87t-41 112h162q20 -61 75 -97q54 -36 148 -36q104 0 177 60
q73 59 90 153zM598 788q-55 0 -110 -24q-54 -25 -96 -71t-68 -109q-27 -63 -27 -144q0 -121 70 -193q70 -73 174 -73q55 0 109 25t96 70q42 46 69 110q27 63 27 143q0 121 -70 194q-70 72 -174 72z" />
    <glyph glyph-name="uni0122" unicode="&#x122;" horiz-adv-x="1372" 
d="M592 -238q0 43 30 74t72 31q47 0 76 -32t29 -73q0 -39 -16 -78q-15 -40 -43 -77t-64 -69q-37 -32 -78 -54l-23 43q23 14 43 37q16 18 34 43q17 25 28 55q-39 4 -64 34q-24 29 -24 66zM1208 881q-29 76 -78 137q-43 53 -112 96q-70 43 -178 43q-90 0 -180 -43
q-89 -43 -159 -120q-71 -77 -116 -182t-45 -230q0 -98 31 -181q31 -82 83 -141t123 -93t148 -34q72 0 145 33q74 33 136 85q61 52 103 119t54 132h-379l25 143h543l-113 -645h-123l-14 152q-45 -45 -105 -82q-51 -31 -121 -56q-71 -25 -157 -24q-113 0 -212 45t-173 123
t-116 185q-42 108 -42 232q0 154 60 286q59 132 154 231q95 98 217 153t245 55q106 0 194 -33q87 -34 153 -91q67 -57 113 -135q46 -77 68 -160h-172z" />
    <glyph glyph-name="uni0123" unicode="&#x123;" horiz-adv-x="1034" 
d="M801 1165q0 -43 -30 -73.5t-73 -30.5q-47 0 -75.5 31.5t-28.5 72.5q0 39 15.5 79t43 77t64.5 68.5t78 54.5l22 -43q-23 -14 -43 -37q-16 -18 -33.5 -44t-27.5 -54q39 -4 63.5 -34t24.5 -67zM772 131q-29 -29 -65 -51q-31 -18 -76 -33.5t-101 -15.5q-88 0 -159.5 28.5
t-122.5 81t-79 125t-28 158.5q0 113 39 206t103.5 160.5t149.5 104.5t179 37q66 0 115 -20.5t84 -45.5q37 -29 66 -63l71 119h115l-160 -926q-12 -76 -50 -138.5t-93 -108.5t-127 -71.5t-154 -25.5q-76 0 -141.5 20.5t-115.5 56t-83 87t-41 112.5h162q20 -61 74.5 -97
t148.5 -36q104 0 177 59.5t90 153.5zM598 788q-55 0 -109.5 -24.5t-96.5 -70.5t-68.5 -109.5t-26.5 -143.5q0 -121 69.5 -193.5t174.5 -72.5q55 0 109.5 24.5t96 70.5t68.5 109.5t27 143.5q0 121 -70 193.5t-174 72.5z" />
    <glyph glyph-name="Imacron" unicode="&#x12a;" horiz-adv-x="491" 
d="M737 1475h-491l22 122h492zM328 0h-164l227 1290h164z" />
    <glyph glyph-name="imacron" unicode="&#x12b;" horiz-adv-x="419" 
d="M639 1116h-492l23 123h492zM287 0h-154l162 922h154z" />
    <glyph glyph-name="Iogonek" unicode="&#x12e;" horiz-adv-x="491" 
d="M391 1290h164l-227 -1290h-66q-33 -27 -55 -57q-20 -27 -36.5 -61t-16.5 -68q0 -45 30.5 -65.5t77.5 -20.5q27 0 37 2q8 0 14 2l-14 -82q-8 -2 -16 -2q-10 -2 -37 -2q-96 0 -146.5 43t-50.5 112q0 41 17.5 76t39.5 64q25 33 58 59z" />
    <glyph glyph-name="iogonek" unicode="&#x12f;" horiz-adv-x="419" 
d="M295 922h154l-162 -922h-56q-33 -27 -55 -57q-20 -27 -36.5 -61t-16.5 -68q0 -45 30.5 -65.5t77.5 -20.5q27 0 37 2q8 0 15 2l-15 -82q-8 -2 -16 -2q-10 -2 -37 -2q-96 0 -146.5 43t-50.5 112q0 41 17.5 76t40.5 64q25 33 57 59zM410 1085q-41 0 -66 27t-25 64
q0 45 30 74.5t73 29.5q41 0 65.5 -26.5t24.5 -63.5q0 -45 -29.5 -75t-72.5 -30z" />
    <glyph glyph-name="Idotaccent" unicode="&#x130;" horiz-adv-x="491" 
d="M496 1434q-41 0 -66 25q-25 26 -24 61q0 47 30 77q31 31 74 31q41 0 65 -25q25 -26 25 -61q0 -47 -31 -78q-30 -30 -73 -30zM328 0h-164l227 1290h164z" />
    <glyph glyph-name="dotlessi" unicode="&#x131;" horiz-adv-x="419" 
d="M287 0h-154l162 922h154z" />
    <glyph glyph-name="ij" unicode="&#x133;" horiz-adv-x="876" 
d="M598 31q-10 -4 -61.5 -22.5t-143.5 -18.5q-102 0 -165.5 64.5t-63.5 170.5q0 31 6 62l113 635h153l-112 -635q-10 -61 27.5 -107.5t107.5 -46.5q59 0 105 17.5t59 23.5l131 748h153l-170 -965q-12 -66 -39.5 -119t-67.5 -90t-88 -56.5t-100 -19.5q-47 0 -80 15
q-16 8 -28 16l22 131q8 -4 19 -6q10 -2 21.5 -3t27.5 -1q61 0 105 38t59 113zM397 1085q-41 0 -65.5 27t-24.5 64q0 45 30 74.5t73 29.5q41 0 65.5 -26.5t24.5 -63.5q0 -45 -30 -75t-73 -30zM868 1085q-41 0 -65.5 27t-24.5 64q0 45 30 74.5t73 29.5q41 0 65.5 -26.5
t24.5 -63.5q0 -45 -30 -75t-73 -30z" />
    <glyph glyph-name="uni0136" unicode="&#x136;" horiz-adv-x="1044" 
d="M475 -229q0 43 30 73q30 31 73 31q47 0 75 -32q29 -32 29 -72q0 -39 -15 -79t-43 -77t-65 -69t-78 -54l-22 43q23 14 43 37q16 18 34 43q17 25 27 55q-39 4 -63 34q-25 30 -25 67zM328 0h-164l227 1290h164zM1065 0h-195l-428 655l615 635h200l-628 -639z" />
    <glyph glyph-name="uni0137" unicode="&#x137;" horiz-adv-x="849" 
d="M371 -217q0 43 29 74q30 31 73 30q47 0 76 -31q29 -32 29 -73q0 -39 -16 -79q-15 -40 -43 -77t-64 -68q-37 -32 -78 -55l-23 43q23 14 43 37q16 18 34 43q17 25 28 56q-39 4 -64 33q-24 30 -24 67zM297 0h-154l228 1290h153zM686 0l-305 481l426 441h188l-438 -445
l305 -477h-176z" />
    <glyph glyph-name="Lacute" unicode="&#x139;" horiz-adv-x="962" 
d="M608 1690h154l-217 -246h-103zM967 143l-25 -143h-778l227 1290h164l-203 -1147h615z" />
    <glyph glyph-name="lacute" unicode="&#x13a;" horiz-adv-x="440" 
d="M584 1690h153l-217 -246h-102zM297 0h-154l228 1290h153z" />
    <glyph glyph-name="uni013B" unicode="&#x13b;" horiz-adv-x="962" 
d="M449 -238q0 43 29 74q30 31 73 31q47 0 76 -32t28 -73q0 -39 -15 -78q-15 -40 -43 -77t-65 -69t-77 -54l-23 43q23 14 43 37q16 18 34 43q17 25 28 55q-39 4 -64 34q-24 29 -24 66zM967 143l-25 -143h-778l227 1290h164l-203 -1147h615z" />
    <glyph glyph-name="uni013C" unicode="&#x13c;" horiz-adv-x="440" 
d="M86 -238q0 43 30 74t72 31q47 0 76 -32t29 -73q0 -39 -15 -78q-15 -40 -44 -77q-28 -37 -64 -69q-37 -32 -78 -54l-22 43q23 14 43 37q16 18 33 43t28 55q-39 4 -63 34q-25 29 -25 66zM297 0h-154l228 1290h153z" />
    <glyph glyph-name="Lcaron" unicode="&#x13d;" horiz-adv-x="962" 
d="M758 1290h143l-166 -246h-92zM967 143l-25 -143h-778l227 1290h164l-203 -1147h615z" />
    <glyph glyph-name="lcaron" unicode="&#x13e;" horiz-adv-x="530" 
d="M709 1290h143l-166 -246h-92zM297 0h-154l228 1290h153z" />
    <glyph glyph-name="Lslash" unicode="&#x141;" horiz-adv-x="993" 
d="M997 143l-24 -143h-778l69 399l-160 -92l29 164l160 92l129 727h164l-111 -624l342 204l-29 -163l-342 -205l-63 -359h614z" />
    <glyph glyph-name="lslash" unicode="&#x142;" horiz-adv-x="512" 
d="M438 631l-110 -631h-154l94 530l-172 -100l27 154l172 100l106 606h154l-88 -506l182 107l-28 -154z" />
    <glyph glyph-name="Nacute" unicode="&#x143;" horiz-adv-x="1280" 
d="M973 1690h153l-217 -246h-102zM1343 1290l-227 -1290h-143l-473 973l-172 -973h-164l227 1290h144l473 -973l172 973h163z" />
    <glyph glyph-name="nacute" unicode="&#x144;" horiz-adv-x="1034" 
d="M829 1321h154l-217 -246h-102zM682 932q90 0 152 -32q61 -32 100 -83t55 -114q16 -62 17 -123q0 -43 -7 -80l-88 -500h-153l90 514q10 57 -2 108q-12 50 -40 87t-70 58q-42 22 -91 21q-98 0 -171 -63t-91 -172l-96 -553h-154l162 922h113l24 -103q31 31 68 55
q33 23 78 40q45 18 104 18z" />
    <glyph glyph-name="uni0145" unicode="&#x145;" horiz-adv-x="1280" 
d="M537 -238q0 43 29 74q30 31 73 31q47 0 76 -32t28 -73q0 -39 -15 -78q-15 -40 -43 -77t-64 -69q-37 -32 -78 -54l-23 43q23 14 43 37q16 18 34 43q17 25 28 55q-39 4 -64 34q-24 29 -24 66zM1343 1290l-227 -1290h-143l-473 973l-172 -973h-164l227 1290h144l473 -973
l172 973h163z" />
    <glyph glyph-name="uni0146" unicode="&#x146;" horiz-adv-x="1034" 
d="M418 -215q0 43 29 74q30 31 73 30q47 0 76 -31q29 -32 29 -73q0 -39 -16 -79q-15 -40 -43 -77t-64 -68q-37 -32 -78 -55l-23 43q23 14 43 37q16 18 34 43q17 25 28 56q-39 4 -64 33q-24 30 -24 67zM682 932q90 0 152 -32q61 -32 100 -83t55 -114q16 -62 17 -123
q0 -43 -7 -80l-88 -500h-153l90 514q10 57 -2 108q-12 50 -40 87t-70 58q-42 22 -91 21q-98 0 -171 -63t-91 -172l-96 -553h-154l162 922h113l24 -103q31 31 68 55q33 23 78 40q45 18 104 18z" />
    <glyph glyph-name="Ncaron" unicode="&#x147;" horiz-adv-x="1280" 
d="M956 1434h-143l-141 245h143l78 -143l127 143h164zM1343 1290l-227 -1290h-143l-473 973l-172 -973h-164l227 1290h144l473 -973l172 973h163z" />
    <glyph glyph-name="ncaron" unicode="&#x148;" horiz-adv-x="1034" 
d="M786 1065h-143l-141 246h143l78 -144l127 144h164zM682 932q90 0 152 -32q61 -32 100 -83t55 -114q16 -62 17 -123q0 -43 -7 -80l-88 -500h-153l90 514q10 57 -2 108q-12 50 -40 87t-70 58q-42 22 -91 21q-98 0 -171 -63t-91 -172l-96 -553h-154l162 922h113l24 -103
q31 31 68 55q33 23 78 40q45 18 104 18z" />
    <glyph glyph-name="Omacron" unicode="&#x14c;" horiz-adv-x="1351" 
d="M1133 1475h-492l23 122h491zM729 133q96 0 186 45t160 123t112 184t42 228q0 96 -32 178t-85 141t-124 92t-148 33q-90 0 -180 -42q-89 -42 -159 -119q-71 -77 -116 -183t-45 -233q0 -96 32 -179q32 -82 85 -141t124 -93q70 -34 148 -34zM852 1300q113 0 211 -45
t172 -123q74 -79 116 -186q42 -106 42 -231q0 -154 -59 -286q-58 -132 -153 -230t-217 -154q-122 -55 -247 -55q-113 0 -211 45t-172 124t-116 185t-42 231q0 154 58 286t154 231q95 98 217 153t247 55z" />
    <glyph glyph-name="omacron" unicode="&#x14d;" 
d="M932 1116h-492l23 123h491zM616 788q-57 0 -113 -27q-56 -28 -102 -77q-45 -49 -72 -119q-28 -70 -28 -153q0 -61 20 -113q19 -51 52 -88t77 -57t93 -21q57 0 113 28t102 77q45 49 72 117q28 69 28 153q0 61 -19 114q-19 52 -53 89q-33 37 -76 57q-45 20 -94 20zM625 932
q84 0 154 -31q71 -31 123 -85t82 -129t30 -165q0 -119 -41 -216t-109 -168t-153 -109q-86 -39 -176 -39q-84 0 -155 30q-71 31 -123 85t-82 129t-30 165q0 119 41 216t109 168t154 110t176 39z" />
    <glyph glyph-name="Ohungarumlaut" unicode="&#x150;" horiz-adv-x="1351" 
d="M848 1690h153l-227 -246h-102zM1135 1690h153l-227 -246h-103zM729 133q96 0 186 45t160 123t112 184t42 228q0 96 -32 178t-85 141t-124 92t-148 33q-90 0 -180 -42q-89 -42 -159 -119q-71 -77 -116 -183t-45 -233q0 -96 32 -179q32 -82 85 -141t124 -93q70 -34 148 -34
zM852 1300q113 0 211 -45t172 -123q74 -79 116 -186q42 -106 42 -231q0 -154 -59 -286q-58 -132 -153 -230t-217 -154q-122 -55 -247 -55q-113 0 -211 45t-172 124t-116 185t-42 231q0 154 58 286t154 231q95 98 217 153t247 55z" />
    <glyph glyph-name="ohungarumlaut" unicode="&#x151;" 
d="M643 1311h154l-228 -246h-102zM930 1311h153l-227 -246h-102zM616 788q-57 0 -113 -27q-56 -28 -102 -77q-45 -49 -72 -119q-28 -70 -28 -153q0 -61 20 -113q19 -51 52 -88t77 -57t93 -21q57 0 113 28t102 77q45 49 72 117q28 69 28 153q0 61 -19 114q-19 52 -53 89
q-33 37 -76 57q-45 20 -94 20zM625 932q84 0 154 -31q71 -31 123 -85t82 -129t30 -165q0 -119 -41 -216t-109 -168t-153 -109q-86 -39 -176 -39q-84 0 -155 30q-71 31 -123 85t-82 129t-30 165q0 119 41 216t109 168t154 110t176 39z" />
    <glyph glyph-name="OE" unicode="&#x152;" horiz-adv-x="1695" 
d="M1618 143l-25 -143h-921q-106 0 -197.5 47t-157 127t-103.5 184.5t-38 219.5q0 150 58.5 279.5t153.5 226t216 151.5t246 55h950l-24 -143h-584l-74 -410h533l-25 -143h-532l-80 -451h604zM838 1147q-104 0 -195.5 -49t-158 -128t-105.5 -179.5t-39 -204.5
q0 -90 27.5 -170t76 -140.5t114 -96.5t138.5 -36h154l178 1004h-190z" />
    <glyph glyph-name="oe" unicode="&#x153;" horiz-adv-x="1701" 
d="M1653 246q-63 -113 -171 -184.5t-239 -71.5q-113 0 -201 52t-137 144q-70 -94 -168 -145t-202 -51q-84 0 -155 30.5t-123 85t-82 129t-30 164.5q0 119 41 216.5t108.5 168t154 109.5t176.5 39q111 0 198.5 -52.5t137.5 -144.5q70 92 166 144.5t198 52.5q94 0 167 -34
t122 -89t73.5 -126t24.5 -144q0 -72 -15.5 -111t-13.5 -39h-673q2 -47 19.5 -93t47 -82t73.5 -58.5t103 -22.5q39 0 74 12.5t64.5 30t50 36.5t31.5 34h180zM616 788q-57 0 -113.5 -27.5t-101.5 -76.5t-72.5 -118.5t-27.5 -153.5q0 -61 19.5 -112.5t52.5 -88.5t77 -57.5
t93 -20.5q57 0 113.5 27.5t101.5 77t72.5 118t27.5 152.5q0 61 -19.5 113.5t-52 89.5t-77 57t-93.5 20zM1327 788q-47 0 -93 -20t-86 -55t-72 -84t-50 -107h530q2 61 -15 110.5t-50 84.5t-76 53t-88 18z" />
    <glyph glyph-name="Racute" unicode="&#x154;" horiz-adv-x="1136" 
d="M926 1690h153l-217 -246h-102zM668 532h-246l-94 -532h-164l227 1290h481q72 0 132 -29q59 -30 102 -78t66 -111q24 -62 24 -130q0 -63 -15 -115q-15 -51 -40 -91t-56 -70q-31 -31 -63 -54q-78 -53 -174 -75l217 -537h-184zM446 676h340q47 0 93 20q45 20 79 56
q35 35 56 83q20 48 20 103q0 41 -14 79t-39 66q-25 29 -58 46q-34 17 -75 18h-318z" />
    <glyph glyph-name="racute" unicode="&#x155;" horiz-adv-x="614" 
d="M655 1311h154l-217 -246h-103zM711 778h-41q-109 0 -190 -69q-81 -70 -101 -187l-92 -522h-154l162 922h113l24 -103q35 31 78 55q37 23 89 40t118 18h20z" />
    <glyph glyph-name="uni0156" unicode="&#x156;" horiz-adv-x="1136" 
d="M479 -213q0 43 30 74t73 30q47 0 75 -31q29 -32 29 -73q0 -39 -15 -79t-43 -77t-65 -68q-37 -32 -78 -55l-22 43q23 14 43 37q16 18 34 43q17 25 27 56q-39 4 -63 33q-25 30 -25 67zM668 532h-246l-94 -532h-164l227 1290h481q72 0 132 -29q59 -30 102 -78t66 -111
q24 -62 24 -130q0 -63 -15 -115q-15 -51 -40 -91t-56 -70q-31 -31 -63 -54q-78 -53 -174 -75l217 -537h-184zM446 676h340q47 0 93 20q45 20 79 56q35 35 56 83q20 48 20 103q0 41 -14 79t-39 66q-25 29 -58 46q-34 17 -75 18h-318z" />
    <glyph glyph-name="uni0157" unicode="&#x157;" horiz-adv-x="614" 
d="M80 -238q0 43 30 74t72 31q47 0 76 -32t29 -73q0 -39 -16 -78q-15 -40 -43 -77t-64 -69q-37 -32 -78 -54l-23 43q23 14 43 37q16 18 34 43q17 25 28 55q-39 4 -64 34q-24 29 -24 66zM711 778h-41q-109 0 -190 -69q-81 -70 -101 -187l-92 -522h-154l162 922h113l24 -103
q35 31 78 55q37 23 89 40t118 18h20z" />
    <glyph glyph-name="Rcaron" unicode="&#x158;" horiz-adv-x="1136" 
d="M883 1434h-144l-141 245h143l78 -143l127 143h164zM668 532h-246l-94 -532h-164l227 1290h481q72 0 132 -29q59 -30 102 -78t66 -111q24 -62 24 -130q0 -63 -15 -115q-15 -51 -40 -91t-56 -70q-31 -31 -63 -54q-78 -53 -174 -75l217 -537h-184zM446 676h340q47 0 93 20
q45 20 79 56q35 35 56 83q20 48 20 103q0 41 -14 79t-39 66q-25 29 -58 46q-34 17 -75 18h-318z" />
    <glyph glyph-name="rcaron" unicode="&#x159;" horiz-adv-x="614" 
d="M612 1065h-143l-141 246h143l78 -144l127 144h164zM711 778h-41q-109 0 -190 -69q-81 -70 -101 -187l-92 -522h-154l162 922h113l24 -103q35 31 78 55q37 23 89 40t118 18h20z" />
    <glyph glyph-name="Sacute" unicode="&#x15a;" horiz-adv-x="1013" 
d="M829 1690h154l-217 -246h-102zM254 918q0 94 40 165q40 72 103 120t142 73q78 25 153 24q82 0 152 -28q70 -29 121 -80t78 -123q28 -72 28 -158h-162q0 49 -17 94q-17 44 -48 77q-31 34 -73 55q-42 20 -91 20q-63 0 -112 -19q-48 -19 -82 -51q-34 -31 -51 -69
q-17 -39 -17 -80q0 -66 43 -107t107 -73q65 -33 141 -64t140 -71q65 -41 107 -102q43 -60 43 -150q0 -74 -29 -143q-30 -69 -87 -122t-139 -84q-81 -32 -183 -32q-100 0 -178 29q-78 30 -131 82t-81 123t-28 155h162q0 -117 68 -181q68 -65 198 -65q123 0 193 63
q70 62 70 154q0 66 -43 108t-108 74q-65 33 -139 63q-75 30 -140 71t-107 100q-43 60 -43 152z" />
    <glyph glyph-name="sacute" unicode="&#x15b;" horiz-adv-x="808" 
d="M707 1311h153l-217 -246h-102zM791 293q0 -66 -25 -121t-68 -96t-103 -64t-132 -22q-78 0 -138 23q-60 24 -102 64q-41 40 -62 91q-22 51 -22 108h152q0 -66 47 -104q47 -39 133 -39q74 0 120 41t46 98q0 41 -31 66t-77 43t-99 35q-53 16 -99 43t-77 68q-31 42 -31 110
q0 57 24 112q24 54 65 94q42 40 102 64q59 25 131 25q74 0 131 -23t95 -60q38 -38 57 -88t20 -106h-156q0 55 -37 95q-37 39 -118 38q-72 0 -115 -40q-43 -41 -43 -91q0 -41 31 -65q31 -25 75 -43q45 -18 100 -35q54 -16 99 -43t76 -69q31 -41 31 -109z" />
    <glyph glyph-name="Scedilla" unicode="&#x15e;" horiz-adv-x="1013" 
d="M254 918q0 94 40 165.5t103.5 119.5t141 72.5t153.5 24.5q82 0 151.5 -28.5t121 -79.5t79 -123t27.5 -158h-162q0 49 -17.5 93.5t-48 78t-72.5 54t-91 20.5q-63 0 -111.5 -19.5t-82 -50t-51 -69.5t-17.5 -80q0 -66 43 -106.5t107.5 -73.5t140 -63.5t140 -71.5
t107.5 -101.5t43 -150.5q0 -68 -25.5 -132.5t-74.5 -115.5t-118.5 -86t-157.5 -43l-52 -76q53 -12 82 -44t29 -77q0 -59 -45 -101t-133 -42q-49 0 -84 10q-20 4 -35 10l14 82q0 2 29 -7t64 -9q43 0 66.5 18.5t23.5 42.5q0 20 -23.5 40t-71.5 20q-10 0 -17 -1t-11 -1
q-6 -2 -10 -2l79 135q-92 4 -163.5 34.5t-120.5 82t-75 121t-26 149.5h162q0 -117 67.5 -181.5t198.5 -64.5q123 0 193 62.5t70 154.5q0 66 -43 108t-108 74.5t-139.5 62.5t-139 71t-107.5 100.5t-43 151.5z" />
    <glyph glyph-name="scedilla" unicode="&#x15f;" horiz-adv-x="808" 
d="M791 293q0 -123 -79 -206t-208 -95l-51 -74q53 -12 81.5 -44t28.5 -77q0 -59 -45 -101t-133 -42q-49 0 -84 10q-20 4 -35 10l15 82q0 2 28.5 -7t63.5 -9q43 0 66.5 18.5t23.5 42.5q0 20 -23.5 40t-70.5 20q-10 0 -17.5 -1t-11.5 -1q-6 -2 -10 -2l82 137q-66 6 -117 31.5
t-86 64.5t-52.5 86t-17.5 100h152q0 -66 47 -104.5t133 -38.5q74 0 120 41t46 98q0 41 -31 65.5t-77 43t-99 35t-99 43t-77 68.5t-31 110q0 57 23.5 111.5t65.5 94.5t101.5 64.5t131.5 24.5q74 0 131 -22.5t95 -60.5t57.5 -88t19.5 -106h-156q0 55 -37 94t-118 39
q-72 0 -115 -40.5t-43 -90.5q0 -41 30.5 -65.5t75.5 -43t99.5 -34.5t99.5 -43t76 -68.5t31 -109.5z" />
    <glyph glyph-name="Scaron" unicode="&#x160;" horiz-adv-x="1013" 
d="M786 1434h-143l-141 245h143l78 -143l127 143h164zM254 918q0 94 40 165q40 72 103 120t142 73q78 25 153 24q82 0 152 -28q70 -29 121 -80t78 -123q28 -72 28 -158h-162q0 49 -17 94q-17 44 -48 77q-31 34 -73 55q-42 20 -91 20q-63 0 -112 -19q-48 -19 -82 -51
q-34 -31 -51 -69q-17 -39 -17 -80q0 -66 43 -107t107 -73q65 -33 141 -64t140 -71q65 -41 107 -102q43 -60 43 -150q0 -74 -29 -143q-30 -69 -87 -122t-139 -84q-81 -32 -183 -32q-100 0 -178 29q-78 30 -131 82t-81 123t-28 155h162q0 -117 68 -181q68 -65 198 -65
q123 0 193 63q70 62 70 154q0 66 -43 108t-108 74q-65 33 -139 63q-75 30 -140 71t-107 100q-43 60 -43 152z" />
    <glyph glyph-name="scaron" unicode="&#x161;" horiz-adv-x="808" 
d="M653 1065h-143l-141 246h143l78 -144l127 144h164zM791 293q0 -66 -25 -121t-68 -96t-103 -64t-132 -22q-78 0 -138 23q-60 24 -102 64q-41 40 -62 91q-22 51 -22 108h152q0 -66 47 -104q47 -39 133 -39q74 0 120 41t46 98q0 41 -31 66t-77 43t-99 35q-53 16 -99 43
t-77 68q-31 42 -31 110q0 57 24 112q24 54 65 94q42 40 102 64q59 25 131 25q74 0 131 -23t95 -60q38 -38 57 -88t20 -106h-156q0 55 -37 95q-37 39 -118 38q-72 0 -115 -40q-43 -41 -43 -91q0 -41 31 -65q31 -25 75 -43q45 -18 100 -35q54 -16 99 -43t76 -69
q31 -41 31 -109z" />
    <glyph glyph-name="uni0162" unicode="&#x162;" 
d="M367 -238q0 43 29 74q30 31 73 31q47 0 76 -32t28 -73q0 -39 -15 -78q-15 -40 -43 -77t-64 -69q-37 -32 -78 -54l-23 43q23 14 43 37q16 18 34 43q17 25 28 55q-39 4 -64 34q-24 29 -24 66zM1176 1147h-390l-202 -1147h-164l203 1147h-390l25 143h942z" />
    <glyph glyph-name="uni0163" unicode="&#x163;" horiz-adv-x="655" 
d="M285 -238q0 43 29 74q30 31 73 31q47 0 76 -32t29 -73q0 -39 -16 -78q-15 -40 -43 -77t-64 -69q-37 -32 -78 -54l-23 43q23 14 43 37q16 18 34 43q17 25 28 55q-39 4 -64 34q-24 29 -24 66zM412 307q-12 -72 20 -124q33 -52 115 -52q20 0 28 2l13 4l-25 -133l-16 -8
q-18 -6 -51 -6q-111 0 -177 75t-65 189q0 33 6 68l80 456h-164l25 144h71q53 0 88 29q35 30 46 83l22 133h135l-45 -245h205l-25 -144h-206z" />
    <glyph glyph-name="Tcaron" unicode="&#x164;" 
d="M807 1434h-143l-142 245h144l77 -143l127 143h164zM1176 1147h-390l-202 -1147h-164l203 1147h-390l25 143h942z" />
    <glyph glyph-name="tcaron" unicode="&#x165;" horiz-adv-x="655" 
d="M831 1290h144l-166 -246h-92zM412 307q-12 -72 20.5 -124t114.5 -52q20 0 28 2l13 4l-25 -133l-16 -8q-18 -6 -51 -6q-111 0 -176.5 74.5t-65.5 189.5q0 33 6 68l80 456h-164l25 144h71q53 0 88 29.5t46 82.5l22 133h135l-45 -245h205l-25 -144h-206z" />
    <glyph glyph-name="Umacron" unicode="&#x16a;" horiz-adv-x="1228" 
d="M1100 1475h-492l23 122h491zM659 -10q-115 0 -197 36q-83 36 -136 95t-78 134t-25 153q0 51 8 90l140 792h164l-142 -803q-4 -20 -6 -41q-2 -20 -2 -38q0 -123 75 -199t210 -76q61 0 116 22t99 59q43 38 71 93q29 55 41 123l152 860h164l-154 -872q-16 -92 -61 -171
t-111 -136t-149 -89q-85 -32 -179 -32z" />
    <glyph glyph-name="umacron" unicode="&#x16b;" horiz-adv-x="1034" 
d="M963 1106h-492l23 123h491zM524 -10q-90 0 -151 32t-101 82q-39 51 -55 114q-16 62 -16 124q0 43 6 80l88 500h154l-91 -514q-10 -57 2 -108q12 -50 40 -87t70 -58q42 -22 91 -22q98 0 171 64q73 63 91 172l97 553h153l-162 -922h-112l-25 102q-31 -33 -67 -57
q-33 -23 -79 -39q-47 -16 -104 -16z" />
    <glyph glyph-name="Uring" unicode="&#x16e;" horiz-adv-x="1228" 
d="M872 1653q-29 0 -52 -23q-24 -23 -23 -57q0 -27 19 -45t50 -19q29 0 53 23t23 57q0 27 -19 45q-20 19 -51 19zM883 1745q66 0 107 -42q42 -42 42 -106q0 -78 -52 -129t-124 -51q-66 0 -107 42q-42 42 -42 106q0 78 52 129t124 51zM659 -10q-115 0 -197 36q-83 36 -136 95
t-78 134t-25 153q0 51 8 90l140 792h164l-142 -803q-4 -20 -6 -41q-2 -20 -2 -38q0 -123 75 -199t210 -76q61 0 116 22t99 59q43 38 71 93q29 55 41 123l152 860h164l-154 -872q-16 -92 -61 -171t-111 -136t-149 -89q-85 -32 -179 -32z" />
    <glyph glyph-name="uring" unicode="&#x16f;" horiz-adv-x="1034" 
d="M723 1280q-29 0 -52 -23q-24 -23 -24 -57q0 -27 20 -45q19 -18 50 -18q29 0 52 22q24 23 24 58q0 27 -20 45q-19 18 -50 18zM733 1372q66 0 108 -42t42 -105q0 -78 -53 -129q-52 -51 -123 -52q-66 0 -108 42t-42 106q0 78 52 129t124 51zM524 -10q-90 0 -151 32t-101 82
q-39 51 -55 114q-16 62 -16 124q0 43 6 80l88 500h154l-91 -514q-10 -57 2 -108q12 -50 40 -87t70 -58q42 -22 91 -22q98 0 171 64q73 63 91 172l97 553h153l-162 -922h-112l-25 102q-31 -33 -67 -57q-33 -23 -79 -39q-47 -16 -104 -16z" />
    <glyph glyph-name="Uhungarumlaut" unicode="&#x170;" horiz-adv-x="1228" 
d="M797 1690h153l-227 -246h-102zM1083 1690h154l-227 -246h-103zM659 -10q-115 0 -197 36q-83 36 -136 95t-78 134t-25 153q0 51 8 90l140 792h164l-142 -803q-4 -20 -6 -41q-2 -20 -2 -38q0 -123 75 -199t210 -76q61 0 116 22t99 59q43 38 71 93q29 55 41 123l152 860h164
l-154 -872q-16 -92 -61 -171t-111 -136t-149 -89q-85 -32 -179 -32z" />
    <glyph glyph-name="uhungarumlaut" unicode="&#x171;" horiz-adv-x="1034" 
d="M674 1321h153l-227 -246h-102zM961 1321h153l-227 -246h-103zM524 -10q-90 0 -151 32t-101 82q-39 51 -55 114q-16 62 -16 124q0 43 6 80l88 500h154l-91 -514q-10 -57 2 -108q12 -50 40 -87t70 -58q42 -22 91 -22q98 0 171 64q73 63 91 172l97 553h153l-162 -922h-112
l-25 102q-31 -33 -67 -57q-33 -23 -79 -39q-47 -16 -104 -16z" />
    <glyph glyph-name="Uogonek" unicode="&#x172;" horiz-adv-x="1228" 
d="M504 -199q0 33 12 64t28.5 56.5t35 43t28.5 27.5q-102 8 -175 46t-119 95t-68.5 128t-22.5 145q0 51 8 92l140 792h164l-142 -803q-4 -20 -6 -40.5t-2 -38.5q0 -123 75 -199t210 -76q61 0 116.5 21.5t98.5 59.5t71.5 93t40.5 123l152 860h164l-154 -872q-16 -88 -56 -163
t-99.5 -130t-135 -90t-161.5 -43q-8 -8 -24.5 -25.5t-33 -41t-29 -52.5t-12.5 -59q0 -45 31 -65.5t78 -20.5q27 0 37 2q8 0 14 2l-14 -82q-8 -2 -17 -2q-10 -2 -37 -2q-96 0 -146 42.5t-50 112.5z" />
    <glyph glyph-name="uogonek" unicode="&#x173;" horiz-adv-x="1034" 
d="M774 102q-31 -33 -67 -57q-33 -23 -79 -39t-104 -16q-90 0 -151.5 31.5t-100.5 83t-55 114t-16 123.5q0 43 6 80l88 500h154l-91 -514q-10 -57 2.5 -107.5t40 -87.5t69.5 -58.5t91 -21.5q98 0 171 63.5t91 172.5l97 553h153l-162 -922h-14q-33 -27 -55 -57
q-20 -27 -37 -61t-17 -68q0 -45 31 -65.5t78 -20.5q27 0 37 2q8 0 14 2l-14 -82q-8 -2 -16 -2q-10 -2 -37 -2q-96 0 -146.5 43t-50.5 112q0 41 17.5 76t39.5 64q25 33 58 59z" />
    <glyph glyph-name="Ydieresis" unicode="&#x178;" horiz-adv-x="1024" 
d="M592 1464q-39 0 -63 24t-23 60q0 41 30 70t70 29q39 0 63 -24t23 -60q0 -41 -29 -70q-30 -29 -71 -29zM897 1464q-39 0 -62 24q-24 24 -24 60q0 41 30 70t70 29q39 0 63 -24t23 -60q0 -41 -29 -70q-30 -29 -71 -29zM238 1290h168l208 -614l426 614h181l-549 -788
l-88 -502h-164l88 502z" />
    <glyph glyph-name="Zacute" unicode="&#x179;" horiz-adv-x="1013" 
d="M829 1690h154l-217 -246h-102zM301 143h666l-25 -143h-870l18 102l819 1045h-614l24 143h820l-19 -102z" />
    <glyph glyph-name="zacute" unicode="&#x17a;" horiz-adv-x="778" 
d="M655 1321h154l-217 -246h-103zM659 778h-450l24 144h635l-22 -134l-565 -645h471l-25 -143h-655l22 133z" />
    <glyph glyph-name="Zdotaccent" unicode="&#x17b;" horiz-adv-x="1013" 
d="M735 1454q-41 0 -65 26q-25 26 -25 60q0 47 31 78t74 31q41 0 65 -26q25 -26 25 -60q0 -47 -31 -78t-74 -31zM301 143h666l-25 -143h-870l18 102l819 1045h-614l24 143h820l-19 -102z" />
    <glyph glyph-name="zdotaccent" unicode="&#x17c;" horiz-adv-x="778" 
d="M567 1085q-41 0 -65 26q-25 26 -25 60q0 47 31 78t74 31q41 0 65 -26q25 -26 25 -60q0 -47 -31 -78t-74 -31zM659 778h-450l24 144h635l-22 -134l-565 -645h471l-25 -143h-655l22 133z" />
    <glyph glyph-name="Zcaron" unicode="&#x17d;" horiz-adv-x="1013" 
d="M797 1434h-144l-141 245h143l78 -143l127 143h164zM301 143h666l-25 -143h-870l18 102l819 1045h-614l24 143h820l-19 -102z" />
    <glyph glyph-name="zcaron" unicode="&#x17e;" horiz-adv-x="778" 
d="M623 1065h-144l-141 246h143l78 -144l127 144h164zM659 778h-450l24 144h635l-22 -134l-565 -645h471l-25 -143h-655l22 133z" />
    <glyph glyph-name="florin" unicode="&#x192;" horiz-adv-x="634" 
d="M358 -31q-12 -66 -41.5 -122t-71.5 -97t-94.5 -64.5t-109.5 -23.5q-45 0 -70 10q-14 4 -22 11l31 133q6 -4 14 -6q16 -4 37 -5q70 0 113.5 43t60.5 121l123 666h-144l21 143h143l41 215q12 66 42 122t72 97t94 64.5t110 23.5q23 0 40 -3t29 -7q12 -6 23 -10l-31 -133
q-6 2 -14 4q-6 2 -16.5 4t-20.5 2q-70 0 -114 -43t-60 -121l-41 -215h205l-21 -143h-205z" />
    <glyph glyph-name="uni0218" unicode="&#x218;" horiz-adv-x="1013" 
d="M408 -219q0 43 29 74q30 31 73 30q47 0 76 -31q29 -32 28 -73q0 -39 -15 -79t-43 -77t-64 -68q-37 -32 -78 -55l-23 43q23 14 43 37q16 18 34 43q17 25 28 56q-39 4 -64 33q-24 30 -24 67zM254 918q0 94 40 165q40 72 103 120t142 73q78 25 153 24q82 0 152 -28
q70 -29 121 -80t78 -123q28 -72 28 -158h-162q0 49 -17 94q-17 44 -48 77q-31 34 -73 55q-42 20 -91 20q-63 0 -112 -19q-48 -19 -82 -51q-34 -31 -51 -69q-17 -39 -17 -80q0 -66 43 -107t107 -73q65 -33 141 -64t140 -71q65 -41 107 -102q43 -60 43 -150q0 -74 -29 -143
q-30 -69 -87 -122t-139 -84q-81 -32 -183 -32q-100 0 -178 29q-78 30 -131 82t-81 123t-28 155h162q0 -117 68 -181q68 -65 198 -65q123 0 193 63q70 62 70 154q0 66 -43 108t-108 74q-65 33 -139 63q-75 30 -140 71t-107 100q-43 60 -43 152z" />
    <glyph glyph-name="uni0219" unicode="&#x219;" horiz-adv-x="808" 
d="M322 -217q0 43 29 74q30 31 73 30q47 0 76 -31q29 -32 28 -73q0 -39 -15 -79t-43 -77t-64 -68q-37 -32 -78 -55l-23 43q23 14 43 37q16 18 34 43q17 25 28 56q-39 4 -64 33q-24 30 -24 67zM791 293q0 -66 -25 -121t-68 -96t-103 -64t-132 -22q-78 0 -138 23
q-60 24 -102 64q-41 40 -62 91q-22 51 -22 108h152q0 -66 47 -104q47 -39 133 -39q74 0 120 41t46 98q0 41 -31 66t-77 43t-99 35q-53 16 -99 43t-77 68q-31 42 -31 110q0 57 24 112q24 54 65 94q42 40 102 64q59 25 131 25q74 0 131 -23t95 -60q38 -38 57 -88t20 -106h-156
q0 55 -37 95q-37 39 -118 38q-72 0 -115 -40q-43 -41 -43 -91q0 -41 31 -65q31 -25 75 -43q45 -18 100 -35q54 -16 99 -43t76 -69q31 -41 31 -109z" />
    <glyph glyph-name="uni021A" unicode="&#x21a;" 
d="M367 -238q0 43 29 74q30 31 73 31q47 0 76 -32t28 -73q0 -39 -15 -78q-15 -40 -43 -77t-64 -69q-37 -32 -78 -54l-23 43q23 14 43 37q16 18 34 43q17 25 28 55q-39 4 -64 34q-24 29 -24 66zM1176 1147h-390l-202 -1147h-164l203 1147h-390l25 143h942z" />
    <glyph glyph-name="uni021B" unicode="&#x21b;" horiz-adv-x="655" 
d="M285 -238q0 43 29 74q30 31 73 31q47 0 76 -32t29 -73q0 -39 -16 -78q-15 -40 -43 -77t-64 -69q-37 -32 -78 -54l-23 43q23 14 43 37q16 18 34 43q17 25 28 55q-39 4 -64 34q-24 29 -24 66zM412 307q-12 -72 20 -124q33 -52 115 -52q20 0 28 2l13 4l-25 -133l-16 -8
q-18 -6 -51 -6q-111 0 -177 75t-65 189q0 33 6 68l80 456h-164l25 144h71q53 0 88 29q35 30 46 83l22 133h135l-45 -245h205l-25 -144h-206z" />
    <glyph glyph-name="uni02BC" unicode="&#x2bc;" horiz-adv-x="327" 
d="M264 1186q0 43 30 73.5t73 30.5q47 0 75.5 -31.5t28.5 -72.5q0 -39 -15.5 -79t-43 -77t-64.5 -68.5t-78 -54.5l-22 43q23 14 43 37q16 18 33.5 43t27.5 55q-39 4 -63.5 34t-24.5 67z" />
    <glyph glyph-name="circumflex" unicode="&#x2c6;" horiz-adv-x="634" 
d="M471 1280h143l142 -246h-144l-77 144l-127 -144h-164z" />
    <glyph glyph-name="caron" unicode="&#x2c7;" horiz-adv-x="634" 
d="M571 1034h-143l-141 246h143l78 -143l127 143h164z" />
    <glyph glyph-name="breve" unicode="&#x2d8;" horiz-adv-x="614" 
d="M502 1055q-53 0 -96.5 19.5t-72 50t-45 71.5t-18.5 84h117q0 -59 34 -91t87 -32q49 0 87 36t54 87h123q-33 -92 -103.5 -158.5t-166.5 -66.5z" />
    <glyph glyph-name="dotaccent" unicode="&#x2d9;" horiz-adv-x="317" 
d="M356 1085q-41 0 -65.5 26t-24.5 60q0 47 31 78t74 31q41 0 65.5 -25.5t24.5 -60.5q0 -47 -31 -78t-74 -31z" />
    <glyph glyph-name="ring" unicode="&#x2da;" horiz-adv-x="450" 
d="M432 1260q-29 0 -52.5 -23t-23.5 -57q0 -27 19.5 -45.5t50.5 -18.5q29 0 52.5 22.5t23.5 57.5q0 27 -19.5 45.5t-50.5 18.5zM442 1352q66 0 108 -42t42 -106q0 -78 -52.5 -129t-123.5 -51q-66 0 -108 42t-42 105q0 78 52 129.5t124 51.5z" />
    <glyph glyph-name="ogonek" unicode="&#x2db;" horiz-adv-x="399" 
d="M256 0q-33 -27 -55 -57q-20 -27 -37 -61t-17 -68q0 -45 31 -65.5t78 -20.5q27 0 37 2q8 0 14 2l-14 -82q-8 -2 -17 -2q-10 -2 -36 -2q-96 0 -146.5 43t-50.5 112q0 41 17.5 76t39.5 64q25 33 58 59h98z" />
    <glyph glyph-name="tilde" unicode="&#x2dc;" horiz-adv-x="696" 
d="M682 1159q33 0 62.5 29t39.5 88h93q-18 -117 -76 -173t-125 -56q-47 0 -75 20t-49.5 45t-40.5 45.5t-46 20.5q-33 0 -62.5 -29t-40.5 -88h-92q18 117 75.5 173t125.5 56q45 0 73.5 -20.5t50 -45t40 -45t47.5 -20.5z" />
    <glyph glyph-name="hungarumlaut" unicode="&#x2dd;" horiz-adv-x="696" 
d="M428 1290h154l-228 -246h-102zM715 1290h153l-227 -246h-102z" />
    <glyph glyph-name="uni0401" unicode="&#x401;" horiz-adv-x="1105" 
d="M678 1466q-39 0 -63 24t-23 60q0 41 30 70t70 29q39 0 63 -24t23 -60q0 -41 -29 -70q-30 -29 -71 -29zM983 1466q-39 0 -62 24q-24 24 -24 60q0 41 30 70t70 29q39 0 63 -24t23 -60q0 -41 -29 -70q-30 -29 -71 -29zM1028 143l-24 -143h-840l227 1290h819l-24 -143h-656
l-73 -410h604l-25 -143h-604l-80 -451h676z" />
    <glyph glyph-name="uni0402" unicode="&#x402;" horiz-adv-x="1259" 
d="M838 686q-53 0 -102.5 -19.5t-90.5 -53t-68.5 -80t-37.5 -101.5l-78 -432h-164l203 1147h-297l24 143h768l-24 -143h-307l-78 -442q37 35 84 61q41 23 94 43t119 20q82 0 150.5 -29.5t117.5 -82.5t76.5 -127t27.5 -160q0 -127 -38.5 -225.5t-104 -167t-155 -104
t-187.5 -35.5h-57l24 143h27q61 0 119.5 27.5t104.5 78t75 120t29 153.5q0 61 -19.5 110.5t-53.5 84t-81 53t-100 18.5z" />
    <glyph glyph-name="uni0403" unicode="&#x403;" horiz-adv-x="921" 
d="M881 1690h153l-217 -246h-102zM530 1147l-202 -1147h-164l227 1290h737l-24 -143h-574z" />
    <glyph glyph-name="uni0404" unicode="&#x404;" horiz-adv-x="1310" 
d="M1202 881q-29 76 -78 137q-23 27 -50 51.5t-62 44t-78 31.5t-94 12q-78 0 -155 -31.5t-143.5 -90t-116.5 -139.5t-71 -179h529l-25 -144h-518q2 -98 34 -180t86 -139t124.5 -89t150.5 -32q61 0 124 22.5t118 60.5t99 86t71 97h174q-45 -90 -110.5 -165.5t-144.5 -130
t-166 -84t-177 -29.5q-115 0 -214 45t-173 123t-117 185.5t-43 231.5q0 154 59.5 286t154.5 230.5t216 153.5t246 55q100 0 185 -33.5t151.5 -91t114 -134t69.5 -160.5h-170z" />
    <glyph glyph-name="uni0405" unicode="&#x405;" horiz-adv-x="1013" 
d="M254 918q0 94 40 165q40 72 103 120t142 73q78 25 153 24q82 0 152 -28q70 -29 121 -80t78 -123q28 -72 28 -158h-162q0 49 -17 94q-17 44 -48 77q-31 34 -73 55q-42 20 -91 20q-63 0 -112 -19q-48 -19 -82 -51q-34 -31 -51 -69q-17 -39 -17 -80q0 -66 43 -107t107 -73
q65 -33 141 -64t140 -71q65 -41 107 -102q43 -60 43 -150q0 -74 -29 -143q-30 -69 -87 -122t-139 -84q-81 -32 -183 -32q-100 0 -178 29q-78 30 -131 82t-81 123t-28 155h162q0 -117 68 -181q68 -65 198 -65q123 0 193 63q70 62 70 154q0 66 -43 108t-108 74q-65 33 -139 63
q-75 30 -140 71t-107 100q-43 60 -43 152z" />
    <glyph glyph-name="uni0406" unicode="&#x406;" horiz-adv-x="491" 
d="M328 0h-164l227 1290h164z" />
    <glyph glyph-name="uni0407" unicode="&#x407;" horiz-adv-x="491" 
d="M342 1464q-39 0 -62 24q-24 24 -24 60q0 41 30 70t70 29q39 0 63 -24t23 -60q0 -41 -29 -70q-30 -29 -71 -29zM647 1464q-39 0 -62 24q-24 24 -24 60q0 41 30 70t71 29q39 0 62 -24q24 -24 24 -60q0 -41 -30 -70t-71 -29zM328 0h-164l227 1290h164z" />
    <glyph glyph-name="uni0408" unicode="&#x408;" horiz-adv-x="942" 
d="M1026 1290l-170 -962q-12 -74 -49 -137q-37 -62 -90 -107t-122 -70t-146 -24q-80 0 -148 29q-68 30 -118 80t-78 115t-27 134h168q0 -92 58 -153t153 -62q96 0 159 63q63 62 80 154l166 940h164z" />
    <glyph glyph-name="uni0409" unicode="&#x409;" horiz-adv-x="1832" 
d="M911 0l201 1147h-438l-205 -799q-47 -180 -150.5 -269t-232.5 -89q-47 0 -72 6q-16 4 -26 8l22 133h45q90 0 158 59.5t96 165.5l238 928h756l-86 -491h286q76 0 138.5 -32t108.5 -83t71.5 -118.5t25.5 -137.5q0 -86 -37.5 -164t-100 -136t-143.5 -93t-167 -35h-488z
M1190 655l-90 -512h311q51 0 100.5 21.5t87 59.5t60 90.5t22.5 111.5q0 45 -15 87t-42 73.5t-63.5 50t-81.5 18.5h-289z" />
    <glyph glyph-name="uni040A" unicode="&#x40a;" horiz-adv-x="1832" 
d="M911 0l115 655h-584l-114 -655h-164l227 1290h164l-86 -491h584l86 491h164l-86 -491h286q76 0 138.5 -32t108.5 -83t71.5 -118.5t25.5 -137.5q0 -86 -37.5 -164t-100 -136t-143.5 -93t-167 -35h-488zM1190 655l-90 -512h311q51 0 100.5 21.5t87 59.5t60 90.5t22.5 111.5
q0 45 -15 87t-42 73.5t-63.5 50t-81.5 18.5h-289z" />
    <glyph glyph-name="uni040B" unicode="&#x40b;" horiz-adv-x="1280" 
d="M883 829q88 0 154.5 -29.5t112.5 -80.5t69.5 -119t23.5 -141q0 -41 -6 -80l-66 -379h-163l67 393q6 31 6 60q0 100 -66.5 166.5t-176.5 66.5q-53 0 -102.5 -19.5t-90.5 -53t-68.5 -80t-37.5 -101.5l-78 -432h-164l203 1147h-297l24 143h768l-24 -143h-307l-78 -442
q37 35 84 61q41 23 94 43t119 20z" />
    <glyph glyph-name="uni040C" unicode="&#x40c;" horiz-adv-x="1044" 
d="M328 0h-164l227 1290h164zM1065 0h-195l-428 655l615 635h200l-628 -639zM932 1690h153l-217 -246h-102z" />
    <glyph glyph-name="uni040E" unicode="&#x40e;" horiz-adv-x="1044" 
d="M772 1436q-53 0 -96 19t-72 50t-45 72t-18 84h116q0 -59 34 -91t87 -32q49 0 87 36t55 87h122q-33 -92 -103 -159q-71 -66 -167 -66zM1247 1290l-651 -1048q-84 -133 -161 -198t-167 -64q-23 0 -46 5q-24 5 -43 11t-32 11l-12 5l23 133q10 -4 22 -8q10 -4 27 -6
q16 -2 35 -2q59 0 101 33t81 94l63 102l-256 932h185l196 -737l449 737h186z" />
    <glyph glyph-name="uni040F" unicode="&#x40f;" horiz-adv-x="1259" 
d="M164 0l227 1290h164l-203 -1147h594l203 1147h164l-228 -1290h-378l-48 -266h-163l47 266h-379z" />
    <glyph glyph-name="uni0410" unicode="&#x410;" horiz-adv-x="1126" 
d="M897 317h-532l-179 -317h-176l719 1290h143l265 -1290h-172zM442 461h430l-116 563z" />
    <glyph glyph-name="uni0411" unicode="&#x411;" horiz-adv-x="1136" 
d="M391 1290h799l-29 -164h-635l-65 -368h340q74 0 134 -28t102 -76t65.5 -109.5t23.5 -128.5q0 -90 -33.5 -166t-91 -131.5t-133 -87t-159.5 -31.5h-545zM436 614l-84 -471h367q49 0 93 18.5t77 54.5t52.5 85t19.5 111q0 86 -49.5 144t-135.5 58h-340z" />
    <glyph glyph-name="uni0412" unicode="&#x412;" horiz-adv-x="1146" 
d="M993 670q39 -27 70 -64q27 -33 49 -82q23 -49 23 -118q0 -78 -33 -152t-91 -130t-139 -90q-80 -34 -174 -34h-534l227 1290h483q70 0 128 -25q58 -26 99 -70q40 -44 62 -101q23 -57 23 -119q0 -86 -31 -146q-31 -59 -65 -94q-44 -40 -97 -65zM459 748h346q47 0 89 17
t73 47t48 68t17 81q0 37 -13 69q-13 33 -37 60t-57 42q-34 15 -75 15h-320zM711 143q53 0 100 20q47 19 83 53t57 81q22 47 22 100q0 39 -15 77q-14 38 -42 67t-65 46q-38 17 -85 17h-332l-82 -461h359z" />
    <glyph glyph-name="uni0413" unicode="&#x413;" horiz-adv-x="921" 
d="M530 1147l-202 -1147h-164l227 1290h737l-24 -143h-574z" />
    <glyph glyph-name="uni0414" unicode="&#x414;" horiz-adv-x="1239" 
d="M1223 143l-72 -409h-154l47 266h-890l-48 -266h-153l72 409h71q39 27 76 64q31 33 61.5 80t51.5 112l260 891h737l-203 -1147h144zM1094 1147h-426l-219 -748q-20 -66 -45 -112.5t-48 -79.5q-27 -37 -55 -64h614z" />
    <glyph glyph-name="uni0415" unicode="&#x415;" horiz-adv-x="1105" 
d="M1028 143l-24 -143h-840l227 1290h819l-24 -143h-656l-73 -410h604l-25 -143h-604l-80 -451h676z" />
    <glyph glyph-name="uni0416" unicode="&#x416;" horiz-adv-x="1505" 
d="M903 1290h164l-227 -1290h-164zM184 0h-200l622 662l-344 628h191l338 -635zM954 655l564 635h200l-579 -641l383 -649h-191z" />
    <glyph glyph-name="uni0417" unicode="&#x417;" 
d="M240 942q39 166 156.5 262t277.5 96q88 0 158.5 -27.5t119.5 -73.5t76 -106.5t27 -127.5q0 -86 -36 -144.5t-77 -95.5q-49 -43 -111 -68q45 -27 82 -65q31 -35 56.5 -86t25.5 -123q0 -78 -33.5 -149.5t-93 -126t-141.5 -86t-180 -31.5q-88 0 -164 24.5t-132 70.5
t-90 112.5t-40 150.5h164q8 -100 86 -157.5t186 -57.5q59 0 109.5 19.5t87.5 52.5t57 77t20 93q0 39 -15 76.5t-45 67.5t-72 47.5t-97 17.5h-119l25 143h139q51 0 96 17.5t79 49t52.5 74.5t18.5 93q0 84 -59.5 140t-165.5 56q-49 0 -92.5 -17.5t-77 -47t-58 -68.5t-37.5 -82
h-163z" />
    <glyph glyph-name="uni0418" unicode="&#x418;" horiz-adv-x="1280" 
d="M952 0l172 977l-817 -977h-143l227 1290h164l-172 -977l817 977h143l-227 -1290h-164z" />
    <glyph glyph-name="uni0419" unicode="&#x419;" horiz-adv-x="1280" 
d="M891 1434q-53 0 -96 19t-72 50t-45 72t-19 84h117q0 -59 34 -91t87 -32q49 0 87 36t54 87h123q-33 -92 -103 -159q-71 -66 -167 -66zM952 0l172 977l-817 -977h-143l227 1290h164l-172 -977l817 977h143l-227 -1290h-164z" />
    <glyph glyph-name="uni041A" unicode="&#x41a;" horiz-adv-x="1044" 
d="M328 0h-164l227 1290h164zM1065 0h-195l-428 655l615 635h200l-628 -639z" />
    <glyph glyph-name="uni041B" unicode="&#x41b;" horiz-adv-x="1269" 
d="M1333 1290l-227 -1290h-164l203 1147h-471l-205 -799q-47 -180 -150.5 -269t-232.5 -89q-47 0 -72 6q-16 4 -26 8l22 133h45q90 0 158 59.5t96 165.5l238 928h786z" />
    <glyph glyph-name="uni041C" unicode="&#x41c;" horiz-adv-x="1556" 
d="M1479 1290h141l-227 -1290h-164l153 870l-553 -870h-102l-246 870l-153 -870h-164l227 1290h125l299 -1034z" />
    <glyph glyph-name="uni041D" unicode="&#x41d;" horiz-adv-x="1280" 
d="M1343 1290l-227 -1290h-164l103 584h-625l-102 -584h-164l227 1290h164l-98 -563h624l99 563h163z" />
    <glyph glyph-name="uni041E" unicode="&#x41e;" horiz-adv-x="1351" 
d="M729 133q96 0 186 45t160 123t112 184t42 228q0 96 -32 178t-85 141t-124 92t-148 33q-90 0 -180 -42q-89 -42 -159 -119q-71 -77 -116 -183t-45 -233q0 -96 32 -179q32 -82 85 -141t124 -93q70 -34 148 -34zM852 1300q113 0 211 -45t172 -123q74 -79 116 -186
q42 -106 42 -231q0 -154 -59 -286q-58 -132 -153 -230t-217 -154q-122 -55 -247 -55q-113 0 -211 45t-172 124t-116 185t-42 231q0 154 58 286t154 231q95 98 217 153t247 55z" />
    <glyph glyph-name="uni041F" unicode="&#x41f;" horiz-adv-x="1290" 
d="M1354 1290l-228 -1290h-163l202 1147h-635l-202 -1147h-164l227 1290h963z" />
    <glyph glyph-name="uni0420" unicode="&#x420;" horiz-adv-x="1095" 
d="M831 1290q76 0 139 -30q62 -31 108 -83t72 -119t26 -138q0 -86 -37 -164t-100 -136q-62 -58 -143 -94q-81 -35 -169 -34h-313l-86 -492h-164l227 1290h440zM739 635q51 0 101 22q49 23 87 61t60 89q23 51 23 111q0 45 -16 87q-15 42 -42 73q-27 32 -63 50q-37 18 -82 19
h-277l-90 -512h299z" />
    <glyph glyph-name="uni0421" unicode="&#x421;" horiz-adv-x="1335" 
d="M1208 860q-27 82 -78 148q-43 55 -113 102q-71 47 -177 47q-90 0 -180 -43q-89 -43 -159 -120q-71 -77 -116 -182t-45 -230q0 -100 32 -184q32 -83 86 -141t126 -91t151 -33q68 0 133 26q66 26 122 66q56 41 102 96q45 54 71 109h172q-41 -92 -104 -172t-145 -140
q-81 -60 -174 -94t-189 -34q-115 0 -214 45t-173 123t-117 185q-43 108 -43 232q0 154 60 286q59 132 154 231q95 98 216 153t246 55q102 0 189 -35q87 -36 155 -97q68 -60 114 -140t66 -168h-168z" />
    <glyph glyph-name="uni0422" unicode="&#x422;" 
d="M1176 1147h-390l-202 -1147h-164l203 1147h-390l25 143h942z" />
    <glyph glyph-name="uni0423" unicode="&#x423;" horiz-adv-x="1044" 
d="M1247 1290l-651 -1048q-84 -133 -161 -197.5t-167 -64.5q-23 0 -46 5t-42.5 11t-31.5 11l-13 5l23 133q10 -4 22 -8q10 -4 26.5 -6t35.5 -2q59 0 101 33t81 94l63 102l-256 932h185l196 -737l449 737h186z" />
    <glyph glyph-name="uni0424" unicode="&#x424;" horiz-adv-x="1474" 
d="M1020 1167q238 -31 361.5 -149.5t123.5 -312.5q0 -117 -46 -215.5t-132 -170t-209 -112.5t-276 -43l-31 -174h-164l31 174q-238 31 -361.5 149.5t-123.5 313.5q0 117 46 215t132 169.5t208.5 112.5t276.5 43l21 123h163zM829 1024q-100 -2 -187 -30.5t-150.5 -78
t-99.5 -119t-36 -155.5q0 -127 89.5 -219t256.5 -115zM868 307q100 2 187.5 31t151 78t99 118.5t35.5 155.5q0 127 -89 219t-257 115z" />
    <glyph glyph-name="uni0425" unicode="&#x425;" horiz-adv-x="1064" 
d="M555 655l-287 635h174l222 -491l393 491h194l-512 -635l305 -655h-184l-229 512l-416 -512h-195z" />
    <glyph glyph-name="uni0426" unicode="&#x426;" horiz-adv-x="1269" 
d="M1253 143l-71 -409h-154l47 266h-911l227 1290h164l-203 -1147h594l203 1147h164l-203 -1147h143z" />
    <glyph glyph-name="uni0427" unicode="&#x427;" horiz-adv-x="1163" 
d="M1227 1290l-228 -1290h-163l82 463q-39 -20 -84 -37q-39 -14 -89.5 -24.5t-107.5 -10.5q-96 0 -171 27.5t-125 77t-75.5 118t-25.5 148.5q0 23 2 45t6 47l76 436h165l-77 -446q-6 -37 -6 -70q0 -109 64.5 -175.5t193.5 -66.5q55 0 105 11.5t89 25.5q45 16 84 37l121 684
h164z" />
    <glyph glyph-name="uni0428" unicode="&#x428;" horiz-adv-x="1720" 
d="M1784 1290l-228 -1290h-1392l227 1290h164l-203 -1147h451l203 1147h163l-202 -1147h450l203 1147h164z" />
    <glyph glyph-name="uni0429" unicode="&#x429;" horiz-adv-x="1740" 
d="M164 0l227 1290h164l-203 -1147h451l203 1147h163l-202 -1147h450l203 1147h164l-203 -1147h143l-71 -409h-154l47 266h-1382z" />
    <glyph glyph-name="uni042A" unicode="&#x42a;" horiz-adv-x="1228" 
d="M227 1290h471l-86 -491h287q76 0 138.5 -32t108.5 -83t71.5 -118.5t25.5 -137.5q0 -86 -38 -164t-100.5 -136t-143 -93t-166.5 -35h-488l201 1147h-305zM586 655l-90 -512h311q51 0 100 21.5t87 59.5t60.5 90.5t22.5 111.5q0 45 -15 87t-42 73.5t-63.5 50t-82.5 18.5
h-288z" />
    <glyph glyph-name="uni042B" unicode="&#x42b;" horiz-adv-x="1495" 
d="M164 0l227 1290h164l-86 -491h266q76 0 138.5 -32t108.5 -83t71.5 -118.5t25.5 -137.5q0 -86 -37.5 -164t-100 -136t-143.5 -93t-167 -35h-467zM442 655l-90 -512h291q51 0 100.5 21.5t87 59.5t60 90.5t22.5 111.5q0 45 -15 87t-42 73.5t-63.5 50t-81.5 18.5h-269z
M1331 0h-164l228 1290h164z" />
    <glyph glyph-name="uni042C" unicode="&#x42c;" horiz-adv-x="1085" 
d="M164 0l227 1290h164l-86 -491h287q76 0 138 -32t108.5 -83t72 -118.5t25.5 -137.5q0 -86 -38 -164t-100.5 -136t-143.5 -93t-167 -35h-487zM442 655l-90 -512h312q51 0 100 21.5t87 59.5t60.5 90.5t22.5 111.5q0 45 -15.5 87t-42 73.5t-63.5 50t-82 18.5h-289z" />
    <glyph glyph-name="uni042D" unicode="&#x42d;" horiz-adv-x="1280" 
d="M637 717h524q0 82 -28.5 160.5t-78.5 141t-121 100.5t-155 38q-70 0 -132 -24.5t-114.5 -64.5t-91.5 -89t-63 -98h-176q92 195 244.5 307t345.5 112q109 0 205 -45t168.5 -122.5t114.5 -184t42 -231.5q0 -156 -59.5 -289t-154.5 -230.5t-215 -152.5t-241 -55
q-98 0 -182 30.5t-149.5 85t-110.5 129t-66 164.5h168q12 -55 43 -103t77 -85t105.5 -57.5t127.5 -20.5q70 0 142.5 28.5t138 84t119.5 137.5t85 190h-537z" />
    <glyph glyph-name="uni042E" unicode="&#x42e;" horiz-adv-x="1720" 
d="M1278 1300q117 0 210 -51t156.5 -132t96.5 -183.5t33 -204.5q0 -162 -58.5 -298t-152 -234.5t-208 -152.5t-227.5 -54q-104 0 -195 46t-157.5 125t-105.5 182t-39 220h-205l-98 -563h-164l227 1290h164l-102 -583h202q20 117 79 224t143 189t187 131t214 49zM1266 1157
q-78 0 -161 -42t-152.5 -119.5t-113.5 -186.5t-44 -244q0 -98 28.5 -177t75.5 -136t108.5 -88t129.5 -31q78 0 160.5 42t152.5 120t114 187.5t44 244.5q0 98 -29 177t-76 135.5t-108 87t-129 30.5z" />
    <glyph glyph-name="uni042F" unicode="&#x42f;" horiz-adv-x="1146" 
d="M246 0h-185l431 549q-66 27 -117 72q-43 39 -79 99t-36 150q0 86 34 162t92 133.5t134 91t162 33.5h518l-227 -1290h-164l94 532h-244zM1012 1147h-340q-47 0 -92 -19.5t-80 -55.5t-55.5 -83t-20.5 -102q0 -43 13.5 -81t38 -66.5t58 -46t74.5 -17.5h320z" />
    <glyph glyph-name="uni0430" unicode="&#x430;" horiz-adv-x="952" 
d="M608 932q106 0 175 -36t107 -88t48 -112q10 -59 2 -104l-104 -592h-113l-25 102q-29 -33 -67 -57q-35 -23 -83 -39t-112 -16q-70 0 -124 20t-92 57q-38 36 -57 84t-20 101q0 90 50 149q49 59 135 96q86 36 202 51q117 15 252 15l6 35q6 39 -5 74t-38 60q-27 26 -64 41
q-38 15 -83 15q-72 0 -119 -39q-47 -40 -69 -94h-170q14 51 48 102q34 50 82 89t108 62q60 24 130 24zM455 133q57 0 107 20q50 19 88 50t63 68q25 38 30 77l13 72q-156 0 -247 -13t-138 -37t-61 -56q-13 -32 -13 -68q0 -57 47 -85q48 -28 111 -28z" />
    <glyph glyph-name="uni0431" unicode="&#x431;" horiz-adv-x="1024" 
d="M637 748q-55 0 -108.5 -25t-95.5 -71t-68.5 -110.5t-26.5 -142.5q0 -59 18.5 -107t50 -84t75.5 -55.5t93 -19.5q55 0 108.5 24.5t95.5 70.5t68.5 110.5t26.5 142.5q0 57 -18 106.5t-50 85.5t-76 55.5t-93 19.5zM377 776q35 33 78 58q37 23 88 40t116 17q76 0 143.5 -31
t117 -84t78 -127t28.5 -160q0 -106 -39 -197t-103.5 -158.5t-148.5 -105.5t-172 -38q-82 0 -152.5 30.5t-122.5 88t-82 139.5t-30 186q0 236 62.5 400.5t179.5 270t281.5 155t369.5 51.5l-25 -144q-170 -12 -284.5 -40.5t-190 -77t-120.5 -117t-72 -156.5z" />
    <glyph glyph-name="uni0432" unicode="&#x432;" horiz-adv-x="921" 
d="M780 469q31 -18 56 -43q20 -23 37.5 -56.5t17.5 -82.5q0 -63 -23.5 -115.5t-63.5 -90.5t-93.5 -59.5t-110.5 -21.5h-467l162 922h414q49 0 90 -19.5t70.5 -52.5t45 -75t15.5 -87q0 -63 -23.5 -105t-52.5 -67q-33 -31 -74 -47zM424 778l-41 -235h252q63 0 101 36.5
t38 86.5q0 45 -29.5 78.5t-82.5 33.5h-238zM592 143q27 0 52.5 11.5t47 30t34.5 44t13 54.5q0 41 -32.5 78.5t-81.5 37.5h-269l-45 -256h281z" />
    <glyph glyph-name="uni0433" unicode="&#x433;" horiz-adv-x="747" 
d="M864 778h-440l-137 -778h-154l162 922h594z" />
    <glyph glyph-name="uni0434" unicode="&#x434;" 
d="M989 143l-65 -368h-144l39 225h-676l-39 -225h-143l66 368h51q35 23 65 54q27 27 52.5 63.5t40.5 87.5l161 574h607l-138 -779h123zM391 348q-14 -51 -35.5 -88t-42.5 -63q-25 -31 -51 -54h451l110 635h-313z" />
    <glyph glyph-name="uni0435" unicode="&#x435;" horiz-adv-x="972" 
d="M944 246q-63 -113 -171 -185t-238 -71q-84 0 -155 30q-71 31 -123 85t-82 129t-30 165q0 119 41 216t108 168t150 110q84 39 172 39q94 0 167 -34t122 -89t74 -126t25 -144q0 -72 -16 -111q-15 -39 -13 -39h-674q2 -47 20 -93q17 -46 47 -82t73 -58q44 -23 104 -23
q39 0 73 12q35 12 65 30q30 17 50 37q20 19 31 34h180zM618 788q-47 0 -93 -20t-86 -55t-71 -84q-32 -49 -51 -107h531q2 61 -15 111q-17 49 -51 84q-33 35 -75 53q-44 18 -89 18z" />
    <glyph glyph-name="uni0436" unicode="&#x436;" horiz-adv-x="1208" 
d="M694 922h154l-162 -922h-154zM1217 0h-173l-274 481l406 441h188l-418 -447zM193 922h172l251 -441l-442 -481h-190l456 487z" />
    <glyph glyph-name="uni0437" unicode="&#x437;" horiz-adv-x="788" 
d="M659 455q27 -18 50 -45q18 -23 33.5 -57t15.5 -79q0 -59 -24.5 -111t-68.5 -91t-103.5 -60.5t-129.5 -21.5q-76 0 -135 23.5t-102 62.5t-67 91t-28 109h152q16 -143 188 -143q76 0 121 41t45 98q0 47 -37 87t-104 40h-82l25 144h100q59 0 103 35.5t44 93.5q0 53 -41 84.5
t-106 31.5q-72 0 -116 -43t-58 -90h-156q12 55 42 105.5t73 88.5t98 60.5t123 22.5t122 -19.5t93 -53.5t59.5 -79t20.5 -98q0 -61 -23.5 -104t-52.5 -72q-33 -33 -74 -51z" />
    <glyph glyph-name="uni0438" unicode="&#x438;" horiz-adv-x="1044" 
d="M1073 922l-162 -922h-153l121 674l-592 -674h-154l162 922h154l-121 -674l592 674h153z" />
    <glyph glyph-name="uni0439" unicode="&#x439;" horiz-adv-x="1044" 
d="M696 1065q-39 0 -79 14t-72 42q-33 28 -56 70t-24 99h121q0 -49 30 -86q31 -37 84 -37q49 0 88 31t54 92h119q-25 -96 -93 -161q-68 -64 -172 -64zM1073 922l-162 -922h-153l121 674l-592 -674h-154l162 922h154l-121 -674l592 674h153z" />
    <glyph glyph-name="uni043A" unicode="&#x43a;" horiz-adv-x="839" 
d="M287 0h-154l162 922h154zM856 0h-180l-305 481l426 441h178l-428 -435z" />
    <glyph glyph-name="uni043B" unicode="&#x43b;" horiz-adv-x="983" 
d="M1012 922l-162 -922h-154l140 788h-328l-127 -491q-39 -160 -120 -233.5t-187 -73.5q-16 0 -32.5 2t-27.5 6q-14 4 -24 8l22 127h43q127 0 168 154l164 635h625z" />
    <glyph glyph-name="uni043C" unicode="&#x43c;" horiz-adv-x="1228" 
d="M563 0l-176 573l-100 -573h-154l162 922h125l223 -717l473 717h141l-161 -922h-154l100 573l-376 -573h-103z" />
    <glyph glyph-name="uni043D" unicode="&#x43d;" horiz-adv-x="1044" 
d="M1073 922l-162 -922h-153l69 399h-471l-69 -399h-154l162 922h154l-66 -379h471l66 379h153z" />
    <glyph glyph-name="uni043E" unicode="&#x43e;" 
d="M616 788q-57 0 -113 -27q-56 -28 -102 -77q-45 -49 -72 -119q-28 -70 -28 -153q0 -61 20 -113q19 -51 52 -88t77 -57t93 -21q57 0 113 28t102 77q45 49 72 117q28 69 28 153q0 61 -19 114q-19 52 -53 89q-33 37 -76 57q-45 20 -94 20zM625 932q84 0 154 -31
q71 -31 123 -85t82 -129t30 -165q0 -119 -41 -216t-109 -168t-153 -109q-86 -39 -176 -39q-84 0 -155 30q-71 31 -123 85t-82 129t-30 165q0 119 41 216t109 168t154 110t176 39z" />
    <glyph glyph-name="uni043F" unicode="&#x43f;" horiz-adv-x="1044" 
d="M1073 922l-162 -922h-153l137 778h-471l-137 -778h-154l162 922h778z" />
    <glyph glyph-name="uni0440" unicode="&#x440;" horiz-adv-x="1071" 
d="M434 819q29 31 68 55q35 23 82 40t108 18q84 0 155 -31t123 -85t82 -130t29 -166q0 -119 -41 -216t-108 -167q-68 -70 -154 -108q-86 -39 -176 -39q-78 0 -133 22q-55 23 -90 50q-35 28 -51 51l-17 22l-82 -463h-151l219 1250h113zM680 788q-57 0 -114 -27
q-56 -28 -102 -77t-75 -119t-29 -153q0 -61 20 -113q19 -51 53 -88t79 -57t94 -21q57 0 114 28q56 28 102 77t75 117q29 69 29 153q0 61 -20 114q-19 52 -53 89t-79 57t-94 20z" />
    <glyph glyph-name="uni0441" unicode="&#x441;" horiz-adv-x="962" 
d="M848 594q-6 27 -24 61q-17 35 -46 64t-68 49q-40 20 -94 20q-55 0 -112 -26q-57 -27 -103 -76q-45 -49 -73 -119q-29 -70 -29 -153q0 -61 19 -114q19 -52 53 -89q33 -37 78 -57t94 -21q86 0 160 55q75 55 114 140h156q-23 -63 -63 -124q-40 -60 -96 -109
q-56 -48 -127 -77t-157 -28q-84 0 -153 30q-70 31 -122 86t-81 131q-29 75 -29 162q0 119 41 216t109 168t154 110t176 39q80 0 146 -27q67 -27 116 -72q49 -46 80 -108q31 -61 41 -131h-160z" />
    <glyph glyph-name="uni0442" unicode="&#x442;" horiz-adv-x="788" 
d="M172 922h727l-25 -144h-286l-137 -778h-154l137 778h-287z" />
    <glyph glyph-name="uni0443" unicode="&#x443;" horiz-adv-x="921" 
d="M170 922h164l151 -707l402 707h172l-592 -1026q-72 -125 -138 -179q-67 -53 -147 -55q-14 0 -28 2t-27 6q-14 4 -29 8l23 121h24q57 0 94 29q36 29 66 82l64 110z" />
    <glyph glyph-name="uni0444" unicode="&#x444;" horiz-adv-x="1443" 
d="M770 690q-18 31 -45 53q-23 20 -58.5 38t-82.5 18q-49 0 -99.5 -24.5t-91.5 -77t-66.5 -134.5t-25.5 -194q0 -125 56.5 -185.5t146.5 -60.5q39 0 71.5 11t57.5 28q29 16 51 39zM745 -328h-153l65 375q-25 -16 -53 -29q-25 -10 -58.5 -19t-70.5 -9q-70 0 -129 27.5
t-103 77.5t-68.5 122t-24.5 160q0 133 38.5 236.5t101 174t140.5 107.5t158 37q47 0 86 -12.5t67 -28.5q33 -18 58 -41l78 440h153l-74 -416q25 16 54 29q25 10 57.5 19.5t71.5 9.5q70 0 129 -27.5t103 -78t68.5 -122t24.5 -159.5q0 -133 -39 -236.5t-101 -174.5
t-140 -107.5t-158 -36.5q-47 0 -86 12t-68 29q-33 18 -57 41zM844 231q18 -33 45 -55q23 -20 58.5 -36.5t82.5 -16.5q49 0 99.5 24.5t91.5 76.5t66.5 133t25.5 196q0 125 -56.5 185.5t-146.5 60.5q-41 0 -72.5 -12.5t-56.5 -26.5q-29 -18 -51 -39z" />
    <glyph glyph-name="uni0445" unicode="&#x445;" horiz-adv-x="839" 
d="M596 471l244 -471h-168l-183 358l-309 -358h-180l412 471l-230 451h166l166 -338l285 338h182z" />
    <glyph glyph-name="uni0446" unicode="&#x446;" horiz-adv-x="1054" 
d="M1038 143l-63 -368h-144l39 225h-737l162 922h154l-138 -779h451l137 779h154l-138 -779h123z" />
    <glyph glyph-name="uni0447" unicode="&#x447;" horiz-adv-x="983" 
d="M1012 922l-162 -922h-154l58 326q-27 -12 -60 -21q-29 -8 -68.5 -13t-88.5 -5q-147 0 -231.5 76.5t-84.5 209.5q0 37 6 78l47 271h154l-49 -283q-16 -92 36 -152.5t163 -60.5q41 0 76.5 8t64.5 19q33 10 61 26l78 443h154z" />
    <glyph glyph-name="uni0448" unicode="&#x448;" horiz-adv-x="1402" 
d="M1432 922l-162 -922h-1137l162 922h154l-138 -779h338l137 779h154l-137 -779h338l137 779h154z" />
    <glyph glyph-name="uni0449" unicode="&#x449;" horiz-adv-x="1433" 
d="M1210 -225l39 225h-1116l162 922h154l-138 -779h338l137 779h154l-137 -779h338l137 779h154l-138 -779h123l-63 -368h-144z" />
    <glyph glyph-name="uni044A" unicode="&#x44a;" horiz-adv-x="972" 
d="M162 922h379l-58 -328h228q63 0 112 -21.5t83 -57.5t52.5 -84t18.5 -103q0 -72 -25.5 -132.5t-69.5 -103.5t-105.5 -67.5t-133.5 -24.5h-418l137 788h-223zM649 143q33 0 63.5 11.5t55.5 33t39 52t14 67.5q0 53 -38 98.5t-97 45.5h-227l-56 -308h246z" />
    <glyph glyph-name="uni044B" unicode="&#x44b;" horiz-adv-x="1239" 
d="M598 594q63 0 112.5 -21.5t83 -57.5t52 -84t18.5 -103q0 -72 -25.5 -132.5t-69.5 -103.5t-105.5 -67.5t-133.5 -24.5h-397l162 922h154l-58 -328h207zM537 143q33 0 63.5 11.5t55 33t39 52t14.5 67.5q0 53 -38 98.5t-98 45.5h-206l-56 -308h226zM1268 922l-162 -922h-154
l162 922h154z" />
    <glyph glyph-name="uni044C" unicode="&#x44c;" horiz-adv-x="880" 
d="M618 594q63 0 112.5 -21.5t83.5 -57.5t52.5 -84t18.5 -103q0 -72 -25.5 -132.5t-70 -103.5t-105.5 -67.5t-133 -24.5h-418l162 922h154l-58 -328h227zM557 143q33 0 63.5 11.5t55 33t39 52t14.5 67.5q0 53 -38 98.5t-97 45.5h-227l-56 -308h246z" />
    <glyph glyph-name="uni044D" unicode="&#x44d;" horiz-adv-x="972" 
d="M494 522h340q0 51 -15.5 99.5t-46.5 85t-76 59t-104 22.5q-92 0 -157.5 -49t-100.5 -125h-158q25 61 62.5 117.5t90 102t120 72t151.5 26.5q80 0 150.5 -30t122 -84t81 -130t29.5 -166q0 -119 -41 -217t-107.5 -167.5t-151.5 -108.5t-173 -39q-160 0 -254 90t-117 227
h154q16 -72 76.5 -123t152.5 -51q45 0 91 17.5t85 50t69 81t46 107.5h-344z" />
    <glyph glyph-name="uni044E" unicode="&#x44e;" horiz-adv-x="1341" 
d="M295 922h154l-70 -400h174q18 82 59 156t99.5 130t131 90t154.5 34q76 0 141.5 -31t115 -84t78 -129t28.5 -164q0 -119 -41 -217t-107.5 -168.5t-149.5 -109.5t-165 -39q-76 0 -140.5 29.5t-113.5 82t-77.5 126t-33.5 161.5h-176l-69 -389h-154zM989 788
q-49 0 -102 -26.5t-97.5 -75.5t-73 -118.5t-28.5 -153.5q0 -63 18.5 -114.5t49 -88.5t69.5 -57.5t80 -20.5q49 0 102.5 27.5t97.5 77t72.5 119t28.5 153.5q0 63 -18.5 114.5t-49 88.5t-69.5 56t-80 19z" />
    <glyph glyph-name="uni044F" unicode="&#x44f;" horiz-adv-x="942" 
d="M508 328l-262 -328h-185l289 356q-41 18 -71 52q-27 29 -48.5 71.5t-21.5 108.5q0 74 25.5 135t69.5 105t105.5 69t135.5 25h426l-162 -922h-154l58 328h-205zM541 778q-37 0 -69 -13t-55.5 -35.5t-37.5 -51.5t-14 -62q0 -53 37.5 -99t99.5 -46h237l54 307h-252z" />
    <glyph glyph-name="uni0451" unicode="&#x451;" horiz-adv-x="972" 
d="M512 1096q-39 0 -62 23q-24 24 -24 61q0 41 30 69q30 29 70 29q39 0 63 -24t23 -60q0 -41 -29 -70q-30 -28 -71 -28zM817 1096q-39 0 -62 23q-24 24 -24 61q0 41 30 69q30 29 70 29q39 0 63 -24t24 -60q0 -41 -30 -70q-30 -28 -71 -28zM944 246q-63 -113 -171 -185
t-238 -71q-84 0 -155 30q-71 31 -123 85t-82 129t-30 165q0 119 41 216t108 168t150 110q84 39 172 39q94 0 167 -34t122 -89t74 -126t25 -144q0 -72 -16 -111q-15 -39 -13 -39h-674q2 -47 20 -93q17 -46 47 -82t73 -58q44 -23 104 -23q39 0 73 12q35 12 65 30q30 17 50 37
q20 19 31 34h180zM618 788q-47 0 -93 -20t-86 -55t-71 -84q-32 -49 -51 -107h531q2 61 -15 111q-17 49 -51 84q-33 35 -75 53q-44 18 -89 18z" />
    <glyph glyph-name="uni0452" unicode="&#x452;" 
d="M686 840q72 0 132.5 -24.5t104.5 -73t68.5 -116t24.5 -153.5q0 -143 -39 -250.5t-102.5 -180.5t-144.5 -108.5t-165 -35.5h-41l27 143h18q47 0 98.5 24.5t94.5 76t70.5 127t27.5 180.5q0 121 -60.5 186t-150.5 61q-98 0 -170.5 -63.5t-91.5 -171.5l-80 -461h-153l172 993
h-152l23 133h153l29 164h153l-28 -164h256l-23 -133h-256l-43 -256q29 29 66 51q33 18 78 35t104 17z" />
    <glyph glyph-name="uni0453" unicode="&#x453;" horiz-adv-x="747" 
d="M721 1311h153l-217 -246h-102zM864 778h-440l-137 -778h-154l162 922h594z" />
    <glyph glyph-name="uni0454" unicode="&#x454;" horiz-adv-x="952" 
d="M842 614q-10 29 -28.5 60t-46.5 56.5t-65.5 41.5t-85.5 16q-47 0 -94 -18t-89 -53t-73.5 -84t-48.5 -111h344l-24 -133h-332q8 -117 77.5 -186.5t166.5 -69.5q86 0 156.5 52.5t107.5 121.5h158q-23 -55 -62 -112.5t-93 -102.5t-124 -73.5t-156 -28.5q-84 0 -153.5 30.5
t-121.5 86t-81 130t-29 162.5q0 119 41 216.5t108.5 168t154 109.5t176.5 39q78 0 142 -25.5t112.5 -68.5t80 -100.5t44.5 -123.5h-162z" />
    <glyph glyph-name="uni0455" unicode="&#x455;" horiz-adv-x="808" 
d="M791 293q0 -66 -25 -121t-68 -96t-103 -64t-132 -22q-78 0 -138 23q-60 24 -102 64q-41 40 -62 91q-22 51 -22 108h152q0 -66 47 -104q47 -39 133 -39q74 0 120 41t46 98q0 41 -31 66t-77 43t-99 35q-53 16 -99 43t-77 68q-31 42 -31 110q0 57 24 112q24 54 65 94
q42 40 102 64q59 25 131 25q74 0 131 -23t95 -60q38 -38 57 -88t20 -106h-156q0 55 -37 95q-37 39 -118 38q-72 0 -115 -40q-43 -41 -43 -91q0 -41 31 -65q31 -25 75 -43q45 -18 100 -35q54 -16 99 -43t76 -69q31 -41 31 -109z" />
    <glyph glyph-name="uni0456" unicode="&#x456;" horiz-adv-x="419" 
d="M287 0h-154l162 922h154zM410 1085q-41 0 -66 27t-25 64q0 45 30 74q30 30 73 30q41 0 65 -27q25 -27 25 -63q0 -45 -30 -75q-29 -30 -72 -30z" />
    <glyph glyph-name="uni0457" unicode="&#x457;" horiz-adv-x="440" 
d="M240 1096q-39 0 -63 23q-24 24 -23 61q0 41 29 69q30 29 71 29q39 0 62 -24q24 -24 24 -60q0 -41 -30 -70q-29 -28 -70 -28zM545 1096q-39 0 -63 23q-24 24 -23 61q0 41 29 69q30 29 71 29q39 0 63 -24t23 -60q0 -41 -30 -70q-29 -28 -70 -28zM287 0h-154l162 922h154z
" />
    <glyph glyph-name="uni0458" unicode="&#x458;" horiz-adv-x="419" 
d="M295 922h154l-170 -965q-12 -66 -40 -119t-68 -90t-88 -56t-99 -20q-47 0 -80 15q-16 8 -29 16l23 131q8 -4 18 -6t22 -3q11 -1 27 -1q61 0 106 38q44 38 58 113zM410 1085q-41 0 -66 27t-25 64q0 45 30 74q30 30 73 30q41 0 65 -27q25 -27 25 -63q0 -45 -30 -75
q-29 -30 -72 -30z" />
    <glyph glyph-name="uni0459" unicode="&#x459;" horiz-adv-x="1402" 
d="M1130 594q63 0 112.5 -21.5t83.5 -57.5t52.5 -84t18.5 -103q0 -72 -25.5 -132.5t-70 -103.5t-105.5 -67.5t-133 -24.5h-408l138 788h-285l-127 -491q-39 -160 -120 -233.5t-187 -73.5q-16 0 -32.5 2t-27.5 6q-14 4 -24 8l22 127h43q127 0 168 154l164 635h584l-58 -328
h217zM1069 143q33 0 63.5 11.5t55 33t39 52t14.5 67.5q0 53 -38 98.5t-97 45.5h-217l-55 -308h235z" />
    <glyph glyph-name="uni045A" unicode="&#x45a;" horiz-adv-x="1474" 
d="M1192 594q63 0 112.5 -21.5t83 -57.5t52 -84t18.5 -103q0 -72 -25.5 -132.5t-69.5 -103.5t-105.5 -67.5t-133.5 -24.5h-407l78 451h-428l-80 -451h-154l162 922h154l-56 -328h428l58 328h153l-57 -328h217zM1130 143q33 0 64 11.5t55.5 33t39 52t14.5 67.5q0 53 -38 98.5
t-98 45.5h-217l-55 -308h235z" />
    <glyph glyph-name="uni045B" unicode="&#x45b;" horiz-adv-x="1054" 
d="M197 1126h153l29 164h153l-28 -164h256l-23 -133h-256l-43 -256q29 29 66 51q33 18 78 35t104 17q90 0 151.5 -32t100.5 -83t55.5 -113.5t16.5 -124.5q0 -43 -6 -79l-72 -408h-154l74 422q10 57 -2 107.5t-40 87t-70 58t-91 21.5q-98 0 -170.5 -63.5t-91.5 -171.5
l-80 -461h-153l172 993h-152z" />
    <glyph glyph-name="uni045C" unicode="&#x45c;" horiz-adv-x="839" 
d="M754 1311h153l-217 -246h-102zM287 0h-154l162 922h154zM856 0h-180l-305 481l426 441h178l-428 -435z" />
    <glyph glyph-name="uni045E" unicode="&#x45e;" horiz-adv-x="921" 
d="M170 922h164l151 -707l402 707h172l-592 -1026q-72 -125 -138 -179q-67 -53 -147 -55q-14 0 -28 2t-27 6q-14 4 -29 8l23 121h24q57 0 94 29q36 29 66 82l64 110zM627 1065q-53 0 -97 19q-43 19 -71 51q-29 31 -45 71q-16 41 -19 84h117q0 -59 34 -91t87 -32q49 0 87 36
t54 87h123q-33 -92 -103 -158q-71 -67 -167 -67z" />
    <glyph glyph-name="uni045F" unicode="&#x45f;" horiz-adv-x="1024" 
d="M133 0l162 922h154l-138 -779h451l137 779h154l-162 -922h-307l-39 -225h-144l39 225h-307z" />
    <glyph glyph-name="uni0490" unicode="&#x490;" horiz-adv-x="921" 
d="M530 1147l-202 -1147h-164l227 1290h594l45 256h144l-70 -399h-574z" />
    <glyph glyph-name="uni0491" unicode="&#x491;" horiz-adv-x="747" 
d="M928 1137l-64 -359h-440l-137 -778h-154l162 922h450l39 215h144z" />
    <glyph glyph-name="uni1E9E" unicode="&#x1e9e;" horiz-adv-x="1208" 
d="M932 750q74 -20 133 -62q51 -35 93 -97t42 -161q0 -90 -33 -168t-88 -136t-130 -92t-158 -34h-156l24 143h138q47 0 90 20q43 19 76 56t52 88t19 113q0 39 -13 75t-36 62q-23 27 -55 42q-33 15 -72 15h-115l25 144l309 389h-354q-88 0 -151 -58q-62 -58 -83 -169
l-161 -920h-164l164 934q12 76 48 141q36 66 89 113t122 75t148 27h547l-20 -125z" />
    <glyph glyph-name="endash" unicode="&#x2013;" horiz-adv-x="952" 
d="M961 451h-809l24 143h809z" />
    <glyph glyph-name="emdash" unicode="&#x2014;" horiz-adv-x="1454" 
d="M1462 451h-1310l24 143h1311z" />
    <glyph glyph-name="quoteleft" unicode="&#x2018;" horiz-adv-x="348" 
d="M385 1122q41 -4 63.5 -27.5t22.5 -62.5q0 -53 -31.5 -83.5t-77.5 -30.5q-47 0 -72.5 24.5t-25.5 65.5q0 43 17.5 86t47 83t68.5 71.5t80 51.5l17 -32q-23 -16 -45 -39q-18 -18 -36 -45t-28 -62z" />
    <glyph glyph-name="quoteright" unicode="&#x2019;" horiz-adv-x="348" 
d="M342 1106q-41 4 -63.5 27.5t-22.5 62.5q0 53 31.5 84t77.5 31q47 0 72.5 -24.5t25.5 -65.5q0 -43 -17.5 -86t-47 -83t-68.5 -72t-80 -52l-17 33q23 16 46 38q18 18 35.5 45t27.5 62z" />
    <glyph glyph-name="quotesinglbase" unicode="&#x201a;" horiz-adv-x="348" 
d="M166 -10q-41 4 -63.5 27.5t-22.5 62.5q0 53 31.5 84t76.5 31q47 0 73 -25t26 -66q0 -43 -17.5 -86t-47 -82.5t-68.5 -71.5t-80 -52l-17 32q23 16 45 39q18 18 36 45t28 62z" />
    <glyph glyph-name="quotedblleft" unicode="&#x201c;" horiz-adv-x="624" 
d="M670 1122q41 -4 63.5 -27.5t22.5 -62.5q0 -53 -32 -83.5t-77 -30.5q-47 0 -72.5 24.5t-25.5 65.5q0 43 17.5 86t47 83t68.5 71.5t80 51.5l16 -32q-23 -16 -45 -39q-18 -18 -35.5 -45t-27.5 -62zM385 1122q41 -4 63.5 -27.5t22.5 -62.5q0 -53 -31.5 -83.5t-77.5 -30.5
q-47 0 -72.5 24.5t-25.5 65.5q0 43 17.5 86t47 83t68.5 71.5t80 51.5l17 -32q-23 -16 -45 -39q-18 -18 -36 -45t-28 -62z" />
    <glyph glyph-name="quotedblright" unicode="&#x201d;" horiz-adv-x="624" 
d="M352 1106q-41 4 -63.5 27.5t-22.5 62.5q0 53 32 84t77 31q47 0 72.5 -24.5t25.5 -65.5q0 -43 -17.5 -86t-47 -83t-68.5 -72t-80 -52l-16 33q23 16 45 38q18 18 35.5 45t27.5 62zM637 1106q-41 4 -63.5 27.5t-22.5 62.5q0 53 31.5 84t76.5 31q47 0 73 -24.5t26 -65.5
q0 -43 -17.5 -86t-47 -83t-68.5 -72t-80 -52l-17 33q23 16 45 38q18 18 36 45t28 62z" />
    <glyph glyph-name="quotedblbase" unicode="&#x201e;" horiz-adv-x="634" 
d="M166 -10q-41 4 -63.5 27.5t-22.5 62.5q0 53 31.5 84t76.5 31q47 0 73 -25t26 -66q0 -43 -17.5 -86t-47 -82.5t-68.5 -71.5t-80 -52l-17 32q23 16 45 39q18 18 36 45t28 62zM451 -10q-41 4 -63.5 27.5t-22.5 62.5q0 53 31.5 84t76.5 31q47 0 72.5 -25t25.5 -66
q0 -43 -17 -86t-47 -82.5t-69 -71.5t-80 -52l-16 32q23 16 45 39q18 18 36 45t28 62z" />
    <glyph glyph-name="dagger" unicode="&#x2020;" horiz-adv-x="696" 
d="M784 911h-215l-96 -542h-123l96 542h-215l23 123h215l45 256h123l-45 -256h215z" />
    <glyph glyph-name="daggerdbl" unicode="&#x2021;" horiz-adv-x="696" 
d="M733 614h-215l-43 -245h-123l43 245h-215l23 123h215l31 185h-216l23 122h215l43 246h123l-43 -246h215l-23 -122h-215l-30 -185h215z" />
    <glyph glyph-name="bullet" unicode="&#x2022;" horiz-adv-x="778" 
d="M461 369q-76 0 -123 49t-47 119q0 43 16.5 78.5t45 63.5t64.5 43t77 15q76 0 123 -49t47 -119q0 -43 -16.5 -78.5t-45.5 -63.5t-65.5 -43t-75.5 -15z" />
    <glyph glyph-name="ellipsis" unicode="&#x2026;" horiz-adv-x="1126" 
d="M178 -10q-47 0 -72.5 24.5t-25.5 65.5q0 51 30.5 83t77.5 32t73 -25t26 -66q0 -51 -31 -82.5t-78 -31.5zM567 -10q-47 0 -72.5 24.5t-25.5 65.5q0 51 30.5 83t78.5 32q47 0 72.5 -25t25.5 -66q0 -51 -31 -82.5t-78 -31.5zM956 -10q-47 0 -72.5 24.5t-25.5 65.5
q0 51 31 83t78 32t72.5 -25t25.5 -66q0 -51 -31 -82.5t-78 -31.5z" />
    <glyph glyph-name="perthousand" unicode="&#x2030;" horiz-adv-x="1820" 
d="M162 0l1016 1290h116l-1015 -1290h-117zM508 1198q-33 0 -64.5 -14.5t-56.5 -39t-40 -57t-15 -69.5q0 -59 39 -104.5t98 -45.5q33 0 64.5 14.5t56 39t40 57.5t15.5 70q0 59 -39 104t-98 45zM508 1290q104 0 169.5 -66.5t65.5 -164.5q0 -59 -22.5 -110.5t-60 -90.5
t-88 -60.5t-103.5 -21.5q-104 0 -170 66.5t-66 165.5q0 59 23 110t60.5 90t88 60.5t103.5 21.5zM948 92q33 0 64.5 14.5t56.5 39t40 57.5t15 69q0 59 -38.5 104.5t-98.5 45.5q-33 0 -64.5 -14.5t-56 -39t-40 -57t-15.5 -69.5q0 -59 39 -104.5t98 -45.5zM948 0
q-104 0 -169.5 66.5t-65.5 164.5q0 59 22.5 110.5t60.5 90.5t88 60.5t103 21.5q104 0 170 -66.5t66 -164.5q0 -59 -22.5 -110.5t-60.5 -90.5t-88.5 -60.5t-103.5 -21.5zM1546 92q33 0 64.5 14.5t56.5 39t40 57.5t15 69q0 59 -38.5 104.5t-98.5 45.5q-33 0 -64.5 -14.5
t-56 -39t-40 -57t-15.5 -69.5q0 -59 39 -104.5t98 -45.5zM1546 0q-104 0 -169.5 66.5t-65.5 164.5q0 59 22.5 110.5t60.5 90.5t88 60.5t103 21.5q104 0 170 -66.5t66 -164.5q0 -59 -22.5 -110.5t-60.5 -90.5t-88.5 -60.5t-103.5 -21.5z" />
    <glyph glyph-name="guilsinglleft" unicode="&#x2039;" horiz-adv-x="522" 
d="M322 133l-168 328l282 327h164l-293 -339l162 -316h-147z" />
    <glyph glyph-name="guilsinglright" unicode="&#x203a;" horiz-adv-x="522" 
d="M377 788l168 -327l-283 -328h-164l293 340l-162 315h148z" />
    <glyph glyph-name="fraction" unicode="&#x2044;" horiz-adv-x="225" 
d="M-346 0l1016 1290h116l-1015 -1290h-117z" />
    <glyph glyph-name="uni2070" unicode="&#x2070;" horiz-adv-x="614" 
d="M530 1384q-27 0 -55.5 -15t-53 -47t-39.5 -81t-15 -119q0 -76 32.5 -111.5t79.5 -35.5q27 0 55.5 15.5t53 47t40 80.5t15.5 119q0 76 -33 111.5t-80 35.5zM541 1485q92 0 154.5 -65.5t62.5 -180.5q0 -88 -25.5 -156.5t-66.5 -114.5t-92.5 -70t-102.5 -24q-92 0 -154.5 66
t-62.5 180q0 88 25.5 157t66.5 115t92.5 69.5t102.5 23.5z" />
    <glyph glyph-name="uni2074" unicode="&#x2074;" horiz-adv-x="512" 
d="M594 1096h72l-19 -103h-72l-20 -112h-113l21 112h-256l14 82l316 400h122zM481 1096l37 215l-170 -215h133z" />
    <glyph glyph-name="uni2075" unicode="&#x2075;" horiz-adv-x="552" 
d="M496 1280q45 0 78.5 -17.5t54 -44t31 -58.5t10.5 -60q0 -47 -17.5 -89t-48.5 -73t-73 -49.5t-89 -18.5q-98 0 -145 53.5t-55 120.5h110q4 -20 15 -36q10 -14 28.5 -24.5t48.5 -10.5q49 0 81 32.5t32 90.5q0 45 -26.5 68.5t-73.5 23.5q-39 0 -64.5 -20.5t-36.5 -41.5h-92
l103 349h327l-18 -103h-234l-30 -112q10 4 24 10q10 4 27 7t33 3z" />
    <glyph glyph-name="uni2076" unicode="&#x2076;" horiz-adv-x="532" 
d="M479 1280q78 -8 126 -57t48 -121q0 -51 -17.5 -94t-47 -74t-70.5 -47.5t-86 -16.5q-86 0 -141 52.5t-55 132.5q0 39 13 73.5t33.5 64.5t43 54.5t39.5 42.5l157 185h125zM459 1178q-37 0 -72 -31t-35 -84q0 -39 22.5 -64.5t55.5 -25.5q37 0 72 30.5t35 83.5q0 39 -22.5 65
t-55.5 26z" />
    <glyph glyph-name="uni2077" unicode="&#x2077;" horiz-adv-x="471" 
d="M342 1475h389l-12 -72l-338 -522h-119l322 491h-260z" />
    <glyph glyph-name="uni2078" unicode="&#x2078;" horiz-adv-x="532" 
d="M422 870q-98 0 -148.5 52.5t-50.5 117.5q0 49 17.5 81t38 51.5t37.5 27.5l16 8q-14 8 -23 23q-8 12 -14 29.5t-6 42.5q0 35 16.5 67.5t43 58t62 41t74.5 15.5q76 0 124 -47t48 -113q0 -39 -13 -65.5t-28.5 -42t-27.5 -22.5l-13 -7q16 -12 29 -29q10 -14 19.5 -36.5
t9.5 -51.5q0 -41 -16.5 -77t-45 -63.5t-66.5 -44t-83 -16.5zM471 1239q37 0 61.5 22.5t24.5 57.5q0 29 -21.5 46t-58.5 17t-61.5 -22.5t-24.5 -56.5q0 -29 21.5 -46.5t58.5 -17.5zM422 973q41 0 71.5 27.5t30.5 66.5q0 31 -23.5 55.5t-62.5 24.5q-41 0 -71.5 -27.5
t-30.5 -66.5q0 -31 23.5 -55.5t62.5 -24.5z" />
    <glyph glyph-name="uni2079" unicode="&#x2079;" horiz-adv-x="532" 
d="M451 1075q-78 8 -126.5 57.5t-48.5 120.5q0 51 17.5 94.5t47.5 74t70 47t87 16.5q86 0 141 -52.5t55 -132.5q0 -41 -14 -74.5t-33.5 -63t-42 -54.5t-39.5 -43l-157 -184h-125zM471 1178q37 0 72 30.5t35 83.5q0 39 -23 64.5t-55 25.5q-37 0 -72 -30.5t-35 -83.5
q0 -39 22.5 -64.5t55.5 -25.5z" />
    <glyph glyph-name="uni2080" unicode="&#x2080;" horiz-adv-x="614" 
d="M348 305q-27 0 -55 -15q-29 -15 -53 -47q-25 -32 -40 -81t-16 -119q0 -76 33 -112t80 -35q27 0 55 15q29 15 54 47t39 81q15 49 16 119q0 76 -33 111q-33 36 -80 36zM358 406q92 0 155 -66q62 -66 62 -180q0 -88 -25 -157q-26 -69 -67 -115t-92 -69q-51 -24 -102 -24
q-92 0 -155 66q-62 66 -62 180q0 88 25 157q26 69 67 114q41 46 92 70t102 24z" />
    <glyph glyph-name="uni2081" unicode="&#x2081;" horiz-adv-x="419" 
d="M301 410h82l-104 -594h-113l78 450l-88 -41l-37 82z" />
    <glyph glyph-name="uni2082" unicode="&#x2082;" horiz-adv-x="522" 
d="M209 -82h242l-19 -102h-399l14 82l268 233q31 27 56 51q25 25 24 64q0 29 -21 50q-22 22 -69 21q-37 0 -64 -25q-28 -26 -34 -67h-109q6 43 26 78q19 35 49 62t66 41t74 14q92 0 143 -50q50 -50 50 -120q0 -31 -12 -57q-12 -27 -27 -47q-14 -19 -29 -31q-14 -12 -16 -15z
" />
    <glyph glyph-name="uni2083" unicode="&#x2083;" horiz-adv-x="542" 
d="M432 123q16 -10 29 -27q10 -14 20 -36t11 -52q0 -86 -61 -144q-60 -58 -155 -59q-92 0 -149 52q-57 51 -61 143h110q0 -35 24 -63q24 -29 70 -29q49 0 78 26q29 27 29 62t-22 58q-22 24 -62 24h-55l16 92h63q39 0 62 24t22 56q0 29 -19 48t-60 19t-67 -24
q-26 -25 -36 -57h-106q8 39 27 72q19 34 49 59t66 39t75 14q86 0 135 -48t49 -114q0 -39 -12 -64q-12 -26 -29 -42q-18 -19 -41 -29z" />
    <glyph glyph-name="uni2084" unicode="&#x2084;" horiz-adv-x="512" 
d="M416 31h71l-18 -103h-72l-20 -112h-113l21 112h-256l14 82l315 400h123zM303 31l37 215l-170 -215h133z" />
    <glyph glyph-name="uni2085" unicode="&#x2085;" horiz-adv-x="552" 
d="M328 215q45 0 79 -17t54 -44t31 -59q10 -32 10 -60q0 -47 -18 -89q-17 -42 -48 -73t-72 -49q-42 -18 -90 -19q-98 0 -145 54q-47 53 -55 121h110q4 -20 15 -37q10 -14 28 -25q18 -10 49 -10q49 0 81 33t32 90q0 45 -27 68q-27 24 -73 24q-39 0 -65 -21q-26 -20 -36 -41
h-92l103 349h327l-18 -103h-234l-30 -112q10 4 24 10q10 4 27 7t33 3z" />
    <glyph glyph-name="uni2086" unicode="&#x2086;" horiz-adv-x="532" 
d="M319 215q78 -8 126 -57t49 -121q0 -51 -18 -94q-17 -43 -47 -74t-71 -47t-86 -17q-86 0 -141 53q-55 52 -55 132q0 39 13 73q13 35 34 65q20 30 43 54q23 25 39 43l157 185h125zM299 113q-37 0 -72 -31t-34 -84q0 -39 22 -65q23 -26 55 -25q37 0 72 31t35 84q0 39 -23 64
q-22 26 -55 26z" />
    <glyph glyph-name="uni2087" unicode="&#x2087;" horiz-adv-x="471" 
d="M123 410h389l-12 -72l-338 -522h-119l322 491h-261z" />
    <glyph glyph-name="uni2088" unicode="&#x2088;" horiz-adv-x="532" 
d="M281 -195q-98 0 -149 53q-50 52 -50 117q0 49 17 81t38 52q20 19 37 27l16 8q-14 8 -22 23q-8 12 -14 30q-6 17 -7 42q0 35 17 67q16 33 43 59t62 40q36 15 75 16q76 0 124 -47t48 -113q0 -39 -13 -65q-13 -27 -29 -42q-15 -15 -28 -23l-12 -7q16 -12 29 -29
q10 -14 19 -37t10 -51q0 -41 -17 -77q-16 -36 -45 -63q-29 -28 -66 -44q-38 -17 -83 -17zM330 174q37 0 61 23q25 23 25 57q0 29 -22 46t-58 17q-37 0 -62 -22q-25 -23 -24 -57q0 -29 21 -47q22 -17 59 -17zM281 -92q41 0 71 27q31 28 31 67q0 31 -24 55q-24 25 -62 25
q-41 0 -72 -28t-30 -66q0 -31 23 -56q24 -24 63 -24z" />
    <glyph glyph-name="uni2089" unicode="&#x2089;" horiz-adv-x="532" 
d="M274 10q-78 8 -126 58q-48 49 -48 120q0 51 18 95q17 43 47 73q30 31 69 47q40 16 88 17q86 0 141 -52t55 -132q0 -41 -14 -75t-34 -64q-19 -30 -42 -54q-23 -25 -39 -43l-158 -184h-125zM295 113q37 0 72 30q35 31 34 84q0 39 -22 65q-23 26 -55 25q-37 0 -72 -30
q-35 -31 -35 -84q0 -39 23 -65q22 -25 55 -25z" />
    <glyph glyph-name="Euro" unicode="&#x20ac;" horiz-adv-x="1425" 
d="M479 420q20 -66 57 -119t86.5 -90t106.5 -57.5t121 -20.5q61 0 123.5 22.5t118 60.5t99.5 86t71 97h174q-45 -90 -110.5 -165.5t-144.5 -130t-166 -84t-177 -29.5q-96 0 -181.5 31.5t-155 88t-119.5 135.5t-73 175h-198l22 133h158l12 154h-141l22 133h156
q41 102 107.5 187t150.5 145.5t178 94t191 33.5q100 0 185 -33.5t151.5 -91t113.5 -134t70 -160.5h-170q-29 76 -78 137q-23 27 -50.5 51.5t-62 44t-77.5 31.5t-95 12q-63 0 -127.5 -22.5t-124 -64.5t-109.5 -100.5t-83 -129.5h401l-22 -133h-426l-12 -154h409l-22 -133
h-359z" />
    <glyph glyph-name="uni20B4" unicode="&#x20b4;" horiz-adv-x="1116" 
d="M1167 850l-22 -133h-932l23 133h552q39 12 70 35q27 18 49.5 47t22.5 69q0 57 -52.5 106.5t-140.5 49.5q-39 0 -73.5 -13.5t-62.5 -36t-47 -50t-28 -53.5h-176q12 53 46 106t84 95t117 68.5t146 26.5q82 0 146.5 -22.5t109.5 -61t70 -89t25 -105.5q0 -49 -16.5 -82
t-35.5 -53q-23 -23 -51 -37h176zM164 440l22 133h932l-22 -133h-553q-41 -12 -72 -34q-27 -18 -48.5 -47t-21.5 -70q0 -57 52.5 -106.5t140.5 -49.5q39 0 73.5 13.5t62.5 36t47.5 49t27.5 55.5h176q-12 -53 -46 -106.5t-84 -95.5t-116.5 -68.5t-146.5 -26.5
q-82 0 -146.5 22.5t-109.5 61.5t-69.5 89t-24.5 105q0 49 15 82t36 53q23 23 51 37h-176z" />
    <glyph glyph-name="uni20BD" unicode="&#x20bd;" horiz-adv-x="1126" 
d="M168 655h154l110 635h430q78 0 141.5 -29.5t108.5 -78.5t69.5 -113.5t24.5 -134.5q0 -88 -34.5 -165t-94 -134t-139.5 -90t-170 -33h-309l-29 -164h389l-24 -143h-389l-37 -205h-164l37 205h-154l25 143h153l29 164h-154zM776 655q55 0 103.5 20.5t84 57.5t56 87
t20.5 110q0 92 -54 154.5t-148 62.5h-267l-86 -492h291z" />
    <glyph glyph-name="uni2116" unicode="&#x2116;" horiz-adv-x="1925" 
d="M1333 133h512l-22 -133h-512zM1681 748q-29 0 -55.5 -12.5t-49 -34t-35.5 -53.5t-13 -68q0 -61 33.5 -100.5t85.5 -39.5q27 0 55.5 12.5t50 34t35.5 53t14 68.5q0 61 -35 100.5t-86 39.5zM1694 881q51 0 97 -21.5t80 -58.5t53.5 -86t19.5 -103q0 -61 -28 -117.5
t-72 -97.5t-98 -65.5t-110 -24.5q-51 0 -97 21.5t-80 58.5t-53.5 86t-19.5 102q0 61 28 118t72 97.5t98.5 65.5t109.5 25zM1343 1290l-227 -1290h-143l-473 973l-172 -973h-164l227 1290h144l473 -973l172 973h163z" />
    <glyph glyph-name="trademark" unicode="&#x2122;" horiz-adv-x="1064" 
d="M621 1198h-154l-76 -430h-102l76 430h-154l16 92h410zM870 932l-84 164l-57 -328h-102l92 522h74l122 -235l205 235h90l-92 -522h-102l57 328l-141 -164h-62z" />
    <glyph glyph-name="arrowleft" unicode="&#x2190;" horiz-adv-x="2048" 
d="M881 1198v-194l-297 -297h1310v-144h-1310l297 -297v-194l-564 563z" />
    <glyph glyph-name="arrowup" unicode="&#x2191;" horiz-adv-x="2048" 
d="M1694 881h-195l-297 297v-1311h-143v1311l-297 -297h-195l563 563z" />
    <glyph glyph-name="arrowright" unicode="&#x2192;" horiz-adv-x="2048" 
d="M1935 635l-563 -563v194l297 297h-1311v144h1311l-297 297v194z" />
    <glyph glyph-name="arrowdown" unicode="&#x2193;" horiz-adv-x="2048" 
d="M1106 -133l-563 563h194l297 -297v1311h144v-1311l297 297h194z" />
    <glyph glyph-name="arrowboth" unicode="&#x2194;" horiz-adv-x="2048" 
d="M1905 635l-564 -563v194l297 297h-1044l297 -297v-194l-563 563l563 563v-194l-297 -297h1044l-297 297v194z" />
    <glyph glyph-name="arrowupdn" unicode="&#x2195;" horiz-adv-x="2048" 
d="M1124 -133l-563 563h195l297 -297v1045l-297 -297h-195l563 563l564 -563h-195l-297 297v-1045l297 297h195z" />
    <glyph glyph-name="uni2196" unicode="&#x2196;" horiz-adv-x="2048" 
d="M1745 154l-103 -103l-921 922v-410l-143 -143v799h798l-143 -144h-410z" />
    <glyph glyph-name="uni2197" unicode="&#x2197;" horiz-adv-x="2048" 
d="M1423 1075h-409l-144 144h799v-799l-143 143v410l-922 -922l-102 103z" />
    <glyph glyph-name="uni2198" unicode="&#x2198;" horiz-adv-x="2048" 
d="M522 1116l103 103l921 -922v410l144 143v-799h-799l143 144h410z" />
    <glyph glyph-name="uni2199" unicode="&#x2199;" horiz-adv-x="2048" 
d="M850 195h410l143 -144h-799v799l144 -143v-410l921 922l103 -103z" />
    <glyph glyph-name="minus" unicode="&#x2212;" horiz-adv-x="880" 
d="M909 461h-757l22 133h758z" />
    <glyph glyph-name="approxequal" unicode="&#x2248;" horiz-adv-x="901" 
d="M786 737q53 0 94.5 36t51.5 97h123q-23 -131 -99.5 -198.5t-193.5 -67.5q-47 0 -100.5 22.5t-104.5 49t-98 49.5t-82 23q-53 0 -94 -36t-52 -98h-122q23 131 99.5 199t192.5 68q49 0 101.5 -22.5t103.5 -49.5t97 -49.5t83 -22.5zM717 338q53 0 94 36t51 97h123
q-23 -131 -99.5 -198.5t-193.5 -67.5q-47 0 -100 22.5t-104.5 49t-98.5 49t-82 22.5q-53 0 -94 -36t-51 -97h-123q23 131 99.5 198.5t193.5 67.5q49 0 101 -22.5t103.5 -49t97.5 -49t83 -22.5z" />
    <glyph glyph-name="notequal" unicode="&#x2260;" horiz-adv-x="901" 
d="M621 788l145 246h154l-146 -246h215l-24 -143h-277l-135 -235h369l-25 -144h-430l-148 -256h-153l147 256h-215l25 144h276l136 235h-369l24 143h431z" />
    <glyph glyph-name="lessequal" unicode="&#x2264;" horiz-adv-x="890" 
d="M98 143h727l-24 -143h-727zM874 416l-26 -150l-658 338l19 103l776 337l-27 -157l-544 -236z" />
    <glyph glyph-name="greaterequal" unicode="&#x2265;" horiz-adv-x="890" 
d="M819 0h-727l25 143h727zM709 659l-459 236l26 149l658 -337l-19 -103l-776 -338l27 158z" />
    <glyph glyph-name="uni2460" unicode="&#x2460;" horiz-adv-x="2048" 
d="M289 655q0 176 66.5 331t181 270.5t270.5 182t332 66.5t330.5 -66.5t270 -182t182.5 -270.5t67 -331t-67 -331.5t-182.5 -270t-270 -181.5t-330.5 -67t-332 67t-270.5 181.5t-181 270t-66.5 331.5zM432 655q0 -145 55.5 -274t151.5 -225.5t225 -151.5t275 -55
q145 0 274 55t225.5 151.5t151.5 225.5t55 274t-55 274.5t-151.5 225.5t-225.5 151.5t-274 55.5t-274.5 -55.5t-225.5 -151.5t-151.5 -225.5t-55.5 -274.5zM1251 1065v-819h-143v655l-123 -82l-72 92l215 154h123z" />
    <glyph glyph-name="uni2461" unicode="&#x2461;" horiz-adv-x="2048" 
d="M1405 379v-133h-533v92l308 328q37 39 59.5 74.5t22.5 88.5q0 47 -35 80t-88 33t-89 -35t-44 -88h-144q4 53 25.5 100.5t58.5 82t86 54t107 19.5q57 0 106 -19.5t84 -53t55.5 -78.5t20.5 -95q0 -92 -33 -144t-69 -91l-205 -215h307zM432 655q0 -145 55.5 -274
t151.5 -225.5t225 -151.5t275 -55q145 0 274 55t225.5 151.5t151.5 225.5t55 274t-55 274.5t-151.5 225.5t-225.5 151.5t-274 55.5t-274.5 -55.5t-225.5 -151.5t-151.5 -225.5t-55.5 -274.5zM289 655q0 176 66.5 331t181 270.5t270.5 182t332 66.5t330.5 -66.5t270 -182
t182.5 -270.5t67 -331t-67 -331.5t-182.5 -270t-270 -181.5t-330.5 -67t-332 67t-270.5 181.5t-181 270t-66.5 331.5z" />
    <glyph glyph-name="uni2462" unicode="&#x2462;" horiz-adv-x="2048" 
d="M1292 676q39 -12 72 -35q27 -20 49.5 -56t22.5 -93q0 -109 -79 -182.5t-218 -73.5q-131 0 -206 68.5t-91 176.5h143q8 -39 50 -75.5t104 -36.5q78 0 115.5 34.5t37.5 88.5q0 49 -37.5 80.5t-115.5 31.5h-78v123h78q61 0 97 34t36 79q0 39 -36 70.5t-97 31.5t-94 -27.5
t-50 -74.5h-133q4 45 25.5 88t58.5 75.5t86 52t107 19.5q131 0 203.5 -66.5t72.5 -158.5q0 -53 -19.5 -88t-41.5 -53q-27 -23 -62 -33zM432 655q0 -145 55.5 -274t151.5 -225.5t225 -151.5t275 -55q145 0 274 55t225.5 151.5t151.5 225.5t55 274t-55 274.5t-151.5 225.5
t-225.5 151.5t-274 55.5t-274.5 -55.5t-225.5 -151.5t-151.5 -225.5t-55.5 -274.5zM289 655q0 176 66.5 331t181 270.5t270.5 182t332 66.5t330.5 -66.5t270 -182t182.5 -270.5t67 -331t-67 -331.5t-182.5 -270t-270 -181.5t-330.5 -67t-332 67t-270.5 181.5t-181 270
t-66.5 331.5z" />
    <glyph glyph-name="uni2463" unicode="&#x2463;" horiz-adv-x="2048" 
d="M1384 420h-92v-174h-143v174h-369v112l359 533h153v-512h92v-133zM1149 553v307l-215 -307h215zM432 655q0 -145 55.5 -274t151.5 -225.5t225 -151.5t275 -55q145 0 274 55t225.5 151.5t151.5 225.5t55 274t-55 274.5t-151.5 225.5t-225.5 151.5t-274 55.5t-274.5 -55.5
t-225.5 -151.5t-151.5 -225.5t-55.5 -274.5zM289 655q0 176 66.5 331t181 270.5t270.5 182t332 66.5t330.5 -66.5t270 -182t182.5 -270.5t67 -331t-67 -331.5t-182.5 -270t-270 -181.5t-330.5 -67t-332 67t-270.5 181.5t-181 270t-66.5 331.5z" />
    <glyph glyph-name="uni2464" unicode="&#x2464;" horiz-adv-x="2048" 
d="M1159 788q61 0 112.5 -23.5t87.5 -61t56.5 -88t20.5 -103.5q0 -57 -21.5 -107.5t-61.5 -88t-94.5 -59t-119.5 -21.5q-61 0 -112.5 19t-90.5 53t-62.5 79t-31.5 94h143q16 -47 54 -79.5t100 -32.5q61 0 107 41t46 102t-46 102t-107 41q-37 0 -61.5 -10t-41.5 -20
q-18 -14 -30 -31h-134l62 471h440v-133h-327l-21 -174q14 6 35 14q16 6 41.5 11t56.5 5zM432 655q0 -145 55.5 -274t151.5 -225.5t225 -151.5t275 -55q145 0 274 55t225.5 151.5t151.5 225.5t55 274t-55 274.5t-151.5 225.5t-225.5 151.5t-274 55.5t-274.5 -55.5
t-225.5 -151.5t-151.5 -225.5t-55.5 -274.5zM289 655q0 176 66.5 331t181 270.5t270.5 182t332 66.5t330.5 -66.5t270 -182t182.5 -270.5t67 -331t-67 -331.5t-182.5 -270t-270 -181.5t-330.5 -67t-332 67t-270.5 181.5t-181 270t-66.5 331.5z" />
    <glyph glyph-name="uni2465" unicode="&#x2465;" horiz-adv-x="2048" 
d="M1139 236q-61 0 -115.5 23.5t-94.5 62t-63.5 91t-23.5 109.5q0 41 9 77t21 63q12 31 31 55l236 348h153l-174 -256h21q61 0 115.5 -23.5t94.5 -62.5t63.5 -91t23.5 -110q0 -57 -23.5 -109.5t-63.5 -91t-94.5 -62t-115.5 -23.5zM985 522q0 -61 42 -107t112 -46t111.5 46
t41.5 107t-42 107.5t-111 46.5q-70 0 -112 -46.5t-42 -107.5zM432 655q0 -145 55.5 -274t151.5 -225.5t225 -151.5t275 -55q145 0 274 55t225.5 151.5t151.5 225.5t55 274t-55 274.5t-151.5 225.5t-225.5 151.5t-274 55.5t-274.5 -55.5t-225.5 -151.5t-151.5 -225.5
t-55.5 -274.5zM289 655q0 176 66.5 331t181 270.5t270.5 182t332 66.5t330.5 -66.5t270 -182t182.5 -270.5t67 -331t-67 -331.5t-182.5 -270t-270 -181.5t-330.5 -67t-332 67t-270.5 181.5t-181 270t-66.5 331.5z" />
    <glyph glyph-name="uni2466" unicode="&#x2466;" horiz-adv-x="2048" 
d="M1415 1065v-109l-338 -710h-143l328 686h-369v133h522zM432 655q0 -145 55.5 -274t151.5 -225.5t225 -151.5t275 -55q145 0 274 55t225.5 151.5t151.5 225.5t55 274t-55 274.5t-151.5 225.5t-225.5 151.5t-274 55.5t-274.5 -55.5t-225.5 -151.5t-151.5 -225.5
t-55.5 -274.5zM289 655q0 176 66.5 331t181 270.5t270.5 182t332 66.5t330.5 -66.5t270 -182t182.5 -270.5t67 -331t-67 -331.5t-182.5 -270t-270 -181.5t-330.5 -67t-332 67t-270.5 181.5t-181 270t-66.5 331.5z" />
    <glyph glyph-name="uni2467" unicode="&#x2467;" horiz-adv-x="2048" 
d="M1139 358q70 0 111.5 39t41.5 88q0 51 -42 90t-111 39q-70 0 -112 -38.5t-42 -90.5q0 -49 42 -88t112 -39zM1139 737q53 0 88 33t35 74q0 43 -35 75.5t-88 32.5t-88 -32.5t-35 -75.5q0 -41 35 -74t88 -33zM432 655q0 -145 55.5 -274t151.5 -225.5t225 -151.5t275 -55
q145 0 274 55t225.5 151.5t151.5 225.5t55 274t-55 274.5t-151.5 225.5t-225.5 151.5t-274 55.5t-274.5 -55.5t-225.5 -151.5t-151.5 -225.5t-55.5 -274.5zM1139 236q-70 0 -125.5 19t-93 53t-58 79t-20.5 94q0 55 21.5 92t49.5 60q31 27 72 43q-33 14 -57 37
q-23 20 -39.5 53t-16.5 84q0 92 72 158.5t195 66.5t194.5 -66.5t71.5 -158.5q0 -51 -17.5 -84t-39.5 -53q-25 -23 -56 -37q39 -16 72 -43q27 -23 49.5 -59.5t22.5 -92.5q0 -49 -20.5 -94t-59.5 -79t-93 -53t-124 -19zM289 655q0 176 66.5 331t181 270.5t270.5 182t332 66.5
t330.5 -66.5t270 -182t182.5 -270.5t67 -331t-67 -331.5t-182.5 -270t-270 -181.5t-330.5 -67t-332 67t-270.5 181.5t-181 270t-66.5 331.5z" />
    <glyph glyph-name="uni2468" unicode="&#x2468;" horiz-adv-x="2048" 
d="M1139 1075q61 0 115.5 -23.5t94.5 -62.5t63.5 -91t23.5 -110q0 -43 -10.5 -77.5t-20.5 -61.5q-14 -31 -31 -55l-235 -348h-154l174 256h-20q-61 0 -115.5 23.5t-94.5 62.5t-63.5 91t-23.5 109t23.5 109.5t63.5 91.5t94.5 62.5t115.5 23.5zM1845 655q0 145 -55 274.5
t-151.5 225.5t-225.5 151.5t-274 55.5t-274.5 -55.5t-225.5 -151.5t-151.5 -225t-55.5 -275q0 -145 55.5 -274t151.5 -225.5t225 -151.5t275 -55q145 0 274 55t225.5 151.5t151.5 225.5t55 274zM1989 655q0 -176 -67 -331.5t-182.5 -270t-270 -181.5t-330.5 -67t-332 67
t-270.5 181.5t-181 270t-66.5 331.5t66.5 331t181 270.5t270.5 182t332 66.5t330.5 -66.5t270 -182t182.5 -270.5t67 -331zM985 788q0 -61 42 -107t112 -46t111.5 46t41.5 107t-42 107.5t-111 46.5q-70 0 -112 -46.5t-42 -107.5z" />
    <glyph glyph-name="uni24EA" unicode="&#x24ea;" horiz-adv-x="2048" 
d="M944 655q0 -145 58.5 -215.5t136.5 -70.5q39 0 73.5 17t61 53t43 89.5t16.5 126.5q0 74 -16.5 127.5t-43 89t-61 53t-73.5 17.5q-78 0 -136.5 -71t-58.5 -216zM1477 655q0 -100 -27 -178t-73 -132t-107.5 -81.5t-130.5 -27.5q-70 0 -131.5 27.5t-107.5 81.5t-72.5 132
t-26.5 178t26.5 178t72.5 131.5t107.5 82t131.5 28.5t131 -28.5t107 -82t73 -131.5t27 -178zM432 655q0 -145 55.5 -274t151.5 -225.5t225 -151.5t275 -55q145 0 274 55t225.5 151.5t151.5 225.5t55 274t-55 274.5t-151.5 225.5t-225.5 151.5t-274 55.5t-274.5 -55.5
t-225.5 -151.5t-151.5 -225.5t-55.5 -274.5zM289 655q0 176 66.5 331t181 270.5t270.5 182t332 66.5t330.5 -66.5t270 -182t182.5 -270.5t67 -331t-67 -331.5t-182.5 -270t-270 -181.5t-330.5 -67t-332 67t-270.5 181.5t-181 270t-66.5 331.5z" />
    <glyph glyph-name="uni24FF" unicode="&#x24ff;" horiz-adv-x="2048" 
d="M944 655q0 145 58.5 216t136.5 71q39 0 73.5 -17.5t61 -53t43 -89t16.5 -127.5t-16.5 -127t-43 -89t-61 -53t-73.5 -17q-78 0 -136.5 70.5t-58.5 215.5zM1477 655q0 100 -27 178t-73 131.5t-107.5 82t-130.5 28.5q-70 0 -131.5 -28.5t-107.5 -82t-72.5 -131t-26.5 -178.5
q0 -100 26.5 -178t72.5 -132t107.5 -81.5t131.5 -27.5t131 27.5t107 81.5t73 132t27 178zM289 655q0 176 66.5 331t181 270.5t270.5 182t332 66.5t330.5 -66.5t270 -182t182.5 -270.5t67 -331t-67 -331.5t-182.5 -270t-270 -181.5t-330.5 -67t-332 67t-270.5 181.5t-181 270
t-66.5 331.5z" />
    <glyph glyph-name="uni2776" unicode="&#x2776;" horiz-adv-x="2048" 
d="M289 655q0 176 66.5 331t181 270.5t270.5 182t332 66.5t330.5 -66.5t270 -182t182.5 -270.5t67 -331t-67 -331.5t-182.5 -270t-270 -181.5t-330.5 -67t-332 67t-270.5 181.5t-181 270t-66.5 331.5zM1128 1065l-215 -154l72 -92l123 82v-655h143v819h-123z" />
    <glyph glyph-name="uni2777" unicode="&#x2777;" horiz-adv-x="2048" 
d="M1098 379l205 215q37 39 69.5 91t32.5 144q0 49 -20.5 94.5t-55.5 79t-84 53t-106 19.5t-106.5 -19.5t-86.5 -54t-58.5 -82t-25.5 -100.5h144q8 53 43.5 88t89.5 35q53 0 88 -32.5t35 -80.5q0 -53 -22.5 -88.5t-59.5 -74.5l-308 -328v-92h533v133h-307zM289 655
q0 176 66.5 331t181 270.5t270.5 182t332 66.5t330.5 -66.5t270 -182t182.5 -270.5t67 -331t-67 -331.5t-182.5 -270t-270 -181.5t-330.5 -67t-332 67t-270.5 181.5t-181 270t-66.5 331.5z" />
    <glyph glyph-name="uni2778" unicode="&#x2778;" horiz-adv-x="2048" 
d="M1292 676q35 10 62 33q23 18 42 53t19 88q0 92 -72.5 158.5t-203.5 66.5q-57 0 -106.5 -19.5t-86.5 -52t-58.5 -75.5t-25.5 -88h133q16 47 49 74.5t95 27.5q61 0 97 -31.5t36 -70.5q0 -45 -36 -79t-97 -34h-78v-123h78q78 0 115.5 -31.5t37.5 -80.5q0 -53 -37.5 -88
t-115.5 -35q-61 0 -103.5 36.5t-50.5 75.5h-143q16 -109 91 -177t206 -68q139 0 218 73.5t79 182.5q0 57 -22.5 93t-49.5 56q-33 23 -72 35zM289 655q0 176 66.5 331t181 270.5t270.5 182t332 66.5t330.5 -66.5t270 -182t182.5 -270.5t67 -331t-67 -331.5t-182.5 -270
t-270 -181.5t-330.5 -67t-332 67t-270.5 181.5t-181 270t-66.5 331.5z" />
    <glyph glyph-name="uni2779" unicode="&#x2779;" horiz-adv-x="2048" 
d="M1384 553h-92v512h-153l-359 -533v-112h369v-174h143v174h92v133zM934 553l215 307v-307h-215zM289 655q0 176 66.5 331t181 270.5t270.5 182t332 66.5t330.5 -66.5t270 -182t182.5 -270.5t67 -331t-67 -331.5t-182.5 -270t-270 -181.5t-330.5 -67t-332 67t-270.5 181.5
t-181 270t-66.5 331.5z" />
    <glyph glyph-name="uni277A" unicode="&#x277a;" horiz-adv-x="2048" 
d="M1159 788q-31 0 -56.5 -5t-41.5 -11l-35 -14l21 174h327v133h-440l-62 -471h134q12 16 30 31q16 10 41 20t62 10q61 0 107 -41t46 -102t-46 -102t-107 -41t-99.5 32.5t-54.5 79.5h-143q8 -49 31.5 -94t62.5 -79t90 -53t113 -19q66 0 120 21.5t94 59t61.5 88t21.5 107.5
q0 53 -20.5 103.5t-56.5 88t-87.5 61t-112.5 23.5zM289 655q0 176 66.5 331t181 270.5t270.5 182t332 66.5t330.5 -66.5t270 -182t182.5 -270.5t67 -331t-67 -331.5t-182.5 -270t-270 -181.5t-330.5 -67t-332 67t-270.5 181.5t-181 270t-66.5 331.5z" />
    <glyph glyph-name="uni277B" unicode="&#x277b;" horiz-adv-x="2048" 
d="M1139 236q61 0 115.5 23.5t94.5 62t63.5 91t23.5 109.5t-23.5 109.5t-63.5 91.5t-94.5 62.5t-115.5 23.5h-21l174 256h-153l-236 -348q-18 -25 -31 -55q-12 -27 -21 -63t-9 -77q0 -57 23.5 -109.5t63.5 -91t94.5 -62t115.5 -23.5zM985 522q0 61 42 107.5t112 46.5
t111.5 -46t41.5 -108q0 -61 -42 -107t-111 -46q-70 0 -112 46t-42 107zM289 655q0 176 66.5 331t181 270.5t270.5 182t332 66.5t330.5 -66.5t270 -182t182.5 -270.5t67 -331t-67 -331.5t-182.5 -270t-270 -181.5t-330.5 -67t-332 67t-270.5 181.5t-181 270t-66.5 331.5z" />
    <glyph glyph-name="uni277C" unicode="&#x277c;" horiz-adv-x="2048" 
d="M893 1065v-133h369l-328 -686h143l338 710v109h-522zM289 655q0 176 66.5 331t181 270.5t270.5 182t332 66.5t330.5 -66.5t270 -182t182.5 -270.5t67 -331t-67 -331.5t-182.5 -270t-270 -181.5t-330.5 -67t-332 67t-270.5 181.5t-181 270t-66.5 331.5z" />
    <glyph glyph-name="uni277D" unicode="&#x277d;" horiz-adv-x="2048" 
d="M1139 358q-70 0 -112 39t-42 88q0 51 42 90t112 39t111.5 -38.5t41.5 -90.5q0 -49 -41.5 -88t-111.5 -39zM1139 737q-53 0 -88 33t-35 74q0 43 34.5 75.5t88.5 32.5q53 0 88 -32.5t35 -75.5q0 -41 -35 -74t-88 -33zM1139 236q70 0 124 19t93 53t59.5 79t20.5 94
q0 55 -22.5 92t-49.5 60q-33 27 -72 43q31 14 56 37q23 20 40 53t17 84q0 92 -71.5 158.5t-194.5 66.5t-195 -66.5t-72 -158.5q0 -51 16.5 -84t39.5 -53q25 -23 57 -37q-41 -16 -72 -43q-29 -23 -50 -59.5t-21 -92.5q0 -49 20.5 -94t58 -79t93 -53t125.5 -19zM289 655
q0 176 66.5 331t181 270.5t270.5 182t332 66.5t330.5 -66.5t270 -182t182.5 -270.5t67 -331t-67 -331.5t-182.5 -270t-270 -181.5t-330.5 -67t-332 67t-270.5 181.5t-181 270t-66.5 331.5z" />
    <glyph glyph-name="uni277E" unicode="&#x277e;" horiz-adv-x="2048" 
d="M1139 1075q-61 0 -115.5 -23.5t-94.5 -62.5t-63.5 -91t-23.5 -110q0 -57 23.5 -109t63.5 -91t94 -62.5t116 -23.5h20l-174 -256h154l235 348q16 25 31 55q10 27 20.5 61.5t10.5 77.5q0 57 -23.5 109.5t-63.5 91.5t-94.5 62.5t-115.5 23.5zM1989 655q0 -176 -67 -331.5
t-182.5 -270t-270 -181.5t-330.5 -67t-332 67t-270.5 181.5t-181 270t-66.5 331.5t66.5 331t181 270.5t270.5 182t332 66.5t330.5 -66.5t270 -182t182.5 -270.5t67 -331zM985 788q0 61 42 107.5t112 46.5t111.5 -46t41.5 -108q0 -61 -42 -107t-111 -46q-70 0 -112 46
t-42 107z" />
    <glyph glyph-name="uniF6C3" unicode="&#xf6c3;" horiz-adv-x="327" 
d="M49 -238q0 43 30 74t73 31q47 0 75.5 -32t28.5 -73q0 -39 -15.5 -78.5t-43 -76.5t-64.5 -69t-78 -54l-22 43q23 14 43 37q16 18 33.5 42.5t27.5 55.5q-39 4 -63.5 33.5t-24.5 66.5z" />
    <glyph glyph-name="uniF6D1" unicode="&#xf6d1;" horiz-adv-x="634" 
d="M602 1423q-53 0 -96 19.5t-71.5 50.5t-45 72t-18.5 84h116q0 -59 34 -91t87 -32q49 0 87 35.5t55 87.5h122q-33 -92 -103.5 -159t-166.5 -67z" />
    <glyph glyph-name="uniF6D4" unicode="&#xf6d4;" horiz-adv-x="614" 
d="M512 1065q-39 0 -79 14.5t-72.5 42t-55 69.5t-24.5 99h120q0 -49 31 -86t84 -37q49 0 88 31t53 92h119q-25 -96 -92.5 -160.5t-171.5 -64.5z" />
    <glyph glyph-name="uniFB06" unicode="&#xfb06;" horiz-adv-x="1490" 
d="M791 293q0 -66 -25 -121t-68 -96t-103 -63.5t-132 -22.5q-78 0 -138.5 23.5t-101.5 63.5t-62.5 91t-21.5 108h152q0 -66 47 -104.5t133 -38.5q74 0 120 41t46 98q0 41 -31 65.5t-77 43t-99 35t-99 43t-77 68.5t-31 110q0 57 23.5 111.5t65.5 94.5t101.5 64.5t131.5 24.5
q43 0 88 -10v30q0 92 34.5 171t94 136.5t140.5 90t171 32.5q55 0 109.5 -17t96.5 -53t68.5 -89.5t26.5 -124.5q0 -31 -6 -64l-18 -112h204l-24 -144h-207l-80 -471q-12 -72 20.5 -124t114.5 -52q20 0 29 2l12 4l-24 -133q-8 -4 -17 -8q-18 -6 -51 -6q-111 0 -176.5 74.5
t-65.5 189.5q0 33 7 68l79 456h-163l24 144h72q53 0 94 33.5t41 111.5q0 86 -55.5 134t-124.5 48q-55 0 -105.5 -20.5t-87.5 -57t-58.5 -90t-21.5 -118.5q-2 -53 7.5 -88t20.5 -67t21.5 -66.5t12.5 -86.5h-156q0 55 -37 94t-118 39q-72 0 -115 -40.5t-43 -90.5
q0 -41 30.5 -65.5t75.5 -43t99.5 -34.5t99.5 -43t76 -68.5t31 -109.5z" />
    <glyph glyph-name="lslash.salt" horiz-adv-x="555" 
d="M434 776l182 94l-26 -151l-182 -94l-58 -322q-12 -72 22 -123t115 -51q23 0 31 2t12 4l-24 -131q-8 -4 -19 -8q-18 -6 -51 -6q-55 0 -99 20.5t-77 56t-50 84t-17 103.5q0 31 6 61l39 222l-166 -84l26 153l166 84l107 600h153z" />
    <glyph glyph-name="glyph474" horiz-adv-x="1208" 
d="M932 750q74 -20 133 -62q51 -35 93 -97.5t42 -160.5q0 -90 -32.5 -168t-88 -136t-130.5 -92t-158 -34h-156l24 143h138q47 0 90 19.5t75.5 56.5t52 88t19.5 113q0 39 -13 74.5t-35.5 62.5t-55.5 42t-72 15h-115l25 144l309 389h-354q-88 0 -150.5 -58.5t-83.5 -168.5
l-161 -920h-164l164 934q12 76 48 141.5t89 112.5t121.5 74.5t148.5 27.5h547l-20 -125z" />
    <glyph glyph-name="a.salt" horiz-adv-x="1064" 
d="M797 102q-29 -33 -68 -57q-35 -23 -83 -39t-107 -16q-84 0 -155 30.5t-123 85t-81.5 130t-29.5 165.5q0 119 40.5 216.5t108.5 167t154 108.5t176 39q74 0 126 -20.5t85.5 -45t49.5 -44.5l17 -19l72 119h115l-160 -922h-113zM551 133q57 0 113.5 27.5t102.5 77t74.5 119
t28.5 153.5q0 61 -19.5 112.5t-53 88.5t-78.5 57t-94 20q-57 0 -113.5 -27.5t-103 -76.5t-75 -117.5t-28.5 -152.5q0 -61 19.5 -113.5t53.5 -89.5t79 -57.5t94 -20.5z" />
    <glyph glyph-name="uni0443.salt" horiz-adv-x="921" 
d="M178 922h164l152 -707l401 707h164l-723 -1250h-164l205 348z" />
    <glyph glyph-name="l.salt" horiz-adv-x="522" 
d="M350 303q-12 -72 22 -123t115 -51q23 0 31 2t12 4l-24 -131q-8 -4 -19 -8q-18 -6 -51 -6q-55 0 -99 20.5t-77 56t-50 84t-17 103.5q0 31 6 61l172 975h153z" />
    <glyph glyph-name="y.salt" horiz-adv-x="1024" 
d="M514 31q-90 0 -151.5 31.5t-100.5 83t-55.5 114t-16.5 123.5q0 43 7 80l79 459h154l-82 -473q-12 -57 -1 -107.5t40 -87.5t72 -58.5t92 -21.5q98 0 171 63.5t91 172.5l86 512h154l-160 -926q-12 -76 -50 -138.5t-93.5 -108.5t-127 -71.5t-153.5 -25.5q-76 0 -141.5 20.5
t-115.5 56t-83 87t-41 112.5h162q20 -61 74.5 -97t148.5 -36q104 0 177 59.5t89 153.5l23 127q-29 -31 -66 -53q-33 -20 -79 -35.5t-103 -15.5z" />
    <glyph glyph-name="I.salt" horiz-adv-x="716" 
d="M301 143l178 1004h-205l25 143h573l-24 -143h-205l-178 -1004h205l-25 -143h-573l24 143h205z" />
    <glyph glyph-name="c_t.dlig" horiz-adv-x="1613" 
d="M848 594q-6 27 -23.5 61.5t-46 63.5t-68.5 49t-94 20q-55 0 -112.5 -26.5t-102.5 -75.5t-73.5 -118.5t-28.5 -153.5q0 -61 19.5 -113.5t52 -89.5t78 -57.5t94.5 -20.5q86 0 160.5 55.5t113.5 139.5h156q-23 -63 -63 -124t-96 -109t-127 -76.5t-157 -28.5
q-84 0 -153.5 30.5t-121.5 86t-81 130t-29 162.5q0 119 41 216.5t108.5 168t154 109.5t176.5 39q35 0 67.5 -5t63.5 -16v41q0 92 34.5 171t94 136.5t140.5 90t171 32.5q55 0 109.5 -17t96.5 -53t68.5 -89.5t26.5 -124.5q0 -31 -6 -64l-18 -112h204l-24 -144h-207l-80 -471
q-12 -72 20.5 -124t114.5 -52q20 0 29 2l12 4l-24 -133q-8 -4 -17 -8q-18 -6 -51 -6q-111 0 -176.5 74.5t-65.5 189.5q0 33 6 68l80 456h-164l25 144h72q53 0 94 33.5t41 111.5q0 86 -55.5 134t-124.5 48q-55 0 -105.5 -20.5t-87.5 -57t-58.5 -90t-21.5 -118.5
q0 -74 11.5 -117t28 -78t32.5 -73t27 -101h-160z" />
    <glyph glyph-name="r_f.dlig" horiz-adv-x="1075" 
d="M844 1008q10 63 38.5 115.5t68.5 89t89.5 57t98.5 20.5q57 0 82.5 -15t25.5 -13l-20 -134q-10 2 -21 7q-10 4 -21 6t-28 2q-61 0 -105 -39t-57 -111l-12 -71h203l-25 -144h-205l-137 -778h-153l137 778h-133q-109 0 -190 -69.5t-101 -186.5l-92 -522h-154l162 922h113
l24 -103q33 29 74 51q35 18 86 35t113 17h124z" />
    <glyph glyph-name="r_t.dlig" horiz-adv-x="1116" 
d="M874 307q-12 -72 21 -124t115 -52q20 0 28 2l13 4l-25 -133l-16 -8q-18 -6 -52 -6q-111 0 -176 74.5t-65 189.5q0 33 6 68l80 456h-133q-109 0 -190 -69.5t-101 -186.5l-92 -522h-154l162 922h113l24 -103q33 29 74 51q35 18 86 35t113 17h30q53 0 88 29.5t45 82.5
l23 133h135l-45 -245h205l-25 -144h-207z" />
    <glyph glyph-name="uni0430.salt" horiz-adv-x="1054" 
d="M786 102q-29 -33 -67 -57q-35 -23 -83 -39t-108 -16q-84 0 -154 30q-71 31 -123 85t-82 131q-30 76 -30 165q0 119 41 216t109 167t153 109q86 39 176 39q74 0 126 -21q52 -20 86 -45t51 -44l16 -19l72 119h114l-159 -922h-113zM541 133q57 0 113 28t103 77q46 49 74 118
q29 70 29 154q0 61 -19 113q-19 51 -54 88q-34 37 -78 57q-45 20 -95 20q-57 0 -113 -27q-56 -28 -103 -77q-46 -49 -74 -118q-29 -69 -29 -152q0 -61 19 -114q19 -52 54 -89q34 -37 78 -57q46 -21 95 -21z" />
    <glyph glyph-name="uni045E.salt" horiz-adv-x="921" 
d="M178 922h164l152 -707l401 707h164l-723 -1250h-164l205 348zM645 1065q-53 0 -96 19t-72 51q-29 31 -45 71q-16 41 -18 84h116q0 -59 34 -91t87 -32q49 0 87 36t55 87h122q-33 -92 -103 -158q-71 -67 -167 -67z" />
    <glyph glyph-name="agrave.salt" horiz-adv-x="1054" 
d="M786 102q-29 -33 -67 -57q-35 -23 -83 -39t-108 -16q-84 0 -154 30q-71 31 -123 85t-82 131q-30 76 -30 165q0 119 41 216t109 167t153 109q86 39 176 39q74 0 126 -21q52 -20 86 -45t51 -44l16 -19l72 119h114l-159 -922h-113zM541 133q57 0 113 28t103 77q46 49 74 118
q29 70 29 154q0 61 -19 113q-19 51 -54 88q-34 37 -78 57q-45 20 -95 20q-57 0 -113 -27q-56 -28 -103 -77q-46 -49 -74 -118q-29 -69 -29 -152q0 -61 19 -114q19 -52 54 -89q34 -37 78 -57q46 -21 95 -21zM752 1075h-103l-174 246h154z" />
    <glyph glyph-name="aacute.salt" horiz-adv-x="1054" 
d="M786 102q-29 -33 -67 -57q-35 -23 -83 -39t-108 -16q-84 0 -154 30q-71 31 -123 85t-82 131q-30 76 -30 165q0 119 41 216t109 167t153 109q86 39 176 39q74 0 126 -21q52 -20 86 -45t51 -44l16 -19l72 119h114l-159 -922h-113zM541 133q57 0 113 28t103 77q46 49 74 118
q29 70 29 154q0 61 -19 113q-19 51 -54 88q-34 37 -78 57q-45 20 -95 20q-57 0 -113 -27q-56 -28 -103 -77q-46 -49 -74 -118q-29 -69 -29 -152q0 -61 19 -114q19 -52 54 -89q34 -37 78 -57q46 -21 95 -21zM788 1321h154l-217 -246h-102z" />
    <glyph glyph-name="abreve.salt" horiz-adv-x="1054" 
d="M786 102q-29 -33 -67 -57q-35 -23 -83 -39t-108 -16q-84 0 -154 30q-71 31 -123 85t-82 131q-30 76 -30 165q0 119 41 216t109 167t153 109q86 39 176 39q74 0 126 -21q52 -20 86 -45t51 -44l16 -19l72 119h114l-159 -922h-113zM541 133q57 0 113 28t103 77q46 49 74 118
q29 70 29 154q0 61 -19 113q-19 51 -54 88q-34 37 -78 57q-45 20 -95 20q-57 0 -113 -27q-56 -28 -103 -77q-46 -49 -74 -118q-29 -69 -29 -152q0 -61 19 -114q19 -52 54 -89q34 -37 78 -57q46 -21 95 -21zM684 1063q-53 0 -96 19t-72 51q-29 31 -45 71q-16 41 -18 84h116
q0 -59 34 -91t87 -32q49 0 87 36t54 87h123q-33 -92 -103 -159q-71 -66 -167 -66z" />
    <glyph glyph-name="acircumflex.salt" horiz-adv-x="1054" 
d="M786 102q-29 -33 -67 -57q-35 -23 -83 -39t-108 -16q-84 0 -154 30q-71 31 -123 85t-82 131q-30 76 -30 165q0 119 41 216t109 167t153 109q86 39 176 39q74 0 126 -21q52 -20 86 -45t51 -44l16 -19l72 119h114l-159 -922h-113zM541 133q57 0 113 28t103 77q46 49 74 118
q29 70 29 154q0 61 -19 113q-19 51 -54 88q-34 37 -78 57q-45 20 -95 20q-57 0 -113 -27q-56 -28 -103 -77q-46 -49 -74 -118q-29 -69 -29 -152q0 -61 19 -114q19 -52 54 -89q34 -37 78 -57q46 -21 95 -21zM657 1311h144l141 -246h-143l-78 143l-127 -143h-164z" />
    <glyph glyph-name="adieresis.salt" horiz-adv-x="1054" 
d="M786 102q-29 -33 -67 -57q-35 -23 -83 -39t-108 -16q-84 0 -154 30q-71 31 -123 85t-82 131q-30 76 -30 165q0 119 41 216t109 167t153 109q86 39 176 39q74 0 126 -21q52 -20 86 -45t51 -44l16 -19l72 119h114l-159 -922h-113zM541 133q57 0 113 28t103 77q46 49 74 118
q29 70 29 154q0 61 -19 113q-19 51 -54 88q-34 37 -78 57q-45 20 -95 20q-57 0 -113 -27q-56 -28 -103 -77q-46 -49 -74 -118q-29 -69 -29 -152q0 -61 19 -114q19 -52 54 -89q34 -37 78 -57q46 -21 95 -21zM537 1096q-39 0 -63 23q-24 24 -23 61q0 41 29 69q30 29 71 29
q39 0 62 -24q24 -24 24 -60q0 -41 -30 -70q-29 -28 -70 -28zM842 1096q-39 0 -63 23q-24 24 -23 61q0 41 29 69q30 29 71 29q39 0 63 -24t23 -60q0 -41 -30 -70q-29 -28 -70 -28z" />
    <glyph glyph-name="amacron.salt" horiz-adv-x="1054" 
d="M786 102q-29 -33 -67 -57q-35 -23 -83 -39t-108 -16q-84 0 -154 30q-71 31 -123 85t-82 131q-30 76 -30 165q0 119 41 216t109 167t153 109q86 39 176 39q74 0 126 -21q52 -20 86 -45t51 -44l16 -19l72 119h114l-159 -922h-113zM541 133q57 0 113 28t103 77q46 49 74 118
q29 70 29 154q0 61 -19 113q-19 51 -54 88q-34 37 -78 57q-45 20 -95 20q-57 0 -113 -27q-56 -28 -103 -77q-46 -49 -74 -118q-29 -69 -29 -152q0 -61 19 -114q19 -52 54 -89q34 -37 78 -57q46 -21 95 -21zM932 1116h-492l23 123h491z" />
    <glyph glyph-name="aogonek.salt" horiz-adv-x="1054" 
d="M786 102q-29 -33 -67 -57q-35 -23 -83 -39t-108 -16q-84 0 -154.5 30.5t-122.5 85t-82 130t-30 165.5q0 119 41 216.5t108.5 167t153.5 108.5t176 39q74 0 126.5 -20.5t86 -45t49.5 -44.5l17 -19l72 119h114l-159 -922h-15q-33 -27 -55 -57q-20 -27 -36.5 -61t-16.5 -68
q0 -45 30.5 -65.5t77.5 -20.5q27 0 37 2q8 0 15 2l-15 -82q-8 -2 -16 -2q-10 -2 -37 -2q-96 0 -146.5 43t-50.5 112q0 41 17.5 76t40.5 64q25 33 57 59zM541 133q57 0 113.5 27.5t102.5 77t74.5 119t28.5 153.5q0 61 -19.5 112.5t-53 88.5t-78.5 57t-95 20
q-57 0 -113.5 -27.5t-102.5 -76.5t-74.5 -117.5t-28.5 -152.5q0 -61 19.5 -113.5t53 -89.5t79 -57.5t94.5 -20.5z" />
    <glyph glyph-name="aring.salt" horiz-adv-x="1054" 
d="M786 102q-29 -33 -67 -57q-35 -23 -83 -39t-108 -16q-84 0 -154 30q-71 31 -123 85t-82 131q-30 76 -30 165q0 119 41 216t109 167t153 109q86 39 176 39q74 0 126 -21q52 -20 86 -45t51 -44l16 -19l72 119h114l-159 -922h-113zM541 133q57 0 113 28t103 77q46 49 74 118
q29 70 29 154q0 61 -19 113q-19 51 -54 88q-34 37 -78 57q-45 20 -95 20q-57 0 -113 -27q-56 -28 -103 -77q-46 -49 -74 -118q-29 -69 -29 -152q0 -61 19 -114q19 -52 54 -89q34 -37 78 -57q46 -21 95 -21zM709 1276q-29 0 -53 -23t-23 -57q0 -27 19 -45t50 -18q29 0 53 22
q24 23 23 57q0 27 -19 45q-19 19 -50 19zM719 1368q66 0 107 -42q42 -42 42 -105q0 -78 -52 -129t-124 -52q-66 0 -107 42q-42 42 -42 106q0 78 52 129t124 51z" />
    <glyph glyph-name="atilde.salt" horiz-adv-x="1054" 
d="M786 102q-29 -33 -67 -57q-35 -23 -83 -39t-108 -16q-84 0 -154 30q-71 31 -123 85t-82 131q-30 76 -30 165q0 119 41 216t109 167t153 109q86 39 176 39q74 0 126 -21q52 -20 86 -45t51 -44l16 -19l72 119h114l-159 -922h-113zM541 133q57 0 113 28t103 77q46 49 74 118
q29 70 29 154q0 61 -19 113q-19 51 -54 88q-34 37 -78 57q-45 20 -95 20q-57 0 -113 -27q-56 -28 -103 -77q-46 -49 -74 -118q-29 -69 -29 -152q0 -61 19 -114q19 -52 54 -89q34 -37 78 -57q46 -21 95 -21zM825 1169q33 0 63 29t40 88h92q-18 -117 -76 -173
q-57 -56 -125 -56q-47 0 -75 20t-49 45q-22 25 -41 45t-46 21q-33 0 -62 -29q-30 -29 -40 -88h-92q18 117 75 173t125 56q45 0 74 -20t50 -45q22 -25 40 -45q18 -21 47 -21z" />
    <glyph glyph-name="lacute.salt" horiz-adv-x="522" 
d="M350 303q-12 -72 22 -123t115 -51q23 0 31 2t12 4l-24 -131q-8 -4 -19 -8q-18 -6 -51 -6q-55 0 -99 20t-77 57q-33 36 -50 84t-17 103q0 31 6 61l172 975h153zM584 1690h153l-217 -246h-102z" />
    <glyph glyph-name="lcaron.salt" horiz-adv-x="550" 
d="M709 1290h143l-166 -246h-92zM350 303q-12 -72 22 -123t115 -51q23 0 31 2t12 4l-24 -131q-8 -4 -19 -8q-18 -6 -51 -6q-55 0 -99 20.5t-77 56t-50 84t-17 103.5q0 31 6 61l172 975h153z" />
    <glyph glyph-name="uni013C.salt" horiz-adv-x="522" 
d="M350 303q-12 -72 22 -123t115 -51q23 0 31 2t12 4l-24 -131q-8 -4 -19 -8q-18 -6 -51 -6q-55 0 -99 20t-77 57q-33 36 -50 84t-17 103q0 31 6 61l172 975h153zM193 -236q0 43 29 74q30 31 73 31q47 0 76 -32t28 -73q0 -39 -15 -78q-15 -40 -43 -77t-65 -69t-77 -54
l-23 43q23 14 43 37q16 18 34 43q17 25 28 55q-39 4 -64 34q-24 29 -24 66z" />
    <glyph glyph-name="Igrave.salt" horiz-adv-x="716" 
d="M301 143l178 1004h-205l25 143h573l-24 -143h-205l-178 -1004h205l-25 -143h-573l24 143h205zM659 1444h-102l-174 246h154z" />
    <glyph glyph-name="Iacute.salt" horiz-adv-x="716" 
d="M301 143l178 1004h-205l25 143h573l-24 -143h-205l-178 -1004h205l-25 -143h-573l24 143h205zM696 1690h154l-217 -246h-103z" />
    <glyph glyph-name="Icircumflex.salt" horiz-adv-x="716" 
d="M301 143l178 1004h-205l25 143h573l-24 -143h-205l-178 -1004h205l-25 -143h-573l24 143h205zM571 1679h144l141 -245h-143l-78 143l-127 -143h-164z" />
    <glyph glyph-name="Idieresis.salt" horiz-adv-x="716" 
d="M301 143l178 1004h-205l25 143h573l-24 -143h-205l-178 -1004h205l-25 -143h-573l24 143h205zM455 1466q-39 0 -63 24t-23 60q0 41 29 70q30 29 71 29q39 0 62 -24q24 -24 24 -60q0 -41 -30 -70q-29 -29 -70 -29zM760 1466q-39 0 -63 24t-23 60q0 41 29 70q30 29 71 29
q39 0 63 -24t23 -60q0 -41 -30 -70q-29 -29 -70 -29z" />
    <glyph glyph-name="Idotaccent.salt" horiz-adv-x="716" 
d="M301 143l178 1004h-205l25 143h573l-24 -143h-205l-178 -1004h205l-25 -143h-573l24 143h205zM604 1458q-41 0 -65 26q-25 26 -25 60q0 47 31 78t73 31q41 0 66 -26t25 -60q0 -47 -31 -78t-74 -31z" />
    <glyph glyph-name="Imacron.salt" horiz-adv-x="716" 
d="M301 143l178 1004h-205l25 143h573l-24 -143h-205l-178 -1004h205l-25 -143h-573l24 143h205zM848 1475h-492l23 122h491z" />
    <glyph glyph-name="Iogonek.salt" horiz-adv-x="716" 
d="M72 0l24 143h205l178 1004h-205l25 143h573l-24 -143h-205l-178 -1004h205l-25 -143q-33 -27 -55 -57q-20 -27 -36.5 -61t-16.5 -68q0 -45 30.5 -65.5t77.5 -20.5q27 0 37 2q8 0 14 2l-14 -82q-8 -2 -16 -2q-10 -2 -37 -2q-96 0 -146.5 43t-50.5 112q0 41 17.5 76
t39.5 64q25 33 58 59h-475z" />
    <glyph glyph-name="yacute.salt" horiz-adv-x="1044" 
d="M555 31q-90 0 -152 31q-61 32 -100 83t-55 114q-16 62 -17 124q0 43 7 80l79 459h154l-82 -473q-12 -57 -1 -108q11 -50 40 -87t72 -58q43 -22 92 -22q98 0 171 64q73 63 91 172l86 512h154l-160 -926q-12 -76 -50 -138t-93 -109q-55 -46 -127 -72t-154 -25
q-76 0 -141 20q-66 20 -116 57q-50 36 -83 87t-41 112h162q20 -61 75 -97q54 -36 148 -36q104 0 177 60q73 59 89 153l23 127q-29 -31 -66 -53q-33 -20 -79 -36q-46 -15 -103 -15zM819 1321h154l-217 -246h-103z" />
    <glyph glyph-name="ydieresis.salt" horiz-adv-x="1044" 
d="M555 31q-90 0 -152 31q-61 32 -100 83t-55 114q-16 62 -17 124q0 43 7 80l79 459h154l-82 -473q-12 -57 -1 -108q11 -50 40 -87t72 -58q43 -22 92 -22q98 0 171 64q73 63 91 172l86 512h154l-160 -926q-12 -76 -50 -138t-93 -109q-55 -46 -127 -72t-154 -25
q-76 0 -141 20q-66 20 -116 57q-50 36 -83 87t-41 112h162q20 -61 75 -97q54 -36 148 -36q104 0 177 60q73 59 89 153l23 127q-29 -31 -66 -53q-33 -20 -79 -36q-46 -15 -103 -15zM578 1096q-39 0 -63 23q-24 24 -23 61q0 41 29 69q30 29 71 29q39 0 62 -24q24 -24 24 -60
q0 -41 -30 -70q-29 -28 -70 -28zM883 1096q-39 0 -63 23q-24 24 -23 61q0 41 29 69q30 29 71 29q39 0 62 -24q24 -24 24 -60q0 -41 -30 -70q-29 -28 -70 -28z" />
    <glyph glyph-name="zero.tnum" 
d="M678 1157q-66 0 -139 -38q-74 -38 -136 -117q-61 -79 -101 -199q-40 -121 -40 -287q0 -96 23 -168t60 -120q38 -48 89 -71q51 -24 109 -24q66 0 139 38q74 38 135 118t102 200q40 121 39 287q0 96 -22 168q-23 72 -62 119t-89 71q-50 23 -107 23zM684 1300q92 0 172 -34
q80 -35 139 -103t94 -165q34 -97 33 -222q0 -190 -53 -337q-53 -146 -137 -246t-189 -152q-104 -51 -206 -51q-92 0 -172 35t-140 102q-59 68 -93 165t-34 222q0 190 54 337q53 146 137 247q84 100 188 151q105 51 207 51z" />
    <glyph glyph-name="one.tnum" 
d="M848 1290l-203 -1147h266l-24 -143h-697l25 143h266l164 922l-207 -123l-49 123l356 225h103z" />
    <glyph glyph-name="two.tnum" 
d="M915 143l-24 -143h-799l23 123l610 553l28 23q28 24 59 64q32 40 58 91q27 51 27 107q0 82 -58 139t-163 57q-49 0 -94 -19t-81 -54q-36 -34 -62 -78q-26 -45 -33 -95h-164q12 82 53 154t99 124t133 82t155 29q86 0 157 -27q71 -28 119 -74q49 -46 76 -106t27 -128
q0 -78 -37 -148t-82 -124t-82 -86t-39 -34l-489 -430h583z" />
    <glyph glyph-name="three.tnum" 
d="M242 963q20 70 60 131t96 107t125 73t145 26q86 0 156 -26q71 -27 121 -73t77 -106t27 -128q0 -86 -37 -146q-37 -59 -81 -95t-81 -52l-37 -17q49 -27 86 -65q33 -35 59 -87q27 -52 27 -124q0 -78 -34 -149t-93 -124q-59 -54 -141 -86t-180 -32q-94 0 -169 27
q-75 28 -126 75t-79 109q-28 61 -28 127h162q6 -84 72 -140q66 -55 180 -55q59 0 109 20q50 19 87 52t58 77q20 44 20 93q0 41 -15 79t-45 66q-30 29 -72 46t-97 18h-74l25 143h90q53 0 98 17t79 49q34 31 53 73q19 43 20 95q0 82 -59 139q-58 57 -162 57q-47 0 -89 -16
q-41 -16 -74 -43q-34 -27 -58 -62t-33 -73h-168z" />
    <glyph glyph-name="four.tnum" 
d="M983 276h-143l-49 -276h-164l49 276h-574l23 134l698 880h195l-154 -870h144zM700 420l113 635l-502 -635h389z" />
    <glyph glyph-name="five.tnum" 
d="M645 850q84 0 152 -34t115 -87q48 -53 74 -123t26 -139q0 -102 -38 -191q-38 -88 -103 -151t-149 -99q-85 -36 -179 -36q-88 0 -161 27q-73 28 -125 74t-81 108q-29 61 -29 129h162q8 -90 76 -143q68 -52 168 -52q57 0 111 24q53 24 95 66q42 43 66 104q25 60 25 136
q0 113 -68 178q-68 66 -178 66q-59 0 -105 -25t-79 -53q-37 -35 -68 -76h-143l213 737h655l-26 -153h-512l-101 -351q25 16 58 31q29 12 65 23q37 10 84 10z" />
    <glyph glyph-name="six.tnum" 
d="M535 -10q-102 0 -179 37q-76 37 -127 94t-76 128q-26 71 -26 140q0 74 27 141q27 68 58 119q32 51 59 83q28 32 30 34l465 524h188l-379 -424q6 0 15 2q6 0 15 1t20 1q86 0 157 -32q72 -33 122 -87t79 -126t29 -152q0 -102 -40 -190t-106 -154t-151 -102
q-86 -37 -180 -37zM596 717q-57 0 -112 -25q-54 -25 -97 -67q-43 -43 -70 -104q-27 -60 -26 -132q0 -53 18 -100t52 -82t80 -54t102 -20q57 0 111 25t98 67q43 43 69 104q27 60 27 132q0 53 -19 100q-18 47 -52 82t-80 54q-46 20 -101 20z" />
    <glyph glyph-name="seven.tnum" 
d="M1114 1290l-20 -112l-750 -1178h-174l735 1147h-594l25 143h778z" />
    <glyph glyph-name="eight.tnum" 
d="M537 -10q-78 0 -152 22q-74 23 -131 68t-93 111q-36 67 -36 155q0 109 45 180q45 72 98 113q63 49 144 76q-39 20 -68 51q-25 27 -45 69t-20 101q0 70 31 135q32 66 86 117t128 82t158 30q80 0 145 -27q66 -28 113 -73t73 -103t25 -120q0 -90 -36 -147q-36 -56 -76 -91
q-49 -39 -111 -61q49 -27 86 -66q33 -35 60 -88t26 -127q0 -82 -34 -155q-34 -74 -94 -130t-143 -89t-179 -33zM674 1157q-49 0 -91 -17t-73 -47t-48 -68t-18 -81q0 -78 55 -132q54 -54 146 -54q49 0 91 17t73 47t48 68t17 81q0 78 -54 132t-146 54zM547 131q61 0 112 20
q51 19 87 55t57 84q20 48 20 103q0 96 -66 159q-67 62 -190 62q-61 0 -112 -19t-87 -55t-57 -84q-20 -48 -20 -104q0 -96 66 -158q67 -63 190 -63z" />
    <glyph glyph-name="nine.tnum" 
d="M678 1300q100 0 177 -36q77 -37 128 -95q51 -57 77 -128t25 -140q0 -74 -26 -141q-27 -68 -59 -119t-59 -83q-28 -32 -30 -34l-465 -524h-188l379 424q-6 -2 -14 -2q-6 -2 -16 -2h-19q-86 0 -158 33t-122 87t-79 126t-28 151q0 102 39 191q39 88 105 153q67 66 153 103
q86 36 180 36zM616 573q57 0 112 25q54 25 97 68t70 103t27 132q0 53 -19 100q-18 47 -52 82t-80 55q-46 19 -101 19q-57 0 -112 -24q-54 -25 -97 -68t-70 -103t-26 -133q0 -53 18 -100t52 -82t80 -54q46 -20 101 -20z" />
    <glyph glyph-name="at.case" horiz-adv-x="1515" 
d="M1042 379q-25 -33 -61 -57q-31 -23 -76 -39t-102 -17q-59 0 -111 23q-51 23 -88 63q-37 41 -58 98q-22 56 -22 121q0 86 30 159t79 124t111 80t126 29q57 0 99 -17q41 -16 67 -35q31 -23 49 -51l48 92h94l-70 -393q-12 -74 7 -127t85 -53q27 0 60 17t59 58q27 40 45 104
q18 65 19 159q0 88 -39 172t-107 150q-68 67 -160 108t-198 41q-115 0 -225 -49t-195 -134q-86 -85 -138 -199t-53 -245q0 -106 38 -201q38 -94 104 -164q66 -71 156 -113q91 -42 196 -42q53 0 101 10t83 25q41 14 78 35l43 -109q-45 -20 -98 -37q-45 -14 -102 -25
q-56 -11 -117 -12q-135 0 -248 50t-194 137q-81 86 -127 199q-46 114 -46 239q0 156 63 292q62 136 166 237q103 101 238 160q135 58 283 58q137 0 253 -46t201 -125t132 -182t47 -220q0 -115 -29 -201t-77 -143t-108 -87t-122 -30q-53 0 -89 18q-36 17 -59 38
q-23 20 -31 38zM874 840q-45 0 -86 -18q-41 -17 -72 -51q-32 -34 -50 -83t-19 -110q0 -86 51 -138q51 -51 136 -51q45 0 86 18q41 17 72 51q32 34 50 83t19 110q0 86 -51 137q-52 52 -136 52z" />
    <glyph glyph-name="parenleft.case" horiz-adv-x="542" 
d="M764 1403q-113 -131 -199 -289q-37 -68 -72 -145q-36 -78 -64 -165t-45 -182t-17 -194q0 -125 19 -233q19 -109 42 -191q27 -96 61 -176l-112 -61q-43 82 -78 182q-29 86 -52 204q-24 118 -24 261q0 119 20 228q19 110 51 207t72 182t83 157q98 166 227 299z" />
    <glyph glyph-name="parenright.case" horiz-adv-x="542" 
d="M55 -166q111 131 199 289q37 68 73 145q36 78 63 165q28 87 45 181t18 195q0 123 -20 232q-19 110 -42 192q-27 96 -61 176l112 61q41 -82 76 -182q29 -86 53 -205q25 -119 25 -260q0 -119 -19 -228q-19 -110 -53 -207q-33 -97 -72 -183q-40 -86 -83 -156
q-98 -166 -226 -299z" />
    <glyph glyph-name="bracketleft.case" horiz-adv-x="583" 
d="M291 -84h235l-22 -133h-379l293 1659h379l-25 -133h-235z" />
    <glyph glyph-name="bracketright.case" horiz-adv-x="583" 
d="M479 1309h-235l24 133h379l-293 -1659h-379l23 133h235z" />
    <glyph glyph-name="braceleft.case" horiz-adv-x="614" 
d="M209 676q53 0 88 30t45 82l70 400q23 123 101 189q79 67 210 67h102l-24 -133h-107q-51 0 -90 -35t-49 -88l-72 -400q-10 -53 -34 -88q-25 -35 -52 -53q-31 -23 -67 -33q33 -10 55 -32q20 -20 35 -55q14 -34 4 -87l-72 -399q-10 -53 19 -88t80 -35h106l-25 -133h-102
q-113 0 -170 50t-57 142q0 29 6 64l70 399q18 113 -93 113z" />
    <glyph glyph-name="braceright.case" horiz-adv-x="614" 
d="M618 551q-113 0 -131 -113l-71 -399q-23 -123 -102 -190t-210 -66h-102l23 133h106q51 0 91 35t50 88l70 399q10 53 35 87t51 55q31 23 68 32q-33 10 -56 33q-20 18 -33 53t-4 88l72 400q10 53 -18 88q-29 35 -80 35h-107l25 133h102q113 0 170 -50t58 -143q0 -31 -7 -63
l-71 -400q-18 -113 94 -112z" />
    <glyph glyph-name="exclamdown.case" horiz-adv-x="532" 
d="M483 1300q47 0 72 -23.5t25 -64.5q0 -53 -31 -84.5t-78 -31.5t-71.5 23.5t-24.5 64.5q0 53 30.5 84.5t77.5 31.5zM377 983h123l-133 -983h-205z" />
    <glyph glyph-name="questiondown.case" horiz-adv-x="880" 
d="M127 299q0 92 25.5 151.5t65.5 102.5t88 77t93 74.5t82 96t54 141.5l2 10h163l-4 -20q-20 -100 -58 -167t-83 -112t-91 -77.5t-84 -68.5t-62.5 -82t-24.5 -118q0 -76 50 -125t136 -49q98 0 160.5 66.5t87.5 189.5l4 21h162l-6 -35q-33 -180 -141.5 -282.5t-274.5 -102.5
q-76 0 -138.5 23.5t-108.5 64.5t-71.5 97t-25.5 124zM666 1300q47 0 71.5 -23.5t24.5 -64.5q0 -53 -31 -84.5t-78 -31.5t-71.5 23.5t-24.5 64.5q0 53 31 84.5t78 31.5z" />
    <glyph glyph-name="guillemotleft.case" horiz-adv-x="901" 
d="M348 287l-168 327l283 328h164l-293 -340l162 -315h-148zM727 287l-168 327l283 328h164l-293 -340l161 -315h-147z" />
    <glyph glyph-name="guillemotright.case" horiz-adv-x="901" 
d="M784 942l168 -328l-282 -327h-164l293 340l-162 315h147zM406 942l167 -328l-282 -327h-164l293 340l-162 315h148z" />
    <glyph glyph-name="guilsinglleft.case" horiz-adv-x="522" 
d="M348 287l-168 327l283 328h164l-293 -340l162 -315h-148z" />
    <glyph glyph-name="guilsinglright.case" horiz-adv-x="522" 
d="M406 942l167 -328l-282 -327h-164l293 340l-162 315h148z" />
    <glyph glyph-name="hyphen.case" horiz-adv-x="706" 
d="M735 604h-563l23 133h563z" />
    <glyph glyph-name="endash.case" horiz-adv-x="952" 
d="M987 604h-809l25 144h809z" />
    <glyph glyph-name="emdash.case" horiz-adv-x="1454" 
d="M1489 604h-1311l25 144h1310z" />
    <glyph glyph-name="glyph541" horiz-adv-x="3149" 
d="M569 879h-147v-408h-72v408h-145v63h364v-63zM1063 811q66 0 112 -50t46 -122q0 -74 -46.5 -124t-111.5 -50q-59 0 -96 43v-162h-70v459h49l19 -39q16 20 41.5 32.5t56.5 12.5zM1057 528q39 0 67.5 32t28.5 79q0 43 -28.5 74.5t-67.5 31.5q-41 0 -68.5 -31.5t-27.5 -74.5
q0 -47 27.5 -79t68.5 -32zM772 805h76l-158 -389q-33 -70 -100 -70q-14 0 -21 2v58q47 0 64 40l12 33l-129 326h76l90 -238zM1436 811q66 0 110.5 -49t44.5 -121q0 -4 -1 -9t-1 -9v-13h-243q4 -35 29.5 -59.5t60.5 -24.5q25 0 45 8.5t30 26.5h72q-18 -47 -59 -71.5
t-88 -24.5q-66 0 -113 50t-47 124q0 35 12 66.5t33.5 55t51.5 37t63 13.5zM1526 666q-2 35 -30 58.5t-60 23.5q-33 0 -59.5 -21.5t-30.5 -60.5h180zM1923 879h-147v-408h-72v408h-145v63h364v-63zM2417 811q66 0 111.5 -50t45.5 -122q0 -74 -46 -124t-111 -50q-59 0 -97 43
v-162h-69v459h49l18 -39q16 20 42 32.5t57 12.5zM2410 528q39 0 68 32t29 79q0 43 -29 74.5t-68 31.5q-41 0 -68.5 -31.5t-27.5 -74.5q0 -47 27.5 -79t68.5 -32zM2126 805h76l-158 -389q-33 -70 -100 -70q-14 0 -21 2v58q47 0 64 40l12 33l-129 326h76l90 -238zM2789 811
q66 0 111 -49t45 -121q0 -4 -1 -9t-1 -9v-13h-244q4 -35 30 -59.5t60 -24.5q25 0 45.5 8.5t30.5 26.5h72q-18 -47 -59.5 -71.5t-88.5 -24.5q-66 0 -112.5 50t-46.5 124q0 35 12 66.5t33.5 55t51 37t62.5 13.5zM2879 666q-2 35 -29.5 58.5t-60.5 23.5t-59.5 -21.5
t-30.5 -60.5h180z" />
    <glyph glyph-name="bullet.case" horiz-adv-x="778" 
d="M489 502q-76 0 -122 49q-47 49 -48 119q0 43 17 79q16 36 45 63q29 28 64 43q36 15 77 15q76 0 123 -49t47 -119q0 -43 -16 -78q-16 -36 -45 -64t-66 -43t-76 -15z" />
    <glyph glyph-name="periodcentered.case" horiz-adv-x="440" 
d="M326 586q-47 0 -73 24q-26 25 -26 66q0 51 31 83t78 32t73 -25t25 -66q0 -51 -31 -83q-30 -31 -77 -31z" />
    <glyph glyph-name="zero.dnom" horiz-adv-x="614" 
d="M383 500q-27 0 -55 -16q-29 -15 -54 -47t-40 -81t-15 -118q0 -76 33 -112t80 -36q27 0 55 15q29 15 53 48q25 32 40 80q15 49 16 119q0 76 -33 112t-80 36zM393 600q92 0 155 -65q62 -66 62 -181q0 -88 -25 -156q-26 -69 -67 -115t-92 -70t-102 -23q-92 0 -155 65
q-62 66 -63 181q0 88 26 156q26 69 67 115t92 70q51 23 102 23z" />
    <glyph glyph-name="one.dnom" horiz-adv-x="419" 
d="M317 594h82l-104 -594h-113l78 451l-88 -41l-37 82z" />
    <glyph glyph-name="two.dnom" horiz-adv-x="522" 
d="M250 102h242l-19 -102h-399l14 82l268 233q31 27 56 52t24 63q0 29 -21 50q-22 22 -69 22q-37 0 -64 -26q-28 -26 -34 -66h-109q6 43 26 77q19 35 49 62t66 41t74 14q92 0 143 -50q50 -50 50 -120q0 -31 -12 -57q-12 -27 -27 -46q-14 -19 -29 -32q-14 -12 -16 -14z" />
    <glyph glyph-name="three.dnom" horiz-adv-x="542" 
d="M465 307q16 -10 29 -26q10 -14 20 -36t10 -52q0 -86 -60 -145q-60 -58 -155 -58q-92 0 -149 51t-62 143h111q0 -35 23 -63q24 -29 71 -29q49 0 78 27t29 61q0 35 -22 59t-62 23h-56l17 92h63q39 0 62 24t22 56q0 29 -19 48t-61 20q-41 0 -66 -25q-26 -25 -36 -57h-107
q8 39 28 73q19 34 49 58q30 25 66 39t74 14q86 0 136 -48q49 -48 49 -114q0 -39 -12 -64q-12 -26 -29 -42q-18 -19 -41 -29z" />
    <glyph glyph-name="four.dnom" horiz-adv-x="512" 
d="M457 215h71l-18 -102h-72l-20 -113h-113l21 113h-256l14 82l315 399h123zM344 215l37 215l-170 -215h133z" />
    <glyph glyph-name="five.dnom" horiz-adv-x="552" 
d="M356 399q45 0 79 -17t54 -44t31 -58q10 -32 10 -61q0 -47 -17 -89t-48 -73t-73 -49t-89 -18q-98 0 -145 53t-56 121h111q4 -20 14 -37q10 -14 29 -25q18 -10 49 -10q49 0 81 33t32 90q0 45 -27 69t-74 23q-39 0 -64 -20q-26 -20 -36 -41h-92l102 348h328l-18 -102h-234
l-31 -113l25 10q10 4 27 7q16 3 32 3z" />
    <glyph glyph-name="six.dnom" horiz-adv-x="532" 
d="M340 399q78 -8 126 -57t48 -121q0 -51 -17 -94t-47 -74t-71 -47t-86 -16q-86 0 -141 52t-56 132q0 39 14 74q13 35 33 64q20 30 43 55t39 43l158 184h125zM319 297q-37 0 -71 -31q-35 -31 -35 -84q0 -39 23 -64q23 -26 55 -26q37 0 71 31q35 31 35 84q0 39 -22 64
q-23 26 -56 26z" />
    <glyph glyph-name="seven.dnom" horiz-adv-x="471" 
d="M164 594h389l-12 -72l-338 -522h-119l322 492h-261z" />
    <glyph glyph-name="eight.dnom" horiz-adv-x="532" 
d="M293 -10q-98 0 -149 52q-50 52 -50 118q0 49 18 81q17 32 38 51q20 19 36 27l17 9q-14 8 -23 22q-8 12 -14 30q-6 17 -6 42q0 35 16 67q16 33 43 59t63 41t74 15q76 0 124 -47t48 -113q0 -39 -13 -65q-13 -27 -29 -42q-15 -15 -27 -23l-13 -7q16 -12 29 -28
q10 -14 20 -37q9 -23 9 -52q0 -41 -17 -76q-16 -36 -45 -64t-66 -44q-38 -16 -83 -16zM342 358q37 0 61 23q25 23 25 57q0 29 -21 46q-22 17 -59 18q-37 0 -61 -23q-25 -23 -25 -57q0 -29 22 -46q21 -18 58 -18zM293 92q41 0 72 28t30 66q0 31 -23 56q-24 25 -63 24
q-41 0 -71 -27q-31 -28 -31 -67q0 -31 23 -55q24 -25 63 -25z" />
    <glyph glyph-name="nine.dnom" horiz-adv-x="532" 
d="M315 195q-78 8 -126 57t-48 121q0 51 18 94q17 43 47 74t69 47q40 16 87 16q86 0 142 -52q55 -52 55 -132q0 -41 -14 -75t-34 -63q-19 -30 -42 -55t-39 -43l-158 -184h-125zM336 297q37 0 72 31t34 84q0 39 -22 64q-23 26 -55 26q-37 0 -72 -31t-35 -84q0 -39 23 -64
q22 -26 55 -26z" />
    </font>
</defs>
</svg>
