<?xml version="1.0" standalone="no"?>
<!DOCTYPE svg PUBLIC "-//W3C//DTD SVG 1.1//EN" "http://www.w3.org/Graphics/SVG/1.1/DTD/svg11.dtd" >
<svg>
<metadata>
Created by FontForge 20120731 at Wed Jul 10 05:23:25 2019
 By www-data
Copyright (c) 2018 by TypeType. Designers Ivan Gladkikh, Pavel Emelyanov. Technical designers Marina Khodak, Vika Usmanova, Nadyr Rakhimov. All rights reserved.
</metadata>
<defs>
<font id="TTCommons-DemiBoldItalic" horiz-adv-x="1044" >
  <font-face 
    font-family="TT Commons DemiBold Italic"
    font-weight="600"
    font-style="italic"
    font-stretch="normal"
    units-per-em="2048"
    panose-1="2 0 5 6 3 0 0 9 0 4"
    ascent="1434"
    descent="-614"
    x-height="942"
    cap-height="1290"
    bbox="-379 -557 2945 1761"
    underline-thickness="0"
    underline-position="0"
    unicode-range="U+000D-FB06"
  />
<missing-glyph horiz-adv-x="0" 
 />
    <glyph glyph-name="uniFB00" unicode="ff" horiz-adv-x="1167" 
d="M858 922l12 63q14 74 47 132.5t78 97t99.5 59t113.5 20.5q29 0 53.5 -5t45.5 -11q23 -8 43 -14l-35 -203q0 -2 -17.5 6t-56.5 8q-57 0 -94 -31.5t-47 -89.5l-6 -32h194l-37 -215h-194l-125 -707h-236l125 707h-307l-125 -707h-235l125 707h-113l37 215h112l7 28
q33 152 126 231t211 79q29 0 53.5 -5.5t45.5 -11.5q23 -8 43 -14l-35 -203q0 -2 -17.5 6t-56.5 8q-57 0 -94 -32.5t-47 -85.5h307z" />
    <glyph glyph-name="uniFB01" unicode="fi" 
d="M932 0h-236l123 707h-305l-125 -707h-235l125 707h-113l37 215h112l13 63q14 74 47 132.5t78 97t99 59t114 20.5q29 0 53 -5t45 -11q23 -8 43 -14l-35 -203q0 -2 -17.5 6t-56.5 8q-57 0 -94 -31.5t-47 -89.5l-6 -32h543zM1012 1014q-53 0 -87 36.5t-34 86.5q0 59 45 101
t100 42q53 0 87 -37t34 -86q0 -59 -45 -101t-100 -42z" />
    <glyph glyph-name="uniFB02" unicode="fl" 
d="M932 0h-236l191 1075q-10 12 -29 21q-16 8 -39.5 14t-58.5 6q-78 0 -140.5 -54t-78.5 -140h204l-36 -215h-195l-125 -707h-235l125 707h-113l37 215h112q16 92 57.5 165.5t100.5 126t134 80t159 27.5q31 0 58.5 -5t49.5 -11q25 -8 50 -15h235z" />
    <glyph glyph-name="uniFB03" unicode="ffi" horiz-adv-x="1587" 
d="M858 922l12 63q14 74 47 132.5t78 97t99.5 59t113.5 20.5q29 0 53.5 -5t45.5 -11q23 -8 43 -14l-35 -203q0 -2 -17.5 6t-56.5 8q-57 0 -94 -31.5t-47 -89.5l-6 -32h542l-161 -922h-236l123 707h-305l-125 -707h-236l125 707h-307l-125 -707h-235l125 707h-113l37 215h112
l7 28q33 152 126 231t211 79q29 0 53.5 -5.5t45.5 -11.5q23 -8 43 -14l-35 -203q0 -2 -17.5 6t-56.5 8q-57 0 -94 -32.5t-47 -85.5h307zM1554 1014q-53 0 -86.5 36.5t-33.5 86.5q0 59 45 101t100 42q53 0 87 -37t34 -86q0 -59 -45.5 -101t-100.5 -42z" />
    <glyph glyph-name="uniFB04" unicode="ffl" horiz-adv-x="1587" 
d="M1475 0h-236l191 1075q-10 12 -29 21q-16 8 -40 14t-58 6q-78 0 -140.5 -54t-79.5 -140h205l-37 -215h-194l-125 -707h-236l125 707h-307l-125 -707h-235l125 707h-113l37 215h112l7 28q33 152 126 231t211 79q29 0 53.5 -5.5t45.5 -11.5q23 -8 43 -14l-35 -203
q0 -2 -17.5 6t-56.5 8q-57 0 -94 -32.5t-47 -85.5h307q16 92 57 165.5t100.5 126t134.5 80t159 27.5q31 0 58.5 -5t49.5 -11q25 -8 49 -15h236z" />
    <glyph glyph-name="f_f_j.liga" unicode="ffj" horiz-adv-x="1587" 
d="M858 922l12 63q14 74 47 132.5t78 97t99.5 59t113.5 20.5q29 0 53.5 -5t45.5 -11q23 -8 43 -14l-35 -203q0 -2 -17.5 6t-56.5 8q-57 0 -94 -31.5t-47 -89.5l-6 -32h544l-163 -938q-12 -72 -43 -130.5t-77 -98.5t-102.5 -61.5t-119.5 -21.5q-29 0 -53.5 5.5t-43.5 11.5
q-23 8 -41 16l35 205q8 -4 19 -8q10 -4 22 -6t33 -2q55 0 92 30.5t47 89.5l121 693h-307l-125 -707h-236l125 707h-307l-125 -707h-235l125 707h-113l37 215h112l7 28q33 152 126 231t211 79q29 0 53.5 -5.5t45.5 -11.5q23 -8 43 -14l-35 -203q0 -2 -17.5 6t-56.5 8
q-57 0 -94 -32.5t-47 -85.5h307zM1554 1014q-53 0 -86.5 36.5t-33.5 86.5q0 59 45 101t100 42q53 0 87 -37t34 -86q0 -59 -45.5 -101t-100.5 -42z" />
    <glyph glyph-name="f_j.liga" unicode="fj" 
d="M932 -16q-12 -72 -43 -130.5t-77 -98.5t-102.5 -61.5t-119.5 -21.5q-29 0 -53.5 5.5t-42.5 11.5q-23 8 -41 16l34 205q8 -4 19 -8q10 -4 22.5 -6t32.5 -2q55 0 92 30.5t47 89.5l121 693h-307l-125 -707h-235l125 707h-113l37 215h112l13 63q14 74 47 132.5t78 97t99 59
t114 20.5q29 0 53 -5t45 -11q23 -8 43 -14l-35 -203q0 -2 -17.5 6t-56.5 8q-57 0 -94 -31.5t-47 -89.5l-6 -32h545zM1012 1014q-53 0 -87 36.5t-34 86.5q0 59 45 101t100 42q53 0 87 -37t34 -86q0 -59 -45 -101t-100 -42z" />
    <glyph glyph-name="f_t.liga" unicode="ft" horiz-adv-x="1218" 
d="M328 985q14 74 47 132.5t78 97t99 59t114 20.5q29 0 53 -5t45 -11q23 -8 43 -14l-35 -203q0 -2 -17.5 6t-56.5 8q-57 0 -94 -31.5t-47 -89.5l-6 -32h225q53 0 88 29.5t45 82.5l23 123h205l-39 -215h205l-41 -235h-205l-64 -361q-12 -63 22 -105t105 -42q16 0 33 4
q6 2 10 4l-37 -205q-12 -4 -24 -6q-23 -6 -60 -6q-72 0 -125 22.5t-89.5 62.5t-55 93t-18.5 115q0 37 6 73l61 351h-307l-125 -707h-235l125 707h-113l37 215h112z" />
    <glyph glyph-name="f_h.liga" unicode="fh" horiz-adv-x="1658" 
d="M1083 864q35 23 78 43q37 16 85 30.5t106 14.5q74 0 130 -28.5t95 -75.5t59.5 -109.5t20.5 -130.5q0 -47 -8 -86l-93 -522h-235l90 506q8 43 2 83t-27.5 70.5t-58.5 49t-90 18.5q-78 0 -136.5 -48t-74.5 -147l-94 -532h-236l189 1075q-2 4 -31 22.5t-94 18.5
q-78 0 -140.5 -54t-78.5 -140h204l-36 -215h-195l-125 -707h-235l125 707h-113l37 215h112q16 92 57.5 165.5t100.5 126t134 80t159 27.5q31 0 58.5 -5t49.5 -11q25 -8 48 -15h237z" />
    <glyph glyph-name="f_k.liga" unicode="fk" horiz-adv-x="1495" 
d="M1260 0l-252 430l-76 -430h-236l189 1075q-10 12 -29 21q-16 8 -38.5 14t-57.5 6q-78 0 -140.5 -54t-78.5 -140h204l-36 -215h-195l-125 -707h-235l125 707h-113l37 215h112q16 92 57.5 165.5t100.5 126t134 80t159 27.5q31 0 58.5 -5t49.5 -11q25 -8 48 -15h237
l-129 -737l354 389h269l-422 -455l291 -487h-262z" />
    <glyph glyph-name="f_b.liga" unicode="fb" horiz-adv-x="1679" 
d="M870 0h-174l189 1075q-2 4 -31 22.5t-94 18.5q-78 0 -140.5 -54t-78.5 -140h204l-36 -215h-195l-125 -707h-235l125 707h-113l37 215h112q16 92 57.5 165.5t100.5 126t134 80t159 27.5q31 0 58.5 -5t49.5 -11q25 -8 50 -15h235l-74 -422q29 23 66 41q31 16 72 29.5
t90 13.5q88 0 159.5 -33.5t123 -92t80 -136.5t28.5 -164q0 -117 -43 -215t-111.5 -169.5t-156.5 -111.5t-181 -40q-70 0 -120 19.5t-84 41.5q-39 27 -66 64zM1253 731q-51 0 -98 -20.5t-83 -58.5t-57.5 -91t-21.5 -121q0 -100 59.5 -160.5t157.5 -60.5q51 0 98.5 20.5
t83 58.5t57 91t21.5 121q0 100 -59.5 160.5t-157.5 60.5z" />
    <glyph glyph-name="f_f_h.liga" unicode="ffh" horiz-adv-x="2201" 
d="M1626 864q35 23 78 43q37 16 85 30.5t105 14.5q74 0 130.5 -28.5t95.5 -75.5t59.5 -109.5t20.5 -130.5q0 -47 -9 -86l-92 -522h-235l90 506q8 43 2 83t-27.5 70.5t-58.5 49t-90 18.5q-78 0 -136.5 -48t-74.5 -147l-94 -532h-236l188 1075q-2 4 -30.5 22.5t-93.5 18.5
q-78 0 -140.5 -54t-79.5 -140h205l-37 -215h-194l-125 -707h-236l125 707h-307l-125 -707h-235l125 707h-113l37 215h112l7 28q33 152 126 231t211 79q29 0 53.5 -5.5t45.5 -11.5q23 -8 43 -14l-35 -203q0 -2 -17.5 6t-56.5 8q-57 0 -94 -32.5t-47 -85.5h307q16 92 57 165.5
t100.5 126t134.5 80t159 27.5q31 0 58.5 -5t49.5 -11q25 -8 47 -15h238z" />
    <glyph glyph-name="f_f_k.liga" unicode="ffk" horiz-adv-x="2037" 
d="M1802 0l-252 430l-75 -430h-236l188 1075q-10 12 -28 21q-16 8 -39 14t-57 6q-78 0 -140.5 -54t-79.5 -140h205l-37 -215h-194l-125 -707h-236l125 707h-307l-125 -707h-235l125 707h-113l37 215h112l7 28q33 152 126 231t211 79q29 0 53.5 -5.5t45.5 -11.5q23 -8 43 -14
l-35 -203q0 -2 -17.5 6t-56.5 8q-57 0 -94 -32.5t-47 -85.5h307q16 92 57 165.5t100.5 126t134.5 80t159 27.5q31 0 58.5 -5t49.5 -11q25 -8 47 -15h238l-129 -737l354 389h268l-421 -455l290 -487h-262z" />
    <glyph glyph-name="f_f_b.liga" unicode="ffb" horiz-adv-x="2222" 
d="M1413 0h-174l188 1075q-2 4 -30.5 22.5t-93.5 18.5q-78 0 -140.5 -54t-79.5 -140h205l-37 -215h-194l-125 -707h-236l125 707h-307l-125 -707h-235l125 707h-113l37 215h112l7 28q33 152 126 231t211 79q29 0 53.5 -5.5t45.5 -11.5q23 -8 43 -14l-35 -203q0 -2 -17.5 6
t-56.5 8q-57 0 -94 -32.5t-47 -85.5h307q16 92 57 165.5t100.5 126t134.5 80t159 27.5q31 0 58.5 -5t49.5 -11q25 -8 49 -15h236l-74 -422q29 23 66 41q31 16 71.5 29.5t89.5 13.5q88 0 160 -33.5t123 -92t80 -136.5t29 -164q0 -117 -43 -215t-112 -169.5t-157 -111.5
t-180 -40q-70 0 -120 19.5t-85 41.5q-39 27 -65 64zM1796 731q-51 0 -98 -20.5t-83 -58.5t-57.5 -91t-21.5 -121q0 -100 59.5 -160.5t157.5 -60.5q51 0 98 20.5t83 58.5t57.5 91t21.5 121q0 100 -59.5 160.5t-157.5 60.5z" />
    <glyph glyph-name=".notdef" horiz-adv-x="0" 
 />
    <glyph glyph-name="glyph1" horiz-adv-x="0" 
 />
    <glyph glyph-name="glyph1" horiz-adv-x="0" 
 />
    <glyph glyph-name="uni000D" unicode="&#xd;" horiz-adv-x="0" 
 />
    <glyph glyph-name="space" unicode=" " horiz-adv-x="460" 
 />
    <glyph glyph-name="exclam" unicode="!" horiz-adv-x="532" 
d="M432 358h-205l133 932h267zM301 256q53 0 87 -37t34 -86q0 -57 -45 -100t-103 -43q-53 0 -86.5 36.5t-33.5 86.5q0 57 45 100t102 43z" />
    <glyph glyph-name="quotedbl" unicode="&#x22;" horiz-adv-x="747" 
d="M307 1290h225l-69 -399h-225zM645 1290h225l-69 -399h-226z" />
    <glyph glyph-name="numbersign" unicode="#" horiz-adv-x="1280" 
d="M1104 768l-94 -246h245l-73 -184h-236l-131 -338h-184l131 338h-266l-131 -338h-185l131 338h-245l73 184h236l94 246h-246l74 184h235l132 338h184l-131 -338h266l131 338h184l-131 -338h246l-74 -184h-235zM920 768h-267l-94 -246h266z" />
    <glyph glyph-name="dollar" unicode="$" horiz-adv-x="1064" 
d="M688 1464h225l-32 -192q119 -43 179 -142.5t60 -238.5h-237q0 184 -193 184q-43 0 -77.5 -12t-59.5 -32.5t-38 -47.5t-13 -53q0 -49 42 -81t104.5 -60.5t136 -58.5t136 -73t104.5 -105.5t42 -156.5q0 -70 -27.5 -137.5t-81 -122.5t-130 -93t-175.5 -48l-28 -168h-226
l31 182q-143 39 -221 143.5t-78 258.5h256q0 -98 55.5 -146.5t159.5 -48.5q98 0 153.5 47t55.5 111q0 49 -42 82.5t-105.5 62.5t-137 58.5t-137 71.5t-105.5 102.5t-42 150.5q0 92 36.5 163t97 121t134.5 78.5t147 34.5z" />
    <glyph glyph-name="percent" unicode="%" horiz-adv-x="1310" 
d="M547 1290q55 0 101 -20.5t80 -55t53.5 -81t19.5 -97.5q0 -63 -25.5 -117.5t-67.5 -94.5t-96.5 -63.5t-113.5 -23.5q-55 0 -102.5 20.5t-81 55.5t-52 81t-18.5 97q0 63 25.5 117.5t67.5 94.5t96.5 63.5t113.5 23.5zM535 1137q-47 0 -86 -39t-39 -99q0 -49 28.5 -78.5
t71.5 -29.5q47 0 86 39t39 98q0 49 -28.5 79t-71.5 30zM999 0q-55 0 -102 20.5t-81 55.5t-52.5 81t-18.5 97q0 63 26 117.5t68 94.5t96 63.5t114 23.5q55 0 101 -20.5t80 -55.5t53.5 -81t19.5 -97q0 -63 -26 -117.5t-68 -94.5t-96.5 -63.5t-113.5 -23.5zM1012 154
q47 0 86 38.5t39 98.5q0 49 -29 78.5t-72 29.5q-47 0 -86 -38.5t-39 -98.5q0 -49 29 -78.5t72 -29.5zM168 0l1016 1290h194l-1016 -1290h-194z" />
    <glyph glyph-name="ampersand" unicode="&#x26;" horiz-adv-x="1146" 
d="M913 0l-110 133q-45 -41 -101 -72q-47 -29 -112.5 -50t-143.5 -21q-88 0 -154.5 22.5t-111.5 61.5t-68.5 91t-23.5 111q0 100 45 173t98.5 121t99.5 72l46 24l-49 77q-23 37 -47.5 85.5t-24.5 119.5q0 74 28.5 137.5t78 111.5t115 75.5t140.5 27.5q72 0 130.5 -23.5
t99.5 -63t63.5 -93t22.5 -112.5q0 -61 -18.5 -110.5t-46 -87.5t-58.5 -63.5t-55 -41.5l-80 -56l153 -188l142 164h266l-270 -318l252 -307h-306zM551 791l57 34q14 8 32.5 22.5t36 35t29 46t11.5 58.5q0 47 -31 78t-82 31q-53 0 -93 -39t-40 -99q0 -27 6 -49t17 -39
q8 -20 22 -36zM332 326q0 -47 40 -90t105 -43q41 0 77 13t60 30q29 18 54 43l-183 243q-43 -23 -77 -53q-29 -27 -52.5 -62.5t-23.5 -80.5z" />
    <glyph glyph-name="quotesingle" unicode="'" horiz-adv-x="409" 
d="M307 1290h225l-69 -399h-225z" />
    <glyph glyph-name="parenleft" unicode="(" horiz-adv-x="604" 
d="M797 1219q-111 -125 -197 -279q-37 -66 -71.5 -143.5t-62.5 -165.5t-44 -184.5t-16 -200.5q0 -123 18 -223.5t41 -172.5q25 -84 59 -151l-194 -121q-45 82 -80 186q-31 88 -55.5 210t-24.5 270q0 160 35 303t87 265t113.5 220t114.5 167t88 105.5t37 36.5z" />
    <glyph glyph-name="parenright" unicode=")" horiz-adv-x="604" 
d="M-33 -299q109 125 195 279q37 66 71.5 143.5t62.5 165.5t45 184t17 201q0 123 -18 223t-41 172q-27 84 -59 152l194 120q43 -84 80 -186q29 -90 54.5 -211t25.5 -268q0 -160 -35 -303.5t-87 -265t-113.5 -220t-115 -167t-89.5 -105.5l-35 -37z" />
    <glyph glyph-name="asterisk" unicode="*" horiz-adv-x="716" 
d="M410 952l-197 52l78 153l182 -72l29 215h164l-50 -215l207 72l25 -153l-213 -52l113 -164l-150 -102l-90 184l-156 -184l-116 102z" />
    <glyph glyph-name="plus" unicode="+" horiz-adv-x="952" 
d="M743 942l-55 -317h307l-37 -205h-307l-55 -318h-215l55 318h-307l37 205h307l55 317h215z" />
    <glyph glyph-name="comma" unicode="," horiz-adv-x="409" 
d="M229 256q53 0 87 -37t34 -86q0 -66 -27.5 -121t-64.5 -98t-78 -73.5t-69 -45.5l-33 58q25 14 47 34q18 16 37.5 42t30.5 61q-47 4 -79 40t-32 83q0 29 12 54.5t31.5 45.5t46 31.5t57.5 11.5z" />
    <glyph glyph-name="hyphen" unicode="-" horiz-adv-x="757" 
d="M756 420h-615l37 205h615z" />
    <glyph glyph-name="period" unicode="." horiz-adv-x="409" 
d="M203 -10q-53 0 -87 36.5t-34 86.5q0 31 12 56.5t32.5 44.5t47.5 30.5t55 11.5q53 0 87 -37t34 -86q0 -31 -12 -56.5t-32.5 -45t-47 -30.5t-55.5 -11z" />
    <glyph glyph-name="slash" unicode="/" horiz-adv-x="757" 
d="M145 -369h-225l825 1659h226z" />
    <glyph glyph-name="zero" unicode="0" horiz-adv-x="1228" 
d="M778 1063q-55 0 -116.5 -33t-112.5 -97.5t-85 -161.5t-34 -226q0 -78 19.5 -137.5t52.5 -100.5t76 -61.5t92 -20.5q55 0 116.5 33t112.5 97.5t85 161.5t34 226q0 78 -19.5 137.5t-52.5 100.5t-76 61.5t-92 20.5zM795 1300q100 0 186 -37.5t149.5 -108.5t99.5 -171
t36 -227q0 -182 -54.5 -324.5t-142.5 -241t-196.5 -149.5t-219.5 -51q-100 0 -186 38t-149.5 108.5t-99.5 171t-36 227.5q0 180 54.5 322t142.5 240.5t196.5 150.5t219.5 52z" />
    <glyph glyph-name="one" unicode="1" horiz-adv-x="686" 
d="M760 1290l-228 -1290h-245l172 973l-172 -103l-90 185l378 235h185z" />
    <glyph glyph-name="two" unicode="2" horiz-adv-x="1034" 
d="M981 236l-41 -236h-860l31 174l553 488q37 31 69.5 60.5t59 61t42 67.5t15.5 83q0 53 -42 96t-140 43q-82 0 -134.5 -52t-64.5 -130h-244q14 82 54 156.5t99.5 131t137.5 89t168 32.5q102 0 181 -27.5t133.5 -73.5t82 -107.5t27.5 -128.5q0 -78 -33 -145.5t-79 -124
t-96 -101.5t-87 -76l-334 -280h502z" />
    <glyph glyph-name="three" unicode="3" 
d="M244 932q14 72 55 138.5t99.5 117.5t134 81.5t161.5 30.5q96 0 173 -28.5t131.5 -76.5t83 -110.5t28.5 -130.5q0 -84 -34 -141t-73.5 -92t-72.5 -51.5t-31 -16.5q39 -27 70 -63q27 -33 49 -82t22 -119q0 -74 -33.5 -145.5t-95 -128t-147.5 -91t-193 -34.5
q-109 0 -190.5 30.5t-137 82t-84 120t-28.5 146.5h248q0 -57 50 -105.5t149 -48.5q45 0 84.5 15.5t67.5 41t44.5 59.5t16.5 70q0 59 -45.5 105.5t-133.5 46.5h-116l36 205h140q92 0 140 46t48 122q0 59 -45 103t-129 44q-78 0 -132 -42t-73 -99h-237z" />
    <glyph glyph-name="four" unicode="4" horiz-adv-x="1034" 
d="M1028 236h-133l-41 -236h-246l41 236h-573l39 215l680 839h286l-145 -819h133zM690 471l86 481l-393 -481h307z" />
    <glyph glyph-name="five" unicode="5" horiz-adv-x="1064" 
d="M717 881q78 0 146.5 -31t118.5 -83t79 -124t29 -154q0 -106 -40 -197t-108 -158.5t-159 -105.5t-195 -38q-102 0 -184 29.5t-138.5 80t-86 118t-29.5 140.5h249q2 -51 53.5 -97t147.5 -46q49 0 93 19.5t77 53.5t52.5 81t19.5 102q0 78 -52.5 136.5t-154.5 58.5
q-53 0 -92 -21.5t-66 -46.5q-31 -29 -53 -66h-217l215 758h717l-41 -235h-512l-74 -236q29 16 63 31q29 10 66 20.5t76 10.5z" />
    <glyph glyph-name="six" unicode="6" horiz-adv-x="1064" 
d="M586 -10q-96 0 -178 29.5t-141.5 83t-92.5 128t-33 166.5q0 78 34 156t75 139q49 72 110 137l400 461h266l-348 -409q90 0 165 -30t129 -83t84.5 -127t30.5 -162q0 -104 -39.5 -193t-108.5 -156t-160 -103.5t-193 -36.5zM639 676q-47 0 -92 -19.5t-80 -55.5t-56.5 -84
t-21.5 -103q0 -45 15.5 -83t43 -65.5t64.5 -44t80 -16.5q47 0 92 19.5t80 55t56.5 84t21.5 103.5q0 45 -15.5 83t-43 65.5t-64.5 44t-80 16.5z" />
    <glyph glyph-name="seven" unicode="7" horiz-adv-x="942" 
d="M1114 1290l-33 -184l-706 -1106h-256l678 1055h-553l41 235h829z" />
    <glyph glyph-name="eight" unicode="8" 
d="M578 -10q-113 0 -197 33.5t-139.5 87t-82 119t-26.5 128.5q0 104 41 174t90 111q57 49 133 76q-33 23 -57 55q-23 29 -39 70t-16 94q0 72 31.5 137.5t89 115.5t133 79.5t166.5 29.5q92 0 165.5 -26.5t125 -72.5t79 -105.5t27.5 -124.5q0 -80 -32 -137.5t-69 -92.5
q-43 -41 -98 -67q41 -27 76 -64q29 -33 52.5 -84t23.5 -120q0 -82 -36 -158t-99.5 -133.5t-150.5 -91t-191 -33.5zM696 1085q-78 0 -131 -48t-53 -113q0 -59 45 -101.5t123 -42.5t131 48.5t53 113.5q0 59 -45 101t-123 42zM592 205q98 0 157.5 58.5t59.5 139.5
q0 72 -54.5 122t-156.5 50q-98 0 -158.5 -58t-60.5 -140q0 -72 55.5 -122t157.5 -50z" />
    <glyph glyph-name="nine" unicode="9" horiz-adv-x="1064" 
d="M698 1300q96 0 178 -29.5t141.5 -82.5t92.5 -128t33 -167q0 -78 -35 -156t-76 -139q-49 -72 -108 -137l-400 -461h-266l348 410q-90 0 -164.5 29.5t-129 82.5t-85 127t-30.5 162q0 104 39.5 193.5t108.5 156t160 103t193 36.5zM645 614q47 0 92 19.5t80 55.5t56.5 84
t21.5 104q0 45 -15.5 82.5t-43 65.5t-64.5 44t-80 16q-47 0 -92 -19t-80 -55t-56.5 -84t-21.5 -104q0 -45 15.5 -83t43 -65.5t64.5 -44t80 -16.5z" />
    <glyph glyph-name="colon" unicode=":" horiz-adv-x="409" 
d="M213 -10q-53 0 -87 36.5t-34 86.5q0 31 12.5 56.5t33 44.5t47 30.5t55.5 11.5q53 0 86.5 -37t33.5 -86q0 -31 -12 -56.5t-32.5 -45t-47 -30.5t-55.5 -11zM334 676q-53 0 -87 37t-34 86q0 31 12.5 56.5t33 45t47 30.5t54.5 11q53 0 87 -37t34 -86q0 -31 -12 -56.5
t-32.5 -45t-47 -30.5t-55.5 -11z" />
    <glyph glyph-name="semicolon" unicode=";" horiz-adv-x="409" 
d="M360 942q53 0 87 -37t34 -86q0 -31 -12 -56.5t-32.5 -45t-47.5 -30.5t-55 -11q-53 0 -87 37t-34 86q0 31 12.5 56.5t33 45t46.5 30.5t55 11zM240 256q53 0 86.5 -37t33.5 -86q0 -66 -27.5 -121t-64.5 -98t-77.5 -73.5t-69.5 -45.5l-33 58q25 14 47 34q18 16 38 42t30 61
q-47 4 -79 40t-32 83q0 29 12.5 54.5t32 45.5t46 31.5t57.5 11.5z" />
    <glyph glyph-name="less" unicode="&#x3c;" horiz-adv-x="931" 
d="M885 227l-41 -217l-705 359l33 184l832 358l-41 -233l-541 -225z" />
    <glyph glyph-name="equal" unicode="=" horiz-adv-x="942" 
d="M1016 829l-39 -215h-799l39 215h799zM147 430h799l-39 -215h-798z" />
    <glyph glyph-name="greater" unicode="&#x3e;" horiz-adv-x="931" 
d="M670 469l-463 225l41 217l704 -358l-32 -184l-832 -359l39 234z" />
    <glyph glyph-name="question" unicode="?" horiz-adv-x="921" 
d="M1014 973q0 -86 -25.5 -143.5t-64.5 -100.5t-87.5 -77t-93.5 -73.5t-80.5 -91t-50.5 -129.5h-235q16 102 52 171t78 115t87 78t83 61.5t61.5 64.5t23.5 90q0 57 -39 97t-115 40q-66 0 -117 -54t-67 -140h-244q12 92 49 168.5t95.5 133t133 87t163.5 30.5
q94 0 166.5 -26.5t123 -70.5t77 -103t26.5 -127zM473 256q53 0 87 -37t34 -86q0 -57 -45 -100t-103 -43q-53 0 -86.5 36.5t-33.5 86.5q0 57 45 100t102 43z" />
    <glyph glyph-name="at" unicode="@" horiz-adv-x="1546" 
d="M907 1147q168 0 293 -59.5t206 -149.5t121 -199.5t40 -210.5q0 -102 -29 -181t-77 -133t-108.5 -83t-123.5 -29q-66 0 -107 17.5t-65 40.5q-29 25 -45 59q-25 -35 -62 -59q-31 -23 -77 -40.5t-107 -17.5t-113.5 22.5t-90.5 64.5t-58.5 98.5t-20.5 124.5q0 92 31 167.5
t81 129t113.5 82t129.5 28.5q53 0 92 -16.5t63.5 -37t36.5 -37.5l12 -17l50 88h135l-68 -373q-10 -63 5.5 -111.5t76.5 -48.5q25 0 50.5 15.5t48 46t37 79t14.5 115.5q0 94 -36 180t-101.5 151t-155.5 102.5t-197 37.5q-111 0 -214 -45t-183 -124t-128 -185.5t-48 -228.5
q0 -100 35.5 -187.5t98 -153t149.5 -103.5t190 -38q53 0 102 14.5t88 30.5q45 20 86 47l70 -133q-51 -33 -107 -57q-49 -23 -111.5 -39t-133.5 -16q-141 0 -259 49t-203 135t-132 200.5t-47 243.5q0 154 61 290t165.5 236.5t240.5 159t286 58.5zM852 655q-37 0 -72 -16
t-62.5 -46t-45 -70t-17.5 -87q0 -74 46.5 -122t111.5 -48q37 0 72 16.5t62.5 45t45 69.5t17.5 88q0 74 -46 122t-112 48z" />
    <glyph glyph-name="A" unicode="A" horiz-adv-x="1167" 
d="M248 0h-258l708 1290h226l254 -1290h-254l-45 266h-492zM836 492l-80 471l-248 -471h328z" />
    <glyph glyph-name="B" unicode="B" horiz-adv-x="1167" 
d="M1020 668q41 -27 76 -64q29 -33 53.5 -84t24.5 -121q0 -80 -33 -151.5t-92.5 -126.5t-140.5 -88t-175 -33h-600l227 1290h533q74 0 134 -27.5t103.5 -73.5t67 -105.5t23.5 -122.5q0 -84 -32 -139.5t-69 -90.5q-45 -38 -100 -63zM516 772h281q37 0 68.5 13.5t55 36t38 51
t14.5 61.5q0 53 -38 98t-99 45h-267zM727 215q43 0 80 15.5t64.5 42t44 63.5t16.5 78q0 66 -43 118t-119 52h-289l-63 -369h309z" />
    <glyph glyph-name="C" unicode="C" horiz-adv-x="1320" 
d="M834 1065q-74 0 -149 -32t-136.5 -93t-100 -149.5t-38.5 -198.5q0 -80 26.5 -147.5t72.5 -115.5t108.5 -76t136.5 -28q57 0 111.5 20.5t100.5 53.5t80.5 73t57.5 79h262q-41 -100 -105.5 -184.5t-147.5 -146t-181 -96t-203 -34.5q-121 0 -223.5 45t-179 124t-119.5 186.5
t-43 232.5q0 154 59.5 285.5t155.5 229t221 152.5t256 55q121 0 217 -40.5t166 -106.5t108.5 -147.5t47.5 -165.5h-254q-8 37 -29.5 76.5t-59.5 72.5t-92 54.5t-126 21.5z" />
    <glyph glyph-name="D" unicode="D" horiz-adv-x="1239" 
d="M618 236q80 0 157 34.5t137.5 95t98.5 141.5t38 173q0 74 -25 141.5t-68 119.5t-101 83t-126 31h-164l-145 -819h198zM133 0l227 1290h410q113 0 209 -50t167 -133t110.5 -190.5t39.5 -220.5q0 -143 -60 -269t-158.5 -221t-224.5 -150.5t-257 -55.5h-463z" />
    <glyph glyph-name="E" unicode="E" horiz-adv-x="1116" 
d="M1085 236l-41 -236h-911l227 1290h891l-41 -235h-645l-49 -277h594l-41 -235h-594l-55 -307h665z" />
    <glyph glyph-name="F" unicode="F" 
d="M565 1055l-57 -318h502l-41 -235h-502l-88 -502h-246l227 1290h861l-41 -235h-615z" />
    <glyph glyph-name="G" unicode="G" horiz-adv-x="1392" 
d="M729 -10q-121 0 -223.5 45t-179 124t-119.5 186.5t-43 232.5q0 154 59.5 285.5t155.5 229t221 152.5t256 55q121 0 218 -39.5t168 -104t113 -147.5t52 -169h-254q-10 37 -34.5 76.5t-63.5 72.5t-94.5 54.5t-126.5 21.5q-74 0 -149 -32t-136.5 -93t-100 -149.5
t-38.5 -198.5q0 -80 26.5 -147.5t72.5 -115.5t108.5 -76t136.5 -28q92 0 156.5 36t105.5 81q49 53 78 119h-338l39 215h604l-119 -676h-174l-29 117q-47 -37 -100 -64q-47 -25 -110.5 -44t-137.5 -19z" />
    <glyph glyph-name="H" unicode="H" horiz-adv-x="1300" 
d="M1395 1290l-228 -1290h-245l96 543h-543l-96 -543h-246l227 1290h246l-90 -512h543l90 512h246z" />
    <glyph glyph-name="I" unicode="I" horiz-adv-x="512" 
d="M379 0h-246l227 1290h246z" />
    <glyph glyph-name="J" unicode="J" horiz-adv-x="1028" 
d="M1122 1290l-157 -895q-35 -199 -152 -302t-291 -103q-94 0 -167.5 31.5t-125 87t-79 130t-27.5 160.5h248q0 -86 44 -130t120 -44q74 0 122 45t64 138l156 882h245z" />
    <glyph glyph-name="K" unicode="K" horiz-adv-x="1095" 
d="M1126 0h-286l-359 584l-102 -584h-246l227 1290h246l-100 -573l530 573h293l-598 -639z" />
    <glyph glyph-name="L" unicode="L" horiz-adv-x="1013" 
d="M1024 236l-41 -236h-850l227 1290h246l-186 -1054h604z" />
    <glyph glyph-name="M" unicode="M" horiz-adv-x="1576" 
d="M1671 1290l-227 -1290h-246l127 717l-455 -717h-163l-201 717l-127 -717h-246l227 1290h215l273 -952l608 952h215z" />
    <glyph glyph-name="N" unicode="N" horiz-adv-x="1300" 
d="M1395 1290l-228 -1290h-215l-426 840l-147 -840h-246l227 1290h215l426 -839l148 839h246z" />
    <glyph glyph-name="O" unicode="O" horiz-adv-x="1372" 
d="M856 1300q121 0 224.5 -45t179 -124.5t118.5 -187t43 -230.5q0 -154 -59 -286t-156.5 -229.5t-221.5 -152.5t-255 -55q-121 0 -224.5 45t-179 125t-118.5 187.5t-43 230.5q0 154 59.5 285.5t156.5 229t221 152.5t255 55zM834 1065q-78 0 -155 -35t-136.5 -97.5
t-96 -149.5t-36.5 -191q0 -80 26.5 -147.5t72.5 -116.5t108.5 -76t136.5 -27q78 0 153.5 35t135 97.5t96.5 149.5t37 191q0 80 -26 147.5t-72 117t-108 76t-136 26.5z" />
    <glyph glyph-name="P" unicode="P" horiz-adv-x="1116" 
d="M842 1290q82 0 149.5 -32.5t115.5 -88t74.5 -127t26.5 -147.5q0 -96 -39 -181t-104.5 -148.5t-151.5 -99.5t-180 -36h-278l-76 -430h-246l227 1290h482zM750 666q39 0 76.5 16t68.5 45t49.5 65.5t18.5 77.5q0 35 -12.5 68t-34 59.5t-51 42t-64.5 15.5h-236l-69 -389h254z
" />
    <glyph glyph-name="Q" unicode="Q" horiz-adv-x="1372" 
d="M1061 86q-78 -47 -162 -71.5t-170 -24.5q-121 0 -224.5 45t-179 125t-118.5 187.5t-43 230.5q0 154 59.5 285.5t156.5 229t221 152.5t255 55q121 0 224.5 -45t179 -124.5t118.5 -187t43 -230.5q0 -145 -53 -270.5t-141 -223.5l92 -106l-158 -144zM834 1065
q-78 0 -155 -35t-136.5 -97.5t-96 -149.5t-36.5 -191q0 -80 26.5 -147.5t72.5 -116.5t108.5 -76t136.5 -27q84 0 157 37l-114 137l157 144l123 -146q45 59 72 135t27 166q0 80 -26 147.5t-72 117t-108 76t-136 26.5z" />
    <glyph glyph-name="R" unicode="R" horiz-adv-x="1146" 
d="M647 471h-184l-84 -471h-246l227 1290h514q82 0 149 -31.5t114 -83t73.5 -118t26.5 -135.5q0 -66 -15.5 -118t-40 -94t-55 -74t-63.5 -54q-76 -53 -172 -80l215 -502h-277zM504 707h284q39 0 76 14t64.5 39.5t44 59.5t16.5 71q0 61 -43 112.5t-112 51.5h-269z" />
    <glyph glyph-name="S" unicode="S" horiz-adv-x="1064" 
d="M242 901q0 100 43 175t110.5 125t149.5 74.5t160 24.5q102 0 180 -29.5t130 -83.5t78.5 -129t26.5 -167h-237q0 184 -193 184q-43 0 -77.5 -12t-59.5 -32.5t-38 -47.5t-13 -53q0 -49 42 -81t104.5 -60.5t136 -58.5t136 -73t104.5 -105.5t42 -156.5q0 -76 -33 -148.5
t-94 -130t-151.5 -92t-202.5 -34.5q-106 0 -191.5 29.5t-143.5 85t-89 132t-31 173.5h256q0 -98 55.5 -146.5t159.5 -48.5q98 0 153.5 47t55.5 111q0 49 -42 82.5t-105.5 62.5t-137 58.5t-137 71.5t-105.5 102.5t-42 150.5z" />
    <glyph glyph-name="T" unicode="T" horiz-adv-x="1064" 
d="M258 1290h1004l-41 -235h-379l-187 -1055h-245l186 1055h-379z" />
    <glyph glyph-name="U" unicode="U" horiz-adv-x="1269" 
d="M461 516q-6 -35 -6 -61q0 -70 26.5 -114t65.5 -69.5t83 -36t81 -10.5q121 0 187.5 71t88.5 189l143 805h246l-145 -823q-18 -111 -67.5 -199t-120 -150.5t-160.5 -95t-193 -32.5q-109 0 -198 34.5t-151 96t-96 143.5t-34 176q0 23 2 47.5t6 49.5l133 753h246z" />
    <glyph glyph-name="V" unicode="V" horiz-adv-x="1187" 
d="M461 0l-234 1290h252l162 -942l494 942h260l-688 -1290h-246z" />
    <glyph glyph-name="W" unicode="W" horiz-adv-x="1699" 
d="M1139 1290l118 -833l400 833h250l-637 -1290h-174l-113 809l-399 -809h-174l-183 1290h246l109 -833l409 833h148z" />
    <glyph glyph-name="X" unicode="X" horiz-adv-x="1146" 
d="M1343 1290l-512 -635l306 -655h-269l-204 471l-369 -471h-285l535 655l-287 635h268l187 -450l346 450h284z" />
    <glyph glyph-name="Y" unicode="Y" horiz-adv-x="1126" 
d="M1059 1290h274l-571 -798l-86 -492h-246l86 492l-289 798h258l189 -553z" />
    <glyph glyph-name="Z" unicode="Z" horiz-adv-x="1054" 
d="M420 236h614l-41 -236h-932l35 195l735 860h-563l41 235h881l-35 -194z" />
    <glyph glyph-name="bracketleft" unicode="[" horiz-adv-x="634" 
d="M342 -143h225l-39 -226h-460l292 1659h461l-41 -225h-225z" />
    <glyph glyph-name="backslash" unicode="\" horiz-adv-x="757" 
d="M248 1290h225l240 -1659h-226z" />
    <glyph glyph-name="bracketright" unicode="]" horiz-adv-x="634" 
d="M453 1065h-226l41 225h461l-293 -1659h-461l39 226h226z" />
    <glyph glyph-name="asciicircum" unicode="^" horiz-adv-x="839" 
d="M176 686l404 604h122l191 -604h-199l-96 328l-211 -328h-211z" />
    <glyph glyph-name="underscore" unicode="_" horiz-adv-x="583" 
d="M557 -379h-666l37 205h666z" />
    <glyph glyph-name="grave" unicode="`" horiz-adv-x="481" 
d="M604 1034h-174l-184 256h225z" />
    <glyph glyph-name="a" unicode="a" horiz-adv-x="972" 
d="M621 952q74 0 138 -22.5t111.5 -63.5t75 -102.5t27.5 -136.5q0 -37 -6 -76l-97 -551h-174l-26 92q-31 -29 -70 -51q-35 -20 -81 -35.5t-99 -15.5q-74 0 -130.5 19.5t-95 53t-58 77.5t-19.5 93q0 94 47 159t129 105t194.5 58t245.5 18q10 70 -27.5 117t-113.5 47
q-39 0 -65.5 -16t-43.5 -35q-20 -23 -32 -51l-240 10q20 63 58 118.5t90.5 97.5t118 66.5t143.5 24.5zM461 174q92 0 157.5 55.5t81.5 139.5l9 41q-104 0 -173 -9.5t-109 -28t-56.5 -46t-16.5 -62.5t29 -62.5t78 -27.5z" />
    <glyph glyph-name="b" unicode="b" horiz-adv-x="1095" 
d="M287 0h-174l227 1290h235l-73 -422q29 23 65 41q31 16 72 29.5t90 13.5q88 0 160 -33.5t123 -92t79.5 -136.5t28.5 -164q0 -117 -43 -215t-111.5 -169.5t-156.5 -111.5t-180 -40q-70 0 -120 19.5t-85 41.5q-39 27 -66 64zM670 731q-51 0 -98.5 -20.5t-83 -58.5t-57 -91
t-21.5 -121q0 -100 59 -160.5t158 -60.5q51 0 98 20.5t83 58.5t57.5 91t21.5 121q0 100 -59.5 160.5t-157.5 60.5z" />
    <glyph glyph-name="c" unicode="c" horiz-adv-x="1034" 
d="M1038 348q-27 -78 -70.5 -144.5t-104 -113.5t-135.5 -73.5t-163 -26.5q-90 0 -168 34.5t-134 95t-89 139.5t-33 169q0 111 44 206t116 165.5t165 111.5t191 41q84 0 156 -27.5t127 -76.5t91 -114.5t50 -139.5h-241q-14 37 -41 68q-23 25 -63 46t-99 21q-51 0 -98 -20.5
t-83 -59.5t-57.5 -92t-21.5 -119q0 -98 59.5 -161.5t155.5 -63.5q55 0 95 20.5t67 47.5q31 29 51 67h233z" />
    <glyph glyph-name="d" unicode="d" horiz-adv-x="1095" 
d="M532 -10q-88 0 -159.5 33.5t-122.5 92t-80 136.5t-29 164q0 117 43 215t112 169.5t157 111.5t180 40q66 0 115 -17t81 -40q37 -25 66 -57l80 452h235l-227 -1290h-174l-27 92q-33 -29 -71 -51q-35 -20 -80.5 -35.5t-98.5 -15.5zM592 211q51 0 98 20.5t83 58.5t57.5 91
t21.5 121q0 100 -59.5 160.5t-157.5 60.5q-51 0 -98.5 -20.5t-83 -58.5t-57 -91t-21.5 -121q0 -100 59.5 -160.5t157.5 -60.5z" />
    <glyph glyph-name="e" unicode="e" horiz-adv-x="1046" 
d="M1016 287q-18 -49 -59.5 -102.5t-99.5 -96.5t-132 -71.5t-158 -28.5q-92 0 -170 34.5t-134 94t-89 140.5t-33 171q0 109 44 205t117 166.5t166 111.5t191 41q88 0 163 -31.5t130.5 -88t86 -134t30.5 -170.5q0 -31 -5 -57.5t-11 -46.5q-8 -23 -17 -45h-649
q10 -76 64.5 -121t144.5 -45q47 0 79 11.5t54 25.5q25 16 41 37h246zM649 727q-92 0 -160.5 -53t-97.5 -131h451q-2 78 -51.5 131t-141.5 53z" />
    <glyph glyph-name="f" unicode="f" horiz-adv-x="620" 
d="M731 922l-37 -215h-194l-125 -707h-236l125 707h-112l36 215h113l10 53q14 74 47 132t78 97t99.5 59.5t113.5 20.5q29 0 53.5 -5t45.5 -11q23 -8 43 -15l-35 -202q0 -2 -17.5 6t-56.5 8q-57 0 -94 -32t-47 -89l-4 -22h194z" />
    <glyph glyph-name="g" unicode="g" horiz-adv-x="1085" 
d="M618 952q72 0 123.5 -20.5t85.5 -42.5q39 -27 66 -62l72 115h174l-162 -922q-31 -172 -149.5 -270t-311.5 -98q-90 0 -156.5 22.5t-113.5 56t-77 73.5t-46.5 74t-22.5 58l-6 23h244q8 -27 31 -47q20 -16 57 -30.5t98 -14.5q90 0 147.5 48t71.5 126l13 74q-29 -25 -66 -43
q-31 -16 -73 -28.5t-93 -12.5q-80 0 -147.5 31.5t-117.5 86t-78.5 129t-28.5 160.5q0 113 39.5 207t105 163t149.5 106.5t172 37.5zM637 723q-49 0 -94 -19.5t-80 -54.5t-55.5 -83t-20.5 -103q0 -90 57.5 -150.5t147.5 -60.5q49 0 94 19.5t80 54t55.5 83t20.5 103.5
q0 90 -57.5 150.5t-147.5 60.5z" />
    <glyph glyph-name="h" unicode="h" horiz-adv-x="1075" 
d="M500 864q35 23 78 43q37 16 85 30.5t105 14.5q74 0 130 -28.5t95 -75.5t59.5 -109.5t20.5 -130.5q0 -47 -8 -86l-92 -522h-236l90 506q8 43 2 83t-27.5 70.5t-58 49t-90.5 18.5q-78 0 -136 -48t-75 -147l-94 -532h-235l227 1290h235z" />
    <glyph glyph-name="i" unicode="i" horiz-adv-x="460" 
d="M348 0h-235l166 942h235zM436 1065q-53 0 -87 37t-34 86q0 59 45.5 101t100.5 42q53 0 87 -37t34 -86q0 -59 -45.5 -101t-100.5 -42z" />
    <glyph glyph-name="j" unicode="j" horiz-adv-x="460" 
d="M346 -16q-12 -72 -43 -130.5t-77 -98.5t-102 -61.5t-120 -21.5q-29 0 -53.5 5.5t-42.5 11.5q-23 8 -41 16l35 205q8 -4 18 -8t22.5 -6t32.5 -2q55 0 92 30.5t48 89.5l164 928h235zM436 1065q-53 0 -87 37t-34 86q0 59 45.5 101t100.5 42q53 0 87 -37t34 -86
q0 -59 -45.5 -101t-100.5 -42z" />
    <glyph glyph-name="k" unicode="k" horiz-adv-x="911" 
d="M676 0l-252 430l-76 -430h-235l227 1290h235l-129 -737l355 389h268l-422 -455l291 -487h-262z" />
    <glyph glyph-name="l" unicode="l" horiz-adv-x="460" 
d="M348 0h-235l227 1290h235z" />
    <glyph glyph-name="m" unicode="m" horiz-adv-x="1536" 
d="M1292 530q16 86 -19.5 141.5t-113.5 55.5q-57 0 -106 -42t-66 -138l-96 -547h-236l95 530q16 86 -20 141.5t-114 55.5q-57 0 -106 -42t-66 -138l-96 -547h-235l166 942h174l24 -92q31 29 68 51q33 18 75 34.5t93 16.5q66 0 110.5 -20.5t73.5 -42.5q35 -29 55 -64
q33 35 76 64q37 23 89 43t118 20q141 0 221 -82t80 -229q0 -25 -2 -50.5t-6 -53.5l-94 -537h-236z" />
    <glyph glyph-name="n" unicode="n" horiz-adv-x="1075" 
d="M479 850q39 29 84 51q39 18 89 34.5t108 16.5q76 0 134 -27.5t98 -74.5t60.5 -108.5t20.5 -131.5q0 -23 -2 -44t-6 -44l-92 -522h-236l90 506q8 43 2 83t-27.5 70.5t-58 49t-90.5 18.5q-78 0 -136 -48t-75 -147l-94 -532h-235l166 942h174z" />
    <glyph glyph-name="o" unicode="o" horiz-adv-x="1064" 
d="M657 952q92 0 171 -34.5t136.5 -94t90 -139.5t32.5 -170q0 -111 -44 -206t-116.5 -165.5t-164.5 -111.5t-191 -41q-92 0 -170.5 34.5t-136 94t-90.5 139.5t-33 170q0 111 44 206t117 165.5t165 111.5t190 41zM637 729q-49 0 -96 -20.5t-84 -59.5t-58.5 -92t-21.5 -119
q0 -98 58.5 -161.5t156.5 -63.5q49 0 96 21.5t84 59.5t58.5 92t21.5 120q0 98 -58.5 160.5t-156.5 62.5z" />
    <glyph glyph-name="p" unicode="p" horiz-adv-x="1095" 
d="M729 952q88 0 160 -33.5t123 -92t79.5 -136.5t28.5 -164q0 -117 -43 -215t-111.5 -169.5t-156.5 -111.5t-180 -40q-66 0 -115 17.5t-82 39.5q-37 25 -65 57l-76 -432h-236l224 1270h174l26 -92q33 29 72 51q35 18 80 34.5t98 16.5zM670 731q-51 0 -98.5 -20.5t-83 -58.5
t-57 -91t-21.5 -121q0 -100 59 -160.5t158 -60.5q51 0 98 20.5t83 58.5t57.5 91t21.5 121q0 100 -59.5 160.5t-157.5 60.5z" />
    <glyph glyph-name="q" unicode="q" horiz-adv-x="1095" 
d="M975 942h174l-223 -1270h-236l70 402q-29 -25 -66 -43q-31 -16 -72.5 -28.5t-89.5 -12.5q-88 0 -159.5 33.5t-122.5 92t-80 136.5t-29 164q0 117 43 215t112 169.5t157 111.5t180 40q70 0 120 -20.5t85 -42.5q39 -27 65 -62zM592 211q51 0 98 20.5t83 58.5t57.5 91
t21.5 121q0 100 -59.5 160.5t-157.5 60.5q-51 0 -98.5 -20.5t-83 -58.5t-57 -91t-21.5 -121q0 -100 59.5 -160.5t157.5 -60.5z" />
    <glyph glyph-name="r" unicode="r" horiz-adv-x="665" 
d="M721 952q16 0 27.5 -2t21.5 -4t21 -4l-43 -246q-8 2 -21 4q-10 2 -25.5 4.5t-33.5 2.5q-86 0 -150.5 -56.5t-81.5 -148.5l-88 -502h-235l166 942h174l22 -102q33 31 70 55q33 23 78 40t98 17z" />
    <glyph glyph-name="s" unicode="s" horiz-adv-x="849" 
d="M670 666q-6 35 -40 61.5t-95 26.5q-47 0 -78 -27t-31 -63q0 -29 30.5 -48.5t76 -37t99.5 -37t99 -50t76 -76.5t31 -114q0 -61 -26 -117.5t-72 -99.5t-111.5 -68.5t-147.5 -25.5q-96 0 -166.5 23.5t-116.5 65.5t-69 98t-23 122h228q0 -49 33.5 -82t105.5 -33q57 0 94 33
t37 70q0 29 -30.5 48t-76.5 36.5t-100.5 37t-100.5 49t-77 73.5t-31 110q0 61 26 117.5t73 99.5t110.5 68.5t141.5 25.5q88 0 154.5 -22.5t110.5 -61.5t67.5 -91t25.5 -111h-227z" />
    <glyph glyph-name="t" unicode="t" horiz-adv-x="706" 
d="M475 346q-12 -63 21.5 -105t105.5 -42q16 0 33 4q6 2 10 4l-37 -205q-12 -4 -24 -6q-23 -6 -60 -6q-72 0 -125 22.5t-90 62.5t-55 93t-18 115q0 37 6 73l65 371h-141l33 195h61q113 0 131 112l23 133h204l-38 -225h204l-36 -215h-205z" />
    <glyph glyph-name="u" unicode="u" horiz-adv-x="1071" 
d="M758 92q-39 -29 -84 -51q-39 -20 -89 -35.5t-108 -15.5q-76 0 -134 27.5t-98 74.5t-60.5 108.5t-20.5 131.5q0 23 2 44t6 44l92 522h236l-90 -506q-8 -43 -2 -83t27.5 -70.5t58 -49t90.5 -18.5q78 0 136 48t75 147l94 532h235l-166 -942h-174z" />
    <glyph glyph-name="v" unicode="v" horiz-adv-x="962" 
d="M1108 942l-524 -942h-226l-192 942h240l110 -651l340 651h252z" />
    <glyph glyph-name="w" unicode="w" horiz-adv-x="1392" 
d="M774 942h150l86 -594l286 594h242l-473 -942h-205l-76 563l-272 -563h-205l-141 942h235l76 -594z" />
    <glyph glyph-name="x" unicode="x" horiz-adv-x="921" 
d="M266 0h-266l401 481l-215 461h246l131 -297l238 297h266l-379 -461l234 -481h-246l-150 317z" />
    <glyph glyph-name="y" unicode="y" horiz-adv-x="962" 
d="M162 942h239l127 -614l324 614h270q-152 -266 -274 -481q-53 -92 -103.5 -180t-92.5 -161t-68.5 -121t-32.5 -56q-45 -76 -87 -129.5t-83 -87t-85 -49t-93 -15.5q-39 0 -74 9.5t-35 11.5l35 190h27q59 2 102 33t76 86l28 49z" />
    <glyph glyph-name="z" unicode="z" horiz-adv-x="849" 
d="M598 717h-410l39 225h707l-35 -194l-502 -523h430l-39 -225h-727l35 195z" />
    <glyph glyph-name="braceleft" unicode="{" horiz-adv-x="665" 
d="M180 553q47 0 79 29.5t42 83.5l57 327q53 297 371 297h123l-39 -215h-102q-113 0 -131 -112l-58 -318q-10 -59 -34.5 -94t-51.5 -55q-31 -23 -67 -35q33 -12 55 -35q20 -20 32.5 -56t2.5 -94l-58 -317q-18 -113 95 -113h102l-39 -215h-123q-272 0 -272 217q0 18 2 38
t6 42l57 328q10 53 -12 83t-70 30z" />
    <glyph glyph-name="bar" unicode="|" horiz-adv-x="727" 
d="M424 -328h-236l285 1618h236z" />
    <glyph glyph-name="braceright" unicode="}" horiz-adv-x="665" 
d="M647 369q-47 0 -78.5 -30t-42.5 -83l-57 -328q-53 -297 -371 -297h-123l39 215h103q113 0 131 113l57 317q10 57 35 93.5t51 56.5q31 23 68 35q-33 12 -56 35q-20 20 -32.5 55t-1.5 94l57 318q18 113 -94 112h-103l39 215h123q272 0 273 -217q0 -18 -2.5 -37.5
t-6.5 -42.5l-57 -327q-10 -53 12.5 -83t69.5 -30z" />
    <glyph glyph-name="asciitilde" unicode="~" horiz-adv-x="921" 
d="M745 389q-55 0 -109 17.5t-105.5 39t-97.5 39t-83 17.5q-35 0 -62.5 -30t-35.5 -73h-184q27 164 102.5 241t179.5 77q55 0 109.5 -17.5t105.5 -39t97.5 -39t82.5 -17.5q35 0 63 29t36 74h184q-27 -164 -103 -241t-180 -77z" />
    <glyph glyph-name="uni00A0" unicode="&#xa0;" horiz-adv-x="460" 
 />
    <glyph glyph-name="exclamdown" unicode="&#xa1;" horiz-adv-x="532" 
d="M346 -328h-266l190 901h205zM401 676q-53 0 -86.5 37t-33.5 86q0 57 45 100t102 43q53 0 87 -37t34 -86q0 -57 -45.5 -100t-102.5 -43z" />
    <glyph glyph-name="cent" unicode="&#xa2;" horiz-adv-x="1024" 
d="M1038 348q-47 -139 -147 -233.5t-244 -116.5l-31 -182h-225l35 196q-63 23 -115.5 65t-90.5 96t-58.5 118.5t-20.5 136.5q0 100 37 189.5t99.5 158t143.5 113.5t169 57l28 160h226l-31 -182q106 -41 176 -130t92 -200h-241q-14 37 -41 68q-23 25 -63 46t-99 21
q-51 0 -98 -20.5t-83 -59.5t-57.5 -92t-21.5 -119q0 -98 59.5 -161.5t155.5 -63.5q55 0 95 20.5t67 47.5q31 29 51 67h233z" />
    <glyph glyph-name="sterling" unicode="&#xa3;" horiz-adv-x="1085" 
d="M881 707l-39 -215h-318l-22 -134q-6 -35 -20.5 -58.5t-28.5 -37.5q-16 -16 -35 -26h635l-41 -236h-942l41 236q53 0 94 34.5t51 87.5l23 134h-109l39 215h108l37 225q12 78 51 144.5t97.5 114.5t133.5 75.5t159 27.5q90 0 162.5 -29.5t125 -80.5t81 -119t28.5 -143v-21.5
t-2 -21.5l-246 20v23q0 70 -40 113.5t-120 43.5q-68 0 -120 -45t-66 -125l-35 -202h318z" />
    <glyph glyph-name="currency" unicode="&#xa4;" horiz-adv-x="1167" 
d="M176 707h133l103 583h483q88 0 157.5 -29.5t117 -80t72 -116t24.5 -136.5q0 -88 -34 -166t-95.5 -135.5t-145.5 -91t-184 -33.5h-289l-18 -113h379l-37 -205h-379l-33 -184h-246l33 184h-133l37 205h133l18 113h-133zM813 707q43 0 81 15t65.5 43t44 64.5t16.5 77.5
q0 66 -43 117t-119 51h-237l-66 -368h258z" />
    <glyph glyph-name="yen" unicode="&#xa5;" horiz-adv-x="1146" 
d="M1069 1290h274l-446 -624h172l-33 -195h-268l-16 -92h268l-35 -195h-268l-31 -184h-246l31 184h-264l35 195h264l16 92h-264l33 195h172l-225 624h258l188 -553z" />
    <glyph glyph-name="brokenbar" unicode="&#xa6;" horiz-adv-x="727" 
d="M705 1290l-111 -635h-236l111 635h236zM297 307h235l-112 -635h-236z" />
    <glyph glyph-name="section" unicode="&#xa7;" horiz-adv-x="983" 
d="M989 537q0 -86 -37 -145.5t-82 -96.5q-53 -43 -116 -68q23 -20 41 -47q16 -23 29.5 -57.5t13.5 -77.5q0 -61 -23.5 -114.5t-68 -92.5t-106.5 -61.5t-138 -22.5q-88 0 -154.5 25.5t-112 70t-69 101.5t-23.5 121h207l2 -20q2 -21 15.5 -45.5t42 -45t82.5 -20.5
q55 0 88.5 31.5t33.5 72.5q0 39 -32.5 67.5t-81.5 56.5t-106.5 57.5t-106.5 68.5t-82 92t-33 129q0 86 36 145.5t80 96.5t81 53t39 16q-25 18 -43 45q-16 23 -28.5 57t-12.5 77q0 61 25.5 114.5t70.5 93t107.5 63t136.5 23.5q172 0 253.5 -82.5t81.5 -213.5h-202
q0 31 -13 55q-10 20 -35.5 37.5t-74.5 17.5q-53 0 -90 -30.5t-37 -75.5q0 -39 32.5 -68t82 -55.5t106.5 -57t106.5 -69.5t82 -93t32.5 -128zM590 346q47 14 84 37q33 20 59.5 51t26.5 78q0 53 -42 100t-145 97q-49 -14 -86 -37q-33 -20 -59.5 -51t-26.5 -78
q0 -53 43.5 -100.5t145.5 -96.5z" />
    <glyph glyph-name="dieresis" unicode="&#xa8;" horiz-adv-x="757" 
d="M408 1311q53 0 86.5 -37t33.5 -86q0 -59 -45 -101.5t-102 -42.5q-53 0 -87 37t-34 86q0 59 45.5 101.5t102.5 42.5zM776 1311q53 0 87 -37t34 -86q0 -59 -45 -101.5t-102 -42.5q-53 0 -87 37t-34 86q0 59 45 101.5t102 42.5z" />
    <glyph glyph-name="copyright" unicode="&#xa9;" horiz-adv-x="1454" 
d="M670 659q-4 -12 -4 -24v-23q0 -78 45 -125t110 -47q41 0 70 16.5t47 39.5q23 25 37 57h166q-18 -53 -51 -100t-78 -82t-98.5 -54.5t-110.5 -19.5q-61 0 -116.5 23.5t-96.5 64.5t-64.5 99.5t-23.5 125.5q0 80 31.5 150.5t83 122t116 81t131.5 29.5q72 0 125 -24.5
t89 -62.5t55.5 -83t25.5 -86h-162l-4 17q-4 18 -18 39.5t-41 39t-70 17.5q-66 0 -122 -51.5t-72 -139.5zM889 1300q129 0 237.5 -46t187.5 -125.5t122 -187t43 -230.5q0 -154 -58.5 -286t-157 -228.5t-225.5 -151.5t-264 -55q-129 0 -237.5 46t-187.5 126t-122 187.5
t-43 230.5q0 154 58.5 285.5t157 228t225.5 151.5t264 55zM879 1147q-102 0 -197.5 -42t-169.5 -116t-119 -176t-45 -221q0 -96 33 -178t91 -141.5t138 -94.5t176 -35q102 0 197.5 42t169.5 116t118 175.5t44 221.5q0 94 -32 177t-90 142.5t-138 94.5t-176 35z" />
    <glyph glyph-name="ordfeminine" unicode="&#xaa;" horiz-adv-x="614" 
d="M500 1300q59 0 103 -19t70.5 -52t37 -76t2.5 -88l-58 -328h-102l-23 51q-23 -18 -47 -30q-23 -12 -50 -21.5t-56 -9.5q-86 0 -131 47t-45 107q0 55 28.5 92t78.5 60.5t118 33.5t145 10v10q0 8 -2 22.5t-11 27t-26.5 21.5t-46.5 9q-23 0 -37 -8t-24 -18t-18 -25h-134
q6 35 23.5 69t47.5 59.5t69 40.5t88 15zM555 983q-61 0 -101 -7t-63.5 -19.5t-33 -25.5t-9.5 -26q0 -23 18.5 -39t53.5 -16q47 0 84 32.5t47 80.5z" />
    <glyph glyph-name="guillemotleft" unicode="&#xab;" horiz-adv-x="972" 
d="M532 133h-221l-168 328l283 327h229l-286 -331zM932 133h-221l-168 328l282 327h230l-287 -331z" />
    <glyph glyph-name="logicalnot" unicode="&#xac;" horiz-adv-x="983" 
d="M1055 799l-80 -451h-225l43 246h-646l37 205h871z" />
    <glyph glyph-name="uni00AD" unicode="&#xad;" horiz-adv-x="757" 
d="M756 420h-615l37 205h615z" />
    <glyph glyph-name="registered" unicode="&#xae;" horiz-adv-x="1454" 
d="M1126 778q0 -66 -27.5 -106.5t-60.5 -63.5q-37 -27 -86 -41l131 -260h-174l-112 225h-62l-41 -225h-153l118 676h273q45 0 81 -17.5t61.5 -46t38.5 -65.5t13 -76zM889 676q37 0 63.5 26.5t26.5 59.5q0 29 -19.5 53.5t-54.5 24.5h-117l-28 -164h129zM889 1300
q129 0 237.5 -46t187.5 -125.5t122 -187t43 -230.5q0 -154 -58.5 -286t-157 -228.5t-225.5 -151.5t-264 -55q-129 0 -237.5 46t-187.5 126t-122 187.5t-43 230.5q0 154 58.5 285.5t157 228t225.5 151.5t264 55zM879 1147q-102 0 -197.5 -42t-169.5 -116t-119 -176t-45 -221
q0 -96 33 -178t91 -141.5t138 -94.5t176 -35q102 0 197.5 42t169.5 116t118 175.5t44 221.5q0 94 -32 177t-90 142.5t-138 94.5t-176 35z" />
    <glyph glyph-name="macron" unicode="&#xaf;" horiz-adv-x="655" 
d="M778 1075h-532l30 174h533z" />
    <glyph glyph-name="degree" unicode="&#xb0;" horiz-adv-x="655" 
d="M524 1157q-47 0 -86 -38t-39 -99q0 -45 29 -77t72 -32q47 0 86 38t39 100q0 45 -29 76.5t-72 31.5zM532 1300q55 0 101.5 -19t79 -52t50 -77t17.5 -93q0 -66 -24.5 -119t-64.5 -92t-92 -60.5t-110 -21.5q-55 0 -101 19.5t-79 52t-50 76.5t-17 94q0 63 24.5 117.5t64.5 93
t92 60t109 21.5z" />
    <glyph glyph-name="plusminus" unicode="&#xb1;" horiz-adv-x="952" 
d="M551 1034h215l-55 -317h307l-37 -205h-307l-47 -276h307l-39 -216h-829l38 216h308l47 276h-307l36 205h308z" />
    <glyph glyph-name="uni00B2" unicode="&#xb2;" horiz-adv-x="583" 
d="M475 1004h213l-24 -144h-441l21 113l237 194q43 35 73 61.5t30 61.5q0 23 -17.5 42.5t-50.5 19.5q-29 0 -46 -12.5t-28 -28.5q-10 -18 -16 -41h-145q8 45 31.5 84t57 68.5t74.5 46t84 16.5q109 0 163 -52.5t54 -127.5q0 -49 -25.5 -89t-76.5 -81z" />
    <glyph glyph-name="uni00B3" unicode="&#xb3;" horiz-adv-x="604" 
d="M668 1165q16 -12 28 -28q10 -14 20.5 -35t10.5 -49q0 -39 -16.5 -76t-48 -64.5t-76.5 -45t-103 -17.5q-106 0 -167.5 61.5t-65.5 143.5l153 10q0 -12 4.5 -26.5t13.5 -27t26.5 -20.5t44.5 -8q31 0 57 21.5t26 52.5q0 23 -17 41t-52 18h-70l23 123h67q35 0 52.5 18.5
t17.5 38.5q0 23 -16.5 39.5t-49.5 16.5q-27 0 -43 -11.5t-26 -25.5q-12 -16 -21 -35l-141 10q18 78 82.5 136.5t163.5 58.5q100 0 153.5 -51.5t53.5 -118.5q0 -39 -13.5 -66.5t-29.5 -46.5q-18 -23 -41 -37z" />
    <glyph glyph-name="acute" unicode="&#xb4;" horiz-adv-x="481" 
d="M422 1290h225l-229 -256h-174z" />
    <glyph glyph-name="mu" unicode="&#xb5;" horiz-adv-x="1085" 
d="M424 436q-8 -43 -2 -83t27.5 -70.5t58.5 -49t90 -18.5q78 0 136.5 48t74.5 147l94 532h236l-166 -942h-174l-27 92q-29 -29 -65 -51q-33 -20 -78 -35.5t-99 -15.5q-43 0 -73.5 10t-53.5 25q-25 16 -43 36l-69 -389h-236l224 1270h235z" />
    <glyph glyph-name="paragraph" unicode="&#xb6;" horiz-adv-x="1085" 
d="M1153 1290l-260 -1474h-205l223 1259h-153l-223 -1259h-205l145 819q-59 4 -109.5 31.5t-87 69.5t-57 95.5t-20.5 110.5q0 70 31.5 133.5t83 110.5t116 75.5t131.5 28.5h590z" />
    <glyph glyph-name="periodcentered" unicode="&#xb7;" horiz-adv-x="460" 
d="M367 778q53 0 86.5 -36.5t33.5 -86.5q0 -59 -45 -101t-102 -42q-53 0 -87 37t-34 86q0 59 45.5 101t102.5 42z" />
    <glyph glyph-name="cedilla" unicode="&#xb8;" horiz-adv-x="450" 
d="M219 -84q35 -10 62 -29q23 -16 43 -41.5t20 -66.5q0 -66 -48 -115t-155 -49q-59 0 -102 14.5t-43 16.5l16 92q12 -4 29 -8q14 -4 30.5 -6.5t34.5 -2.5q45 0 71 15.5t26 44.5q0 23 -25.5 42t-79.5 19q-14 0 -26.5 -2t-14.5 -2l99 162h120z" />
    <glyph glyph-name="uni00B9" unicode="&#xb9;" horiz-adv-x="491" 
d="M272 1352l217 123h103l-109 -615h-153l73 420l-79 -41z" />
    <glyph glyph-name="ordmasculine" unicode="&#xba;" horiz-adv-x="675" 
d="M518 1147q-47 0 -87 -41t-40 -113q0 -49 27.5 -80.5t70.5 -31.5q47 0 87 41t40 112q0 49 -27.5 81t-70.5 32zM530 1300q51 0 96.5 -20t79 -56t53 -84t19.5 -102q0 -61 -25.5 -117.5t-67.5 -99.5t-97.5 -68.5t-112.5 -25.5q-51 0 -96 21.5t-79 57.5t-53.5 84t-19.5 101
q0 61 26 117.5t67.5 98.5t96 67.5t113.5 25.5z" />
    <glyph glyph-name="guillemotright" unicode="&#xbb;" horiz-adv-x="972" 
d="M602 788h221l168 -327l-282 -328h-230l287 332zM203 788h221l168 -327l-283 -328h-229l287 332z" />
    <glyph glyph-name="onequarter" unicode="&#xbc;" horiz-adv-x="1187" 
d="M1085 256h72l-24 -143h-72l-21 -113h-153l20 113h-266l21 112l313 389h174zM932 256l31 174l-144 -174h113zM72 0l1015 1290h195l-1016 -1290h-194zM262 1167l217 123h103l-109 -614h-154l74 420l-80 -41z" />
    <glyph glyph-name="onehalf" unicode="&#xbd;" horiz-adv-x="1249" 
d="M926 143h213l-25 -143h-440l20 113l238 194q43 35 73 62t29 61q0 23 -17 42t-50 20q-29 0 -46 -13q-17 -12 -28 -28q-10 -18 -16 -41h-146q8 45 32 84t57 68q34 30 75 46t84 17q109 0 163 -53q54 -52 54 -128q0 -49 -26 -89t-76 -81zM72 0l1015 1290h195l-1016 -1290
h-194zM262 1167l217 123h103l-109 -614h-154l74 420l-80 -41z" />
    <glyph glyph-name="threequarters" unicode="&#xbe;" horiz-adv-x="1288" 
d="M1188 256h72l-25 -143h-72l-20 -113h-154l21 113h-267l21 112l313 389h174zM1034 256l31 174l-143 -174h112zM174 0l1016 1290h194l-1015 -1290h-195zM627 981q16 -12 28 -29q10 -14 21 -34q10 -20 10 -50q0 -39 -16 -75q-16 -37 -48 -65t-77 -45t-103 -17
q-106 0 -168 61q-61 61 -65 143l153 11q0 -12 5 -27q4 -14 13 -27q9 -12 27 -20q17 -8 44 -8q31 0 57 21q27 22 27 52q0 23 -18 41q-17 18 -52 19h-70l23 123h67q35 0 53 18q17 18 17 39q0 23 -16 39t-50 16q-27 0 -43 -11t-26 -26q-12 -16 -21 -34l-141 10q18 78 83 136
t163 58q100 0 153 -51t54 -119q0 -39 -14 -66q-13 -28 -29 -46q-18 -23 -41 -37z" />
    <glyph glyph-name="questiondown" unicode="&#xbf;" horiz-adv-x="921" 
d="M51 -20q0 76 25.5 128t64.5 94t87 76.5t93.5 75.5t80 92.5t51.5 126.5h235q-14 -98 -49 -165.5t-78 -114.5t-89 -81t-83 -64.5t-61.5 -63.5t-24.5 -80q0 -49 39 -83t115 -34q70 0 119 54.5t65 140.5h244q-12 -92 -49 -169t-95.5 -133t-133.5 -87t-163 -31
q-94 0 -166.5 25.5t-123 69.5t-77 102t-26.5 121zM618 942q53 0 87 -37t34 -86q0 -57 -45 -100t-102 -43q-53 0 -87 37t-34 86q0 57 45 100t102 43z" />
    <glyph glyph-name="Agrave" unicode="&#xc0;" horiz-adv-x="1167" 
d="M911 1434h-174l-184 256h225zM248 0h-258l708 1290h226l254 -1290h-254l-45 266h-492zM836 492l-80 471l-248 -471h328z" />
    <glyph glyph-name="Aacute" unicode="&#xc1;" horiz-adv-x="1167" 
d="M928 1690h225l-229 -256h-174zM248 0h-258l708 1290h226l254 -1290h-254l-45 266h-492zM836 492l-80 471l-248 -471h328z" />
    <glyph glyph-name="Acircumflex" unicode="&#xc2;" horiz-adv-x="1167" 
d="M764 1690h205l149 -256h-184l-80 133l-125 -133h-205zM248 0h-258l708 1290h226l254 -1290h-254l-45 266h-492zM836 492l-80 471l-248 -471h328z" />
    <glyph glyph-name="Atilde" unicode="&#xc3;" horiz-adv-x="1167" 
d="M1141 1651q-23 -125 -81 -187q-58 -61 -130 -61q-49 0 -81 16t-55 37q-24 20 -43 37q-19 16 -46 16q-29 0 -52 -25q-23 -26 -32 -73l-123 10q23 125 81 187q58 61 130 61q49 0 81 -16t55 -37q24 -20 43 -37q19 -16 46 -16q29 0 51 25q23 26 33 73zM248 0h-258l708 1290
h226l254 -1290h-254l-45 266h-492zM836 492l-80 471l-248 -471h328z" />
    <glyph glyph-name="Adieresis" unicode="&#xc4;" horiz-adv-x="1167" 
d="M670 1683q53 0 87 -36q34 -37 34 -86q0 -59 -46 -102q-45 -42 -102 -42q-53 0 -87 37t-34 86q0 59 45 101q46 42 103 42zM1038 1683q53 0 87 -36q34 -37 34 -86q0 -59 -45 -102q-45 -42 -102 -42q-53 0 -87 37t-34 86q0 59 45 101t102 42zM248 0h-258l708 1290h226
l254 -1290h-254l-45 266h-492zM836 492l-80 471l-248 -471h328z" />
    <glyph glyph-name="Aring" unicode="&#xc5;" horiz-adv-x="1167" 
d="M858 1753q84 0 132 -50t48 -120q0 -43 -17 -79t-47 -62q-30 -27 -68 -42t-81 -16q-84 0 -132 51q-48 50 -48 119q0 43 18 79q17 36 47 63t67 42q38 15 81 15zM848 1640q-31 0 -54 -22q-24 -23 -24 -57q0 -27 20 -45q19 -18 48 -19q31 0 54 23q24 23 23 57q0 27 -19 45
t-48 18zM248 0h-258l708 1290h226l254 -1290h-254l-45 266h-492zM836 492l-80 471l-248 -471h328z" />
    <glyph glyph-name="AE" unicode="&#xc6;" horiz-adv-x="1710" 
d="M215 0h-266l934 1290h962l-41 -235h-573l-49 -277h522l-41 -235h-522l-56 -307h594l-41 -236h-839l49 276h-430zM582 512h307l96 543h-10z" />
    <glyph glyph-name="Ccedilla" unicode="&#xc7;" horiz-adv-x="1320" 
d="M834 1065q-74 0 -149 -32t-136.5 -93t-100 -149.5t-38.5 -198.5q0 -80 26.5 -147.5t72.5 -115.5t108.5 -76t136.5 -28q57 0 111.5 20.5t100.5 53.5t80.5 73t57.5 79h262q-35 -88 -90 -165t-126 -136.5t-154 -98.5t-173 -53l-55 -82q35 -10 61 -29q23 -16 43.5 -41.5
t20.5 -66.5q0 -66 -48 -115t-155 -49q-59 0 -102 14.5t-43 16.5l16 92q12 -4 29 -8q14 -4 30.5 -6.5t34.5 -2.5q45 0 71 15.5t26 44.5q0 23 -26 42t-79 19q-14 0 -26.5 -2t-14.5 -2l92 154q-115 6 -212 52t-168.5 125t-112.5 183.5t-41 225.5q0 154 59.5 285.5t155.5 229
t221 152.5t256 55q121 0 217 -40.5t166 -106.5t108.5 -147.5t47.5 -165.5h-254q-8 37 -29.5 76.5t-59.5 72.5t-92 54.5t-126 21.5z" />
    <glyph glyph-name="Egrave" unicode="&#xc8;" horiz-adv-x="1116" 
d="M924 1434h-174l-185 256h226zM1085 236l-41 -236h-911l227 1290h891l-41 -235h-645l-49 -277h594l-41 -235h-594l-55 -307h665z" />
    <glyph glyph-name="Eacute" unicode="&#xc9;" horiz-adv-x="1116" 
d="M905 1690h225l-229 -256h-174zM1085 236l-41 -236h-911l227 1290h891l-41 -235h-645l-49 -277h594l-41 -235h-594l-55 -307h665z" />
    <glyph glyph-name="Ecircumflex" unicode="&#xca;" horiz-adv-x="1116" 
d="M772 1690h205l149 -256h-184l-80 133l-125 -133h-205zM1085 236l-41 -236h-911l227 1290h891l-41 -235h-645l-49 -277h594l-41 -235h-594l-55 -307h665z" />
    <glyph glyph-name="Edieresis" unicode="&#xcb;" horiz-adv-x="1116" 
d="M649 1683q53 0 87 -36q34 -37 34 -86q0 -59 -45 -102q-45 -42 -102 -42q-53 0 -87 37t-34 86q0 59 45 101t102 42zM1018 1683q53 0 87 -36q34 -37 34 -86q0 -59 -45 -102q-45 -42 -103 -42q-53 0 -87 37t-34 86q0 59 45 101q46 42 103 42zM1085 236l-41 -236h-911
l227 1290h891l-41 -235h-645l-49 -277h594l-41 -235h-594l-55 -307h665z" />
    <glyph glyph-name="Igrave" unicode="&#xcc;" horiz-adv-x="512" 
d="M584 1434h-174l-185 256h226zM379 0h-246l227 1290h246z" />
    <glyph glyph-name="Iacute" unicode="&#xcd;" horiz-adv-x="512" 
d="M596 1690h225l-229 -256h-174zM379 0h-246l227 1290h246z" />
    <glyph glyph-name="Icircumflex" unicode="&#xce;" horiz-adv-x="512" 
d="M438 1690h205l150 -256h-185l-80 133l-125 -133h-204zM379 0h-246l227 1290h246z" />
    <glyph glyph-name="Idieresis" unicode="&#xcf;" horiz-adv-x="512" 
d="M352 1698q53 0 87 -37t34 -86q0 -59 -45 -101t-102 -42q-53 0 -87 36q-34 37 -34 86q0 59 45 102q45 42 102 42zM721 1698q53 0 87 -37t34 -86q0 -59 -45 -101t-103 -42q-53 0 -87 36q-34 37 -34 86q0 59 45 102q46 42 103 42zM379 0h-246l227 1290h246z" />
    <glyph glyph-name="Eth" unicode="&#xd0;" horiz-adv-x="1290" 
d="M315 737l99 553h409q113 0 209 -50t167 -133t111 -191t40 -220q0 -143 -61 -269q-60 -126 -159 -221q-98 -95 -224 -151q-126 -55 -257 -55h-463l95 532h-166l37 205h163zM672 236q80 0 156 34q77 35 138 96q60 60 98 141t38 173q0 74 -25 141q-25 68 -67 120
q-43 52 -102 83q-58 31 -126 31h-164l-57 -318h225l-36 -205h-226l-51 -296h199z" />
    <glyph glyph-name="Ntilde" unicode="&#xd1;" horiz-adv-x="1300" 
d="M1196 1671q-23 -125 -81 -186t-130 -62q-49 0 -81 17q-32 16 -55 37q-24 20 -43 36t-46 17q-29 0 -51 -26q-23 -26 -33 -72l-123 10q23 125 81 186t130 62q49 0 81 -17q32 -16 55 -37q24 -20 43 -37q19 -16 46 -16q29 0 51 26q23 26 33 72zM1395 1290l-228 -1290h-215
l-426 840l-147 -840h-246l227 1290h215l426 -839l148 839h246z" />
    <glyph glyph-name="Ograve" unicode="&#xd2;" horiz-adv-x="1372" 
d="M969 1434h-174l-185 256h226zM856 1300q121 0 224 -45t180 -125q76 -80 118 -187q43 -108 43 -230q0 -154 -59 -286t-157 -229q-97 -97 -221 -153q-124 -55 -255 -55q-121 0 -224 45t-179 125t-119 187q-43 108 -43 231q0 154 59 285q59 132 157 230q97 97 221 152
t255 55zM834 1065q-78 0 -155 -35t-136 -97t-97 -150q-37 -87 -36 -191q0 -80 26 -148q27 -68 73 -116q46 -49 108 -76t137 -27q78 0 153 35q76 35 135 97t97 150q37 87 37 191q0 80 -26 148t-72 117t-108 75q-62 27 -136 27z" />
    <glyph glyph-name="Oacute" unicode="&#xd3;" horiz-adv-x="1372" 
d="M979 1690h225l-229 -256h-174zM856 1300q121 0 224 -45t180 -125q76 -80 118 -187q43 -108 43 -230q0 -154 -59 -286t-157 -229q-97 -97 -221 -153q-124 -55 -255 -55q-121 0 -224 45t-179 125t-119 187q-43 108 -43 231q0 154 59 285q59 132 157 230q97 97 221 152
t255 55zM834 1065q-78 0 -155 -35t-136 -97t-97 -150q-37 -87 -36 -191q0 -80 26 -148q27 -68 73 -116q46 -49 108 -76t137 -27q78 0 153 35q76 35 135 97t97 150q37 87 37 191q0 80 -26 148t-72 117t-108 75q-62 27 -136 27z" />
    <glyph glyph-name="Ocircumflex" unicode="&#xd4;" horiz-adv-x="1372" 
d="M821 1690h205l150 -256h-185l-80 133l-125 -133h-204zM856 1300q121 0 224 -45t180 -125q76 -80 118 -187q43 -108 43 -230q0 -154 -59 -286t-157 -229q-97 -97 -221 -153q-124 -55 -255 -55q-121 0 -224 45t-179 125t-119 187q-43 108 -43 231q0 154 59 285
q59 132 157 230q97 97 221 152t255 55zM834 1065q-78 0 -155 -35t-136 -97t-97 -150q-37 -87 -36 -191q0 -80 26 -148q27 -68 73 -116q46 -49 108 -76t137 -27q78 0 153 35q76 35 135 97t97 150q37 87 37 191q0 80 -26 148t-72 117t-108 75q-62 27 -136 27z" />
    <glyph glyph-name="Otilde" unicode="&#xd5;" horiz-adv-x="1372" 
d="M1214 1661q-23 -125 -80 -186q-58 -61 -130 -62q-49 0 -81 17q-32 16 -56 36t-43 37q-19 16 -46 17q-29 0 -51 -26q-23 -26 -33 -73l-123 11q23 125 81 186t130 61q49 0 81 -16t56 -37q24 -20 43 -37q19 -16 46 -16q29 0 51 25q23 26 33 73zM856 1300q121 0 224 -45
t180 -125q76 -80 118 -187q43 -108 43 -230q0 -154 -59 -286t-157 -229q-97 -97 -221 -153q-124 -55 -255 -55q-121 0 -224 45t-179 125t-119 187q-43 108 -43 231q0 154 59 285q59 132 157 230q97 97 221 152t255 55zM834 1065q-78 0 -155 -35t-136 -97t-97 -150
q-37 -87 -36 -191q0 -80 26 -148q27 -68 73 -116q46 -49 108 -76t137 -27q78 0 153 35q76 35 135 97t97 150q37 87 37 191q0 80 -26 148t-72 117t-108 75q-62 27 -136 27z" />
    <glyph glyph-name="Odieresis" unicode="&#xd6;" horiz-adv-x="1372" 
d="M739 1683q53 0 87 -36q34 -37 34 -86q0 -59 -45 -102q-45 -42 -102 -42q-53 0 -87 37t-34 86q0 59 45 101t102 42zM1108 1683q53 0 87 -36q34 -37 34 -86q0 -59 -45 -102q-45 -42 -103 -42q-53 0 -87 37t-33 86q0 59 45 101t102 42zM856 1300q121 0 224 -45t180 -125
q76 -80 118 -187q43 -108 43 -230q0 -154 -59 -286t-157 -229q-97 -97 -221 -153q-124 -55 -255 -55q-121 0 -224 45t-179 125t-119 187q-43 108 -43 231q0 154 59 285q59 132 157 230q97 97 221 152t255 55zM834 1065q-78 0 -155 -35t-136 -97t-97 -150q-37 -87 -36 -191
q0 -80 26 -148q27 -68 73 -116q46 -49 108 -76t137 -27q78 0 153 35q76 35 135 97t97 150q37 87 37 191q0 80 -26 148t-72 117t-108 75q-62 27 -136 27z" />
    <glyph glyph-name="multiply" unicode="&#xd7;" horiz-adv-x="921" 
d="M868 297l-168 -143l-172 221l-254 -225l-127 151l256 225l-172 222l168 143l172 -221l254 225l127 -152l-256 -225z" />
    <glyph glyph-name="Oslash" unicode="&#xd8;" horiz-adv-x="1372" 
d="M1358 985q63 -123 63 -272q0 -154 -59 -286t-156.5 -229.5t-221.5 -152.5t-255 -55q-111 0 -206 38t-169 105l-147 -123l-127 170l147 125q-63 127 -63 273q0 154 59.5 285.5t156.5 229t221 152.5t255 55q111 0 206 -38.5t169 -104.5l147 125l127 -172zM1176 698
q0 59 -17 119l-614 -522q88 -70 209 -70q78 0 153.5 35t135 97.5t96.5 149.5t37 191zM834 1065q-78 0 -155 -35t-136.5 -97.5t-96 -149.5t-36.5 -191q0 -59 16 -119l614 522q-43 33 -95 51.5t-111 18.5z" />
    <glyph glyph-name="Ugrave" unicode="&#xd9;" horiz-adv-x="1269" 
d="M979 1434h-174l-184 256h225zM461 516q-6 -35 -6 -61q0 -70 26 -114q27 -44 66 -70t83 -35q44 -10 81 -11q121 0 187 71q67 71 89 189l143 805h246l-145 -823q-18 -111 -68 -199q-49 -88 -120 -150t-160 -95q-90 -33 -193 -33q-109 0 -197 35q-89 35 -152 96
q-62 61 -96 143t-34 176q0 23 2 47q2 25 6 50l133 753h246z" />
    <glyph glyph-name="Uacute" unicode="&#xda;" horiz-adv-x="1269" 
d="M956 1690h226l-230 -256h-174zM461 516q-6 -35 -6 -61q0 -70 26 -114q27 -44 66 -70t83 -35q44 -10 81 -11q121 0 187 71q67 71 89 189l143 805h246l-145 -823q-18 -111 -68 -199q-49 -88 -120 -150t-160 -95q-90 -33 -193 -33q-109 0 -197 35q-89 35 -152 96
q-62 61 -96 143t-34 176q0 23 2 47q2 25 6 50l133 753h246z" />
    <glyph glyph-name="Ucircumflex" unicode="&#xdb;" horiz-adv-x="1269" 
d="M813 1690h205l149 -256h-184l-80 133l-125 -133h-205zM461 516q-6 -35 -6 -61q0 -70 26 -114q27 -44 66 -70t83 -35q44 -10 81 -11q121 0 187 71q67 71 89 189l143 805h246l-145 -823q-18 -111 -68 -199q-49 -88 -120 -150t-160 -95q-90 -33 -193 -33q-109 0 -197 35
q-89 35 -152 96q-62 61 -96 143t-34 176q0 23 2 47q2 25 6 50l133 753h246z" />
    <glyph glyph-name="Udieresis" unicode="&#xdc;" horiz-adv-x="1269" 
d="M721 1681q53 0 87 -36q34 -37 34 -86q0 -59 -45 -102q-45 -42 -103 -42q-53 0 -87 37t-34 86q0 59 45 101q46 42 103 42zM1090 1681q53 0 87 -36q34 -37 33 -86q0 -59 -45 -102q-45 -42 -102 -42q-53 0 -87 37t-34 86q0 59 45 101q46 42 103 42zM461 516q-6 -35 -6 -61
q0 -70 26 -114q27 -44 66 -70t83 -35q44 -10 81 -11q121 0 187 71q67 71 89 189l143 805h246l-145 -823q-18 -111 -68 -199q-49 -88 -120 -150t-160 -95q-90 -33 -193 -33q-109 0 -197 35q-89 35 -152 96q-62 61 -96 143t-34 176q0 23 2 47q2 25 6 50l133 753h246z" />
    <glyph glyph-name="Yacute" unicode="&#xdd;" horiz-adv-x="1126" 
d="M858 1690h225l-229 -256h-174zM1059 1290h274l-571 -798l-86 -492h-246l86 492l-289 798h258l189 -553z" />
    <glyph glyph-name="Thorn" unicode="&#xde;" horiz-adv-x="1228" 
d="M815 481q45 0 86 15.5t73 41t50 60.5t18 74q0 70 -44 124t-117 54h-353l-65 -369h352zM569 1085h353q80 0 147.5 -31.5t116.5 -83.5t75.5 -123t26.5 -147q0 -92 -39 -175t-103.5 -145.5t-150.5 -98t-180 -35.5h-393l-43 -246h-246l227 1290h246z" />
    <glyph glyph-name="germandbls" unicode="&#xdf;" horiz-adv-x="1085" 
d="M930 672q43 -29 80 -70q29 -35 54.5 -88t25.5 -125q0 -84 -34 -154.5t-90.5 -123t-133 -82t-162.5 -29.5h-148l39 215h123q74 0 123 46t49 132q0 61 -35 100t-102 39h-103l39 226h19q76 0 130 50t54 128q0 61 -44 104t-116 43q-63 0 -114.5 -44t-61.5 -107l-164 -932
h-235l166 942q14 76 53 142.5t95.5 113.5t127 74.5t148.5 27.5q90 0 161.5 -27.5t120.5 -74.5t76 -107.5t27 -127.5q0 -72 -27 -126.5t-57 -91.5q-37 -42 -84 -73z" />
    <glyph glyph-name="agrave" unicode="&#xe0;" horiz-adv-x="972" 
d="M752 1065h-174l-185 256h225zM621 952q74 0 138 -22q65 -23 111 -64q47 -41 75 -102t28 -137q0 -37 -6 -76l-97 -551h-174l-26 92q-31 -29 -70 -51q-35 -20 -81 -36q-46 -15 -99 -15q-74 0 -130 19t-95 53t-59 78q-19 44 -19 93q0 94 47 159t129 105t194 58
q113 18 246 18q10 70 -27 117q-38 47 -114 47q-39 0 -66 -16t-43 -35q-20 -23 -32 -51l-240 10q20 63 58 119q38 55 90 97t118 67q66 24 144 24zM461 174q92 0 157 55q66 55 82 140l9 41q-104 0 -173 -10q-69 -9 -109 -27t-56 -46t-17 -63q0 -35 29 -62q29 -28 78 -28z" />
    <glyph glyph-name="aacute" unicode="&#xe1;" horiz-adv-x="972" 
d="M748 1321h225l-230 -256h-174zM621 952q74 0 138 -22q65 -23 111 -64q47 -41 75 -102t28 -137q0 -37 -6 -76l-97 -551h-174l-26 92q-31 -29 -70 -51q-35 -20 -81 -36q-46 -15 -99 -15q-74 0 -130 19t-95 53t-59 78q-19 44 -19 93q0 94 47 159t129 105t194 58
q113 18 246 18q10 70 -27 117q-38 47 -114 47q-39 0 -66 -16t-43 -35q-20 -23 -32 -51l-240 10q20 63 58 119q38 55 90 97t118 67q66 24 144 24zM461 174q92 0 157 55q66 55 82 140l9 41q-104 0 -173 -10q-69 -9 -109 -27t-56 -46t-17 -63q0 -35 29 -62q29 -28 78 -28z" />
    <glyph glyph-name="acircumflex" unicode="&#xe2;" horiz-adv-x="972" 
d="M610 1321h205l150 -256h-185l-80 133l-125 -133h-204zM621 952q74 0 138 -22q65 -23 111 -64q47 -41 75 -102t28 -137q0 -37 -6 -76l-97 -551h-174l-26 92q-31 -29 -70 -51q-35 -20 -81 -36q-46 -15 -99 -15q-74 0 -130 19t-95 53t-59 78q-19 44 -19 93q0 94 47 159
t129 105t194 58q113 18 246 18q10 70 -27 117q-38 47 -114 47q-39 0 -66 -16t-43 -35q-20 -23 -32 -51l-240 10q20 63 58 119q38 55 90 97t118 67q66 24 144 24zM461 174q92 0 157 55q66 55 82 140l9 41q-104 0 -173 -10q-69 -9 -109 -27t-56 -46t-17 -63q0 -35 29 -62
q29 -28 78 -28z" />
    <glyph glyph-name="atilde" unicode="&#xe3;" horiz-adv-x="972" 
d="M1026 1292q-23 -125 -81 -186t-130 -62q-49 0 -81 17q-32 16 -55 37q-24 20 -43 37q-19 16 -46 16q-29 0 -51 -26q-23 -26 -33 -72l-123 10q23 125 81 186t130 62q49 0 81 -17q32 -16 55 -37q24 -20 43 -36t46 -17q29 0 51 26q23 26 33 73zM621 952q74 0 138 -22
q65 -23 111 -64q47 -41 75 -102t28 -137q0 -37 -6 -76l-97 -551h-174l-26 92q-31 -29 -70 -51q-35 -20 -81 -36q-46 -15 -99 -15q-74 0 -130 19t-95 53t-59 78q-19 44 -19 93q0 94 47 159t129 105t194 58q113 18 246 18q10 70 -27 117q-38 47 -114 47q-39 0 -66 -16t-43 -35
q-20 -23 -32 -51l-240 10q20 63 58 119q38 55 90 97t118 67q66 24 144 24zM461 174q92 0 157 55q66 55 82 140l9 41q-104 0 -173 -10q-69 -9 -109 -27t-56 -46t-17 -63q0 -35 29 -62q29 -28 78 -28z" />
    <glyph glyph-name="adieresis" unicode="&#xe4;" horiz-adv-x="972" 
d="M510 1311q53 0 87 -37t34 -86q0 -59 -45 -102q-45 -42 -103 -42q-53 0 -87 37t-34 86q0 59 46 102q45 42 102 42zM879 1311q53 0 87 -37t33 -86q0 -59 -45 -102q-45 -42 -102 -42q-53 0 -87 37t-34 86q0 59 45 102q46 42 103 42zM621 952q74 0 138 -22q65 -23 111 -64
q47 -41 75 -102t28 -137q0 -37 -6 -76l-97 -551h-174l-26 92q-31 -29 -70 -51q-35 -20 -81 -36q-46 -15 -99 -15q-74 0 -130 19t-95 53t-59 78q-19 44 -19 93q0 94 47 159t129 105t194 58q113 18 246 18q10 70 -27 117q-38 47 -114 47q-39 0 -66 -16t-43 -35
q-20 -23 -32 -51l-240 10q20 63 58 119q38 55 90 97t118 67q66 24 144 24zM461 174q92 0 157 55q66 55 82 140l9 41q-104 0 -173 -10q-69 -9 -109 -27t-56 -46t-17 -63q0 -35 29 -62q29 -28 78 -28z" />
    <glyph glyph-name="aring" unicode="&#xe5;" horiz-adv-x="972" 
d="M727 1403q84 0 132 -50t48 -120q0 -43 -17 -79t-47 -62q-30 -27 -68 -42t-81 -16q-84 0 -132 50t-48 120q0 43 17 79t48 63q30 27 67 42q38 15 81 15zM717 1290q-31 0 -54 -22q-24 -23 -24 -58q0 -27 19 -45t49 -18q31 0 54 22q24 23 23 58q0 27 -19 45t-48 18zM621 952
q74 0 138 -22q65 -23 111 -64q47 -41 75 -102t28 -137q0 -37 -6 -76l-97 -551h-174l-26 92q-31 -29 -70 -51q-35 -20 -81 -36q-46 -15 -99 -15q-74 0 -130 19t-95 53t-59 78q-19 44 -19 93q0 94 47 159t129 105t194 58q113 18 246 18q10 70 -27 117q-38 47 -114 47
q-39 0 -66 -16t-43 -35q-20 -23 -32 -51l-240 10q20 63 58 119q38 55 90 97t118 67q66 24 144 24zM461 174q92 0 157 55q66 55 82 140l9 41q-104 0 -173 -10q-69 -9 -109 -27t-56 -46t-17 -63q0 -35 29 -62q29 -28 78 -28z" />
    <glyph glyph-name="ae" unicode="&#xe6;" horiz-adv-x="1619" 
d="M621 952q90 0 164.5 -32.5t121.5 -94.5q72 59 156 93t174 34q88 0 163 -31.5t130 -88t86 -134t31 -170.5q0 -31 -5.5 -57.5t-11.5 -46.5q-8 -23 -16 -45h-649q10 -76 64 -121t145 -45q47 0 78.5 11.5t54.5 25.5q25 16 41 37h245q-18 -49 -59 -102.5t-99.5 -96.5
t-132 -71.5t-157.5 -28.5t-147.5 24.5t-106.5 55.5q-51 35 -88 79q-39 -45 -92 -79q-45 -29 -108.5 -53.5t-141.5 -24.5q-90 0 -154.5 19.5t-106.5 53t-62.5 77.5t-20.5 93q0 94 47 159t129 105t194.5 58t245.5 18q10 70 -27.5 117t-113.5 47q-39 0 -65.5 -16t-43.5 -35
q-20 -23 -32 -51l-240 10q20 63 58 118.5t90.5 97.5t118 66.5t143.5 24.5zM1227 727q-92 0 -161 -53t-97 -131h450q-2 78 -51 131t-141 53zM481 174q92 0 149.5 55.5t74.5 124.5l12 56q-104 0 -174 -9.5t-112 -28t-59.5 -46t-17.5 -62.5t30.5 -62.5t96.5 -27.5z" />
    <glyph glyph-name="ccedilla" unicode="&#xe7;" horiz-adv-x="1034" 
d="M1038 348q-47 -141 -149.5 -236.5t-249.5 -115.5l-53 -80q35 -10 61 -29q23 -16 43.5 -41.5t20.5 -66.5q0 -66 -48.5 -115t-154.5 -49q-59 0 -102.5 14.5t-43.5 16.5l17 92q12 -4 29 -8q14 -4 30.5 -6.5t34.5 -2.5q45 0 70.5 15.5t25.5 44.5q0 23 -25.5 42t-78.5 19
q-14 0 -26.5 -2t-14.5 -2l92 154q-80 8 -148.5 47t-118.5 97.5t-79 133t-29 158.5q0 111 44 206t116 165.5t165 111.5t191 41q84 0 156 -27.5t127 -76.5t91 -114.5t50 -139.5h-241q-14 37 -41 68q-23 25 -63 46t-99 21q-51 0 -98 -20.5t-83 -59.5t-57.5 -92t-21.5 -119
q0 -98 59.5 -161.5t155.5 -63.5q55 0 95 20.5t67 47.5q31 29 51 67h233z" />
    <glyph glyph-name="egrave" unicode="&#xe8;" 
d="M786 1065h-174l-184 256h225zM1028 287q-18 -49 -59 -103q-41 -53 -100 -96q-58 -43 -132 -72t-157 -28q-92 0 -170 35t-135 94q-56 59 -89 140t-32 171q0 109 44 205t116 167q73 71 166 111q93 41 192 41q88 0 163 -31q75 -32 130 -88t86 -135q31 -78 30 -170
q0 -31 -5 -57q-5 -27 -11 -47q-8 -23 -16 -45h-650q10 -76 65 -121q54 -45 144 -45q47 0 79 11t54 26q25 16 41 37h246zM662 727q-92 0 -161 -53t-98 -131h451q-2 78 -51 131t-141 53z" />
    <glyph glyph-name="eacute" unicode="&#xe9;" 
d="M784 1321h226l-230 -256h-174zM1028 287q-18 -49 -59 -103q-41 -53 -100 -96q-58 -43 -132 -72t-157 -28q-92 0 -170 35t-135 94q-56 59 -89 140t-32 171q0 109 44 205t116 167q73 71 166 111q93 41 192 41q88 0 163 -31q75 -32 130 -88t86 -135q31 -78 30 -170
q0 -31 -5 -57q-5 -27 -11 -47q-8 -23 -16 -45h-650q10 -76 65 -121q54 -45 144 -45q47 0 79 11t54 26q25 16 41 37h246zM662 727q-92 0 -161 -53t-98 -131h451q-2 78 -51 131t-141 53z" />
    <glyph glyph-name="ecircumflex" unicode="&#xea;" 
d="M637 1321h205l149 -256h-184l-80 133l-125 -133h-205zM1028 287q-18 -49 -59 -103q-41 -53 -100 -96q-58 -43 -132 -72t-157 -28q-92 0 -170 35t-135 94q-56 59 -89 140t-32 171q0 109 44 205t116 167q73 71 166 111q93 41 192 41q88 0 163 -31q75 -32 130 -88t86 -135
q31 -78 30 -170q0 -31 -5 -57q-5 -27 -11 -47q-8 -23 -16 -45h-650q10 -76 65 -121q54 -45 144 -45q47 0 79 11t54 26q25 16 41 37h246zM662 727q-92 0 -161 -53t-98 -131h451q-2 78 -51 131t-141 53z" />
    <glyph glyph-name="edieresis" unicode="&#xeb;" 
d="M541 1307q53 0 87 -37t34 -86q0 -59 -46 -102q-45 -42 -102 -42q-53 0 -87 37t-34 86q0 59 45 102q46 42 103 42zM909 1307q53 0 87 -37t34 -86q0 -59 -45 -102q-45 -42 -102 -42q-53 0 -87 37t-34 86q0 59 45 102q45 42 102 42zM1028 287q-18 -49 -59 -103
q-41 -53 -100 -96q-58 -43 -132 -72t-157 -28q-92 0 -170 35t-135 94q-56 59 -89 140t-32 171q0 109 44 205t116 167q73 71 166 111q93 41 192 41q88 0 163 -31q75 -32 130 -88t86 -135q31 -78 30 -170q0 -31 -5 -57q-5 -27 -11 -47q-8 -23 -16 -45h-650q10 -76 65 -121
q54 -45 144 -45q47 0 79 11t54 26q25 16 41 37h246zM662 727q-92 0 -161 -53t-98 -131h451q-2 78 -51 131t-141 53z" />
    <glyph glyph-name="igrave" unicode="&#xec;" horiz-adv-x="460" 
d="M348 0h-235l166 942h235zM485 1055h-174l-184 256h225z" />
    <glyph glyph-name="iacute" unicode="&#xed;" horiz-adv-x="460" 
d="M348 0h-235l166 942h235zM504 1311h225l-229 -256h-174z" />
    <glyph glyph-name="icircumflex" unicode="&#xee;" horiz-adv-x="460" 
d="M352 1321h205l150 -256h-185l-80 133l-125 -133h-204zM348 0h-235l166 942h235z" />
    <glyph glyph-name="idieresis" unicode="&#xef;" horiz-adv-x="460" 
d="M348 0h-235l166 942h235zM266 1311q53 0 87 -37t34 -86q0 -59 -45 -102q-45 -42 -102 -42q-53 0 -87 37t-34 86q0 59 45 102q45 42 102 42zM635 1311q53 0 87 -37t34 -86q0 -59 -45 -102q-45 -42 -103 -42q-53 0 -87 37t-34 86q0 59 45 102q46 42 103 42z" />
    <glyph glyph-name="eth" unicode="&#xf0;" horiz-adv-x="1095" 
d="M973 1188q41 -55 76 -131q29 -66 52 -160t23 -221q0 -160 -42 -288t-113.5 -216t-171 -135t-211.5 -47q-98 0 -180 32.5t-140.5 89t-90.5 133.5t-32 167q0 102 41 193t109.5 158.5t158 107.5t185.5 40q76 0 128 -20.5t85 -46t47 -46.5l14 -22q-4 66 -22.5 120t-40.5 95
q-25 47 -55 84l-185 -112l-67 133l127 82q-20 12 -47 22q-23 10 -54.5 20.5t-72.5 18.5l92 174q66 -14 117 -33.5t85 -36.5q41 -23 74 -43l185 113l69 -133zM635 686q-51 0 -97 -20.5t-82 -55.5t-56.5 -83t-20.5 -103q0 -90 60.5 -149.5t158.5 -59.5q51 0 97 20.5t82 55.5
t56.5 83t20.5 103q0 90 -60.5 149.5t-158.5 59.5z" />
    <glyph glyph-name="ntilde" unicode="&#xf1;" horiz-adv-x="1075" 
d="M1069 1303q-23 -125 -81 -187q-58 -61 -130 -61q-49 0 -81 16t-55 37q-24 20 -43 37q-19 16 -46 16q-29 0 -51 -25q-23 -26 -33 -73l-123 10q23 125 81 187q58 61 130 61q49 0 81 -16t55 -37q24 -20 43 -37q19 -16 46 -17q29 0 51 26q23 26 33 73zM479 850q39 29 84 51
q39 18 89 35q50 16 108 16q76 0 134 -27q58 -28 98 -75t61 -109q20 -61 20 -131q0 -23 -2 -44q-2 -22 -6 -44l-92 -522h-236l90 506q8 43 2 83t-27 70q-22 31 -59 50q-37 18 -90 18q-78 0 -136 -48t-75 -147l-94 -532h-235l166 942h174z" />
    <glyph glyph-name="ograve" unicode="&#xf2;" horiz-adv-x="1064" 
d="M782 1055h-174l-184 256h225zM657 952q92 0 171 -34q79 -35 137 -95q57 -59 90 -139t32 -170q0 -111 -44 -206t-116 -166q-73 -71 -165 -111q-92 -41 -191 -41q-92 0 -171 35t-136 94t-90 139t-33 170q0 111 44 206t117 166t165 111q92 41 190 41zM637 729q-49 0 -96 -20
t-84 -60q-37 -39 -59 -92t-21 -119q0 -98 58 -162q58 -63 157 -63q49 0 96 21q47 22 84 60t58 92q22 54 22 120q0 98 -58 161q-59 62 -157 62z" />
    <glyph glyph-name="oacute" unicode="&#xf3;" horiz-adv-x="1064" 
d="M772 1311h225l-229 -256h-174zM657 952q92 0 171 -34q79 -35 137 -95q57 -59 90 -139t32 -170q0 -111 -44 -206t-116 -166q-73 -71 -165 -111q-92 -41 -191 -41q-92 0 -171 35t-136 94t-90 139t-33 170q0 111 44 206t117 166t165 111q92 41 190 41zM637 729
q-49 0 -96 -20t-84 -60q-37 -39 -59 -92t-21 -119q0 -98 58 -162q58 -63 157 -63q49 0 96 21q47 22 84 60t58 92q22 54 22 120q0 98 -58 161q-59 62 -157 62z" />
    <glyph glyph-name="ocircumflex" unicode="&#xf4;" horiz-adv-x="1064" 
d="M627 1321h204l150 -256h-184l-80 133l-125 -133h-205zM657 952q92 0 171 -34q79 -35 137 -95q57 -59 90 -139t32 -170q0 -111 -44 -206t-116 -166q-73 -71 -165 -111q-92 -41 -191 -41q-92 0 -171 35t-136 94t-90 139t-33 170q0 111 44 206t117 166t165 111q92 41 190 41
zM637 729q-49 0 -96 -20t-84 -60q-37 -39 -59 -92t-21 -119q0 -98 58 -162q58 -63 157 -63q49 0 96 21q47 22 84 60t58 92q22 54 22 120q0 98 -58 161q-59 62 -157 62z" />
    <glyph glyph-name="otilde" unicode="&#xf5;" horiz-adv-x="1064" 
d="M1040 1292q-23 -125 -81 -186t-130 -62q-49 0 -80 17q-32 16 -56 37q-24 20 -43 37q-19 16 -46 16q-29 0 -51 -26q-23 -26 -33 -72l-123 10q23 125 81 186t130 62q49 0 81 -17q32 -16 55 -37q24 -20 43 -36t47 -17q29 0 51 26q23 26 33 73zM657 952q92 0 171 -34
q79 -35 137 -95q57 -59 90 -139t32 -170q0 -111 -44 -206t-116 -166q-73 -71 -165 -111q-92 -41 -191 -41q-92 0 -171 35t-136 94t-90 139t-33 170q0 111 44 206t117 166t165 111q92 41 190 41zM637 729q-49 0 -96 -20t-84 -60q-37 -39 -59 -92t-21 -119q0 -98 58 -162
q58 -63 157 -63q49 0 96 21q47 22 84 60t58 92q22 54 22 120q0 98 -58 161q-59 62 -157 62z" />
    <glyph glyph-name="odieresis" unicode="&#xf6;" horiz-adv-x="1064" 
d="M530 1311q53 0 87 -37t34 -86q0 -59 -45 -102q-45 -42 -102 -42q-53 0 -87 37t-34 86q0 59 45 102q45 42 102 42zM899 1311q53 0 87 -37t34 -86q0 -59 -45 -102q-45 -42 -103 -42q-53 0 -87 37t-33 86q0 59 45 102q45 42 102 42zM657 952q92 0 171 -34q79 -35 137 -95
q57 -59 90 -139t32 -170q0 -111 -44 -206t-116 -166q-73 -71 -165 -111q-92 -41 -191 -41q-92 0 -171 35t-136 94t-90 139t-33 170q0 111 44 206t117 166t165 111q92 41 190 41zM637 729q-49 0 -96 -20t-84 -60q-37 -39 -59 -92t-21 -119q0 -98 58 -162q58 -63 157 -63
q49 0 96 21q47 22 84 60t58 92q22 54 22 120q0 98 -58 161q-59 62 -157 62z" />
    <glyph glyph-name="divide" unicode="&#xf7;" horiz-adv-x="942" 
d="M942 420h-799l37 205h799zM633 993q53 0 87 -36.5t34 -86.5q0 -59 -45 -101t-103 -42q-53 0 -87 37t-34 86q0 59 45.5 101t102.5 42zM516 317q53 0 87 -36.5t34 -85.5q0 -59 -45 -101.5t-103 -42.5q-53 0 -86.5 37t-33.5 86q0 59 45 101t102 42z" />
    <glyph glyph-name="oslash" unicode="&#xf8;" horiz-adv-x="1064" 
d="M1042 711q45 -94 45 -197q0 -111 -44 -206t-116.5 -165.5t-164.5 -111.5t-191 -41q-86 0 -158.5 28.5t-127.5 79.5l-121 -98l-101 133l123 98q-45 94 -45 197q0 111 44 206t117 165.5t165 111.5t190 41q86 0 158 -28.5t129 -79.5l121 98l100 -133zM637 729
q-49 0 -96 -20.5t-84 -59.5t-58.5 -92t-21.5 -119q0 -14 1 -26.5t3 -22.5l377 305q-51 35 -121 35zM852 506q0 12 -1 23.5t-3 23.5l-377 -305q53 -35 121 -35q49 0 96 21.5t84 59.5t58.5 92t21.5 120z" />
    <glyph glyph-name="ugrave" unicode="&#xf9;" horiz-adv-x="1071" 
d="M819 1065h-174l-184 256h225zM758 92q-39 -29 -84 -51q-39 -20 -89 -36q-50 -15 -108 -15q-76 0 -134 27q-58 28 -98 75t-61 109q-20 61 -20 131q0 23 2 44q2 22 6 44l92 522h236l-90 -506q-8 -43 -2 -83t27 -70q22 -31 59 -50q37 -18 90 -18q78 0 136 48t75 147l94 532
h235l-166 -942h-174z" />
    <glyph glyph-name="uacute" unicode="&#xfa;" horiz-adv-x="1071" 
d="M797 1321h225l-229 -256h-175zM758 92q-39 -29 -84 -51q-39 -20 -89 -36q-50 -15 -108 -15q-76 0 -134 27q-58 28 -98 75t-61 109q-20 61 -20 131q0 23 2 44q2 22 6 44l92 522h236l-90 -506q-8 -43 -2 -83t27 -70q22 -31 59 -50q37 -18 90 -18q78 0 136 48t75 147l94 532
h235l-166 -942h-174z" />
    <glyph glyph-name="ucircumflex" unicode="&#xfb;" horiz-adv-x="1071" 
d="M653 1321h205l150 -256h-185l-80 133l-125 -133h-204zM758 92q-39 -29 -84 -51q-39 -20 -89 -36q-50 -15 -108 -15q-76 0 -134 27q-58 28 -98 75t-61 109q-20 61 -20 131q0 23 2 44q2 22 6 44l92 522h236l-90 -506q-8 -43 -2 -83t27 -70q22 -31 59 -50q37 -18 90 -18
q78 0 136 48t75 147l94 532h235l-166 -942h-174z" />
    <glyph glyph-name="udieresis" unicode="&#xfc;" horiz-adv-x="1071" 
d="M567 1311q53 0 87 -37t34 -86q0 -59 -45 -102q-45 -42 -102 -42q-53 0 -87 37t-34 86q0 59 45 102q45 42 102 42zM936 1311q53 0 87 -37t34 -86q0 -59 -45 -102q-45 -42 -103 -42q-53 0 -87 37t-34 86q0 59 46 102q45 42 102 42zM758 92q-39 -29 -84 -51q-39 -20 -89 -36
q-50 -15 -108 -15q-76 0 -134 27q-58 28 -98 75t-61 109q-20 61 -20 131q0 23 2 44q2 22 6 44l92 522h236l-90 -506q-8 -43 -2 -83t27 -70q22 -31 59 -50q37 -18 90 -18q78 0 136 48t75 147l94 532h235l-166 -942h-174z" />
    <glyph glyph-name="yacute" unicode="&#xfd;" horiz-adv-x="962" 
d="M721 1321h225l-229 -256h-174zM162 942h239l127 -614l324 614h270q-152 -266 -274 -481q-53 -92 -104 -180q-50 -88 -92 -161t-68 -121q-27 -48 -33 -56q-45 -76 -87 -129t-83 -87t-85 -50q-44 -15 -93 -15q-39 0 -74 9t-35 12l35 190h27q59 2 102 33t76 86l28 49z" />
    <glyph glyph-name="thorn" unicode="&#xfe;" horiz-adv-x="1095" 
d="M729 952q88 0 160 -33.5t123 -92t79.5 -136.5t28.5 -164q0 -117 -43 -215t-111.5 -169.5t-156.5 -111.5t-180 -40q-66 0 -115 17.5t-82 39.5q-37 25 -65 57l-76 -432h-236l285 1618h235l-73 -422q27 23 63 41q31 16 72 29.5t92 13.5zM670 731q-51 0 -98.5 -20.5
t-83 -58.5t-57 -91t-21.5 -121q0 -100 59 -160.5t158 -60.5q51 0 98 20.5t83 58.5t57.5 91t21.5 121q0 100 -59.5 160.5t-157.5 60.5z" />
    <glyph glyph-name="ydieresis" unicode="&#xff;" horiz-adv-x="962" 
d="M500 1315q53 0 87 -37t34 -86q0 -59 -46 -101q-45 -42 -102 -42q-53 0 -87 36q-34 37 -34 86q0 59 45 102q46 42 103 42zM868 1315q53 0 87 -37t34 -86q0 -59 -45 -101t-102 -42q-53 0 -87 36q-34 37 -34 86q0 59 45 102q45 42 102 42zM162 942h239l127 -614l324 614h270
q-152 -266 -274 -481q-53 -92 -104 -180q-50 -88 -92 -161t-68 -121q-27 -48 -33 -56q-45 -76 -87 -129t-83 -87t-85 -50q-44 -15 -93 -15q-39 0 -74 9t-35 12l35 190h27q59 2 102 33t76 86l28 49z" />
    <glyph glyph-name="Amacron" unicode="&#x100;" horiz-adv-x="1167" 
d="M1077 1436h-532l30 174h533zM248 0h-258l708 1290h226l254 -1290h-254l-45 266h-492zM836 492l-80 471l-248 -471h328z" />
    <glyph glyph-name="amacron" unicode="&#x101;" horiz-adv-x="972" 
d="M952 1085h-532l31 175h532zM621 952q74 0 138 -22q65 -23 111 -64q47 -41 75 -102t28 -137q0 -37 -6 -76l-97 -551h-174l-26 92q-31 -29 -70 -51q-35 -20 -81 -36q-46 -15 -99 -15q-74 0 -130 19t-95 53t-59 78q-19 44 -19 93q0 94 47 159t129 105t194 58q113 18 246 18
q10 70 -27 117q-38 47 -114 47q-39 0 -66 -16t-43 -35q-20 -23 -32 -51l-240 10q20 63 58 119q38 55 90 97t118 67q66 24 144 24zM461 174q92 0 157 55q66 55 82 140l9 41q-104 0 -173 -10q-69 -9 -109 -27t-56 -46t-17 -63q0 -35 29 -62q29 -28 78 -28z" />
    <glyph glyph-name="Abreve" unicode="&#x102;" horiz-adv-x="1167" 
d="M745 1669q0 -33 24 -67q24 -35 77 -35q33 0 56 15q24 15 40 36q18 23 29 51h172q-35 -123 -120 -189q-85 -67 -189 -67q-63 0 -113 23q-49 23 -82 58q-33 36 -50 82t-18 93h174v0zM248 0h-258l708 1290h226l254 -1290h-254l-45 266h-492zM836 492l-80 471l-248 -471h328z
" />
    <glyph glyph-name="abreve" unicode="&#x103;" horiz-adv-x="972" 
d="M612 1300q0 -33 24 -67q24 -35 77 -35q33 0 56 15q24 15 40 36q18 23 29 51h172q-35 -123 -120 -189q-85 -67 -190 -67q-63 0 -112 23t-82 58q-33 36 -50 82t-18 93h174v0zM621 952q74 0 138 -22q65 -23 111 -64q47 -41 75 -102t28 -137q0 -37 -6 -76l-97 -551h-174
l-26 92q-31 -29 -70 -51q-35 -20 -81 -36q-46 -15 -99 -15q-74 0 -130 19t-95 53t-59 78q-19 44 -19 93q0 94 47 159t129 105t194 58q113 18 246 18q10 70 -27 117q-38 47 -114 47q-39 0 -66 -16t-43 -35q-20 -23 -32 -51l-240 10q20 63 58 119q38 55 90 97t118 67
q66 24 144 24zM461 174q92 0 157 55q66 55 82 140l9 41q-104 0 -173 -10q-69 -9 -109 -27t-56 -46t-17 -63q0 -35 29 -62q29 -28 78 -28z" />
    <glyph glyph-name="Aogonek" unicode="&#x104;" horiz-adv-x="1167" 
d="M879 266h-492l-139 -266h-258l708 1290h226l254 -1290h-121q-29 -29 -51 -59q-20 -27 -36 -59t-16 -60q0 -37 28 -61.5t77 -24.5h23.5t21.5 2q10 0 20 2l-20 -117q-12 -2 -27 -4q-12 -2 -28.5 -3t-34.5 -1q-106 0 -161.5 50t-55.5 124q0 45 19.5 84t43.5 68q27 33 64 59z
M836 492l-80 471l-248 -471h328z" />
    <glyph glyph-name="aogonek" unicode="&#x105;" horiz-adv-x="972" 
d="M670 92q-31 -29 -70 -51q-35 -20 -81 -35.5t-99 -15.5q-74 0 -130.5 19.5t-95 53t-58 77.5t-19.5 93q0 94 47 159t129 105t194.5 58t245.5 18q10 70 -27.5 117t-113.5 47q-39 0 -65.5 -16t-43.5 -35q-20 -23 -32 -51l-240 10q20 63 58 118.5t90.5 97.5t118 66.5
t143.5 24.5q74 0 138 -22.5t111.5 -63.5t75 -102.5t27.5 -136.5q0 -37 -6 -76l-97 -551h-41q-29 -29 -51 -59q-20 -27 -35.5 -59t-15.5 -60q0 -37 27.5 -61.5t76.5 -24.5h23.5t22.5 2q10 0 20 2l-20 -117q-12 -2 -27 -4q-12 -2 -28.5 -3t-35.5 -1q-106 0 -161.5 50
t-55.5 124q0 45 19.5 84t44.5 68q27 33 63 59zM461 174q92 0 157.5 55.5t81.5 139.5l9 41q-104 0 -173 -9.5t-109 -28t-56.5 -46t-16.5 -62.5t29 -62.5t78 -27.5z" />
    <glyph glyph-name="Cacute" unicode="&#x106;" horiz-adv-x="1320" 
d="M965 1690h225l-229 -256h-175zM834 1065q-74 0 -149 -32t-136 -93t-100 -149t-39 -199q0 -80 26 -148q27 -68 73 -115q46 -48 108 -76t137 -28q57 0 111 21q54 20 101 53q46 33 81 73t57 79h262q-41 -100 -105 -185q-65 -84 -148 -145t-181 -96t-203 -35q-121 0 -223 45
t-179 124t-120 186q-43 108 -43 233q0 154 59 285q59 132 156 230q96 97 221 152t256 55q121 0 217 -40q96 -41 166 -107t109 -147q39 -82 47 -166h-254q-8 37 -30 76q-22 40 -59 73q-38 33 -93 54q-53 22 -125 22z" />
    <glyph glyph-name="cacute" unicode="&#x107;" horiz-adv-x="1034" 
d="M782 1321h226l-230 -256h-174zM1038 348q-27 -78 -70 -144q-44 -67 -105 -114q-60 -47 -135 -74t-163 -26q-90 0 -168 35t-134 95t-89 139t-33 169q0 111 44 206t116 166t165 111q93 41 191 41q84 0 156 -27q72 -28 127 -77t91 -115t50 -139h-241q-14 37 -41 68
q-23 25 -63 46q-40 22 -99 21q-51 0 -98 -20t-83 -60q-36 -39 -58 -92t-21 -119q0 -98 59 -162q59 -63 156 -63q55 0 95 20t67 48q31 29 51 67h233z" />
    <glyph glyph-name="Ccircumflex" unicode="&#x108;" horiz-adv-x="1320" 
d="M831 1690h205l150 -256h-185l-79 133l-125 -133h-205zM834 1065q-74 0 -149 -32t-136 -93t-100 -149t-39 -199q0 -80 26 -148q27 -68 73 -115q46 -48 108 -76t137 -28q57 0 111 21q54 20 101 53q46 33 81 73t57 79h262q-41 -100 -105 -185q-65 -84 -148 -145t-181 -96
t-203 -35q-121 0 -223 45t-179 124t-120 186q-43 108 -43 233q0 154 59 285q59 132 156 230q96 97 221 152t256 55q121 0 217 -40q96 -41 166 -107t109 -147q39 -82 47 -166h-254q-8 37 -30 76q-22 40 -59 73q-38 33 -93 54q-53 22 -125 22z" />
    <glyph glyph-name="ccircumflex" unicode="&#x109;" horiz-adv-x="1034" 
d="M649 1321h205l150 -256h-185l-80 133l-125 -133h-204zM1038 348q-27 -78 -70 -144q-44 -67 -105 -114q-60 -47 -135 -74t-163 -26q-90 0 -168 35t-134 95t-89 139t-33 169q0 111 44 206t116 166t165 111q93 41 191 41q84 0 156 -27q72 -28 127 -77t91 -115t50 -139h-241
q-14 37 -41 68q-23 25 -63 46q-40 22 -99 21q-51 0 -98 -20t-83 -60q-36 -39 -58 -92t-21 -119q0 -98 59 -162q59 -63 156 -63q55 0 95 20t67 48q31 29 51 67h233z" />
    <glyph glyph-name="Ccaron" unicode="&#x10c;" horiz-adv-x="1320" 
d="M981 1434h-205l-149 256h184l80 -134l125 134h205zM834 1065q-74 0 -149 -32t-136 -93t-100 -149t-39 -199q0 -80 26 -148q27 -68 73 -115q46 -48 108 -76t137 -28q57 0 111 21q54 20 101 53q46 33 81 73t57 79h262q-41 -100 -105 -185q-65 -84 -148 -145t-181 -96
t-203 -35q-121 0 -223 45t-179 124t-120 186q-43 108 -43 233q0 154 59 285q59 132 156 230q96 97 221 152t256 55q121 0 217 -40q96 -41 166 -107t109 -147q39 -82 47 -166h-254q-8 37 -30 76q-22 40 -59 73q-38 33 -93 54q-53 22 -125 22z" />
    <glyph glyph-name="ccaron" unicode="&#x10d;" horiz-adv-x="1034" 
d="M807 1065h-205l-149 256h184l80 -133l125 133h205zM1038 348q-27 -78 -70 -144q-44 -67 -105 -114q-60 -47 -135 -74t-163 -26q-90 0 -168 35t-134 95t-89 139t-33 169q0 111 44 206t116 166t165 111q93 41 191 41q84 0 156 -27q72 -28 127 -77t91 -115t50 -139h-241
q-14 37 -41 68q-23 25 -63 46q-40 22 -99 21q-51 0 -98 -20t-83 -60q-36 -39 -58 -92t-21 -119q0 -98 59 -162q59 -63 156 -63q55 0 95 20t67 48q31 29 51 67h233z" />
    <glyph glyph-name="Dcaron" unicode="&#x10e;" horiz-adv-x="1239" 
d="M899 1434h-205l-149 256h184l80 -134l125 134h205zM618 236q80 0 157 34q77 35 137 96q60 60 99 141q38 81 38 173q0 74 -25 141q-25 68 -68 120t-101 83t-126 31h-164l-145 -819h198zM133 0l227 1290h410q113 0 209 -50t167 -133t110 -191q40 -108 40 -220
q0 -143 -60 -269t-159 -221q-98 -95 -224 -151q-126 -55 -257 -55h-463z" />
    <glyph glyph-name="dcaron" unicode="&#x10f;" horiz-adv-x="1290" 
d="M1372 1290h205l-168 -256h-154zM532 -10q-88 0 -159.5 33.5t-122.5 92t-80 136.5t-29 164q0 117 43 215t112 169.5t157 111.5t180 40q66 0 115 -17t81 -40q37 -25 66 -57l80 452h235l-227 -1290h-174l-27 92q-33 -29 -71 -51q-35 -20 -80.5 -35.5t-98.5 -15.5zM592 211
q51 0 98 20.5t83 58.5t57.5 91t21.5 121q0 100 -59.5 160.5t-157.5 60.5q-51 0 -98.5 -20.5t-83 -58.5t-57 -91t-21.5 -121q0 -100 59.5 -160.5t157.5 -60.5z" />
    <glyph glyph-name="Dcroat" unicode="&#x110;" horiz-adv-x="1290" 
d="M315 737l99 553h409q113 0 209 -50t167 -133t111 -190.5t40 -220.5q0 -143 -60.5 -269t-159 -221t-224.5 -150.5t-257 -55.5h-463l95 532h-166l37 205h163zM672 236q80 0 156.5 34.5t137 95t98.5 141.5t38 173q0 74 -24.5 141.5t-67.5 119.5t-101.5 83t-126.5 31h-164
l-57 -318h225l-36 -205h-226l-51 -296h199z" />
    <glyph glyph-name="dcroat" unicode="&#x111;" horiz-adv-x="1105" 
d="M1264 952h-144l-168 -952h-174l-26 92q-35 -29 -72 -51q-33 -20 -75 -35.5t-89 -15.5q-84 0 -153.5 32.5t-119.5 87t-79 127t-29 152.5q0 102 40 190.5t105.5 154t151.5 102t176 36.5q57 0 103.5 -18t77 -39.5t47 -40t16.5 -16.5l33 194h-236l35 195h236l26 143h236
l-27 -143h143zM604 645q-47 0 -89 -18.5t-73.5 -50t-50 -74.5t-18.5 -94q0 -82 54 -137.5t146 -55.5q47 0 89.5 18.5t74 50t50 74.5t18.5 95q0 82 -54.5 137t-146.5 55z" />
    <glyph glyph-name="Emacron" unicode="&#x112;" horiz-adv-x="1116" 
d="M1096 1454h-533l31 174h532zM1085 236l-41 -236h-911l227 1290h891l-41 -235h-645l-49 -277h594l-41 -235h-594l-55 -307h665z" />
    <glyph glyph-name="emacron" unicode="&#x113;" 
d="M963 1085h-533l31 175h532zM1028 287q-18 -49 -59 -103q-41 -53 -100 -96q-58 -43 -132 -72t-157 -28q-92 0 -170 35t-135 94q-56 59 -89 140t-32 171q0 109 44 205t116 167q73 71 166 111q93 41 192 41q88 0 163 -31q75 -32 130 -88t86 -135q31 -78 30 -170
q0 -31 -5 -57q-5 -27 -11 -47q-8 -23 -16 -45h-650q10 -76 65 -121q54 -45 144 -45q47 0 79 11t54 26q25 16 41 37h246zM662 727q-92 0 -161 -53t-98 -131h451q-2 78 -51 131t-141 53z" />
    <glyph glyph-name="Edotaccent" unicode="&#x116;" horiz-adv-x="1116" 
d="M864 1690q53 0 87 -37t34 -86q0 -59 -45 -102q-45 -42 -102 -42q-53 0 -87 37t-34 86q0 59 45 102q45 42 102 42zM1085 236l-41 -236h-911l227 1290h891l-41 -235h-645l-49 -277h594l-41 -235h-594l-55 -307h665z" />
    <glyph glyph-name="edotaccent" unicode="&#x117;" 
d="M719 1331q53 0 87 -37t34 -86q0 -59 -45 -101t-103 -42q-53 0 -87 37t-34 86q0 59 45 101q46 42 103 42zM1028 287q-18 -49 -59 -103q-41 -53 -100 -96q-58 -43 -132 -72t-157 -28q-92 0 -170 35t-135 94q-56 59 -89 140t-32 171q0 109 44 205t116 167q73 71 166 111
q93 41 192 41q88 0 163 -31q75 -32 130 -88t86 -135q31 -78 30 -170q0 -31 -5 -57q-5 -27 -11 -47q-8 -23 -16 -45h-650q10 -76 65 -121q54 -45 144 -45q47 0 79 11t54 26q25 16 41 37h246zM662 727q-92 0 -161 -53t-98 -131h451q-2 78 -51 131t-141 53z" />
    <glyph glyph-name="Eogonek" unicode="&#x118;" horiz-adv-x="1116" 
d="M133 0l227 1290h891l-41 -235h-645l-49 -277h594l-41 -235h-594l-55 -307h665l-41 -236q-29 -29 -51 -59q-20 -27 -35.5 -59t-15.5 -60q0 -37 27.5 -61.5t77.5 -24.5h23t22 2q10 0 20 2l-20 -117q-12 -2 -27 -4q-12 -2 -28.5 -3t-35.5 -1q-106 0 -161.5 50t-55.5 124
q0 45 19.5 84t44.5 68q27 33 63 59h-778z" />
    <glyph glyph-name="eogonek" unicode="&#x119;" 
d="M1028 287q-18 -45 -54 -94.5t-88 -91.5t-116.5 -71.5t-140.5 -37.5q-8 -8 -23.5 -25.5t-31 -41t-26.5 -51.5t-11 -52q0 -37 27.5 -61.5t76.5 -24.5h23.5t21.5 2q10 0 21 2l-21 -117q-12 -2 -27 -4q-12 -2 -28.5 -3t-34.5 -1q-106 0 -161.5 50t-55.5 124q0 39 15.5 74
t36 62.5t39.5 46t30 24.5q-76 14 -139.5 53t-109.5 96.5t-71.5 130t-25.5 152.5q0 109 44 205t116.5 166.5t165.5 111.5t192 41q88 0 162.5 -31.5t130 -88t86 -134t30.5 -170.5q0 -31 -5 -57.5t-11 -46.5q-8 -23 -16 -45h-650q10 -76 64.5 -121t144.5 -45q47 0 79 11.5
t54 25.5q25 16 41 37h246zM662 727q-92 0 -161 -53t-98 -131h451q-2 78 -51 131t-141 53z" />
    <glyph glyph-name="Ecaron" unicode="&#x11a;" horiz-adv-x="1116" 
d="M940 1434h-205l-149 256h184l80 -134l125 134h205zM1085 236l-41 -236h-911l227 1290h891l-41 -235h-645l-49 -277h594l-41 -235h-594l-55 -307h665z" />
    <glyph glyph-name="ecaron" unicode="&#x11b;" 
d="M786 1065h-204l-150 256h184l80 -133l125 133h205zM1028 287q-18 -49 -59 -103q-41 -53 -100 -96q-58 -43 -132 -72t-157 -28q-92 0 -170 35t-135 94q-56 59 -89 140t-32 171q0 109 44 205t116 167q73 71 166 111q93 41 192 41q88 0 163 -31q75 -32 130 -88t86 -135
q31 -78 30 -170q0 -31 -5 -57q-5 -27 -11 -47q-8 -23 -16 -45h-650q10 -76 65 -121q54 -45 144 -45q47 0 79 11t54 26q25 16 41 37h246zM662 727q-92 0 -161 -53t-98 -131h451q-2 78 -51 131t-141 53z" />
    <glyph glyph-name="Gbreve" unicode="&#x11e;" horiz-adv-x="1392" 
d="M829 1669q0 -33 24 -67q24 -35 77 -35q33 0 56 15q24 15 40 36q18 23 29 51h172q-35 -123 -120 -189q-85 -67 -189 -67q-63 0 -113 23q-49 23 -82 58q-33 36 -50 82t-18 93h174v0zM729 -10q-121 0 -223 45t-179 124t-120 186q-43 108 -43 233q0 154 59 285
q59 132 156 230q96 97 221 152t256 55q121 0 218 -39q97 -40 168 -105t113 -147q42 -83 52 -169h-254q-10 37 -35 76q-25 40 -63 73q-39 33 -94 54q-55 22 -127 22q-74 0 -149 -32t-136 -93t-100 -149t-39 -199q0 -80 26 -148q27 -68 73 -115q46 -48 108 -76t137 -28
q92 0 156 36q65 36 106 81q49 53 78 119h-338l39 215h604l-119 -676h-174l-29 117q-47 -37 -100 -64q-47 -25 -111 -44q-63 -19 -137 -19z" />
    <glyph glyph-name="gbreve" unicode="&#x11f;" horiz-adv-x="1085" 
d="M633 1300q0 -33 23 -67q24 -35 77 -35q33 0 57 15t39 36q18 23 29 51h172q-35 -123 -120 -189q-85 -67 -189 -67q-63 0 -113 23q-49 23 -82 58q-33 36 -50 82t-17 93h174v0zM618 952q72 0 123 -20t86 -43q39 -27 66 -62l72 115h174l-162 -922q-31 -172 -150 -270
t-311 -98q-90 0 -157 22q-67 23 -113 57q-47 34 -77 73q-30 40 -46 74t-23 57l-6 24h244q8 -27 31 -47q20 -16 57 -31q37 -14 98 -14q90 0 148 48q57 48 71 126l13 74q-29 -25 -66 -43q-31 -16 -73 -29q-42 -12 -93 -12q-80 0 -147 31q-68 32 -118 86t-79 130
q-29 75 -28 160q0 113 39 207q40 94 106 163t149 106q84 38 172 38zM637 723q-49 0 -94 -20q-45 -19 -80 -54t-55 -83t-21 -103q0 -90 57 -151q57 -60 148 -60q49 0 94 19t80 55q35 35 55 83t21 103q0 90 -58 151q-57 60 -147 60z" />
    <glyph glyph-name="uni0122" unicode="&#x122;" horiz-adv-x="1392" 
d="M723 -123q57 0 89 -39t32 -90q0 -68 -32 -121t-73 -92t-83 -61q-42 -23 -60 -31l-33 55q29 14 53 35q23 16 41 39t29 49q-53 4 -82 36t-29 77q0 57 46 100q45 43 102 43zM729 -10q-121 0 -223 45t-179 124t-120 186q-43 108 -43 233q0 154 59 285q59 132 156 230
q96 97 221 152t256 55q121 0 218 -39q97 -40 168 -105t113 -147q42 -83 52 -169h-254q-10 37 -35 76q-25 40 -63 73q-39 33 -94 54q-55 22 -127 22q-74 0 -149 -32t-136 -93t-100 -149t-39 -199q0 -80 26 -148q27 -68 73 -115q46 -48 108 -76t137 -28q92 0 156 36
q65 36 106 81q49 53 78 119h-338l39 215h604l-119 -676h-174l-29 117q-47 -37 -100 -64q-47 -25 -111 -44q-63 -19 -137 -19z" />
    <glyph glyph-name="uni0123" unicode="&#x123;" horiz-adv-x="1085" 
d="M711 1044q-57 0 -89 39t-32 91q0 68 31.5 121t72.5 91.5t83 61t61 31.5l32 -56q-29 -14 -53 -34q-23 -16 -42 -39t-27 -50q53 -4 81.5 -35.5t28.5 -76.5q0 -57 -45 -100.5t-102 -43.5zM618 952q72 0 123.5 -20.5t85.5 -42.5q39 -27 66 -62l72 115h174l-162 -922
q-31 -172 -149.5 -270t-311.5 -98q-90 0 -156.5 22.5t-113.5 56t-77 73.5t-46.5 74t-22.5 58l-6 23h244q8 -27 31 -47q20 -16 57 -30.5t98 -14.5q90 0 147.5 48t71.5 126l13 74q-29 -25 -66 -43q-31 -16 -73 -28.5t-93 -12.5q-80 0 -147.5 31.5t-117.5 86t-78.5 129
t-28.5 160.5q0 113 39.5 207t105 163t149.5 106.5t172 37.5zM637 723q-49 0 -94 -19.5t-80 -54.5t-55.5 -83t-20.5 -103q0 -90 57.5 -150.5t147.5 -60.5q49 0 94 19.5t80 54t55.5 83t20.5 103.5q0 90 -57.5 150.5t-147.5 60.5z" />
    <glyph glyph-name="Imacron" unicode="&#x12a;" horiz-adv-x="512" 
d="M766 1444h-533l31 174h533zM379 0h-246l227 1290h246z" />
    <glyph glyph-name="imacron" unicode="&#x12b;" horiz-adv-x="460" 
d="M348 0h-235l166 942h235zM676 1085h-533l31 175h533z" />
    <glyph glyph-name="Iogonek" unicode="&#x12e;" horiz-adv-x="512" 
d="M360 1290h246l-227 -1290h-113q-29 -29 -51 -59q-20 -27 -35.5 -59t-15.5 -60q0 -37 27.5 -61.5t76.5 -24.5h23.5t21.5 2q10 0 21 2l-21 -117q-12 -2 -26 -4q-12 -2 -28.5 -3t-35.5 -1q-106 0 -161.5 50t-55.5 124q0 45 19.5 84t44.5 68q27 33 63 59z" />
    <glyph glyph-name="iogonek" unicode="&#x12f;" horiz-adv-x="460" 
d="M279 942h235l-166 -942h-102q-29 -29 -51 -59q-20 -27 -36 -59t-16 -60q0 -37 28 -61.5t77 -24.5h23.5t21.5 2q10 0 20 2l-20 -117q-12 -2 -27 -4q-12 -2 -28.5 -3t-34.5 -1q-106 0 -161.5 50t-55.5 124q0 45 19.5 84t43.5 68q27 33 64 59zM436 1065q-53 0 -87 37t-34 86
q0 59 45.5 101t100.5 42q53 0 87 -37t34 -86q0 -59 -45.5 -101t-100.5 -42z" />
    <glyph glyph-name="Idotaccent" unicode="&#x130;" horiz-adv-x="512" 
d="M532 1679q53 0 88 -37q34 -37 33 -86q0 -59 -45 -101t-102 -42q-53 0 -87 37t-34 86q0 59 45 101t102 42zM379 0h-246l227 1290h246z" />
    <glyph glyph-name="dotlessi" unicode="&#x131;" horiz-adv-x="460" 
d="M348 0h-235l166 942h235z" />
    <glyph glyph-name="ij" unicode="&#x133;" horiz-adv-x="942" 
d="M827 -16q-12 -72 -42.5 -130.5t-76.5 -98.5t-102.5 -61.5t-120.5 -21.5q-29 0 -53 5.5t-43 11.5q-23 8 -41 16l35 205q8 -4 18 -8t22.5 -6t33.5 -2q55 0 92 30.5t47 89.5l8 47q-16 -12 -39 -20q-20 -8 -52 -14.5t-79 -6.5q-121 0 -192.5 70t-71.5 193q0 35 6 75l103 584
h235l-100 -573q-10 -61 18.5 -97t89.5 -36q47 0 79 12t38 16l121 678h235zM436 1065q-53 0 -87 37t-34 86q0 59 45.5 101t100.5 42q53 0 87 -37t34 -86q0 -59 -45.5 -101t-100.5 -42zM918 1065q-53 0 -87 37t-34 86q0 59 45 101t100 42q53 0 87 -37t34 -86q0 -59 -45 -101
t-100 -42z" />
    <glyph glyph-name="uni0136" unicode="&#x136;" horiz-adv-x="1095" 
d="M616 -113q57 0 90 -39q32 -39 31 -90q0 -68 -31 -120q-32 -53 -73 -93q-41 -39 -83 -61q-42 -23 -61 -31l-32 55q29 14 53 35q23 16 41 39t29 49q-53 4 -82 36t-29 77q0 57 45 100t102 43zM1126 0h-286l-359 584l-102 -584h-246l227 1290h246l-100 -573l530 573h293
l-598 -639z" />
    <glyph glyph-name="uni0137" unicode="&#x137;" horiz-adv-x="911" 
d="M508 -113q57 0 89 -39t32 -90q0 -68 -32 -120q-32 -53 -73 -93q-41 -39 -83 -61q-42 -23 -60 -31l-33 55q29 14 53 35q23 16 41 39t29 49q-53 4 -82 36t-29 77q0 57 46 100q45 43 102 43zM676 0l-252 430l-76 -430h-235l227 1290h235l-129 -737l355 389h268l-422 -455
l291 -487h-262z" />
    <glyph glyph-name="Lacute" unicode="&#x139;" horiz-adv-x="1013" 
d="M596 1690h225l-229 -256h-174zM1024 236l-41 -236h-850l227 1290h246l-186 -1054h604z" />
    <glyph glyph-name="lacute" unicode="&#x13a;" horiz-adv-x="460" 
d="M586 1690h225l-229 -256h-174zM348 0h-235l227 1290h235z" />
    <glyph glyph-name="uni013B" unicode="&#x13b;" horiz-adv-x="1013" 
d="M578 -113q57 0 89 -39t31 -90q0 -68 -31 -120q-32 -53 -73 -93q-41 -39 -83 -61q-42 -23 -60 -31l-33 55q29 14 53 35q23 16 41 39t29 49q-53 4 -82 36t-29 77q0 57 45 100q46 43 103 43zM1024 236l-41 -236h-850l227 1290h246l-186 -1054h604z" />
    <glyph glyph-name="uni013C" unicode="&#x13c;" horiz-adv-x="460" 
d="M211 -113q57 0 89 -39t32 -90q0 -68 -32 -120q-32 -53 -73 -93q-41 -39 -83 -61q-42 -23 -60 -31l-33 55q29 14 53 35q23 16 41 39t29 49q-53 4 -82 36t-29 77q0 57 46 100q45 43 102 43zM348 0h-235l227 1290h235z" />
    <glyph glyph-name="Lcaron" unicode="&#x13d;" horiz-adv-x="1013" 
d="M788 1290h205l-168 -256h-153zM1024 236l-41 -236h-850l227 1290h246l-186 -1054h604z" />
    <glyph glyph-name="lcaron" unicode="&#x13e;" horiz-adv-x="655" 
d="M737 1290h205l-168 -256h-153zM348 0h-235l227 1290h235z" />
    <glyph glyph-name="Lslash" unicode="&#x141;" 
d="M1053 236l-41 -236h-850l63 358l-157 -92l38 226l158 92l125 706h246l-96 -547l321 189l-39 -225l-323 -189l-49 -282h604z" />
    <glyph glyph-name="lslash" unicode="&#x142;" horiz-adv-x="583" 
d="M559 850l172 102l-39 -225l-172 -102l-110 -625h-236l82 469l-170 -100l39 225l172 100l104 596h236z" />
    <glyph glyph-name="Nacute" unicode="&#x143;" horiz-adv-x="1300" 
d="M956 1690h226l-230 -256h-174zM1395 1290l-228 -1290h-215l-426 840l-147 -840h-246l227 1290h215l426 -839l148 839h246z" />
    <glyph glyph-name="nacute" unicode="&#x144;" horiz-adv-x="1075" 
d="M811 1321h225l-229 -256h-174zM479 850q39 29 84 51q39 18 89 35q50 16 108 16q76 0 134 -27q58 -28 98 -75t61 -109q20 -61 20 -131q0 -23 -2 -44q-2 -22 -6 -44l-92 -522h-236l90 506q8 43 2 83t-27 70q-22 31 -59 50q-37 18 -90 18q-78 0 -136 -48t-75 -147l-94 -532
h-235l166 942h174z" />
    <glyph glyph-name="uni0145" unicode="&#x145;" horiz-adv-x="1300" 
d="M672 -113q57 0 89 -39t32 -90q0 -68 -32 -120q-32 -53 -73 -93q-41 -39 -83 -61q-42 -23 -60 -31l-33 55q29 14 53 35q23 16 41 39t29 49q-53 4 -82 36t-29 77q0 57 45 100q46 43 103 43zM1395 1290l-228 -1290h-215l-426 840l-147 -840h-246l227 1290h215l426 -839
l148 839h246z" />
    <glyph glyph-name="uni0146" unicode="&#x146;" horiz-adv-x="1075" 
d="M549 -113q57 0 89 -39t32 -90q0 -68 -32 -120q-32 -53 -73 -93q-41 -39 -83 -61q-42 -23 -60 -31l-33 55q29 14 53 35q23 16 41 39t29 49q-53 4 -82 36t-29 77q0 57 45 100q46 43 103 43zM479 850q39 29 84 51q39 18 89 35q50 16 108 16q76 0 134 -27q58 -28 98 -75
t61 -109q20 -61 20 -131q0 -23 -2 -44q-2 -22 -6 -44l-92 -522h-236l90 506q8 43 2 83t-27 70q-22 31 -59 50q-37 18 -90 18q-78 0 -136 -48t-75 -147l-94 -532h-235l166 942h174z" />
    <glyph glyph-name="Ncaron" unicode="&#x147;" horiz-adv-x="1300" 
d="M997 1434h-204l-150 256h184l80 -134l125 134h205zM1395 1290l-228 -1290h-215l-426 840l-147 -840h-246l227 1290h215l426 -839l148 839h246z" />
    <glyph glyph-name="ncaron" unicode="&#x148;" horiz-adv-x="1075" 
d="M834 1065h-205l-150 256h185l79 -133l125 133h205zM479 850q39 29 84 51q39 18 89 35q50 16 108 16q76 0 134 -27q58 -28 98 -75t61 -109q20 -61 20 -131q0 -23 -2 -44q-2 -22 -6 -44l-92 -522h-236l90 506q8 43 2 83t-27 70q-22 31 -59 50q-37 18 -90 18q-78 0 -136 -48
t-75 -147l-94 -532h-235l166 942h174z" />
    <glyph glyph-name="Omacron" unicode="&#x14c;" horiz-adv-x="1372" 
d="M1157 1444h-532l30 174h533zM856 1300q121 0 224 -45t180 -125q76 -80 118 -187q43 -108 43 -230q0 -154 -59 -286t-157 -229q-97 -97 -221 -153q-124 -55 -255 -55q-121 0 -224 45t-179 125t-119 187q-43 108 -43 231q0 154 59 285q59 132 157 230q97 97 221 152t255 55
zM834 1065q-78 0 -155 -35t-136 -97t-97 -150q-37 -87 -36 -191q0 -80 26 -148q27 -68 73 -116q46 -49 108 -76t137 -27q78 0 153 35q76 35 135 97t97 150q37 87 37 191q0 80 -26 148t-72 117t-108 75q-62 27 -136 27z" />
    <glyph glyph-name="omacron" unicode="&#x14d;" horiz-adv-x="1064" 
d="M942 1075h-532l30 174h533zM657 952q92 0 171 -34q79 -35 137 -95q57 -59 90 -139t32 -170q0 -111 -44 -206t-116 -166q-73 -71 -165 -111q-92 -41 -191 -41q-92 0 -171 35t-136 94t-90 139t-33 170q0 111 44 206t117 166t165 111q92 41 190 41zM637 729q-49 0 -96 -20
t-84 -60q-37 -39 -59 -92t-21 -119q0 -98 58 -162q58 -63 157 -63q49 0 96 21q47 22 84 60t58 92q22 54 22 120q0 98 -58 161q-59 62 -157 62z" />
    <glyph glyph-name="Ohungarumlaut" unicode="&#x150;" horiz-adv-x="1372" 
d="M831 1690h226l-240 -256h-174zM1159 1690h225l-239 -256h-174zM856 1300q121 0 224 -45t180 -125q76 -80 118 -187q43 -108 43 -230q0 -154 -59 -286t-157 -229q-97 -97 -221 -153q-124 -55 -255 -55q-121 0 -224 45t-179 125t-119 187q-43 108 -43 231q0 154 59 285
q59 132 157 230q97 97 221 152t255 55zM834 1065q-78 0 -155 -35t-136 -97t-97 -150q-37 -87 -36 -191q0 -80 26 -148q27 -68 73 -116q46 -49 108 -76t137 -27q78 0 153 35q76 35 135 97t97 150q37 87 37 191q0 80 -26 148t-72 117t-108 75q-62 27 -136 27z" />
    <glyph glyph-name="ohungarumlaut" unicode="&#x151;" horiz-adv-x="1064" 
d="M621 1311h225l-240 -256h-174zM948 1311h226l-240 -256h-174zM657 952q92 0 171 -34q79 -35 137 -95q57 -59 90 -139t32 -170q0 -111 -44 -206t-116 -166q-73 -71 -165 -111q-92 -41 -191 -41q-92 0 -171 35t-136 94t-90 139t-33 170q0 111 44 206t117 166t165 111
q92 41 190 41zM637 729q-49 0 -96 -20t-84 -60q-37 -39 -59 -92t-21 -119q0 -98 58 -162q58 -63 157 -63q49 0 96 21q47 22 84 60t58 92q22 54 22 120q0 98 -58 161q-59 62 -157 62z" />
    <glyph glyph-name="OE" unicode="&#x152;" horiz-adv-x="1720" 
d="M1690 236l-41 -236h-953q-113 0 -209 50t-166.5 133t-110.5 189.5t-40 221.5q0 141 60.5 267t158.5 221.5t224 151.5t259 56h983l-40 -235h-574l-49 -277h522l-41 -235h-522l-55 -307h594zM850 236l145 819h-145q-80 0 -157 -35t-138 -96.5t-99 -143.5t-38 -174
q0 -72 24.5 -139.5t67.5 -118.5t101.5 -81.5t125.5 -30.5h113z" />
    <glyph glyph-name="oe" unicode="&#x153;" horiz-adv-x="1742" 
d="M657 952q106 0 194.5 -45t145.5 -123q74 78 171.5 123t201.5 45q88 0 163 -31.5t130 -88t86 -134t31 -170.5q0 -31 -5.5 -57.5t-11.5 -46.5q-8 -23 -16 -45h-649q10 -76 64.5 -121t144.5 -45q47 0 78.5 11.5t54.5 25.5q25 16 41 37h245q-18 -49 -59 -102.5t-99.5 -96.5
t-132 -71.5t-157.5 -28.5q-106 0 -192.5 45t-145.5 123q-74 -78 -170 -122t-199 -44q-92 0 -170.5 34.5t-136 94t-90.5 139.5t-33 170q0 111 44 206t117 165.5t165 111.5t190 41zM637 729q-49 0 -96 -20.5t-84 -59.5t-58.5 -92t-21.5 -119q0 -98 58.5 -161.5t156.5 -63.5
q49 0 96 21.5t84 59.5t58.5 92t21.5 120q0 98 -58.5 160.5t-156.5 62.5zM1360 727q-92 0 -161 -53t-97 -131h450q-2 78 -51 131t-141 53z" />
    <glyph glyph-name="Racute" unicode="&#x154;" horiz-adv-x="1146" 
d="M905 1690h225l-229 -256h-174zM647 471h-184l-84 -471h-246l227 1290h514q82 0 149 -32t114 -82q47 -51 73 -118q27 -67 27 -136q0 -66 -15 -118t-40 -94t-56 -74t-63 -54q-76 -53 -172 -80l215 -502h-277zM504 707h284q39 0 76 14t65 40t44 59q16 34 16 71q0 61 -43 113
q-43 51 -112 51h-269z" />
    <glyph glyph-name="racute" unicode="&#x155;" horiz-adv-x="665" 
d="M647 1311h225l-229 -256h-174zM721 952q16 0 28 -2q11 -2 21 -4t21 -4l-43 -246q-8 2 -21 4q-10 2 -26 5q-15 2 -33 2q-86 0 -151 -57q-65 -56 -81 -148l-88 -502h-235l166 942h174l22 -102q33 31 70 55q33 23 78 40t98 17z" />
    <glyph glyph-name="uni0156" unicode="&#x156;" horiz-adv-x="1146" 
d="M618 -113q57 0 90 -39q32 -39 31 -90q0 -68 -31 -120q-32 -53 -73 -93q-41 -39 -83 -61q-42 -23 -60 -31l-33 55q29 14 53 35q23 16 41 39t29 49q-53 4 -82 36t-29 77q0 57 45 100t102 43zM647 471h-184l-84 -471h-246l227 1290h514q82 0 149 -32t114 -82q47 -51 73 -118
q27 -67 27 -136q0 -66 -15 -118t-40 -94t-56 -74t-63 -54q-76 -53 -172 -80l215 -502h-277zM504 707h284q39 0 76 14t65 40t44 59q16 34 16 71q0 61 -43 113q-43 51 -112 51h-269z" />
    <glyph glyph-name="uni0157" unicode="&#x157;" horiz-adv-x="665" 
d="M211 -113q57 0 89 -39t32 -90q0 -68 -32 -120q-32 -53 -73 -93q-41 -39 -83 -61q-42 -23 -60 -31l-33 55q29 14 53 35q23 16 41 39t29 49q-53 4 -82 36t-29 77q0 57 46 100q45 43 102 43zM721 952q16 0 28 -2q11 -2 21 -4t21 -4l-43 -246q-8 2 -21 4q-10 2 -26 5
q-15 2 -33 2q-86 0 -151 -57q-65 -56 -81 -148l-88 -502h-235l166 942h174l22 -102q33 31 70 55q33 23 78 40t98 17z" />
    <glyph glyph-name="Rcaron" unicode="&#x158;" horiz-adv-x="1146" 
d="M909 1434h-204l-150 256h184l80 -134l125 134h205zM647 471h-184l-84 -471h-246l227 1290h514q82 0 149 -32t114 -82q47 -51 73 -118q27 -67 27 -136q0 -66 -15 -118t-40 -94t-56 -74t-63 -54q-76 -53 -172 -80l215 -502h-277zM504 707h284q39 0 76 14t65 40t44 59
q16 34 16 71q0 61 -43 113q-43 51 -112 51h-269z" />
    <glyph glyph-name="rcaron" unicode="&#x159;" horiz-adv-x="665" 
d="M664 1055h-205l-150 256h185l79 -133l125 133h205zM721 952q16 0 28 -2q11 -2 21 -4t21 -4l-43 -246q-8 2 -21 4q-10 2 -26 5q-15 2 -33 2q-86 0 -151 -57q-65 -56 -81 -148l-88 -502h-235l166 942h174l22 -102q33 31 70 55q33 23 78 40t98 17z" />
    <glyph glyph-name="Sacute" unicode="&#x15a;" horiz-adv-x="1064" 
d="M834 1690h225l-230 -256h-174zM242 901q0 100 43 175t110 125q68 50 150 75t160 24q102 0 180 -29q78 -30 130 -84t79 -129t26 -167h-237q0 184 -193 184q-43 0 -78 -12t-59 -33q-25 -20 -38 -47t-13 -53q0 -49 42 -81t104 -61t136 -58q74 -30 137 -73q62 -43 104 -105
t42 -157q0 -76 -33 -148q-33 -73 -94 -130t-152 -92q-90 -35 -202 -35q-106 0 -192 29q-85 30 -143 85t-89 133q-31 77 -31 173h256q0 -98 55 -147q55 -48 160 -48q98 0 154 47q55 47 55 111q0 49 -42 83t-105 62q-63 29 -138 59q-74 30 -137 71q-63 42 -105 103
q-42 60 -42 150z" />
    <glyph glyph-name="sacute" unicode="&#x15b;" horiz-adv-x="849" 
d="M666 1311h225l-229 -256h-175zM670 666q-6 35 -40 61q-34 27 -95 27q-47 0 -78 -27t-31 -63q0 -29 31 -49q31 -19 75 -36q45 -17 100 -37q54 -19 99 -50t76 -77t31 -114q0 -61 -26 -118q-26 -56 -72 -99t-111 -69q-66 -26 -148 -25q-96 0 -167 23q-71 24 -116 66
q-46 42 -69 98t-23 122h228q0 -49 34 -82t105 -33q57 0 94 33t37 70q0 29 -31 48t-76 37q-46 17 -101 37q-54 19 -100 49t-77 73q-31 44 -31 110q0 61 26 118q26 56 73 99t110 69t142 25q88 0 154 -22q67 -23 111 -62t67 -91q24 -52 26 -111h-227z" />
    <glyph glyph-name="Scedilla" unicode="&#x15e;" horiz-adv-x="1064" 
d="M242 901q0 100 43 175t110.5 125t149.5 74.5t160 24.5q102 0 180 -29.5t130 -83.5t78.5 -129t26.5 -167h-237q0 184 -193 184q-43 0 -77.5 -12t-59.5 -32.5t-38 -47.5t-13 -53q0 -49 42 -81t104.5 -60.5t136 -58.5t136 -73t104.5 -105.5t42 -156.5q0 -68 -26.5 -134
t-79 -121.5t-127 -93.5t-168.5 -50l-54 -80q35 -10 62 -29q23 -16 43 -41.5t20 -66.5q0 -66 -48 -115t-154 -49q-59 0 -102.5 14.5t-43.5 16.5l17 92q12 -4 28 -8q14 -4 30.5 -6.5t35.5 -2.5q45 0 70.5 15.5t25.5 44.5q0 23 -25.5 42t-78.5 19q-14 0 -26.5 -2t-14.5 -2
l92 154q-195 10 -303.5 122.5t-108.5 295.5h256q0 -98 55.5 -146.5t159.5 -48.5q98 0 153.5 47t55.5 111q0 49 -42 82.5t-105.5 62.5t-137 58.5t-137 71.5t-105.5 102.5t-42 150.5z" />
    <glyph glyph-name="scedilla" unicode="&#x15f;" horiz-adv-x="849" 
d="M670 666q-6 35 -40 61.5t-95 26.5q-47 0 -78 -27t-31 -63q0 -29 30.5 -48.5t76 -37t99.5 -37t99 -50t76 -76.5t31 -114q0 -57 -21.5 -110.5t-61.5 -94.5t-97.5 -68.5t-127.5 -35.5l-51 -76q35 -10 62 -29q23 -16 43 -41.5t20 -66.5q0 -66 -48 -115t-155 -49
q-59 0 -102 14.5t-43 16.5l16 92q12 -4 29 -8q14 -4 30.5 -6.5t35.5 -2.5q45 0 70.5 15.5t25.5 44.5q0 23 -25.5 42t-79.5 19q-14 0 -26.5 -2t-14.5 -2l95 156q-78 8 -135.5 34.5t-95.5 66.5t-56.5 92.5t-18.5 111.5h228q0 -49 33.5 -82t105.5 -33q57 0 94 33t37 70
q0 29 -30.5 48t-76.5 36.5t-100.5 37t-100.5 49t-77 73.5t-31 110q0 61 26 117.5t73 99.5t110.5 68.5t141.5 25.5q88 0 154.5 -22.5t110.5 -61.5t67.5 -91t25.5 -111h-227z" />
    <glyph glyph-name="Scaron" unicode="&#x160;" horiz-adv-x="1064" 
d="M838 1434h-205l-150 256h185l80 -134l124 134h205zM242 901q0 100 43 175t110 125q68 50 150 75t160 24q102 0 180 -29q78 -30 130 -84t79 -129t26 -167h-237q0 184 -193 184q-43 0 -78 -12t-59 -33q-25 -20 -38 -47t-13 -53q0 -49 42 -81t104 -61t136 -58
q74 -30 137 -73q62 -43 104 -105t42 -157q0 -76 -33 -148q-33 -73 -94 -130t-152 -92q-90 -35 -202 -35q-106 0 -192 29q-85 30 -143 85t-89 133q-31 77 -31 173h256q0 -98 55 -147q55 -48 160 -48q98 0 154 47q55 47 55 111q0 49 -42 83t-105 62q-63 29 -138 59
q-74 30 -137 71q-63 42 -105 103q-42 60 -42 150z" />
    <glyph glyph-name="scaron" unicode="&#x161;" horiz-adv-x="849" 
d="M694 1065h-205l-149 256h184l80 -133l125 133h205zM670 666q-6 35 -40 61q-34 27 -95 27q-47 0 -78 -27t-31 -63q0 -29 31 -49q31 -19 75 -36q45 -17 100 -37q54 -19 99 -50t76 -77t31 -114q0 -61 -26 -118q-26 -56 -72 -99t-111 -69q-66 -26 -148 -25q-96 0 -167 23
q-71 24 -116 66q-46 42 -69 98t-23 122h228q0 -49 34 -82t105 -33q57 0 94 33t37 70q0 29 -31 48t-76 37q-46 17 -101 37q-54 19 -100 49t-77 73q-31 44 -31 110q0 61 26 118q26 56 73 99t110 69t142 25q88 0 154 -22q67 -23 111 -62t67 -91q24 -52 26 -111h-227z" />
    <glyph glyph-name="uni0162" unicode="&#x162;" horiz-adv-x="1064" 
d="M512 -113q57 0 89 -39t32 -90q0 -68 -32 -120q-32 -53 -73 -93q-41 -39 -83 -61q-42 -23 -60 -31l-33 55q29 14 54 35q23 16 40 39q18 23 29 49q-53 4 -82 36t-28 77q0 57 45 100t102 43zM258 1290h1004l-41 -235h-379l-187 -1055h-245l186 1055h-379z" />
    <glyph glyph-name="uni0163" unicode="&#x163;" horiz-adv-x="706" 
d="M399 -113q57 0 89 -39t32 -90q0 -68 -32 -120q-32 -53 -72 -93q-41 -39 -83 -61q-42 -23 -61 -31l-32 55q29 14 53 35q23 16 41 39t28 49q-53 4 -81 36q-29 32 -29 77q0 57 45 100t102 43zM475 346q-12 -63 22 -105t105 -42q16 0 33 4q6 2 10 4l-37 -205q-12 -4 -24 -6
q-23 -6 -60 -6q-72 0 -125 22q-53 23 -90 63t-55 93t-18 115q0 37 6 73l65 371h-141l33 195h61q113 0 131 112l23 133h204l-38 -225h204l-36 -215h-205z" />
    <glyph glyph-name="Tcaron" unicode="&#x164;" horiz-adv-x="1064" 
d="M866 1434h-204l-150 256h184l80 -134l125 134h205zM258 1290h1004l-41 -235h-379l-187 -1055h-245l186 1055h-379z" />
    <glyph glyph-name="tcaron" unicode="&#x165;" horiz-adv-x="778" 
d="M874 1290h205l-168 -256h-153zM475 346q-12 -63 21.5 -105t105.5 -42q16 0 33 4q6 2 10 4l-37 -205q-12 -4 -24 -6q-23 -6 -60 -6q-72 0 -125 22.5t-90 62.5t-55 93t-18 115q0 37 6 73l65 371h-141l33 195h61q113 0 131 112l23 133h204l-38 -225h204l-36 -215h-205z" />
    <glyph glyph-name="Umacron" unicode="&#x16a;" horiz-adv-x="1269" 
d="M1130 1434h-532l31 174h532zM461 516q-6 -35 -6 -61q0 -70 26 -114q27 -44 66 -70t83 -35q44 -10 81 -11q121 0 187 71q67 71 89 189l143 805h246l-145 -823q-18 -111 -68 -199q-49 -88 -120 -150t-160 -95q-90 -33 -193 -33q-109 0 -197 35q-89 35 -152 96
q-62 61 -96 143t-34 176q0 23 2 47q2 25 6 50l133 753h246z" />
    <glyph glyph-name="umacron" unicode="&#x16b;" horiz-adv-x="1071" 
d="M985 1075h-532l30 174h533zM758 92q-39 -29 -84 -51q-39 -20 -89 -36q-50 -15 -108 -15q-76 0 -134 27q-58 28 -98 75t-61 109q-20 61 -20 131q0 23 2 44q2 22 6 44l92 522h236l-90 -506q-8 -43 -2 -83t27 -70q22 -31 59 -50q37 -18 90 -18q78 0 136 48t75 147l94 532
h235l-166 -942h-174z" />
    <glyph glyph-name="Uring" unicode="&#x16e;" horiz-adv-x="1269" 
d="M920 1761q84 0 132 -50t48 -120q0 -43 -18 -79q-17 -36 -47 -62q-30 -27 -67 -42q-38 -15 -81 -15q-84 0 -132 50t-48 120q0 43 17 78q17 36 47 63t68 42t81 15zM909 1649q-31 0 -54 -23q-24 -23 -24 -57q0 -27 20 -45q19 -18 48 -19q31 0 54 23q24 23 24 57q0 27 -20 45
q-19 19 -48 19zM461 516q-6 -35 -6 -61q0 -70 26 -114q27 -44 66 -70t83 -35q44 -10 81 -11q121 0 187 71q67 71 89 189l143 805h246l-145 -823q-18 -111 -68 -199q-49 -88 -120 -150t-160 -95q-90 -33 -193 -33q-109 0 -197 35q-89 35 -152 96q-62 61 -96 143t-34 176
q0 23 2 47q2 25 6 50l133 753h246z" />
    <glyph glyph-name="uring" unicode="&#x16f;" horiz-adv-x="1071" 
d="M756 1393q84 0 132 -51q48 -50 48 -119q0 -43 -17 -79t-48 -63q-30 -27 -67 -42q-38 -15 -81 -15q-84 0 -132 50t-48 120q0 43 17 79t47 62q30 27 68 42q38 16 81 16zM745 1280q-31 0 -54 -23q-24 -23 -23 -57q0 -27 19 -45t48 -18q31 0 55 22q24 23 23 58q0 27 -19 45
q-20 18 -49 18zM758 92q-39 -29 -84 -51q-39 -20 -89 -36q-50 -15 -108 -15q-76 0 -134 27q-58 28 -98 75t-61 109q-20 61 -20 131q0 23 2 44q2 22 6 44l92 522h236l-90 -506q-8 -43 -2 -83t27 -70q22 -31 59 -50q37 -18 90 -18q78 0 136 48t75 147l94 532h235l-166 -942
h-174z" />
    <glyph glyph-name="Uhungarumlaut" unicode="&#x170;" horiz-adv-x="1269" 
d="M782 1690h226l-240 -256h-174zM1110 1690h225l-239 -256h-174zM461 516q-6 -35 -6 -61q0 -70 26 -114q27 -44 66 -70t83 -35q44 -10 81 -11q121 0 187 71q67 71 89 189l143 805h246l-145 -823q-18 -111 -68 -199q-49 -88 -120 -150t-160 -95q-90 -33 -193 -33
q-109 0 -197 35q-89 35 -152 96q-62 61 -96 143t-34 176q0 23 2 47q2 25 6 50l133 753h246z" />
    <glyph glyph-name="uhungarumlaut" unicode="&#x171;" horiz-adv-x="1071" 
d="M633 1321h225l-240 -256h-174zM961 1321h225l-240 -256h-174zM758 92q-39 -29 -84 -51q-39 -20 -89 -36q-50 -15 -108 -15q-76 0 -134 27q-58 28 -98 75t-61 109q-20 61 -20 131q0 23 2 44q2 22 6 44l92 522h236l-90 -506q-8 -43 -2 -83t27 -70q22 -31 59 -50
q37 -18 90 -18q78 0 136 48t75 147l94 532h235l-166 -942h-174z" />
    <glyph glyph-name="Uogonek" unicode="&#x172;" horiz-adv-x="1269" 
d="M461 516q-6 -35 -6 -61q0 -70 26.5 -114t65.5 -69.5t83 -36t81 -10.5q121 0 187.5 71t88.5 189l143 805h246l-145 -823q-18 -102 -60.5 -184t-103.5 -143.5t-140 -98.5t-169 -47q-6 -6 -21.5 -23.5t-32 -41t-29.5 -52.5t-13 -55q0 -37 27.5 -61.5t76.5 -24.5h23.5t21.5 2
q10 0 20 2l-20 -117q-12 -2 -27 -4q-12 -2 -28.5 -3t-34.5 -1q-106 0 -161.5 50t-55.5 124q0 39 14 73t33.5 60.5t40 45t31.5 26.5q-94 10 -170 49t-130.5 98.5t-83 136t-28.5 162.5q0 23 2 47.5t6 49.5l133 753h246z" />
    <glyph glyph-name="uogonek" unicode="&#x173;" horiz-adv-x="1071" 
d="M758 92q-39 -29 -84 -51q-39 -20 -89 -35.5t-108 -15.5q-76 0 -134 27.5t-98 74.5t-60.5 108.5t-20.5 131.5q0 23 2 44t6 44l92 522h236l-90 -506q-8 -43 -2 -83t27.5 -70.5t58 -49t90.5 -18.5q78 0 136 48t75 147l94 532h235l-166 -942h-40q-29 -29 -52 -59
q-20 -27 -35.5 -59t-15.5 -60q0 -37 27.5 -61.5t77.5 -24.5h23t22 2q10 0 20 2l-20 -117q-12 -2 -27 -4q-12 -2 -28.5 -3t-35.5 -1q-106 0 -161.5 50t-55.5 124q0 45 19.5 84t44.5 68q27 33 63 59z" />
    <glyph glyph-name="Ydieresis" unicode="&#x178;" horiz-adv-x="1126" 
d="M629 1686q53 0 87 -37t34 -86q0 -59 -45 -102q-45 -42 -103 -42q-53 0 -87 37t-34 86q0 59 45 102q46 42 103 42zM997 1686q53 0 87 -37t34 -86q0 -59 -45 -102q-45 -42 -102 -42q-53 0 -87 37t-34 86q0 59 45 102q45 42 102 42zM1059 1290h274l-571 -798l-86 -492h-246
l86 492l-289 798h258l189 -553z" />
    <glyph glyph-name="Zacute" unicode="&#x179;" horiz-adv-x="1054" 
d="M834 1690h225l-230 -256h-174zM420 236h614l-41 -236h-932l35 195l735 860h-563l41 235h881l-35 -194z" />
    <glyph glyph-name="zacute" unicode="&#x17a;" horiz-adv-x="849" 
d="M670 1321h225l-229 -256h-174zM598 717h-410l39 225h707l-35 -194l-502 -523h430l-39 -225h-727l35 195z" />
    <glyph glyph-name="Zdotaccent" unicode="&#x17b;" horiz-adv-x="1054" 
d="M799 1688q53 0 87 -37t34 -86q0 -59 -46 -102q-45 -42 -102 -42q-53 0 -87 37t-34 86q0 59 45 102q46 42 103 42zM420 236h614l-41 -236h-932l35 195l735 860h-563l41 235h881l-35 -194z" />
    <glyph glyph-name="zdotaccent" unicode="&#x17c;" horiz-adv-x="849" 
d="M627 1331q53 0 87 -37t34 -86q0 -59 -46 -101q-45 -42 -102 -42q-53 0 -87 37t-34 86q0 59 45 101q46 42 103 42zM598 717h-410l39 225h707l-35 -194l-502 -523h430l-39 -225h-727l35 195z" />
    <glyph glyph-name="Zcaron" unicode="&#x17d;" horiz-adv-x="1054" 
d="M858 1434h-205l-149 256h184l80 -134l125 134h205zM420 236h614l-41 -236h-932l35 195l735 860h-563l41 235h881l-35 -194z" />
    <glyph glyph-name="zcaron" unicode="&#x17e;" horiz-adv-x="849" 
d="M702 1065h-204l-150 256h184l80 -133l125 133h205zM598 717h-410l39 225h707l-35 -194l-502 -523h430l-39 -225h-727l35 195z" />
    <glyph glyph-name="florin" unicode="&#x192;" horiz-adv-x="727" 
d="M567 584q-33 -162 -59 -291q-12 -55 -22.5 -109.5t-19.5 -97.5t-15.5 -71.5t-6.5 -34.5q-31 -162 -113.5 -240t-244.5 -78q-47 0 -84 10q-20 4 -39 11l51 204q10 -4 25 -6q10 -2 25.5 -3t31.5 -1q104 0 133 133l113 574h-154l41 215h154q2 8 7 30.5t11.5 51t12.5 56.5
t10 46q31 162 114 239.5t244 77.5q23 0 45.5 -3t38.5 -7q20 -6 39 -10l-51 -205q-14 2 -27 4q-12 2 -25.5 4t-29.5 2q-104 0 -133 -133q-4 -10 -9 -34.5t-9 -51.5q-6 -31 -13 -67h195l-41 -215h-195z" />
    <glyph glyph-name="uni0218" unicode="&#x218;" horiz-adv-x="1064" 
d="M559 -113q57 0 89 -39t32 -90q0 -68 -32 -120q-32 -53 -73 -93q-41 -39 -82 -61q-42 -23 -61 -31l-33 55q29 14 54 35q23 16 41 39t28 49q-53 4 -82 36t-28 77q0 57 45 100t102 43zM242 901q0 100 43 175t110 125q68 50 150 75t160 24q102 0 180 -29q78 -30 130 -84
t79 -129t26 -167h-237q0 184 -193 184q-43 0 -78 -12t-59 -33q-25 -20 -38 -47t-13 -53q0 -49 42 -81t104 -61t136 -58q74 -30 137 -73q62 -43 104 -105t42 -157q0 -76 -33 -148q-33 -73 -94 -130t-152 -92q-90 -35 -202 -35q-106 0 -192 29q-85 30 -143 85t-89 133
q-31 77 -31 173h256q0 -98 55 -147q55 -48 160 -48q98 0 154 47q55 47 55 111q0 49 -42 83t-105 62q-63 29 -138 59q-74 30 -137 71q-63 42 -105 103q-42 60 -42 150z" />
    <glyph glyph-name="uni0219" unicode="&#x219;" horiz-adv-x="849" 
d="M426 -113q57 0 89 -39t32 -90q0 -68 -32 -120q-32 -53 -73 -93q-41 -39 -83 -61q-42 -23 -60 -31l-33 55q29 14 53 35q23 16 41 39t29 49q-53 4 -82 36t-28 77q0 57 45 100t102 43zM670 666q-6 35 -40 61q-34 27 -95 27q-47 0 -78 -27t-31 -63q0 -29 31 -49
q31 -19 75 -36q45 -17 100 -37q54 -19 99 -50t76 -77t31 -114q0 -61 -26 -118q-26 -56 -72 -99t-111 -69q-66 -26 -148 -25q-96 0 -167 23q-71 24 -116 66q-46 42 -69 98t-23 122h228q0 -49 34 -82t105 -33q57 0 94 33t37 70q0 29 -31 48t-76 37q-46 17 -101 37
q-54 19 -100 49t-77 73q-31 44 -31 110q0 61 26 118q26 56 73 99t110 69t142 25q88 0 154 -22q67 -23 111 -62t67 -91q24 -52 26 -111h-227z" />
    <glyph glyph-name="uni021A" unicode="&#x21a;" horiz-adv-x="1064" 
d="M512 -113q57 0 89 -39t32 -90q0 -68 -32 -120q-32 -53 -73 -93q-41 -39 -83 -61q-42 -23 -60 -31l-33 55q29 14 54 35q23 16 40 39q18 23 29 49q-53 4 -82 36t-28 77q0 57 45 100t102 43zM258 1290h1004l-41 -235h-379l-187 -1055h-245l186 1055h-379z" />
    <glyph glyph-name="uni021B" unicode="&#x21b;" horiz-adv-x="706" 
d="M399 -113q57 0 89 -39t32 -90q0 -68 -32 -120q-32 -53 -72 -93q-41 -39 -83 -61q-42 -23 -61 -31l-32 55q29 14 53 35q23 16 41 39t28 49q-53 4 -81 36q-29 32 -29 77q0 57 45 100t102 43zM475 346q-12 -63 22 -105t105 -42q16 0 33 4q6 2 10 4l-37 -205q-12 -4 -24 -6
q-23 -6 -60 -6q-72 0 -125 22q-53 23 -90 63t-55 93t-18 115q0 37 6 73l65 371h-141l33 195h61q113 0 131 112l23 133h204l-38 -225h204l-36 -215h-205z" />
    <glyph glyph-name="uni02BC" unicode="&#x2bc;" horiz-adv-x="389" 
d="M414 1300q57 0 89 -38.5t32 -90.5q0 -68 -32 -121t-73 -91.5t-83 -61.5t-60 -31l-33 56q29 14 53 34q23 16 41.5 39t28.5 49q-53 4 -82 36t-29 77q0 57 45.5 100t102.5 43z" />
    <glyph glyph-name="circumflex" unicode="&#x2c6;" horiz-adv-x="716" 
d="M483 1290h205l150 -256h-185l-80 133l-124 -133h-205z" />
    <glyph glyph-name="caron" unicode="&#x2c7;" horiz-adv-x="716" 
d="M643 1034h-205l-149 256h184l80 -133l125 133h205z" />
    <glyph glyph-name="breve" unicode="&#x2d8;" horiz-adv-x="696" 
d="M459 1290q0 -33 23.5 -67.5t76.5 -34.5q33 0 56.5 15.5t39.5 35.5q18 23 29 51h172q-35 -123 -120 -189.5t-189 -66.5q-63 0 -112.5 22.5t-82.5 58.5t-50 82t-17 93h174v0z" />
    <glyph glyph-name="dotaccent" unicode="&#x2d9;" horiz-adv-x="389" 
d="M414 1311q53 0 87 -37t34 -86q0 -59 -45.5 -101.5t-102.5 -42.5q-53 0 -87 37t-34 86q0 59 45.5 101.5t102.5 42.5z" />
    <glyph glyph-name="ring" unicode="&#x2da;" horiz-adv-x="512" 
d="M471 1372q84 0 132 -50t48 -120q0 -43 -17.5 -79t-47 -62.5t-67.5 -41.5t-81 -15q-84 0 -132 50t-48 120q0 43 17.5 78.5t47 62t67.5 42t81 15.5zM461 1260q-31 0 -54.5 -23t-23.5 -57q0 -27 19.5 -45.5t48.5 -18.5q31 0 54 22.5t23 57.5q0 27 -19 45.5t-48 18.5z" />
    <glyph glyph-name="ogonek" unicode="&#x2db;" horiz-adv-x="460" 
d="M287 0q-29 -29 -51 -59q-20 -27 -36 -59t-16 -60q0 -37 28 -61.5t77 -24.5h23.5t21.5 2q10 0 20 2l-20 -117q-12 -2 -27 -4q-12 -2 -28.5 -3t-34.5 -1q-106 0 -161.5 50t-55.5 124q0 45 19.5 84t43.5 68q27 33 64 59h133z" />
    <glyph glyph-name="tilde" unicode="&#x2dc;" horiz-adv-x="737" 
d="M899 1282q-23 -125 -81 -186.5t-130 -61.5q-49 0 -81 16.5t-55.5 37t-43 37t-45.5 16.5q-29 0 -51.5 -25.5t-32.5 -73.5l-123 11q23 125 81 186t130 61q49 0 81 -16t55.5 -36.5t43 -37t45.5 -16.5q29 0 51.5 25.5t32.5 72.5z" />
    <glyph glyph-name="hungarumlaut" unicode="&#x2dd;" horiz-adv-x="819" 
d="M432 1290h225l-239 -256h-174zM760 1290h225l-240 -256h-174z" />
    <glyph glyph-name="uni0401" unicode="&#x401;" horiz-adv-x="1116" 
d="M670 1683q53 0 87 -36q34 -37 34 -86q0 -59 -46 -102q-45 -42 -102 -42q-53 0 -87 37t-34 86q0 59 45 101q46 42 103 42zM1038 1683q53 0 87 -36q34 -37 34 -86q0 -59 -45 -102q-45 -42 -102 -42q-53 0 -87 37t-34 86q0 59 45 101t102 42zM1085 236l-41 -236h-911
l227 1290h891l-41 -235h-645l-49 -277h594l-41 -235h-594l-55 -307h665z" />
    <glyph glyph-name="uni0402" unicode="&#x402;" horiz-adv-x="1331" 
d="M967 850q100 0 169.5 -33t112.5 -88t62.5 -127t19.5 -149q0 -127 -39 -230.5t-109.5 -175.5t-169 -110.5t-214.5 -38.5h-58l41 225h17q121 0 199.5 79t78.5 208q0 92 -53 153.5t-152 61.5q-92 0 -159.5 -56.5t-85.5 -158.5l-74 -410h-246l187 1055h-287l41 235h829
l-41 -235h-297l-53 -303q35 27 78 49q37 18 88.5 33.5t114.5 15.5z" />
    <glyph glyph-name="uni0403" unicode="&#x403;" horiz-adv-x="972" 
d="M565 1055l-186 -1055h-246l227 1290h809l-41 -235h-563zM856 1690h225l-229 -256h-174z" />
    <glyph glyph-name="uni0404" unicode="&#x404;" horiz-adv-x="1320" 
d="M834 1065q-59 0 -119 -20.5t-114 -60.5t-97 -96.5t-68 -129.5h475l-39 -226h-458q8 -68 37.5 -125t74.5 -97t103.5 -62.5t124.5 -22.5q57 0 111.5 20.5t100.5 52.5t80.5 72t57.5 79h260q-41 -100 -105.5 -184.5t-147.5 -146t-180 -95t-202 -33.5q-121 0 -223.5 45
t-179 124t-119.5 186.5t-43 232.5q0 154 59.5 285.5t155.5 229t221 152.5t256 55q121 0 217 -40.5t166 -106.5t108.5 -147.5t47.5 -165.5h-254q-8 37 -29.5 76.5t-59.5 72.5t-92 54.5t-126 21.5z" />
    <glyph glyph-name="uni0405" unicode="&#x405;" horiz-adv-x="1064" 
d="M242 901q0 100 43 175t110 125q68 50 150 75t160 24q102 0 180 -29q78 -30 130 -84t79 -129t26 -167h-237q0 184 -193 184q-43 0 -78 -12t-59 -33q-25 -20 -38 -47t-13 -53q0 -49 42 -81t104 -61t136 -58q74 -30 137 -73q62 -43 104 -105t42 -157q0 -76 -33 -148
q-33 -73 -94 -130t-152 -92q-90 -35 -202 -35q-106 0 -192 29q-85 30 -143 85t-89 133q-31 77 -31 173h256q0 -98 55 -147q55 -48 160 -48q98 0 154 47q55 47 55 111q0 49 -42 83t-105 62q-63 29 -138 59q-74 30 -137 71q-63 42 -105 103q-42 60 -42 150z" />
    <glyph glyph-name="uni0406" unicode="&#x406;" horiz-adv-x="512" 
d="M379 0h-246l227 1290h246z" />
    <glyph glyph-name="uni0407" unicode="&#x407;" horiz-adv-x="512" 
d="M352 1688q53 0 87 -37t34 -86q0 -59 -45 -102q-45 -42 -102 -42q-53 0 -87 37t-34 86q0 59 45 102q45 42 102 42zM721 1688q53 0 87 -37t34 -86q0 -59 -45 -102q-45 -42 -103 -42q-53 0 -87 37t-34 86q0 59 45 102q46 42 103 42zM379 0h-246l227 1290h246z" />
    <glyph glyph-name="uni0408" unicode="&#x408;" horiz-adv-x="1028" 
d="M1122 1290l-157 -895q-35 -199 -152 -302t-291 -103q-94 0 -168 32t-125 87t-78 130q-28 75 -28 160h248q0 -86 44 -130t120 -44q74 0 121 45q48 45 65 138l156 882h245z" />
    <glyph glyph-name="uni0409" unicode="&#x409;" horiz-adv-x="1853" 
d="M891 0l184 1055h-366l-174 -699q-43 -180 -152 -273t-248 -93q-61 0 -102 10q-23 6 -39 12l37 207h53q78 0 139.5 51.5t81.5 137.5l219 882h840l-76 -430h228q82 0 149.5 -32.5t115.5 -88t74.5 -127t26.5 -147.5q0 -96 -39 -181t-104.5 -147.5t-151.5 -99.5t-180 -37
h-516zM1247 625l-69 -389h243q47 0 87 17t68 46t43 65.5t15 77.5q0 86 -46 134.5t-113 48.5h-228z" />
    <glyph glyph-name="uni040A" unicode="&#x40a;" horiz-adv-x="1843" 
d="M881 0l108 625h-500l-110 -625h-246l227 1290h246l-76 -430h502l76 430h246l-76 -430h227q82 0 149.5 -32.5t116 -88t75 -127t26.5 -147.5q0 -96 -39 -181t-104.5 -147.5t-151.5 -99.5t-180 -37h-516zM1237 625l-70 -389h244q47 0 87 17t67.5 46t43 65.5t15.5 77.5
q0 86 -46 134.5t-114 48.5h-227z" />
    <glyph glyph-name="uni040B" unicode="&#x40b;" horiz-adv-x="1331" 
d="M958 850q102 0 173 -31t116 -81t64.5 -114.5t19.5 -129.5q0 -23 -2 -43.5t-6 -40.5l-74 -410h-245l69 389q8 45 -2 88t-37.5 76t-68.5 52.5t-95 19.5q-98 0 -163.5 -60.5t-81.5 -161.5l-72 -403h-246l187 1055h-287l41 235h829l-41 -235h-297l-53 -303q35 27 78 49
q37 18 86 33.5t108 15.5z" />
    <glyph glyph-name="uni040C" unicode="&#x40c;" horiz-adv-x="1095" 
d="M913 1690h226l-230 -256h-174zM1126 0h-286l-359 584l-102 -584h-246l227 1290h246l-100 -573l530 573h293l-598 -639z" />
    <glyph glyph-name="uni040E" unicode="&#x40e;" horiz-adv-x="1095" 
d="M1051 1290h280l-645 -1016q-98 -152 -186 -223q-88 -72 -201 -71q-29 0 -54 5q-26 5 -48 11l-50 16l39 213q0 2 24 -7t71 -9q55 0 100 33t74 77l30 50l-258 921h250l180 -635zM688 1669q0 -33 24 -67q24 -35 76 -35q33 0 57 15t40 36q18 23 28 51h172q-35 -123 -119 -189
q-85 -67 -190 -67q-63 0 -112 23t-82 58q-33 36 -51 82q-17 46 -17 93h174v0z" />
    <glyph glyph-name="uni040F" unicode="&#x40f;" horiz-adv-x="1280" 
d="M606 1290l-186 -1054h522l186 1054h246l-227 -1290h-389l-43 -246h-236l43 246h-389l227 1290h246z" />
    <glyph glyph-name="uni0410" unicode="&#x410;" horiz-adv-x="1167" 
d="M248 0h-258l708 1290h226l254 -1290h-254l-45 266h-492zM836 492l-80 471l-248 -471h328z" />
    <glyph glyph-name="uni0411" unicode="&#x411;" horiz-adv-x="1157" 
d="M817 799q82 0 146.5 -30t110.5 -80t70.5 -115.5t24.5 -137.5q0 -92 -34.5 -172t-96 -138t-142.5 -92t-173 -34h-590l227 1290h871l-41 -235h-625l-45 -256h297zM479 573l-61 -348h317q78 0 132.5 54.5t54.5 138.5q0 66 -38 110.5t-106 44.5h-299z" />
    <glyph glyph-name="uni0412" unicode="&#x412;" horiz-adv-x="1167" 
d="M1020 668q41 -27 76 -64q29 -33 53 -84q25 -51 25 -121q0 -80 -33 -151q-33 -72 -92 -127t-141 -88q-81 -33 -175 -33h-600l227 1290h533q74 0 134 -27q60 -28 103 -74t67 -106q24 -59 24 -122q0 -84 -32 -140q-32 -55 -69 -90q-45 -38 -100 -63zM516 772h281q37 0 68 13
q32 13 56 36t37 51q14 29 15 62q0 53 -38 98t-99 45h-267zM727 215q43 0 80 15t64 42q28 27 44 64t17 78q0 66 -43 117q-43 52 -119 53h-289l-63 -369h309z" />
    <glyph glyph-name="uni0413" unicode="&#x413;" horiz-adv-x="972" 
d="M565 1055l-186 -1055h-246l227 1290h809l-41 -235h-563z" />
    <glyph glyph-name="uni0414" unicode="&#x414;" horiz-adv-x="1300" 
d="M1311 236l-84 -482h-246l43 246h-778l-43 -246h-246l84 482h72q37 16 71 45q29 25 60.5 66.5t50.5 103.5l250 839h809l-187 -1054h144zM1067 1055h-354l-178 -604q-18 -61 -43 -103.5t-48 -66.5q-25 -29 -51 -45h529z" />
    <glyph glyph-name="uni0415" unicode="&#x415;" horiz-adv-x="1116" 
d="M1085 236l-41 -236h-911l227 1290h891l-41 -235h-645l-49 -277h594l-41 -235h-594l-55 -307h665z" />
    <glyph glyph-name="uni0416" unicode="&#x416;" horiz-adv-x="1607" 
d="M254 1290h281l278 -567l100 567h246l-100 -567l479 567h289l-543 -647l354 -643h-286l-318 590l-102 -590h-246l102 590l-522 -590h-295l592 670z" />
    <glyph glyph-name="uni0417" unicode="&#x417;" horiz-adv-x="1054" 
d="M221 911q14 82 56 153t105.5 123t143.5 82.5t170 30.5q96 0 173 -28.5t131.5 -76.5t83 -110.5t28.5 -130.5q0 -86 -32.5 -142t-73.5 -91q-47 -41 -107 -68q41 -29 76 -65q29 -35 53.5 -84t24.5 -121q0 -78 -33 -148.5t-93.5 -125t-147.5 -87t-195 -32.5q-113 0 -200 31.5
t-145.5 86t-89 127t-30.5 156.5l246 17q4 -78 60 -135.5t165 -57.5q98 0 154.5 52t56.5 134q0 59 -43 105.5t-133 46.5h-127l37 215h145q88 0 135 44t47 112q0 63 -48 107t-134 44q-82 0 -140.5 -49t-76.5 -115h-242z" />
    <glyph glyph-name="uni0418" unicode="&#x418;" horiz-adv-x="1300" 
d="M922 0l149 850l-723 -850h-215l227 1290h246l-149 -850l723 850h215l-228 -1290h-245z" />
    <glyph glyph-name="uni0419" unicode="&#x419;" horiz-adv-x="1300" 
d="M817 1669q0 -33 24 -67q24 -35 77 -35q33 0 56 15q24 15 40 36q18 23 28 51h172q-35 -123 -119 -189q-85 -67 -190 -67q-63 0 -112 23t-82 58q-33 36 -51 82q-17 46 -17 93h174v0zM922 0l149 850l-723 -850h-215l227 1290h246l-149 -850l723 850h215l-228 -1290h-245z
" />
    <glyph glyph-name="uni041A" unicode="&#x41a;" horiz-adv-x="1095" 
d="M1126 0h-286l-359 584l-102 -584h-246l227 1290h246l-100 -573l530 573h293l-598 -639z" />
    <glyph glyph-name="uni041B" unicode="&#x41b;" horiz-adv-x="1300" 
d="M1395 1290l-228 -1290h-245l186 1055h-399l-174 -699q-43 -180 -152 -273t-248 -93q-61 0 -102 10q-23 6 -39 12l37 207h53q78 0 139.5 51.5t81.5 137.5l219 882h871z" />
    <glyph glyph-name="uni041C" unicode="&#x41c;" horiz-adv-x="1576" 
d="M1671 1290l-227 -1290h-246l127 717l-455 -717h-163l-201 717l-127 -717h-246l227 1290h215l273 -952l608 952h215z" />
    <glyph glyph-name="uni041D" unicode="&#x41d;" horiz-adv-x="1300" 
d="M1395 1290l-228 -1290h-245l96 543h-543l-96 -543h-246l227 1290h246l-90 -512h543l90 512h246z" />
    <glyph glyph-name="uni041E" unicode="&#x41e;" horiz-adv-x="1372" 
d="M856 1300q121 0 224 -45t180 -125q76 -80 118 -187q43 -108 43 -230q0 -154 -59 -286t-157 -229q-97 -97 -221 -153q-124 -55 -255 -55q-121 0 -224 45t-179 125t-119 187q-43 108 -43 231q0 154 59 285q59 132 157 230q97 97 221 152t255 55zM834 1065q-78 0 -155 -35
t-136 -97t-97 -150q-37 -87 -36 -191q0 -80 26 -148q27 -68 73 -116q46 -49 108 -76t137 -27q78 0 153 35q76 35 135 97t97 150q37 87 37 191q0 80 -26 148t-72 117t-108 75q-62 27 -136 27z" />
    <glyph glyph-name="uni041F" unicode="&#x41f;" horiz-adv-x="1310" 
d="M1405 1290l-227 -1290h-246l186 1055h-553l-186 -1055h-246l227 1290h1045z" />
    <glyph glyph-name="uni0420" unicode="&#x420;" horiz-adv-x="1116" 
d="M842 1290q82 0 149 -33q68 -33 116 -88t75 -127t26 -147q0 -96 -39 -181t-104 -149q-66 -63 -152 -99t-180 -36h-278l-76 -430h-246l227 1290h482zM750 666q39 0 76 16q38 16 69 45t49 66t19 77q0 35 -13 68q-12 33 -34 59q-22 27 -51 42q-30 15 -64 16h-236l-69 -389
h254z" />
    <glyph glyph-name="uni0421" unicode="&#x421;" horiz-adv-x="1320" 
d="M834 1065q-74 0 -149 -32t-136 -93t-100 -149t-39 -199q0 -80 26 -148q27 -68 73 -115q46 -48 108 -76t137 -28q57 0 111 21q54 20 101 53q46 33 81 73t57 79h262q-41 -100 -105 -185q-65 -84 -148 -145t-181 -96t-203 -35q-121 0 -223 45t-179 124t-120 186
q-43 108 -43 233q0 154 59 285q59 132 156 230q96 97 221 152t256 55q121 0 217 -40q96 -41 166 -107t109 -147q39 -82 47 -166h-254q-8 37 -30 76q-22 40 -59 73q-38 33 -93 54q-53 22 -125 22z" />
    <glyph glyph-name="uni0422" unicode="&#x422;" horiz-adv-x="1064" 
d="M258 1290h1004l-41 -235h-379l-187 -1055h-245l186 1055h-379z" />
    <glyph glyph-name="uni0423" unicode="&#x423;" horiz-adv-x="1095" 
d="M1051 1290h280l-645 -1016q-98 -152 -186 -223t-201 -71q-29 0 -54.5 5t-47.5 11l-50 16l39 213q0 2 23.5 -7t71.5 -9q55 0 100 32.5t74 77.5l30 50l-258 921h250l180 -635z" />
    <glyph glyph-name="uni0424" unicode="&#x424;" horiz-adv-x="1495" 
d="M795 952q-84 0 -154 -22.5t-119 -62.5t-76.5 -96t-27.5 -126q0 -98 69.5 -174t204.5 -92zM1079 1178q227 -29 356.5 -152t129.5 -324q0 -121 -50.5 -221t-138.5 -172.5t-211 -112.5t-266 -42l-29 -164h-245l28 164q-227 29 -356 151.5t-129 323.5q0 121 50 221t138 173
t210 113t268 42l22 122h246zM938 379q84 0 153.5 22.5t119 62.5t77 96t27.5 126q0 98 -69.5 174t-205.5 92z" />
    <glyph glyph-name="uni0425" unicode="&#x425;" horiz-adv-x="1146" 
d="M1343 1290l-512 -635l306 -655h-269l-204 471l-369 -471h-285l535 655l-287 635h268l187 -450l346 450h284z" />
    <glyph glyph-name="uni0426" unicode="&#x426;" horiz-adv-x="1320" 
d="M1321 236l-84 -482h-246l43 246h-901l227 1290h246l-186 -1054h512l186 1054h246l-186 -1054h143z" />
    <glyph glyph-name="uni0427" unicode="&#x427;" horiz-adv-x="1239" 
d="M1333 1290l-227 -1290h-246l78 438q-35 -14 -76 -24q-35 -10 -83 -16.5t-101 -6.5q-104 0 -181 32t-128.5 84t-77 119.5t-25.5 139.5q0 37 6 74l80 450h244l-78 -450q-16 -96 40 -162t198 -66q47 0 87 7.5t70 17.5q37 10 66 27l108 626h246z" />
    <glyph glyph-name="uni0428" unicode="&#x428;" horiz-adv-x="1761" 
d="M1855 1290l-227 -1290h-1495l227 1290h246l-186 -1054h379l186 1054h246l-187 -1054h379l187 1054h245z" />
    <glyph glyph-name="uni0429" unicode="&#x429;" horiz-adv-x="1812" 
d="M1855 1290l-186 -1054h143l-83 -482h-246l43 246h-1393l227 1290h246l-186 -1054h379l186 1054h246l-187 -1054h379l187 1054h245z" />
    <glyph glyph-name="uni042A" unicode="&#x42a;" horiz-adv-x="1249" 
d="M287 0l184 1055h-285l41 235h533l-76 -430h227q82 0 149.5 -32.5t116 -88t75 -127t26.5 -147.5q0 -96 -39 -181t-104.5 -147.5t-151.5 -99.5t-180 -37h-516zM643 625l-70 -389h244q47 0 87 17t67.5 46t43 65.5t15.5 77.5q0 86 -46 134.5t-114 48.5h-227z" />
    <glyph glyph-name="uni042B" unicode="&#x42b;" horiz-adv-x="1546" 
d="M1413 0h-246l228 1290h245zM133 0l227 1290h246l-76 -430h218q82 0 149.5 -32.5t115.5 -88t74.5 -127t26.5 -147.5q0 -96 -39 -181t-104.5 -147.5t-151.5 -99.5t-180 -37h-506zM489 625l-69 -389h233q47 0 87 17t68 46t43 65.5t15 77.5q0 86 -46 134.5t-113 48.5h-218z
" />
    <glyph glyph-name="uni042C" unicode="&#x42c;" horiz-adv-x="1095" 
d="M133 0l227 1290h246l-76 -430h228q82 0 149.5 -32.5t115.5 -88t74.5 -127t26.5 -147.5q0 -96 -38.5 -181t-104.5 -147.5t-152 -99.5t-180 -37h-516zM489 625l-69 -389h244q47 0 87 17t67.5 46t43 65.5t15.5 77.5q0 86 -46.5 134.5t-113.5 48.5h-228z" />
    <glyph glyph-name="uni042D" unicode="&#x42d;" horiz-adv-x="1314" 
d="M655 758h459q-12 63 -38.5 119.5t-69.5 97.5t-100.5 65.5t-129.5 24.5q-59 0 -112.5 -19.5t-97.5 -49t-76.5 -65.5t-49.5 -71h-252q43 102 111 184t148.5 138.5t171 87t178.5 30.5q121 0 224 -45t180 -123.5t120 -186t43 -232.5q0 -154 -59.5 -286t-155.5 -229.5
t-221 -152.5t-256 -55q-121 0 -214 40t-162 103.5t-111 139t-56 147.5h254q14 -35 43 -70t69 -62.5t91 -45t110 -17.5q70 0 132.5 25.5t113.5 68.5t90 98.5t64 114.5h-480z" />
    <glyph glyph-name="uni042E" unicode="&#x42e;" horiz-adv-x="1771" 
d="M512 758h154q25 102 82 200.5t140 174t187.5 121.5t227.5 46q111 0 208 -43t168.5 -119.5t112.5 -182t41 -230.5q0 -160 -57.5 -295t-151.5 -233.5t-213 -152.5t-242 -54q-115 0 -210 42t-163.5 113.5t-110.5 169t-50 207.5h-164l-92 -522h-246l227 1290h246zM1280 1065
q-72 0 -143.5 -34t-129 -97.5t-93 -153.5t-35.5 -202q0 -80 23.5 -145.5t65.5 -112t97 -71t121 -24.5q72 0 143.5 34t129 96.5t93 152.5t35.5 203q0 80 -23.5 145.5t-65.5 111.5t-98.5 71.5t-119.5 25.5z" />
    <glyph glyph-name="uni042F" unicode="&#x42f;" horiz-adv-x="1146" 
d="M317 0h-288l411 528q-57 31 -102 80q-39 41 -70.5 102.5t-31.5 147.5q0 88 36.5 167t99 137.5t145.5 93t177 34.5h547l-227 -1290h-246l84 471h-184zM954 1055h-276q-39 0 -75 -15.5t-63.5 -41t-44 -59.5t-16.5 -71q0 -61 43 -111t113 -50h258z" />
    <glyph glyph-name="uni0430" unicode="&#x430;" horiz-adv-x="972" 
d="M621 952q74 0 138 -22q65 -23 111 -64q47 -41 75 -102t28 -137q0 -37 -6 -76l-97 -551h-174l-26 92q-31 -29 -70 -51q-35 -20 -81 -36q-46 -15 -99 -15q-74 0 -130 19t-95 53t-59 78q-19 44 -19 93q0 94 47 159t129 105t194 58q113 18 246 18q10 70 -27 117
q-38 47 -114 47q-39 0 -66 -16t-43 -35q-20 -23 -32 -51l-240 10q20 63 58 119q38 55 90 97t118 67q66 24 144 24zM461 174q92 0 157 55q66 55 82 140l9 41q-104 0 -173 -10q-69 -9 -109 -27t-56 -46t-17 -63q0 -35 29 -62q29 -28 78 -28z" />
    <glyph glyph-name="uni0431" unicode="&#x431;" horiz-adv-x="1064" 
d="M713 891q96 0 166.5 -34t117.5 -88t71 -124t24 -143q0 -111 -39 -204t-105.5 -161.5t-158 -107.5t-195.5 -39q-92 0 -170 30.5t-136.5 91t-91 146.5t-32.5 197q0 420 235.5 643t716.5 233l-39 -225q-139 -4 -245.5 -24.5t-184.5 -60.5t-128 -102.5t-77 -150.5
q35 35 78 61q37 23 85.5 42.5t107.5 19.5zM608 215q49 0 93 19.5t78 52t54.5 77t20.5 95.5q0 43 -15.5 81t-43 65.5t-65.5 44t-83 16.5q-49 0 -93 -19.5t-78 -52.5t-54.5 -77t-20.5 -95q0 -43 15.5 -81t43 -65.5t65.5 -44t83 -16.5z" />
    <glyph glyph-name="uni0432" unicode="&#x432;" horiz-adv-x="952" 
d="M846 477q25 -18 47 -45q18 -23 33.5 -58.5t15.5 -82.5q0 -59 -24.5 -111.5t-66.5 -92.5t-99.5 -63.5t-120.5 -23.5h-518l166 942h456q59 0 106.5 -19.5t79 -52t48 -75.5t16.5 -88q0 -61 -21.5 -104.5t-48.5 -72.5q-30 -33 -69 -53zM481 758l-35 -205h189q47 0 78.5 31.5
t31.5 81.5q0 37 -22.5 64.5t-63.5 27.5h-178zM598 184q47 0 80 33t33 86q0 37 -22.5 61.5t-63.5 24.5h-207l-37 -205h217z" />
    <glyph glyph-name="uni0433" unicode="&#x433;" horiz-adv-x="788" 
d="M885 717h-410l-127 -717h-235l166 942h645z" />
    <glyph glyph-name="uni0434" unicode="&#x434;" horiz-adv-x="1054" 
d="M1063 225l-76 -430h-235l36 205h-552l-37 -205h-236l76 430h72q27 12 51 35q23 18 44 47t34 72l159 563h668l-127 -717h123zM465 379q-12 -43 -28.5 -71.5t-33.5 -47.5q-18 -23 -36 -35h338l86 492h-226z" />
    <glyph glyph-name="uni0435" unicode="&#x435;" horiz-adv-x="1046" 
d="M1016 287q-18 -49 -60 -103q-41 -53 -99 -96t-132 -72t-158 -28q-92 0 -170 35t-134 94t-89 140t-33 171q0 109 44 205t117 167t166 111q93 41 191 41q88 0 163 -31q75 -32 130 -88t86 -135q31 -78 31 -170q0 -31 -5 -57q-5 -27 -11 -47q-8 -23 -17 -45h-649
q10 -76 65 -121q54 -45 144 -45q47 0 79 11t54 26q25 16 41 37h246zM649 727q-92 0 -161 -53t-97 -131h451q-2 78 -51 131q-50 53 -142 53z" />
    <glyph glyph-name="uni0436" unicode="&#x436;" horiz-adv-x="1331" 
d="M1346 0h-261l-221 430l-76 -430h-235l76 430l-373 -430h-266l440 496l-237 446h260l198 -389l68 389h235l-67 -389l334 389h266l-402 -455z" />
    <glyph glyph-name="uni0437" unicode="&#x437;" horiz-adv-x="839" 
d="M731 461q27 -20 49 -47q18 -23 33.5 -55.5t15.5 -75.5q0 -59 -27.5 -112.5t-76.5 -93.5t-115.5 -63.5t-144.5 -23.5q-88 0 -155.5 23.5t-116 64.5t-75 97t-32.5 122h215q4 -33 25 -57q16 -23 49 -39.5t92 -16.5q68 0 103.5 32t35.5 73q0 35 -28.5 62.5t-98.5 27.5h-94
l33 184h114q61 0 90 30t29 71t-30.5 67.5t-94.5 26.5q-47 0 -75.5 -16.5t-44.5 -34.5q-20 -23 -29 -52h-209q12 61 44 115.5t80 94.5t110.5 63.5t134.5 23.5q76 0 139 -22.5t107 -61.5t69 -90t25 -106q0 -59 -23 -100.5t-51 -65.5q-33 -29 -72 -45z" />
    <glyph glyph-name="uni0438" unicode="&#x438;" horiz-adv-x="1085" 
d="M1139 942l-166 -942h-236l105 594l-504 -594h-225l166 942h235l-104 -594l503 594h226z" />
    <glyph glyph-name="uni0439" unicode="&#x439;" horiz-adv-x="1085" 
d="M651 1290q2 -29 13 -51q10 -20 29 -36q19 -15 57 -15q41 0 64 15q24 15 36 36q14 23 20 51h168q-10 -59 -38 -107t-67 -81q-40 -33 -90 -50t-102 -18q-63 0 -113 23t-84 58q-34 36 -51 82t-18 93h176zM1139 942l-166 -942h-236l105 594l-504 -594h-225l166 942h235
l-104 -594l503 594h226z" />
    <glyph glyph-name="uni043A" unicode="&#x43a;" horiz-adv-x="911" 
d="M676 0l-252 430l-76 -430h-235l166 942h235l-68 -389l355 389h268l-422 -455l291 -487h-262z" />
    <glyph glyph-name="uni043B" unicode="&#x43b;" horiz-adv-x="1024" 
d="M1077 942l-166 -942h-235l127 717h-256l-109 -436q-35 -141 -120 -216t-212 -75q-23 0 -40 2t-33 6q-18 4 -33 10l33 191h51q53 0 86 30.5t51 102.5l162 610h694z" />
    <glyph glyph-name="uni043C" unicode="&#x43c;" horiz-adv-x="1269" 
d="M573 0l-141 481l-84 -481h-235l166 942h225l184 -635l410 635h225l-166 -942h-235l84 481l-310 -481h-123z" />
    <glyph glyph-name="uni043D" unicode="&#x43d;" horiz-adv-x="1075" 
d="M1128 942l-165 -942h-236l66 369h-379l-66 -369h-235l166 942h235l-61 -348h378l62 348h235z" />
    <glyph glyph-name="uni043E" unicode="&#x43e;" horiz-adv-x="1064" 
d="M657 952q92 0 171 -34q79 -35 137 -95q57 -59 90 -139t32 -170q0 -111 -44 -206t-116 -166q-73 -71 -165 -111q-92 -41 -191 -41q-92 0 -171 35t-136 94t-90 139t-33 170q0 111 44 206t117 166t165 111q92 41 190 41zM637 729q-49 0 -96 -20t-84 -60q-37 -39 -59 -92
t-21 -119q0 -98 58 -162q58 -63 157 -63q49 0 96 21q47 22 84 60t58 92q22 54 22 120q0 98 -58 161q-59 62 -157 62z" />
    <glyph glyph-name="uni043F" unicode="&#x43f;" horiz-adv-x="1075" 
d="M1128 942l-165 -942h-236l127 717h-379l-127 -717h-235l166 942h849z" />
    <glyph glyph-name="uni0440" unicode="&#x440;" horiz-adv-x="1095" 
d="M729 952q88 0 160 -33q72 -34 123 -93q51 -58 80 -136t28 -164q0 -117 -43 -215t-111 -170q-69 -72 -157 -111q-88 -40 -180 -40q-66 0 -115 17t-82 40q-37 25 -65 57l-76 -432h-236l224 1270h174l26 -92q33 29 72 51q35 18 80 35q45 16 98 16zM670 731q-51 0 -99 -20
q-47 -20 -83 -59q-36 -38 -57 -91q-22 -53 -21 -121q0 -100 59 -160t158 -61q51 0 98 21q47 20 83 58t57 91q22 53 22 121q0 100 -60 161q-59 60 -157 60z" />
    <glyph glyph-name="uni0441" unicode="&#x441;" horiz-adv-x="1034" 
d="M1038 348q-27 -78 -70 -144q-44 -67 -105 -114q-60 -47 -135 -74t-163 -26q-90 0 -168 35t-134 95t-89 139t-33 169q0 111 44 206t116 166t165 111q93 41 191 41q84 0 156 -27q72 -28 127 -77t91 -115t50 -139h-241q-14 37 -41 68q-23 25 -63 46q-40 22 -99 21
q-51 0 -98 -20t-83 -60q-36 -39 -58 -92t-21 -119q0 -98 59 -162q59 -63 156 -63q55 0 95 20t67 48q31 29 51 67h233z" />
    <glyph glyph-name="uni0442" unicode="&#x442;" horiz-adv-x="849" 
d="M197 942h788l-39 -225h-276l-127 -717h-236l127 717h-276z" />
    <glyph glyph-name="uni0443" unicode="&#x443;" horiz-adv-x="962" 
d="M162 942h239l127 -614l324 614h270q-152 -266 -274 -481q-53 -92 -104 -180q-50 -88 -92 -161t-68 -121q-27 -48 -33 -56q-45 -76 -87 -129t-83 -87t-85 -50q-44 -15 -93 -15q-39 0 -74 9t-35 12l35 190h27q59 2 102 33t76 86l28 49z" />
    <glyph glyph-name="uni0444" unicode="&#x444;" horiz-adv-x="1546" 
d="M770 653q-18 20 -41 37q-20 14 -50 25.5t-69 11.5q-43 0 -85 -19.5t-75.5 -58.5t-54 -96t-20.5 -131q0 -98 51 -152.5t131 -54.5q29 0 55.5 7t46.5 18q23 10 43 26zM942 289q18 -20 41 -37q20 -14 49 -25.5t70 -11.5q43 0 85 19.5t75.5 58.5t54 96t20.5 131
q0 98 -51 152.5t-131 54.5q-31 0 -56.5 -8t-45.5 -19q-23 -10 -43 -24zM834 -328h-236l66 371q-25 -16 -52 -27q-23 -10 -54.5 -18t-68.5 -8q-74 0 -137 28.5t-110 81t-74 127t-27 164.5q0 131 41 235.5t105.5 176t146.5 110.5t164 39q47 0 86 -12t68 -29q33 -18 57 -39
l74 418h235l-69 -391q23 14 49 27q23 10 55.5 18t69.5 8q74 0 137 -28.5t110.5 -80.5t74 -127t26.5 -165q0 -131 -41 -235.5t-105.5 -176t-146.5 -110.5t-164 -39q-49 0 -87 11t-66 28q-33 18 -58 41z" />
    <glyph glyph-name="uni0445" unicode="&#x445;" horiz-adv-x="901" 
d="M256 0h-266l401 481l-215 461h246l131 -297l238 297h266l-379 -461l233 -481h-245l-150 317z" />
    <glyph glyph-name="uni0446" unicode="&#x446;" horiz-adv-x="1095" 
d="M1104 225l-76 -430h-235l36 205h-716l166 942h235l-127 -717h358l127 717h236l-127 -717h123z" />
    <glyph glyph-name="uni0447" unicode="&#x447;" horiz-adv-x="1024" 
d="M1079 942l-168 -942h-235l51 289q-31 -14 -65 -23q-31 -8 -70 -14t-82 -6q-63 0 -119.5 20.5t-99.5 59.5t-68.5 96t-25.5 131q0 43 8 82q8 47 18 99t19 100q8 53 18 108h236l-56 -307q-8 -43 1.5 -75t31 -53.5t53 -32.5t68.5 -11q33 0 63.5 7t55.5 17q29 10 53 25l78 430
h235z" />
    <glyph glyph-name="uni0448" unicode="&#x448;" horiz-adv-x="1443" 
d="M1331 0h-1218l166 942h235l-127 -717h256l127 717h236l-127 -717h256l127 717h235z" />
    <glyph glyph-name="uni0449" unicode="&#x449;" horiz-adv-x="1484" 
d="M1182 -205l37 205h-1106l166 942h235l-127 -717h256l127 717h236l-127 -717h256l127 717h235l-127 -717h123l-76 -430h-235z" />
    <glyph glyph-name="uni044A" unicode="&#x44a;" horiz-adv-x="1024" 
d="M766 635q61 2 111.5 -21.5t86 -64.5t55 -94.5t19.5 -108.5q0 -72 -28.5 -134t-77.5 -109.5t-112.5 -75t-133.5 -27.5h-471l125 717h-203l39 225h440l-53 -307h203zM674 205q53 0 92 34.5t39 86.5q0 41 -28.5 72.5t-76.5 31.5h-174l-39 -225h187z" />
    <glyph glyph-name="uni044B" unicode="&#x44b;" horiz-adv-x="1300" 
d="M1354 942l-166 -942h-236l166 942h236zM643 635q61 2 111.5 -21.5t86.5 -64.5t55 -94.5t19 -108.5q0 -72 -28.5 -134t-77.5 -109.5t-112.5 -75t-133.5 -27.5h-450l166 942h235l-53 -307h182zM551 205q53 0 92 34.5t39 86.5q0 41 -28.5 72.5t-75.5 31.5h-154l-39 -225h166
z" />
    <glyph glyph-name="uni044C" unicode="&#x44c;" horiz-adv-x="921" 
d="M664 635q61 2 111 -21.5t86 -64.5t55.5 -94.5t19.5 -108.5q0 -72 -28.5 -134t-78 -109.5t-113 -75t-132.5 -27.5h-471l166 942h235l-53 -307h203zM571 205q53 0 92 34.5t39 86.5q0 41 -28.5 72.5t-75.5 31.5h-174l-39 -225h186z" />
    <glyph glyph-name="uni044D" unicode="&#x44d;" horiz-adv-x="1013" 
d="M618 952q111 0 191 -42t132 -106.5t76.5 -142t24.5 -147.5q0 -111 -43 -206t-114.5 -165.5t-164.5 -111.5t-192 -41q-86 0 -155.5 27.5t-120.5 74.5t-84 110.5t-45 135.5h237q12 -37 35 -64q20 -23 57 -42t99 -19q66 0 111 26.5t73 61.5q35 37 56 88h-304l31 164h287
q-10 49 -35 86q-23 33 -63.5 59.5t-112.5 26.5q-51 0 -88 -19.5t-62 -41.5q-29 -27 -51 -60h-225q20 66 63 128.5t101.5 111.5t131 78.5t154.5 29.5z" />
    <glyph glyph-name="uni044E" unicode="&#x44e;" horiz-adv-x="1421" 
d="M1034 952q100 0 177 -37.5t129.5 -99t78 -137.5t25.5 -152q0 -117 -43 -216t-112.5 -169.5t-161 -110.5t-185.5 -40q-90 0 -160.5 31.5t-123 83t-83 118t-36.5 135.5h-127l-64 -358h-235l166 942h235l-68 -379h119q23 74 66 143.5t103.5 124t136 88t163.5 33.5zM1018 727
q-45 0 -89 -20.5t-79 -59.5t-56.5 -92t-21.5 -121q0 -98 55.5 -158.5t133.5 -60.5q45 0 89 21.5t78.5 59.5t56 92t21.5 122q0 98 -55 157.5t-133 59.5z" />
    <glyph glyph-name="uni044F" unicode="&#x44f;" horiz-adv-x="972" 
d="M1028 942l-166 -942h-235l53 307h-133l-248 -307h-281l301 354q-37 23 -65 60q-25 29 -44.5 75t-19.5 107q0 72 29 134.5t78 109.5t115.5 74.5t140.5 27.5h475zM557 737q-55 0 -93 -35.5t-38 -85.5q0 -41 27.5 -72.5t76.5 -31.5h197l39 225h-209z" />
    <glyph glyph-name="uni0451" unicode="&#x451;" 
d="M541 1311q53 0 87 -37t34 -86q0 -59 -46 -102q-45 -42 -102 -42q-53 0 -87 37t-34 86q0 59 45 102q46 42 103 42zM909 1311q53 0 87 -37t34 -86q0 -59 -45 -102q-45 -42 -102 -42q-53 0 -87 37t-34 86q0 59 45 102q45 42 102 42zM1028 287q-18 -49 -59 -103
q-41 -53 -100 -96q-58 -43 -132 -72t-157 -28q-92 0 -170 35t-135 94q-56 59 -89 140t-32 171q0 109 44 205t116 167q73 71 166 111q93 41 192 41q88 0 163 -31q75 -32 130 -88t86 -135q31 -78 30 -170q0 -31 -5 -57q-5 -27 -11 -47q-8 -23 -16 -45h-650q10 -76 65 -121
q54 -45 144 -45q47 0 79 11t54 26q25 16 41 37h246zM662 727q-92 0 -161 -53t-98 -131h451q-2 78 -51 131t-141 53z" />
    <glyph glyph-name="uni0452" unicode="&#x452;" horiz-adv-x="1073" 
d="M203 1147h139l27 143h235l-26 -143h239l-35 -195h-241l-31 -190q33 23 76 43q35 16 85 30.5t109 14.5q76 0 134.5 -32t98.5 -84t60.5 -117.5t20.5 -135.5q0 -141 -40 -251.5t-110 -186.5t-163 -116t-199 -40h-56l37 215h19q45 0 92 21.5t86 62.5t64.5 102.5t25.5 141.5
q0 92 -50 143.5t-136 51.5q-78 0 -135.5 -50.5t-73.5 -136.5l-78 -438h-236l168 952h-141z" />
    <glyph glyph-name="uni0453" unicode="&#x453;" horiz-adv-x="788" 
d="M885 717h-410l-127 -717h-235l166 942h645zM688 1311h225l-229 -256h-174z" />
    <glyph glyph-name="uni0454" unicode="&#x454;" horiz-adv-x="1013" 
d="M657 952q72 0 128.5 -15t99.5 -40t73.5 -55.5t51.5 -63.5q49 -78 63 -174h-239q-14 35 -39 62q-23 23 -61 43t-97 20q-68 0 -113 -27.5t-73 -60.5q-33 -39 -54 -88h295l-28 -164h-283q10 -51 37 -88q23 -35 63.5 -61.5t110.5 -26.5q55 0 95 19.5t67 41.5q31 27 49 64h250
q-23 -61 -67 -123.5t-105.5 -112t-139 -81t-172.5 -31.5q-92 0 -171 34.5t-135 94t-89 139.5t-33 170q0 111 44 206t116 165.5t165 111.5t191 41z" />
    <glyph glyph-name="uni0455" unicode="&#x455;" horiz-adv-x="849" 
d="M670 666q-6 35 -40 61q-34 27 -95 27q-47 0 -78 -27t-31 -63q0 -29 31 -49q31 -19 75 -36q45 -17 100 -37q54 -19 99 -50t76 -77t31 -114q0 -61 -26 -118q-26 -56 -72 -99t-111 -69q-66 -26 -148 -25q-96 0 -167 23q-71 24 -116 66q-46 42 -69 98t-23 122h228
q0 -49 34 -82t105 -33q57 0 94 33t37 70q0 29 -31 48t-76 37q-46 17 -101 37q-54 19 -100 49t-77 73q-31 44 -31 110q0 61 26 118q26 56 73 99t110 69t142 25q88 0 154 -22q67 -23 111 -62t67 -91q24 -52 26 -111h-227z" />
    <glyph glyph-name="uni0456" unicode="&#x456;" horiz-adv-x="460" 
d="M348 0h-235l166 942h235zM436 1065q-53 0 -87 37t-34 86q0 59 45 101t101 42q53 0 87 -37t34 -86q0 -59 -45 -101q-46 -42 -101 -42z" />
    <glyph glyph-name="uni0457" unicode="&#x457;" horiz-adv-x="460" 
d="M348 0h-235l166 942h235zM266 1311q53 0 87 -37t34 -86q0 -59 -45 -102q-45 -42 -102 -42q-53 0 -87 37t-34 86q0 59 45 102q45 42 102 42zM635 1311q53 0 87 -37t34 -86q0 -59 -45 -102q-45 -42 -103 -42q-53 0 -87 37t-34 86q0 59 45 102q46 42 103 42z" />
    <glyph glyph-name="uni0458" unicode="&#x458;" horiz-adv-x="460" 
d="M346 -16q-12 -72 -43 -130t-77 -99q-46 -40 -102 -61q-56 -22 -120 -22q-29 0 -53 5q-25 5 -43 12q-23 8 -41 16l35 205q8 -4 18 -8t23 -6q12 -2 32 -2q55 0 93 30q37 31 47 90l164 928h235zM436 1065q-53 0 -87 37t-34 86q0 59 45 101t101 42q53 0 87 -37t34 -86
q0 -59 -45 -101q-46 -42 -101 -42z" />
    <glyph glyph-name="uni0459" unicode="&#x459;" horiz-adv-x="1433" 
d="M1176 614q61 2 111 -20.5t86 -60t55.5 -90t19.5 -107.5q0 -72 -28.5 -133.5t-78 -106.5t-113 -70.5t-132.5 -25.5h-461l125 717h-213l-109 -436q-35 -141 -120 -216t-212 -75q-23 0 -40 2t-33 6q-18 4 -33 10l33 191h51q53 0 86 30.5t51 102.5l162 610h653l-57 -328h197z
M1083 205q53 0 92 29.5t39 80.5q0 41 -28.5 68t-75.5 27h-168l-35 -205h176z" />
    <glyph glyph-name="uni045A" unicode="&#x45a;" horiz-adv-x="1484" 
d="M1227 614q61 2 111.5 -20.5t86 -60t55 -90t19.5 -107.5q0 -72 -28.5 -133.5t-78 -106.5t-112.5 -70.5t-133 -25.5h-461l68 389h-336l-70 -389h-235l166 942h235l-57 -328h336l57 328h237l-57 -328h197zM1135 205q53 0 92 29.5t39 80.5q0 41 -29 68t-76 27h-168l-35 -205
h177z" />
    <glyph glyph-name="uni045B" unicode="&#x45b;" horiz-adv-x="1103" 
d="M578 1147h239l-35 -195h-239l-33 -190q35 23 78 43q37 16 85 30.5t105 14.5q74 0 130.5 -28.5t95 -76t59 -110t20.5 -129.5q0 -47 -8 -86l-74 -420h-235l72 403q8 43 2 83t-27.5 71t-58.5 49.5t-90 18.5q-78 0 -136.5 -48.5t-74.5 -146.5l-76 -430h-236l168 952h-141
l35 195h139l27 143h235z" />
    <glyph glyph-name="uni045C" unicode="&#x45c;" horiz-adv-x="911" 
d="M676 0l-252 430l-76 -430h-235l166 942h235l-68 -389l355 389h268l-422 -455l291 -487h-262zM750 1311h225l-230 -256h-174z" />
    <glyph glyph-name="uni045E" unicode="&#x45e;" horiz-adv-x="962" 
d="M555 1290q2 -29 12 -51q10 -20 30 -36q19 -15 56 -15q41 0 65 15t36 36q14 23 20 51h168q-10 -59 -38 -107t-67 -81q-40 -33 -91 -50q-50 -17 -101 -18q-63 0 -114 23q-50 23 -84 58q-34 36 -51 82t-17 93h176zM162 942h239l127 -614l324 614h270q-152 -266 -274 -481
q-53 -92 -104 -180q-50 -88 -92 -161t-68 -121q-27 -48 -33 -56q-45 -76 -87 -129t-83 -87t-85 -50q-44 -15 -93 -15q-39 0 -74 9t-35 12l35 190h27q59 2 102 33t76 86l28 49z" />
    <glyph glyph-name="uni045F" unicode="&#x45f;" horiz-adv-x="1064" 
d="M952 0h-307l-37 -205h-225l37 205h-307l166 942h235l-127 -717h369l127 717h235z" />
    <glyph glyph-name="uni0490" unicode="&#x490;" horiz-adv-x="972" 
d="M565 1055l-186 -1055h-246l227 1290h564l41 236h245l-82 -471h-563z" />
    <glyph glyph-name="uni0491" unicode="&#x491;" horiz-adv-x="788" 
d="M885 717h-410l-127 -717h-235l166 942h409l33 184h235z" />
    <glyph glyph-name="uni1E9E" unicode="&#x1e9e;" horiz-adv-x="1269" 
d="M1305 1065l-291 -317q68 -25 121 -70q47 -39 85 -103q38 -63 37 -161q0 -94 -33 -170q-34 -76 -92 -130t-138 -84q-79 -30 -171 -30h-188l39 225h147q37 0 70 15q33 14 57 41q25 27 39 61q14 35 14 78q0 63 -35 108q-36 45 -98 45h-133l31 175l268 296h-313
q-66 0 -115 -42t-59 -107l-158 -895h-256l162 918q14 82 54 150q40 69 98 118t133 77q74 28 157 27h606z" />
    <glyph glyph-name="endash" unicode="&#x2013;" horiz-adv-x="1003" 
d="M1012 420h-860l36 205h861z" />
    <glyph glyph-name="emdash" unicode="&#x2014;" horiz-adv-x="1505" 
d="M1507 420h-1362l37 205h1362z" />
    <glyph glyph-name="quoteleft" unicode="&#x2018;" horiz-adv-x="409" 
d="M369 870q-53 0 -87 37t-34 86q0 66 27.5 121t64.5 98t78 74t69 45l33 -57q-27 -14 -49 -35q-20 -16 -37.5 -42t-27.5 -60q47 -4 78.5 -40t31.5 -83q0 -29 -12 -54.5t-31.5 -46t-46 -32t-57.5 -11.5z" />
    <glyph glyph-name="quoteright" unicode="&#x2019;" horiz-adv-x="409" 
d="M424 1331q53 0 87 -37t34 -86q0 -66 -28 -121t-64.5 -98t-77.5 -73.5t-70 -45.5l-33 58q25 14 47 35q18 16 38 41.5t30 60.5q-47 4 -79 40t-32 83q0 29 12.5 54.5t32 46t46 31.5t57.5 11z" />
    <glyph glyph-name="quotesinglbase" unicode="&#x201a;" horiz-adv-x="409" 
d="M229 256q53 0 87 -37t34 -86q0 -66 -27.5 -121t-64.5 -98t-78 -73.5t-69 -45.5l-33 58q25 14 47 34q18 16 37.5 42t30.5 61q-47 4 -79 40t-32 83q0 29 12 54.5t31.5 45.5t46 31.5t57.5 11.5z" />
    <glyph glyph-name="quotedblleft" unicode="&#x201c;" horiz-adv-x="747" 
d="M707 870q-53 0 -87 37t-34 86q0 66 27.5 121t64.5 98t78 74t69 45l33 -57q-27 -14 -49 -35q-20 -16 -37.5 -42t-28.5 -60q47 -4 79 -40t32 -83q0 -29 -12.5 -54.5t-31.5 -46t-45.5 -32t-57.5 -11.5zM369 870q-53 0 -87 37t-34 86q0 66 27.5 121t64.5 98t78 74t69 45
l33 -57q-27 -14 -49 -35q-20 -16 -37.5 -42t-27.5 -60q47 -4 78.5 -40t31.5 -83q0 -29 -12 -54.5t-31.5 -46t-46 -32t-57.5 -11.5z" />
    <glyph glyph-name="quotedblright" unicode="&#x201d;" horiz-adv-x="747" 
d="M424 1331q53 0 87 -37t34 -86q0 -66 -28 -121t-64.5 -98t-77.5 -73.5t-70 -45.5l-33 58q25 14 47 35q18 16 38 41.5t30 60.5q-47 4 -79 40t-32 83q0 29 12.5 54.5t32 46t46 31.5t57.5 11zM762 1331q53 0 87 -37t34 -86q0 -66 -28 -121t-64.5 -98t-77.5 -73.5t-70 -45.5
l-33 58q25 14 47 35q18 16 38 41.5t30 60.5q-47 4 -79 40t-32 83q0 29 12.5 54.5t32 46t46 31.5t57.5 11z" />
    <glyph glyph-name="quotedblbase" unicode="&#x201e;" horiz-adv-x="747" 
d="M229 256q53 0 87 -37t34 -86q0 -66 -27.5 -121t-64.5 -98t-78 -73.5t-69 -45.5l-33 58q25 14 47 34q18 16 37.5 42t30.5 61q-47 4 -79 40t-32 83q0 29 12 54.5t31.5 45.5t46 31.5t57.5 11.5zM567 256q53 0 87 -37t34 -86q0 -66 -27.5 -121t-64.5 -98t-78 -73.5t-69 -45.5
l-33 58q25 14 47 34q18 16 37.5 42t29.5 61q-47 4 -78.5 40t-31.5 83q0 29 12 54.5t31.5 45.5t46 31.5t57.5 11.5z" />
    <glyph glyph-name="dagger" unicode="&#x2020;" horiz-adv-x="768" 
d="M848 870h-215l-92 -522h-195l92 522h-215l33 185h215l41 235h195l-41 -235h215z" />
    <glyph glyph-name="daggerdbl" unicode="&#x2021;" horiz-adv-x="768" 
d="M258 1075h215l39 215h195l-39 -215h215l-31 -174h-215l-29 -164h215l-30 -174h-215l-39 -215h-195l39 215h-215l31 174h215l28 164h-215z" />
    <glyph glyph-name="bullet" unicode="&#x2022;" horiz-adv-x="778" 
d="M487 758q84 0 136.5 -55.5t52.5 -135.5q0 -47 -18.5 -87t-50.5 -69.5t-72.5 -47t-83.5 -17.5q-84 0 -136.5 55.5t-52.5 135.5q0 45 18.5 86t50 70.5t72.5 47t84 17.5z" />
    <glyph glyph-name="ellipsis" unicode="&#x2026;" horiz-adv-x="1228" 
d="M203 -10q-53 0 -87 36.5t-34 86.5q0 31 12 56.5t32.5 44.5t47.5 30.5t55 11.5q53 0 87 -37t34 -86q0 -31 -12 -56.5t-32.5 -45t-47 -30.5t-55.5 -11zM612 -10q-53 0 -86.5 36.5t-33.5 86.5q0 31 12 56.5t32.5 44.5t47 30.5t55.5 11.5q53 0 87 -37t34 -86
q0 -31 -12.5 -56.5t-33 -45t-47 -30.5t-55.5 -11zM1022 -10q-53 0 -87 36.5t-34 86.5q0 31 12.5 56.5t33 44.5t47 30.5t55.5 11.5q53 0 86.5 -37t33.5 -86q0 -31 -12 -56.5t-32.5 -45t-47 -30.5t-55.5 -11z" />
    <glyph glyph-name="perthousand" unicode="&#x2030;" horiz-adv-x="1904" 
d="M543 1290q55 0 101 -20.5t80 -55t53.5 -81t19.5 -97.5q0 -63 -26 -117.5t-67.5 -94.5t-96 -63.5t-113.5 -23.5q-55 0 -102.5 20.5t-81.5 55.5t-52 81t-18 97q0 63 25.5 117.5t67.5 94.5t96.5 63.5t113.5 23.5zM530 1137q-47 0 -85.5 -39t-38.5 -99q0 -49 28.5 -78.5
t71.5 -29.5q47 0 86 39t39 98q0 49 -29 79t-72 30zM995 0q-55 0 -102 20.5t-81 55.5t-52.5 81t-18.5 97q0 63 26 117.5t68 94.5t96 63.5t113 23.5q55 0 101.5 -20.5t80.5 -55.5t53 -81t19 -97q0 -63 -25.5 -117.5t-67.5 -94.5t-96.5 -63.5t-113.5 -23.5zM1008 154
q47 0 86 38.5t39 98.5q0 49 -29 78.5t-72 29.5q-47 0 -86 -38.5t-39 -98.5q0 -49 29 -78.5t72 -29.5zM164 0l1016 1290h194l-1016 -1290h-194zM1610 0q-55 0 -102.5 20.5t-81 55.5t-52 81t-18.5 97q0 63 25.5 117.5t67.5 94.5t96 63.5t114 23.5q55 0 101 -20.5t80 -55.5
t53.5 -81t19.5 -97q0 -63 -25.5 -117.5t-67.5 -94.5t-96.5 -63.5t-113.5 -23.5zM1622 154q47 0 86 38.5t39 98.5q0 49 -28.5 78.5t-71.5 29.5q-47 0 -86 -38.5t-39 -98.5q0 -49 28.5 -78.5t71.5 -29.5z" />
    <glyph glyph-name="guilsinglleft" unicode="&#x2039;" horiz-adv-x="573" 
d="M532 133h-221l-168 328l283 327h229l-286 -331z" />
    <glyph glyph-name="guilsinglright" unicode="&#x203a;" horiz-adv-x="573" 
d="M203 788h221l168 -327l-283 -328h-229l287 332z" />
    <glyph glyph-name="fraction" unicode="&#x2044;" horiz-adv-x="225" 
d="M-379 0l1016 1290h194l-1015 -1290h-195z" />
    <glyph glyph-name="uni2070" unicode="&#x2070;" horiz-adv-x="634" 
d="M487 993q18 0 42 11.5t45.5 38t36 69.5t14.5 109q0 59 -23.5 89.5t-54.5 30.5q-18 0 -42 -11t-45.5 -37.5t-35.5 -70.5t-14 -108q0 -59 23 -90t54 -31zM547 1485q100 0 165.5 -66.5t65.5 -189.5q0 -92 -25.5 -163t-66.5 -119t-93 -72.5t-106 -24.5q-100 0 -165.5 66.5
t-65.5 189.5q0 92 25.5 162.5t66.5 119t93.5 73t105.5 24.5z" />
    <glyph glyph-name="uni2074" unicode="&#x2074;" horiz-adv-x="552" 
d="M635 1116h72l-25 -143h-72l-20 -113h-154l21 113h-267l21 112l313 390h174zM481 1116l31 174l-143 -174h112z" />
    <glyph glyph-name="uni2075" unicode="&#x2075;" horiz-adv-x="583" 
d="M535 1266q39 0 71.5 -14.5t56 -39t37 -57.5t13.5 -70q0 -47 -20.5 -89t-55.5 -74.5t-80 -52t-92 -19.5q-80 0 -125 29.5t-68 66.5q-25 43 -30 98h157q4 -18 13 -30q8 -12 22.5 -21.5t40.5 -9.5q35 0 63.5 29.5t28.5 70.5q0 33 -19.5 58.5t-49.5 25.5q-23 0 -41.5 -10
t-28.5 -20q-14 -14 -22 -31h-134l107 369h358l-26 -144h-236l-26 -86q12 4 24 10q10 4 26 7.5t36 3.5z" />
    <glyph glyph-name="uni2076" unicode="&#x2076;" horiz-adv-x="583" 
d="M520 1284q37 -4 71 -20.5t58.5 -43t38.5 -60.5t14 -73q0 -49 -20 -93t-56 -75.5t-82 -50t-95 -18.5t-89.5 16.5t-70 44t-45 62.5t-15.5 71q0 45 13.5 82t34 67t46 56.5t50.5 53.5l155 172h164zM473 1167q-41 0 -70.5 -28.5t-29.5 -69.5q0 -35 22.5 -60.5t61.5 -25.5
q41 0 70.5 28.5t29.5 69.5q0 35 -22.5 60.5t-61.5 25.5z" />
    <glyph glyph-name="uni2077" unicode="&#x2077;" horiz-adv-x="501" 
d="M301 1475h420l-21 -113l-313 -502h-168l299 471h-242z" />
    <glyph glyph-name="uni2078" unicode="&#x2078;" horiz-adv-x="593" 
d="M469 850q-43 0 -85 12t-73.5 36t-52 57.5t-20.5 78.5q0 43 16 73t37 48q23 23 55 37q-14 10 -22 25q-8 12 -14.5 31.5t-6.5 43.5q0 39 16.5 75t45 61.5t69.5 41t88 15.5q100 0 155.5 -50.5t55.5 -119.5q0 -41 -13 -68.5t-30 -46.5q-18 -23 -41 -37q16 -12 29 -28
q10 -14 20.5 -35t10.5 -49q0 -41 -18.5 -77t-51.5 -63.5t-76 -44t-94 -16.5zM457 1298q0 -29 15 -44t36 -15q29 0 50.5 17.5t21.5 46.5t-15.5 44t-36.5 15q-29 0 -50 -17.5t-21 -46.5zM469 973q31 0 54.5 23.5t23.5 58.5q0 29 -18.5 45t-49.5 16t-54.5 -23.5t-23.5 -58.5
q0 -29 18.5 -45t49.5 -16z" />
    <glyph glyph-name="uni2079" unicode="&#x2079;" horiz-adv-x="583" 
d="M432 1051q-37 4 -70.5 20t-58 42t-39 60.5t-14.5 73.5q0 49 20.5 93t56 76t82 50.5t95.5 18.5t89 -16.5t69.5 -44t45 -62.5t15.5 -72q0 -47 -13.5 -83t-34 -65.5t-46 -56t-49.5 -53.5l-156 -172h-164zM479 1167q41 0 71 29t30 70q0 35 -22.5 60.5t-61.5 25.5
q-41 0 -71 -29t-30 -70q0 -35 22.5 -60.5t61.5 -25.5z" />
    <glyph glyph-name="uni2080" unicode="&#x2080;" horiz-adv-x="634" 
d="M319 -61q18 0 42 11t46 38t35 69q14 43 15 109q0 59 -24 90t-54 31q-18 0 -42 -12q-24 -11 -45 -37q-22 -27 -36 -71t-14 -108q0 -59 23 -90q23 -30 54 -30zM379 430q100 0 166 -66q66 -67 65 -190q0 -92 -25 -163q-26 -71 -67 -119t-93 -72q-52 -25 -106 -25
q-100 0 -165 67q-66 67 -66 189q0 92 26 163t66 119q41 48 93 73q53 24 106 24z" />
    <glyph glyph-name="uni2081" unicode="&#x2081;" horiz-adv-x="491" 
d="M131 297l217 123h103l-109 -615h-154l74 420l-80 -41z" />
    <glyph glyph-name="uni2082" unicode="&#x2082;" horiz-adv-x="583" 
d="M324 -51h213l-25 -144h-440l20 113l238 195q43 35 72 61q30 27 30 62q0 23 -17 42t-50 19q-29 0 -47 -12q-17 -12 -27 -29q-10 -18 -17 -41h-145q8 45 32 84t57 69q34 30 75 46t84 16q109 0 163 -52t54 -128q0 -49 -26 -89t-76 -81z" />
    <glyph glyph-name="uni2083" unicode="&#x2083;" horiz-adv-x="604" 
d="M492 111q16 -12 28 -29q10 -14 21 -35q10 -20 10 -49q0 -39 -16 -76t-49 -64q-32 -28 -76 -45q-45 -17 -103 -18q-106 0 -168 62q-61 61 -65 143l153 10q0 -12 4 -26t14 -27q9 -12 26 -20t44 -9q31 0 58 22t26 52q0 23 -17 41t-52 18h-70l23 123h67q35 0 52 19
q17 18 18 39q0 23 -17 39q-16 16 -49 16q-27 0 -43 -11t-26 -26q-12 -16 -21 -35l-141 11q18 78 83 136t163 58q100 0 153 -51t53 -119q0 -39 -13 -66q-13 -28 -30 -47q-17 -22 -40 -36z" />
    <glyph glyph-name="uni2084" unicode="&#x2084;" horiz-adv-x="552" 
d="M479 61h72l-25 -143h-71l-21 -113h-153l20 113h-266l20 113l314 389h174zM326 61l30 175l-143 -175h113z" />
    <glyph glyph-name="uni2085" unicode="&#x2085;" horiz-adv-x="583" 
d="M360 211q39 0 72 -14t56 -39q24 -25 37 -58t14 -69q0 -47 -21 -89q-20 -42 -55 -75t-80 -52t-92 -20q-80 0 -125 30t-68 66q-25 43 -30 99h157q4 -18 13 -31q8 -12 22 -21t41 -10q35 0 64 30t28 71q0 33 -19 58q-19 26 -50 26q-23 0 -41 -11q-18 -10 -29 -20
q-14 -14 -23 -31h-133l107 369h358l-26 -144h-236l-27 -86q12 4 25 11q10 4 26 7q15 3 35 3z" />
    <glyph glyph-name="uni2086" unicode="&#x2086;" horiz-adv-x="583" 
d="M367 229q37 -4 70 -20q34 -16 59 -43t39 -61t14 -72q0 -49 -21 -93q-20 -44 -56 -76t-82 -50t-95 -19q-49 0 -89 17q-40 16 -70 44t-45 62q-15 35 -15 72q0 45 13 82t34 66q20 30 46 57t50 53l156 172h164zM319 113q-41 0 -70 -29q-30 -29 -30 -70q0 -35 23 -60
q23 -26 61 -26q41 0 71 29t29 70q0 35 -22 60q-23 26 -62 26z" />
    <glyph glyph-name="uni2087" unicode="&#x2087;" horiz-adv-x="501" 
d="M119 420h420l-21 -113l-313 -502h-168l299 471h-242z" />
    <glyph glyph-name="uni2088" unicode="&#x2088;" horiz-adv-x="593" 
d="M297 -205q-43 0 -85 12t-74 36t-52 58t-20 79q0 43 16 72q16 30 37 48q23 23 55 37q-14 10 -22 25q-8 12 -15 32q-6 19 -6 44q0 39 16 74q16 36 46 62q29 26 69 41q41 15 88 15q100 0 156 -50q55 -50 55 -120q0 -41 -13 -69t-30 -46q-18 -23 -41 -36q16 -12 29 -29
q10 -14 20 -35q10 -20 11 -49q0 -41 -19 -77q-18 -36 -51 -63q-33 -28 -76 -44q-43 -17 -94 -17zM285 244q0 -29 15 -44t36 -16q29 0 50 18q22 17 22 46t-16 44q-15 15 -36 15q-29 0 -50 -17t-21 -46zM297 -82q31 0 54 24q24 24 24 58q0 29 -19 45q-18 16 -49 16t-54 -23
q-24 -24 -24 -58q0 -29 19 -46q18 -16 49 -16z" />
    <glyph glyph-name="uni2089" unicode="&#x2089;" horiz-adv-x="583" 
d="M281 -4q-37 4 -71 20t-58 42q-25 26 -39 61t-15 74q0 49 21 93q20 44 56 75q36 32 82 51q46 18 95 18t89 -16t70 -44t45 -63t15 -71q0 -47 -13 -83t-34 -66q-20 -30 -46 -56q-26 -27 -50 -54l-156 -172h-163zM328 113q41 0 70 28q30 29 30 70q0 35 -22 60q-23 26 -62 26
q-41 0 -71 -29t-29 -69q0 -35 22 -61q23 -25 62 -25z" />
    <glyph glyph-name="Euro" unicode="&#x20ac;" horiz-adv-x="1413" 
d="M201 848h143q31 80 91.5 159.5t145.5 145.5t187 106.5t215 40.5t207 -39.5t162.5 -104t110.5 -147.5t48 -169h-254q-6 39 -29.5 78.5t-61.5 72.5t-89 53.5t-112 20.5q-98 0 -166 -34t-115 -75q-53 -49 -90 -108h336l-29 -164h-371l-20 -113h401l-30 -163h-310
q25 -53 66 -93q35 -35 91 -62.5t142 -27.5q53 0 104.5 17.5t96.5 48.5t83 70.5t67 87.5h260q-37 -92 -98.5 -175.5t-143.5 -147t-180 -100t-211 -36.5q-98 0 -186.5 30.5t-160 86t-122.5 132t-76 169.5h-180l29 163h112l21 113h-113z" />
    <glyph glyph-name="uni20B4" unicode="&#x20b4;" horiz-adv-x="1126" 
d="M1200 860l-29 -164h-983l29 164h549q29 12 51 33q20 16 36.5 40.5t16.5 59.5q0 41 -36.5 72t-110.5 31q-66 0 -109 -37t-59 -86h-240q14 70 53.5 129t95.5 103t127 69.5t150 25.5q94 0 168 -23.5t124 -63t77 -90t27 -105.5q0 -39 -11.5 -68.5t-26 -49t-26.5 -30.5
l-12 -10h139zM147 430l29 164h983l-29 -164h-548q-31 -12 -54 -33q-20 -16 -35.5 -40.5t-15.5 -59.5q0 -41 37 -71.5t111 -30.5q66 0 108.5 36.5t59.5 85.5h239q-14 -70 -53 -129t-95.5 -103t-127 -69.5t-150.5 -25.5q-94 0 -167.5 23.5t-124 63.5t-77 90t-26.5 105
q0 39 11 69t25.5 49.5t26.5 29.5l13 10h-140z" />
    <glyph glyph-name="uni20BD" unicode="&#x20bd;" horiz-adv-x="1167" 
d="M176 707h133l103 583h483q88 0 158 -29q70 -30 116 -80q47 -50 72 -116t25 -137q0 -88 -34 -166t-95 -135t-146 -91q-84 -34 -184 -34h-289l-18 -113h379l-37 -205h-379l-33 -184h-246l33 184h-133l37 205h133l18 113h-133zM813 707q43 0 81 15t65 43q28 28 45 64
q16 37 16 78q0 66 -43 117t-119 51h-237l-66 -368h258z" />
    <glyph glyph-name="uni2116" unicode="&#x2116;" horiz-adv-x="1955" 
d="M1358 205h553l-37 -205h-553zM1694 502q47 0 86 39t39 98q0 49 -30 79t-75 30q-47 0 -86 -39t-39 -99q0 -49 30 -78.5t75 -29.5zM1729 920q57 0 107 -21.5t86 -58.5t56.5 -86t20.5 -105q0 -68 -26.5 -126t-72 -101t-102.5 -68.5t-121 -25.5q-59 0 -108 21.5t-85 58
t-56.5 86t-20.5 104.5q0 68 26.5 126t70.5 101t103 69t122 26zM1395 1290l-228 -1290h-215l-426 840l-147 -840h-246l227 1290h215l426 -839l148 839h246z" />
    <glyph glyph-name="trademark" unicode="&#x2122;" horiz-adv-x="1157" 
d="M637 1157h-143l-70 -399h-143l69 399h-143l22 133h430zM911 911l-77 144l-52 -297h-143l92 532h123l115 -225l192 225h123l-92 -532h-143l51 297l-127 -144h-62z" />
    <glyph glyph-name="arrowleft" unicode="&#x2190;" horiz-adv-x="2048" 
d="M901 1270v-287l-246 -246h1270v-205h-1270l246 -245v-287l-635 635z" />
    <glyph glyph-name="arrowup" unicode="&#x2191;" horiz-adv-x="2048" 
d="M1761 850h-286l-246 246v-1270h-205v1270l-246 -246h-286l634 635z" />
    <glyph glyph-name="arrowright" unicode="&#x2192;" horiz-adv-x="2048" 
d="M1966 635l-635 -635v287l246 245h-1270v205h1270l-246 246v287z" />
    <glyph glyph-name="arrowdown" unicode="&#x2193;" horiz-adv-x="2048" 
d="M1126 -174l-634 635h286l246 -246v1270h205v-1270l246 246h286z" />
    <glyph glyph-name="arrowboth" unicode="&#x2194;" horiz-adv-x="2048" 
d="M297 635l635 635v-287l-246 -246h881l-246 246v287l635 -635l-635 -635v287l246 245h-881l246 -245v-287z" />
    <glyph glyph-name="arrowupdn" unicode="&#x2195;" horiz-adv-x="2048" 
d="M1116 -174l-635 635h287l246 -246v881l-246 -246h-287l635 635l635 -635h-287l-245 246v-881l245 246h287z" />
    <glyph glyph-name="uni2196" unicode="&#x2196;" horiz-adv-x="2048" 
d="M1393 1260l-205 -205h-338l901 -899l-143 -146l-901 901v-338l-205 -204v891h891z" />
    <glyph glyph-name="uni2197" unicode="&#x2197;" horiz-adv-x="2048" 
d="M1690 1260v-891l-205 204v338l-901 -901l-144 146l901 899h-337l-205 205h891z" />
    <glyph glyph-name="uni2198" unicode="&#x2198;" horiz-adv-x="2048" 
d="M799 10l205 205h337l-901 899l144 146l901 -902v338l205 205v-891h-891z" />
    <glyph glyph-name="uni2199" unicode="&#x2199;" horiz-adv-x="2048" 
d="M481 10v891l205 -205v-338l901 902l144 -146l-902 -899h338l205 -205h-891z" />
    <glyph glyph-name="minus" unicode="&#x2212;" horiz-adv-x="952" 
d="M942 420h-809l37 205h809z" />
    <glyph glyph-name="approxequal" unicode="&#x2248;" horiz-adv-x="921" 
d="M762 584q-49 0 -100.5 17t-99.5 39t-91 39t-78 17q-39 0 -69.5 -27.5t-40.5 -74.5h-185q29 162 113 239.5t201 77.5q49 0 100 -17t99 -38.5t91 -39t78 -17.5q39 0 70 27.5t41 74.5h184q-29 -162 -112.5 -239.5t-200.5 -77.5zM690 174q-49 0 -100 17.5t-99.5 39t-91.5 39
t-77 17.5q-39 0 -71 -28t-40 -75h-184q29 162 111.5 240t199.5 78q49 0 100 -17.5t100.5 -39t92.5 -39t78 -17.5q39 0 69.5 27.5t38.5 75.5h184q-29 -162 -111.5 -240t-199.5 -78z" />
    <glyph glyph-name="notequal" unicode="&#x2260;" horiz-adv-x="921" 
d="M711 604l-101 -164h348l-38 -215h-431l-131 -215h-215l131 215h-194l39 215h276l101 164h-349l37 215h430l131 215h216l-132 -215h195l-37 -215h-276z" />
    <glyph glyph-name="lessequal" unicode="&#x2264;" horiz-adv-x="942" 
d="M854 0h-778l35 195h778zM188 584l27 143l823 317l-37 -217l-512 -184l449 -184l-37 -193z" />
    <glyph glyph-name="greaterequal" unicode="&#x2265;" horiz-adv-x="942" 
d="M864 0h-778l35 195h778zM983 727l-27 -143l-823 -318l37 217l512 185l-449 184l37 192z" />
    <glyph glyph-name="uni2460" unicode="&#x2460;" horiz-adv-x="2048" 
d="M256 655q0 180 68.5 339t186.5 277t276.5 186.5t338.5 68.5t339 -68.5t277 -186.5t186.5 -276.5t68.5 -339.5q0 -180 -68.5 -338.5t-186.5 -276.5t-276.5 -186.5t-339.5 -68.5q-180 0 -338.5 67.5t-276.5 185.5t-186.5 276.5t-68.5 340.5zM471 655q0 -135 52 -253.5
t141.5 -208t208 -141.5t253.5 -52t254 52t208 141.5t141.5 208t52.5 253.5t-52.5 254t-141.5 208t-207.5 141.5t-254.5 52.5q-135 0 -253.5 -52.5t-208 -141.5t-141.5 -208t-52 -254zM1260 1065v-819h-205v588l-103 -66l-92 143l225 154h175z" />
    <glyph glyph-name="uni2461" unicode="&#x2461;" horiz-adv-x="2048" 
d="M1423 430v-184h-583v133l286 297q31 31 56.5 63.5t25.5 79.5q0 31 -21.5 51.5t-60.5 20.5q-78 0 -92 -92h-205q4 57 28 107t64 88t92 59.5t113 21.5q66 0 119 -19.5t90 -53t57.5 -78.5t20.5 -95q0 -84 -23.5 -136t-68.5 -99l-154 -164h256zM256 655q0 180 68.5 339
t186.5 277t276.5 186.5t338.5 68.5t339 -68.5t277 -186.5t186.5 -276.5t68.5 -339.5q0 -180 -68.5 -338.5t-186.5 -276.5t-276.5 -186.5t-339.5 -68.5q-180 0 -338.5 67.5t-276.5 185.5t-186.5 276.5t-68.5 340.5zM471 655q0 -135 52 -253.5t141.5 -208t208 -141.5
t253.5 -52t254 52t208 141.5t141.5 208t52.5 253.5t-52.5 254t-141.5 208t-207.5 141.5t-254.5 52.5q-135 0 -253.5 -52.5t-208 -141.5t-141.5 -208t-52 -254z" />
    <glyph glyph-name="uni2462" unicode="&#x2462;" horiz-adv-x="2048" 
d="M1300 676q37 -12 68 -37q27 -23 48.5 -59.5t21.5 -94.5q0 -51 -21.5 -97t-61.5 -80t-97.5 -53t-131.5 -19q-147 0 -228 73.5t-89 182.5h205q8 -31 33.5 -51.5t78.5 -20.5q47 0 75 25.5t28 56.5t-27.5 56.5t-75.5 25.5h-82v164h82q37 0 59.5 19t22.5 52q0 31 -21.5 51.5
t-60.5 20.5t-61.5 -20.5t-30.5 -51.5h-205q4 53 27 100.5t60.5 82t91 54t118.5 19.5q135 0 211 -66.5t76 -158.5q0 -51 -17.5 -84t-39.5 -53q-25 -23 -56 -37zM256 655q0 180 68.5 339t186.5 277t276.5 186.5t338.5 68.5t339 -68.5t277 -186.5t186.5 -276.5t68.5 -339.5
q0 -180 -68.5 -338.5t-186.5 -276.5t-276.5 -186.5t-339.5 -68.5q-180 0 -338.5 67.5t-276.5 185.5t-186.5 276.5t-68.5 340.5zM471 655q0 -135 52 -253.5t141.5 -208t208 -141.5t253.5 -52t254 52t208 141.5t141.5 208t52.5 253.5t-52.5 254t-141.5 208t-207.5 141.5
t-254.5 52.5q-135 0 -253.5 -52.5t-208 -141.5t-141.5 -208t-52 -254z" />
    <glyph glyph-name="uni2463" unicode="&#x2463;" horiz-adv-x="2048" 
d="M1413 399h-82v-153h-205v153h-348v164l328 502h225v-481h82v-185zM1126 584v215l-143 -215h143zM256 655q0 180 68.5 339t186.5 277t276.5 186.5t338.5 68.5t339 -68.5t277 -186.5t186.5 -276.5t68.5 -339.5q0 -180 -68.5 -338.5t-186.5 -276.5t-276.5 -186.5
t-339.5 -68.5q-180 0 -338.5 67.5t-276.5 185.5t-186.5 276.5t-68.5 340.5zM471 655q0 -135 52 -253.5t141.5 -208t208 -141.5t253.5 -52t254 52t208 141.5t141.5 208t52.5 253.5t-52.5 254t-141.5 208t-207.5 141.5t-254.5 52.5q-135 0 -253.5 -52.5t-208 -141.5
t-141.5 -208t-52 -254z" />
    <glyph glyph-name="uni2464" unicode="&#x2464;" horiz-adv-x="2048" 
d="M1157 799q123 0 200 -77t77 -200q0 -61 -22.5 -113.5t-62.5 -91t-96.5 -60t-126.5 -21.5q-131 0 -211.5 73.5t-95.5 182.5h205q6 -20 20 -37q10 -14 31 -24.5t51 -10.5q47 0 75 27.5t28 74.5t-27.5 75t-75.5 28q-29 0 -46 -8.5t-27 -18.5q-12 -10 -19 -25h-194l61 492
h471v-184h-307l-21 -103q14 4 33 10q16 4 36.5 7.5t43.5 3.5zM256 655q0 180 68.5 339t186.5 277t276.5 186.5t338.5 68.5t339 -68.5t277 -186.5t186.5 -276.5t68.5 -339.5q0 -180 -68.5 -338.5t-186.5 -276.5t-276.5 -186.5t-339.5 -68.5q-180 0 -338.5 67.5t-276.5 185.5
t-186.5 276.5t-68.5 340.5zM471 655q0 -135 52 -253.5t141.5 -208t208 -141.5t253.5 -52t254 52t208 141.5t141.5 208t52.5 253.5t-52.5 254t-141.5 208t-207.5 141.5t-254.5 52.5q-135 0 -253.5 -52.5t-208 -141.5t-141.5 -208t-52 -254z" />
    <glyph glyph-name="uni2465" unicode="&#x2465;" horiz-adv-x="2048" 
d="M1126 236q-66 0 -122 23.5t-97 62t-64.5 91t-23.5 109.5q0 49 10.5 91t24.5 71q16 35 37 64l215 317h215l-184 -256q131 -16 214 -90t83 -197q0 -57 -24 -109.5t-64.5 -91t-97 -62t-122.5 -23.5zM1024 522q0 -39 27.5 -70.5t74.5 -31.5t75 31.5t28 70.5t-27.5 71
t-75.5 32q-47 0 -74.5 -32t-27.5 -71zM256 655q0 180 68.5 339t186.5 277t276.5 186.5t338.5 68.5t339 -68.5t277 -186.5t186.5 -276.5t68.5 -339.5q0 -180 -68.5 -338.5t-186.5 -276.5t-276.5 -186.5t-339.5 -68.5q-180 0 -338.5 67.5t-276.5 185.5t-186.5 276.5
t-68.5 340.5zM471 655q0 -135 52 -253.5t141.5 -208t208 -141.5t253.5 -52t254 52t208 141.5t141.5 208t52.5 253.5t-52.5 254t-141.5 208t-207.5 141.5t-254.5 52.5q-135 0 -253.5 -52.5t-208 -141.5t-141.5 -208t-52 -254z" />
    <glyph glyph-name="uni2466" unicode="&#x2466;" horiz-adv-x="2048" 
d="M1413 1065v-154l-317 -665h-205l303 635h-334v184h553zM256 655q0 180 68.5 339t186.5 277t276.5 186.5t338.5 68.5t339 -68.5t277 -186.5t186.5 -276.5t68.5 -339.5q0 -180 -68.5 -338.5t-186.5 -276.5t-276.5 -186.5t-339.5 -68.5q-180 0 -338.5 67.5t-276.5 185.5
t-186.5 276.5t-68.5 340.5zM471 655q0 -135 52 -253.5t141.5 -208t208 -141.5t253.5 -52t254 52t208 141.5t141.5 208t52.5 253.5t-52.5 254t-141.5 208t-207.5 141.5t-254.5 52.5q-135 0 -253.5 -52.5t-208 -141.5t-141.5 -208t-52 -254z" />
    <glyph glyph-name="uni2467" unicode="&#x2467;" horiz-adv-x="2048" 
d="M1126 399q53 0 83 27t30 66t-29.5 65.5t-83.5 26.5q-53 0 -82.5 -27t-29.5 -65q0 -39 29.5 -66t82.5 -27zM1126 768q39 0 60.5 20.5t21.5 51.5t-21.5 51t-60.5 20t-60.5 -20.5t-21.5 -50.5q0 -31 21.5 -51.5t60.5 -20.5zM256 655q0 180 68.5 339t186.5 277t276.5 186.5
t338.5 68.5t339 -68.5t277 -186.5t186.5 -276.5t68.5 -339.5q0 -180 -68.5 -338.5t-186.5 -276.5t-276.5 -186.5t-339.5 -68.5q-180 0 -338.5 67.5t-276.5 185.5t-186.5 276.5t-68.5 340.5zM471 655q0 -135 52 -253.5t141.5 -208t208 -141.5t253.5 -52t254 52t208 141.5
t141.5 208t52.5 253.5t-52.5 254t-141.5 208t-207.5 141.5t-254.5 52.5q-135 0 -253.5 -52.5t-208 -141.5t-141.5 -208t-52 -254zM1126 236q-154 0 -235.5 73.5t-81.5 182.5q0 53 21.5 87.5t50.5 57.5q31 25 71 39q-33 16 -57 41q-23 23 -39 54.5t-16 78.5q0 92 73.5 158.5
t212.5 66.5t213 -66.5t74 -158.5q0 -47 -17.5 -79t-39.5 -54q-25 -25 -56 -41q39 -14 72 -39q27 -23 49.5 -57.5t22.5 -87.5q0 -109 -82 -182.5t-236 -73.5z" />
    <glyph glyph-name="uni2468" unicode="&#x2468;" horiz-adv-x="2048" 
d="M1997 655q0 -180 -68.5 -338.5t-186.5 -276.5t-276.5 -186.5t-339.5 -68.5q-180 0 -338.5 68.5t-276.5 186.5t-186.5 276.5t-68.5 338.5t68.5 339t186.5 277t276.5 186.5t338.5 68.5t339 -67.5t277 -186.5t186.5 -278t68.5 -339zM1782 655q0 135 -52.5 254t-141.5 208
t-207.5 141.5t-254.5 52.5q-135 0 -253.5 -52.5t-208 -141.5t-141.5 -207.5t-52 -254.5q0 -135 52 -254.5t141.5 -209t208 -140.5t253.5 -51t254 52t208 141.5t141.5 208t52.5 253.5zM1126 1075q66 0 122.5 -23.5t97 -62.5t64.5 -91t24 -110q0 -51 -11.5 -92t-25.5 -69
q-16 -35 -35 -64l-215 -317h-215l184 256q-131 16 -214 90t-83 196q0 57 23.5 109.5t64.5 91.5t97 62.5t122 23.5zM1229 788q0 39 -27.5 71t-75.5 32q-47 0 -74.5 -32t-27.5 -71t27.5 -70.5t74.5 -31.5t75 31.5t28 70.5z" />
    <glyph glyph-name="uni24EA" unicode="&#x24ea;" horiz-adv-x="2048" 
d="M983 655q0 -131 41 -183t102 -52t102.5 52t41.5 183t-41 183.5t-103 52.5q-61 0 -102 -52.5t-41 -183.5zM1475 655q0 -100 -27 -178t-74 -132t-110.5 -81.5t-137.5 -27.5t-137 27.5t-110.5 81.5t-74 132t-26.5 178t26.5 178t74 131.5t111 82t136.5 28.5q74 0 137.5 -28.5
t110.5 -82t74 -131.5t27 -178zM256 655q0 180 68.5 339t186.5 277t276.5 186.5t338.5 68.5t339 -68.5t277 -186.5t186.5 -276.5t68.5 -339.5q0 -180 -68.5 -338.5t-186.5 -276.5t-276.5 -186.5t-339.5 -68.5q-180 0 -338.5 67.5t-276.5 185.5t-186.5 276.5t-68.5 340.5z
M471 655q0 -135 52 -253.5t141.5 -208t208 -141.5t253.5 -52t254 52t208 141.5t141.5 208t52.5 253.5t-52.5 254t-141.5 208t-207.5 141.5t-254.5 52.5q-135 0 -253.5 -52.5t-208 -141.5t-141.5 -208t-52 -254z" />
    <glyph glyph-name="uni24FF" unicode="&#x24ff;" horiz-adv-x="2048" 
d="M983 655q0 131 41 183.5t102 52.5t102.5 -52.5t41.5 -183.5t-41 -183t-103 -52q-61 0 -102 52t-41 183zM1475 655q0 100 -27 178t-74 131.5t-110.5 82t-137.5 28.5t-137 -28.5t-110.5 -82t-74 -131t-26.5 -178.5q0 -100 26.5 -178t74 -132t111 -81.5t136.5 -27.5
q74 0 137.5 27.5t110.5 81.5t74 132t27 178zM256 655q0 180 68.5 339t186.5 277t276.5 186.5t338.5 68.5t339 -68.5t277 -186.5t186.5 -276.5t68.5 -339.5q0 -180 -68.5 -338.5t-186.5 -276.5t-276.5 -186.5t-339.5 -68.5q-180 0 -338.5 67.5t-276.5 185.5t-186.5 276.5
t-68.5 340.5z" />
    <glyph glyph-name="uni2776" unicode="&#x2776;" horiz-adv-x="2048" 
d="M256 655q0 180 68.5 339t186.5 277t276.5 186.5t338.5 68.5t339 -68.5t277 -186.5t186.5 -276.5t68.5 -339.5q0 -180 -68.5 -338.5t-186.5 -276.5t-276.5 -186.5t-339.5 -68.5q-180 0 -338.5 67.5t-276.5 185.5t-186.5 276.5t-68.5 340.5zM1085 1065l-225 -154l92 -143
l103 66v-588h205v819h-175z" />
    <glyph glyph-name="uni2777" unicode="&#x2777;" horiz-adv-x="2048" 
d="M1167 430l154 164q45 47 68.5 99t23.5 136q0 49 -20.5 94.5t-57.5 79t-90 53t-119 19.5q-61 0 -113 -21.5t-92 -59.5t-63.5 -88t-28.5 -107h205q14 92 92 92q39 0 60.5 -20.5t21.5 -51.5q0 -47 -25.5 -79.5t-56.5 -63.5l-286 -297v-133h583v184h-256zM256 655
q0 180 68.5 339t186.5 277t276.5 186.5t338.5 68.5t339 -68.5t277 -186.5t186.5 -276.5t68.5 -339.5q0 -180 -68.5 -338.5t-186.5 -276.5t-276.5 -186.5t-339.5 -68.5q-180 0 -338.5 67.5t-276.5 185.5t-186.5 276.5t-68.5 340.5z" />
    <glyph glyph-name="uni2778" unicode="&#x2778;" horiz-adv-x="2048" 
d="M1300 676q31 14 56 37q23 20 40 53t17 84q0 92 -75.5 158.5t-211.5 66.5q-66 0 -119 -19.5t-90.5 -54t-60 -82t-27.5 -100.5h205q8 31 30.5 51.5t61.5 20.5t60.5 -20.5t21.5 -51.5q0 -33 -22.5 -52t-59.5 -19h-82v-164h82q47 0 75 -26t28 -56q0 -31 -27.5 -56.5
t-75.5 -25.5q-53 0 -78.5 20.5t-33.5 51.5h-205q8 -109 89 -182.5t228 -73.5q74 0 131.5 19t97.5 53t61.5 80t21.5 97q0 57 -21.5 94t-48.5 60q-31 25 -68 37zM256 655q0 180 68.5 339t186.5 277t276.5 186.5t338.5 68.5t339 -68.5t277 -186.5t186.5 -276.5t68.5 -339.5
q0 -180 -68.5 -338.5t-186.5 -276.5t-276.5 -186.5t-339.5 -68.5q-180 0 -338.5 67.5t-276.5 185.5t-186.5 276.5t-68.5 340.5z" />
    <glyph glyph-name="uni2779" unicode="&#x2779;" horiz-adv-x="2048" 
d="M1413 584h-82v481h-225l-328 -502v-164h348v-153h205v153h82v185zM983 584l143 215v-215h-143zM256 655q0 180 68.5 339t186.5 277t276.5 186.5t338.5 68.5t339 -68.5t277 -186.5t186.5 -276.5t68.5 -339.5q0 -180 -68.5 -338.5t-186.5 -276.5t-276.5 -186.5
t-339.5 -68.5q-180 0 -338.5 67.5t-276.5 185.5t-186.5 276.5t-68.5 340.5z" />
    <glyph glyph-name="uni277A" unicode="&#x277a;" horiz-adv-x="2048" 
d="M1157 799q-23 0 -43 -3t-37 -8q-18 -6 -33 -10l21 103h307v184h-471l-61 -492h194q6 14 19 25q10 10 27.5 18.5t45.5 8.5q47 0 75 -28t28 -75t-27.5 -74.5t-75.5 -27.5q-31 0 -51 10t-31 25q-14 16 -20 37h-205q14 -109 95 -182.5t212 -73.5q70 0 126.5 21.5t96.5 60
t62.5 91t22.5 113.5q0 123 -77 200t-200 77zM256 655q0 180 68.5 339t186.5 277t276.5 186.5t338.5 68.5t339 -68.5t277 -186.5t186.5 -276.5t68.5 -339.5q0 -180 -68.5 -338.5t-186.5 -276.5t-276.5 -186.5t-339.5 -68.5q-180 0 -338.5 67.5t-276.5 185.5t-186.5 276.5
t-68.5 340.5z" />
    <glyph glyph-name="uni277B" unicode="&#x277b;" horiz-adv-x="2048" 
d="M1126 236q66 0 122.5 23.5t97 62t64.5 91t24 109.5q0 123 -83 197t-214 90l184 256h-215l-215 -317q-20 -29 -37 -64q-14 -29 -24.5 -71t-10.5 -91q0 -57 23.5 -109.5t64.5 -91t97 -62t122 -23.5zM1024 522q0 39 27.5 71t74.5 32t75 -32t28 -71t-27.5 -70.5t-75.5 -31.5
q-47 0 -74.5 31.5t-27.5 70.5zM256 655q0 180 68.5 339t186.5 277t276.5 186.5t338.5 68.5t339 -68.5t277 -186.5t186.5 -276.5t68.5 -339.5q0 -180 -68.5 -338.5t-186.5 -276.5t-276.5 -186.5t-339.5 -68.5q-180 0 -338.5 67.5t-276.5 185.5t-186.5 276.5t-68.5 340.5z" />
    <glyph glyph-name="uni277C" unicode="&#x277c;" horiz-adv-x="2048" 
d="M860 1065v-184h334l-303 -635h205l317 665v154h-553zM256 655q0 180 68.5 339t186.5 277t276.5 186.5t338.5 68.5t339 -68.5t277 -186.5t186.5 -276.5t68.5 -339.5q0 -180 -68.5 -338.5t-186.5 -276.5t-276.5 -186.5t-339.5 -68.5q-180 0 -338.5 67.5t-276.5 185.5
t-186.5 276.5t-68.5 340.5z" />
    <glyph glyph-name="uni277D" unicode="&#x277d;" horiz-adv-x="2048" 
d="M1126 399q-53 0 -82.5 27t-29.5 66t29.5 65.5t82.5 26.5t83 -27t30 -65q0 -39 -30 -66t-83 -27zM1126 768q-39 0 -60.5 20.5t-21.5 51.5t21.5 51t60.5 20t60.5 -20.5t21.5 -50.5q0 -31 -21.5 -51.5t-60.5 -20.5zM256 655q0 180 68.5 339t186.5 277t276.5 186.5
t338.5 68.5t339 -68.5t277 -186.5t186.5 -276.5t68.5 -339.5q0 -180 -68.5 -338.5t-186.5 -276.5t-276.5 -186.5t-339.5 -68.5q-180 0 -338.5 67.5t-276.5 185.5t-186.5 276.5t-68.5 340.5zM1126 236q154 0 236 73.5t82 182.5q0 53 -22.5 87.5t-49.5 57.5q-33 25 -72 39
q31 16 56 41q23 23 40 54.5t17 78.5q0 92 -73.5 158.5t-213.5 66.5q-139 0 -212.5 -66.5t-73.5 -158.5q0 -47 16 -79t39 -54q25 -25 57 -41q-41 -14 -71 -39q-29 -23 -50.5 -57.5t-21.5 -87.5q0 -109 81.5 -182.5t235.5 -73.5z" />
    <glyph glyph-name="uni277E" unicode="&#x277e;" horiz-adv-x="2048" 
d="M1997 655q0 -180 -68.5 -338.5t-186.5 -276.5t-276.5 -186.5t-339.5 -68.5q-180 0 -338.5 68.5t-276.5 186.5t-186.5 276.5t-68.5 338.5t68.5 339t186.5 277t276.5 186.5t338.5 68.5t339 -67.5t277 -186.5t186.5 -278t68.5 -339zM1126 1075q-66 0 -122 -23.5t-97 -62.5
t-64.5 -91t-23.5 -110q0 -123 83 -196.5t214 -89.5l-184 -256h215l215 317q18 29 35 64q14 29 25.5 69.5t11.5 91.5q0 57 -24 109.5t-64.5 91.5t-97 62.5t-122.5 23.5zM1229 788q0 -39 -27.5 -70.5t-75.5 -31.5q-47 0 -74.5 32t-27.5 70q0 39 27.5 71t74.5 32t75 -32t28 -71
z" />
    <glyph glyph-name="uniF6C3" unicode="&#xf6c3;" horiz-adv-x="389" 
d="M170 -102q57 0 89 -39t32 -90q0 -68 -32 -121.5t-73 -92t-83 -61t-60 -31.5l-33 56q29 14 53 35q23 16 41.5 38.5t28.5 49.5q-53 4 -81.5 35.5t-28.5 76.5q0 57 45 100.5t102 43.5z" />
    <glyph glyph-name="uniF6D1" unicode="&#xf6d1;" horiz-adv-x="696" 
d="M510 1659q0 -33 23.5 -68t76.5 -35q33 0 56.5 15.5t40.5 36.5q18 23 28 51h172q-35 -123 -120 -189.5t-189 -66.5q-63 0 -112.5 22.5t-82 58.5t-50 82t-17.5 93h174v0z" />
    <glyph glyph-name="uniF6D4" unicode="&#xf6d4;" horiz-adv-x="696" 
d="M463 1290q2 -29 12 -51q10 -20 29.5 -35.5t56.5 -15.5q41 0 64.5 15.5t36.5 35.5q14 23 20 51h168q-10 -59 -38 -107t-67.5 -81t-90 -50.5t-101.5 -17.5q-63 0 -113.5 22.5t-84 58.5t-51 82t-17.5 93h176z" />
    <glyph glyph-name="uniFB06" unicode="&#xfb06;" horiz-adv-x="1566" 
d="M678 666q-6 35 -40 61.5t-95 26.5q-47 0 -78 -27t-31 -63q0 -29 31 -48.5t76 -37t99 -37t99 -50t76 -76.5t31 -114q0 -61 -25.5 -117.5t-72 -99.5t-112 -68.5t-147.5 -25.5q-96 0 -166.5 23.5t-116.5 65.5t-68.5 98t-22.5 122h227q0 -49 34 -82t105 -33q57 0 94 33t37 70
q0 29 -30.5 48t-76.5 36.5t-100.5 37t-100.5 49t-76.5 73.5t-30.5 110q0 61 25.5 117.5t72.5 99.5t110.5 68.5t141.5 25.5q20 0 39.5 -2t38.5 -4v31q0 80 38.5 154.5t105.5 133t156 93.5t191 35q166 0 258 -86t92 -217q0 -33 -6 -66l-14 -82h205l-37 -215h-205l-68 -381
q-12 -63 22 -105t105 -42q16 0 33 4q6 2 10 4l-36 -205q-12 -4 -25 -6q-23 -6 -59 -6q-72 0 -125.5 22.5t-90 62.5t-55 93t-18.5 115q0 37 6 73l66 371h-142l33 195h72q57 4 90 39.5t33 93.5q0 53 -41 93t-119 40q-55 0 -103.5 -19.5t-84 -51.5t-56 -76t-20.5 -93
q0 -45 8 -77.5t19 -63.5t23.5 -63.5t18.5 -77.5h-227z" />
    <glyph glyph-name="lslash.salt" horiz-adv-x="655" 
d="M268 479l-170 -100l39 225l172 101l103 585h235l-76 -430l172 103l-38 -226l-173 -102l-51 -289q-10 -63 19.5 -105t105.5 -42q16 0 33 4q8 2 12 4l-35 -205q-12 -4 -26 -6q-25 -6 -62 -6q-141 0 -213.5 83t-72.5 208q0 37 6 77z" />
    <glyph glyph-name="glyph474" horiz-adv-x="1269" 
d="M1305 1065l-291 -317q68 -25 121 -70q47 -39 84.5 -102.5t37.5 -161.5q0 -94 -33.5 -170t-92 -130.5t-137.5 -84t-171 -29.5h-188l39 225h147q37 0 70 14.5t57.5 41t38.5 61.5t14 78q0 63 -35.5 108t-97.5 45h-133l31 175l268 296h-313q-66 0 -115 -41.5t-59 -107.5
l-158 -895h-256l162 918q14 82 54 150.5t98.5 117.5t132 76.5t157.5 27.5h606z" />
    <glyph glyph-name="a.salt" horiz-adv-x="1095" 
d="M532 -10q-88 0 -159.5 33.5t-122.5 92t-80 136.5t-29 164q0 117 43 215t112 169.5t157 111.5t180 40q70 0 120 -20.5t85 -42.5q39 -27 65 -62l72 115h174l-166 -942h-174l-27 92q-33 -29 -71 -51q-35 -20 -80.5 -35.5t-98.5 -15.5zM592 211q51 0 98 20.5t83 58.5t57.5 91
t21.5 121q0 100 -59.5 160.5t-157.5 60.5q-51 0 -98.5 -20.5t-83 -58.5t-57 -91t-21.5 -121q0 -100 59.5 -160.5t157.5 -60.5z" />
    <glyph glyph-name="uni0443.salt" horiz-adv-x="962" 
d="M162 942h239l127 -614l324 614h270l-725 -1270h-254l219 369z" />
    <glyph glyph-name="l.salt" horiz-adv-x="552" 
d="M332 1290h235l-166 -944q-10 -63 20 -105t105 -42q16 0 33 4q8 2 12 4l-34 -205q-12 -4 -27 -6q-25 -6 -61 -6q-141 0 -214 83t-73 208q0 37 6 77z" />
    <glyph glyph-name="y.salt" horiz-adv-x="1042" 
d="M731 102q-31 -20 -67 -36q-33 -14 -81 -24.5t-108 -10.5q-76 0 -134 26.5t-98 71.5t-60.5 105.5t-20.5 127.5q0 23 2 44.5t6 44.5l86 491h236l-84 -475q-8 -43 -2 -83t27.5 -70.5t58 -49t90.5 -18.5q78 0 136 48t75 146l88 502h235l-162 -922q-31 -172 -149.5 -270
t-310.5 -98q-90 0 -157 22.5t-114 56t-76.5 73.5t-46 74t-22.5 58l-6 23h243q8 -27 31 -47q20 -16 57 -30.5t99 -14.5q90 0 147.5 48t71.5 126z" />
    <glyph glyph-name="I.salt" horiz-adv-x="798" 
d="M465 1065h-205l39 225h655l-39 -225h-204l-150 -840h205l-39 -225h-655l39 225h204z" />
    <glyph glyph-name="c_t.dlig" horiz-adv-x="1689" 
d="M1569 942h205l-37 -215h-205l-68 -381q-12 -63 22 -105t105 -42q16 0 33 4q6 2 10 4l-37 -205q-12 -4 -24 -6q-23 -6 -60 -6q-72 0 -125 22.5t-89.5 62.5t-55 93t-18.5 115q0 37 6 73l65 371h-141l33 195h72q57 4 89.5 39.5t32.5 93.5q0 53 -41 93t-118 40
q-55 0 -103.5 -19.5t-84.5 -51.5t-56.5 -76t-20.5 -93q0 -55 14.5 -93t34 -75t40 -80t32.5 -106h-241q-14 37 -41 68q-23 25 -63 46t-99 21q-51 0 -98.5 -20.5t-83 -59.5t-57 -92t-21.5 -119q0 -98 59.5 -161.5t155.5 -63.5q55 0 95 20.5t67 47.5q31 29 51 67h233
q-27 -78 -70.5 -144.5t-104 -113.5t-135.5 -73.5t-163 -26.5q-90 0 -168 34.5t-134 95t-89 139.5t-33 169q0 111 44 206t116 165.5t165 111.5t191 41q25 0 48.5 -3t46.5 -7q-2 4 -2 10v25q0 80 38.5 154.5t105 133t156 93.5t191.5 35q166 0 258 -86t92 -217q0 -33 -6 -66z
" />
    <glyph glyph-name="r_f.dlig" horiz-adv-x="1126" 
d="M829 985q14 74 47 132.5t78 97t99.5 59t113.5 20.5q29 0 53.5 -5t45.5 -11q23 -8 43 -14l-35 -203q0 -2 -17.5 6t-56.5 8q-57 0 -94 -31.5t-47 -89.5l-6 -32h194l-33 -195h-194l-129 -727h-236l129 727h-112q-86 0 -151.5 -58.5t-84.5 -166.5l-88 -502h-235l166 942h174
l22 -102q23 23 57 41q29 16 75 28.5t108 12.5h102z" />
    <glyph glyph-name="r_t.dlig" horiz-adv-x="1177" 
d="M1018 727l-68 -381q-12 -63 22 -105t105 -42q16 0 33 4q6 2 10 4l-37 -205q-12 -4 -24 -6q-23 -6 -60 -6q-72 0 -125 22.5t-89.5 62.5t-55 93t-18.5 115q0 37 6 73l65 371h-110q-86 0 -151.5 -58.5t-84.5 -166.5l-88 -502h-235l166 942h174l22 -102q23 23 57 41
q29 16 75 28.5t108 12.5h20q53 0 88 29.5t45 82.5l23 133h207l-45 -245h204l-32 -195h-205h-2z" />
    <glyph glyph-name="uni0430.salt" horiz-adv-x="1095" 
d="M532 -10q-88 0 -159 34q-72 34 -123 92t-80 136t-29 164q0 117 43 215t112 170t157 111q88 40 180 40q70 0 120 -20t85 -43q39 -27 65 -62l72 115h174l-166 -942h-174l-27 92q-33 -29 -71 -51q-35 -20 -80 -36q-46 -15 -99 -15zM592 211q51 0 98 20t83 59q36 38 57 91
q22 53 22 121q0 100 -59 161q-59 60 -158 60q-51 0 -98 -21q-47 -20 -83 -58t-58 -91t-21 -121q0 -100 59 -161q60 -60 158 -60z" />
    <glyph glyph-name="uni045E.salt" horiz-adv-x="962" 
d="M555 1290q2 -29 12 -51q10 -20 30 -36q19 -15 56 -15q41 0 65 15t36 36q14 23 20 51h168q-10 -59 -38 -107t-67 -81q-40 -33 -91 -50q-50 -17 -101 -18q-63 0 -114 23q-50 23 -84 58q-34 36 -51 82t-17 93h176zM162 942h239l127 -614l324 614h270l-725 -1270h-254
l219 369z" />
    <glyph glyph-name="agrave.salt" horiz-adv-x="1095" 
d="M786 1065h-174l-184 256h225zM532 -10q-88 0 -159 34q-72 34 -123 92t-80 136t-29 164q0 117 43 215t112 170t157 111q88 40 180 40q70 0 120 -20t85 -43q39 -27 65 -62l72 115h174l-166 -942h-174l-27 92q-33 -29 -71 -51q-35 -20 -80 -36q-46 -15 -99 -15zM592 211
q51 0 98 20t83 59q36 38 57 91q22 53 22 121q0 100 -59 161q-59 60 -158 60q-51 0 -98 -21q-47 -20 -83 -58t-58 -91t-21 -121q0 -100 59 -161q60 -60 158 -60z" />
    <glyph glyph-name="aacute.salt" horiz-adv-x="1095" 
d="M780 1321h226l-230 -256h-174zM532 -10q-88 0 -159 34q-72 34 -123 92t-80 136t-29 164q0 117 43 215t112 170t157 111q88 40 180 40q70 0 120 -20t85 -43q39 -27 65 -62l72 115h174l-166 -942h-174l-27 92q-33 -29 -71 -51q-35 -20 -80 -36q-46 -15 -99 -15zM592 211
q51 0 98 20t83 59q36 38 57 91q22 53 22 121q0 100 -59 161q-59 60 -158 60q-51 0 -98 -21q-47 -20 -83 -58t-58 -91t-21 -121q0 -100 59 -161q60 -60 158 -60z" />
    <glyph glyph-name="abreve.salt" horiz-adv-x="1095" 
d="M633 1300q0 -33 23 -67q24 -35 77 -35q33 0 57 15t39 36q18 23 29 51h172q-35 -123 -120 -189q-85 -67 -189 -67q-63 0 -113 23q-49 23 -82 58q-33 36 -50 82t-17 93h174v0zM532 -10q-88 0 -159 34q-72 34 -123 92t-80 136t-29 164q0 117 43 215t112 170t157 111
q88 40 180 40q70 0 120 -20t85 -43q39 -27 65 -62l72 115h174l-166 -942h-174l-27 92q-33 -29 -71 -51q-35 -20 -80 -36q-46 -15 -99 -15zM592 211q51 0 98 20t83 59q36 38 57 91q22 53 22 121q0 100 -59 161q-59 60 -158 60q-51 0 -98 -21q-47 -20 -83 -58t-58 -91
t-21 -121q0 -100 59 -161q60 -60 158 -60z" />
    <glyph glyph-name="acircumflex.salt" horiz-adv-x="1095" 
d="M668 1321h204l150 -256h-184l-80 133l-125 -133h-205zM532 -10q-88 0 -159 34q-72 34 -123 92t-80 136t-29 164q0 117 43 215t112 170t157 111q88 40 180 40q70 0 120 -20t85 -43q39 -27 65 -62l72 115h174l-166 -942h-174l-27 92q-33 -29 -71 -51q-35 -20 -80 -36
q-46 -15 -99 -15zM592 211q51 0 98 20t83 59q36 38 57 91q22 53 22 121q0 100 -59 161q-59 60 -158 60q-51 0 -98 -21q-47 -20 -83 -58t-58 -91t-21 -121q0 -100 59 -161q60 -60 158 -60z" />
    <glyph glyph-name="adieresis.salt" horiz-adv-x="1095" 
d="M561 1311q53 0 87 -37t34 -86q0 -59 -45 -102q-45 -42 -102 -42q-53 0 -88 37q-34 37 -33 86q0 59 45 102q45 42 102 42zM930 1311q53 0 87 -37t34 -86q0 -59 -45 -102q-45 -42 -103 -42q-53 0 -87 37t-34 86q0 59 45 102q46 42 103 42zM532 -10q-88 0 -159 34
q-72 34 -123 92t-80 136t-29 164q0 117 43 215t112 170t157 111q88 40 180 40q70 0 120 -20t85 -43q39 -27 65 -62l72 115h174l-166 -942h-174l-27 92q-33 -29 -71 -51q-35 -20 -80 -36q-46 -15 -99 -15zM592 211q51 0 98 20t83 59q36 38 57 91q22 53 22 121q0 100 -59 161
q-59 60 -158 60q-51 0 -98 -21q-47 -20 -83 -58t-58 -91t-21 -121q0 -100 59 -161q60 -60 158 -60z" />
    <glyph glyph-name="amacron.salt" horiz-adv-x="1095" 
d="M993 1085h-532l31 175h532zM532 -10q-88 0 -159 34q-72 34 -123 92t-80 136t-29 164q0 117 43 215t112 170t157 111q88 40 180 40q70 0 120 -20t85 -43q39 -27 65 -62l72 115h174l-166 -942h-174l-27 92q-33 -29 -71 -51q-35 -20 -80 -36q-46 -15 -99 -15zM592 211
q51 0 98 20t83 59q36 38 57 91q22 53 22 121q0 100 -59 161q-59 60 -158 60q-51 0 -98 -21q-47 -20 -83 -58t-58 -91t-21 -121q0 -100 59 -161q60 -60 158 -60z" />
    <glyph glyph-name="aogonek.salt" horiz-adv-x="1095" 
d="M782 92q-33 -29 -71 -51q-35 -20 -80 -35.5t-99 -15.5q-88 0 -159.5 33.5t-122.5 92t-80 136.5t-29 164q0 117 43 215t112 169.5t157 111.5t180 40q70 0 120 -20.5t85 -42.5q39 -27 65 -62l72 115h174l-166 -942h-41q-29 -29 -51 -59q-20 -27 -35.5 -59t-15.5 -60
q0 -37 27.5 -61.5t76.5 -24.5h23.5t21.5 2q10 0 21 2l-21 -117q-12 -2 -26 -4q-12 -2 -28.5 -3t-35.5 -1q-106 0 -161.5 50t-55.5 124q0 45 19.5 84t43.5 68q27 33 64 59zM592 211q51 0 98 20.5t83 58.5t57.5 91t21.5 121q0 100 -59.5 160.5t-157.5 60.5q-51 0 -98.5 -20.5
t-83 -58.5t-57 -91t-21.5 -121q0 -100 59.5 -160.5t157.5 -60.5z" />
    <glyph glyph-name="aring.salt" horiz-adv-x="1095" 
d="M774 1403q84 0 132 -50t48 -120q0 -43 -17 -79t-47 -62q-30 -27 -68 -42t-81 -16q-84 0 -132 50t-48 120q0 43 18 79q17 36 47 63t67 42q38 15 81 15zM764 1290q-31 0 -54 -22q-24 -23 -24 -58q0 -27 20 -45q19 -18 48 -18q31 0 54 22q24 23 23 58q0 27 -19 45t-48 18z
M532 -10q-88 0 -159 34q-72 34 -123 92t-80 136t-29 164q0 117 43 215t112 170t157 111q88 40 180 40q70 0 120 -20t85 -43q39 -27 65 -62l72 115h174l-166 -942h-174l-27 92q-33 -29 -71 -51q-35 -20 -80 -36q-46 -15 -99 -15zM592 211q51 0 98 20t83 59q36 38 57 91
q22 53 22 121q0 100 -59 161q-59 60 -158 60q-51 0 -98 -21q-47 -20 -83 -58t-58 -91t-21 -121q0 -100 59 -161q60 -60 158 -60z" />
    <glyph glyph-name="atilde.salt" horiz-adv-x="1095" 
d="M1073 1292q-23 -125 -81 -186t-130 -62q-49 0 -81 17q-32 16 -55 37q-24 20 -43 37q-19 16 -46 16q-29 0 -51 -26q-23 -26 -33 -72l-123 10q23 125 81 186t130 62q49 0 81 -17q32 -16 55 -37q24 -20 43 -36t46 -17q29 0 52 26t32 73zM532 -10q-88 0 -159 34
q-72 34 -123 92t-80 136t-29 164q0 117 43 215t112 170t157 111q88 40 180 40q70 0 120 -20t85 -43q39 -27 65 -62l72 115h174l-166 -942h-174l-27 92q-33 -29 -71 -51q-35 -20 -80 -36q-46 -15 -99 -15zM592 211q51 0 98 20t83 59q36 38 57 91q22 53 22 121q0 100 -59 161
q-59 60 -158 60q-51 0 -98 -21q-47 -20 -83 -58t-58 -91t-21 -121q0 -100 59 -161q60 -60 158 -60z" />
    <glyph glyph-name="lacute.salt" horiz-adv-x="552" 
d="M557 1690h225l-229 -256h-174zM332 1290h235l-166 -944q-10 -63 20 -105t105 -42q16 0 33 4q8 2 12 4l-34 -205q-12 -4 -27 -6q-25 -6 -61 -6q-141 0 -215 83q-73 83 -72 208q0 37 6 77z" />
    <glyph glyph-name="lcaron.salt" horiz-adv-x="686" 
d="M727 1290h205l-168 -256h-154zM332 1290h235l-166 -944q-10 -63 20 -105t105 -42q16 0 33 4q8 2 12 4l-34 -205q-12 -4 -27 -6q-25 -6 -61 -6q-141 0 -214 83t-73 208q0 37 6 77z" />
    <glyph glyph-name="uni013C.salt" horiz-adv-x="552" 
d="M311 -113q57 0 89 -39t32 -90q0 -68 -32 -120q-32 -53 -72 -93q-41 -39 -83 -61q-42 -23 -61 -31l-32 55q29 14 53 35q23 16 41 39t28 49q-53 4 -81 36q-29 32 -29 77q0 57 45 100t102 43zM332 1290h235l-166 -944q-10 -63 20 -105t105 -42q16 0 33 4q8 2 12 4l-34 -205
q-12 -4 -27 -6q-25 -6 -61 -6q-141 0 -215 83q-73 83 -72 208q0 37 6 77z" />
    <glyph glyph-name="Igrave.salt" horiz-adv-x="798" 
d="M727 1434h-174l-184 256h225zM465 1065h-205l39 225h655l-39 -225h-204l-150 -840h205l-39 -225h-655l39 225h204z" />
    <glyph glyph-name="Iacute.salt" horiz-adv-x="798" 
d="M729 1690h225l-229 -256h-174zM465 1065h-205l39 225h655l-39 -225h-204l-150 -840h205l-39 -225h-655l39 225h204z" />
    <glyph glyph-name="Icircumflex.salt" horiz-adv-x="798" 
d="M580 1690h204l150 -256h-184l-80 133l-125 -133h-205zM465 1065h-205l39 225h655l-39 -225h-204l-150 -840h205l-39 -225h-655l39 225h204z" />
    <glyph glyph-name="Idieresis.salt" horiz-adv-x="798" 
d="M483 1683q53 0 87 -36q34 -37 34 -86q0 -59 -45 -102q-45 -42 -102 -42q-53 0 -87 37t-34 86q0 59 45 101t102 42zM852 1683q53 0 87 -36q34 -37 34 -86q0 -59 -45 -102q-45 -42 -103 -42q-53 0 -87 37t-33 86q0 59 45 101t102 42zM465 1065h-205l39 225h655l-39 -225
h-204l-150 -840h205l-39 -225h-655l39 225h204z" />
    <glyph glyph-name="Idotaccent.salt" horiz-adv-x="798" 
d="M662 1690q53 0 87 -37t33 -86q0 -59 -45 -102q-45 -42 -102 -42q-53 0 -87 37t-34 86q0 59 45 102q46 42 103 42zM465 1065h-205l39 225h655l-39 -225h-204l-150 -840h205l-39 -225h-655l39 225h204z" />
    <glyph glyph-name="Imacron.salt" horiz-adv-x="798" 
d="M907 1444h-532l31 174h532zM465 1065h-205l39 225h655l-39 -225h-204l-150 -840h205l-39 -225h-655l39 225h204z" />
    <glyph glyph-name="Iogonek.salt" horiz-adv-x="798" 
d="M72 0l39 225h204l150 840h-205l39 225h655l-39 -225h-204l-150 -840h205l-39 -225q-29 -29 -51 -59q-20 -27 -35.5 -59t-15.5 -60q0 -37 27.5 -61.5t76.5 -24.5h23.5t21.5 2q10 0 21 2l-21 -117q-12 -2 -26 -4q-12 -2 -29 -3t-35 -1q-106 0 -161.5 50t-55.5 124
q0 45 19.5 84t43.5 68q27 33 64 59h-522z" />
    <glyph glyph-name="yacute.salt" horiz-adv-x="1042" 
d="M780 1321h226l-230 -256h-174zM731 102q-31 -20 -67 -36q-33 -14 -81 -25q-48 -10 -108 -10q-76 0 -134 26q-58 27 -98 72t-61 105q-20 60 -20 128q0 23 2 45t6 44l86 491h236l-84 -475q-8 -43 -2 -83t27 -71q22 -31 59 -49t90 -18q78 0 136 48t75 146l88 502h235
l-162 -922q-31 -172 -149 -270q-119 -98 -311 -98q-90 0 -157 22q-67 23 -114 57t-77 73q-30 40 -46 74t-22 57l-6 24h243q8 -27 31 -47q20 -16 57 -31q37 -14 99 -14q90 0 147 48t72 126z" />
    <glyph glyph-name="ydieresis.salt" horiz-adv-x="1042" 
d="M555 1315q53 0 87 -37t34 -86q0 -59 -45 -101t-103 -42q-53 0 -87 36q-34 37 -33 86q0 59 45 102q45 42 102 42zM924 1315q53 0 87 -37t33 -86q0 -59 -45 -101t-102 -42q-53 0 -87 36q-34 37 -34 86q0 59 45 102q46 42 103 42zM731 102q-31 -20 -67 -36q-33 -14 -81 -25
q-48 -10 -108 -10q-76 0 -134 26q-58 27 -98 72t-61 105q-20 60 -20 128q0 23 2 45t6 44l86 491h236l-84 -475q-8 -43 -2 -83t27 -71q22 -31 59 -49t90 -18q78 0 136 48t75 146l88 502h235l-162 -922q-31 -172 -149 -270q-119 -98 -311 -98q-90 0 -157 22q-67 23 -114 57
t-77 73q-30 40 -46 74t-22 57l-6 24h243q8 -27 31 -47q20 -16 57 -31q37 -14 99 -14q90 0 147 48t72 126z" />
    <glyph glyph-name="glyph515" horiz-adv-x="3149" 
d="M569 879h-147v-408h-72v408h-145v63h364v-63zM1063 811q66 0 112 -50t46 -122q0 -74 -46.5 -124t-111.5 -50q-59 0 -96 43v-162h-70v459h49l19 -39q16 20 41.5 32.5t56.5 12.5zM1057 528q39 0 67.5 32t28.5 79q0 43 -28.5 74.5t-67.5 31.5q-41 0 -68.5 -31.5t-27.5 -74.5
q0 -47 27.5 -79t68.5 -32zM772 805h76l-158 -389q-33 -70 -100 -70q-14 0 -21 2v58q47 0 64 40l12 33l-129 326h76l90 -238zM1436 811q66 0 110.5 -49t44.5 -121q0 -4 -1 -9t-1 -9v-13h-243q4 -35 29.5 -59.5t60.5 -24.5q25 0 45 8.5t30 26.5h72q-18 -47 -59 -71.5
t-88 -24.5q-66 0 -113 50t-47 124q0 35 12 66.5t33.5 55t51.5 37t63 13.5zM1526 666q-2 35 -30 58.5t-60 23.5q-33 0 -59.5 -21.5t-30.5 -60.5h180zM1923 879h-147v-408h-72v408h-145v63h364v-63zM2417 811q66 0 111.5 -50t45.5 -122q0 -74 -46 -124t-111 -50q-59 0 -97 43
v-162h-69v459h49l18 -39q16 20 42 32.5t57 12.5zM2410 528q39 0 68 32t29 79q0 43 -29 74.5t-68 31.5q-41 0 -68.5 -31.5t-27.5 -74.5q0 -47 27.5 -79t68.5 -32zM2126 805h76l-158 -389q-33 -70 -100 -70q-14 0 -21 2v58q47 0 64 40l12 33l-129 326h76l90 -238zM2789 811
q66 0 111 -49t45 -121q0 -4 -1 -9t-1 -9v-13h-244q4 -35 30 -59.5t60 -24.5q25 0 45.5 8.5t30.5 26.5h72q-18 -47 -59.5 -71.5t-88.5 -24.5q-66 0 -112.5 50t-46.5 124q0 35 12 66.5t33.5 55t51 37t62.5 13.5zM2879 666q-2 35 -29.5 58.5t-60.5 23.5t-59.5 -21.5
t-30.5 -60.5h180z" />
    <glyph glyph-name="zero.tnum" 
d="M682 1063q-55 0 -117 -33q-61 -33 -112 -97q-51 -65 -85 -162t-34 -226q0 -78 19 -137t53 -101q33 -41 75 -61q43 -20 92 -21q55 0 117 33q61 33 113 97q51 65 85 162t34 226q0 78 -20 138q-19 59 -52 100t-76 61q-43 21 -92 21zM698 1300q100 0 187 -37q86 -38 149 -109
t100 -171q36 -100 35 -227q0 -182 -54 -325q-54 -142 -142 -241q-88 -98 -197 -149t-219 -51q-100 0 -186 38t-150 108q-63 71 -99 171t-36 228q0 180 54 322t143 241q88 98 196 150t219 52z" />
    <glyph glyph-name="one.tnum" 
d="M903 1290l-184 -1054h266l-43 -236h-778l43 236h266l129 737l-172 -103l-90 185l379 235h184z" />
    <glyph glyph-name="three.tnum" 
d="M246 932q14 72 55 138q41 67 99 118t135 82q76 31 161 30q96 0 173 -28q77 -29 131 -77t83 -111q29 -62 29 -130q0 -84 -34 -141t-73 -92q-40 -35 -73 -51t-31 -17q39 -27 70 -63q27 -33 49 -82q23 -49 22 -119q0 -74 -33 -145q-34 -72 -96 -128q-61 -56 -147 -91
t-193 -35q-109 0 -190 30q-82 31 -137 82t-84 120t-29 147h248q0 -57 50 -106q50 -48 149 -48q45 0 85 15t67 41q28 26 44 60t17 70q0 59 -45 106q-45 46 -134 46h-116l37 205h139q92 0 140 46t48 122q0 59 -45 103t-129 44q-78 0 -132 -42t-73 -99h-237z" />
    <glyph glyph-name="two.tnum" 
d="M991 236l-41 -236h-860l31 174l553 488q37 31 69 60q33 30 60 61q27 32 42 68t15 83q0 53 -42 96t-140 43q-82 0 -134 -52t-65 -130h-243q14 82 54 157t99 131t137 89t168 32q102 0 182 -27q79 -28 133 -74t82 -107t27 -129q0 -78 -33 -146t-78 -124q-46 -56 -97 -101
q-50 -45 -87 -76l-334 -280h502z" />
    <glyph glyph-name="four.tnum" 
d="M1038 236h-133l-41 -236h-246l41 236h-573l39 215l680 839h287l-146 -819h133zM700 471l86 481l-393 -481h307z" />
    <glyph glyph-name="five.tnum" 
d="M702 881q78 0 147 -31t119 -83t79 -124t28 -154q0 -106 -40 -197t-107 -159q-68 -68 -159 -105q-91 -38 -196 -38q-102 0 -184 29q-82 30 -138 80t-86 118t-30 141h250q2 -51 53 -97t148 -46q49 0 93 19t77 54q33 34 52 81t19 102q0 78 -52 136t-154 59q-53 0 -93 -22
q-39 -22 -65 -46q-31 -29 -53 -66h-217l215 758h716l-41 -235h-512l-73 -236q29 16 63 31q29 10 66 20q36 11 75 11z" />
    <glyph glyph-name="six.tnum" 
d="M569 -10q-96 0 -178 29q-82 30 -141 83t-92 128t-33 167q0 78 34 156t74 139q49 72 111 137l399 461h267l-348 -409q90 0 164 -30q75 -30 129 -83t85 -127t31 -162q0 -104 -40 -193t-108 -156q-69 -67 -160 -103q-92 -37 -194 -37zM623 676q-47 0 -93 -20
q-45 -19 -79 -55q-35 -36 -57 -84t-21 -103q0 -45 15 -83t43 -66t65 -44t79 -16q47 0 93 19q45 19 80 56q35 36 56 84q22 48 21 103q0 45 -15 83t-43 65q-28 28 -65 44q-36 17 -79 17z" />
    <glyph glyph-name="seven.tnum" 
d="M1171 1290l-32 -184l-707 -1106h-256l678 1055h-553l41 235h829z" />
    <glyph glyph-name="eight.tnum" 
d="M573 -10q-113 0 -196 34q-84 34 -139 87t-82 118q-27 66 -27 129q0 104 41 174t90 111q57 49 133 76q-33 23 -57 55q-23 29 -39 70t-16 94q0 72 31 137q32 66 89 116t134 80q76 30 165 29q92 0 166 -26q74 -27 125 -73t79 -105t28 -125q0 -80 -32 -137t-69 -93
q-43 -41 -98 -67q41 -27 76 -64q29 -33 52 -84q24 -51 24 -120q0 -82 -36 -158t-100 -133q-63 -57 -150 -91q-88 -34 -192 -34zM692 1085q-78 0 -131 -48t-53 -113q0 -59 45 -102q45 -42 123 -42t131 48t53 114q0 59 -45 101t-123 42zM588 205q98 0 157 58t60 140
q0 72 -54 122t-157 50q-98 0 -159 -58q-60 -58 -60 -140q0 -72 55 -122q56 -50 158 -50z" />
    <glyph glyph-name="nine.tnum" 
d="M698 1300q96 0 179 -29q82 -30 141 -83t92 -128t33 -167q0 -78 -35 -156t-76 -139q-49 -72 -108 -137l-400 -461h-266l348 410q-90 0 -165 29q-75 30 -129 83t-85 127t-30 162q0 104 40 194q40 89 108 155q69 67 160 104q91 36 193 36zM645 614q47 0 92 20q45 19 80 55
t56 84q22 48 22 104q0 45 -15 82q-15 38 -43 66t-65 44t-80 16q-47 0 -92 -19t-80 -55t-56 -84q-22 -48 -22 -104q0 -45 16 -83q15 -38 43 -65q28 -28 64 -44q37 -17 80 -17z" />
    <glyph glyph-name="one.frac" horiz-adv-x="491" 
d="M256 1167l217 123h102l-108 -614h-154l74 420l-80 -41z" />
    <glyph glyph-name="two.frac" horiz-adv-x="583" 
d="M442 819h213l-24 -143h-441l21 112l238 195q43 35 72 61q30 27 30 62q0 23 -17 42t-51 19q-29 0 -46 -12t-27 -29q-10 -18 -17 -41h-145q8 45 32 84t57 69q34 30 75 46t84 16q109 0 162 -52q54 -52 55 -128q0 -49 -26 -89t-77 -81z" />
    <glyph glyph-name="three.frac" horiz-adv-x="604" 
d="M621 981q16 -12 28 -29q10 -14 21 -34q10 -20 10 -50q0 -39 -16 -75q-16 -37 -49 -65q-32 -28 -76 -45q-45 -17 -103 -17q-106 0 -168 61q-61 61 -65 143l153 11q0 -12 4 -27q4 -14 14 -27q9 -12 26 -20t44 -8q31 0 58 21q27 22 26 52q0 23 -17 41t-52 19h-70l23 123h67
q35 0 52 18t18 39q0 23 -17 39q-16 16 -49 16q-27 0 -43 -11t-26 -26q-12 -16 -21 -34l-141 10q18 78 83 136t163 58q100 0 153 -51t54 -119q0 -39 -14 -66q-13 -28 -29 -46q-18 -23 -41 -37z" />
    <glyph glyph-name="four.frac" horiz-adv-x="552" 
d="M608 932h72l-25 -144h-71l-21 -112h-153l20 112h-266l20 113l314 389h174zM455 932l30 174l-143 -174h113z" />
    <glyph glyph-name="zero.frac" horiz-adv-x="634" 
d="M459 809q18 0 42 11t45 38q22 27 36 70t14 108q0 59 -24 90t-54 31q-18 0 -42 -11t-45 -38q-22 -27 -36 -71t-14 -107q0 -59 23 -90q24 -31 55 -31zM518 1300q100 0 166 -66q66 -67 66 -190q0 -92 -26 -162q-26 -71 -67 -119t-93 -73t-105 -24q-100 0 -166 66
q-66 67 -66 190q0 92 26 162q26 71 66 119q41 48 94 73q52 24 105 24z" />
    <glyph glyph-name="five.frac" horiz-adv-x="583" 
d="M500 1081q39 0 71 -14q33 -14 57 -39t37 -57q13 -33 13 -70q0 -47 -21 -89q-20 -42 -55 -75t-80 -52t-92 -19q-80 0 -125 29q-45 30 -67 67q-25 43 -31 98h158q4 -18 12 -31q8 -12 22 -21t41 -9q35 0 64 29q29 30 28 71q0 33 -19 58q-19 26 -50 26q-23 0 -41 -10t-29 -21
q-14 -14 -22 -30h-133l106 368h358l-26 -143h-236l-26 -86q12 4 24 10q10 4 26 7t36 3z" />
    <glyph glyph-name="six.frac" horiz-adv-x="583" 
d="M496 1100q37 -4 70 -21q34 -16 59 -43t39 -60q14 -34 14 -73q0 -49 -21 -93q-20 -44 -56 -76t-82 -50t-95 -18t-89 16t-70 44t-45 62q-15 35 -15 72q0 45 13 82t34 67q20 30 46 56q26 27 50 53l156 172h164zM449 983q-41 0 -71 -29t-30 -69q0 -35 23 -61t61 -25
q41 0 71 28q30 29 29 70q0 35 -22 60q-22 26 -61 26z" />
    <glyph glyph-name="seven.frac" horiz-adv-x="501" 
d="M276 1290h420l-20 -112l-314 -502h-167l299 471h-242z" />
    <glyph glyph-name="eight.frac" horiz-adv-x="593" 
d="M446 666q-43 0 -85 12t-73 36q-32 24 -52 57q-20 34 -21 79q0 43 16 73t37 48q23 23 56 37q-14 10 -23 24q-8 12 -14 32q-6 19 -6 44q0 39 16 75t45 61q29 26 70 41t88 15q100 0 155 -50t56 -120q0 -41 -14 -68q-13 -28 -29 -46q-18 -23 -41 -37q16 -12 28 -29
q10 -14 21 -35q10 -20 10 -49q0 -41 -18 -76q-18 -36 -52 -64q-33 -28 -75 -44q-44 -16 -95 -16zM434 1114q0 -29 16 -44q15 -15 35 -15q29 0 51 17t21 46q0 29 -15 44t-36 16q-29 0 -50 -18q-22 -17 -22 -46zM446 788q31 0 55 24t23 58q0 29 -18 45t-49 17q-31 0 -55 -24
t-23 -58q0 -29 18 -45q18 -17 49 -17z" />
    <glyph glyph-name="nine.frac" horiz-adv-x="583" 
d="M422 866q-37 4 -71 21q-34 16 -58 42q-25 26 -39 60q-14 35 -14 74q0 49 20 93t56 76t82 50t96 18q49 0 89 -16t69 -44q30 -28 45 -62q15 -35 16 -72q0 -47 -14 -83q-13 -36 -33 -66t-46 -56q-26 -27 -51 -53l-155 -172h-164zM469 983q41 0 71 29t29 69q0 35 -22 61
q-23 26 -62 25q-41 0 -70 -28q-30 -29 -30 -70q0 -35 23 -60q22 -26 61 -26z" />
    <glyph glyph-name="one.dnom" horiz-adv-x="491" 
d="M154 492l217 122h102l-108 -614h-154l74 420l-80 -41z" />
    <glyph glyph-name="two.dnom" horiz-adv-x="583" 
d="M346 143h213l-24 -143h-441l21 113l237 194q43 35 73 62t30 61q0 23 -18 42q-17 19 -50 20q-29 0 -46 -13q-17 -12 -28 -28q-10 -18 -16 -41h-145q8 45 31 84q24 39 58 68q34 30 74 46q41 16 84 17q109 0 163 -53q54 -52 54 -128q0 -49 -25 -89q-26 -40 -77 -81z" />
    <glyph glyph-name="three.dnom" horiz-adv-x="604" 
d="M526 305q16 -12 29 -29q10 -14 20 -34t11 -49q0 -39 -17 -76q-16 -37 -48 -65t-77 -45t-102 -17q-106 0 -168 61q-61 61 -65 144l153 10q0 -12 4 -27q4 -14 14 -26q9 -12 26 -21q17 -8 44 -8q31 0 58 21q27 22 26 53q0 23 -17 41t-52 18h-70l22 123h68q35 0 52 18t18 39
q0 23 -17 39q-16 16 -49 17q-27 0 -43 -12q-16 -11 -27 -25q-12 -16 -20 -35l-141 10q18 78 83 136t162 59q100 0 154 -52q53 -51 53 -118q0 -39 -13 -67t-30 -46q-18 -23 -41 -37z" />
    <glyph glyph-name="four.dnom" horiz-adv-x="552" 
d="M494 256h71l-24 -143h-72l-20 -113h-154l20 113h-266l21 112l313 389h174zM340 256l31 174l-144 -174h113z" />
    <glyph glyph-name="zero.dnom" horiz-adv-x="634" 
d="M348 133q18 0 42 11t45 38q22 27 36 70t14 108q0 59 -23 91q-24 31 -54 30q-18 0 -42 -11t-45 -38q-22 -27 -36 -71t-15 -107q0 -59 24 -90q23 -31 54 -31zM408 625q100 0 165 -67q66 -67 66 -189q0 -92 -26 -163t-66 -119q-41 -48 -93 -73t-106 -24q-100 0 -166 66
q-66 67 -65 190q0 92 25 163q26 71 67 118q41 48 93 73q53 25 106 25z" />
    <glyph glyph-name="five.dnom" horiz-adv-x="583" 
d="M406 406q39 0 71 -15q33 -14 57 -39t36 -57q13 -33 14 -70q0 -47 -21 -89q-20 -42 -55 -75t-80 -52t-92 -19q-80 0 -125 29q-45 30 -68 67q-25 43 -30 98h157q4 -18 13 -30q8 -12 22 -22q14 -9 41 -9q35 0 64 30t28 70q0 33 -19 59t-50 25q-23 0 -41 -10t-29 -21
q-14 -14 -23 -30h-133l107 368h358l-26 -143h-236l-27 -86q12 4 25 10q10 4 26 7q16 4 36 4z" />
    <glyph glyph-name="six.dnom" horiz-adv-x="583" 
d="M381 424q37 -4 71 -21q34 -16 58 -43q25 -27 39 -60q14 -34 14 -73q0 -49 -20 -93t-57 -76q-36 -32 -82 -50t-95 -18t-89 16t-69 44q-30 28 -46 63q-15 35 -15 71q0 45 13 82t34 67q20 30 46 56q26 27 50 53l156 172h164zM334 307q-41 0 -71 -28q-30 -29 -30 -70
q0 -35 23 -61t61 -25q41 0 71 29t30 69q0 35 -23 61q-22 25 -61 25z" />
    <glyph glyph-name="seven.dnom" horiz-adv-x="501" 
d="M176 614h420l-21 -112l-313 -502h-168l299 471h-241z" />
    <glyph glyph-name="eight.dnom" horiz-adv-x="593" 
d="M338 -10q-43 0 -85 12t-74 36t-52 57q-20 34 -21 79q0 43 17 73q16 30 37 48q23 23 55 37q-14 10 -22 24q-8 12 -15 32q-6 19 -6 44q0 39 16 75t45 61q29 26 70 41t88 16q100 0 156 -51q55 -50 55 -119q0 -41 -13 -69t-30 -46q-18 -23 -41 -37q16 -12 29 -29
q10 -14 20 -34t11 -50q0 -41 -19 -76q-18 -36 -51 -64t-76 -44t-94 -16zM326 438q0 -29 15 -44t36 -15q29 0 50 17q22 17 22 46t-16 44q-15 15 -36 16q-29 0 -50 -18q-21 -17 -21 -46zM338 113q31 0 54 23q24 24 24 59q0 29 -19 45q-18 16 -49 16t-54 -24q-24 -24 -24 -58
q0 -29 19 -45q18 -16 49 -16z" />
    <glyph glyph-name="nine.dnom" horiz-adv-x="583" 
d="M315 190q-37 4 -70 21q-34 16 -59 42t-39 60q-14 35 -14 74q0 49 21 93q20 44 56 76t82 50t95 19q49 0 89 -17q40 -16 70 -44t45 -62q15 -35 15 -72q0 -47 -13 -83t-34 -65q-20 -30 -46 -57t-50 -53l-156 -172h-164zM362 307q41 0 71 29t30 70q0 35 -23 60q-23 26 -61 26
q-41 0 -71 -29t-29 -70q0 -35 22 -60q22 -26 61 -26z" />
    <glyph glyph-name="parenleft.case" horiz-adv-x="604" 
d="M821 1372q-111 -125 -196 -278q-37 -66 -72 -144t-63 -166t-44 -184t-16 -201q0 -123 19 -223q18 -100 40 -172q25 -84 60 -151l-195 -121q-45 82 -80 186q-31 88 -55 210q-25 122 -24 269q0 160 34 303q35 143 87 266q52 122 114 220q61 98 115 167q53 69 88 105
q35 37 37 37z" />
    <glyph glyph-name="parenright.case" horiz-adv-x="604" 
d="M-14 -145q109 125 194 278q37 66 72 143q35 78 62 166q28 88 45 185q17 96 18 200q0 123 -19 224q-18 100 -41 172q-27 84 -59 151l195 121q43 -84 79 -186q29 -90 55 -211t25 -269q0 -160 -34 -303q-35 -143 -88 -265q-52 -122 -113 -220t-115 -167q-53 -69 -89 -105
l-36 -37z" />
    <glyph glyph-name="hyphen.case" horiz-adv-x="757" 
d="M776 573h-614l37 205h614z" />
    <glyph glyph-name="at.case" horiz-adv-x="1546" 
d="M924 1300q168 0 293 -59t205 -149q81 -90 121 -200t40 -210q0 -102 -29 -181t-76 -133q-48 -54 -109 -83q-60 -29 -124 -29q-66 0 -106 17q-41 17 -66 40q-29 25 -45 60q-25 -35 -61 -60q-31 -23 -77 -40t-108 -17q-61 0 -113 23t-90 64q-38 42 -59 98q-20 56 -20 124
q0 92 30 168q31 76 81 129t114 82q63 29 129 29q53 0 92 -17q39 -16 64 -36t37 -38l12 -18l49 88h135l-67 -372q-10 -63 5 -112q15 -48 76 -48q25 0 51 15t48 46q23 31 37 79t14 116q0 94 -36 180t-101 151q-66 65 -156 102q-90 38 -196 38q-111 0 -215 -45
q-103 -45 -183 -124t-128 -185t-48 -230q0 -100 36 -187t98 -153t150 -103q87 -38 189 -38q53 0 103 14q49 14 88 31q45 20 86 47l69 -133q-51 -33 -106 -57q-49 -23 -112 -39q-62 -16 -134 -17q-141 0 -259 49t-203 136q-85 86 -132 200q-47 115 -47 244q0 154 61 290
t166 236q104 100 241 159q136 58 286 58zM868 809q-37 0 -71 -16q-35 -16 -63 -47q-28 -30 -45 -69q-17 -40 -17 -87q0 -74 46 -122t111 -48q37 0 72 16t63 45t45 70t17 88q0 74 -46 122t-112 48z" />
    <glyph glyph-name="bracketleft.case" horiz-adv-x="634" 
d="M342 10h225l-39 -225h-460l292 1659h461l-41 -225h-225z" />
    <glyph glyph-name="bracketright.case" horiz-adv-x="634" 
d="M453 1219h-226l41 225h461l-293 -1659h-461l39 225h226z" />
    <glyph glyph-name="braceleft.case" horiz-adv-x="665" 
d="M180 707q47 0 79 29q32 30 42 83l57 328q53 297 371 297h123l-39 -215h-102q-113 0 -131 -113l-58 -317q-10 -59 -35 -94t-51 -56q-31 -23 -67 -35q33 -12 55 -34q20 -20 33 -57q12 -36 2 -93l-58 -317q-18 -113 95 -113h102l-39 -215h-123q-272 0 -272 217q0 18 2 38
q2 19 6 42l57 328q10 53 -12 83q-23 30 -70 29z" />
    </font>
</defs>
</svg>
