<?xml version="1.0" standalone="no"?>
<!DOCTYPE svg PUBLIC "-//W3C//DTD SVG 1.1//EN" "http://www.w3.org/Graphics/SVG/1.1/DTD/svg11.dtd" >
<svg>
<metadata>
Created by FontForge 20120731 at Wed Jul 10 05:13:42 2019
 By www-data
Copyright (c) 2018 by TypeType. Designers Ivan Gladkikh, Pavel Emelyanov. Technical designers Marina Khodak, Vika Usmanova, Nadyr Rakhimov. All rights reserved.
</metadata>
<defs>
<font id="TTCommons-ExtraLightItalic" horiz-adv-x="962" >
  <font-face 
    font-family="TT Commons ExtraLight Italic"
    font-weight="200"
    font-style="italic"
    font-stretch="normal"
    units-per-em="2048"
    panose-1="2 0 8 6 2 0 0 9 0 3"
    ascent="1434"
    descent="-614"
    x-height="901"
    cap-height="1290"
    bbox="-348 -451 2945 1741"
    underline-thickness="0"
    underline-position="0"
    unicode-range="U+000D-FB06"
  />
<missing-glyph horiz-adv-x="0" 
 />
    <glyph glyph-name="uniFB00" unicode="ff" horiz-adv-x="1003" 
d="M266 0h-71l145 829h-154l13 72h153l19 103q23 139 87 197.5t173 58.5q20 0 36.5 -3.5t28.5 -7.5q14 -4 25 -8l-12 -63q-8 2 -21 4q-10 2 -25.5 4t-33.5 2q-78 0 -124 -42t-63 -142l-18 -103h399l25 143q23 139 87 197.5t173 58.5q20 0 36.5 -3t29.5 -7q14 -4 24 -8
l-12 -63q-8 2 -21 4q-10 2 -25.5 4t-33.5 2q-78 0 -124 -42t-62 -143l-25 -143h225l-12 -72h-225l-146 -829h-71l145 829h-399z" />
    <glyph glyph-name="uniFB01" unicode="fi" horiz-adv-x="880" 
d="M737 0h-71l145 829h-399l-146 -829h-71l145 829h-154l13 72h153l25 143q23 139 87 197.5t173 58.5q20 0 36.5 -3t28.5 -7q14 -4 25 -8l-12 -63q-8 2 -21 4q-10 2 -25.5 4t-33.5 2q-78 0 -124 -42t-62 -143l-25 -143h471zM854 1188q0 25 18.5 43t47.5 18q25 0 41 -18.5
t16 -42.5q0 -25 -18.5 -43.5t-47.5 -18.5q-25 0 -41 18.5t-16 43.5z" />
    <glyph glyph-name="uniFB02" unicode="fl" horiz-adv-x="880" 
d="M879 1202q-20 6 -43 12q-20 4 -48 9.5t-63 5.5q-123 0 -194.5 -57.5t-94.5 -196.5l-12 -74h225l-12 -72h-225l-146 -829h-71l145 829h-154l13 72h153l13 74q29 176 125 250.5t247 74.5q31 0 57.5 -5t47.5 -9q23 -6 45 -12h76l-226 -1274h-71z" />
    <glyph glyph-name="uniFB03" unicode="ffi" horiz-adv-x="1351" 
d="M1208 0h-71l145 829h-399l-146 -829h-71l145 829h-399l-146 -829h-71l145 829h-154l13 72h153l19 103q23 139 87 197.5t173 58.5q20 0 36.5 -3.5t28.5 -7.5q14 -4 25 -8l-12 -63q-8 2 -21 4q-10 2 -25.5 4t-33.5 2q-78 0 -124 -42t-63 -142l-18 -103h399l25 143
q23 139 87 197.5t173 58.5q20 0 36.5 -3t29.5 -7q14 -4 24 -8l-12 -63q-8 2 -21 4q-10 2 -25.5 4t-33.5 2q-78 0 -124 -42t-62 -143l-25 -143h471zM1325 1188q0 25 18.5 43t47.5 18q25 0 41 -18.5t16 -42.5q0 -25 -18.5 -43.5t-47.5 -18.5q-25 0 -41 18.5t-16 43.5z" />
    <glyph glyph-name="uniFB04" unicode="ffl" horiz-adv-x="1351" 
d="M1350 1202q-20 6 -43 12q-20 4 -48 9.5t-63 5.5q-123 0 -194.5 -57.5t-94.5 -196.5l-12 -74h225l-12 -72h-225l-146 -829h-71l145 829h-399l-146 -829h-71l145 829h-154l13 72h153l19 103q23 139 87 197.5t173 58.5q20 0 36.5 -3.5t28.5 -7.5q14 -4 25 -8l-12 -63
q-8 2 -21 4q-10 2 -25.5 4t-33.5 2q-78 0 -124 -42t-63 -142l-18 -103h399l13 74q29 176 125 250.5t247 74.5q31 0 57.5 -5t47.5 -9q23 -6 45 -12h76l-226 -1274h-71z" />
    <glyph glyph-name="f_f_j.liga" unicode="ffj" horiz-adv-x="1351" 
d="M1282 829h-399l-146 -829h-71l145 829h-399l-146 -829h-71l145 829h-154l13 72h153l19 103q23 139 87 197.5t173 58.5q20 0 36.5 -3.5t28.5 -7.5q14 -4 25 -8l-12 -63q-8 2 -21 4q-10 2 -25.5 4t-33.5 2q-78 0 -124 -42t-63 -142l-18 -103h399l25 143q23 139 87 197.5
t173 58.5q20 0 36.5 -3t29.5 -7q14 -4 24 -8l-12 -63q-8 2 -21 4q-10 2 -25.5 4t-33.5 2q-78 0 -124 -42t-62 -143l-25 -143h471l-172 -983q-23 -131 -93.5 -193.5t-168.5 -62.5q-41 0 -66 10q-12 4 -20 11l10 61q8 -4 18 -6t24.5 -3t37.5 -1q68 0 119 46t67 138zM1325 1188
q0 25 18.5 43t47.5 18q25 0 41 -18.5t16 -42.5q0 -25 -18.5 -43.5t-47.5 -18.5q-25 0 -41 18.5t-16 43.5z" />
    <glyph glyph-name="f_j.liga" unicode="fj" horiz-adv-x="880" 
d="M811 829h-399l-146 -829h-71l145 829h-154l13 72h153l25 143q23 139 87 197.5t173 58.5q20 0 36.5 -3t28.5 -7q14 -4 25 -8l-12 -63q-8 2 -21 4q-10 2 -25.5 4t-33.5 2q-78 0 -124 -42t-62 -143l-25 -143h471l-172 -983q-23 -131 -93.5 -193.5t-168.5 -62.5q-41 0 -66 10
q-12 4 -20 11l10 61q8 -4 18 -6t24.5 -3t37.5 -1q68 0 119 46t67 138zM854 1188q0 25 18.5 43t47.5 18q25 0 41 -18.5t16 -42.5q0 -25 -18.5 -43.5t-47.5 -18.5q-25 0 -41 18.5t-16 43.5z" />
    <glyph glyph-name="f_t.liga" unicode="ft" horiz-adv-x="1054" 
d="M811 829h-399l-146 -829h-71l145 829h-154l13 72h153l25 143q23 139 87 197.5t173 58.5q20 0 36.5 -3t28.5 -7q14 -4 25 -8l-12 -63q-8 2 -21 4q-10 2 -25.5 4t-33.5 2q-78 0 -124 -42t-62 -143l-25 -143h307q53 0 75.5 19.5t33.5 72.5l30 174h72l-47 -266h225l-12 -72
h-225l-101 -573q-6 -41 -6 -70q0 -127 135 -127q29 0 52 7q10 2 22 6l-12 -64q-10 -6 -23 -10q-10 -4 -25.5 -6t-35.5 -2q-86 0 -135 48t-49 144q0 33 6 74z" />
    <glyph glyph-name="f_h.liga" unicode="fh" horiz-adv-x="1536" 
d="M1184 911q139 0 221 -91t82 -242q0 -25 -4 -50.5t-8 -52.5l-82 -475h-72l82 475q4 25 7 48.5t3 45.5q0 123 -64.5 197t-187.5 74q-61 0 -117.5 -27t-101.5 -74t-76.5 -112.5t-44.5 -141.5l-84 -485h-71l213 1202q-20 6 -43 12q-20 4 -48 9.5t-63 5.5q-123 0 -194.5 -57.5
t-94.5 -196.5l-12 -74h225l-12 -72h-225l-146 -829h-71l145 829h-154l13 72h153l13 74q29 176 125 250.5t247 74.5q31 0 57.5 -5t47.5 -9q23 -6 45 -12h76l-91 -506h11q31 39 73 72q37 27 93.5 49t134.5 22z" />
    <glyph glyph-name="f_k.liga" unicode="fk" horiz-adv-x="1316" 
d="M1325 0h-96l-410 471l-82 -471h-71l213 1202q-20 6 -43 12q-20 4 -48 9.5t-63 5.5q-123 0 -194.5 -57.5t-94.5 -196.5l-12 -74h225l-12 -72h-225l-146 -829h-71l145 829h-154l13 72h153l13 74q29 176 125 250.5t247 74.5q31 0 57.5 -5t47.5 -9q23 -6 45 -12h76l-144 -803
l527 430h102l-528 -436z" />
    <glyph glyph-name="f_b.liga" unicode="fb" horiz-adv-x="1587" 
d="M1604 504q0 -111 -41 -204t-107.5 -162.5t-151.5 -108.5t-176 -39q-100 0 -164.5 33.5t-105.5 74.5q-47 49 -74 111h-10l-57 -209h-51l213 1202q-20 6 -43 12q-20 4 -48 9.5t-63 5.5q-123 0 -194.5 -57.5t-94.5 -196.5l-12 -74h225l-12 -72h-225l-146 -829h-71l145 829
h-154l13 72h153l13 74q29 176 125 250.5t247 74.5q31 0 57.5 -5t47.5 -9q23 -6 45 -12h76l-99 -545h10q35 51 87 90q43 35 107.5 63.5t150.5 28.5q80 0 150.5 -28.5t122.5 -81.5t82 -129t30 -168zM1214 840q-84 0 -156.5 -39t-125.5 -102.5t-84 -142.5t-31 -159
q0 -160 87 -248t229 -88q84 0 156.5 38t125.5 100.5t84 140.5t31 158q0 160 -88.5 251t-227.5 91z" />
    <glyph glyph-name="f_f_h.liga" unicode="ffh" horiz-adv-x="2007" 
d="M1655 911q139 0 221 -91t82 -242q0 -25 -4 -50.5t-8 -52.5l-82 -475h-72l82 475q4 25 7 48.5t3 45.5q0 123 -64.5 197t-187.5 74q-61 0 -117.5 -27t-101.5 -74t-76.5 -112.5t-44.5 -141.5l-84 -485h-71l213 1202q-20 6 -43 12q-20 4 -48 9.5t-63 5.5q-123 0 -194.5 -57.5
t-94.5 -196.5l-12 -74h225l-12 -72h-225l-146 -829h-71l145 829h-399l-146 -829h-71l145 829h-154l13 72h153l19 103q23 139 87 197.5t173 58.5q20 0 36.5 -3.5t28.5 -7.5q14 -4 25 -8l-12 -63q-8 2 -21 4q-10 2 -25.5 4t-33.5 2q-78 0 -124 -42t-63 -142l-18 -103h399
l13 74q29 176 125 250.5t247 74.5q31 0 57.5 -5t47.5 -9q23 -6 45 -12h76l-91 -506h11q31 39 73 72q37 27 93.5 49t134.5 22z" />
    <glyph glyph-name="f_f_k.liga" unicode="ffk" horiz-adv-x="1787" 
d="M1796 0h-96l-410 471l-82 -471h-71l213 1202q-20 6 -43 12q-20 4 -48 9.5t-63 5.5q-123 0 -194.5 -57.5t-94.5 -196.5l-12 -74h225l-12 -72h-225l-146 -829h-71l145 829h-399l-146 -829h-71l145 829h-154l13 72h153l19 103q23 139 87 197.5t173 58.5q20 0 36.5 -3.5
t28.5 -7.5q14 -4 25 -8l-12 -63q-8 2 -21 4q-10 2 -25.5 4t-33.5 2q-78 0 -124 -42t-63 -142l-18 -103h399l13 74q29 176 125 250.5t247 74.5q31 0 57.5 -5t47.5 -9q23 -6 45 -12h76l-144 -803l527 430h102l-528 -436z" />
    <glyph glyph-name="f_f_b.liga" unicode="ffb" horiz-adv-x="2058" 
d="M2075 504q0 -111 -41 -204t-107.5 -162.5t-151.5 -108.5t-176 -39q-100 0 -164.5 33.5t-105.5 74.5q-47 49 -74 111h-10l-57 -209h-51l213 1202q-20 6 -43 12q-20 4 -48 9.5t-63 5.5q-123 0 -194.5 -57.5t-94.5 -196.5l-12 -74h225l-12 -72h-225l-146 -829h-71l145 829
h-399l-146 -829h-71l145 829h-154l13 72h153l19 103q23 139 87 197.5t173 58.5q20 0 36.5 -3.5t28.5 -7.5q14 -4 25 -8l-12 -63q-8 2 -21 4q-10 2 -25.5 4t-33.5 2q-78 0 -124 -42t-63 -142l-18 -103h399l13 74q29 176 125 250.5t247 74.5q31 0 57.5 -5t47.5 -9
q23 -6 45 -12h76l-99 -545h11q35 51 86 90q43 35 107.5 63.5t150.5 28.5q80 0 150.5 -28.5t122.5 -81.5t82 -129t30 -168zM1686 840q-84 0 -157 -39t-126 -102.5t-84 -142.5t-31 -159q0 -160 87 -248t229 -88q84 0 156.5 38t125.5 100.5t84 140.5t31 158q0 160 -88 251
t-227 91z" />
    <glyph glyph-name=".notdef" horiz-adv-x="0" 
 />
    <glyph glyph-name="glyph1" horiz-adv-x="0" 
 />
    <glyph glyph-name="glyph1" horiz-adv-x="0" 
 />
    <glyph glyph-name="uni000D" unicode="&#xd;" horiz-adv-x="0" 
 />
    <glyph glyph-name="space" unicode=" " horiz-adv-x="419" 
 />
    <glyph glyph-name="exclam" unicode="!" horiz-adv-x="471" 
d="M260 317l162 973h82l-182 -973h-62zM248 113q25 0 41 -17.5t16 -42.5q0 -29 -18.5 -46t-46.5 -17q-25 0 -41.5 17.5t-16.5 41.5q0 29 18.5 46.5t47.5 17.5z" />
    <glyph glyph-name="quotedbl" unicode="&#x22;" horiz-adv-x="604" 
d="M371 1290h71l-67 -379h-72zM616 1290h72l-67 -379h-72z" />
    <glyph glyph-name="numbersign" unicode="#" horiz-adv-x="1218" 
d="M799 399h-359l-155 -399h-76l156 399h-250l32 72h246l135 348h-247l32 72h244l156 399h75l-155 -399h358l156 399h76l-156 -399h250l-33 -72h-246l-135 -348h248l-33 -72h-244l-155 -399h-76zM469 471h358l136 348h-359z" />
    <glyph glyph-name="dollar" unicode="$" horiz-adv-x="1003" 
d="M276 969q0 74 32 135t85 104t126 66.5t155 23.5h4l35 197h71l-36 -203q135 -23 217 -115t82 -225h-72q0 123 -84 199t-223 76q-72 0 -130.5 -19.5t-100.5 -53.5t-64.5 -79t-22.5 -96q0 -72 46 -121t114 -87t148.5 -72.5t148 -80t114 -106.5t46.5 -152q0 -84 -31 -152.5
t-86 -116.5t-131 -74.5t-164 -26.5h-25l-34 -195h-72l35 203q-154 25 -235 122t-81 238h74q0 -135 87 -216t255 -81q74 0 134.5 19.5t105.5 56.5t69.5 90.5t24.5 120.5q0 80 -46 133.5t-113.5 94t-148.5 75.5t-148.5 78t-114 99.5t-46.5 140.5z" />
    <glyph glyph-name="percent" unicode="%" horiz-adv-x="1218" 
d="M231 999q0 61 20.5 114.5t58.5 92.5t90.5 61.5t115.5 22.5q45 0 84 -17.5t67.5 -48t46 -70.5t17.5 -85q0 -61 -20.5 -114.5t-58.5 -92.5t-90 -61.5t-116 -22.5q-45 0 -83.5 17.5t-68.5 48t-46.5 70.5t-16.5 85zM1198 291q0 -61 -20.5 -114.5t-58.5 -92.5t-90 -61.5
t-116 -22.5q-45 0 -83.5 17.5t-68.5 48t-46.5 70.5t-16.5 85q0 61 20.5 114.5t58.5 92.5t90.5 61.5t115.5 22.5q45 0 84 -17.5t67.5 -48t46 -70.5t17.5 -85zM1180 1290h86l-1016 -1290h-86zM657 1055q0 72 -43 118t-112 46q-86 0 -141.5 -58.5t-55.5 -146.5q0 -72 43 -118
t113 -46q86 0 141 58.5t55 146.5zM928 72q86 0 141 58t55 146q0 72 -43 118t-112 46q-86 0 -141.5 -58t-55.5 -146q0 -72 43 -118t113 -46z" />
    <glyph glyph-name="ampersand" unicode="&#x26;" horiz-adv-x="1075" 
d="M147 256q0 74 33 134.5t84 110.5t110.5 92t114.5 83l-51 61q-45 53 -74.5 120t-29.5 138q0 137 85 221t222 84q53 0 100 -20t81 -55t53.5 -80t19.5 -94q0 -102 -56.5 -168t-142.5 -131l-110 -84l286 -349l209 248h82l-250 -297l224 -270h-88l-181 219q-37 -43 -76.5 -85
t-89 -73.5t-108.5 -51t-131 -19.5q-70 0 -128.5 21.5t-99 58t-64.5 85t-24 101.5zM545 715l110 84q33 25 63 50t53.5 55t37.5 62.5t14 69.5q0 76 -47 134.5t-147 58.5q-102 0 -162.5 -64.5t-60.5 -163.5q0 -72 23.5 -124t62.5 -99zM530 627q-49 -37 -103 -75t-100 -81
t-77 -93t-31 -108q0 -92 69.5 -150.5t176.5 -58.5q63 0 113.5 15.5t93.5 43t81 64.5t74 82z" />
    <glyph glyph-name="quotesingle" unicode="'" horiz-adv-x="358" 
d="M375 911h-72l68 379h71z" />
    <glyph glyph-name="parenleft" unicode="(" horiz-adv-x="512" 
d="M664 1268q-63 -84 -135 -187.5t-132.5 -226.5t-100.5 -267.5t-40 -310.5q0 -135 19.5 -246.5t41.5 -197.5q27 -98 62 -180l-57 -31q-39 90 -70 197q-27 92 -47.5 213t-20.5 262q0 98 18.5 194.5t48.5 186.5t67.5 172t78.5 151q94 164 215 306z" />
    <glyph glyph-name="parenright" unicode=")" horiz-adv-x="512" 
d="M16 -344q63 84 135 187.5t132.5 226.5t100.5 267t40 310q0 133 -19.5 246t-42.5 199q-27 98 -61 180l57 31q37 -90 68 -197q27 -92 48.5 -214t21.5 -261q0 -100 -18.5 -196.5t-49.5 -185.5t-70 -171t-77 -152q-94 -164 -213 -305z" />
    <glyph glyph-name="asterisk" unicode="*" horiz-adv-x="665" 
d="M596 760l-92 203l-164 -207l-57 43l174 190l-203 55l35 72l196 -72l39 246h72l-51 -246l225 72l6 -72l-219 -55l105 -190z" />
    <glyph glyph-name="plus" unicode="+" horiz-adv-x="890" 
d="M432 133l64 359h-349l13 71h348l63 359h72l-63 -359h348l-13 -71h-348l-63 -359h-72z" />
    <glyph glyph-name="comma" unicode="," horiz-adv-x="307" 
d="M170 113q27 0 45 -19.5t18 -60.5q0 -47 -22.5 -87t-48.5 -69q-33 -35 -72 -61l-18 20q20 20 41 43q16 20 31.5 48t23.5 63q-25 0 -41 17.5t-16 41.5q0 29 18 46.5t41 17.5z" />
    <glyph glyph-name="hyphen" unicode="-" horiz-adv-x="675" 
d="M700 492h-553l13 71h553z" />
    <glyph glyph-name="period" unicode="." horiz-adv-x="307" 
d="M176 113q25 0 41 -17.5t16 -42.5q0 -29 -18 -46t-47 -17q-25 0 -41 17.5t-16 41.5q0 29 18 46.5t47 17.5z" />
    <glyph glyph-name="slash" unicode="/" horiz-adv-x="604" 
d="M8 -369h-74l824 1659h76z" />
    <glyph glyph-name="zero" unicode="0" horiz-adv-x="1187" 
d="M625 -10q-84 0 -159 34.5t-133.5 102.5t-92 165t-33.5 220q0 178 49 324.5t129 249t184.5 158.5t214.5 56q82 0 158 -34.5t134.5 -102t92 -165t33.5 -220.5q0 -178 -49 -324.5t-129 -249t-184 -158.5t-215 -56zM631 61q104 0 195.5 57.5t159 155t106 225.5t38.5 271
q0 113 -27.5 198t-75.5 143t-112.5 88t-136.5 30q-104 0 -195 -57.5t-159 -154.5t-106.5 -225t-38.5 -272q0 -113 27.5 -197.5t75.5 -143t112.5 -88.5t136.5 -30z" />
    <glyph glyph-name="one" unicode="1" horiz-adv-x="614" 
d="M637 1290l-227 -1290h-72l211 1194l-297 -184l-33 65l356 215h62z" />
    <glyph glyph-name="two" unicode="2" horiz-adv-x="952" 
d="M852 72l-12 -72h-748l10 61l504 451q72 63 133.5 119.5t105.5 111t68.5 110.5t24.5 122q0 115 -75 184.5t-197 69.5q-139 0 -231.5 -78t-115.5 -209h-71q12 84 51 150.5t96.5 112.5t130 70.5t152.5 24.5q72 0 133 -24.5t105.5 -67.5t70 -100t25.5 -121
q0 -78 -25.5 -143.5t-71 -123.5t-103.5 -113.5t-126 -114.5l-471 -420h637z" />
    <glyph glyph-name="three" unicode="3" horiz-adv-x="993" 
d="M264 973q12 76 49 137t93.5 103t126 64.5t147.5 22.5t142.5 -23.5t109.5 -63t69.5 -93t24.5 -112.5q0 -104 -44 -172t-97 -107q-63 -47 -142 -70q57 -25 103 -61q39 -33 70.5 -87t31.5 -132q0 -86 -29.5 -157.5t-86 -123t-137.5 -80t-183 -28.5q-88 0 -160.5 26.5
t-124 71.5t-80 104.5t-28.5 124.5h71q2 -53 26 -100t67 -82t103 -54.5t138 -19.5q82 0 147.5 22.5t110.5 63.5t68.5 95.5t23.5 119.5q0 117 -77.5 190t-225.5 73h-61l12 71h51q86 0 156 23.5t120 63.5t76.5 95.5t26.5 116.5q0 102 -73.5 168t-210.5 66q-61 0 -117.5 -17.5
t-100.5 -49.5t-75 -80t-39 -109h-72z" />
    <glyph glyph-name="four" unicode="4" 
d="M956 317h-153l-55 -317h-72l55 317h-625l11 62l766 911h92l-160 -901h154zM743 389l144 801l-672 -801h528z" />
    <glyph glyph-name="five" unicode="5" horiz-adv-x="1013" 
d="M655 850q78 0 142.5 -29.5t110.5 -80t72 -120t26 -149.5q0 -109 -38 -198t-102.5 -152.5t-149.5 -97t-181 -33.5q-84 0 -153 26.5t-118 71.5t-75.5 104.5t-26.5 124.5h71q0 -51 23 -97t62.5 -82t97 -56.5t131.5 -20.5q76 0 145.5 29t122.5 82t86 126t33 163
q0 143 -80 230t-219 87q-80 0 -138.5 -33.5t-99.5 -74.5q-47 -47 -80 -107h-71l211 727h614l-14 -71h-553l-142 -492q29 35 72 61q37 23 91 42.5t130 19.5z" />
    <glyph glyph-name="six" unicode="6" horiz-adv-x="1013" 
d="M530 -10q-78 0 -144.5 28.5t-114.5 77.5t-75.5 117t-27.5 145q0 66 12.5 119t39 103.5t66.5 102.5t95 116l426 491h90l-424 -485q18 12 43 22q23 8 54.5 15.5t76.5 7.5q78 0 143.5 -31t112.5 -83t72.5 -120.5t25.5 -144.5q0 -106 -35.5 -195.5t-99 -153t-150 -98
t-186.5 -34.5zM635 778q-82 0 -153.5 -34.5t-125 -92t-84 -131.5t-30.5 -151q0 -68 21.5 -124.5t60 -97.5t94 -63.5t125.5 -22.5q80 0 149.5 29t122.5 82t84 126t31 163q0 68 -20.5 126t-58.5 100t-92 66.5t-124 24.5z" />
    <glyph glyph-name="seven" unicode="7" horiz-adv-x="870" 
d="M1047 1290l-13 -61l-778 -1229h-82l772 1219h-661l14 71h748z" />
    <glyph glyph-name="eight" unicode="8" horiz-adv-x="983" 
d="M694 1300q68 0 126.5 -22.5t101.5 -60t67.5 -91t24.5 -114.5q0 -117 -67.5 -211t-180.5 -131q82 -35 136 -114t54 -179q0 -82 -29.5 -152.5t-87 -123t-138 -82t-183.5 -29.5q-78 0 -145.5 24.5t-118.5 68.5t-80 106.5t-29 140.5q0 66 22.5 125t62.5 107t96.5 83t126.5 51
q-59 35 -101.5 100.5t-42.5 137.5q0 76 26.5 142.5t76 116.5t121 78.5t161.5 28.5zM530 61q80 0 144.5 24t110.5 66t72 97t26 117q0 137 -85 208.5t-227 71.5q-80 0 -144.5 -23.5t-110.5 -65.5t-71.5 -97.5t-25.5 -116.5q0 -137 85 -209t226 -72zM682 1229q-70 0 -125 -22.5
t-94 -61.5t-59.5 -90t-20.5 -109q0 -98 68.5 -163.5t189.5 -65.5q70 0 125 22.5t94 61.5t59.5 90t20.5 108q0 98 -68.5 164t-189.5 66z" />
    <glyph glyph-name="nine" unicode="9" horiz-adv-x="1013" 
d="M709 1300q78 0 144.5 -28.5t114.5 -77.5t75.5 -116.5t27.5 -145.5q0 -66 -12 -119t-39 -103.5t-67 -102.5t-95 -115l-426 -492h-90l424 485q-18 -14 -43 -22q-23 -10 -55.5 -16.5t-75.5 -6.5q-78 0 -143.5 31t-112.5 83t-72.5 120.5t-25.5 144.5q0 106 35.5 195.5t99 153
t150 98t186.5 34.5zM604 512q82 0 153.5 35t125 92t84 131t30.5 152q0 68 -21.5 124t-60 97t-94 63.5t-125.5 22.5q-80 0 -149.5 -29t-122.5 -82t-84 -126.5t-31 -162.5q0 -68 20.5 -126t58.5 -100t92 -66.5t124 -24.5z" />
    <glyph glyph-name="colon" unicode=":" horiz-adv-x="307" 
d="M170 113q25 0 41 -17.5t16 -42.5q0 -29 -18.5 -46t-46.5 -17q-25 0 -41.5 17.5t-16.5 41.5q0 29 18.5 46.5t47.5 17.5zM311 911q25 0 41.5 -17t16.5 -42q0 -29 -18.5 -46.5t-47.5 -17.5q-25 0 -41 17.5t-16 42.5q0 29 18 46t47 17z" />
    <glyph glyph-name="semicolon" unicode=";" horiz-adv-x="307" 
d="M311 911q25 0 41.5 -17t16.5 -42q0 -29 -18.5 -46.5t-47.5 -17.5q-25 0 -41 17.5t-16 42.5q0 29 18 46t47 17zM164 113q27 0 45 -19.5t18 -60.5q0 -47 -22.5 -87t-48.5 -69q-33 -35 -72 -61l-18 20q20 20 40 43q16 20 32 48t24 63q-25 0 -41.5 17.5t-16.5 41.5
q0 29 18.5 46.5t41.5 17.5z" />
    <glyph glyph-name="less" unicode="&#x3c;" horiz-adv-x="870" 
d="M262 446l547 -327l-14 -78l-637 389l6 41l776 389l-14 -86z" />
    <glyph glyph-name="equal" unicode="=" horiz-adv-x="880" 
d="M127 379h758l-13 -72h-757zM950 748l-12 -72h-758l13 72h757z" />
    <glyph glyph-name="greater" unicode="&#x3e;" horiz-adv-x="870" 
d="M219 782l14 78l637 -389l-6 -41l-776 -389l14 86l662 328z" />
    <glyph glyph-name="question" unicode="?" horiz-adv-x="870" 
d="M938 1012q0 -86 -30.5 -146.5t-77 -106.5t-102.5 -85t-105.5 -83t-85 -102.5t-43.5 -140.5l-2 -20h-72l2 20q8 94 45 158.5t86 113t103.5 87t101.5 79.5t76.5 91.5t29.5 121.5q0 98 -64.5 164t-181.5 66q-57 0 -110 -21.5t-96 -60.5t-71 -94.5t-36 -120.5l-4 -37h-72
l4 37q8 82 43 149.5t88.5 116.5t121 75.5t145.5 26.5q68 0 124 -23.5t97 -62t63.5 -92t22.5 -110.5zM416 113q25 0 41 -17.5t16 -42.5q0 -29 -18.5 -46t-46.5 -17q-25 0 -41.5 17.5t-16.5 41.5q0 29 18.5 46.5t47.5 17.5z" />
    <glyph glyph-name="at" unicode="@" horiz-adv-x="1525" 
d="M1055 276q-25 -41 -62 -71q-33 -29 -85 -50.5t-124 -21.5q-59 0 -110 21.5t-89 60.5t-59.5 90t-21.5 111q0 86 29.5 154.5t77.5 117.5t111.5 74.5t131.5 25.5q72 0 120 -23.5t76.5 -52t41.5 -52.5l12 -25h10l37 143h41l-70 -387q-4 -12 -4 -24.5v-24.5q0 -63 32 -105
t101 -42q39 0 78 16t72 55t53.5 105.5t20.5 167.5q0 104 -36 200.5t-105.5 168t-173 114.5t-236.5 43q-141 0 -267.5 -52t-219.5 -142.5t-147 -214.5t-54 -265q0 -111 38.5 -208t109.5 -169.5t172 -114.5t226 -42q72 0 131.5 12t102.5 29q51 18 92 43l27 -64
q-47 -27 -103 -47q-47 -16 -114.5 -30.5t-147.5 -14.5q-131 0 -242.5 47t-192.5 127t-127 187.5t-46 230.5q0 164 60.5 303t165 240.5t245.5 159t303 57.5q135 0 247.5 -48.5t193.5 -130t125 -187t44 -218.5q0 -115 -24.5 -194.5t-65.5 -130t-94 -73t-111 -22.5
q-63 0 -99 21.5t-56 50.5q-23 31 -31 71h-10zM854 727q-59 0 -109.5 -22.5t-87 -62.5t-58 -94t-21.5 -118q0 -111 64.5 -173t158.5 -62q55 0 104 24.5t87 67.5t60.5 98t22.5 117q0 96 -61.5 160.5t-159.5 64.5z" />
    <glyph glyph-name="A" unicode="A" horiz-adv-x="1097" 
d="M774 1161l-405 -731h553zM819 1290l264 -1290h-73l-74 358h-608l-199 -358h-82l719 1290h53z" />
    <glyph glyph-name="B" unicode="B" horiz-adv-x="1126" 
d="M889 688q59 -23 106 -59q41 -33 74 -88.5t33 -141.5q0 -182 -123 -290.5t-365 -108.5h-440l227 1290h420q80 0 140.5 -23.5t102.5 -63.5t62.5 -92t20.5 -107q0 -100 -41 -162t-88 -97q-57 -39 -129 -57zM360 655l-102 -583h369q188 0 295.5 85t107.5 232
q0 57 -22.5 106.5t-62.5 84t-95 55t-121 20.5h-369zM373 727h368q72 0 133.5 20.5t105.5 56.5t69.5 85t25.5 104q0 94 -64.5 160t-203.5 66h-348z" />
    <glyph glyph-name="C" unicode="C" horiz-adv-x="1300" 
d="M856 1229q-111 0 -215 -50.5t-185 -138.5t-130.5 -208.5t-49.5 -260.5q0 -117 35 -211t95.5 -160.5t141.5 -102.5t175 -36q74 0 147.5 26t139 74t120 116.5t91.5 152.5h77q-41 -100 -102 -181t-138 -138.5t-164 -89t-179 -31.5q-104 0 -197.5 41t-163 116.5t-109.5 181
t-40 234.5q0 160 54 295t145.5 233.5t211 153.5t248.5 55q86 0 166 -30.5t143.5 -88t107.5 -139t60 -182.5h-77q-37 178 -147.5 273.5t-260.5 95.5z" />
    <glyph glyph-name="D" unicode="D" horiz-adv-x="1187" 
d="M473 72q141 0 262 49t210 135t140.5 205t51.5 258q0 106 -31 197.5t-90.5 159t-147.5 105.5t-204 38h-205l-201 -1147h215zM1208 727q0 -156 -54 -289t-153.5 -230t-236.5 -152.5t-303 -55.5h-287l227 1290h277q123 0 221 -42t167 -117.5t105.5 -178t36.5 -225.5z" />
    <glyph glyph-name="E" unicode="E" horiz-adv-x="1054" 
d="M965 72l-13 -72h-778l227 1290h758l-14 -71h-686l-90 -512h635l-13 -72h-635l-98 -563h707z" />
    <glyph glyph-name="F" unicode="F" horiz-adv-x="993" 
d="M174 0l227 1290h738l-15 -71h-665l-92 -533h553l-15 -72h-553l-106 -614h-72z" />
    <glyph glyph-name="G" unicode="G" horiz-adv-x="1361" 
d="M819 614h502l-107 -614h-61l43 281q-78 -125 -200 -208t-285 -83q-102 0 -192.5 41t-159 116.5t-108.5 181t-40 234.5q0 160 54 295t145.5 233.5t211 153.5t248.5 55q82 0 158 -27.5t137.5 -79.5t107.5 -126t68 -166h-73q-45 158 -154.5 243t-251.5 85q-111 0 -215 -50.5
t-185 -138.5t-130 -208.5t-49 -260.5q0 -117 34.5 -211t94 -160.5t138.5 -102.5t169 -36q82 0 160.5 31t147.5 91.5t123 150.5t87 209h-430z" />
    <glyph glyph-name="H" unicode="H" horiz-adv-x="1218" 
d="M473 1290l-106 -594h727l106 594h72l-228 -1290h-71l108 625h-727l-108 -625h-72l227 1290h72z" />
    <glyph glyph-name="I" unicode="I" horiz-adv-x="419" 
d="M246 0h-72l227 1290h72z" />
    <glyph glyph-name="J" unicode="J" 
d="M1026 1290l-156 -880q-39 -217 -144 -318.5t-298 -101.5q-74 0 -135.5 24.5t-105.5 67.5t-67.5 98.5t-23.5 116.5q0 20 2 29q0 8 2 12h72q-2 -4 -2 -10v-23q0 -102 73.5 -173t196.5 -71q297 0 359 349l155 880h72z" />
    <glyph glyph-name="K" unicode="K" horiz-adv-x="966" 
d="M360 655l-114 -655h-72l227 1290h72l-113 -635l707 635h98l-708 -639l504 -651h-91z" />
    <glyph glyph-name="L" unicode="L" horiz-adv-x="942" 
d="M913 72l-12 -72h-727l227 1290h72l-215 -1218h655z" />
    <glyph glyph-name="M" unicode="M" horiz-adv-x="1515" 
d="M1491 1290h78l-228 -1290h-71l196 1120l-688 -1120h-41l-295 1120l-196 -1120h-72l227 1290h70l307 -1165z" />
    <glyph glyph-name="N" unicode="N" horiz-adv-x="1228" 
d="M1282 1290l-227 -1290h-62l-544 1153l-203 -1153h-72l227 1290h62l543 -1153l204 1153h72z" />
    <glyph glyph-name="O" unicode="O" horiz-adv-x="1351" 
d="M205 563q0 160 54 295t145.5 233.5t211 153.5t248.5 55q104 0 197.5 -40.5t163 -116.5t109.5 -181.5t40 -234.5q0 -160 -54 -295t-145.5 -233.5t-211 -153.5t-248.5 -55q-104 0 -197.5 41t-163 116.5t-109.5 181t-40 234.5zM856 1229q-111 0 -215 -50.5t-185 -138.5
t-130.5 -208.5t-49.5 -260.5q0 -117 35 -211t95.5 -160.5t141.5 -102.5t175 -36q111 0 215 50.5t185 138.5t130.5 209t49.5 260q0 117 -35 211t-95.5 160.5t-141.5 102.5t-175 36z" />
    <glyph glyph-name="P" unicode="P" horiz-adv-x="1054" 
d="M780 1290q80 0 143.5 -27.5t108.5 -74.5t69.5 -110.5t24.5 -135.5q0 -96 -31.5 -175t-95 -136.5t-155.5 -88t-211 -30.5h-297l-90 -512h-72l227 1290h379zM645 584q90 0 165 23.5t129 68.5t84 109.5t30 146.5q0 59 -18.5 111.5t-55.5 91.5t-90 61.5t-123 22.5h-307
l-111 -635h297z" />
    <glyph glyph-name="Q" unicode="Q" horiz-adv-x="1351" 
d="M205 563q0 160 54 295t145.5 233.5t211 153.5t248.5 55q104 0 197.5 -40.5t163 -116.5t109.5 -181.5t40 -234.5q0 -186 -72.5 -337.5t-191.5 -252.5l121 -141l-53 -47l-125 147q-78 -51 -162 -78.5t-176 -27.5q-104 0 -197.5 41t-163 116.5t-109.5 181t-40 234.5z
M856 1229q-111 0 -215 -50.5t-185 -138.5t-130.5 -208.5t-49.5 -260.5q0 -117 35 -211t95.5 -160.5t141.5 -102.5t175 -36q74 0 145.5 24t137.5 65l-158 188l53 47l162 -192q106 90 173 225t67 301q0 117 -35 211t-95.5 160.5t-141.5 102.5t-175 36z" />
    <glyph glyph-name="R" unicode="R" horiz-adv-x="1116" 
d="M342 553l-96 -553h-72l227 1290h420q80 0 143.5 -25.5t106.5 -69.5t66.5 -103.5t23.5 -128.5q0 -172 -101.5 -273.5t-275.5 -128.5l240 -561h-78l-235 553h-45h-324zM354 625h328q90 0 165 22.5t128 64.5t82.5 102t29.5 138q0 113 -73.5 190t-206.5 77h-348z" />
    <glyph glyph-name="S" unicode="S" horiz-adv-x="1003" 
d="M276 969q0 74 32 135t85 104t126 66.5t155 23.5t150.5 -25.5t117.5 -71.5t77 -109.5t28 -139.5h-72q0 123 -84 199t-223 76q-72 0 -130.5 -19.5t-100.5 -53.5t-64.5 -79t-22.5 -96q0 -72 46 -121t114 -87t148.5 -72.5t148 -80t114 -106.5t46.5 -152q0 -84 -31 -152.5
t-86 -116.5t-131 -74.5t-164 -26.5q-98 0 -175 27.5t-129 76.5t-80 117t-28 147h74q0 -135 87 -216t255 -81q74 0 134.5 19.5t105.5 56.5t69.5 90.5t24.5 120.5q0 80 -46 133.5t-113.5 94t-148.5 75.5t-148.5 78t-114 99.5t-46.5 140.5z" />
    <glyph glyph-name="T" unicode="T" horiz-adv-x="972" 
d="M279 1290h870l-14 -71h-400l-213 -1219h-71l213 1219h-400z" />
    <glyph glyph-name="U" unicode="U" horiz-adv-x="1228" 
d="M623 -10q-86 0 -157 26.5t-121 76.5t-77.5 122t-27.5 162q0 29 2 57.5t8 59.5l141 796h72l-141 -796q-6 -29 -8.5 -57.5t-2.5 -53.5q0 -158 86 -240t238 -82q180 0 290.5 98.5t151.5 321.5l144 809h71l-143 -809q-47 -262 -176 -376.5t-350 -114.5z" />
    <glyph glyph-name="V" unicode="V" horiz-adv-x="1097" 
d="M569 0h-73l-244 1290h76l217 -1186l639 1186h84z" />
    <glyph glyph-name="W" unicode="W" horiz-adv-x="1556" 
d="M958 1290h54l118 -1126l517 1126h79l-593 -1290h-52l-120 1130l-519 -1130h-51l-139 1290h72l118 -1126z" />
    <glyph glyph-name="X" unicode="X" horiz-adv-x="1048" 
d="M678 649l307 -649h-78l-278 590l-484 -590h-88l539 657l-297 633h78l270 -573l469 573h88z" />
    <glyph glyph-name="Y" unicode="Y" horiz-adv-x="1034" 
d="M555 512l-303 778h78l266 -696h10l514 696h84l-577 -778l-90 -512h-72z" />
    <glyph glyph-name="Z" unicode="Z" horiz-adv-x="993" 
d="M340 1290h786l-8 -51l-925 -1167h731l-13 -72h-829l8 51l926 1168h-690z" />
    <glyph glyph-name="bracketleft" unicode="[" horiz-adv-x="563" 
d="M203 -297h246l-13 -72h-317l293 1659h317l-14 -71h-246z" />
    <glyph glyph-name="backslash" unicode="\" horiz-adv-x="604" 
d="M260 1290h68l239 -1659h-67z" />
    <glyph glyph-name="bracketright" unicode="]" horiz-adv-x="563" 
d="M520 1219h-246l15 71h317l-293 -1659h-315l10 72h246z" />
    <glyph glyph-name="asciicircum" unicode="^" horiz-adv-x="757" 
d="M733 717l-141 471l-309 -471h-76l379 573h41l174 -573h-68z" />
    <glyph glyph-name="underscore" unicode="_" horiz-adv-x="563" 
d="M549 -307h-643l12 71h643z" />
    <glyph glyph-name="grave" unicode="`" horiz-adv-x="348" 
d="M469 1044h-55l-119 246h96z" />
    <glyph glyph-name="a" unicode="a" horiz-adv-x="921" 
d="M438 61q68 0 125.5 26t102.5 70t74.5 104.5t41.5 129.5l13 70h-123q-127 0 -217 -15.5t-146.5 -44t-82 -69.5t-25.5 -92q0 -80 58 -129.5t179 -49.5zM598 911q61 0 114.5 -20.5t94.5 -56t64.5 -85t23.5 -108.5q0 -31 -6 -57l-103 -584h-47v133h-10q-33 -41 -76 -72
q-39 -29 -94 -50t-133 -21q-143 0 -220 66.5t-77 170.5q0 70 30.5 127.5t97.5 96t172.5 60t254.5 21.5h123l10 52q4 14 4 25.5v23.5q0 92 -67.5 149.5t-167.5 57.5q-104 0 -176 -49.5t-101 -135.5h-73q12 53 43.5 100.5t79 82t107.5 54t132 19.5z" />
    <glyph glyph-name="b" unicode="b" horiz-adv-x="1064" 
d="M1081 504q0 -111 -41 -204t-107.5 -162.5t-151.5 -108.5t-175 -39q-100 0 -164.5 33.5t-105.5 74.5q-47 49 -74 111h-10l-57 -209h-52l228 1290h71l-100 -561h10q35 51 86 90q43 35 107.5 63.5t150.5 28.5q80 0 151 -28.5t123 -81.5t81.5 -129t29.5 -168zM692 840
q-84 0 -156.5 -39t-126 -102.5t-84 -142.5t-30.5 -159q0 -160 87 -248t228 -88q84 0 157 38t126 100.5t84 140.5t31 158q0 160 -88.5 251t-227.5 91z" />
    <glyph glyph-name="c" unicode="c" 
d="M223 403q0 -160 88 -251t228 -91q121 0 209 71t137 175h71q-29 -72 -72.5 -130t-99 -100t-119 -64.5t-130.5 -22.5q-80 0 -151 28.5t-123 82t-81.5 129t-29.5 167.5q0 111 40.5 204t107.5 163t152 108.5t175 38.5q141 0 242.5 -85t123.5 -232h-71q-20 117 -99.5 181.5
t-199.5 64.5q-84 0 -157 -38t-126 -100.5t-84 -140.5t-31 -158z" />
    <glyph glyph-name="d" unicode="d" horiz-adv-x="1064" 
d="M143 397q0 111 41 204t107.5 163t151.5 108.5t175 38.5q98 0 164 -34.5t107 -75.5q47 -49 72 -109h10l106 598h72l-227 -1290h-52l11 172h-11q-35 -53 -86 -92q-43 -35 -106.5 -62.5t-149.5 -27.5q-80 0 -150.5 28.5t-122.5 82t-82 129t-30 167.5zM532 61q84 0 157 39
t126 102.5t84 142.5t31 159q0 160 -87 248t-229 88q-84 0 -156.5 -38t-125.5 -100.5t-84 -140.5t-31 -158q0 -160 88 -251t227 -91z" />
    <glyph glyph-name="e" unicode="e" horiz-adv-x="983" 
d="M920 225q-27 -43 -65 -85t-89 -75.5t-112.5 -54t-133.5 -20.5q-78 0 -145.5 30.5t-116.5 85t-77.5 129t-28.5 162.5q0 111 40.5 204t107.5 163t152 108.5t175 38.5q76 0 143.5 -26.5t116.5 -73.5t77.5 -112.5t28.5 -141.5q0 -33 -4 -57.5t-8 -42.5q-6 -23 -10 -37h-746
v-17q0 -78 22.5 -140t62.5 -107t97.5 -70t124.5 -25q53 0 100.5 14.5t85.5 38t67.5 53.5t50.5 58h84zM623 840q-68 0 -131.5 -28t-115.5 -75t-89 -110.5t-51 -134.5h677q0 8 2 16q0 8 1.5 17.5t1.5 19.5q0 66 -23 120t-61.5 93t-93 60.5t-117.5 21.5z" />
    <glyph glyph-name="f" unicode="f" horiz-adv-x="532" 
d="M199 901h153l25 143q23 139 87 197.5t173 58.5q20 0 36.5 -3t28.5 -7q14 -4 25 -8l-12 -63q-8 2 -21 4q-10 2 -25.5 4t-33.5 2q-78 0 -124 -42t-62 -143l-25 -143h225l-12 -72h-225l-146 -829h-71l145 829h-154z" />
    <glyph glyph-name="g" unicode="g" horiz-adv-x="1024" 
d="M156 418q0 109 37.5 199t100 155.5t142.5 102t164 36.5q92 0 152.5 -34.5t97.5 -75.5q43 -49 68 -109h10l59 209h51l-153 -870q-33 -186 -137.5 -282.5t-274.5 -96.5q-84 0 -148.5 22.5t-110.5 60.5t-71.5 88t-33.5 105h75q23 -96 93.5 -150t207.5 -54q123 0 211 73.5
t117 233.5l29 162h-11q-35 -45 -81 -82q-41 -31 -101.5 -55.5t-138.5 -24.5q-158 0 -256 99.5t-98 287.5zM514 102q78 0 146.5 35t119.5 93.5t81 133t30 156.5q0 68 -21.5 126.5t-60.5 101.5t-93 67.5t-120 24.5q-80 0 -147.5 -35t-115.5 -92.5t-76 -133t-28 -155.5
q0 -160 75 -241t210 -81z" />
    <glyph glyph-name="h" unicode="h" horiz-adv-x="1013" 
d="M662 911q139 0 221 -91t82 -242q0 -25 -4.5 -50.5t-8.5 -52.5l-82 -475h-71l82 475q4 25 7 48.5t3 45.5q0 123 -64.5 197t-187.5 74q-61 0 -117.5 -27t-101.5 -74t-77 -112.5t-44 -141.5l-84 -485h-72l228 1290h71l-92 -522h10q31 39 74 72q37 27 93.5 49t134.5 22z" />
    <glyph glyph-name="i" unicode="i" horiz-adv-x="358" 
d="M332 1188q0 25 18.5 43t46.5 18q25 0 41.5 -18.5t16.5 -42.5q0 -25 -18.5 -43.5t-47.5 -18.5q-25 0 -41 18.5t-16 43.5zM215 0h-72l158 901h72z" />
    <glyph glyph-name="j" unicode="j" horiz-adv-x="358" 
d="M301 901h72l-172 -983q-23 -131 -93.5 -193.5t-168.5 -62.5q-41 0 -66 10q-12 4 -20 11l10 61q8 -4 18 -6t24.5 -3t37.5 -1q68 0 119 46t67 138zM332 1188q0 25 18.5 43t46.5 18q25 0 41.5 -18.5t16.5 -42.5q0 -25 -18.5 -43.5t-47.5 -18.5q-25 0 -41 18.5t-16 43.5z" />
    <glyph glyph-name="k" unicode="k" horiz-adv-x="794" 
d="M803 0h-96l-410 471l-82 -471h-72l228 1290h71l-145 -819l526 430h103l-529 -436z" />
    <glyph glyph-name="l" unicode="l" horiz-adv-x="358" 
d="M215 0h-72l228 1290h71z" />
    <glyph glyph-name="m" unicode="m" horiz-adv-x="1464" 
d="M1165 911q53 0 99.5 -18.5t81 -55t55 -90t20.5 -122.5q0 -23 -2 -45.5t-6 -47.5l-92 -532h-72l92 532q4 23 6.5 43.5t2.5 38.5q0 113 -56.5 169.5t-142.5 56.5q-104 0 -185 -86t-110 -248l-88 -506h-72l92 532q6 39 7 76q0 111 -55.5 171.5t-141.5 60.5q-49 0 -97 -24.5
t-87 -70t-69 -105.5t-42 -134l-88 -506h-72l158 901h51l-2 -123h10q25 37 62 66q31 25 78 46t112 21q78 0 125 -30.5t74 -67.5q31 -43 45 -96q29 53 72 96q37 37 95 67.5t142 30.5z" />
    <glyph glyph-name="n" unicode="n" horiz-adv-x="1013" 
d="M662 911q139 0 221 -91t82 -242q0 -25 -4.5 -50.5t-8.5 -52.5l-82 -475h-71l82 475q4 25 7 48.5t3 45.5q0 123 -64.5 197t-187.5 74q-61 0 -117.5 -27t-101.5 -74t-77 -112.5t-44 -141.5l-84 -485h-72l158 901h51l-4 -133h10q29 39 74 72q37 27 94.5 49t135.5 22z" />
    <glyph glyph-name="o" unicode="o" horiz-adv-x="1003" 
d="M535 -10q-80 0 -151 28.5t-123 82t-81.5 129t-29.5 167.5q0 111 40.5 204t107.5 163t152 108.5t175 38.5q80 0 150.5 -28.5t122.5 -81.5t82 -129t30 -168q0 -111 -41 -204t-107.5 -162.5t-151.5 -108.5t-175 -39zM223 403q0 -160 88 -251t228 -91q84 0 156.5 38
t125.5 100.5t84 140.5t31 158q0 160 -88 251t-227 91q-84 0 -157 -38t-126 -100.5t-84 -140.5t-31 -158z" />
    <glyph glyph-name="p" unicode="p" horiz-adv-x="1064" 
d="M1081 504q0 -111 -41 -204t-107.5 -162.5t-151.5 -108.5t-175 -39q-100 0 -164.5 33.5t-105.5 74.5q-47 49 -74 111h-10l-96 -537h-72l217 1229h51l-10 -172h10q35 51 86 90q43 35 107.5 63.5t150.5 28.5q80 0 151 -28.5t123 -81.5t81.5 -129t29.5 -168zM692 840
q-84 0 -156.5 -39t-126 -102.5t-84 -142.5t-30.5 -159q0 -160 87 -248t228 -88q84 0 157 38t126 100.5t84 140.5t31 158q0 160 -88.5 251t-227.5 91z" />
    <glyph glyph-name="q" unicode="q" horiz-adv-x="1064" 
d="M141 397q0 111 41 204t107.5 163t151.5 108.5t175 38.5q98 0 164 -34.5t107 -75.5q47 -49 71 -109h11l59 209h51l-217 -1229h-71l88 500h-11q-35 -53 -86 -92q-43 -35 -106.5 -62.5t-149.5 -27.5q-80 0 -150.5 28.5t-122.5 82t-82 129t-30 167.5zM530 61q84 0 157 39
t126 102.5t84 142.5t31 159q0 160 -87 248t-229 88q-84 0 -156.5 -38t-126 -100.5t-84 -140.5t-30.5 -158q0 -160 88 -251t227 -91z" />
    <glyph glyph-name="r" unicode="r" horiz-adv-x="604" 
d="M723 911l-14 -82h-62q-66 0 -124 -27.5t-104 -74.5t-78 -113.5t-44 -142.5l-82 -471h-72l158 901h51l-8 -153h10q29 45 74 81q39 31 96.5 56.5t137.5 25.5h61z" />
    <glyph glyph-name="s" unicode="s" horiz-adv-x="798" 
d="M764 229q0 -119 -90 -179t-225 -60q-76 0 -135.5 22.5t-101.5 60.5t-63.5 88t-21.5 105h72q0 -88 66.5 -147.5t187.5 -59.5q100 0 168.5 40t68.5 118q0 57 -34.5 95t-88 66t-114 53.5t-113.5 57t-88 75.5t-35 112q0 104 83 169.5t220 65.5q68 0 124 -20.5t96 -56
t62.5 -81.5t22.5 -98h-71q-2 80 -61.5 132.5t-176.5 52.5q-106 0 -165.5 -46t-59.5 -112q0 -55 34.5 -91t88 -63.5t114 -51t113.5 -55.5t88 -77t35 -115z" />
    <glyph glyph-name="t" unicode="t" horiz-adv-x="604" 
d="M360 829h-174l13 72h82q53 0 75.5 19.5t32.5 72.5l31 174h72l-48 -266h226l-13 -72h-225l-100 -573q-6 -41 -6 -70q0 -127 135 -127q29 0 51 7q10 2 23 6l-13 -64q-10 -6 -22 -10q-10 -4 -25.5 -6t-36.5 -2q-86 0 -135 48t-49 144q0 33 6 74z" />
    <glyph glyph-name="u" unicode="u" horiz-adv-x="1013" 
d="M510 -10q-139 0 -221 91t-82 243q0 25 4 50t8 52l82 475h72l-82 -475q-4 -25 -7 -48.5t-3 -45.5q0 -123 64.5 -197t186.5 -74q61 0 118 27t102 74t76.5 111.5t43.5 142.5l84 485h72l-158 -901h-51l4 133h-10q-33 -41 -76 -72q-39 -29 -94 -50t-133 -21z" />
    <glyph glyph-name="v" unicode="v" horiz-adv-x="880" 
d="M256 901l184 -795l463 795h80l-526 -901h-62l-211 901h72z" />
    <glyph glyph-name="w" unicode="w" horiz-adv-x="1249" 
d="M741 750l-370 -750h-58l-129 901h68l110 -768l381 768h41l111 -768l381 768h76l-445 -901h-57z" />
    <glyph glyph-name="x" unicode="x" horiz-adv-x="819" 
d="M451 467l-232 434h78l201 -379l331 379h86l-385 -440l248 -461h-78l-217 406l-356 -406h-86z" />
    <glyph glyph-name="y" unicode="y" horiz-adv-x="870" 
d="M188 901h72l178 -768h11l448 768h80l-600 -1024q-35 -59 -65.5 -100t-61.5 -66.5t-67 -37t-81 -11.5q-16 0 -26 1t-19 3q-8 2 -14 6l12 68q8 -2 19 -4q10 -2 20 -2h23q61 0 101 33.5t83 109.5l90 158z" />
    <glyph glyph-name="z" unicode="z" horiz-adv-x="768" 
d="M748 829h-531l12 72h635l-8 -51l-678 -778h541l-12 -72h-646l9 51z" />
    <glyph glyph-name="braceleft" unicode="{" horiz-adv-x="614" 
d="M188 492q78 0 123 43t60 120l71 412q23 117 86.5 170t180.5 53h71l-14 -71h-72q-78 0 -121 -33t-59 -119l-74 -422q-12 -68 -37.5 -105.5t-54.5 -56.5q-33 -23 -69 -26q35 -14 57 -41q20 -23 32.5 -62t2.5 -100l-64 -365q-31 -186 142 -186h51l-13 -72h-51
q-109 0 -165 71t-35 187l63 365q14 78 -17.5 127t-103.5 49l10 62v0z" />
    <glyph glyph-name="bar" unicode="|" horiz-adv-x="563" 
d="M473 1290h72l-287 -1618h-72z" />
    <glyph glyph-name="braceright" unicode="}" horiz-adv-x="614" 
d="M586 430q-78 0 -123 -43t-60 -121l-71 -411q-23 -117 -86.5 -170.5t-179.5 -53.5h-72l14 72h72q78 0 121 33t59 119l74 421q10 66 36.5 105t55.5 57q33 23 70 27q-35 12 -58 39q-20 23 -33.5 62.5t-1.5 101.5l64 364q31 186 -141 187h-52l13 71h51q109 0 165 -70.5
t36 -187.5l-64 -364q-14 -78 17.5 -127t103.5 -49z" />
    <glyph glyph-name="asciitilde" unicode="~" horiz-adv-x="901" 
d="M332 686q61 0 111.5 -31.5t96.5 -70.5t92 -71t99 -32q33 0 63.5 13.5t55 38t40 58.5t19.5 75h62q-4 -55 -25.5 -102.5t-55.5 -81t-77 -53t-88 -19.5q-61 0 -111.5 31.5t-96.5 70.5t-92 70.5t-99 31.5q-33 0 -64 -13t-55.5 -37.5t-40.5 -58.5t-19 -75h-61q4 55 25.5 102.5
t55.5 81t76 53t89 19.5z" />
    <glyph glyph-name="uni00A0" unicode="&#xa0;" horiz-adv-x="419" 
 />
    <glyph glyph-name="exclamdown" unicode="&#xa1;" horiz-adv-x="471" 
d="M369 584l-152 -912h-82l172 912h62zM381 788q-25 0 -41 17.5t-16 42.5q0 29 18 46t47 17q25 0 41 -17t16 -42q0 -29 -18 -46.5t-47 -17.5z" />
    <glyph glyph-name="cent" unicode="&#xa2;" 
d="M434 -205l33 201q-68 10 -126 43t-101 85t-66.5 120.5t-23.5 152.5q0 106 38.5 199.5t103 162t147.5 108.5t171 44l37 215h72l-39 -219q121 -16 206 -99t105 -214h-71q-20 117 -99.5 181.5t-199.5 64.5q-84 0 -157 -38t-126 -100.5t-84 -140.5t-31 -158q0 -160 88 -251
t228 -91q121 0 209 71t137 175h71q-57 -143 -170.5 -229t-246.5 -88l-33 -195h-72z" />
    <glyph glyph-name="sterling" unicode="&#xa3;" horiz-adv-x="1003" 
d="M344 268q-12 -66 -31.5 -104.5t-38.5 -59.5q-23 -23 -47 -32h717l-12 -72h-840l12 72q72 16 112 60t56 136l50 285h-134l13 72h133l59 329q33 176 138.5 261t259.5 85q150 0 234.5 -92t74.5 -245h-72q0 135 -59.5 200.5t-190.5 65.5q-53 0 -104 -16.5t-93 -50.5t-73 -85
t-43 -123l-59 -329h378l-12 -72h-379z" />
    <glyph glyph-name="currency" unicode="&#xa4;" horiz-adv-x="1095" 
d="M147 604h185l121 686h358q80 0 145 -25q66 -26 113 -71t73 -108q26 -62 25 -134q0 -201 -124 -310q-124 -110 -369 -110h-285l-33 -184h451l-12 -72h-451l-47 -276h-72l47 276h-184l12 72h185l32 184h-184zM686 604q90 0 165 21q75 20 129 62t84 106q30 63 30 149
q0 121 -75 199t-222 78h-287l-107 -615h283z" />
    <glyph glyph-name="yen" unicode="&#xa5;" horiz-adv-x="1034" 
d="M260 584h266l-274 706h78l266 -696h10l512 696h86l-524 -706h266l-12 -72h-307l-33 -184h307l-12 -72h-307l-45 -256h-72l45 256h-307l12 72h307l33 184h-307z" />
    <glyph glyph-name="brokenbar" unicode="&#xa6;" horiz-adv-x="563" 
d="M299 307h72l-113 -635h-72zM473 1290h72l-113 -635h-72z" />
    <glyph glyph-name="section" unicode="&#xa7;" 
d="M956 551q0 -70 -25.5 -123t-68.5 -94t-98 -72t-115 -53q66 -37 109 -83t43 -114q0 -121 -91.5 -189.5t-238.5 -68.5q-61 0 -115.5 18.5t-95.5 51.5t-64.5 78t-23.5 98v27q0 8 2 14h72q0 -111 65.5 -163t171.5 -52q111 0 177.5 48t66.5 126q0 53 -40 90t-99.5 68.5
t-130 62.5t-130 70t-99.5 89t-40 124q0 68 27 122t70 96t99 72.5t118 55.5q-59 35 -98 81t-39 111q0 55 22.5 102.5t63.5 82.5t100 54t131 19q57 0 106.5 -18t86 -52t57 -79t20.5 -96q0 -6 -1 -12.5t-1 -10.5v-8h-71q0 96 -52.5 150.5t-156.5 54.5q-109 0 -170.5 -51.5
t-61.5 -122.5q0 -55 38 -93t96.5 -70t125 -61.5t125 -67.5t96 -89t37.5 -123zM260 516q0 -53 27.5 -91t73 -68.5t100.5 -56.5l110 -52q88 29 156 71q59 35 108.5 90.5t49.5 129.5q0 53 -28 92t-72 69.5t-99 56t-108 52.5q-29 -10 -81.5 -32.5t-105.5 -58.5t-92 -87.5
t-39 -114.5z" />
    <glyph glyph-name="dieresis" unicode="&#xa8;" horiz-adv-x="542" 
d="M270 1188q0 25 18.5 43t47.5 18q25 0 41 -18.5t16 -42.5q0 -25 -18.5 -43.5t-46.5 -18.5q-25 0 -41.5 18.5t-16.5 43.5zM567 1188q0 25 18.5 43t47.5 18q25 0 41 -18.5t16 -42.5q0 -25 -18.5 -43.5t-46.5 -18.5q-25 0 -41.5 18.5t-16.5 43.5z" />
    <glyph glyph-name="copyright" unicode="&#xa9;" horiz-adv-x="1474" 
d="M205 555q0 158 54 294t151.5 236.5t231.5 157.5t292 57q123 0 225.5 -45t177 -121.5t116.5 -179t42 -219.5q0 -158 -54.5 -294t-151.5 -236.5t-231 -157.5t-292 -57q-123 0 -225.5 45t-177 121.5t-116.5 179t-42 219.5zM1421 721q0 113 -35.5 206t-101 160.5t-158 104.5
t-204.5 37q-131 0 -248 -48t-205 -136.5t-139 -209t-51 -266.5q0 -113 35.5 -206t101 -160.5t158 -104.5t204.5 -37q131 0 248 48.5t205 136.5t139 209t51 266zM879 911q-53 0 -100.5 -23.5t-82 -64.5t-55 -95t-20.5 -116q0 -104 56 -168.5t146 -64.5q92 0 149.5 42
t92.5 111h72q-37 -92 -118 -158.5t-198 -66.5q-57 0 -107 22.5t-87 61.5t-58.5 92.5t-21.5 114.5q0 86 27.5 156.5t75.5 121t112.5 79t136.5 28.5q55 0 101.5 -18.5t80 -49t54 -71.5t24.5 -86h-72q-10 70 -63 111.5t-145 41.5z" />
    <glyph glyph-name="ordfeminine" unicode="&#xaa;" horiz-adv-x="563" 
d="M401 829q70 0 124.5 46.5t70.5 128.5l4 20h-88q-68 0 -113 -8t-70.5 -23.5t-35.5 -35t-10 -42.5q0 -43 32.5 -64.5t85.5 -21.5zM500 1300q78 0 128 -44t50 -115q0 -8 -1 -14.5t-1 -10.5v-10l-58 -328h-36v74h-11q-20 -25 -47 -43q-23 -16 -56.5 -28.5t-80.5 -12.5
q-74 0 -121 39t-47 98q0 84 66.5 132t226.5 48h98l4 21v8q0 4 1 8t1 13q0 49 -32.5 76.5t-89.5 27.5q-133 0 -158 -102h-62q16 78 75 120.5t151 42.5z" />
    <glyph glyph-name="guillemotleft" unicode="&#xab;" horiz-adv-x="778" 
d="M553 457l168 -314h-82l-170 318l283 317h86zM246 457l168 -314h-82l-170 318l282 317h86z" />
    <glyph glyph-name="logicalnot" unicode="&#xac;" horiz-adv-x="880" 
d="M909 406h-71l49 270h-727l12 72h799z" />
    <glyph glyph-name="uni00AD" unicode="&#xad;" horiz-adv-x="675" 
d="M700 492h-553l13 71h553z" />
    <glyph glyph-name="registered" unicode="&#xae;" horiz-adv-x="1474" 
d="M205 555q0 158 54 294t151.5 236.5t231.5 157.5t292 57q123 0 225.5 -45t177 -121.5t116.5 -179t42 -219.5q0 -158 -54.5 -294t-151.5 -236.5t-231 -157.5t-292 -57q-123 0 -225.5 45t-177 121.5t-116.5 179t-42 219.5zM1421 721q0 113 -35.5 206t-101 160.5t-158 104.5
t-204.5 37q-131 0 -248 -48t-205 -136.5t-139 -209t-51 -266.5q0 -113 35.5 -206t101 -160.5t158 -104.5t204.5 -37q131 0 248 48.5t205 136.5t139 209t51 266zM707 584l-48 -267h-71l114 656h230q82 0 136 -52.5t54 -123.5q0 -92 -51 -146.5t-143 -64.5l131 -269h-78
l-127 267h-147zM762 901l-43 -246h182q66 0 108 34t42 95q0 53 -35 85t-96 32h-158z" />
    <glyph glyph-name="macron" unicode="&#xaf;" horiz-adv-x="593" 
d="M729 1126h-471l14 72h471z" />
    <glyph glyph-name="degree" unicode="&#xb0;" horiz-adv-x="655" 
d="M262 1030q0 55 20.5 104.5t56.5 86t87 58t113 21.5q47 0 88 -18t70.5 -49t47 -71t17.5 -83q0 -55 -20.5 -104t-56.5 -86t-87 -58.5t-113 -21.5q-47 0 -88 18.5t-70.5 49t-47 70.5t-17.5 83zM700 1071q0 72 -48 120t-124 48q-41 0 -78.5 -15.5t-65.5 -42t-44 -63.5
t-16 -80q0 -72 48 -120t124 -48q41 0 78.5 15.5t65.5 42t44 63.5t16 80z" />
    <glyph glyph-name="plusminus" unicode="&#xb1;" horiz-adv-x="890" 
d="M844 92h-768l14 72h348l72 409h-348l12 72h348l64 359h71l-63 -359h348l-12 -72h-348l-72 -409h348z" />
    <glyph glyph-name="uni00B2" unicode="&#xb2;" horiz-adv-x="501" 
d="M313 942h283l-12 -61h-379l10 51l229 203q43 39 74 66.5t49.5 50t26.5 42t8 37.5q0 45 -29.5 68.5t-80.5 23.5q-117 0 -144 -112h-61q18 86 73.5 130t141.5 44q70 0 116 -42t46 -106q0 -63 -43 -112t-125 -121z" />
    <glyph glyph-name="uni00B3" unicode="&#xb3;" horiz-adv-x="512" 
d="M539 1194q23 -10 43 -27q16 -16 29.5 -39.5t13.5 -62.5q0 -90 -57.5 -142.5t-155.5 -52.5q-80 0 -129.5 47.5t-49.5 112.5v14h62q0 -113 125 -112q66 0 105.5 34.5t39.5 96.5q0 47 -31.5 75.5t-93.5 28.5h-51l10 62h62q63 0 97 28.5t34 75.5q0 45 -30 67.5t-77 22.5
q-53 0 -90 -25.5t-47 -86.5h-61q12 86 69.5 130t139.5 44q68 0 112.5 -41t44.5 -105q0 -45 -17.5 -72.5t-39.5 -43.5q-24 -21 -57 -29z" />
    <glyph glyph-name="acute" unicode="&#xb4;" horiz-adv-x="348" 
d="M412 1290h106l-209 -246h-65z" />
    <glyph glyph-name="mu" unicode="&#xb5;" horiz-adv-x="1013" 
d="M514 -10q-72 0 -122 25.5t-81 56.5q-37 37 -59 84h-10l-86 -484h-72l217 1229h72l-78 -440q-12 -66 -12 -123q0 -125 59 -201t195 -76q61 0 115.5 26t98.5 72t74.5 111.5t44.5 145.5l86 485h72l-158 -901h-51l4 133h-10q-31 -41 -74 -72q-37 -29 -93 -50t-132 -21z" />
    <glyph glyph-name="paragraph" unicode="&#xb6;" horiz-adv-x="931" 
d="M985 1290l-260 -1474h-72l246 1403h-225l-246 -1403h-72l162 921q-115 0 -179.5 71t-64.5 175q0 147 89.5 227t232.5 80h389z" />
    <glyph glyph-name="periodcentered" unicode="&#xb7;" horiz-adv-x="419" 
d="M330 696q25 0 41 -17t16 -42q0 -29 -18.5 -46.5t-46.5 -17.5q-25 0 -41.5 17.5t-16.5 42.5q0 29 18.5 46t47.5 17z" />
    <glyph glyph-name="cedilla" unicode="&#xb8;" horiz-adv-x="358" 
d="M158 -86q49 -4 76.5 -37t27.5 -74q0 -66 -48 -103.5t-132 -37.5q-37 0 -57 6q-12 4 -21 8l12 60q10 -4 21 -6q18 -6 55 -6q47 0 71.5 21.5t24.5 49.5q0 33 -19 52.5t-60 19.5q-12 0 -21.5 -2t-15.5 -4q-8 -2 -15 -4l90 143h68z" />
    <glyph glyph-name="uni00B9" unicode="&#xb9;" horiz-adv-x="440" 
d="M338 1309l-27 53l193 113h41l-105 -594h-61l90 505z" />
    <glyph glyph-name="ordmasculine" unicode="&#xba;" horiz-adv-x="655" 
d="M258 1006q0 61 20.5 114.5t57.5 93t88 63t111 23.5q98 0 161.5 -67.5t63.5 -169.5q0 -61 -20.5 -114.5t-57.5 -93.5t-88 -63.5t-111 -23.5q-98 0 -161.5 68t-63.5 170zM696 1051q0 86 -45 137t-119 51q-43 0 -81.5 -17.5t-67.5 -47t-45 -70.5t-16 -86q0 -86 45 -137.5
t118 -51.5q43 0 82 17.5t68 47.5t45 70t16 87z" />
    <glyph glyph-name="guillemotright" unicode="&#xbb;" horiz-adv-x="778" 
d="M385 465l-168 313h82l170 -317l-283 -318h-86zM692 465l-168 313h82l170 -317l-282 -318h-86z" />
    <glyph glyph-name="onequarter" unicode="&#xbc;" horiz-adv-x="1167" 
d="M1047 184h81l-10 -61h-82l-22 -123h-62l23 123h-277l11 61l338 410h71zM985 184l57 316l-260 -316h203zM348 1124l-26 54l192 112h41l-104 -594h-62l90 506zM1180 1290h82l-1016 -1290h-82z" />
    <glyph glyph-name="onehalf" unicode="&#xbd;" horiz-adv-x="1228" 
d="M348 1124l-26 54l192 112h41l-104 -594h-62l90 506zM866 61h283l-12 -61h-379l10 51l229 203q43 39 74 67t49 50q18 23 27 42q8 19 8 38q0 45 -30 68q-30 24 -81 24q-117 0 -143 -113h-61q18 86 73 130t142 44q70 0 115 -42q46 -42 47 -105q0 -63 -43 -113
q-43 -49 -125 -121zM1180 1290h82l-1016 -1290h-82z" />
    <glyph glyph-name="threequarters" unicode="&#xbe;" horiz-adv-x="1208" 
d="M1087 184h82l-10 -61h-82l-22 -123h-62l23 123h-277l11 61l337 410h72zM1026 184l57 316l-260 -316h203zM1221 1290h82l-1016 -1290h-82zM528 1010q23 -10 43 -27q16 -16 30 -40q13 -24 13 -62q0 -90 -57 -143q-57 -52 -156 -52q-80 0 -129 47t-49 113v14h62
q0 -113 125 -112q66 0 105 34q40 35 40 97q0 47 -32 75q-32 29 -93 29h-51l10 61h62q63 0 97 29t34 76q0 45 -30 68t-77 22q-53 0 -90 -26t-47 -87h-62q12 86 70 130q57 44 139 44q68 0 113 -40q45 -41 45 -105q0 -45 -17 -73t-40 -44q-25 -20 -58 -28z" />
    <glyph glyph-name="questiondown" unicode="&#xbf;" horiz-adv-x="829" 
d="M74 -59q0 82 29.5 137t75.5 97t100.5 77t102.5 76t83 94t43 131l2 20h72l-2 -20q-8 -88 -44 -148.5t-84.5 -105.5t-101.5 -80t-98 -71.5t-75 -83t-30 -111.5q0 -98 62.5 -158.5t179.5 -60.5q59 0 111.5 21.5t93.5 60.5t67.5 94t34.5 121l4 37h72l-4 -37
q-10 -82 -42 -149.5t-83 -117t-118.5 -76t-147.5 -26.5q-68 0 -124 21.5t-96 59.5t-61.5 88.5t-21.5 109.5zM586 788q-25 0 -41.5 17.5t-16.5 42.5q0 29 18.5 46t47.5 17q25 0 41 -17t16 -42q0 -29 -18 -46.5t-47 -17.5z" />
    <glyph glyph-name="Agrave" unicode="&#xc0;" horiz-adv-x="1097" 
d="M821 1444h-55l-119 246h96zM774 1161l-405 -731h553zM819 1290l264 -1290h-73l-74 358h-608l-199 -358h-82l719 1290h53z" />
    <glyph glyph-name="Aacute" unicode="&#xc1;" horiz-adv-x="1097" 
d="M950 1690h107l-209 -246h-66zM774 1161l-405 -731h553zM819 1290l264 -1290h-73l-74 358h-608l-199 -358h-82l719 1290h53z" />
    <glyph glyph-name="Acircumflex" unicode="&#xc2;" horiz-adv-x="1097" 
d="M874 1659l154 -225h-78l-123 174l-184 -174h-86l236 225h81zM774 1161l-405 -731h553zM819 1290l264 -1290h-73l-74 358h-608l-199 -358h-82l719 1290h53z" />
    <glyph glyph-name="Atilde" unicode="&#xc3;" horiz-adv-x="1097" 
d="M682 1556q-39 0 -68 -31q-29 -32 -34 -81h-62q10 86 60 135q49 49 110 49q43 0 73 -20t56 -46q27 -26 52 -46q26 -20 59 -21q39 0 67 32q29 32 35 81h62q-10 -86 -60 -135q-49 -49 -110 -50q-43 0 -73 21q-30 20 -56 46q-27 26 -53 46q-25 20 -58 20zM774 1161l-405 -731
h553zM819 1290l264 -1290h-73l-74 358h-608l-199 -358h-82l719 1290h53z" />
    <glyph glyph-name="Adieresis" unicode="&#xc4;" horiz-adv-x="1097" 
d="M594 1556q0 25 18 43t47 19q25 0 41 -19q16 -18 17 -43q0 -25 -19 -43q-18 -18 -47 -18q-25 0 -41 18t-16 43zM891 1556q0 25 18 43t47 19q25 0 41 -19q16 -18 17 -43q0 -25 -19 -43q-18 -18 -47 -18q-25 0 -41 18t-16 43zM774 1161l-405 -731h553zM819 1290l264 -1290
h-73l-74 358h-608l-199 -358h-82l719 1290h53z" />
    <glyph glyph-name="Aring" unicode="&#xc5;" horiz-adv-x="1097" 
d="M985 1587q0 -84 -53 -134t-131 -50q-59 0 -104 42q-44 42 -44 101q0 84 54 134q53 50 131 51q59 0 103 -42q44 -43 44 -102zM811 1464q51 0 82 33t31 76t-26 69q-26 27 -71 27q-51 0 -82 -33t-30 -75q0 -43 25 -70q26 -27 71 -27zM774 1161l-405 -731h553zM819 1290
l264 -1290h-73l-74 358h-608l-199 -358h-82l719 1290h53z" />
    <glyph glyph-name="AE" unicode="&#xc6;" horiz-adv-x="1587" 
d="M1497 72l-12 -72h-717l61 358h-497l-266 -358h-86l954 1290h758l-15 -71h-624l-90 -512h573l-12 -72h-574l-98 -563h645zM965 1219l-582 -789h461l137 789h-16z" />
    <glyph glyph-name="Ccedilla" unicode="&#xc7;" horiz-adv-x="1300" 
d="M856 1229q-111 0 -215 -50.5t-185 -138.5t-130.5 -208.5t-49.5 -260.5q0 -117 35 -211t95.5 -160.5t141.5 -102.5t175 -36q74 0 147.5 26t139 74t120 116.5t91.5 152.5h77q-37 -94 -94 -171t-126.5 -134t-149.5 -91t-166 -42l-51 -78q49 -4 76.5 -37t27.5 -74
q0 -66 -48 -103.5t-132 -37.5q-37 0 -57 6q-12 4 -21 8l12 60q10 -4 21 -6q18 -6 55 -6q47 0 71.5 21.5t24.5 49.5q0 33 -19.5 52.5t-59.5 19.5q-20 0 -34 -3t-18 -5l84 131q-102 4 -191 47t-155.5 117.5t-104.5 178t-38 230.5q0 160 54 295t145.5 233.5t211 153.5t248.5 55
q86 0 166 -30.5t143.5 -88t107.5 -139t60 -182.5h-77q-37 178 -147.5 273.5t-260.5 95.5z" />
    <glyph glyph-name="Egrave" unicode="&#xc8;" horiz-adv-x="1054" 
d="M838 1444h-56l-118 246h96zM965 72l-13 -72h-778l227 1290h758l-14 -71h-686l-90 -512h635l-13 -72h-635l-98 -563h707z" />
    <glyph glyph-name="Eacute" unicode="&#xc9;" horiz-adv-x="1054" 
d="M924 1690h106l-209 -246h-65zM965 72l-13 -72h-778l227 1290h758l-14 -71h-686l-90 -512h635l-13 -72h-635l-98 -563h707z" />
    <glyph glyph-name="Ecircumflex" unicode="&#xca;" horiz-adv-x="1054" 
d="M879 1669l153 -225h-78l-123 174l-184 -174h-86l236 225h82zM965 72l-13 -72h-778l227 1290h758l-14 -71h-686l-90 -512h635l-13 -72h-635l-98 -563h707z" />
    <glyph glyph-name="Edieresis" unicode="&#xcb;" horiz-adv-x="1054" 
d="M608 1556q0 25 19 43q18 18 47 19q25 0 41 -19q16 -18 16 -43t-18 -43t-47 -18q-25 0 -41 18q-17 18 -17 43zM905 1556q0 25 19 43q18 18 47 19q25 0 41 -19q16 -18 16 -43t-18 -43t-47 -18q-25 0 -41 18q-17 18 -17 43zM965 72l-13 -72h-778l227 1290h758l-14 -71h-686
l-90 -512h635l-13 -72h-635l-98 -563h707z" />
    <glyph glyph-name="Igrave" unicode="&#xcc;" horiz-adv-x="419" 
d="M473 1444h-55l-119 246h96zM246 0h-72l227 1290h72z" />
    <glyph glyph-name="Iacute" unicode="&#xcd;" horiz-adv-x="419" 
d="M596 1690h106l-208 -246h-66zM246 0h-72l227 1290h72z" />
    <glyph glyph-name="Icircumflex" unicode="&#xce;" horiz-adv-x="419" 
d="M530 1673l154 -225h-78l-123 174l-184 -174h-86l236 225h81zM246 0h-72l227 1290h72z" />
    <glyph glyph-name="Idieresis" unicode="&#xcf;" horiz-adv-x="419" 
d="M256 1556q0 25 18 43t48 19q25 0 40 -19q16 -18 17 -43q0 -25 -19 -43q-18 -18 -47 -18q-25 0 -41 18t-16 43zM553 1556q0 25 18 43t47 19q25 0 41 -19q16 -18 17 -43q0 -25 -19 -43q-18 -18 -47 -18q-25 0 -41 18t-16 43zM246 0h-72l227 1290h72z" />
    <glyph glyph-name="Eth" unicode="&#xd0;" horiz-adv-x="1218" 
d="M1239 727q0 -156 -54 -289t-154 -230q-99 -97 -236 -153q-137 -55 -303 -55h-287l106 604h-174l13 72h174l108 614h277q123 0 221 -42t167 -118t105 -178q37 -102 37 -225zM504 72q141 0 262 49t210 135t140 205t51 258q0 106 -30 197q-31 91 -90 159t-148 106
q-88 38 -205 38h-205l-94 -543h307l-12 -72h-307l-94 -532h215z" />
    <glyph glyph-name="Ntilde" unicode="&#xd1;" horiz-adv-x="1228" 
d="M752 1577q-39 0 -68 -32t-35 -81h-61q10 86 59 135t111 50q43 0 72 -21q30 -20 57 -46t52 -46q26 -20 58 -20q39 0 68 31q29 32 35 81h61q-10 -86 -59 -135t-111 -49q-43 0 -72 20q-30 20 -57 46t-52 46q-25 21 -58 21zM1282 1290l-227 -1290h-62l-544 1153l-203 -1153
h-72l227 1290h62l543 -1153l204 1153h72z" />
    <glyph glyph-name="Ograve" unicode="&#xd2;" horiz-adv-x="1351" 
d="M920 1444h-56l-119 246h97zM205 563q0 160 54 295t145 234q91 98 211 153t249 55q104 0 198 -40q93 -41 163 -117t109 -181q40 -105 40 -235q0 -160 -54 -295t-145 -233t-211 -154q-120 -55 -249 -55q-104 0 -198 41q-93 41 -163 116q-70 76 -109 182q-40 105 -40 234z
M856 1229q-111 0 -215 -50t-185 -139q-81 -88 -130 -209t-50 -260q0 -117 35 -211t96 -160q60 -67 141 -103t175 -36q111 0 215 51q104 50 185 138t130 209t50 260q0 117 -35 211t-96 161q-60 67 -141 102q-81 36 -175 36z" />
    <glyph glyph-name="Oacute" unicode="&#xd3;" horiz-adv-x="1351" 
d="M1036 1690h107l-209 -246h-66zM205 563q0 160 54 295t145 234q91 98 211 153t249 55q104 0 198 -40q93 -41 163 -117t109 -181q40 -105 40 -235q0 -160 -54 -295t-145 -233t-211 -154q-120 -55 -249 -55q-104 0 -198 41q-93 41 -163 116q-70 76 -109 182q-40 105 -40 234
zM856 1229q-111 0 -215 -50t-185 -139q-81 -88 -130 -209t-50 -260q0 -117 35 -211t96 -160q60 -67 141 -103t175 -36q111 0 215 51q104 50 185 138t130 209t50 260q0 117 -35 211t-96 161q-60 67 -141 102q-81 36 -175 36z" />
    <glyph glyph-name="Ocircumflex" unicode="&#xd4;" horiz-adv-x="1351" 
d="M981 1659l154 -225h-78l-123 174l-184 -174h-86l235 225h82zM205 563q0 160 54 295t145 234q91 98 211 153t249 55q104 0 198 -40q93 -41 163 -117t109 -181q40 -105 40 -235q0 -160 -54 -295t-145 -233t-211 -154q-120 -55 -249 -55q-104 0 -198 41q-93 41 -163 116
q-70 76 -109 182q-40 105 -40 234zM856 1229q-111 0 -215 -50t-185 -139q-81 -88 -130 -209t-50 -260q0 -117 35 -211t96 -160q60 -67 141 -103t175 -36q111 0 215 51q104 50 185 138t130 209t50 260q0 117 -35 211t-96 161q-60 67 -141 102q-81 36 -175 36z" />
    <glyph glyph-name="Otilde" unicode="&#xd5;" horiz-adv-x="1351" 
d="M788 1577q-39 0 -67 -32q-29 -32 -35 -81h-61q10 86 59 135t111 50q43 0 72 -21q30 -20 57 -46t52 -46q26 -20 58 -20q39 0 68 31q29 32 35 81h61q-10 -86 -59 -135t-111 -49q-43 0 -73 20t-56 46q-27 26 -52 46q-26 21 -59 21zM205 563q0 160 54 295t145 234
q91 98 211 153t249 55q104 0 198 -40q93 -41 163 -117t109 -181q40 -105 40 -235q0 -160 -54 -295t-145 -233t-211 -154q-120 -55 -249 -55q-104 0 -198 41q-93 41 -163 116q-70 76 -109 182q-40 105 -40 234zM856 1229q-111 0 -215 -50t-185 -139q-81 -88 -130 -209
t-50 -260q0 -117 35 -211t96 -160q60 -67 141 -103t175 -36q111 0 215 51q104 50 185 138t130 209t50 260q0 117 -35 211t-96 161q-60 67 -141 102q-81 36 -175 36z" />
    <glyph glyph-name="Odieresis" unicode="&#xd6;" horiz-adv-x="1351" 
d="M711 1556q0 25 18 43t47 19q25 0 41 -19q16 -18 17 -43q0 -25 -19 -43q-18 -18 -47 -18q-25 0 -41 18t-16 43zM1008 1556q0 25 18 43t47 19q25 0 41 -19q16 -18 16 -43t-18 -43t-47 -18q-25 0 -41 18t-16 43zM205 563q0 160 54 295t145 234q91 98 211 153t249 55
q104 0 198 -40q93 -41 163 -117t109 -181q40 -105 40 -235q0 -160 -54 -295t-145 -233t-211 -154q-120 -55 -249 -55q-104 0 -198 41q-93 41 -163 116q-70 76 -109 182q-40 105 -40 234zM856 1229q-111 0 -215 -50t-185 -139q-81 -88 -130 -209t-50 -260q0 -117 35 -211
t96 -160q60 -67 141 -103t175 -36q111 0 215 51q104 50 185 138t130 209t50 260q0 117 -35 211t-96 161q-60 67 -141 102q-81 36 -175 36z" />
    <glyph glyph-name="multiply" unicode="&#xd7;" horiz-adv-x="860" 
d="M471 522l-209 266l55 39l205 -260l307 264l48 -45l-314 -270l211 -266l-55 -39l-207 260l-299 -258l-47 45z" />
    <glyph glyph-name="Oslash" unicode="&#xd8;" horiz-adv-x="1351" 
d="M92 115l182 149q-20 35 -34 80q-14 39 -24.5 94.5t-10.5 124.5q0 160 54 295t145.5 233.5t211 153.5t248.5 55q102 0 178 -32.5t127 -73.5q59 -47 101 -107l174 144l43 -55l-182 -150q18 -35 34 -80q12 -39 23.5 -94t11.5 -125q0 -160 -54 -295t-145.5 -233.5
t-211 -153.5t-248.5 -55q-104 0 -179 32.5t-126 73.5q-59 47 -101 107l-174 -144zM1303 719q0 59 -9.5 107t-19.5 83q-12 39 -27 70l-880 -729q33 -53 86 -94q45 -35 111.5 -65t158.5 -30q111 0 215 50.5t185 138.5t130.5 209t49.5 260zM856 1229q-111 0 -215 -50.5
t-185 -138.5t-130.5 -208.5t-49.5 -260.5q0 -61 8.5 -108t18.5 -82q12 -39 29 -70l880 729q-33 53 -86 95q-45 35 -111.5 64.5t-158.5 29.5z" />
    <glyph glyph-name="Ugrave" unicode="&#xd9;" horiz-adv-x="1228" 
d="M879 1444h-56l-118 246h96zM623 -10q-86 0 -157 26q-71 27 -121 77t-78 122t-27 162q0 29 2 57q2 29 8 60l141 796h72l-141 -796q-6 -29 -9 -58q-2 -29 -2 -53q0 -158 86 -240t238 -82q180 0 291 99q111 98 151 321l144 809h71l-143 -809q-47 -262 -176 -377
q-129 -114 -350 -114z" />
    <glyph glyph-name="Uacute" unicode="&#xda;" horiz-adv-x="1228" 
d="M975 1690h106l-209 -246h-65zM623 -10q-86 0 -157 26q-71 27 -121 77t-78 122t-27 162q0 29 2 57q2 29 8 60l141 796h72l-141 -796q-6 -29 -9 -58q-2 -29 -2 -53q0 -158 86 -240t238 -82q180 0 291 99q111 98 151 321l144 809h71l-143 -809q-47 -262 -176 -377
q-129 -114 -350 -114z" />
    <glyph glyph-name="Ucircumflex" unicode="&#xdb;" horiz-adv-x="1228" 
d="M940 1659l154 -225h-78l-123 174l-184 -174h-86l235 225h82zM623 -10q-86 0 -157 26q-71 27 -121 77t-78 122t-27 162q0 29 2 57q2 29 8 60l141 796h72l-141 -796q-6 -29 -9 -58q-2 -29 -2 -53q0 -158 86 -240t238 -82q180 0 291 99q111 98 151 321l144 809h71l-143 -809
q-47 -262 -176 -377q-129 -114 -350 -114z" />
    <glyph glyph-name="Udieresis" unicode="&#xdc;" horiz-adv-x="1228" 
d="M659 1556q0 25 19 43q18 18 47 19q25 0 41 -19q16 -18 16 -43t-18 -43t-47 -18q-25 0 -41 18q-17 18 -17 43zM956 1556q0 25 19 43q18 18 47 19q25 0 41 -19q16 -18 16 -43t-18 -43t-47 -18q-25 0 -41 18q-17 18 -17 43zM623 -10q-86 0 -157 26q-71 27 -121 77t-78 122
t-27 162q0 29 2 57q2 29 8 60l141 796h72l-141 -796q-6 -29 -9 -58q-2 -29 -2 -53q0 -158 86 -240t238 -82q180 0 291 99q111 98 151 321l144 809h71l-143 -809q-47 -262 -176 -377q-129 -114 -350 -114z" />
    <glyph glyph-name="Yacute" unicode="&#xdd;" horiz-adv-x="1034" 
d="M872 1690h107l-209 -246h-65zM555 512l-303 778h78l266 -696h10l514 696h84l-577 -778l-90 -512h-72z" />
    <glyph glyph-name="Thorn" unicode="&#xde;" horiz-adv-x="1157" 
d="M473 1290l-43 -235h412q80 0 143.5 -27t108.5 -73t69.5 -107.5t24.5 -130.5q0 -94 -32 -171t-94.5 -132.5t-154.5 -86t-213 -30.5h-397l-51 -297h-72l227 1290h72zM418 983l-109 -614h398q184 0 295.5 89t111.5 249q0 57 -18.5 107t-55 88t-90 59.5t-123.5 21.5h-409z
" />
    <glyph glyph-name="germandbls" unicode="&#xdf;" horiz-adv-x="1024" 
d="M778 672q59 -10 109 -45q41 -29 75.5 -83.5t34.5 -146.5q0 -88 -28.5 -161.5t-81.5 -126t-133 -81t-181 -28.5h-112l12 72h113q72 0 134 21.5t107 61.5t71 97t26 127q0 121 -65.5 183.5t-176.5 62.5h-72l13 71q66 0 123 18.5t100 55.5t68.5 91t25.5 126
q0 109 -66.5 175.5t-177.5 66.5q-131 0 -212 -80t-107 -227l-162 -922h-72l162 922q33 186 137.5 282t266.5 96q66 0 121 -23.5t96 -64.5t63.5 -95t22.5 -118q0 -106 -37 -169.5t-80 -98.5q-54 -41 -117 -59z" />
    <glyph glyph-name="agrave" unicode="&#xe0;" horiz-adv-x="921" 
d="M684 1073h-55l-119 246h96zM438 61q68 0 125 26t103 70q45 44 74 104q30 60 42 130l13 70h-123q-127 0 -217 -16q-90 -15 -147 -44q-56 -29 -82 -69q-26 -41 -25 -92q0 -80 58 -129q58 -50 179 -50zM598 911q61 0 115 -20q53 -20 94 -56t64 -85q24 -49 24 -109
q0 -31 -6 -57l-103 -584h-47v133h-10q-33 -41 -76 -72q-39 -29 -94 -50q-55 -22 -133 -21q-143 0 -220 66q-77 67 -77 171q0 70 31 127t97 97q67 39 172 60q105 22 255 21h123l10 52q4 14 4 25v24q0 92 -67 149q-68 57 -168 58q-104 0 -176 -49t-101 -136h-73q12 53 44 101
q32 47 78 82q47 35 108 54q60 19 132 19z" />
    <glyph glyph-name="aacute" unicode="&#xe1;" horiz-adv-x="921" 
d="M770 1319h107l-209 -246h-66zM438 61q68 0 125 26t103 70q45 44 74 104q30 60 42 130l13 70h-123q-127 0 -217 -16q-90 -15 -147 -44q-56 -29 -82 -69q-26 -41 -25 -92q0 -80 58 -129q58 -50 179 -50zM598 911q61 0 115 -20q53 -20 94 -56t64 -85q24 -49 24 -109
q0 -31 -6 -57l-103 -584h-47v133h-10q-33 -41 -76 -72q-39 -29 -94 -50q-55 -22 -133 -21q-143 0 -220 66q-77 67 -77 171q0 70 31 127t97 97q67 39 172 60q105 22 255 21h123l10 52q4 14 4 25v24q0 92 -67 149q-68 57 -168 58q-104 0 -176 -49t-101 -136h-73q12 53 44 101
q32 47 78 82q47 35 108 54q60 19 132 19z" />
    <glyph glyph-name="acircumflex" unicode="&#xe2;" horiz-adv-x="921" 
d="M737 1300l154 -225h-78l-123 174l-184 -174h-86l235 225h82zM438 61q68 0 125 26t103 70q45 44 74 104q30 60 42 130l13 70h-123q-127 0 -217 -16q-90 -15 -147 -44q-56 -29 -82 -69q-26 -41 -25 -92q0 -80 58 -129q58 -50 179 -50zM598 911q61 0 115 -20q53 -20 94 -56
t64 -85q24 -49 24 -109q0 -31 -6 -57l-103 -584h-47v133h-10q-33 -41 -76 -72q-39 -29 -94 -50q-55 -22 -133 -21q-143 0 -220 66q-77 67 -77 171q0 70 31 127t97 97q67 39 172 60q105 22 255 21h123l10 52q4 14 4 25v24q0 92 -67 149q-68 57 -168 58q-104 0 -176 -49
t-101 -136h-73q12 53 44 101q32 47 78 82q47 35 108 54q60 19 132 19z" />
    <glyph glyph-name="atilde" unicode="&#xe3;" horiz-adv-x="917" 
d="M543 1188q-39 0 -68 -32t-35 -81h-61q10 86 59 135t111 50q43 0 73 -21q30 -20 56 -46q27 -26 52 -46q26 -20 58 -21q39 0 68 32t35 81h61q-10 -86 -59 -135t-111 -49q-43 0 -72 20q-30 20 -57 46t-52 46q-25 21 -58 21zM438 61q68 0 125 26t103 70q45 44 74 104
q30 60 42 130l13 70h-123q-127 0 -217 -16q-90 -15 -147 -44q-56 -29 -82 -69q-26 -41 -25 -92q0 -80 58 -129q58 -50 179 -50zM598 911q61 0 115 -20q53 -20 94 -56t64 -85q24 -49 24 -109q0 -31 -6 -57l-103 -584h-47v133h-10q-33 -41 -76 -72q-39 -29 -94 -50
q-55 -22 -133 -21q-143 0 -220 66q-77 67 -77 171q0 70 31 127t97 97q67 39 172 60q105 22 255 21h123l10 52q4 14 4 25v24q0 92 -67 149q-68 57 -168 58q-104 0 -176 -49t-101 -136h-73q12 53 44 101q32 47 78 82q47 35 108 54q60 19 132 19z" />
    <glyph glyph-name="adieresis" unicode="&#xe4;" horiz-adv-x="921" 
d="M444 1178q0 25 19 43q18 18 47 18q25 0 41 -18t16 -43t-18 -43t-47 -19q-25 0 -41 19q-17 18 -17 43zM741 1178q0 25 19 43q18 18 47 18q25 0 41 -18t16 -43t-18 -43t-47 -19q-25 0 -41 19q-17 18 -17 43zM438 61q68 0 125 26t103 70q45 44 74 104q30 60 42 130l13 70
h-123q-127 0 -217 -16q-90 -15 -147 -44q-56 -29 -82 -69q-26 -41 -25 -92q0 -80 58 -129q58 -50 179 -50zM598 911q61 0 115 -20q53 -20 94 -56t64 -85q24 -49 24 -109q0 -31 -6 -57l-103 -584h-47v133h-10q-33 -41 -76 -72q-39 -29 -94 -50q-55 -22 -133 -21
q-143 0 -220 66q-77 67 -77 171q0 70 31 127t97 97q67 39 172 60q105 22 255 21h123l10 52q4 14 4 25v24q0 92 -67 149q-68 57 -168 58q-104 0 -176 -49t-101 -136h-73q12 53 44 101q32 47 78 82q47 35 108 54q60 19 132 19z" />
    <glyph glyph-name="aring" unicode="&#xe5;" horiz-adv-x="921" 
d="M846 1229q0 -84 -53 -134t-131 -51q-59 0 -104 42q-44 42 -44 102q0 84 53 134t131 50q59 0 104 -42q44 -42 44 -101zM672 1106q51 0 82 33t30 75q0 43 -25 70q-26 27 -71 27q-51 0 -82 -33t-31 -76t26 -69q26 -27 71 -27zM438 61q68 0 125 26t103 70q45 44 74 104
q30 60 42 130l13 70h-123q-127 0 -217 -16q-90 -15 -147 -44q-56 -29 -82 -69q-26 -41 -25 -92q0 -80 58 -129q58 -50 179 -50zM598 911q61 0 115 -20q53 -20 94 -56t64 -85q24 -49 24 -109q0 -31 -6 -57l-103 -584h-47v133h-10q-33 -41 -76 -72q-39 -29 -94 -50
q-55 -22 -133 -21q-143 0 -220 66q-77 67 -77 171q0 70 31 127t97 97q67 39 172 60q105 22 255 21h123l10 52q4 14 4 25v24q0 92 -67 149q-68 57 -168 58q-104 0 -176 -49t-101 -136h-73q12 53 44 101q32 47 78 82q47 35 108 54q60 19 132 19z" />
    <glyph glyph-name="ae" unicode="&#xe6;" horiz-adv-x="1564" 
d="M598 911q104 0 185 -55t102 -147q39 55 92 100q45 39 110.5 70.5t151.5 31.5q72 0 134.5 -26.5t108.5 -73.5t71.5 -112.5t25.5 -141.5q0 -29 -4 -52.5t-8 -39.5q-6 -20 -11 -35h-692v-27q0 -78 20.5 -140t57.5 -107t88 -70t115 -25q49 0 92 14.5t78 38t61.5 52.5t44.5 59
h84q-27 -43 -62.5 -85t-81.5 -75.5t-103.5 -54t-124.5 -20.5q-96 0 -159 40t-97 89q-43 55 -64 129q-37 -74 -90 -129q-47 -49 -120 -89t-177 -40q-143 0 -220 66.5t-77 170.5q0 66 25.5 117t85 86t154.5 53.5t235 18.5h174l14 82q4 14 4 25.5v23.5q0 92 -67.5 149.5
t-167.5 57.5q-104 0 -176 -49.5t-101 -135.5h-73q12 53 43.5 100.5t79 82t107.5 54t132 19.5zM438 61q68 0 125.5 26t102.5 70t74.5 104.5t41.5 129.5l9 39h-175q-117 0 -196.5 -12t-128.5 -37t-69.5 -60.5t-20.5 -80.5q0 -80 58 -129.5t179 -49.5zM1235 840
q-61 0 -120.5 -26t-106.5 -72t-82 -107.5t-47 -132.5h620q0 2 2 10q0 4 1 13.5t1 19.5q0 133 -73.5 214t-194.5 81z" />
    <glyph glyph-name="ccedilla" unicode="&#xe7;" 
d="M223 403q0 -160 88 -251t228 -91q121 0 209 71t137 175h71q-29 -70 -71.5 -127t-96 -99t-116 -65.5t-127.5 -25.5l-49 -76q49 -4 76.5 -37t27.5 -74q0 -66 -48 -103.5t-132 -37.5q-37 0 -58 6q-12 4 -20 8l12 60q10 -4 21 -6q18 -6 55 -6q47 0 71.5 21.5t24.5 49.5
q0 33 -19.5 52.5t-60.5 19.5q-20 0 -33.5 -3t-17.5 -5l86 135q-72 8 -132 41t-105 85t-69.5 121.5t-24.5 155.5q0 111 40.5 204t107.5 163t152 108.5t175 38.5q141 0 242.5 -85t123.5 -232h-71q-20 117 -99.5 181.5t-199.5 64.5q-84 0 -157 -38t-126 -100.5t-84 -140.5
t-31 -158z" />
    <glyph glyph-name="egrave" unicode="&#xe8;" horiz-adv-x="983" 
d="M694 1073h-55l-119 246h96zM920 225q-27 -43 -65 -85t-89 -75q-51 -34 -113 -55q-61 -20 -133 -20q-78 0 -145 30q-68 31 -117 85t-78 129t-28 163q0 111 41 204t107 163q67 70 152 108q85 39 175 39q76 0 143 -26q68 -27 117 -74t78 -113t28 -141q0 -33 -4 -57
q-4 -25 -8 -43q-6 -23 -10 -37h-746v-17q0 -78 23 -140t62 -107q40 -45 98 -70q57 -25 124 -25q53 0 101 15q47 14 85 38t67 53q30 30 51 58h84zM623 840q-68 0 -131 -28t-116 -75q-52 -47 -89 -110t-51 -135h677q0 8 2 16q0 8 1 17t2 20q0 66 -23 120t-61 93q-39 39 -94 60
q-54 22 -117 22z" />
    <glyph glyph-name="eacute" unicode="&#xe9;" horiz-adv-x="983" 
d="M797 1319h106l-209 -246h-65zM920 225q-27 -43 -65 -85t-89 -75q-51 -34 -113 -55q-61 -20 -133 -20q-78 0 -145 30q-68 31 -117 85t-78 129t-28 163q0 111 41 204t107 163q67 70 152 108q85 39 175 39q76 0 143 -26q68 -27 117 -74t78 -113t28 -141q0 -33 -4 -57
q-4 -25 -8 -43q-6 -23 -10 -37h-746v-17q0 -78 23 -140t62 -107q40 -45 98 -70q57 -25 124 -25q53 0 101 15q47 14 85 38t67 53q30 30 51 58h84zM623 840q-68 0 -131 -28t-116 -75q-52 -47 -89 -110t-51 -135h677q0 8 2 16q0 8 1 17t2 20q0 66 -23 120t-61 93q-39 39 -94 60
q-54 22 -117 22z" />
    <glyph glyph-name="ecircumflex" unicode="&#xea;" horiz-adv-x="983" 
d="M743 1290l154 -225h-78l-123 174l-184 -174h-86l236 225h81zM920 225q-27 -43 -65 -85t-89 -75q-51 -34 -113 -55q-61 -20 -133 -20q-78 0 -145 30q-68 31 -117 85t-78 129t-28 163q0 111 41 204t107 163q67 70 152 108q85 39 175 39q76 0 143 -26q68 -27 117 -74
t78 -113t28 -141q0 -33 -4 -57q-4 -25 -8 -43q-6 -23 -10 -37h-746v-17q0 -78 23 -140t62 -107q40 -45 98 -70q57 -25 124 -25q53 0 101 15q47 14 85 38t67 53q30 30 51 58h84zM623 840q-68 0 -131 -28t-116 -75q-52 -47 -89 -110t-51 -135h677q0 8 2 16q0 8 1 17t2 20
q0 66 -23 120t-61 93q-39 39 -94 60q-54 22 -117 22z" />
    <glyph glyph-name="edieresis" unicode="&#xeb;" horiz-adv-x="983" 
d="M465 1178q0 25 18 43t47 18q25 0 41 -18t17 -43q0 -25 -19 -43q-18 -18 -47 -19q-25 0 -41 19q-16 18 -16 43zM762 1178q0 25 18 43t47 18q25 0 41 -18t17 -43q0 -25 -19 -43q-18 -18 -47 -19q-25 0 -41 19q-16 18 -16 43zM920 225q-27 -43 -65 -85t-89 -75
q-51 -34 -113 -55q-61 -20 -133 -20q-78 0 -145 30q-68 31 -117 85t-78 129t-28 163q0 111 41 204t107 163q67 70 152 108q85 39 175 39q76 0 143 -26q68 -27 117 -74t78 -113t28 -141q0 -33 -4 -57q-4 -25 -8 -43q-6 -23 -10 -37h-746v-17q0 -78 23 -140t62 -107
q40 -45 98 -70q57 -25 124 -25q53 0 101 15q47 14 85 38t67 53q30 30 51 58h84zM623 840q-68 0 -131 -28t-116 -75q-52 -47 -89 -110t-51 -135h677q0 8 2 16q0 8 1 17t2 20q0 66 -23 120t-61 93q-39 39 -94 60q-54 22 -117 22z" />
    <glyph glyph-name="igrave" unicode="&#xec;" horiz-adv-x="358" 
d="M215 0h-72l158 901h72zM393 1065h-55l-119 246h96z" />
    <glyph glyph-name="iacute" unicode="&#xed;" horiz-adv-x="358" 
d="M215 0h-72l158 901h72zM508 1311h106l-208 -246h-66z" />
    <glyph glyph-name="icircumflex" unicode="&#xee;" horiz-adv-x="358" 
d="M444 1300l154 -225h-78l-123 174l-184 -174h-86l235 225h82zM215 0h-72l158 901h72z" />
    <glyph glyph-name="idieresis" unicode="&#xef;" horiz-adv-x="358" 
d="M215 0h-72l158 901h72zM168 1178q0 25 18 43t47 18q25 0 41 -18t17 -43q0 -25 -19 -43q-18 -18 -47 -19q-25 0 -41 19q-16 18 -16 43zM465 1178q0 25 18 43t47 18q25 0 41 -18t17 -43q0 -25 -19 -43q-18 -18 -47 -19q-25 0 -41 19q-16 18 -16 43z" />
    <glyph glyph-name="eth" unicode="&#xf0;" horiz-adv-x="1003" 
d="M555 1065l195 127q-55 47 -122 79t-141 54l33 57q74 -23 148.5 -59.5t140.5 -91.5l199 131l34 -51l-186 -123q74 -78 120 -189.5t46 -269.5q0 -178 -39 -315.5t-107.5 -231.5t-161.5 -143t-204 -49q-74 0 -139.5 28.5t-114.5 78.5t-77.5 118t-28.5 145q0 117 37.5 211.5
t102 161t150.5 102t183 35.5q86 0 146 -30.5t97 -67.5q43 -43 72 -96h10v16q0 8 1 15.5t1 17.5q0 139 -42 243.5t-113 180.5l-205 -135zM522 61q82 0 154 37t124 98.5t81.5 141.5t29.5 164q0 66 -24.5 121t-65.5 94t-95 60.5t-116 21.5q-80 0 -150.5 -31t-123.5 -86
t-84 -134t-31 -173q0 -66 21.5 -123t60.5 -99t95 -67t124 -25z" />
    <glyph glyph-name="ntilde" unicode="&#xf1;" horiz-adv-x="1013" 
d="M580 1208q-39 0 -68 -31q-29 -32 -35 -81h-61q10 86 59 135t111 49q43 0 72 -20q30 -20 57 -47q27 -26 52 -46q26 -20 58 -20q39 0 68 32t35 81h61q-10 -86 -59 -136q-49 -49 -111 -49q-43 0 -73 21q-30 20 -56 46q-27 26 -52 46t-58 20zM662 911q139 0 221 -91t82 -242
q0 -25 -4 -51t-9 -52l-82 -475h-71l82 475q4 25 7 48q3 24 3 46q0 123 -65 197t-187 74q-61 0 -118 -27q-56 -27 -101 -74t-77 -112q-32 -66 -44 -142l-84 -485h-72l158 901h51l-4 -133h10q29 39 74 72q37 27 94 49q58 22 136 22z" />
    <glyph glyph-name="ograve" unicode="&#xf2;" horiz-adv-x="1003" 
d="M674 1065h-56l-118 246h96zM535 -10q-80 0 -151 28q-71 29 -123 82t-82 129t-29 168q0 111 40 204q41 93 108 163t152 108q85 39 175 39q80 0 150 -28q71 -29 123 -82t82 -129t30 -168q0 -111 -41 -204t-108 -163t-151 -108q-85 -39 -175 -39zM223 403q0 -160 88 -250
q88 -91 228 -92q84 0 156 38q73 38 126 101q53 62 84 140t31 158q0 160 -88 251t-227 91q-84 0 -157 -38t-126 -101q-53 -62 -84 -140t-31 -158z" />
    <glyph glyph-name="oacute" unicode="&#xf3;" horiz-adv-x="1003" 
d="M791 1311h106l-209 -246h-65zM535 -10q-80 0 -151 28q-71 29 -123 82t-82 129t-29 168q0 111 40 204q41 93 108 163t152 108q85 39 175 39q80 0 150 -28q71 -29 123 -82t82 -129t30 -168q0 -111 -41 -204t-108 -163t-151 -108q-85 -39 -175 -39zM223 403q0 -160 88 -250
q88 -91 228 -92q84 0 156 38q73 38 126 101q53 62 84 140t31 158q0 160 -88 251t-227 91q-84 0 -157 -38t-126 -101q-53 -62 -84 -140t-31 -158z" />
    <glyph glyph-name="ocircumflex" unicode="&#xf4;" horiz-adv-x="1003" 
d="M745 1300l154 -225h-78l-123 174l-184 -174h-86l236 225h81zM535 -10q-80 0 -151 28q-71 29 -123 82t-82 129t-29 168q0 111 40 204q41 93 108 163t152 108q85 39 175 39q80 0 150 -28q71 -29 123 -82t82 -129t30 -168q0 -111 -41 -204t-108 -163t-151 -108
q-85 -39 -175 -39zM223 403q0 -160 88 -250q88 -91 228 -92q84 0 156 38q73 38 126 101q53 62 84 140t31 158q0 160 -88 251t-227 91q-84 0 -157 -38t-126 -101q-53 -62 -84 -140t-31 -158z" />
    <glyph glyph-name="otilde" unicode="&#xf5;" horiz-adv-x="1003" 
d="M573 1198q-39 0 -67 -32q-29 -32 -35 -81h-61q10 86 59 136q49 49 111 49q43 0 72 -21q30 -20 57 -46t52 -46q26 -20 58 -20q39 0 68 31q29 32 35 81h61q-10 -86 -59 -135t-111 -49q-43 0 -73 20t-56 47q-27 26 -52 46q-26 20 -59 20zM535 -10q-80 0 -151 28
q-71 29 -123 82t-82 129t-29 168q0 111 40 204q41 93 108 163t152 108q85 39 175 39q80 0 150 -28q71 -29 123 -82t82 -129t30 -168q0 -111 -41 -204t-108 -163t-151 -108q-85 -39 -175 -39zM223 403q0 -160 88 -250q88 -91 228 -92q84 0 156 38q73 38 126 101q53 62 84 140
t31 158q0 160 -88 251t-227 91q-84 0 -157 -38t-126 -101q-53 -62 -84 -140t-31 -158z" />
    <glyph glyph-name="odieresis" unicode="&#xf6;" horiz-adv-x="1003" 
d="M471 1178q0 25 18 43t48 18q25 0 41 -18t16 -43t-19 -43q-18 -18 -47 -19q-25 0 -41 19q-16 18 -16 43zM768 1178q0 25 18 43t48 18q25 0 40 -18q16 -18 17 -43q0 -25 -19 -43q-18 -18 -47 -19q-25 0 -41 19q-16 18 -16 43zM535 -10q-80 0 -151 28q-71 29 -123 82
t-82 129t-29 168q0 111 40 204q41 93 108 163t152 108q85 39 175 39q80 0 150 -28q71 -29 123 -82t82 -129t30 -168q0 -111 -41 -204t-108 -163t-151 -108q-85 -39 -175 -39zM223 403q0 -160 88 -250q88 -91 228 -92q84 0 156 38q73 38 126 101q53 62 84 140t31 158
q0 160 -88 251t-227 91q-84 0 -157 -38t-126 -101q-53 -62 -84 -140t-31 -158z" />
    <glyph glyph-name="divide" unicode="&#xf7;" horiz-adv-x="880" 
d="M160 563h758l-13 -71h-758zM475 246q25 0 41 -17.5t16 -42.5q0 -29 -18 -46t-47 -17q-25 0 -41 17.5t-16 41.5q0 29 18 46.5t47 17.5zM596 932q25 0 41 -17.5t16 -42.5q0 -29 -18.5 -46t-46.5 -17q-25 0 -41.5 17.5t-16.5 41.5q0 29 18.5 46.5t47.5 17.5z" />
    <glyph glyph-name="oslash" unicode="&#xf8;" horiz-adv-x="1003" 
d="M55 72l144 114q-14 23 -25 56q-10 29 -17 67.5t-7 87.5q0 111 40.5 204t107.5 163t152 108.5t175 38.5q74 0 130 -21.5t93 -47.5q43 -31 74 -70l139 113l43 -56l-143 -114q14 -25 24 -58q10 -29 17.5 -66.5t7.5 -86.5q0 -111 -41 -204t-107.5 -162.5t-151.5 -108.5
t-175 -39q-76 0 -131.5 21.5t-92.5 47.5q-43 31 -73 70l-140 -113zM223 403q0 -41 5 -71.5t12 -52.5q8 -25 18 -46l608 494q-25 31 -61 55q-31 23 -77 40.5t-107 17.5q-84 0 -157 -38t-126 -100.5t-84 -140.5t-31 -158zM936 498q0 41 -6 71.5t-12 53.5q-8 25 -17 45
l-608 -494q25 -33 61 -57q31 -23 76 -39.5t109 -16.5q84 0 156.5 38t125.5 100.5t84 140.5t31 158z" />
    <glyph glyph-name="ugrave" unicode="&#xf9;" horiz-adv-x="1013" 
d="M715 1075h-56l-118 246h96zM510 -10q-139 0 -221 91t-82 243q0 25 4 50l8 52l82 475h72l-82 -475q-4 -25 -7 -48q-3 -24 -3 -46q0 -123 64 -197q65 -74 187 -74q61 0 118 27q56 27 102 74q45 47 76 111q32 65 44 143l84 485h72l-158 -901h-51l4 133h-10q-33 -41 -76 -72
q-39 -29 -94 -50t-133 -21z" />
    <glyph glyph-name="uacute" unicode="&#xfa;" horiz-adv-x="1013" 
d="M811 1321h107l-209 -246h-66zM510 -10q-139 0 -221 91t-82 243q0 25 4 50l8 52l82 475h72l-82 -475q-4 -25 -7 -48q-3 -24 -3 -46q0 -123 64 -197q65 -74 187 -74q61 0 118 27q56 27 102 74q45 47 76 111q32 65 44 143l84 485h72l-158 -901h-51l4 133h-10
q-33 -41 -76 -72q-39 -29 -94 -50t-133 -21z" />
    <glyph glyph-name="ucircumflex" unicode="&#xfb;" horiz-adv-x="1013" 
d="M762 1300l153 -225h-77l-123 174l-185 -174h-86l236 225h82zM510 -10q-139 0 -221 91t-82 243q0 25 4 50l8 52l82 475h72l-82 -475q-4 -25 -7 -48q-3 -24 -3 -46q0 -123 64 -197q65 -74 187 -74q61 0 118 27q56 27 102 74q45 47 76 111q32 65 44 143l84 485h72l-158 -901
h-51l4 133h-10q-33 -41 -76 -72q-39 -29 -94 -50t-133 -21z" />
    <glyph glyph-name="udieresis" unicode="&#xfc;" horiz-adv-x="1013" 
d="M485 1178q0 25 19 43q18 18 47 18q25 0 41 -18t16 -43t-18 -43t-47 -19q-25 0 -41 19q-17 18 -17 43zM782 1178q0 25 19 43q18 18 47 18q25 0 41 -18t16 -43t-18 -43t-47 -19q-25 0 -41 19q-17 18 -17 43zM510 -10q-139 0 -221 91t-82 243q0 25 4 50l8 52l82 475h72
l-82 -475q-4 -25 -7 -48q-3 -24 -3 -46q0 -123 64 -197q65 -74 187 -74q61 0 118 27q56 27 102 74q45 47 76 111q32 65 44 143l84 485h72l-158 -901h-51l4 133h-10q-33 -41 -76 -72q-39 -29 -94 -50t-133 -21z" />
    <glyph glyph-name="yacute" unicode="&#xfd;" horiz-adv-x="870" 
d="M729 1319h107l-209 -246h-66zM188 901h72l178 -768h11l448 768h80l-600 -1024q-35 -59 -66 -100t-61 -67q-31 -26 -67 -37t-81 -11q-16 0 -26 1t-19 3q-8 2 -14 6l12 68q8 -2 19 -4q10 -2 20 -2h23q61 0 101 34t83 109l90 158z" />
    <glyph glyph-name="thorn" unicode="&#xfe;" horiz-adv-x="1064" 
d="M1081 504q0 -111 -41 -204t-107.5 -162.5t-151.5 -108.5t-175 -39q-100 0 -164.5 33.5t-105.5 74.5q-47 49 -74 111h-10l-96 -537h-72l287 1618h71l-100 -561h10q35 51 86 90q43 35 107.5 63.5t150.5 28.5q80 0 151 -28.5t123 -81.5t81.5 -129t29.5 -168zM692 840
q-84 0 -156.5 -39t-126 -102.5t-84 -142.5t-30.5 -159q0 -160 87 -248t228 -88q84 0 157 38t126 100.5t84 140.5t31 158q0 160 -88.5 251t-227.5 91z" />
    <glyph glyph-name="ydieresis" unicode="&#xff;" horiz-adv-x="870" 
d="M408 1178q0 25 18 43t47 18q25 0 41 -18t16 -43t-18 -43t-47 -19q-25 0 -41 19q-16 18 -16 43zM705 1178q0 25 18 43t47 18q25 0 41 -18t16 -43t-18 -43t-47 -19q-25 0 -41 19q-16 18 -16 43zM188 901h72l178 -768h11l448 768h80l-600 -1024q-35 -59 -66 -100t-61 -67
q-31 -26 -67 -37t-81 -11q-16 0 -26 1t-19 3q-8 2 -14 6l12 68q8 -2 19 -4q10 -2 20 -2h23q61 0 101 34t83 109l90 158z" />
    <glyph glyph-name="Amacron" unicode="&#x100;" horiz-adv-x="1097" 
d="M1032 1485h-471l14 71h472zM774 1161l-405 -731h553zM819 1290l264 -1290h-73l-74 358h-608l-199 -358h-82l719 1290h53z" />
    <glyph glyph-name="amacron" unicode="&#x101;" horiz-adv-x="921" 
d="M889 1137h-471l14 71h471zM438 61q68 0 125 26t103 70q45 44 74 104q30 60 42 130l13 70h-123q-127 0 -217 -16q-90 -15 -147 -44q-56 -29 -82 -69q-26 -41 -25 -92q0 -80 58 -129q58 -50 179 -50zM598 911q61 0 115 -20q53 -20 94 -56t64 -85q24 -49 24 -109
q0 -31 -6 -57l-103 -584h-47v133h-10q-33 -41 -76 -72q-39 -29 -94 -50q-55 -22 -133 -21q-143 0 -220 66q-77 67 -77 171q0 70 31 127t97 97q67 39 172 60q105 22 255 21h123l10 52q4 14 4 25v24q0 92 -67 149q-68 57 -168 58q-104 0 -176 -49t-101 -136h-73q12 53 44 101
q32 47 78 82q47 35 108 54q60 19 132 19z" />
    <glyph glyph-name="Abreve" unicode="&#x102;" horiz-adv-x="1097" 
d="M805 1485q66 0 118 41t62 102h64q-12 -90 -82 -147t-170 -58q-43 0 -81 15q-38 14 -66 40t-43 60q-15 35 -15 74v16h63q0 -66 39 -104q39 -39 111 -39zM774 1161l-405 -731h553zM819 1290l264 -1290h-73l-74 358h-608l-199 -358h-82l719 1290h53z" />
    <glyph glyph-name="abreve" unicode="&#x103;" horiz-adv-x="921" 
d="M657 1126q66 0 118 41t63 103h63q-12 -90 -82 -148q-70 -57 -170 -57q-43 0 -81 14t-65 40q-28 26 -43 61t-16 73v17h64q0 -66 39 -105q38 -39 110 -39zM438 61q68 0 125 26t103 70q45 44 74 104q30 60 42 130l13 70h-123q-127 0 -217 -16q-90 -15 -147 -44
q-56 -29 -82 -69q-26 -41 -25 -92q0 -80 58 -129q58 -50 179 -50zM598 911q61 0 115 -20q53 -20 94 -56t64 -85q24 -49 24 -109q0 -31 -6 -57l-103 -584h-47v133h-10q-33 -41 -76 -72q-39 -29 -94 -50q-55 -22 -133 -21q-143 0 -220 66q-77 67 -77 171q0 70 31 127t97 97
q67 39 172 60q105 22 255 21h123l10 52q4 14 4 25v24q0 92 -67 149q-68 57 -168 58q-104 0 -176 -49t-101 -136h-73q12 53 44 101q32 47 78 82q47 35 108 54q60 19 132 19z" />
    <glyph glyph-name="Aogonek" unicode="&#x104;" horiz-adv-x="1101" 
d="M819 1290l264 -1290q-35 -25 -61 -53q-23 -25 -41 -58.5t-18 -70.5q0 -84 98 -84q27 0 37 2q8 2 14 4l-10 -59l-15 -5q-20 -4 -38 -4q-74 0 -117 38t-43 93q0 47 18.5 82t40.5 62q27 29 62 53l-74 358h-608l-199 -358h-82l719 1290h53zM774 1161l-405 -731h553z" />
    <glyph glyph-name="aogonek" unicode="&#x105;" horiz-adv-x="921" 
d="M598 911q61 0 114.5 -20.5t94.5 -56t64.5 -85t23.5 -108.5q0 -31 -6 -57l-103 -584q-35 -25 -61 -53q-23 -25 -41 -58.5t-18 -70.5q0 -84 98 -84q27 0 37 2q8 2 14 4l-10 -59q-6 -2 -14 -5q-20 -4 -39 -4q-74 0 -117 38t-43 93q0 43 20.5 81t47 68t50 47t29.5 21v113h-10
q-33 -41 -76 -72q-39 -29 -94 -50t-133 -21q-143 0 -220 66.5t-77 170.5q0 70 30.5 127.5t97.5 96t172.5 60t254.5 21.5h123l10 52q4 14 4 25.5v23.5q0 92 -67.5 149.5t-167.5 57.5q-104 0 -176 -49.5t-101 -135.5h-73q12 53 43.5 100.5t79 82t107.5 54t132 19.5zM438 61
q68 0 125.5 26t102.5 70t74.5 104.5t41.5 129.5l13 70h-123q-127 0 -217 -15.5t-146.5 -44t-82 -69.5t-25.5 -92q0 -80 58 -129.5t179 -49.5z" />
    <glyph glyph-name="Cacute" unicode="&#x106;" horiz-adv-x="1300" 
d="M1016 1690h106l-209 -246h-65zM856 1229q-111 0 -215 -50t-185 -139q-81 -88 -130 -209t-50 -260q0 -117 35 -211t96 -160q60 -67 141 -103t175 -36q74 0 147 26q74 26 140 74t119 117q54 69 92 152h77q-41 -100 -102 -181t-138 -138t-164 -89t-179 -32q-104 0 -198 41
q-93 41 -163 116q-70 76 -109 182q-40 105 -40 234q0 160 54 295t145 234q91 98 211 153t249 55q86 0 166 -30q80 -31 144 -88q63 -57 107 -140q44 -82 60 -182h-77q-37 178 -148 274q-110 95 -260 95z" />
    <glyph glyph-name="cacute" unicode="&#x107;" 
d="M791 1319h106l-209 -246h-65zM223 403q0 -160 88 -250q88 -91 228 -92q121 0 209 71t137 175h71q-29 -72 -72 -130q-44 -58 -100 -100q-55 -42 -118 -65t-131 -22q-80 0 -151 28q-71 29 -123 82t-82 129t-29 168q0 111 40 204q41 93 108 163t152 108q85 39 175 39
q141 0 242 -85t124 -232h-71q-20 117 -100 181q-79 65 -199 65q-84 0 -157 -38t-126 -101q-53 -62 -84 -140t-31 -158z" />
    <glyph glyph-name="Ccircumflex" unicode="&#x108;" horiz-adv-x="1300" 
d="M981 1669l154 -225h-78l-123 174l-184 -174h-86l235 225h82zM856 1229q-111 0 -215 -50t-185 -139q-81 -88 -130 -209t-50 -260q0 -117 35 -211t96 -160q60 -67 141 -103t175 -36q74 0 147 26q74 26 140 74t119 117q54 69 92 152h77q-41 -100 -102 -181t-138 -138
t-164 -89t-179 -32q-104 0 -198 41q-93 41 -163 116q-70 76 -109 182q-40 105 -40 234q0 160 54 295t145 234q91 98 211 153t249 55q86 0 166 -30q80 -31 144 -88q63 -57 107 -140q44 -82 60 -182h-77q-37 178 -148 274q-110 95 -260 95z" />
    <glyph glyph-name="ccircumflex" unicode="&#x109;" 
d="M745 1300l154 -225h-78l-123 174l-184 -174h-86l236 225h81zM223 403q0 -160 88 -250q88 -91 228 -92q121 0 209 71t137 175h71q-29 -72 -72 -130q-44 -58 -100 -100q-55 -42 -118 -65t-131 -22q-80 0 -151 28q-71 29 -123 82t-82 129t-29 168q0 111 40 204
q41 93 108 163t152 108q85 39 175 39q141 0 242 -85t124 -232h-71q-20 117 -100 181q-79 65 -199 65q-84 0 -157 -38t-126 -101q-53 -62 -84 -140t-31 -158z" />
    <glyph glyph-name="Ccaron" unicode="&#x10c;" horiz-adv-x="1300" 
d="M838 1444l-154 225h78l123 -174l184 174h86l-235 -225h-82zM856 1229q-111 0 -215 -50t-185 -139q-81 -88 -130 -209t-50 -260q0 -117 35 -211t96 -160q60 -67 141 -103t175 -36q74 0 147 26q74 26 140 74t119 117q54 69 92 152h77q-41 -100 -102 -181t-138 -138
t-164 -89t-179 -32q-104 0 -198 41q-93 41 -163 116q-70 76 -109 182q-40 105 -40 234q0 160 54 295t145 234q91 98 211 153t249 55q86 0 166 -30q80 -31 144 -88q63 -57 107 -140q44 -82 60 -182h-77q-37 178 -148 274q-110 95 -260 95z" />
    <glyph glyph-name="ccaron" unicode="&#x10d;" 
d="M623 1075l-154 225h78l123 -174l184 174h86l-235 -225h-82zM223 403q0 -160 88 -250q88 -91 228 -92q121 0 209 71t137 175h71q-29 -72 -72 -130q-44 -58 -100 -100q-55 -42 -118 -65t-131 -22q-80 0 -151 28q-71 29 -123 82t-82 129t-29 168q0 111 40 204q41 93 108 163
t152 108q85 39 175 39q141 0 242 -85t124 -232h-71q-20 117 -100 181q-79 65 -199 65q-84 0 -157 -38t-126 -101q-53 -62 -84 -140t-31 -158z" />
    <glyph glyph-name="Dcaron" unicode="&#x10e;" horiz-adv-x="1187" 
d="M756 1444l-154 225h78l123 -174l184 174h86l-235 -225h-82zM473 72q141 0 262 49t210 135t140 205t52 258q0 106 -31 197t-90 159t-148 106q-88 38 -204 38h-205l-201 -1147h215zM1208 727q0 -156 -54 -289t-154 -230q-99 -97 -236 -153q-137 -55 -303 -55h-287l227 1290
h277q123 0 221 -42t167 -118t105 -178q37 -102 37 -225z" />
    <glyph glyph-name="dcaron" unicode="&#x10f;" horiz-adv-x="1136" 
d="M1354 1290h96l-158 -246h-55zM143 397q0 111 41 204t107.5 163t151.5 108.5t175 38.5q98 0 164 -34.5t107 -75.5q47 -49 72 -109h10l106 598h72l-227 -1290h-52l11 172h-11q-35 -53 -86 -92q-43 -35 -106.5 -62.5t-149.5 -27.5q-80 0 -150.5 28.5t-122.5 82t-82 129
t-30 167.5zM532 61q84 0 157 39t126 102.5t84 142.5t31 159q0 160 -87 248t-229 88q-84 0 -156.5 -38t-125.5 -100.5t-84 -140.5t-31 -158q0 -160 88 -251t227 -91z" />
    <glyph glyph-name="Dcroat" unicode="&#x110;" horiz-adv-x="1218" 
d="M1239 727q0 -156 -54.5 -289t-153.5 -230t-236.5 -152.5t-302.5 -55.5h-287l106 604h-174l13 72h174l108 614h277q123 0 221 -42t166.5 -117.5t105.5 -178t37 -225.5zM504 72q141 0 262 49t210 135t140 205t51 258q0 106 -30.5 197.5t-90 159t-147.5 105.5t-205 38h-205
l-94 -543h307l-12 -72h-307l-94 -532h215z" />
    <glyph glyph-name="dcroat" unicode="&#x111;" horiz-adv-x="1085" 
d="M143 367q0 102 39 187t102.5 146.5t144.5 95t163 33.5q98 0 162.5 -32.5t103.5 -71.5q45 -45 70 -102h10l72 401h-287l12 72h287l35 194h71l-34 -194h184l-12 -72h-185l-180 -1024h-43v150h-10q-37 -45 -86 -80q-41 -31 -102.5 -55.5t-141.5 -24.5q-74 0 -141.5 25.5
t-119.5 74.5t-83 119t-31 158zM522 61q84 0 153.5 37t120 94.5t78 126t27.5 132.5q0 63 -22.5 119.5t-63.5 98.5t-98.5 65.5t-126.5 23.5q-78 0 -145.5 -33t-118 -87t-80 -124t-29.5 -141q0 -74 24.5 -131.5t66.5 -97.5t97.5 -61.5t116.5 -21.5z" />
    <glyph glyph-name="Emacron" unicode="&#x112;" horiz-adv-x="1054" 
d="M1047 1505h-472l15 72h471zM965 72l-13 -72h-778l227 1290h758l-14 -71h-686l-90 -512h635l-13 -72h-635l-98 -563h707z" />
    <glyph glyph-name="emacron" unicode="&#x113;" horiz-adv-x="983" 
d="M903 1137h-471l14 71h472zM920 225q-27 -43 -65 -85t-89 -75q-51 -34 -113 -55q-61 -20 -133 -20q-78 0 -145 30q-68 31 -117 85t-78 129t-28 163q0 111 41 204t107 163q67 70 152 108q85 39 175 39q76 0 143 -26q68 -27 117 -74t78 -113t28 -141q0 -33 -4 -57
q-4 -25 -8 -43q-6 -23 -10 -37h-746v-17q0 -78 23 -140t62 -107q40 -45 98 -70q57 -25 124 -25q53 0 101 15q47 14 85 38t67 53q30 30 51 58h84zM623 840q-68 0 -131 -28t-116 -75q-52 -47 -89 -110t-51 -135h677q0 8 2 16q0 8 1 17t2 20q0 66 -23 120t-61 93q-39 39 -94 60
q-54 22 -117 22z" />
    <glyph glyph-name="Edotaccent" unicode="&#x116;" horiz-adv-x="1054" 
d="M760 1556q0 25 18 43t47 19q25 0 41 -19q16 -18 17 -43q0 -25 -19 -43q-18 -18 -47 -18q-25 0 -41 18t-16 43zM965 72l-13 -72h-778l227 1290h758l-14 -71h-686l-90 -512h635l-13 -72h-635l-98 -563h707z" />
    <glyph glyph-name="edotaccent" unicode="&#x117;" horiz-adv-x="983" 
d="M621 1178q0 25 18 43t47 18q25 0 41 -18t16 -43t-18 -43t-47 -19q-25 0 -41 19q-16 18 -16 43zM920 225q-27 -43 -65 -85t-89 -75q-51 -34 -113 -55q-61 -20 -133 -20q-78 0 -145 30q-68 31 -117 85t-78 129t-28 163q0 111 41 204t107 163q67 70 152 108q85 39 175 39
q76 0 143 -26q68 -27 117 -74t78 -113t28 -141q0 -33 -4 -57q-4 -25 -8 -43q-6 -23 -10 -37h-746v-17q0 -78 23 -140t62 -107q40 -45 98 -70q57 -25 124 -25q53 0 101 15q47 14 85 38t67 53q30 30 51 58h84zM623 840q-68 0 -131 -28t-116 -75q-52 -47 -89 -110t-51 -135h677
q0 8 2 16q0 8 1 17t2 20q0 66 -23 120t-61 93q-39 39 -94 60q-54 22 -117 22z" />
    <glyph glyph-name="Eogonek" unicode="&#x118;" horiz-adv-x="1054" 
d="M174 0l227 1290h758l-14 -71h-686l-90 -512h635l-13 -72h-635l-98 -563h707l-13 -72q-35 -25 -61 -53q-23 -25 -41.5 -58.5t-18.5 -70.5q0 -84 99 -84q27 0 37 2q8 2 14 4l-10 -59l-15 -5q-20 -4 -38 -4q-74 0 -117 38t-43 93q0 47 18.5 82t40.5 62q27 29 62 53h-705z
" />
    <glyph glyph-name="eogonek" unicode="&#x119;" horiz-adv-x="983" 
d="M920 225q-25 -41 -62 -82t-84 -73.5t-104.5 -54t-124.5 -23.5q-10 -8 -28.5 -24.5t-36 -40t-30 -51.5t-12.5 -58q0 -84 99 -84q27 0 36 2q8 2 15 4l-10 -59l-15 -5q-20 -4 -39 -4q-74 0 -116.5 38t-42.5 93q0 37 13 69t30.5 56.5t36 41t28.5 24.5q-70 8 -128 42t-101 86
t-67.5 122.5t-24.5 152.5q0 111 40.5 204t107.5 163t152 108.5t175 38.5q76 0 143.5 -26.5t116.5 -73.5t77.5 -112.5t28.5 -141.5q0 -33 -4 -57.5t-8 -42.5q-6 -23 -10 -37h-746v-17q0 -78 22.5 -140t62.5 -107t97.5 -70t124.5 -25q53 0 100.5 14.5t85.5 38t67.5 53.5
t50.5 58h84zM623 840q-68 0 -131.5 -28t-115.5 -75t-89 -110.5t-51 -134.5h677q0 8 2 16q0 8 1.5 17.5t1.5 19.5q0 66 -23 120t-61.5 93t-93 60.5t-117.5 21.5z" />
    <glyph glyph-name="Ecaron" unicode="&#x11a;" horiz-adv-x="1054" 
d="M756 1444l-154 225h78l123 -174l184 174h86l-235 -225h-82zM965 72l-13 -72h-778l227 1290h758l-14 -71h-686l-90 -512h635l-13 -72h-635l-98 -563h707z" />
    <glyph glyph-name="ecaron" unicode="&#x11b;" horiz-adv-x="983" 
d="M618 1065l-153 225h78l123 -174l184 174h86l-236 -225h-82zM920 225q-27 -43 -65 -85t-89 -75q-51 -34 -113 -55q-61 -20 -133 -20q-78 0 -145 30q-68 31 -117 85t-78 129t-28 163q0 111 41 204t107 163q67 70 152 108q85 39 175 39q76 0 143 -26q68 -27 117 -74t78 -113
t28 -141q0 -33 -4 -57q-4 -25 -8 -43q-6 -23 -10 -37h-746v-17q0 -78 23 -140t62 -107q40 -45 98 -70q57 -25 124 -25q53 0 101 15q47 14 85 38t67 53q30 30 51 58h84zM623 840q-68 0 -131 -28t-116 -75q-52 -47 -89 -110t-51 -135h677q0 8 2 16q0 8 1 17t2 20q0 66 -23 120
t-61 93q-39 39 -94 60q-54 22 -117 22z" />
    <glyph glyph-name="Gbreve" unicode="&#x11e;" horiz-adv-x="1361" 
d="M903 1495q66 0 118 41t62 102h64q-12 -90 -82 -147t-170 -57q-43 0 -81 14t-65 40q-28 26 -43 60q-15 35 -16 74v16h64q0 -66 39 -104q38 -39 110 -39zM819 614h502l-107 -614h-61l43 281q-78 -125 -200 -208t-285 -83q-102 0 -193 41q-90 41 -159 116q-69 76 -108 182
q-40 105 -40 234q0 160 54 295t146 234q91 98 211 153t248 55q82 0 158 -27q76 -28 137 -80t108 -126q46 -74 68 -166h-73q-45 158 -155 243t-251 85q-111 0 -215 -50t-185 -139q-81 -88 -130 -209t-49 -260q0 -117 34 -211q35 -94 95 -160q59 -67 138 -103t169 -36
q82 0 161 31t147 91q69 60 123 151q54 90 87 209h-430z" />
    <glyph glyph-name="gbreve" unicode="&#x11f;" horiz-adv-x="1024" 
d="M678 1126q66 0 118 41t62 103h64q-12 -90 -82 -148q-70 -57 -170 -57q-43 0 -81 14t-66 40t-43 61t-15 73v17h63q0 -66 39 -105t111 -39zM156 418q0 109 38 198q38 90 100 156t142 102q80 37 164 37q92 0 153 -34q60 -35 97 -76q43 -49 68 -109h10l59 209h51l-153 -870
q-33 -186 -137 -283q-104 -96 -275 -96q-84 0 -148 22q-65 23 -111 61t-72 88t-33 105h75q23 -96 94 -150t207 -54q123 0 211 73q88 74 117 234l29 162h-11q-35 -45 -81 -82q-41 -31 -102 -56q-60 -25 -138 -24q-158 0 -256 99q-98 100 -98 288zM514 102q78 0 146 35
q69 35 120 93t81 134q30 75 30 156q0 68 -22 126t-60 102q-39 43 -93 67q-54 25 -120 25q-80 0 -147 -35q-68 -35 -116 -92t-76 -133t-28 -156q0 -160 75 -241t210 -81z" />
    <glyph glyph-name="uni0122" unicode="&#x122;" horiz-adv-x="1361" 
d="M674 -164q27 0 45 -19t18 -61q0 -43 -21 -81q-22 -38 -48 -66q-31 -33 -70 -60l-18 21q20 18 38 41q16 18 31 45q14 27 23 57q-25 0 -41 18q-16 17 -17 42q0 29 19 46q18 17 41 17zM819 614h502l-107 -614h-61l43 281q-78 -125 -200 -208t-285 -83q-102 0 -193 41
q-90 41 -159 116q-69 76 -108 182q-40 105 -40 234q0 160 54 295t146 234q91 98 211 153t248 55q82 0 158 -27q76 -28 137 -80t108 -126q46 -74 68 -166h-73q-45 158 -155 243t-251 85q-111 0 -215 -50t-185 -139q-81 -88 -130 -209t-49 -260q0 -117 34 -211q35 -94 95 -160
q59 -67 138 -103t169 -36q82 0 161 31t147 91q69 60 123 151q54 90 87 209h-430z" />
    <glyph glyph-name="uni0123" unicode="&#x123;" horiz-adv-x="1024" 
d="M694 1085q-27 0 -45 19.5t-18 60.5q0 43 21.5 80t47.5 66q31 33 70 61l18 -20q-20 -18 -38 -41q-16 -20 -32 -46t-22 -57q25 0 41.5 -17t16.5 -42q0 -29 -18.5 -46.5t-41.5 -17.5zM156 418q0 109 37.5 199t100 155.5t142.5 102t164 36.5q92 0 152.5 -34.5t97.5 -75.5
q43 -49 68 -109h10l59 209h51l-153 -870q-33 -186 -137.5 -282.5t-274.5 -96.5q-84 0 -148.5 22.5t-110.5 60.5t-71.5 88t-33.5 105h75q23 -96 93.5 -150t207.5 -54q123 0 211 73.5t117 233.5l29 162h-11q-35 -45 -81 -82q-41 -31 -101.5 -55.5t-138.5 -24.5
q-158 0 -256 99.5t-98 287.5zM514 102q78 0 146.5 35t119.5 93.5t81 133t30 156.5q0 68 -21.5 126.5t-60.5 101.5t-93 67.5t-120 24.5q-80 0 -147.5 -35t-115.5 -92.5t-76 -133t-28 -155.5q0 -160 75 -241t210 -81z" />
    <glyph glyph-name="Imacron" unicode="&#x12a;" horiz-adv-x="419" 
d="M688 1495h-471l14 72h471zM246 0h-72l227 1290h72z" />
    <glyph glyph-name="imacron" unicode="&#x12b;" horiz-adv-x="358" 
d="M215 0h-72l158 901h72zM606 1137h-471l15 71h471z" />
    <glyph glyph-name="Iogonek" unicode="&#x12e;" horiz-adv-x="419" 
d="M174 0l227 1290h72l-227 -1290q-35 -25 -62 -53q-23 -25 -41 -58.5t-18 -70.5q0 -84 98 -84q27 0 37 2q8 2 14 4l-10 -59q-6 -2 -14 -5q-20 -4 -39 -4q-74 0 -117 38t-43 93q0 47 18.5 82t41.5 62q27 29 61 53h2z" />
    <glyph glyph-name="iogonek" unicode="&#x12f;" horiz-adv-x="358" 
d="M143 0l158 901h72l-158 -901q-35 -25 -61 -53q-23 -25 -41.5 -58.5t-18.5 -70.5q0 -84 99 -84q27 0 36 2q8 2 15 4l-11 -59q-6 -2 -14 -5q-20 -4 -39 -4q-74 0 -117 38t-43 93q0 47 18.5 82t41.5 62q27 29 61 53h2zM332 1188q0 25 18.5 43t46.5 18q25 0 41.5 -18.5
t16.5 -42.5q0 -25 -18.5 -43.5t-47.5 -18.5q-25 0 -41 18.5t-16 43.5z" />
    <glyph glyph-name="Idotaccent" unicode="&#x130;" horiz-adv-x="419" 
d="M416 1556q0 25 18 43t47 19q25 0 41 -19q16 -18 17 -43q0 -25 -19 -43q-18 -18 -47 -18q-25 0 -41 18t-16 43zM246 0h-72l227 1290h72z" />
    <glyph glyph-name="dotlessi" unicode="&#x131;" horiz-adv-x="358" 
d="M215 0h-72l158 901h72z" />
    <glyph glyph-name="ij" unicode="&#x133;" horiz-adv-x="849" 
d="M641 45q-25 -16 -55 -29q-27 -10 -63 -18t-79 -8q-115 0 -185.5 59.5t-70.5 181.5q0 41 9 80l104 590h72l-103 -579q-4 -25 -6 -46.5t-2 -42.5q0 -98 50 -135t149 -37q47 0 82 10.5t61 24.5q29 16 53 37l136 768h71l-172 -983q-23 -131 -93.5 -193.5t-168.5 -62.5
q-41 0 -65 10q-12 4 -21 11l10 61q8 -4 19 -6q10 -2 24.5 -3t36.5 -1q68 0 119 46t68 138zM332 1188q0 25 18.5 43t46.5 18q25 0 41.5 -18.5t16.5 -42.5q0 -25 -18.5 -43.5t-47.5 -18.5q-25 0 -41 18.5t-16 43.5zM803 1188q0 25 18.5 43t46.5 18q25 0 41.5 -18.5t16.5 -42.5
q0 -25 -18.5 -43.5t-47.5 -18.5q-25 0 -41 18.5t-16 43.5z" />
    <glyph glyph-name="uni0136" unicode="&#x136;" horiz-adv-x="966" 
d="M510 -164q27 0 45 -19t18 -61q0 -43 -21 -81q-22 -38 -48 -66q-31 -33 -70 -60l-18 21q20 18 39 41q16 18 30 45t23 57q-25 0 -41 18q-16 17 -16 42q0 29 18 46t41 17zM360 655l-114 -655h-72l227 1290h72l-113 -635l707 635h98l-708 -639l504 -651h-91z" />
    <glyph glyph-name="uni0137" unicode="&#x137;" horiz-adv-x="794" 
d="M438 -164q27 0 45 -19t19 -61q0 -43 -22 -81t-48 -66q-31 -33 -70 -60l-18 21q20 18 39 41q16 18 31 45q14 27 22 57q-25 0 -41 18q-16 17 -16 42q0 29 18 46t41 17zM803 0h-96l-410 471l-82 -471h-72l228 1290h71l-145 -819l526 430h103l-529 -436z" />
    <glyph glyph-name="Lacute" unicode="&#x139;" horiz-adv-x="942" 
d="M592 1690h106l-209 -246h-65zM913 72l-12 -72h-727l227 1290h72l-215 -1218h655z" />
    <glyph glyph-name="lacute" unicode="&#x13a;" horiz-adv-x="358" 
d="M573 1690h107l-209 -246h-65zM215 0h-72l228 1290h71z" />
    <glyph glyph-name="uni013B" unicode="&#x13b;" horiz-adv-x="942" 
d="M530 -164q27 0 45 -19t19 -61q0 -43 -22 -81t-48 -66q-31 -33 -69 -60l-19 21q20 18 39 41q16 18 31 45q14 27 22 57q-25 0 -41 18q-16 17 -16 42q0 29 18 46t41 17zM913 72l-12 -72h-727l227 1290h72l-215 -1218h655z" />
    <glyph glyph-name="uni013C" unicode="&#x13c;" horiz-adv-x="358" 
d="M152 -164q27 0 45 -19t18 -61q0 -43 -21 -81q-22 -38 -49 -66q-31 -33 -69 -60l-19 21q20 18 39 41q16 18 31 45q14 27 23 57q-25 0 -41 18q-16 17 -17 42q0 29 19 46q18 17 41 17zM219 0h-72l228 1290h71z" />
    <glyph glyph-name="Lcaron" unicode="&#x13d;" horiz-adv-x="942" 
d="M719 1290h96l-158 -246h-55zM913 72l-12 -72h-727l227 1290h72l-215 -1218h655z" />
    <glyph glyph-name="lcaron" unicode="&#x13e;" horiz-adv-x="440" 
d="M645 1290h96l-157 -246h-56zM215 0h-72l228 1290h71z" />
    <glyph glyph-name="Lslash" unicode="&#x141;" horiz-adv-x="942" 
d="M115 424l149 92l137 774h72l-129 -725l401 248l-14 -86l-401 -248l-72 -407h655l-12 -72h-727l76 430l-150 -92z" />
    <glyph glyph-name="lslash" unicode="&#x142;" horiz-adv-x="460" 
d="M387 690l193 113l-15 -86l-192 -113l-107 -604h-71l96 555l-195 -115l15 86l194 115l117 649h72z" />
    <glyph glyph-name="Nacute" unicode="&#x143;" horiz-adv-x="1228" 
d="M985 1690h107l-209 -246h-66zM1282 1290l-227 -1290h-62l-544 1153l-203 -1153h-72l227 1290h62l543 -1153l204 1153h72z" />
    <glyph glyph-name="nacute" unicode="&#x144;" horiz-adv-x="1013" 
d="M811 1321h107l-209 -246h-66zM662 911q139 0 221 -91t82 -242q0 -25 -4 -51t-9 -52l-82 -475h-71l82 475q4 25 7 48q3 24 3 46q0 123 -65 197t-187 74q-61 0 -118 -27q-56 -27 -101 -74t-77 -112q-32 -66 -44 -142l-84 -485h-72l158 901h51l-4 -133h10q29 39 74 72
q37 27 94 49q58 22 136 22z" />
    <glyph glyph-name="uni0145" unicode="&#x145;" horiz-adv-x="1228" 
d="M592 -164q27 0 45 -19t18 -61q0 -43 -21 -81q-22 -38 -48 -66q-31 -33 -70 -60l-18 21q20 18 39 41q16 18 30 45t23 57q-25 0 -41 18q-16 17 -17 42q0 29 19 46q18 17 41 17zM1282 1290l-227 -1290h-62l-544 1153l-203 -1153h-72l227 1290h62l543 -1153l204 1153h72z" />
    <glyph glyph-name="uni0146" unicode="&#x146;" horiz-adv-x="1013" 
d="M500 -164q27 0 45 -19t18 -61q0 -43 -21 -81q-22 -38 -48 -66q-31 -33 -70 -60l-18 21q20 18 38 41q16 18 31 45q14 27 23 57q-25 0 -41 18q-16 17 -17 42q0 29 19 46q18 17 41 17zM662 911q139 0 221 -91t82 -242q0 -25 -4 -51t-9 -52l-82 -475h-71l82 475q4 25 7 48
q3 24 3 46q0 123 -65 197t-187 74q-61 0 -118 -27q-56 -27 -101 -74t-77 -112q-32 -66 -44 -142l-84 -485h-72l158 901h51l-4 -133h10q29 39 74 72q37 27 94 49q58 22 136 22z" />
    <glyph glyph-name="Ncaron" unicode="&#x147;" horiz-adv-x="1228" 
d="M817 1444l-153 225h77l123 -174l185 174h86l-236 -225h-82zM1282 1290l-227 -1290h-62l-544 1153l-203 -1153h-72l227 1290h62l543 -1153l204 1153h72z" />
    <glyph glyph-name="ncaron" unicode="&#x148;" horiz-adv-x="1013" 
d="M635 1075l-154 225h78l123 -174l184 174h86l-235 -225h-82zM662 911q139 0 221 -91t82 -242q0 -25 -4 -51t-9 -52l-82 -475h-71l82 475q4 25 7 48q3 24 3 46q0 123 -65 197t-187 74q-61 0 -118 -27q-56 -27 -101 -74t-77 -112q-32 -66 -44 -142l-84 -485h-72l158 901h51
l-4 -133h10q29 39 74 72q37 27 94 49q58 22 136 22z" />
    <glyph glyph-name="Omacron" unicode="&#x14c;" horiz-adv-x="1351" 
d="M1128 1495h-471l15 72h471zM205 563q0 160 54 295t145 234q91 98 211 153t249 55q104 0 198 -40q93 -41 163 -117t109 -181q40 -105 40 -235q0 -160 -54 -295t-145 -233t-211 -154q-120 -55 -249 -55q-104 0 -198 41q-93 41 -163 116q-70 76 -109 182q-40 105 -40 234z
M856 1229q-111 0 -215 -50t-185 -139q-81 -88 -130 -209t-50 -260q0 -117 35 -211t96 -160q60 -67 141 -103t175 -36q111 0 215 51q104 50 185 138t130 209t50 260q0 117 -35 211t-96 161q-60 67 -141 102q-81 36 -175 36z" />
    <glyph glyph-name="omacron" unicode="&#x14d;" horiz-adv-x="1003" 
d="M913 1137h-471l15 71h471zM535 -10q-80 0 -151 28q-71 29 -123 82t-82 129t-29 168q0 111 40 204q41 93 108 163t152 108q85 39 175 39q80 0 150 -28q71 -29 123 -82t82 -129t30 -168q0 -111 -41 -204t-108 -163t-151 -108q-85 -39 -175 -39zM223 403q0 -160 88 -250
q88 -91 228 -92q84 0 156 38q73 38 126 101q53 62 84 140t31 158q0 160 -88 251t-227 91q-84 0 -157 -38t-126 -101q-53 -62 -84 -140t-31 -158z" />
    <glyph glyph-name="Ohungarumlaut" unicode="&#x150;" horiz-adv-x="1351" 
d="M924 1690h106l-219 -246h-66zM1169 1690h107l-219 -246h-66zM205 563q0 160 54 295t145 234q91 98 211 153t249 55q104 0 198 -40q93 -41 163 -117t109 -181q40 -105 40 -235q0 -160 -54 -295t-145 -233t-211 -154q-120 -55 -249 -55q-104 0 -198 41q-93 41 -163 116
q-70 76 -109 182q-40 105 -40 234zM856 1229q-111 0 -215 -50t-185 -139q-81 -88 -130 -209t-50 -260q0 -117 35 -211t96 -160q60 -67 141 -103t175 -36q111 0 215 51q104 50 185 138t130 209t50 260q0 117 -35 211t-96 161q-60 67 -141 102q-81 36 -175 36z" />
    <glyph glyph-name="ohungarumlaut" unicode="&#x151;" horiz-adv-x="1003" 
d="M688 1311h107l-220 -246h-65zM934 1311h106l-219 -246h-65zM535 -10q-80 0 -151 28q-71 29 -123 82t-82 129t-29 168q0 111 40 204q41 93 108 163t152 108q85 39 175 39q80 0 150 -28q71 -29 123 -82t82 -129t30 -168q0 -111 -41 -204t-108 -163t-151 -108
q-85 -39 -175 -39zM223 403q0 -160 88 -250q88 -91 228 -92q84 0 156 38q73 38 126 101q53 62 84 140t31 158q0 160 -88 251t-227 91q-84 0 -157 -38t-126 -101q-53 -62 -84 -140t-31 -158z" />
    <glyph glyph-name="OE" unicode="&#x152;" horiz-adv-x="1699" 
d="M1804 1290l-14 -71h-625l-90 -512h574l-13 -72h-573l-98 -563h645l-13 -72h-839q-113 0 -213.5 40t-176 112.5t-119.5 177t-44 233.5q0 160 54 293t147.5 229.5t218.5 150.5t266 54h913zM881 1219q-123 0 -232.5 -49.5t-192.5 -135.5t-131.5 -204.5t-48.5 -258.5
q0 -117 39 -210t105.5 -157.5t156 -98t191.5 -33.5h125l203 1147h-215z" />
    <glyph glyph-name="oe" unicode="&#x153;" horiz-adv-x="1660" 
d="M602 911q106 0 174 -42t105 -91q43 -57 63 -131q39 74 96 131q49 49 122 91t171 42q72 0 134.5 -26.5t108.5 -73.5t71.5 -112.5t25.5 -141.5q0 -33 -4 -57.5t-8 -42.5q-6 -23 -10 -37h-695v-17q0 -78 20.5 -140t57.5 -107t89.5 -70t115.5 -25q49 0 92 14.5t78 38
t61.5 52.5t45.5 59h83q-27 -43 -62.5 -85t-81.5 -75.5t-103.5 -54t-124.5 -20.5q-96 0 -157.5 40t-98.5 89q-43 57 -66 131q-39 -74 -94 -131q-47 -49 -122 -89t-177 -40q-78 0 -143.5 27.5t-113.5 80t-75.5 128t-27.5 171.5q0 113 37.5 208t100 163t143.5 105.5t169 37.5z
M516 61q80 0 148.5 36t119 95.5t78 139.5t27.5 166q0 166 -80 254t-211 88q-80 0 -148.5 -36t-118.5 -95.5t-78 -139.5t-28 -166q0 -166 80 -254t211 -88zM1329 840q-61 0 -121.5 -27t-109.5 -74t-84 -110.5t-47 -136.5h626q0 8 2 16q0 8 1 17.5t1 19.5q0 133 -73.5 214
t-194.5 81z" />
    <glyph glyph-name="Racute" unicode="&#x154;" horiz-adv-x="1116" 
d="M913 1690h107l-209 -246h-66zM342 553l-96 -553h-72l227 1290h420q80 0 144 -25q63 -26 106 -70t67 -103t23 -129q0 -172 -101 -274q-101 -101 -276 -128l240 -561h-78l-235 553h-45h-324zM354 625h328q90 0 165 22q75 23 128 65t83 102t29 138q0 113 -73 190
q-74 77 -207 77h-348z" />
    <glyph glyph-name="racute" unicode="&#x155;" horiz-adv-x="604" 
d="M657 1311h107l-209 -246h-66zM723 911l-14 -82h-62q-66 0 -124 -27q-58 -28 -104 -75t-78 -114t-44 -142l-82 -471h-72l158 901h51l-8 -153h10q29 45 74 81q39 31 96 57t138 25h61z" />
    <glyph glyph-name="uni0156" unicode="&#x156;" horiz-adv-x="1116" 
d="M565 -143q27 0 45 -20q18 -19 19 -60q0 -43 -22 -81t-48 -67q-31 -33 -70 -59l-18 20q20 18 39 41q16 18 31 45q14 27 22 58q-25 0 -41 17t-16 42q0 29 18 46q18 18 41 18zM342 553l-96 -553h-72l227 1290h420q80 0 144 -25q63 -26 106 -70t67 -103t23 -129
q0 -172 -101 -274q-101 -101 -276 -128l240 -561h-78l-235 553h-45h-324zM354 625h328q90 0 165 22q75 23 128 65t83 102t29 138q0 113 -73 190q-74 77 -207 77h-348z" />
    <glyph glyph-name="uni0157" unicode="&#x157;" horiz-adv-x="604" 
d="M152 -164q27 0 45 -19t18 -61q0 -43 -21 -81q-22 -38 -49 -66q-31 -33 -69 -60l-19 21q20 18 39 41q16 18 31 45q14 27 23 57q-25 0 -41 18q-16 17 -17 42q0 29 19 46q18 17 41 17zM723 911l-14 -82h-62q-66 0 -124 -27q-58 -28 -104 -75t-78 -114t-44 -142l-82 -471h-72
l158 901h51l-8 -153h10q29 45 74 81q39 31 96 57t138 25h61z" />
    <glyph glyph-name="Rcaron" unicode="&#x158;" horiz-adv-x="1116" 
d="M756 1444l-154 225h78l123 -174l184 174h86l-235 -225h-82zM342 553l-96 -553h-72l227 1290h420q80 0 144 -25q63 -26 106 -70t67 -103t23 -129q0 -172 -101 -274q-101 -101 -276 -128l240 -561h-78l-235 553h-45h-324zM354 625h328q90 0 165 22q75 23 128 65t83 102
t29 138q0 113 -73 190q-74 77 -207 77h-348z" />
    <glyph glyph-name="rcaron" unicode="&#x159;" horiz-adv-x="604" 
d="M481 1075l-153 225h78l122 -174l185 174h86l-236 -225h-82zM723 911l-14 -82h-62q-66 0 -124 -27q-58 -28 -104 -75t-78 -114t-44 -142l-82 -471h-72l158 901h51l-8 -153h10q29 45 74 81q39 31 96 57t138 25h61z" />
    <glyph glyph-name="Sacute" unicode="&#x15a;" horiz-adv-x="1003" 
d="M842 1690h106l-209 -246h-65zM276 969q0 74 32 135t85 104t126 67t155 23q82 0 150 -25q69 -26 118 -72t77 -109t28 -140h-72q0 123 -84 199t-223 76q-72 0 -130 -20q-58 -19 -101 -53q-42 -34 -64 -79q-23 -45 -23 -96q0 -72 46 -121t114 -87t148 -73q81 -35 149 -80
t114 -106t46 -152q0 -84 -31 -152q-31 -69 -86 -117t-131 -75t-164 -26q-98 0 -175 27q-77 28 -129 77t-80 117t-28 147h74q0 -135 87 -216t255 -81q74 0 134 20q60 19 106 56q45 37 69 90q25 53 25 121q0 80 -46 133t-114 94t-148 76q-81 35 -149 78t-113 99
q-47 57 -47 141z" />
    <glyph glyph-name="sacute" unicode="&#x15b;" horiz-adv-x="798" 
d="M688 1311h107l-209 -246h-66zM764 229q0 -119 -90 -179t-225 -60q-76 0 -136 22q-59 23 -101 61t-64 88t-21 105h72q0 -88 66 -147q67 -59 188 -60q100 0 169 40t68 118q0 57 -35 95t-88 66t-113 53q-60 26 -114 57q-53 32 -88 76t-35 112q0 104 83 170t220 65
q68 0 124 -20t96 -56t63 -82t22 -98h-71q-2 80 -62 132q-59 52 -176 53q-106 0 -166 -46q-59 -46 -59 -112q0 -55 35 -91t88 -64t113 -51q60 -24 114 -55q53 -32 88 -77t35 -115z" />
    <glyph glyph-name="Scedilla" unicode="&#x15e;" horiz-adv-x="1003" 
d="M276 969q0 74 32 135t85 104t126 66.5t155 23.5t150.5 -25.5t117.5 -71.5t77 -109.5t28 -139.5h-72q0 123 -84 199t-223 76q-72 0 -130.5 -19.5t-100.5 -53.5t-64.5 -79t-22.5 -96q0 -72 46 -121t114 -87t148.5 -72.5t148 -80t114 -106.5t46.5 -152q0 -84 -31 -150.5
t-84 -114.5t-127 -75.5t-160 -29.5l-49 -76q49 -4 77 -37t28 -74q0 -66 -48.5 -103.5t-132.5 -37.5q-37 0 -57 6q-12 4 -21 8l13 60q10 -4 20 -6q18 -6 56 -6q47 0 71.5 21.5t24.5 49.5q0 33 -19.5 52.5t-60.5 19.5q-20 0 -33.5 -3t-17.5 -5l84 133q-172 16 -264.5 116.5
t-92.5 249.5h74q0 -135 87 -216t255 -81q74 0 134.5 19.5t105.5 56.5t69.5 90.5t24.5 120.5q0 80 -46 133.5t-113.5 94t-148.5 75.5t-148.5 78t-114 99.5t-46.5 140.5z" />
    <glyph glyph-name="scedilla" unicode="&#x15f;" horiz-adv-x="798" 
d="M764 229q0 -117 -86 -176t-215 -63l-49 -76q49 -4 76.5 -37t27.5 -74q0 -66 -48 -103.5t-132 -37.5q-37 0 -57 6q-12 4 -21 8l12 60q10 -4 21 -6q18 -6 55 -6q47 0 71.5 21.5t24.5 49.5q0 33 -19 52.5t-60 19.5q-20 0 -34 -3t-18 -5l84 135q-129 14 -199.5 91t-70.5 181
h72q0 -88 66.5 -147.5t187.5 -59.5q100 0 168.5 40t68.5 118q0 57 -34.5 95t-88 66t-114 53.5t-113.5 57t-88 75.5t-35 112q0 104 83 169.5t220 65.5q68 0 124 -20.5t96 -56t62.5 -81.5t22.5 -98h-71q-2 80 -61.5 132.5t-176.5 52.5q-106 0 -165.5 -46t-59.5 -112
q0 -55 34.5 -91t88 -63.5t114 -51t113.5 -55.5t88 -77t35 -115z" />
    <glyph glyph-name="Scaron" unicode="&#x160;" horiz-adv-x="1003" 
d="M666 1444l-154 225h78l123 -174l184 174h86l-235 -225h-82zM276 969q0 74 32 135t85 104t126 67t155 23q82 0 150 -25q69 -26 118 -72t77 -109t28 -140h-72q0 123 -84 199t-223 76q-72 0 -130 -20q-58 -19 -101 -53q-42 -34 -64 -79q-23 -45 -23 -96q0 -72 46 -121
t114 -87t148 -73q81 -35 149 -80t114 -106t46 -152q0 -84 -31 -152q-31 -69 -86 -117t-131 -75t-164 -26q-98 0 -175 27q-77 28 -129 77t-80 117t-28 147h74q0 -135 87 -216t255 -81q74 0 134 20q60 19 106 56q45 37 69 90q25 53 25 121q0 80 -46 133t-114 94t-148 76
q-81 35 -149 78t-113 99q-47 57 -47 141z" />
    <glyph glyph-name="scaron" unicode="&#x161;" horiz-adv-x="798" 
d="M516 1075l-154 225h78l123 -174l185 174h86l-236 -225h-82zM764 229q0 -119 -90 -179t-225 -60q-76 0 -136 22q-59 23 -101 61t-64 88t-21 105h72q0 -88 66 -147q67 -59 188 -60q100 0 169 40t68 118q0 57 -35 95t-88 66t-113 53q-60 26 -114 57q-53 32 -88 76t-35 112
q0 104 83 170t220 65q68 0 124 -20t96 -56t63 -82t22 -98h-71q-2 80 -62 132q-59 52 -176 53q-106 0 -166 -46q-59 -46 -59 -112q0 -55 35 -91t88 -64t113 -51q60 -24 114 -55q53 -32 88 -77t35 -115z" />
    <glyph glyph-name="uni0162" unicode="&#x162;" horiz-adv-x="972" 
d="M459 -164q27 0 45 -19t18 -61q0 -43 -21 -81q-22 -38 -48 -66q-31 -33 -70 -60l-18 21q20 18 38 41q16 18 31 45q14 27 23 57q-25 0 -41 18q-16 17 -17 42q0 29 19 46q18 17 41 17zM279 1290h870l-14 -71h-400l-213 -1219h-71l213 1219h-400z" />
    <glyph glyph-name="uni0163" unicode="&#x163;" horiz-adv-x="604" 
d="M326 -164q27 0 45 -19t18 -61q0 -43 -21 -81q-22 -38 -49 -66q-31 -33 -69 -60l-19 21q20 18 39 41q16 18 31 45q14 27 23 57q-25 0 -41 18q-16 17 -17 42q0 29 19 46q18 17 41 17zM360 829h-174l13 72h82q53 0 75 20q23 19 33 72l31 174h72l-48 -266h226l-13 -72h-225
l-100 -573q-6 -41 -6 -70q0 -127 135 -127q29 0 51 7q10 2 23 6l-13 -64q-10 -6 -22 -10q-10 -4 -26 -6q-15 -2 -36 -2q-86 0 -135 48t-49 144q0 33 6 74z" />
    <glyph glyph-name="Tcaron" unicode="&#x164;" horiz-adv-x="972" 
d="M684 1444l-154 225h78l123 -174l184 174h86l-235 -225h-82zM279 1290h870l-14 -71h-400l-213 -1219h-71l213 1219h-400z" />
    <glyph glyph-name="tcaron" unicode="&#x165;" horiz-adv-x="604" 
d="M801 1290h96l-158 -246h-55zM360 829h-174l13 72h82q53 0 75.5 19.5t32.5 72.5l31 174h72l-48 -266h226l-13 -72h-225l-100 -573q-6 -41 -6 -70q0 -127 135 -127q29 0 51 7q10 2 23 6l-13 -64q-10 -6 -22 -10q-10 -4 -25.5 -6t-36.5 -2q-86 0 -135 48t-49 144q0 33 6 74z
" />
    <glyph glyph-name="Umacron" unicode="&#x16a;" horiz-adv-x="1228" 
d="M1098 1495h-471l14 72h471zM623 -10q-86 0 -157 26q-71 27 -121 77t-78 122t-27 162q0 29 2 57q2 29 8 60l141 796h72l-141 -796q-6 -29 -9 -58q-2 -29 -2 -53q0 -158 86 -240t238 -82q180 0 291 99q111 98 151 321l144 809h71l-143 -809q-47 -262 -176 -377
q-129 -114 -350 -114z" />
    <glyph glyph-name="umacron" unicode="&#x16b;" horiz-adv-x="1013" 
d="M932 1126h-471l14 72h471zM510 -10q-139 0 -221 91t-82 243q0 25 4 50l8 52l82 475h72l-82 -475q-4 -25 -7 -48q-3 -24 -3 -46q0 -123 64 -197q65 -74 187 -74q61 0 118 27q56 27 102 74q45 47 76 111q32 65 44 143l84 485h72l-158 -901h-51l4 133h-10q-33 -41 -76 -72
q-39 -29 -94 -50t-133 -21z" />
    <glyph glyph-name="Uring" unicode="&#x16e;" horiz-adv-x="1228" 
d="M1040 1597q0 -84 -53 -134t-131 -50q-59 0 -103 42t-44 101q0 84 53 135q53 50 131 50q59 0 103 -42q44 -43 44 -102zM866 1475q51 0 82 32q31 33 31 76t-26 70t-70 26q-51 0 -82 -32q-31 -33 -31 -76t26 -70q25 -26 70 -26zM623 -10q-86 0 -157 26q-71 27 -121 77
t-78 122t-27 162q0 29 2 57q2 29 8 60l141 796h72l-141 -796q-6 -29 -9 -58q-2 -29 -2 -53q0 -158 86 -240t238 -82q180 0 291 99q111 98 151 321l144 809h71l-143 -809q-47 -262 -176 -377q-129 -114 -350 -114z" />
    <glyph glyph-name="uring" unicode="&#x16f;" horiz-adv-x="1013" 
d="M864 1227q0 -84 -53 -134t-131 -51q-59 0 -103 42t-45 102q0 84 54 134q53 50 131 50q59 0 103 -42t44 -101zM690 1104q51 0 82 33t31 75q0 43 -26 70t-70 27q-51 0 -82 -33t-31 -76t26 -70q25 -26 70 -26zM510 -10q-139 0 -221 91t-82 243q0 25 4 50l8 52l82 475h72
l-82 -475q-4 -25 -7 -48q-3 -24 -3 -46q0 -123 64 -197q65 -74 187 -74q61 0 118 27q56 27 102 74q45 47 76 111q32 65 44 143l84 485h72l-158 -901h-51l4 133h-10q-33 -41 -76 -72q-39 -29 -94 -50t-133 -21z" />
    <glyph glyph-name="Uhungarumlaut" unicode="&#x170;" horiz-adv-x="1228" 
d="M842 1690h106l-219 -246h-65zM1087 1690h107l-219 -246h-66zM623 -10q-86 0 -157 26q-71 27 -121 77t-78 122t-27 162q0 29 2 57q2 29 8 60l141 796h72l-141 -796q-6 -29 -9 -58q-2 -29 -2 -53q0 -158 86 -240t238 -82q180 0 291 99q111 98 151 321l144 809h71l-143 -809
q-47 -262 -176 -377q-129 -114 -350 -114z" />
    <glyph glyph-name="uhungarumlaut" unicode="&#x171;" horiz-adv-x="1013" 
d="M688 1321h107l-220 -246h-65zM934 1321h106l-219 -246h-65zM510 -10q-139 0 -221 91t-82 243q0 25 4 50l8 52l82 475h72l-82 -475q-4 -25 -7 -48q-3 -24 -3 -46q0 -123 64 -197q65 -74 187 -74q61 0 118 27q56 27 102 74q45 47 76 111q32 65 44 143l84 485h72l-158 -901
h-51l4 133h-10q-33 -41 -76 -72q-39 -29 -94 -50t-133 -21z" />
    <glyph glyph-name="Uogonek" unicode="&#x172;" horiz-adv-x="1228" 
d="M1149 481q-43 -246 -159 -360.5t-310 -128.5q-10 -8 -28.5 -24.5t-36 -39t-31 -51.5t-13.5 -59q0 -84 99 -84q27 0 37 2q8 2 14 4l-10 -59l-15 -5q-20 -4 -39 -4q-74 0 -116.5 38t-42.5 93q0 37 12 67t28.5 53.5t34 40t29.5 26.5q-166 6 -264 107.5t-98 279.5
q0 29 2 57.5t8 59.5l141 796h72l-141 -796q-6 -29 -8.5 -57.5t-2.5 -53.5q0 -158 86 -240t238 -82q180 0 290.5 98.5t151.5 321.5l144 809h71l-143 -809v0z" />
    <glyph glyph-name="uogonek" unicode="&#x173;" horiz-adv-x="1013" 
d="M510 -10q-139 0 -221 91t-82 243q0 25 4 50t8 52l82 475h72l-82 -475q-4 -25 -7 -48.5t-3 -45.5q0 -123 64.5 -197t186.5 -74q61 0 118 27t102 74t76.5 111.5t43.5 142.5l84 485h72l-158 -901q-35 -25 -61 -53q-23 -25 -41 -58.5t-18 -70.5q0 -84 98 -84q27 0 37 2
q8 2 14 4l-10 -59l-15 -5q-20 -4 -38 -4q-74 0 -117 38t-43 93q0 39 17.5 74t41 62.5t47 48t37.5 30.5l4 115h-10q-33 -41 -76 -72q-39 -29 -94 -50t-133 -21z" />
    <glyph glyph-name="Ydieresis" unicode="&#x178;" horiz-adv-x="1034" 
d="M543 1546q0 25 18 43t47 19q25 0 41 -19q16 -18 17 -43q0 -25 -19 -43q-18 -18 -47 -18q-25 0 -41 18t-16 43zM840 1546q0 25 18 43t47 19q25 0 41 -19q16 -18 17 -43q0 -25 -19 -43q-18 -18 -47 -18q-25 0 -41 18t-16 43zM555 512l-303 778h78l266 -696h10l514 696h84
l-577 -778l-90 -512h-72z" />
    <glyph glyph-name="Zacute" unicode="&#x179;" horiz-adv-x="993" 
d="M862 1690h107l-209 -246h-66zM340 1290h786l-8 -51l-925 -1167h731l-13 -72h-829l8 51l926 1168h-690z" />
    <glyph glyph-name="zacute" unicode="&#x17a;" horiz-adv-x="768" 
d="M684 1321h107l-209 -246h-66zM748 829h-531l12 72h635l-8 -51l-678 -778h541l-12 -72h-646l9 51z" />
    <glyph glyph-name="Zdotaccent" unicode="&#x17b;" horiz-adv-x="993" 
d="M698 1546q0 25 19 43q18 18 47 19q25 0 41 -19q16 -18 16 -43t-18 -43t-47 -18q-25 0 -41 18q-17 18 -17 43zM340 1290h786l-8 -51l-925 -1167h731l-13 -72h-829l8 51l926 1168h-690z" />
    <glyph glyph-name="zdotaccent" unicode="&#x17c;" horiz-adv-x="768" 
d="M512 1178q0 25 18 43t48 18q25 0 40 -18q16 -18 17 -43q0 -25 -19 -43q-18 -18 -47 -19q-25 0 -41 19q-16 18 -16 43zM748 829h-531l12 72h635l-8 -51l-678 -778h541l-12 -72h-646l9 51z" />
    <glyph glyph-name="Zcaron" unicode="&#x17d;" horiz-adv-x="993" 
d="M698 1434l-153 225h78l122 -174l185 174h86l-236 -225h-82zM340 1290h786l-8 -51l-925 -1167h731l-13 -72h-829l8 51l926 1168h-690z" />
    <glyph glyph-name="zcaron" unicode="&#x17e;" horiz-adv-x="768" 
d="M520 1065l-153 225h77l123 -174l185 174h86l-236 -225h-82zM748 829h-531l12 72h635l-8 -51l-678 -778h541l-12 -72h-646l9 51z" />
    <glyph glyph-name="florin" unicode="&#x192;" horiz-adv-x="593" 
d="M420 686l-123 -666q-18 -100 -45 -168.5t-63.5 -110.5t-84 -60.5t-104.5 -18.5q-35 0 -59 10q-12 4 -23 11l21 61q8 -4 18 -6t20.5 -3t22.5 -1q78 0 137.5 66.5t87.5 219.5l123 666h-143l20 72h144q6 37 12 71q4 29 9 60t9 53q37 199 110 278.5t187 79.5q18 0 33.5 -3
t26.5 -7q12 -6 22 -10l-20 -61q-8 2 -19 4q-10 2 -21 4t-22 2q-78 0 -138 -66.5t-87 -220.5l-31 -184h236l-21 -72h-235z" />
    <glyph glyph-name="uni0218" unicode="&#x218;" horiz-adv-x="1003" 
d="M500 -143q27 0 45 -20q18 -19 18 -60q0 -43 -21 -81q-22 -38 -48 -67q-31 -33 -70 -59l-18 20q20 18 38 41q16 18 31 45q14 27 23 58q-25 0 -41 17t-17 42q0 29 19 46q18 18 41 18zM276 969q0 74 32 135t85 104t126 67t155 23q82 0 150 -25q69 -26 118 -72t77 -109
t28 -140h-72q0 123 -84 199t-223 76q-72 0 -130 -20q-58 -19 -101 -53q-42 -34 -64 -79q-23 -45 -23 -96q0 -72 46 -121t114 -87t148 -73q81 -35 149 -80t114 -106t46 -152q0 -84 -31 -152q-31 -69 -86 -117t-131 -75t-164 -26q-98 0 -175 27q-77 28 -129 77t-80 117
t-28 147h74q0 -135 87 -216t255 -81q74 0 134 20q60 19 106 56q45 37 69 90q25 53 25 121q0 80 -46 133t-114 94t-148 76q-81 35 -149 78t-113 99q-47 57 -47 141z" />
    <glyph glyph-name="uni0219" unicode="&#x219;" horiz-adv-x="798" 
d="M397 -164q27 0 45 -19t19 -61q0 -43 -22 -81t-48 -66q-31 -33 -69 -60l-19 21q20 18 39 41q16 18 31 45q14 27 22 57q-25 0 -41 18q-16 17 -16 42q0 29 18 46t41 17zM764 229q0 -119 -90 -179t-225 -60q-76 0 -136 22q-59 23 -101 61t-64 88t-21 105h72q0 -88 66 -147
q67 -59 188 -60q100 0 169 40t68 118q0 57 -35 95t-88 66t-113 53q-60 26 -114 57q-53 32 -88 76t-35 112q0 104 83 170t220 65q68 0 124 -20t96 -56t63 -82t22 -98h-71q-2 80 -62 132q-59 52 -176 53q-106 0 -166 -46q-59 -46 -59 -112q0 -55 35 -91t88 -64t113 -51
q60 -24 114 -55q53 -32 88 -77t35 -115z" />
    <glyph glyph-name="uni021A" unicode="&#x21a;" horiz-adv-x="972" 
d="M459 -164q27 0 45 -19t18 -61q0 -43 -21 -81q-22 -38 -48 -66q-31 -33 -70 -60l-18 21q20 18 38 41q16 18 31 45q14 27 23 57q-25 0 -41 18q-16 17 -17 42q0 29 19 46q18 17 41 17zM279 1290h870l-14 -71h-400l-213 -1219h-71l213 1219h-400z" />
    <glyph glyph-name="uni021B" unicode="&#x21b;" horiz-adv-x="604" 
d="M326 -164q27 0 45 -19t18 -61q0 -43 -21 -81q-22 -38 -49 -66q-31 -33 -69 -60l-19 21q20 18 39 41q16 18 31 45q14 27 23 57q-25 0 -41 18q-16 17 -17 42q0 29 19 46q18 17 41 17zM360 829h-174l13 72h82q53 0 75 20q23 19 33 72l31 174h72l-48 -266h226l-13 -72h-225
l-100 -573q-6 -41 -6 -70q0 -127 135 -127q29 0 51 7q10 2 23 6l-13 -64q-10 -6 -22 -10q-10 -4 -26 -6q-15 -2 -36 -2q-86 0 -135 48t-49 144q0 33 6 74z" />
    <glyph glyph-name="uni02BC" unicode="&#x2bc;" horiz-adv-x="256" 
d="M346 1290q27 0 45.5 -19.5t18.5 -60.5q0 -43 -21.5 -80.5t-48.5 -66.5q-31 -33 -70 -59l-18 20q20 18 39 41q16 18 30.5 45t22.5 57q-25 0 -41 17.5t-16 42.5q0 29 18 46t41 17z" />
    <glyph glyph-name="circumflex" unicode="&#x2c6;" horiz-adv-x="593" 
d="M561 1270l154 -226h-78l-123 175l-184 -175h-86l235 226h82z" />
    <glyph glyph-name="caron" unicode="&#x2c7;" horiz-adv-x="593" 
d="M438 1044l-153 226h77l123 -174l185 174h86l-236 -226h-82z" />
    <glyph glyph-name="breve" unicode="&#x2d8;" horiz-adv-x="573" 
d="M494 1116q66 0 118 41t62 103h63q-12 -90 -81.5 -147.5t-170.5 -57.5q-43 0 -80.5 14t-65.5 40t-43 60.5t-15 73.5v17h63q0 -66 39 -105t111 -39z" />
    <glyph glyph-name="dotaccent" unicode="&#x2d9;" horiz-adv-x="245" 
d="M272 1198q0 25 18.5 43.5t47.5 18.5q25 0 41 -18.5t16 -43.5t-18.5 -43t-46.5 -18q-25 0 -41.5 18t-16.5 43z" />
    <glyph glyph-name="ring" unicode="&#x2da;" horiz-adv-x="450" 
d="M600 1208q0 -84 -53 -134t-131 -50q-59 0 -103.5 42t-44.5 101q0 84 53.5 134.5t131.5 50.5q59 0 103 -42.5t44 -101.5zM426 1085q51 0 82 33t31 76t-26 69.5t-71 26.5q-51 0 -81.5 -32.5t-30.5 -75.5t25.5 -70t70.5 -27z" />
    <glyph glyph-name="ogonek" unicode="&#x2db;" horiz-adv-x="358" 
d="M221 0q-35 -25 -61 -53q-23 -25 -41.5 -58.5t-18.5 -70.5q0 -84 99 -84q27 0 37 2q8 2 14 4l-10 -59l-15 -5q-20 -4 -39 -4q-74 0 -116.5 38t-42.5 93q0 47 18 82t41 62q27 29 61 53h74z" />
    <glyph glyph-name="tilde" unicode="&#x2dc;" horiz-adv-x="655" 
d="M410 1198q-39 0 -68 -31.5t-35 -81.5h-61q10 86 59 135.5t111 49.5q43 0 72.5 -20.5t56 -46t52.5 -46t58 -20.5q39 0 68 31.5t35 80.5h61q-10 -86 -59 -135t-111 -49q-43 0 -72.5 20.5t-56 46t-52 46t-58.5 20.5z" />
    <glyph glyph-name="hungarumlaut" unicode="&#x2dd;" horiz-adv-x="604" 
d="M422 1290h106l-219 -246h-65zM668 1290h106l-219 -246h-66z" />
    <glyph glyph-name="uni0401" unicode="&#x401;" horiz-adv-x="1054" 
d="M598 1556q0 25 18 43t48 19q25 0 41 -19q16 -18 16 -43t-19 -43q-18 -18 -47 -18q-25 0 -41 18t-16 43zM895 1556q0 25 18 43t48 19q25 0 40 -19q16 -18 17 -43q0 -25 -19 -43q-18 -18 -47 -18q-25 0 -41 18t-16 43zM965 72l-13 -72h-778l227 1290h758l-14 -71h-686
l-90 -512h635l-13 -72h-635l-98 -563h707z" />
    <glyph glyph-name="uni0402" unicode="&#x402;" horiz-adv-x="1249" 
d="M227 1290h758l-14 -71h-348l-97 -551h11q31 43 77 80q41 31 103.5 56t152.5 25q76 0 142.5 -27.5t116 -77.5t77 -119.5t27.5 -153.5q0 -129 -40 -226.5t-110.5 -165t-168 -105.5t-214.5 -46l13 72q94 8 177 40.5t142.5 90t94 139.5t34.5 190q0 152 -85 235t-226 83
q-70 0 -131.5 -29t-110.5 -78t-82.5 -114.5t-46.5 -139.5l-69 -397h-72l213 1219h-338z" />
    <glyph glyph-name="uni0403" unicode="&#x403;" horiz-adv-x="921" 
d="M459 1219l-213 -1219h-72l227 1290h707l-14 -71h-635zM893 1690h106l-208 -246h-66z" />
    <glyph glyph-name="uni0404" unicode="&#x404;" horiz-adv-x="1290" 
d="M856 1229q-100 0 -194.5 -41t-172 -112.5t-132 -172t-72.5 -217.5h573l-14 -72h-565q-2 -10 -2.5 -21t-0.5 -22q0 -117 35 -211t95.5 -160.5t141.5 -102.5t175 -36q74 0 147.5 26t139 74t120 116.5t91.5 152.5h77q-41 -100 -102 -181t-138 -138.5t-164 -89t-179 -31.5
q-104 0 -197.5 41t-163 116.5t-109.5 181t-40 234.5q0 160 54 295t145.5 233.5t211 153.5t248.5 55q86 0 165 -30.5t141.5 -88t107.5 -139t63 -182.5h-73q-37 178 -149.5 273.5t-262.5 95.5z" />
    <glyph glyph-name="uni0405" unicode="&#x405;" horiz-adv-x="1003" 
d="M276 969q0 74 32 135t85 104t126 67t155 23q82 0 150 -25q69 -26 118 -72t77 -109t28 -140h-72q0 123 -84 199t-223 76q-72 0 -130 -20q-58 -19 -101 -53q-42 -34 -64 -79q-23 -45 -23 -96q0 -72 46 -121t114 -87t148 -73q81 -35 149 -80t114 -106t46 -152
q0 -84 -31 -152q-31 -69 -86 -117t-131 -75t-164 -26q-98 0 -175 27q-77 28 -129 77t-80 117t-28 147h74q0 -135 87 -216t255 -81q74 0 134 20q60 19 106 56q45 37 69 90q25 53 25 121q0 80 -46 133t-114 94t-148 76q-81 35 -149 78t-113 99q-47 57 -47 141z" />
    <glyph glyph-name="uni0406" unicode="&#x406;" horiz-adv-x="419" 
d="M246 0h-72l227 1290h72z" />
    <glyph glyph-name="uni0407" unicode="&#x407;" horiz-adv-x="419" 
d="M254 1556q0 25 18 43t47 19q25 0 41 -19q16 -18 17 -43q0 -25 -19 -43q-18 -18 -47 -18q-25 0 -41 18t-16 43zM551 1556q0 25 18 43t47 19q25 0 41 -19q16 -18 17 -43q0 -25 -19 -43q-18 -18 -47 -18q-25 0 -41 18t-16 43zM246 0h-72l227 1290h72z" />
    <glyph glyph-name="uni0408" unicode="&#x408;" 
d="M1026 1290l-156 -880q-39 -217 -144 -319q-105 -101 -298 -101q-74 0 -135 24q-61 25 -106 68q-44 43 -67 98q-24 55 -24 117q0 20 2 29q0 8 2 12h72q-2 -4 -2 -10v-23q0 -102 74 -173t196 -71q297 0 359 349l155 880h72z" />
    <glyph glyph-name="uni0409" unicode="&#x409;" horiz-adv-x="1832" 
d="M1241 1290l-92 -512h319q80 0 143.5 -27.5t108.5 -74.5t70 -110.5t25 -135.5q0 -96 -32 -175t-95.5 -136.5t-155.5 -88t-211 -30.5h-379l213 1219h-541l-223 -859q-31 -115 -67.5 -187.5t-79.5 -113.5t-91.5 -55t-103.5 -14q-20 0 -41 4q-8 2 -18 6l10 61h41
q51 0 92 15.5t75 51.5t61.5 94.5t49.5 146.5l242 921h680zM1137 707l-111 -635h307q90 0 165 23.5t129 68.5t84 109.5t30 146.5q0 59 -18.5 111.5t-55.5 91.5t-90 61.5t-123 22.5h-317z" />
    <glyph glyph-name="uni040A" unicode="&#x40a;" horiz-adv-x="1822" 
d="M473 1290l-90 -512h686l90 512h72l-90 -512h317q80 0 143.5 -27.5t108.5 -74.5t69.5 -110.5t24.5 -135.5q0 -96 -31.5 -175t-95 -136.5t-155.5 -88t-211 -30.5h-379l123 707h-686l-123 -707h-72l227 1290h72zM1016 72h307q90 0 165 23.5t129 68.5t84 109.5t30 146.5
q0 59 -18.5 111.5t-55.5 91.5t-90.5 61.5t-122.5 22.5h-318z" />
    <glyph glyph-name="uni040B" unicode="&#x40b;" horiz-adv-x="1300" 
d="M227 1290h758l-14 -71h-348l-97 -551h11q31 43 77 80q41 31 103.5 56t152.5 25q80 0 142.5 -26.5t107.5 -74.5t68.5 -111.5t23.5 -137.5q0 -39 -6 -82l-69 -397h-72l70 397q6 43 6 80q0 129 -75 205t-216 76q-70 0 -131.5 -29t-110.5 -78t-82.5 -114.5t-46.5 -139.5
l-69 -397h-72l213 1219h-338z" />
    <glyph glyph-name="uni040C" unicode="&#x40c;" horiz-adv-x="966" 
d="M903 1690h107l-209 -246h-66zM360 655l-114 -655h-72l227 1290h72l-113 -635l707 635h98l-708 -639l504 -651h-91z" />
    <glyph glyph-name="uni040E" unicode="&#x40e;" horiz-adv-x="1011" 
d="M1190 1290l-672 -1075q-41 -68 -77 -113t-69 -72q-34 -28 -69 -39t-78 -11q-39 0 -69 10q-16 4 -31 10l12 72q12 -6 27 -11q27 -10 63 -10q33 0 59 8t50 28q25 19 48 50q24 31 52 78l103 164l-279 911h74l254 -825h8l510 825h84zM745 1475q66 0 118 41t63 102h63
q-12 -90 -82 -148q-70 -57 -170 -57q-43 0 -81 14t-65 40q-28 26 -43 61t-16 74v16h64q0 -66 39 -105q38 -38 110 -38z" />
    <glyph glyph-name="uni040F" unicode="&#x40f;" horiz-adv-x="1208" 
d="M174 0l227 1290h72l-215 -1218h717l215 1218h72l-228 -1290h-389l-51 -287h-82l51 287h-389z" />
    <glyph glyph-name="uni0410" unicode="&#x410;" horiz-adv-x="1097" 
d="M774 1161l-405 -731h553zM819 1290l264 -1290h-73l-74 358h-608l-199 -358h-82l719 1290h53z" />
    <glyph glyph-name="uni0411" unicode="&#x411;" horiz-adv-x="1105" 
d="M401 1290h748l-14 -71h-676l-84 -482h368q80 0 143.5 -25.5t106.5 -69.5t66.5 -103.5t23.5 -128.5q0 -98 -34.5 -175t-99 -129.5t-157 -79t-204.5 -26.5h-414zM258 72h346q190 0 298 86t108 241q0 113 -74 190t-207 77h-367z" />
    <glyph glyph-name="uni0412" unicode="&#x412;" horiz-adv-x="1126" 
d="M889 688q59 -23 106 -59q41 -33 74 -88t33 -142q0 -182 -123 -290q-123 -109 -365 -109h-440l227 1290h420q80 0 141 -23q60 -24 102 -64t62 -92t21 -107q0 -100 -41 -162q-41 -61 -88 -97q-57 -39 -129 -57zM360 655l-102 -583h369q188 0 296 85t107 232q0 57 -22 107
q-23 49 -63 84t-95 55t-121 20h-369zM373 727h368q72 0 133 21q61 20 106 56q44 36 70 85t25 104q0 94 -64 160q-65 66 -204 66h-348z" />
    <glyph glyph-name="uni0413" unicode="&#x413;" horiz-adv-x="921" 
d="M459 1219l-213 -1219h-72l227 1290h707l-14 -71h-635z" />
    <glyph glyph-name="uni0414" unicode="&#x414;" horiz-adv-x="1198" 
d="M2 72h61q41 14 80 49q35 29 70 79t59 128l291 962h647l-215 -1218h154l-64 -359h-71l51 287h-1004l-51 -287h-69zM346 328q-25 -82 -54.5 -131.5t-55.5 -77.5q-31 -33 -62 -47h750l200 1147h-510z" />
    <glyph glyph-name="uni0415" unicode="&#x415;" horiz-adv-x="1054" 
d="M965 72l-13 -72h-778l227 1290h758l-14 -71h-686l-90 -512h635l-13 -72h-635l-98 -563h707z" />
    <glyph glyph-name="uni0416" unicode="&#x416;" horiz-adv-x="1421" 
d="M979 1290l-113 -635l656 635h96l-662 -643l457 -647h-88l-459 655l-114 -655h-72l227 1290h72zM106 0h-96l695 664l-426 626h86l430 -635z" />
    <glyph glyph-name="uni0417" unicode="&#x417;" horiz-adv-x="993" 
d="M262 963q12 74 50 135t94.5 106t129 70.5t152.5 25.5t145.5 -24.5t111.5 -66.5t71.5 -98t25.5 -118q0 -106 -46 -170.5t-99 -101.5q-66 -43 -145 -62q59 -18 106 -55q41 -31 74 -85t33 -140t-31 -156.5t-89.5 -123t-140 -81t-184.5 -28.5q-88 0 -158.5 25.5t-119.5 69.5
t-76 103.5t-27 128.5v31h74v-18q0 -121 82 -195t237 -74q84 0 152 24t114 64.5t70.5 97t24.5 122.5q0 119 -83 187.5t-230 68.5h-72l12 71h72q80 0 149.5 22.5t120.5 60.5t80 90.5t29 113.5q0 117 -78 181.5t-217 64.5q-66 0 -124 -20.5t-103.5 -55.5t-76 -84t-38.5 -106
h-72z" />
    <glyph glyph-name="uni0418" unicode="&#x418;" horiz-adv-x="1228" 
d="M473 1290l-203 -1145l951 1145h61l-227 -1290h-72l203 1145l-950 -1145h-62l227 1290h72z" />
    <glyph glyph-name="uni0419" unicode="&#x419;" horiz-adv-x="1228" 
d="M473 1290l-203 -1145l951 1145h61l-227 -1290h-72l203 1145l-950 -1145h-62l227 1290h72zM868 1495q37 0 69 12t57 34q26 22 42 49q16 28 21 59h63q-16 -92 -86 -154q-70 -61 -174 -61q-96 0 -155 56t-60 140v19h64q0 -66 36 -110q37 -44 123 -44z" />
    <glyph glyph-name="uni041A" unicode="&#x41a;" horiz-adv-x="966" 
d="M360 655l-114 -655h-72l227 1290h72l-113 -635l707 635h98l-708 -639l504 -651h-91z" />
    <glyph glyph-name="uni041B" unicode="&#x41b;" horiz-adv-x="1218" 
d="M1272 1290l-228 -1290h-71l213 1219h-572l-223 -859q-31 -115 -67.5 -187.5t-79.5 -113.5t-91.5 -55t-103.5 -14q-20 0 -41 4q-8 2 -18 6l10 61h41q51 0 92 15.5t75 51.5t61.5 94.5t49.5 146.5l242 921h711z" />
    <glyph glyph-name="uni041C" unicode="&#x41c;" horiz-adv-x="1515" 
d="M1491 1290h78l-228 -1290h-71l196 1120l-688 -1120h-41l-295 1120l-196 -1120h-72l227 1290h70l307 -1165z" />
    <glyph glyph-name="uni041D" unicode="&#x41d;" horiz-adv-x="1218" 
d="M473 1290l-106 -594h727l106 594h72l-228 -1290h-71l108 625h-727l-108 -625h-72l227 1290h72z" />
    <glyph glyph-name="uni041E" unicode="&#x41e;" horiz-adv-x="1351" 
d="M205 563q0 160 54 295t145 234q91 98 211 153t249 55q104 0 198 -40q93 -41 163 -117t109 -181q40 -105 40 -235q0 -160 -54 -295t-145 -233t-211 -154q-120 -55 -249 -55q-104 0 -198 41q-93 41 -163 116q-70 76 -109 182q-40 105 -40 234zM856 1229q-111 0 -215 -50
t-185 -139q-81 -88 -130 -209t-50 -260q0 -117 35 -211t96 -160q60 -67 141 -103t175 -36q111 0 215 51q104 50 185 138t130 209t50 260q0 117 -35 211t-96 161q-60 67 -141 102q-81 36 -175 36z" />
    <glyph glyph-name="uni041F" unicode="&#x41f;" horiz-adv-x="1218" 
d="M1272 1290l-228 -1290h-71l213 1219h-727l-213 -1219h-72l227 1290h871z" />
    <glyph glyph-name="uni0420" unicode="&#x420;" horiz-adv-x="1054" 
d="M780 1290q80 0 144 -27q63 -28 108 -75t70 -111q25 -63 24 -135q0 -96 -31 -175q-32 -79 -96 -136q-63 -57 -155 -88t-211 -31h-297l-90 -512h-72l227 1290h379zM645 584q90 0 165 23q75 24 129 69t84 109q30 65 30 147q0 59 -19 111q-18 52 -55 92q-37 39 -90 61
q-53 23 -123 23h-307l-111 -635h297z" />
    <glyph glyph-name="uni0421" unicode="&#x421;" horiz-adv-x="1300" 
d="M856 1229q-111 0 -215 -50t-185 -139q-81 -88 -130 -209t-50 -260q0 -117 35 -211t96 -160q60 -67 141 -103t175 -36q74 0 147 26q74 26 140 74t119 117q54 69 92 152h77q-41 -100 -102 -181t-138 -138t-164 -89t-179 -32q-104 0 -198 41q-93 41 -163 116
q-70 76 -109 182q-40 105 -40 234q0 160 54 295t145 234q91 98 211 153t249 55q86 0 166 -30q80 -31 144 -88q63 -57 107 -140q44 -82 60 -182h-77q-37 178 -148 274q-110 95 -260 95z" />
    <glyph glyph-name="uni0422" unicode="&#x422;" horiz-adv-x="972" 
d="M279 1290h870l-14 -71h-400l-213 -1219h-71l213 1219h-400z" />
    <glyph glyph-name="uni0423" unicode="&#x423;" horiz-adv-x="1011" 
d="M1184 1290l-672 -1075q-41 -68 -77 -113t-69.5 -72.5t-68.5 -38.5t-78 -11q-39 0 -69 10q-16 4 -31 10l12 72q12 -6 27 -11q27 -10 63 -10q33 0 58.5 8.5t50 27.5t48 50t52.5 78l102 164l-278 911h74l254 -825h8l510 825h84z" />
    <glyph glyph-name="uni0424" unicode="&#x424;" horiz-adv-x="1443" 
d="M715 174q-129 4 -225.5 41t-160 97.5t-95 138t-31.5 163.5q0 117 45 215.5t132 170t215 112.5t294 45l24 133h72l-24 -133q129 -4 225 -41t160.5 -97.5t96.5 -138t32 -163.5q0 -117 -45.5 -215.5t-132.5 -170t-215 -112.5t-296 -45l-30 -184h-72zM877 1085
q-141 0 -253 -34.5t-190 -97t-119 -146.5t-41 -182q0 -82 30 -152t87.5 -120t142 -78.5t195.5 -28.5zM801 246q141 0 252.5 34.5t189.5 97t119 146.5t41 183q0 82 -30 150.5t-87 119.5t-142 79.5t-196 28.5z" />
    <glyph glyph-name="uni0425" unicode="&#x425;" horiz-adv-x="1048" 
d="M678 649l307 -649h-78l-278 590l-484 -590h-88l539 657l-297 633h78l270 -573l469 573h88z" />
    <glyph glyph-name="uni0426" unicode="&#x426;" horiz-adv-x="1239" 
d="M174 0l227 1290h72l-215 -1218h707l215 1218h71l-215 -1218h154l-64 -359h-71l51 287h-932z" />
    <glyph glyph-name="uni0427" unicode="&#x427;" horiz-adv-x="1157" 
d="M1210 1290l-227 -1290h-72l90 522q-37 -29 -90 -51q-45 -20 -108.5 -35.5t-145.5 -15.5q-170 0 -265 97t-95 255q0 23 2 46.5t6 45.5l76 426h72l-72 -403q-4 -29 -7 -54.5t-3 -50.5q0 -141 78.5 -215.5t220.5 -74.5q80 0 144.5 19t109.5 44q53 27 94 63l121 672h71z" />
    <glyph glyph-name="uni0428" unicode="&#x428;" horiz-adv-x="1669" 
d="M473 1290l-215 -1218h553l215 1218h72l-215 -1218h553l215 1218h71l-227 -1290h-1321l227 1290h72z" />
    <glyph glyph-name="uni0429" unicode="&#x429;" horiz-adv-x="1710" 
d="M473 1290l-215 -1218h553l215 1218h72l-215 -1218h553l215 1218h71l-215 -1218h154l-64 -359h-71l51 287h-1403l227 1290h72z" />
    <glyph glyph-name="uni042A" unicode="&#x42a;" horiz-adv-x="1187" 
d="M823 778q80 0 143.5 -27.5t108.5 -74.5t69.5 -110.5t24.5 -135.5q0 -96 -31.5 -175t-95 -136.5t-155.5 -88t-211 -30.5h-359l213 1219h-317l14 71h389l-90 -512h297zM401 72h287q90 0 165 23.5t129 68.5t84 109.5t30 146.5q0 59 -18.5 111.5t-55.5 91.5t-90 61.5
t-123 22.5h-297z" />
    <glyph glyph-name="uni042B" unicode="&#x42b;" horiz-adv-x="1413" 
d="M1395 1290h71l-227 -1290h-72zM680 778q80 0 143.5 -27.5t108.5 -74.5t69.5 -110.5t24.5 -135.5q0 -96 -31.5 -175t-95 -136.5t-156 -88t-211.5 -30.5h-358l227 1290h72l-90 -512h297zM258 72h287q90 0 164.5 23.5t129 68.5t84 109.5t29.5 146.5q0 59 -18.5 111.5
t-55 91.5t-90 61.5t-122.5 22.5h-297z" />
    <glyph glyph-name="uni042C" unicode="&#x42c;" horiz-adv-x="1064" 
d="M383 778h317q80 0 143.5 -27.5t108.5 -74.5t70 -110.5t25 -135.5q0 -96 -32 -175t-95.5 -136.5t-155.5 -88t-211 -30.5h-379l227 1290h72zM369 707l-111 -635h307q90 0 165 23.5t129 68.5t84 109.5t30 146.5q0 59 -18.5 111.5t-55.5 91.5t-90 61.5t-123 22.5h-317z" />
    <glyph glyph-name="uni042D" unicode="&#x42d;" horiz-adv-x="1290" 
d="M674 686h565v33q0 117 -35 211t-95 160.5t-141 102.5t-175 36q-143 0 -270.5 -91t-203.5 -247h-79q43 92 102 168t132 130t156 82.5t171 28.5q104 0 197.5 -40.5t163 -116.5t109.5 -181.5t40 -234.5q0 -160 -54.5 -295t-145.5 -233.5t-211 -153.5t-249 -55
q-84 0 -157.5 28.5t-134 82t-103.5 129t-66 169.5h74q41 -162 146.5 -250t248.5 -88q100 0 195.5 41t173.5 115t131 175.5t72 221.5h-572z" />
    <glyph glyph-name="uni042E" unicode="&#x42e;" horiz-adv-x="1710" 
d="M365 676h237q18 137 75.5 251.5t143.5 197.5t193.5 129t228.5 46q104 0 195.5 -40.5t159 -116.5t106.5 -181.5t39 -234.5q0 -160 -52.5 -295t-141.5 -233.5t-206.5 -153.5t-248.5 -55q-104 0 -195.5 41t-159 116.5t-106.5 181t-39 234.5v41h-242l-106 -604h-72l227 1290
h72zM1102 61q111 0 214 50.5t182 138.5t126 209t47 260q0 117 -32.5 211t-91 160.5t-138.5 102.5t-174 36q-111 0 -214 -50.5t-182 -138.5t-126 -208.5t-47 -260.5q0 -117 32.5 -211t91 -160.5t138.5 -102.5t174 -36z" />
    <glyph glyph-name="uni042F" unicode="&#x42f;" horiz-adv-x="1116" 
d="M532 567q-104 29 -174.5 109t-70.5 201q0 92 31.5 168.5t89 131t136.5 84t175 29.5h450l-227 -1290h-72l97 553h-361l-428 -553h-86zM1083 1219h-378q-68 0 -129.5 -22.5t-109.5 -64.5t-76 -100.5t-28 -130.5q0 -129 76 -202.5t224 -73.5h317z" />
    <glyph glyph-name="uni0430" unicode="&#x430;" horiz-adv-x="921" 
d="M438 61q68 0 125 26t103 70q45 44 74 104q30 60 42 130l13 70h-123q-127 0 -217 -16q-90 -15 -147 -44q-56 -29 -82 -69q-26 -41 -25 -92q0 -80 58 -129q58 -50 179 -50zM598 911q61 0 115 -20q53 -20 94 -56t64 -85q24 -49 24 -109q0 -31 -6 -57l-103 -584h-47v133h-10
q-33 -41 -76 -72q-39 -29 -94 -50q-55 -22 -133 -21q-143 0 -220 66q-77 67 -77 171q0 70 31 127t97 97q67 39 172 60q105 22 255 21h123l10 52q4 14 4 25v24q0 92 -67 149q-68 57 -168 58q-104 0 -176 -49t-101 -136h-73q12 53 44 101q32 47 78 82q47 35 108 54
q60 19 132 19z" />
    <glyph glyph-name="uni0431" unicode="&#x431;" horiz-adv-x="993" 
d="M287 674q33 55 84 98q43 37 109.5 67.5t162.5 30.5q74 0 137.5 -27.5t111.5 -76.5t75.5 -116.5t27.5 -145.5q0 -115 -35.5 -209t-97 -161.5t-143.5 -105.5t-174 -38q-76 0 -143.5 27.5t-118 81t-80 134t-29.5 189.5q0 31 4 58.5t8 62.5q27 205 88.5 346t165 229t253 130
t354.5 52l-13 -71q-178 -6 -306 -40t-217 -100.5t-144.5 -169t-90.5 -245.5h11zM631 799q-84 0 -152.5 -36t-120 -94.5t-79 -130t-27.5 -143.5q0 -78 22.5 -139t62.5 -104t95 -67t121 -24q72 0 138.5 31t117.5 88.5t82 135t31 173.5q0 143 -81 226.5t-210 83.5z" />
    <glyph glyph-name="uni0432" unicode="&#x432;" horiz-adv-x="880" 
d="M713 465q37 -14 65 -41q25 -23 46.5 -60.5t21.5 -93.5q0 -119 -81 -194.5t-233 -75.5h-389l158 901h336q61 0 108.5 -17.5t79 -46t48 -66.5t16.5 -81q0 -86 -49 -147.5t-127 -77.5zM360 829l-57 -327h287q106 0 165.5 49t59.5 131q0 63 -46 105t-144 42h-265zM291 430
l-64 -358h318q111 0 169 53t58 131q0 74 -46 124t-138 50h-297z" />
    <glyph glyph-name="uni0433" unicode="&#x433;" horiz-adv-x="737" 
d="M842 829h-482l-145 -829h-72l158 901h553z" />
    <glyph glyph-name="uni0434" unicode="&#x434;" horiz-adv-x="983" 
d="M944 72l-55 -308h-72l43 236h-799l-43 -236h-69l53 308h61q29 10 58 37q25 23 51.5 64.5t48.5 113.5l182 614h543l-145 -829h143zM295 287q-23 -72 -45.5 -115t-42.5 -66q-23 -27 -45 -34h567l133 757h-407z" />
    <glyph glyph-name="uni0435" unicode="&#x435;" horiz-adv-x="983" 
d="M920 225q-27 -43 -65 -85t-89 -75q-51 -34 -113 -55q-61 -20 -133 -20q-78 0 -145 30q-68 31 -117 85t-78 129t-28 163q0 111 41 204t107 163q67 70 152 108q85 39 175 39q76 0 143 -26q68 -27 117 -74t78 -113t28 -141q0 -33 -4 -57q-4 -25 -8 -43q-6 -23 -10 -37h-746
v-17q0 -78 23 -140t62 -107q40 -45 98 -70q57 -25 124 -25q53 0 101 15q47 14 85 38t67 53q30 30 51 58h84zM623 840q-68 0 -131 -28t-116 -75q-52 -47 -89 -110t-51 -135h677q0 8 2 16q0 8 1 17t2 20q0 66 -23 120t-61 93q-39 39 -94 60q-54 22 -117 22z" />
    <glyph glyph-name="uni0436" unicode="&#x436;" horiz-adv-x="1179" 
d="M1176 0h-95l-368 471l-82 -471h-72l158 901h71l-75 -430l485 430h100l-493 -434zM549 475l-336 426h94l334 -430l-532 -471h-101z" />
    <glyph glyph-name="uni0437" unicode="&#x437;" horiz-adv-x="768" 
d="M596 463q37 -14 68 -41q27 -23 48 -64t21 -102q0 -115 -84 -190.5t-237 -75.5q-68 0 -123.5 19.5t-94 53t-59 77.5t-20.5 93v21q0 6 2 12h71q2 -106 64.5 -155.5t171.5 -49.5q115 0 175 53.5t60 131.5q0 37 -11 69.5t-33.5 58t-60.5 41t-89 15.5h-92l12 72h82
q115 0 181.5 49t66.5 125q0 70 -50.5 117t-164.5 47q-98 0 -164 -48.5t-86 -125.5h-72q23 109 111 177t223 68q68 0 119 -18.5t86 -49t52 -70.5t17 -85q0 -72 -30.5 -116t-65.5 -68q-41 -29 -94 -41z" />
    <glyph glyph-name="uni0438" unicode="&#x438;" horiz-adv-x="1013" 
d="M1028 901l-158 -901h-71l135 772l-729 -772h-62l158 901h72l-137 -772l731 772h61z" />
    <glyph glyph-name="uni0439" unicode="&#x439;" horiz-adv-x="1013" 
d="M1028 901l-158 -901h-71l135 772l-729 -772h-62l158 901h72l-137 -772l731 772h61zM678 1085q66 0 118 41t62 103h64q-12 -90 -82 -148q-70 -57 -170 -57q-43 0 -81 14t-66 40t-43 61t-15 73v17h63q0 -66 39 -105t111 -39z" />
    <glyph glyph-name="uni043A" unicode="&#x43a;" horiz-adv-x="794" 
d="M803 0h-96l-410 471l-82 -471h-72l158 901h72l-76 -430l526 430h103l-529 -436z" />
    <glyph glyph-name="uni043B" unicode="&#x43b;" 
d="M977 901l-158 -901h-71l145 829h-426l-139 -530q-25 -90 -51.5 -150.5t-60.5 -95.5t-75 -49t-92 -14q-23 0 -43 4q-8 2 -16 6l10 61h51q39 0 69 11.5t54.5 40t45 76t38.5 118.5l156 594h563z" />
    <glyph glyph-name="uni043C" unicode="&#x43c;" horiz-adv-x="1177" 
d="M567 0l-219 766l-133 -766h-72l158 901h80l227 -799l506 799h88l-158 -901h-71l133 766l-485 -766h-54z" />
    <glyph glyph-name="uni043D" unicode="&#x43d;" horiz-adv-x="1013" 
d="M1028 901l-158 -901h-71l75 430h-583l-76 -430h-72l158 901h72l-70 -399h584l69 399h72z" />
    <glyph glyph-name="uni043E" unicode="&#x43e;" horiz-adv-x="1003" 
d="M535 -10q-80 0 -151 28q-71 29 -123 82t-82 129t-29 168q0 111 40 204q41 93 108 163t152 108q85 39 175 39q80 0 150 -28q71 -29 123 -82t82 -129t30 -168q0 -111 -41 -204t-108 -163t-151 -108q-85 -39 -175 -39zM223 403q0 -160 88 -250q88 -91 228 -92q84 0 156 38
q73 38 126 101q53 62 84 140t31 158q0 160 -88 251t-227 91q-84 0 -157 -38t-126 -101q-53 -62 -84 -140t-31 -158z" />
    <glyph glyph-name="uni043F" unicode="&#x43f;" horiz-adv-x="1013" 
d="M1028 901l-158 -901h-71l145 829h-584l-145 -829h-72l158 901h727z" />
    <glyph glyph-name="uni0440" unicode="&#x440;" horiz-adv-x="1064" 
d="M1081 504q0 -111 -41 -204t-107 -163q-67 -70 -152 -108q-85 -39 -175 -39q-100 0 -165 34t-105 74q-47 49 -74 111h-10l-96 -537h-72l217 1229h51l-10 -172h10q35 51 86 90q43 35 108 64t150 28q80 0 151 -28q71 -29 123 -82t82 -129q29 -76 29 -168zM692 840
q-84 0 -156 -39q-73 -39 -126 -103q-53 -63 -84 -142t-31 -159q0 -160 87 -247q87 -88 228 -89q84 0 157 38t126 101q53 62 84 140t31 158q0 160 -88 251q-89 91 -228 91z" />
    <glyph glyph-name="uni0441" unicode="&#x441;" 
d="M223 403q0 -160 88 -250q88 -91 228 -92q121 0 209 71t137 175h71q-29 -72 -72 -130q-44 -58 -100 -100q-55 -42 -118 -65t-131 -22q-80 0 -151 28q-71 29 -123 82t-82 129t-29 168q0 111 40 204q41 93 108 163t152 108q85 39 175 39q141 0 242 -85t124 -232h-71
q-20 117 -100 181q-79 65 -199 65q-84 0 -157 -38t-126 -101q-53 -62 -84 -140t-31 -158z" />
    <glyph glyph-name="uni0442" unicode="&#x442;" horiz-adv-x="768" 
d="M199 901h686l-13 -72h-307l-145 -829h-72l146 829h-308z" />
    <glyph glyph-name="uni0443" unicode="&#x443;" horiz-adv-x="870" 
d="M188 901h72l178 -768h11l448 768h80l-600 -1024q-35 -59 -66 -100t-61 -67q-31 -26 -67 -37t-81 -11q-16 0 -26 1t-19 3q-8 2 -14 6l12 68q8 -2 19 -4q10 -2 20 -2h23q61 0 101 34t83 109l90 158z" />
    <glyph glyph-name="uni0444" unicode="&#x444;" horiz-adv-x="1402" 
d="M883 829q23 23 55 41q27 16 65.5 28.5t88.5 12.5q63 0 120.5 -26.5t101.5 -75.5t69.5 -116.5t25.5 -149.5q0 -133 -36 -236.5t-96 -174.5t-138 -106.5t-162 -35.5q-59 0 -101 14t-71 33q-33 23 -53 49l-74 -414h-72l72 400q-25 -23 -55 -41q-29 -16 -67 -28.5t-87 -12.5
q-63 0 -120.5 26.5t-101.5 75.5t-69.5 116.5t-25.5 149.5q0 133 35.5 236.5t96 174.5t138.5 106.5t162 35.5q59 0 100 -15t70 -34q33 -23 55 -47l84 475h72zM1079 840q-49 0 -89 -17.5t-68 -40.5q-33 -25 -58 -55l-98 -559q20 -31 51 -53q27 -20 68 -37t100 -17
q61 0 123.5 30t113 89.5t82 146.5t31.5 201q0 147 -72.5 229.5t-183.5 82.5zM481 61q49 0 88 16.5t68 39.5q33 25 59 57l99 559q-20 31 -52 53q-27 20 -67.5 37t-100.5 17q-61 0 -123.5 -30t-112.5 -89t-82 -146.5t-32 -201.5q0 -147 72.5 -229.5t183.5 -82.5z" />
    <glyph glyph-name="uni0445" unicode="&#x445;" horiz-adv-x="819" 
d="M451 467l-232 434h78l201 -379l331 379h86l-385 -440l248 -461h-78l-217 406l-356 -406h-86z" />
    <glyph glyph-name="uni0446" unicode="&#x446;" horiz-adv-x="1034" 
d="M143 0l158 901h72l-146 -829h553l146 829h71l-145 -829h143l-55 -308h-72l43 236h-768z" />
    <glyph glyph-name="uni0447" unicode="&#x447;" horiz-adv-x="931" 
d="M946 901l-158 -901h-71l65 373q-33 -23 -73 -39q-35 -14 -83 -25.5t-104 -11.5q-135 0 -214 79t-79 202q0 35 7 71l45 252h71l-45 -252q-6 -35 -6 -61q0 -100 61.5 -159.5t169.5 -59.5q57 0 106.5 14t84.5 31q41 20 74 47l77 440h72z" />
    <glyph glyph-name="uni0448" unicode="&#x448;" horiz-adv-x="1341" 
d="M301 901h72l-146 -829h420l146 829h71l-145 -829h420l145 829h72l-158 -901h-1055z" />
    <glyph glyph-name="uni0449" unicode="&#x449;" horiz-adv-x="1392" 
d="M301 901h72l-146 -829h420l146 829h71l-145 -829h420l145 829h72l-146 -829h144l-56 -308h-71l43 236h-1127z" />
    <glyph glyph-name="uni044A" unicode="&#x44a;" horiz-adv-x="944" 
d="M666 573q66 0 115.5 -20.5t84.5 -55t52.5 -80.5t17.5 -98q0 -154 -91 -236.5t-249 -82.5h-358l145 829h-238l13 72h309l-57 -328h256zM608 72q119 0 187.5 64.5t68.5 170.5q0 39 -11 74t-35.5 61.5t-64.5 43t-100 16.5h-256l-75 -430h286z" />
    <glyph glyph-name="uni044B" unicode="&#x44b;" horiz-adv-x="1146" 
d="M1090 901h71l-157 -901h-72zM551 573q66 0 116 -20.5t84.5 -55t52 -80.5t17.5 -98q0 -154 -91 -236.5t-249 -82.5h-338l158 901h72l-58 -328h236zM494 72q119 0 187.5 64.5t68.5 170.5q0 39 -11.5 74t-36 61.5t-64.5 43t-99 16.5h-236l-76 -430h267z" />
    <glyph glyph-name="uni044C" unicode="&#x44c;" horiz-adv-x="849" 
d="M571 573q66 0 116 -20.5t85 -55t52.5 -80.5t17.5 -98q0 -154 -91.5 -236.5t-248.5 -82.5h-359l158 901h72l-58 -328h256zM514 72q119 0 187.5 64.5t68.5 170.5q0 39 -11 74t-36 61.5t-65 43t-99 16.5h-256l-76 -430h287z" />
    <glyph glyph-name="uni044D" unicode="&#x44d;" horiz-adv-x="952" 
d="M485 492h398q2 86 -20.5 150.5t-65.5 108.5t-101.5 66.5t-128.5 22.5q-117 0 -204 -65.5t-136 -170.5h-71q29 72 72.5 128t99 96t117 61.5t126.5 21.5q80 0 151 -28.5t123 -81.5t81.5 -129t29.5 -168q0 -111 -41 -204t-107.5 -162.5t-151.5 -108.5t-175 -39
q-68 0 -128 20.5t-108 60.5t-81 96t-43 130h72q23 -117 99.5 -176.5t192.5 -59.5q74 0 139.5 30t117 79t86 113.5t46.5 136.5h-401z" />
    <glyph glyph-name="uni044E" unicode="&#x44e;" horiz-adv-x="1269" 
d="M831 -10q-76 0 -140 28.5t-112.5 82t-75 129t-26.5 167.5v23h-188l-74 -420h-72l158 901h72l-72 -409h184q14 92 56.5 168.5t101.5 132t131 87t148 31.5t140 -28.5t111.5 -81.5t75 -129t27.5 -168q0 -111 -38 -204t-100.5 -162.5t-142.5 -108.5t-164 -39zM1202 498
q0 160 -77.5 251t-206.5 91q-80 0 -146.5 -38t-116 -100.5t-77 -140.5t-27.5 -158q0 -160 78 -251t207 -91q80 0 146.5 38t115.5 100.5t76.5 140.5t27.5 158z" />
    <glyph glyph-name="uni044F" unicode="&#x44f;" horiz-adv-x="901" 
d="M397 358q-98 25 -144 92.5t-46 145.5q0 68 24.5 124t67.5 96t101.5 62.5t125.5 22.5h389l-157 -901h-72l59 348h-253h-21l-301 -348h-88zM760 420l71 409h-317q-104 0 -168.5 -60t-64.5 -157q0 -82 48 -137t154 -55h277z" />
    <glyph glyph-name="uni0451" unicode="&#x451;" horiz-adv-x="983" 
d="M461 1178q0 25 18 43t47 18q25 0 41 -18t17 -43q0 -25 -19 -43q-18 -18 -47 -19q-25 0 -41 19q-16 18 -16 43zM758 1178q0 25 18 43t47 18q25 0 41 -18t17 -43q0 -25 -19 -43q-18 -18 -47 -19q-25 0 -41 19q-16 18 -16 43zM920 225q-27 -43 -65 -85t-89 -75
q-51 -34 -113 -55q-61 -20 -133 -20q-78 0 -145 30q-68 31 -117 85t-78 129t-28 163q0 111 41 204t107 163q67 70 152 108q85 39 175 39q76 0 143 -26q68 -27 117 -74t78 -113t28 -141q0 -33 -4 -57q-4 -25 -8 -43q-6 -23 -10 -37h-746v-17q0 -78 23 -140t62 -107
q40 -45 98 -70q57 -25 124 -25q53 0 101 15q47 14 85 38t67 53q30 30 51 58h84zM623 840q-68 0 -131 -28t-116 -75q-52 -47 -89 -110t-51 -135h677q0 8 2 16q0 8 1 17t2 20q0 66 -23 120t-61 93q-39 39 -94 60q-54 22 -117 22z" />
    <glyph glyph-name="uni0452" unicode="&#x452;" horiz-adv-x="993" 
d="M668 829q70 0 126 -28.5t95 -77.5t60.5 -112.5t21.5 -133.5q0 -104 -29 -199.5t-84 -170t-138 -124t-192 -57.5l15 74q61 4 123.5 35t113.5 88t84 143t33 201q0 129 -63.5 210t-188.5 81q-61 0 -117.5 -26.5t-101.5 -74t-77 -113t-44 -141.5l-69 -403h-72l178 1014h-164
l12 71h164l37 205h72l-37 -205h317l-12 -71h-317l-58 -328h11q31 39 73 72q37 27 93.5 49t134.5 22z" />
    <glyph glyph-name="uni0453" unicode="&#x453;" horiz-adv-x="737" 
d="M842 829h-482l-145 -829h-72l158 901h553zM729 1311h107l-209 -246h-66z" />
    <glyph glyph-name="uni0454" unicode="&#x454;" 
d="M223 403q0 -160 88 -251t228 -91q121 0 209 71t137 175h71q-29 -72 -72.5 -130t-99 -100t-119 -64.5t-130.5 -22.5q-80 0 -151 28.5t-123 82t-81.5 129t-29.5 167.5q0 111 40.5 204t107.5 163t152 108.5t175 38.5q141 0 242.5 -85t123.5 -232h-71q-20 117 -99.5 181.5
t-199.5 64.5q-74 0 -138.5 -29t-115 -77t-86 -111.5t-50.5 -130.5h408l-12 -72h-404v-17v0z" />
    <glyph glyph-name="uni0455" unicode="&#x455;" horiz-adv-x="798" 
d="M764 229q0 -119 -90 -179t-225 -60q-76 0 -136 22q-59 23 -101 61t-64 88t-21 105h72q0 -88 66 -147q67 -59 188 -60q100 0 169 40t68 118q0 57 -35 95t-88 66t-113 53q-60 26 -114 57q-53 32 -88 76t-35 112q0 104 83 170t220 65q68 0 124 -20t96 -56t63 -82t22 -98h-71
q-2 80 -62 132q-59 52 -176 53q-106 0 -166 -46q-59 -46 -59 -112q0 -55 35 -91t88 -64t113 -51q60 -24 114 -55q53 -32 88 -77t35 -115z" />
    <glyph glyph-name="uni0456" unicode="&#x456;" horiz-adv-x="358" 
d="M332 1188q0 25 18 43t47 18q25 0 41 -18t17 -43q0 -25 -19 -43q-18 -18 -47 -19q-25 0 -41 19q-16 18 -16 43zM215 0h-72l158 901h72z" />
    <glyph glyph-name="uni0457" unicode="&#x457;" horiz-adv-x="358" 
d="M215 0h-72l158 901h72zM154 1178q0 25 18 43t47 18q25 0 41 -18t16 -43t-18 -43t-47 -19q-25 0 -41 19q-16 18 -16 43zM451 1178q0 25 18 43t47 18q25 0 41 -18t16 -43t-18 -43t-47 -19q-25 0 -41 19q-16 18 -16 43z" />
    <glyph glyph-name="uni0458" unicode="&#x458;" horiz-adv-x="358" 
d="M301 901h72l-172 -983q-23 -131 -93 -193q-71 -62 -169 -63q-41 0 -66 10q-12 4 -20 11l10 61q8 -4 18 -6t25 -3q14 -1 37 -1q68 0 118 46q51 46 68 138zM332 1188q0 25 18 43t47 18q25 0 41 -18t17 -43q0 -25 -19 -43q-18 -18 -47 -19q-25 0 -41 19q-16 18 -16 43z" />
    <glyph glyph-name="uni0459" unicode="&#x459;" horiz-adv-x="1402" 
d="M936 901l-62 -348h248q66 0 116 -20.5t85 -54.5t52.5 -78t17.5 -91q0 -147 -91.5 -228t-248.5 -81h-346l145 829h-385l-139 -530q-25 -90 -51.5 -150.5t-60.5 -95.5t-75 -49t-92 -14q-23 0 -43 4q-8 2 -16 6l10 61h51q39 0 69 11.5t54.5 40t45 76t38.5 118.5l156 594h522
zM862 481l-71 -409h274q119 0 187.5 63.5t68.5 161.5q0 35 -11.5 67.5t-36 59.5t-64.5 42t-99 15h-248z" />
    <glyph glyph-name="uni045A" unicode="&#x45a;" horiz-adv-x="1454" 
d="M987 901l-61 -348h248q66 0 115.5 -20.5t84.5 -54.5t52.5 -78t17.5 -91q0 -147 -91 -228t-249 -81h-346l84 481h-543l-84 -481h-72l158 901h72l-62 -348h543l61 348h72zM913 481l-71 -409h274q119 0 187.5 63.5t68.5 161.5q0 35 -11 67.5t-36 59.5t-64.5 42t-99.5 15
h-248z" />
    <glyph glyph-name="uni045B" unicode="&#x45b;" horiz-adv-x="1034" 
d="M668 829q139 0 221 -91t82 -242q0 -25 -4 -50.5t-9 -52.5l-67 -393h-72l68 393q4 25 7 48.5t3 45.5q0 123 -64.5 197t-187.5 74q-61 0 -117.5 -26.5t-101.5 -74t-77 -113t-44 -141.5l-69 -403h-72l178 1014h-164l12 71h164l37 205h72l-37 -205h317l-12 -71h-317l-58 -328
h11q31 39 73 72q37 27 93.5 49t134.5 22z" />
    <glyph glyph-name="uni045C" unicode="&#x45c;" horiz-adv-x="794" 
d="M803 0h-96l-410 471l-82 -471h-72l158 901h72l-76 -430l526 430h103l-529 -436zM739 1311h107l-209 -246h-66z" />
    <glyph glyph-name="uni045E" unicode="&#x45e;" horiz-adv-x="870" 
d="M606 1096q66 0 118 41t62 102h64q-12 -90 -82 -147t-170 -58q-43 0 -81 15q-38 14 -65 40q-28 26 -43 60q-15 35 -16 74v16h64q0 -66 39 -104q38 -39 110 -39zM188 901h72l178 -768h11l448 768h80l-600 -1024q-35 -59 -66 -100t-61 -67q-31 -26 -67 -37t-81 -11
q-16 0 -26 1t-19 3q-8 2 -14 6l12 68q8 -2 19 -4q10 -2 20 -2h23q61 0 101 34t83 109l90 158z" />
    <glyph glyph-name="uni045F" unicode="&#x45f;" horiz-adv-x="993" 
d="M461 0h-318l158 901h72l-146 -829h564l145 829h72l-158 -901h-318l-43 -236h-71z" />
    <glyph glyph-name="uni0490" unicode="&#x490;" horiz-adv-x="921" 
d="M459 1219l-213 -1219h-72l227 1290h635l39 226h72l-53 -297h-635z" />
    <glyph glyph-name="uni0491" unicode="&#x491;" horiz-adv-x="737" 
d="M842 829h-482l-145 -829h-72l158 901h481l37 205h72z" />
    <glyph glyph-name="uni1E9E" unicode="&#x1e9e;" horiz-adv-x="1198" 
d="M1247 1219l-409 -482q74 0 136 -26q62 -27 106 -71t70 -103t26 -123q0 -90 -31 -166t-88 -131t-138 -86t-182 -31h-153l12 72h154q80 0 144 24q65 25 111 69t71 104q26 60 26 130q0 59 -21 109q-20 49 -55 84t-85 54t-107 20h-93l13 71l409 482h-438q-131 0 -212 -79
t-105 -218l-162 -922h-72l162 922q31 178 132 273t271 95h523z" />
    <glyph glyph-name="endash" unicode="&#x2013;" horiz-adv-x="921" 
d="M946 492h-799l13 71h798z" />
    <glyph glyph-name="emdash" unicode="&#x2014;" horiz-adv-x="1413" 
d="M1438 492h-1291l13 71h1290z" />
    <glyph glyph-name="quoteleft" unicode="&#x2018;" horiz-adv-x="307" 
d="M340 993q-27 0 -45.5 19.5t-18.5 60.5q0 47 21.5 87t50.5 69q31 35 72 61l18 -20q-20 -20 -41 -43q-16 -20 -32.5 -48t-22.5 -63q25 0 41 -17.5t16 -41.5q0 -29 -18 -46.5t-41 -17.5z" />
    <glyph glyph-name="quoteright" unicode="&#x2019;" horiz-adv-x="307" 
d="M369 1300q27 0 45 -19t18 -60q0 -47 -22.5 -87t-49.5 -69q-33 -35 -71 -61l-19 20q20 20 41 43q16 20 31.5 48t24.5 63q-25 0 -41.5 17t-16.5 42q0 29 18.5 46t41.5 17z" />
    <glyph glyph-name="quotesinglbase" unicode="&#x201a;" horiz-adv-x="307" 
d="M160 113q27 0 45 -19.5t18 -60.5q0 -47 -22.5 -87t-48.5 -69q-33 -35 -72 -61l-19 20q20 20 41 43q16 20 32 48t24 63q-25 0 -41.5 17.5t-16.5 41.5q0 29 18.5 46.5t41.5 17.5z" />
    <glyph glyph-name="quotedblleft" unicode="&#x201c;" horiz-adv-x="542" 
d="M575 993q-27 0 -45 19.5t-18 60.5q0 47 21.5 87t50.5 69q31 35 71 61l19 -20q-20 -20 -41 -43q-16 -20 -32.5 -48t-22.5 -63q25 0 41 -17.5t16 -41.5q0 -29 -18.5 -46.5t-41.5 -17.5zM340 993q-27 0 -45.5 19.5t-18.5 60.5q0 47 21.5 87t50.5 69q31 35 72 61l18 -20
q-20 -20 -41 -43q-16 -20 -32.5 -48t-22.5 -63q25 0 41 -17.5t16 -41.5q0 -29 -18 -46.5t-41 -17.5z" />
    <glyph glyph-name="quotedblright" unicode="&#x201d;" horiz-adv-x="542" 
d="M369 1300q27 0 45 -19t18 -60q0 -47 -22.5 -87t-49.5 -69q-33 -35 -71 -61l-19 20q20 20 41 43q16 20 31.5 48t24.5 63q-25 0 -41.5 17t-16.5 42q0 29 18.5 46t41.5 17zM604 1300q27 0 45.5 -19t18.5 -60q0 -47 -22.5 -87t-49.5 -69q-33 -35 -72 -61l-18 20q20 20 41 43
q16 20 31.5 48t23.5 63q-25 0 -41 17t-16 42q0 29 18 46t41 17z" />
    <glyph glyph-name="quotedblbase" unicode="&#x201e;" horiz-adv-x="542" 
d="M160 113q27 0 45 -19.5t18 -60.5q0 -47 -22.5 -87t-48.5 -69q-33 -35 -72 -61l-19 20q20 20 41 43q16 20 32 48t24 63q-25 0 -41.5 17.5t-16.5 41.5q0 29 18.5 46.5t41.5 17.5zM395 113q27 0 45.5 -19.5t18.5 -60.5q0 -47 -22.5 -87t-49.5 -69q-33 -35 -72 -61l-18 20
q20 20 41 43q16 20 31.5 48t23.5 63q-25 0 -41 17.5t-16 41.5q0 29 18 46.5t41 17.5z" />
    <glyph glyph-name="dagger" unicode="&#x2020;" horiz-adv-x="696" 
d="M496 1018l49 272h61l-49 -272h236l-11 -62h-235l-105 -587h-61l104 587h-235l10 62h236z" />
    <glyph glyph-name="daggerdbl" unicode="&#x2021;" horiz-adv-x="696" 
d="M492 645l-50 -276h-61l49 276h-235l10 62h235l43 245h-235l12 62h236l49 276h61l-49 -276h236l-13 -62h-235l-43 -245h235l-10 -62h-235z" />
    <glyph glyph-name="bullet" unicode="&#x2022;" horiz-adv-x="696" 
d="M322 543q0 53 37.5 93t97.5 40q45 0 78.5 -33t33.5 -80q0 -53 -37.5 -93t-97.5 -40q-45 0 -78.5 33t-33.5 80z" />
    <glyph glyph-name="ellipsis" unicode="&#x2026;" horiz-adv-x="921" 
d="M166 113q25 0 41 -17.5t16 -42.5q0 -29 -18.5 -46t-46.5 -17q-25 0 -41.5 17.5t-16.5 41.5q0 29 18.5 46.5t47.5 17.5zM473 113q25 0 41 -17.5t16 -42.5q0 -29 -18 -46t-47 -17q-25 0 -41 17.5t-16 41.5q0 29 18 46.5t47 17.5zM780 113q25 0 41.5 -17.5t16.5 -42.5
q0 -29 -18.5 -46t-47.5 -17q-25 0 -41 17.5t-16 41.5q0 29 18 46.5t47 17.5z" />
    <glyph glyph-name="perthousand" unicode="&#x2030;" horiz-adv-x="1781" 
d="M240 999q0 61 20.5 114.5t58 92.5t90 61.5t115.5 22.5q45 0 84 -17.5t68 -48t46 -70.5t17 -85q0 -61 -20.5 -114.5t-58 -92.5t-90 -61.5t-115.5 -22.5q-45 0 -84 17.5t-69 48t-46 70.5t-16 85zM1206 291q0 -61 -20.5 -114.5t-58 -92.5t-90 -61.5t-115.5 -22.5
q-45 0 -84 17.5t-69 48t-46 70.5t-16 85q0 61 20.5 114.5t58 92.5t90 61.5t115.5 22.5q45 0 84 -17.5t67.5 -48t46 -70.5t17.5 -85zM1188 1290h86l-1016 -1290h-86zM666 1055q0 72 -43 118t-113 46q-86 0 -141.5 -58.5t-55.5 -146.5q0 -72 43 -118t113 -46q86 0 141.5 58.5
t55.5 146.5zM936 72q86 0 141.5 58t55.5 146q0 72 -43 118t-113 46q-86 0 -141.5 -58t-55.5 -146q0 -72 43 -118t113 -46zM1769 291q0 -61 -20 -114.5t-58 -92.5t-90.5 -61.5t-115.5 -22.5q-45 0 -84 17.5t-68.5 48t-46 70.5t-16.5 85q0 61 20.5 114.5t58 92.5t90 61.5
t115.5 22.5q45 0 84 -17.5t68 -48t46 -70.5t17 -85zM1499 72q86 0 141.5 58t55.5 146q0 72 -43 118t-113 46q-86 0 -141.5 -58t-55.5 -146q0 -72 43 -118t113 -46z" />
    <glyph glyph-name="guilsinglleft" unicode="&#x2039;" horiz-adv-x="471" 
d="M246 457l168 -314h-82l-170 318l282 317h86z" />
    <glyph glyph-name="guilsinglright" unicode="&#x203a;" horiz-adv-x="471" 
d="M385 465l-168 313h82l170 -317l-283 -318h-86z" />
    <glyph glyph-name="fraction" unicode="&#x2044;" horiz-adv-x="174" 
d="M668 1290h82l-1016 -1290h-82z" />
    <glyph glyph-name="uni2070" unicode="&#x2070;" horiz-adv-x="598" 
d="M262 1122q0 74 21.5 140.5t59.5 115.5t88 78t108 29q88 0 147 -67.5t59 -184.5q0 -74 -21.5 -140.5t-59 -115.5t-88 -78t-107.5 -29q-88 0 -147.5 67.5t-59.5 184.5zM684 1223q0 94 -41 147t-111 53q-41 0 -78.5 -23.5t-66.5 -63.5t-46 -93t-17 -110q0 -94 41 -147.5
t110 -53.5q41 0 79 23.5t66.5 63.5t46 93.5t17.5 110.5z" />
    <glyph glyph-name="uni2074" unicode="&#x2074;" horiz-adv-x="481" 
d="M524 1065h82l-10 -61h-82l-22 -123h-62l23 123h-277l10 61l338 410h72zM463 1065l57 315l-260 -315h203z" />
    <glyph glyph-name="uni2075" unicode="&#x2075;" horiz-adv-x="522" 
d="M487 1260q72 0 118 -48.5t46 -119.5q0 -98 -58 -160t-163 -62q-80 0 -128 45.5t-48 104.5v14h61q0 -53 36 -77.5t89 -24.5q66 0 107 40t41 111q0 53 -30 84t-91 31q-35 0 -57.5 -11t-38.5 -26q-18 -16 -31 -35h-61l102 349h307l-10 -62h-256l-53 -188q10 8 28 16
q14 6 36.5 12.5t53.5 6.5z" />
    <glyph glyph-name="uni2076" unicode="&#x2076;" horiz-adv-x="512" 
d="M424 870q-78 0 -129 50.5t-51 119.5q0 41 12 76t30.5 63.5t40 53t40.5 47.5l163 195h76l-194 -226l16 4t19.5 4.5t27.5 2.5q68 0 117 -47.5t49 -118.5q0 -98 -59.5 -161t-157.5 -63zM453 1198q-55 0 -100.5 -40t-45.5 -103q0 -55 35 -89t92 -34q63 0 103.5 42t40.5 103
q0 53 -31 87t-94 34z" />
    <glyph glyph-name="uni2077" unicode="&#x2077;" horiz-adv-x="471" 
d="M371 1475h368l-8 -52l-352 -542h-74l346 532h-291z" />
    <glyph glyph-name="uni2078" unicode="&#x2078;" horiz-adv-x="512" 
d="M506 1485q68 0 113 -43t45 -107q0 -45 -16.5 -73.5t-37.5 -44.5q-23 -20 -53 -33q20 -12 39 -31q14 -16 26.5 -38.5t12.5 -55.5q0 -86 -57.5 -137.5t-155.5 -51.5q-78 0 -128 46.5t-50 113.5q0 47 19.5 80t41.5 51q27 23 64 35q-16 10 -29 27q-10 14 -19.5 34.5
t-9.5 49.5q0 76 55.5 127t139.5 51zM449 1157q-63 0 -103.5 -33.5t-40.5 -81.5q0 -53 35 -81.5t90 -28.5q63 0 103 33.5t40 81.5q0 49 -32.5 79.5t-91.5 30.5zM496 1423q-55 0 -89 -32.5t-34 -79.5q0 -43 28.5 -67.5t77.5 -24.5q55 0 89 32.5t34 79.5q0 43 -28.5 67.5
t-77.5 24.5z" />
    <glyph glyph-name="uni2079" unicode="&#x2079;" horiz-adv-x="512" 
d="M502 1485q78 0 129 -50.5t51 -119.5q0 -41 -12.5 -76t-30.5 -64.5t-39.5 -54t-40.5 -45.5l-164 -194h-76l195 225q-8 -4 -16 -6q-20 -4 -47 -4q-68 0 -117 47t-49 119q0 98 59.5 160.5t157.5 62.5zM473 1157q55 0 100 40t45 103q0 55 -34.5 89t-91.5 34q-63 0 -103.5 -42
t-40.5 -103q0 -53 31 -87t94 -34z" />
    <glyph glyph-name="uni2080" unicode="&#x2080;" horiz-adv-x="593" 
d="M88 57q0 74 22 141t59 115q38 49 88 78t108 29q88 0 147 -68t59 -184q0 -74 -21 -140q-22 -67 -60 -116t-88 -78t-107 -29q-88 0 -148 68q-59 67 -59 184zM510 158q0 94 -41 147t-111 53q-41 0 -78 -23q-38 -24 -67 -64t-46 -93t-17 -110q0 -94 40 -148q41 -53 111 -53
q41 0 79 23q38 24 66 64q29 40 47 93q17 54 17 111z" />
    <glyph glyph-name="uni2081" unicode="&#x2081;" horiz-adv-x="440" 
d="M164 244l-27 53l193 113h41l-105 -594h-61l90 506z" />
    <glyph glyph-name="uni2082" unicode="&#x2082;" horiz-adv-x="501" 
d="M139 -123h283l-12 -61h-379l10 51l229 203q43 39 74 66q31 28 49 50q18 23 27 42q8 19 8 38q0 45 -30 69t-81 23q-117 0 -143 -112h-61q18 86 73 130t142 44q70 0 115 -42q46 -42 46 -106q0 -63 -43 -112t-124 -121z" />
    <glyph glyph-name="uni2083" unicode="&#x2083;" horiz-adv-x="512" 
d="M379 129q23 -10 43 -27q16 -16 30 -40q13 -24 13 -62q0 -90 -57 -142t-156 -53q-80 0 -129 48q-49 47 -49 112v15h61q0 -113 125 -113q66 0 106 35t40 96q0 47 -32 76t-93 28h-52l11 62h61q63 0 97 29t34 75q0 45 -30 68t-76 22q-53 0 -90 -25q-37 -26 -48 -87h-61
q12 86 70 130q57 44 139 44q68 0 113 -41t45 -105q0 -45 -18 -72q-17 -28 -40 -44q-24 -21 -57 -29z" />
    <glyph glyph-name="uni2084" unicode="&#x2084;" horiz-adv-x="481" 
d="M375 0h82l-11 -61h-81l-23 -123h-61l22 123h-276l10 61l338 410h71zM313 0l58 315l-260 -315h202z" />
    <glyph glyph-name="uni2085" unicode="&#x2085;" horiz-adv-x="522" 
d="M313 195q72 0 118 -49q46 -48 46 -119q0 -98 -58 -160q-58 -61 -163 -62q-80 0 -128 45t-48 105v14h61q0 -53 36 -78t89 -24q66 0 107 40t41 111q0 53 -30 84t-91 31q-35 0 -57 -11q-23 -11 -39 -26q-18 -16 -31 -35h-62l103 349h307l-10 -62h-256l-53 -188q10 8 28 16
q14 6 37 12q22 7 53 7z" />
    <glyph glyph-name="uni2086" unicode="&#x2086;" horiz-adv-x="512" 
d="M250 -195q-78 0 -129 51q-51 50 -51 119q0 41 12 76t31 64q18 29 40 53q22 25 40 47l163 195h76l-194 -226l16 4t19 5q11 2 28 2q68 0 117 -48q49 -47 49 -118q0 -98 -59 -161q-60 -63 -158 -63zM279 133q-55 0 -101 -40q-45 -40 -45 -103q0 -55 35 -89t92 -34
q63 0 104 42q40 42 39 103q0 53 -30 87q-31 34 -94 34z" />
    <glyph glyph-name="uni2087" unicode="&#x2087;" horiz-adv-x="471" 
d="M172 410h369l-9 -52l-352 -542h-74l347 532h-291z" />
    <glyph glyph-name="uni2088" unicode="&#x2088;" horiz-adv-x="512" 
d="M330 420q68 0 112 -43q45 -43 45 -107q0 -45 -16 -73q-16 -29 -37 -45q-23 -20 -53 -33q20 -12 39 -31q14 -16 26 -39t13 -55q0 -86 -58 -137q-57 -51 -155 -52q-78 0 -128 47q-50 46 -50 113q0 47 19 80t42 51q27 23 64 35q-16 10 -29 27q-10 14 -20 35q-9 20 -9 49
q0 76 55 127q56 51 140 51zM272 92q-63 0 -103 -34t-40 -81q0 -53 35 -81q35 -29 90 -29q63 0 103 34t40 81q0 49 -32 79q-34 31 -93 31zM319 358q-55 0 -89 -32q-34 -33 -33 -80q0 -43 28 -68q29 -25 78 -24q55 0 89 32q34 33 34 80q0 43 -29 68q-29 24 -78 24z" />
    <glyph glyph-name="uni2089" unicode="&#x2089;" horiz-adv-x="512" 
d="M324 420q78 0 129 -50t51 -120q0 -41 -12 -76t-31 -64q-18 -30 -40 -55t-40 -45l-164 -194h-76l195 225q-8 -4 -17 -6q-20 -4 -47 -4q-68 0 -116 47q-49 47 -50 119q0 98 60 160q60 63 158 63zM295 92q55 0 100 40t45 104q0 55 -34 89q-35 34 -93 33q-63 0 -103 -42
t-40 -103q0 -53 31 -87t94 -34z" />
    <glyph glyph-name="Euro" unicode="&#x20ac;" horiz-adv-x="1394" 
d="M190 799h132q33 113 96 205t145 157.5t180.5 102t202.5 36.5q86 0 166 -30.5t143.5 -88t107.5 -139t60 -182.5h-77q-37 178 -148 273.5t-260 95.5q-88 0 -171 -32t-155.5 -88t-128 -136t-88.5 -174h494l-12 -72h-502q-4 -23 -8 -47q-4 -23 -6.5 -50.5t-2.5 -58.5v-39h484
l-13 -71h-462q14 -92 54 -167t98.5 -126t131 -79t154.5 -28q74 0 147.5 26t139 74t120 116.5t91.5 152.5h77q-41 -100 -102 -181t-138 -138.5t-164 -89t-179 -31.5q-94 0 -179.5 32.5t-152 94t-112.5 148.5t-60 196h-162l12 71h144v31q0 35 2 65.5t6 53.5q4 25 8 45h-125z
" />
    <glyph glyph-name="uni20B4" unicode="&#x20b4;" horiz-adv-x="1034" 
d="M1096 819l-13 -71h-870l12 71h594q37 20 68 51q27 27 48 67t21 95q0 88 -63.5 142.5t-185.5 54.5q-123 0 -203 -62.5t-103 -162.5h-71q29 131 132 213.5t257 82.5q70 0 128 -20t98 -55t62.5 -81t22.5 -97q0 -59 -17.5 -102.5t-37.5 -72.5q-25 -33 -55 -53h176zM164 471
l12 72h871l-13 -72h-594q-39 -20 -69 -51q-27 -27 -47.5 -68t-20.5 -94q0 -88 63.5 -142.5t186.5 -54.5t203 62.5t102 163.5h72q-29 -131 -132.5 -214t-256.5 -83q-72 0 -129.5 20.5t-97.5 55t-62.5 81t-22.5 97.5q0 59 16.5 102t39.5 72q23 33 55 53h-176z" />
    <glyph glyph-name="uni20BD" unicode="&#x20bd;" horiz-adv-x="1095" 
d="M147 604h185l121 686h358q80 0 145.5 -25.5t112.5 -70.5t72.5 -107.5t25.5 -134.5q0 -201 -123.5 -310.5t-369.5 -109.5h-285l-33 -184h451l-12 -72h-451l-47 -276h-72l47 276h-184l12 72h185l32 184h-184zM686 604q90 0 165 20.5t129 62.5t84 105.5t30 149.5
q0 121 -75 199t-222 78h-287l-107 -615h283z" />
    <glyph glyph-name="uni2116" unicode="&#x2116;" horiz-adv-x="1792" 
d="M1282 1290l-227 -1290h-62l-544 1151l-203 -1151h-72l227 1290h62l543 -1151l204 1151h72zM1251 133h451l-12 -72h-451zM1303 535q0 59 19 111t55 90t87.5 60.5t116.5 22.5q45 0 85 -18.5t70.5 -50t48 -72.5t17.5 -86q0 -59 -19.5 -111.5t-55 -90.5t-87 -60.5
t-116.5 -22.5q-45 0 -85 18.5t-71 50.5t-48 73t-17 86zM1729 580q0 72 -45.5 120t-114.5 48q-84 0 -138.5 -56.5t-54.5 -144.5q0 -72 45 -120t115 -48q84 0 138.5 56.5t54.5 144.5z" />
    <glyph glyph-name="trademark" unicode="&#x2122;" horiz-adv-x="1095" 
d="M645 1229h-174l-80 -461h-61l80 461h-174l12 61h409zM909 922l-123 235l-67 -389h-62l93 522h36l146 -276l244 276h45l-93 -522h-61l68 389l-205 -235h-21z" />
    <glyph glyph-name="arrowleft" unicode="&#x2190;" horiz-adv-x="2048" 
d="M881 1137v-93l-379 -378h1372v-62h-1372l379 -379v-92l-502 502z" />
    <glyph glyph-name="arrowup" unicode="&#x2191;" horiz-adv-x="2048" 
d="M1628 901h-92l-379 379v-1372h-61v1372l-379 -379h-92l501 502z" />
    <glyph glyph-name="arrowright" unicode="&#x2192;" horiz-adv-x="2048" 
d="M1874 635l-502 -502v92l379 379h-1372v62h1372l-379 378v93z" />
    <glyph glyph-name="arrowdown" unicode="&#x2193;" horiz-adv-x="2048" 
d="M1126 -92l-501 502h92l379 -379v1372h61v-1372l379 379h92z" />
    <glyph glyph-name="arrowboth" unicode="&#x2194;" horiz-adv-x="2048" 
d="M379 635l502 502v-93l-379 -378h1249l-379 378v93l502 -502l-502 -502v92l379 379h-1249l379 -379v-92z" />
    <glyph glyph-name="arrowupdn" unicode="&#x2195;" horiz-adv-x="2048" 
d="M1126 -92l-501 502h92l379 -379v1249l-379 -379h-92l501 502l502 -502h-92l-379 379v-1249l379 379h92z" />
    <glyph glyph-name="uni2196" unicode="&#x2196;" horiz-adv-x="2048" 
d="M1669 133l-41 -41l-983 983v-543l-61 -61v707h706l-61 -62h-543z" />
    <glyph glyph-name="uni2197" unicode="&#x2197;" horiz-adv-x="2048" 
d="M1567 1116h-543l-61 62h706v-707l-61 61v543l-983 -983l-41 41z" />
    <glyph glyph-name="uni2198" unicode="&#x2198;" horiz-adv-x="2048" 
d="M584 1137l41 41l983 -983v542l61 62v-707h-706l61 62h543z" />
    <glyph glyph-name="uni2199" unicode="&#x2199;" horiz-adv-x="2048" 
d="M686 154h543l61 -62h-706v707l61 -62v-542l983 983l41 -41z" />
    <glyph glyph-name="minus" unicode="&#x2212;" horiz-adv-x="890" 
d="M915 492h-768l13 71h768z" />
    <glyph glyph-name="approxequal" unicode="&#x2248;" horiz-adv-x="901" 
d="M381 860q61 0 111.5 -28.5t96.5 -63.5t92 -63.5t99 -28.5q66 0 119 45t59 119h62q-4 -53 -25.5 -97.5t-55.5 -75t-77 -47t-88 -16.5q-61 0 -111.5 29t-96.5 63.5t-92 63t-99 28.5q-66 0 -119 -45t-59 -118h-62q4 53 25.5 97t55.5 74.5t76 47t89 16.5zM315 481
q61 0 111.5 -28.5t96.5 -63.5t92.5 -63.5t99.5 -28.5q66 0 119 45t59 119h61q-4 -53 -25.5 -97.5t-55 -75t-76.5 -47t-88 -16.5q-61 0 -111.5 29t-96.5 63.5t-92.5 63.5t-99.5 29q-66 0 -119 -45.5t-59 -118.5h-61q4 53 25.5 97t55 75t75.5 47t89 16z" />
    <glyph glyph-name="notequal" unicode="&#x2260;" horiz-adv-x="911" 
d="M135 369h281l182 307h-408l13 72h436l145 245h78l-145 -245h254l-13 -72h-282l-182 -307h409l-12 -72h-438l-146 -246h-78l146 246h-252z" />
    <glyph glyph-name="lessequal" unicode="&#x2264;" horiz-adv-x="880" 
d="M94 72h717l-12 -72h-717zM846 283l-15 -78l-643 348l7 41l768 348l-15 -86l-635 -287z" />
    <glyph glyph-name="greaterequal" unicode="&#x2265;" horiz-adv-x="880" 
d="M799 0h-717l12 72h717zM233 864l15 78l643 -348l-6 -41l-768 -348l14 86l635 287z" />
    <glyph glyph-name="uni2460" unicode="&#x2460;" horiz-adv-x="2048" 
d="M297 655q0 172 64.5 323.5t177 264.5t264 177.5t323.5 64.5t324 -64.5t264.5 -177.5t177 -264.5t64.5 -323.5t-64.5 -323.5t-177 -264t-264.5 -177t-324 -64.5t-323.5 64.5t-264 177t-177 264t-64.5 323.5zM369 655q0 -158 59 -296t161.5 -240.5t241 -161.5t295.5 -59
q158 0 296.5 59t240.5 161.5t161.5 241t59.5 295.5q0 158 -59.5 296.5t-161.5 240.5t-240.5 161.5t-296.5 59.5t-296 -59.5t-240.5 -161.5t-161.5 -240.5t-59 -296.5zM1219 1065v-819h-72v737l-154 -102l-41 51l195 133h72z" />
    <glyph glyph-name="uni2461" unicode="&#x2461;" horiz-adv-x="2048" 
d="M1382 317v-71h-501v51l317 338q53 59 77.5 100t24.5 94q0 35 -14 67t-37.5 55.5t-55.5 38t-67 14.5q-78 0 -127 -48.5t-57 -126.5h-72q8 109 78 177.5t178 68.5q49 0 94.5 -19.5t79 -53t53 -78.5t19.5 -95q0 -78 -38 -132t-85 -103l-256 -277h389zM297 655
q0 172 64.5 323.5t177 264.5t264 177.5t323.5 64.5t324 -64.5t264.5 -177.5t177 -264.5t64.5 -323.5t-64.5 -323.5t-177 -264t-264.5 -177t-324 -64.5t-323.5 64.5t-264 177t-177 264t-64.5 323.5zM369 655q0 -158 59 -296t161.5 -240.5t241 -161.5t295.5 -59
q158 0 296.5 59t240.5 161.5t161.5 241t59.5 295.5q0 158 -59.5 296.5t-161.5 240.5t-240.5 161.5t-296.5 59.5t-296 -59.5t-240.5 -161.5t-161.5 -240.5t-59 -296.5z" />
    <glyph glyph-name="uni2462" unicode="&#x2462;" horiz-adv-x="2048" 
d="M1260 666q39 -14 71 -39q27 -23 49.5 -61t22.5 -95q0 -47 -20.5 -89t-56.5 -75t-87 -52t-113 -19q-117 0 -188.5 66.5t-87.5 158.5h72q16 -61 67 -107.5t137 -46.5q92 0 148.5 51.5t56.5 112.5t-56 112.5t-149 51.5h-71v72h71q86 0 135.5 46t49.5 107q0 53 -50.5 98.5
t-134.5 45.5q-78 0 -127 -46.5t-57 -107.5h-72q4 45 24.5 86t54.5 71.5t79 49t98 18.5q57 0 104.5 -17.5t81.5 -47t52 -68.5t18 -82q0 -53 -19.5 -88t-41.5 -57q-27 -25 -61 -39v-10zM297 655q0 172 64.5 323.5t177 264.5t264 177.5t323.5 64.5t324 -64.5t264.5 -177.5
t177 -264.5t64.5 -323.5t-64.5 -323.5t-177 -264t-264.5 -177t-324 -64.5t-323.5 64.5t-264 177t-177 264t-64.5 323.5zM369 655q0 -158 59 -296t161.5 -240.5t241 -161.5t295.5 -59q158 0 296.5 59t240.5 161.5t161.5 241t59.5 295.5q0 158 -59.5 296.5t-161.5 240.5
t-240.5 161.5t-296.5 59.5t-296 -59.5t-240.5 -161.5t-161.5 -240.5t-59 -296.5z" />
    <glyph glyph-name="uni2463" unicode="&#x2463;" horiz-adv-x="2048" 
d="M1331 440h-92v-194h-72v194h-389v62l389 563h72v-553h92v-72zM1167 512v440l-307 -440h307zM297 655q0 172 64.5 323.5t177 264.5t264 177.5t323.5 64.5t324 -64.5t264.5 -177.5t177 -264.5t64.5 -323.5t-64.5 -323.5t-177 -264t-264.5 -177t-324 -64.5t-323.5 64.5
t-264 177t-177 264t-64.5 323.5zM369 655q0 -158 59 -296t161.5 -240.5t241 -161.5t295.5 -59q158 0 296.5 59t240.5 161.5t161.5 241t59.5 295.5q0 158 -59.5 296.5t-161.5 240.5t-240.5 161.5t-296.5 59.5t-296 -59.5t-240.5 -161.5t-161.5 -240.5t-59 -296.5z" />
    <glyph glyph-name="uni2464" unicode="&#x2464;" horiz-adv-x="2048" 
d="M1126 768q61 0 112.5 -20.5t87.5 -55.5t56.5 -84t20.5 -106t-20.5 -106.5t-56.5 -84.5t-87 -55t-113 -20q-117 0 -188.5 67.5t-85.5 167.5h70q16 -70 67 -117t137 -47q92 0 148.5 54.5t56.5 140.5t-56 140t-149 54q-47 0 -78.5 -15t-54.5 -32q-25 -20 -41 -45h-71l51 461
h420v-72h-359l-30 -276q18 14 43 24q23 10 52 18.5t68 8.5zM297 655q0 172 64.5 323.5t177 264.5t264 177.5t323.5 64.5t324 -64.5t264.5 -177.5t177 -264.5t64.5 -323.5t-64.5 -323.5t-177 -264t-264.5 -177t-324 -64.5t-323.5 64.5t-264 177t-177 264t-64.5 323.5z
M369 655q0 -158 59 -296t161.5 -240.5t241 -161.5t295.5 -59q158 0 296.5 59t240.5 161.5t161.5 241t59.5 295.5q0 158 -59.5 296.5t-161.5 240.5t-240.5 161.5t-296.5 59.5t-296 -59.5t-240.5 -161.5t-161.5 -240.5t-59 -296.5z" />
    <glyph glyph-name="uni2465" unicode="&#x2465;" horiz-adv-x="2048" 
d="M1126 236q-57 0 -107 21.5t-88 59t-59.5 88t-21.5 107.5q0 39 9 72.5t22 58.5q12 29 30 53l246 369h82l-195 -287q10 2 23 4q10 2 24.5 4t34.5 2q57 0 107.5 -21.5t88.5 -59t59.5 -88t21.5 -107.5t-21.5 -107.5t-59.5 -88t-88.5 -59t-107.5 -21.5zM922 512
q0 -86 59 -145.5t145 -59.5t145.5 59.5t59.5 145.5t-59.5 145.5t-145.5 59.5t-145 -59.5t-59 -145.5zM297 655q0 172 64.5 323.5t177 264.5t264 177.5t323.5 64.5t324 -64.5t264.5 -177.5t177 -264.5t64.5 -323.5t-64.5 -323.5t-177 -264t-264.5 -177t-324 -64.5
t-323.5 64.5t-264 177t-177 264t-64.5 323.5zM369 655q0 -158 59 -296t161.5 -240.5t241 -161.5t295.5 -59q158 0 296.5 59t240.5 161.5t161.5 241t59.5 295.5q0 158 -59.5 296.5t-161.5 240.5t-240.5 161.5t-296.5 59.5t-296 -59.5t-240.5 -161.5t-161.5 -240.5t-59 -296.5
z" />
    <glyph glyph-name="uni2466" unicode="&#x2466;" horiz-adv-x="2048" 
d="M1382 1065v-51l-348 -768h-71l348 747h-420v72h491zM297 655q0 172 64.5 323.5t177 264.5t264 177.5t323.5 64.5t324 -64.5t264.5 -177.5t177 -264.5t64.5 -323.5t-64.5 -323.5t-177 -264t-264.5 -177t-324 -64.5t-323.5 64.5t-264 177t-177 264t-64.5 323.5zM369 655
q0 -158 59 -296t161.5 -240.5t241 -161.5t295.5 -59q158 0 296.5 59t240.5 161.5t161.5 241t59.5 295.5q0 158 -59.5 296.5t-161.5 240.5t-240.5 161.5t-296.5 59.5t-296 -59.5t-240.5 -161.5t-161.5 -240.5t-59 -296.5z" />
    <glyph glyph-name="uni2467" unicode="&#x2467;" horiz-adv-x="2048" 
d="M1126 236q-61 0 -112 19t-87 52t-56.5 75t-20.5 89q0 57 23.5 96t52.5 64q33 29 75 45q-35 16 -61 41q-23 23 -41 54.5t-18 78.5q0 45 18.5 86t51 71.5t77.5 49t98 18.5t98.5 -18.5t78 -49t51 -71.5t18.5 -86q0 -47 -19.5 -79t-41.5 -54q-27 -25 -62 -41q41 -16 76 -45
q29 -25 53.5 -64t24.5 -96q0 -47 -20.5 -89t-56.5 -75t-87.5 -52t-112.5 -19zM1126 645q-92 0 -148 -52t-56 -122q0 -61 56 -112.5t148 -51.5t148.5 51.5t56.5 112.5q0 70 -56.5 122t-148.5 52zM1126 1004q-78 0 -126 -46.5t-48 -107.5q0 -27 12.5 -52.5t36 -46t55 -32.5
t70.5 -12t71 12t54.5 32.5t35.5 46t13 52.5q0 61 -48 107.5t-126 46.5zM297 655q0 172 64.5 323.5t177 264.5t264 177.5t323.5 64.5t324 -64.5t264.5 -177.5t177 -264.5t64.5 -323.5t-64.5 -323.5t-177 -264t-264.5 -177t-324 -64.5t-323.5 64.5t-264 177t-177 264
t-64.5 323.5zM369 655q0 -158 59 -296t161.5 -240.5t241 -161.5t295.5 -59q158 0 296.5 59t240.5 161.5t161.5 241t59.5 295.5q0 158 -59.5 296.5t-161.5 240.5t-240.5 161.5t-296.5 59.5t-296 -59.5t-240.5 -161.5t-161.5 -240.5t-59 -296.5z" />
    <glyph glyph-name="uni2468" unicode="&#x2468;" horiz-adv-x="2048" 
d="M297 655q0 172 64.5 323.5t177 264.5t264 177.5t323.5 64.5t324 -64.5t264.5 -177.5t177 -264.5t64.5 -323.5t-64.5 -323.5t-177 -264t-264.5 -177t-324 -64.5t-323.5 64.5t-264 177t-177 264t-64.5 323.5zM369 655q0 -158 59 -296t161.5 -240.5t241 -161.5t295.5 -59
q158 0 296.5 59t240.5 161.5t161.5 241t59.5 295.5q0 158 -59.5 296.5t-161.5 240.5t-240.5 161.5t-296.5 59.5t-296 -59.5t-240.5 -161.5t-161.5 -240.5t-59 -296.5zM1126 1075q57 0 107.5 -21.5t88.5 -59.5t59.5 -88t21.5 -107q0 -39 -10.5 -73t-20.5 -58q-14 -29 -31 -54
l-245 -368h-82l194 286q-10 -4 -22 -6q-10 -2 -25.5 -3t-34.5 -1q-57 0 -107 21.5t-88 59.5t-59.5 88t-21.5 108q0 57 21.5 107t59.5 88t88 59.5t107 21.5zM1331 799q0 86 -59.5 145.5t-145.5 59.5t-145 -59.5t-59 -145.5t59 -145.5t145 -59.5t145.5 59.5t59.5 145.5z" />
    <glyph glyph-name="uni24EA" unicode="&#x24ea;" horiz-adv-x="2048" 
d="M870 655q0 -88 22.5 -153.5t59.5 -108.5t82 -64.5t92 -21.5q45 0 91.5 21.5t83 64.5t59 108.5t22.5 153.5q0 84 -21.5 149.5t-56 109.5t-81.5 67t-97 23q-49 0 -96 -23t-82 -67t-56.5 -109.5t-21.5 -149.5zM1454 655q0 -104 -28.5 -182t-74.5 -131t-104.5 -79.5
t-120.5 -26.5q-61 0 -120.5 26.5t-105.5 79.5t-73.5 131t-27.5 182q0 100 26.5 178t71.5 131.5t104.5 82t124.5 28.5q66 0 125.5 -28.5t104.5 -82t71.5 -131.5t26.5 -178zM297 655q0 172 64.5 323.5t177 264.5t264 177.5t323.5 64.5t324 -64.5t264.5 -177.5t177 -264.5
t64.5 -323.5t-64.5 -323.5t-177 -264t-264.5 -177t-324 -64.5t-323.5 64.5t-264 177t-177 264t-64.5 323.5zM369 655q0 -158 59 -296t161.5 -240.5t241 -161.5t295.5 -59q158 0 296.5 59t240.5 161.5t161.5 241t59.5 295.5q0 158 -59.5 296.5t-161.5 240.5t-240.5 161.5
t-296.5 59.5t-296 -59.5t-240.5 -161.5t-161.5 -240.5t-59 -296.5z" />
    <glyph glyph-name="uni24FF" unicode="&#x24ff;" horiz-adv-x="2048" 
d="M870 655q0 84 21.5 149.5t56.5 109.5t82 67t96 23t96.5 -23t82 -67t56 -109.5t21.5 -149.5q0 -88 -22.5 -153.5t-59 -108.5t-83 -64.5t-91.5 -21.5q-47 0 -92 21.5t-82 64.5t-59.5 108.5t-22.5 153.5zM1454 655q0 100 -26.5 178t-71.5 131.5t-104.5 82t-125.5 28.5
t-125 -28.5t-104 -82t-71.5 -131t-26.5 -178.5q0 -104 27.5 -182t73.5 -131t105.5 -79.5t120.5 -26.5t120 26.5t105 79.5t74.5 131t28.5 182zM297 655q0 172 64.5 323.5t177 264.5t264 177.5t323.5 64.5t324 -64.5t264.5 -177.5t177 -264.5t64.5 -323.5t-64.5 -323.5
t-177 -264t-264.5 -177t-324 -64.5t-323.5 64.5t-264 177t-177 264t-64.5 323.5z" />
    <glyph glyph-name="uni2776" unicode="&#x2776;" horiz-adv-x="2048" 
d="M297 655q0 172 64.5 323.5t177 264.5t264 177.5t323.5 64.5t324 -64.5t264.5 -177.5t177 -264.5t64.5 -323.5t-64.5 -323.5t-177 -264t-264.5 -177t-324 -64.5t-323.5 64.5t-264 177t-177 264t-64.5 323.5zM1147 1065l-195 -133l41 -51l154 102v-737h72v819h-72z" />
    <glyph glyph-name="uni2777" unicode="&#x2777;" horiz-adv-x="2048" 
d="M993 317l256 277q47 49 85 103.5t38 131.5q0 49 -19.5 94.5t-53 79t-78.5 53t-95 19.5q-109 0 -178 -68.5t-78 -177.5h72q8 78 57.5 126.5t126.5 48.5q35 0 67 -14.5t55.5 -38t37.5 -55.5t14 -67q0 -53 -24.5 -94t-77.5 -100l-317 -338v-51h501v71h-389zM297 655
q0 172 64.5 323.5t177 264.5t264 177.5t323.5 64.5t324 -64.5t264.5 -177.5t177 -264.5t64.5 -323.5t-64.5 -323.5t-177 -264t-264.5 -177t-324 -64.5t-323.5 64.5t-264 177t-177 264t-64.5 323.5z" />
    <glyph glyph-name="uni2778" unicode="&#x2778;" horiz-adv-x="2048" 
d="M1260 676q35 14 61 39q23 23 42 57.5t19 87.5q0 43 -18 82t-52 68.5t-81 47t-105 17.5q-53 0 -98 -18.5t-79 -49t-54.5 -71.5t-24.5 -86h72q8 61 57.5 107.5t126.5 46.5q84 0 134.5 -45.5t50.5 -98.5q0 -61 -49.5 -107t-135.5 -46h-71v-72h71q92 0 148.5 -51.5
t56.5 -112.5t-56 -112.5t-149 -51.5q-86 0 -137 46t-67 108h-72q16 -92 88 -158.5t188 -66.5q61 0 112.5 19t87.5 52t56.5 75t20.5 89q0 57 -22.5 95t-49.5 61q-33 25 -71 39v10zM297 655q0 172 64.5 323.5t177 264.5t264 177.5t323.5 64.5t324 -64.5t264.5 -177.5
t177 -264.5t64.5 -323.5t-64.5 -323.5t-177 -264t-264.5 -177t-324 -64.5t-323.5 64.5t-264 177t-177 264t-64.5 323.5z" />
    <glyph glyph-name="uni2779" unicode="&#x2779;" horiz-adv-x="2048" 
d="M1331 512h-92v553h-72l-389 -563v-62h389v-194h72v194h92v72zM860 512l307 440v-440h-307zM297 655q0 172 64.5 323.5t177 264.5t264 177.5t323.5 64.5t324 -64.5t264.5 -177.5t177 -264.5t64.5 -323.5t-64.5 -323.5t-177 -264t-264.5 -177t-324 -64.5t-323.5 64.5
t-264 177t-177 264t-64.5 323.5z" />
    <glyph glyph-name="uni277A" unicode="&#x277a;" horiz-adv-x="2048" 
d="M1126 768q-39 0 -68.5 -8t-51.5 -19q-25 -10 -43 -24l30 276h359v72h-420l-51 -461h71q16 25 41 45q23 16 54.5 31.5t78.5 15.5q92 0 148.5 -54t56.5 -140t-56 -140.5t-149 -54.5q-86 0 -137 47t-67 117h-70q14 -100 86 -167.5t188 -67.5q61 0 112.5 20t87.5 55t56.5 84
t20.5 107q0 57 -20.5 106t-56.5 84t-87.5 55.5t-112.5 20.5zM297 655q0 172 64.5 323.5t177 264.5t264 177.5t323.5 64.5t324 -64.5t264.5 -177.5t177 -264.5t64.5 -323.5t-64.5 -323.5t-177 -264t-264.5 -177t-324 -64.5t-323.5 64.5t-264 177t-177 264t-64.5 323.5z" />
    <glyph glyph-name="uni277B" unicode="&#x277b;" horiz-adv-x="2048" 
d="M1126 236q57 0 107.5 21.5t88.5 59t59.5 88t21.5 107.5t-21.5 107.5t-59.5 88t-88 59t-108 21.5q-20 0 -34.5 -2t-24.5 -4q-12 -2 -23 -4l195 287h-82l-246 -369q-18 -25 -30 -53q-12 -25 -21.5 -58.5t-9.5 -72.5q0 -57 21.5 -107.5t59.5 -88t88 -59t107 -21.5zM922 512
q0 86 59 145.5t145 59.5t145.5 -59.5t59.5 -145.5t-59.5 -145.5t-145.5 -59.5t-145 59.5t-59 145.5zM297 655q0 172 64.5 323.5t177 264.5t264 177.5t323.5 64.5t324 -64.5t264.5 -177.5t177 -264.5t64.5 -323.5t-64.5 -323.5t-177 -264t-264.5 -177t-324 -64.5t-323.5 64.5
t-264 177t-177 264t-64.5 323.5z" />
    <glyph glyph-name="uni277C" unicode="&#x277c;" horiz-adv-x="2048" 
d="M891 1065v-72h420l-348 -747h71l348 768v51h-491zM297 655q0 172 64.5 323.5t177 264.5t264 177.5t323.5 64.5t324 -64.5t264.5 -177.5t177 -264.5t64.5 -323.5t-64.5 -323.5t-177 -264t-264.5 -177t-324 -64.5t-323.5 64.5t-264 177t-177 264t-64.5 323.5z" />
    <glyph glyph-name="uni277D" unicode="&#x277d;" horiz-adv-x="2048" 
d="M1126 236q61 0 112.5 19t87.5 52t56.5 75t20.5 89q0 57 -24.5 96t-53.5 64q-35 29 -76 45q35 16 62 41q23 23 42 54.5t19 78.5q0 45 -18.5 86t-51 71.5t-77.5 49t-99 18.5q-53 0 -98 -18.5t-77.5 -49t-51 -71.5t-18.5 -86q0 -47 18.5 -79t40.5 -54q27 -25 61 -41
q-43 -16 -75 -45q-29 -25 -52.5 -64t-23.5 -96q0 -47 20.5 -89t56.5 -75t87 -52t112 -19zM1126 645q92 0 148.5 -52t56.5 -122q0 -61 -56 -112.5t-149 -51.5q-92 0 -148 51.5t-56 112.5q0 70 56 122t148 52zM1126 1004q78 0 126 -46.5t48 -107.5q0 -27 -13 -52.5t-35.5 -46
t-54.5 -32.5t-71 -12t-70.5 12t-55 32.5t-36 46t-12.5 52.5q0 61 48 107.5t126 46.5zM297 655q0 172 64.5 323.5t177 264.5t264 177.5t323.5 64.5t324 -64.5t264.5 -177.5t177 -264.5t64.5 -323.5t-64.5 -323.5t-177 -264t-264.5 -177t-324 -64.5t-323.5 64.5t-264 177
t-177 264t-64.5 323.5z" />
    <glyph glyph-name="uni277E" unicode="&#x277e;" horiz-adv-x="2048" 
d="M297 655q0 172 64.5 323.5t177 264.5t264 177.5t323.5 64.5t324 -64.5t264.5 -177.5t177 -264.5t64.5 -323.5t-64.5 -323.5t-177 -264t-264.5 -177t-324 -64.5t-323.5 64.5t-264 177t-177 264t-64.5 323.5zM1126 1075q-57 0 -107 -21.5t-88 -59.5t-59.5 -88t-21.5 -107
t21.5 -107.5t59.5 -88.5t88 -59.5t107 -21.5q18 0 34 1t26 3q12 2 22 6l-194 -286h82l245 368q16 25 31 54q10 25 20.5 58.5t10.5 72.5q0 57 -21.5 107t-59.5 88t-88.5 59.5t-107.5 21.5zM1331 799q0 -86 -59.5 -145.5t-145.5 -59.5t-145 59.5t-59 145.5t59 145.5t145 59.5
t145.5 -59.5t59.5 -145.5z" />
    <glyph glyph-name="uniF6C3" unicode="&#xf6c3;" horiz-adv-x="256" 
d="M90 -164q27 0 45.5 -19.5t18.5 -60.5q0 -43 -21.5 -80.5t-48.5 -66.5q-31 -33 -70 -60l-18 21q20 18 39 41q16 18 30.5 45t22.5 57q-25 0 -41 17.5t-16 42.5q0 29 18 46t41 17z" />
    <glyph glyph-name="uniF6D1" unicode="&#xf6d1;" horiz-adv-x="593" 
d="M571 1495q37 0 69 12.5t57.5 34t42 49t20.5 58.5h63q-16 -92 -85.5 -153.5t-174.5 -61.5q-96 0 -155.5 56t-59.5 140v19h64q0 -66 36.5 -110t122.5 -44z" />
    <glyph glyph-name="uniF6D4" unicode="&#xf6d4;" horiz-adv-x="552" 
d="M483 1126q66 0 118 41t63 103h63q-12 -90 -82 -147.5t-170 -57.5q-43 0 -81 14.5t-65.5 40t-43 60t-15.5 73.5v17h64q0 -66 38.5 -105t110.5 -39z" />
    <glyph glyph-name="uniFB06" unicode="&#xfb06;" horiz-adv-x="1413" 
d="M764 229q0 -119 -90 -179t-225 -60q-76 0 -135.5 22.5t-101.5 60.5t-63.5 88t-21.5 105h72q0 -88 66.5 -147.5t187.5 -59.5q100 0 168.5 40t68.5 118q0 57 -34.5 95t-88 66t-114 53.5t-113.5 57t-88 75.5t-35 112q0 104 83 169.5t220 65.5q33 0 58.5 -5t42.5 -11
q20 -8 34 -14q-16 25 -26 51q-10 23 -17.5 53.5t-7.5 61.5q0 74 25.5 135t72 106t112 69.5t147.5 24.5q66 0 124 -22.5t101 -64.5t67.5 -99t24.5 -127q0 -23 -3 -42t-7 -46l-15 -80h226l-13 -72h-225l-100 -573q-6 -41 -6 -70q0 -127 135 -127q29 0 51 7q10 2 22 6l-12 -64
q-10 -6 -22 -10q-10 -4 -25.5 -6t-36.5 -2q-86 0 -135 48t-49 144q0 33 6 74l100 573h-174l13 72h82q53 0 75.5 19.5t32.5 72.5l4 25q12 70 -4 124t-51 92t-85 57.5t-106 19.5q-125 0 -202.5 -70t-77.5 -186q0 -68 22.5 -116t50 -91t51 -88t25.5 -105h-71q-2 80 -61.5 132.5
t-176.5 52.5q-106 0 -165.5 -46t-59.5 -112q0 -55 34.5 -91t88 -63.5t114 -51t113.5 -55.5t88 -77t35 -115z" />
    <glyph glyph-name="lslash.salt" horiz-adv-x="501" 
d="M297 641l115 649h71l-106 -602l205 123l-15 -86l-205 -123l-61 -346q-6 -41 -6 -70q0 -127 135 -127q29 0 51 7q10 2 23 6l-12 -64q-10 -6 -23 -10q-10 -4 -25.5 -6t-35.5 -2q-86 0 -135.5 48t-49.5 144q0 33 6 74l54 299l-185 -109l15 86z" />
    <glyph glyph-name="glyph474" horiz-adv-x="1198" 
d="M1247 1219l-409 -482q74 0 136 -26.5t106 -70.5t70 -103.5t26 -122.5q0 -90 -31 -166t-88.5 -131.5t-138 -86t-181.5 -30.5h-153l12 72h154q80 0 144 24.5t110.5 68.5t72 104.5t25.5 129.5q0 59 -20.5 108.5t-55.5 84.5t-85 54.5t-107 19.5h-93l13 71l409 482h-438
q-131 0 -212 -79t-105 -218l-162 -922h-72l162 922q31 178 132 273t271 95h523z" />
    <glyph glyph-name="a.salt" horiz-adv-x="1064" 
d="M141 397q0 111 41 204t107.5 163t151.5 108.5t175 38.5q98 0 164 -34.5t107 -75.5q47 -49 71 -109h11l59 209h51l-157 -901h-52l11 172h-13q-35 -53 -86 -92q-43 -35 -106.5 -62.5t-149.5 -27.5q-80 0 -150.5 28.5t-122.5 82t-82 129t-30 167.5zM530 61q84 0 157 39
t126 102.5t84 142.5t31 159q0 160 -87 248t-229 88q-84 0 -156.5 -38t-126 -100.5t-84 -140.5t-30.5 -158q0 -160 88 -251t227 -91z" />
    <glyph glyph-name="uni0443.salt" horiz-adv-x="870" 
d="M188 901h72l178 -768h11l448 768h80l-719 -1229h-76l211 365z" />
    <glyph glyph-name="l.salt" horiz-adv-x="460" 
d="M371 1290h71l-182 -1034q-6 -41 -6 -70q0 -127 135 -127q29 0 51 7q10 2 23 6l-12 -64q-10 -6 -23 -10q-10 -4 -25.5 -6t-35.5 -2q-86 0 -135.5 48t-49.5 144q0 33 6 74z" />
    <glyph glyph-name="y.salt" horiz-adv-x="1013" 
d="M827 164h-10q-33 -41 -76 -72q-39 -29 -94 -50.5t-133 -21.5q-139 0 -221 91.5t-82 242.5q0 25 4 50.5t8 52.5l78 444h72l-78 -444q-4 -25 -7 -48.5t-3 -46.5q0 -123 64.5 -196.5t187.5 -73.5q61 0 117.5 26.5t101.5 74t76.5 112t44.5 141.5l79 455h72l-154 -870
q-33 -186 -137 -282.5t-274 -96.5q-80 0 -141.5 22.5t-104.5 60.5t-67.5 88t-32.5 105h76q20 -92 82.5 -148t199.5 -56q123 0 211 73.5t117 233.5z" />
    <glyph glyph-name="I.salt" horiz-adv-x="665" 
d="M305 1219l14 71h482l-15 -71h-204l-201 -1147h205l-13 -72h-481l12 72h205l201 1147h-205z" />
    <glyph glyph-name="c_t.dlig" horiz-adv-x="1536" 
d="M227 403q0 -160 88 -251t228 -91q121 0 209 71t137 175h72q-29 -72 -73 -130t-99.5 -100t-119 -64.5t-130.5 -22.5q-80 0 -151 28.5t-123 82t-81.5 129t-29.5 167.5q0 111 41 204t107.5 163t151.5 108.5t175 38.5q31 0 58.5 -5t47.5 -11q23 -8 43 -14q-16 25 -26 51
q-10 23 -17.5 52.5t-7.5 62.5q0 74 25.5 135t71.5 106t111.5 69.5t147.5 24.5q66 0 124.5 -22.5t101.5 -64.5t67.5 -99t24.5 -127q0 -23 -3 -42t-7 -46l-15 -80h226l-13 -72h-225l-100 -573q-6 -41 -7 -70q0 -127 136 -127q29 0 51 7q10 2 22 6l-12 -64q-10 -6 -22 -10
q-10 -4 -25.5 -6t-36.5 -2q-86 0 -135 48t-49 144q0 33 6 74l100 573h-174l12 72h82q53 0 76 19.5t33 72.5l4 25q12 70 -4 124t-51 92t-85 57.5t-106 19.5q-125 0 -202.5 -70t-77.5 -186q0 -72 29.5 -125t65.5 -103.5t66.5 -104.5t34.5 -128h-71q-20 117 -99.5 181.5
t-199.5 64.5q-84 0 -157 -38t-126 -100.5t-84 -140.5t-31 -158z" />
    <glyph glyph-name="r_f.dlig" horiz-adv-x="952" 
d="M772 901l25 143q23 139 87 197.5t173 58.5q20 0 36.5 -3t28.5 -7q14 -4 25 -8l-12 -63q-8 2 -21 4q-10 2 -25.5 4t-33.5 2q-78 0 -124 -42t-63 -143l-24 -143h225l-12 -72h-226l-145 -829h-72l146 829h-113q-66 0 -124 -27.5t-104 -74.5t-78 -113.5t-44 -142.5l-82 -471
h-72l158 901h51l-8 -153h10q29 41 74 75q39 29 96.5 53.5t137.5 24.5h110z" />
    <glyph glyph-name="r_t.dlig" horiz-adv-x="1003" 
d="M760 829h-113q-66 0 -124 -27.5t-104 -74.5t-78 -113.5t-44 -142.5l-82 -471h-72l158 901h51l-8 -153h10q29 41 74 75q39 29 96.5 53.5t137.5 24.5h18q53 0 75.5 19.5t32.5 72.5l31 174h72l-47 -266h225l-12 -72h-226l-100 -573q-6 -41 -6 -70q0 -127 135 -127q29 0 51 7
q10 2 23 6l-12 -64q-10 -6 -23 -10q-10 -4 -25.5 -6t-35.5 -2q-86 0 -135.5 48t-49.5 144q0 33 6 74z" />
    <glyph glyph-name="uni0430.salt" horiz-adv-x="1064" 
d="M141 397q0 111 41 204t108 163t151 108q85 39 175 39q98 0 164 -34q66 -35 107 -76q47 -49 71 -109h11l59 209h51l-157 -901h-52l11 172h-13q-35 -53 -86 -92q-43 -35 -106 -63t-150 -27q-80 0 -150 28q-71 29 -123 82t-82 129t-30 168zM530 61q84 0 157 39t126 103
q53 63 84 142t31 159q0 160 -87 248t-229 88q-84 0 -156 -38q-73 -38 -126 -101q-53 -62 -84 -140t-31 -158q0 -160 88 -250q88 -92 227 -92z" />
    <glyph glyph-name="uni045E.salt" horiz-adv-x="870" 
d="M188 901h72l178 -768h11l448 768h80l-719 -1229h-76l211 365zM606 1116q66 0 118 41t62 103h64q-12 -90 -82 -148q-70 -57 -170 -57q-43 0 -81 14t-65 40q-28 26 -43 60q-15 35 -16 74v17h64q0 -66 39 -105q38 -39 110 -39z" />
    <glyph glyph-name="agrave.salt" horiz-adv-x="1064" 
d="M705 1075h-56l-119 246h97zM141 397q0 111 41 204t108 163t151 108q85 39 175 39q98 0 164 -34q66 -35 107 -76q47 -49 71 -109h11l59 209h51l-157 -901h-52l11 172h-13q-35 -53 -86 -92q-43 -35 -106 -63t-150 -27q-80 0 -150 28q-71 29 -123 82t-82 129t-30 168z
M530 61q84 0 157 39t126 103q53 63 84 142t31 159q0 160 -87 248t-229 88q-84 0 -156 -38q-73 -38 -126 -101q-53 -62 -84 -140t-31 -158q0 -160 88 -250q88 -92 227 -92z" />
    <glyph glyph-name="aacute.salt" horiz-adv-x="1064" 
d="M817 1321h107l-209 -246h-66zM141 397q0 111 41 204t108 163t151 108q85 39 175 39q98 0 164 -34q66 -35 107 -76q47 -49 71 -109h11l59 209h51l-157 -901h-52l11 172h-13q-35 -53 -86 -92q-43 -35 -106 -63t-150 -27q-80 0 -150 28q-71 29 -123 82t-82 129t-30 168z
M530 61q84 0 157 39t126 103q53 63 84 142t31 159q0 160 -87 248t-229 88q-84 0 -156 -38q-73 -38 -126 -101q-53 -62 -84 -140t-31 -158q0 -160 88 -250q88 -92 227 -92z" />
    <glyph glyph-name="abreve.salt" horiz-adv-x="1064" 
d="M700 1118q66 0 118 41t63 103h63q-12 -90 -82 -148q-70 -57 -170 -57q-43 0 -81 14t-65 40q-28 26 -43 60q-15 35 -16 74v17h64q0 -66 39 -105q38 -39 110 -39zM141 397q0 111 41 204t108 163t151 108q85 39 175 39q98 0 164 -34q66 -35 107 -76q47 -49 71 -109h11
l59 209h51l-157 -901h-52l11 172h-13q-35 -53 -86 -92q-43 -35 -106 -63t-150 -27q-80 0 -150 28q-71 29 -123 82t-82 129t-30 168zM530 61q84 0 157 39t126 103q53 63 84 142t31 159q0 160 -87 248t-229 88q-84 0 -156 -38q-73 -38 -126 -101q-53 -62 -84 -140t-31 -158
q0 -160 88 -250q88 -92 227 -92z" />
    <glyph glyph-name="acircumflex.salt" horiz-adv-x="1064" 
d="M776 1300l154 -225h-78l-123 174l-184 -174h-86l235 225h82zM141 397q0 111 41 204t108 163t151 108q85 39 175 39q98 0 164 -34q66 -35 107 -76q47 -49 71 -109h11l59 209h51l-157 -901h-52l11 172h-13q-35 -53 -86 -92q-43 -35 -106 -63t-150 -27q-80 0 -150 28
q-71 29 -123 82t-82 129t-30 168zM530 61q84 0 157 39t126 103q53 63 84 142t31 159q0 160 -87 248t-229 88q-84 0 -156 -38q-73 -38 -126 -101q-53 -62 -84 -140t-31 -158q0 -160 88 -250q88 -92 227 -92z" />
    <glyph glyph-name="adieresis.salt" horiz-adv-x="1064" 
d="M496 1178q0 25 18 43t47 18q25 0 41 -18t16 -43t-18 -43t-47 -19q-25 0 -41 19q-16 18 -16 43zM793 1178q0 25 18 43t47 18q25 0 41 -18t16 -43t-18 -43t-47 -19q-25 0 -41 19q-16 18 -16 43zM141 397q0 111 41 204t108 163t151 108q85 39 175 39q98 0 164 -34
q66 -35 107 -76q47 -49 71 -109h11l59 209h51l-157 -901h-52l11 172h-13q-35 -53 -86 -92q-43 -35 -106 -63t-150 -27q-80 0 -150 28q-71 29 -123 82t-82 129t-30 168zM530 61q84 0 157 39t126 103q53 63 84 142t31 159q0 160 -87 248t-229 88q-84 0 -156 -38
q-73 -38 -126 -101q-53 -62 -84 -140t-31 -158q0 -160 88 -250q88 -92 227 -92z" />
    <glyph glyph-name="amacron.salt" horiz-adv-x="1064" 
d="M934 1137h-471l14 71h471zM141 397q0 111 41 204t108 163t151 108q85 39 175 39q98 0 164 -34q66 -35 107 -76q47 -49 71 -109h11l59 209h51l-157 -901h-52l11 172h-13q-35 -53 -86 -92q-43 -35 -106 -63t-150 -27q-80 0 -150 28q-71 29 -123 82t-82 129t-30 168zM530 61
q84 0 157 39t126 103q53 63 84 142t31 159q0 160 -87 248t-229 88q-84 0 -156 -38q-73 -38 -126 -101q-53 -62 -84 -140t-31 -158q0 -160 88 -250q88 -92 227 -92z" />
    <glyph glyph-name="aogonek.salt" horiz-adv-x="1064" 
d="M141 397q0 111 41 204t107.5 163t151.5 108.5t175 38.5q98 0 164 -34.5t107 -75.5q47 -49 71 -109h11l59 209h51l-157 -901q-35 -25 -62 -53q-23 -25 -41 -58.5t-18 -70.5q0 -84 98 -84q27 0 37 2q8 2 14 4l-10 -59q-6 -2 -14 -5q-20 -4 -39 -4q-74 0 -117 38t-43 93
q0 41 18.5 77t43 63.5t48 46t33.5 24.5l11 158h-13q-35 -53 -86 -92q-43 -35 -106.5 -62.5t-149.5 -27.5q-80 0 -150.5 28.5t-122.5 82t-82 129t-30 167.5zM530 61q84 0 157 39t126 102.5t84 142.5t31 159q0 160 -87 248t-229 88q-84 0 -156.5 -38t-126 -100.5t-84 -140.5
t-30.5 -158q0 -160 88 -251t227 -91z" />
    <glyph glyph-name="aring.salt" horiz-adv-x="1064" 
d="M141 397q0 111 41 204t108 163t151 108q85 39 175 39q98 0 164 -34q66 -35 107 -76q47 -49 71 -109h11l59 209h51l-157 -901h-52l11 172h-13q-35 -53 -86 -92q-43 -35 -106 -63t-150 -27q-80 0 -150 28q-71 29 -123 82t-82 129t-30 168zM530 61q84 0 157 39t126 103
q53 63 84 142t31 159q0 160 -87 248t-229 88q-84 0 -156 -38q-73 -38 -126 -101q-53 -62 -84 -140t-31 -158q0 -160 88 -250q88 -92 227 -92zM877 1229q0 -84 -54 -134q-53 -50 -131 -51q-59 0 -103 42t-44 102q0 84 53 134t131 50q59 0 104 -42q44 -42 44 -101zM702 1106
q51 0 82 33t31 75q0 43 -25 70q-26 27 -71 27q-51 0 -82 -33t-31 -76t26 -69q25 -27 70 -27z" />
    <glyph glyph-name="atilde.salt" horiz-adv-x="1064" 
d="M604 1198q-39 0 -67 -32q-29 -32 -35 -81h-62q10 86 60 136q49 49 110 49q43 0 73 -21q30 -20 56 -46q27 -26 53 -46t58 -20q39 0 68 31q29 32 34 81h62q-10 -86 -60 -135q-49 -49 -110 -49q-43 0 -73 20t-56 47q-27 26 -52 46q-26 20 -59 20zM141 397q0 111 41 204
t108 163t151 108q85 39 175 39q98 0 164 -34q66 -35 107 -76q47 -49 71 -109h11l59 209h51l-157 -901h-52l11 172h-13q-35 -53 -86 -92q-43 -35 -106 -63t-150 -27q-80 0 -150 28q-71 29 -123 82t-82 129t-30 168zM530 61q84 0 157 39t126 103q53 63 84 142t31 159
q0 160 -87 248t-229 88q-84 0 -156 -38q-73 -38 -126 -101q-53 -62 -84 -140t-31 -158q0 -160 88 -250q88 -92 227 -92z" />
    <glyph glyph-name="lacute.salt" horiz-adv-x="460" 
d="M371 1290h71l-182 -1034q-6 -41 -6 -70q0 -127 135 -127q29 0 51 7q10 2 23 6l-12 -64q-10 -6 -23 -10q-10 -4 -26 -6q-15 -2 -35 -2q-86 0 -136 48q-49 48 -49 144q0 33 6 74zM559 1690h107l-209 -246h-66z" />
    <glyph glyph-name="lcaron.salt" horiz-adv-x="460" 
d="M647 1290h96l-157 -246h-56zM371 1290h71l-182 -1034q-6 -41 -6 -70q0 -127 135 -127q29 0 51 7q10 2 23 6l-12 -64q-10 -6 -23 -10q-10 -4 -25.5 -6t-35.5 -2q-86 0 -135.5 48t-49.5 144q0 33 6 74z" />
    <glyph glyph-name="uni013C.salt" horiz-adv-x="460" 
d="M274 -164q27 0 45 -19t19 -61q0 -43 -22 -81t-48 -66q-31 -33 -69 -60l-19 21q20 18 39 41q16 18 31 45q14 27 22 57q-25 0 -41 18q-16 17 -16 42q0 29 18 46t41 17zM371 1290h71l-182 -1034q-6 -41 -6 -70q0 -127 135 -127q29 0 51 7q10 2 23 6l-12 -64q-10 -6 -23 -10
q-10 -4 -26 -6q-15 -2 -35 -2q-86 0 -136 48q-49 48 -49 144q0 33 6 74z" />
    <glyph glyph-name="Igrave.salt" horiz-adv-x="665" 
d="M598 1444h-55l-119 246h96zM305 1219l14 71h482l-15 -71h-204l-201 -1147h205l-13 -72h-481l12 72h205l201 1147h-205z" />
    <glyph glyph-name="Iacute.salt" horiz-adv-x="665" 
d="M715 1690h106l-209 -246h-65zM305 1219l14 71h482l-15 -71h-204l-201 -1147h205l-13 -72h-481l12 72h205l201 1147h-205z" />
    <glyph glyph-name="Icircumflex.salt" horiz-adv-x="665" 
d="M664 1653l153 -226h-78l-123 175l-184 -175h-86l236 226h82zM305 1219l14 71h482l-15 -71h-204l-201 -1147h205l-13 -72h-481l12 72h205l201 1147h-205z" />
    <glyph glyph-name="Idieresis.salt" horiz-adv-x="665" 
d="M379 1556q0 25 18 43t47 19q25 0 41 -19q16 -18 17 -43q0 -25 -19 -43q-18 -18 -47 -18q-25 0 -41 18t-16 43zM676 1556q0 25 18 43t47 19q25 0 41 -19q16 -18 17 -43q0 -25 -19 -43q-18 -18 -47 -18q-25 0 -41 18t-16 43zM305 1219l14 71h482l-15 -71h-204l-201 -1147
h205l-13 -72h-481l12 72h205l201 1147h-205z" />
    <glyph glyph-name="Idotaccent.salt" horiz-adv-x="665" 
d="M528 1556q0 25 19 43q18 18 47 19q25 0 41 -19q16 -18 16 -43t-18 -43t-47 -18q-25 0 -41 18q-17 18 -17 43zM305 1219l14 71h482l-15 -71h-204l-201 -1147h205l-13 -72h-481l12 72h205l201 1147h-205z" />
    <glyph glyph-name="Imacron.salt" horiz-adv-x="665" 
d="M821 1495h-471l15 72h471zM305 1219l14 71h482l-15 -71h-204l-201 -1147h205l-13 -72h-481l12 72h205l201 1147h-205z" />
    <glyph glyph-name="Iogonek.salt" horiz-adv-x="665" 
d="M92 0l12 72h205l201 1147h-205l14 71h482l-15 -71h-204l-201 -1147h205l-13 -72q-35 -25 -61 -53q-23 -25 -41 -58.5t-18 -70.5q0 -84 98 -84q27 0 37 2q8 2 14 4l-10 -59q-6 -2 -14 -5q-20 -4 -39 -4q-74 0 -117 38t-43 93q0 47 18.5 82t40.5 62q27 29 62 53h-408z" />
    <glyph glyph-name="yacute.salt" horiz-adv-x="1013" 
d="M827 164h-10q-33 -41 -76 -72q-39 -29 -94 -50q-55 -22 -133 -22q-139 0 -221 92q-82 91 -82 242q0 25 4 50q4 26 8 53l78 444h72l-78 -444q-4 -25 -7 -48q-3 -24 -3 -47q0 -123 64 -196q65 -74 188 -74q61 0 117 27t102 74q45 47 77 111q32 65 44 142l79 455h72
l-154 -870q-33 -186 -137 -283q-104 -96 -274 -96q-80 0 -141 22q-61 23 -105 61q-43 38 -67 88q-25 50 -33 105h76q20 -92 82 -148t200 -56q123 0 211 73q88 74 117 234zM811 1321h107l-209 -246h-66z" />
    <glyph glyph-name="ydieresis.salt" horiz-adv-x="1013" 
d="M485 1178q0 25 19 43q18 18 47 18q25 0 41 -18t16 -43t-18 -43t-47 -19q-25 0 -41 19q-17 18 -17 43zM782 1178q0 25 19 43q18 18 47 18q25 0 41 -18t16 -43t-18 -43t-47 -19q-25 0 -41 19q-17 18 -17 43zM827 164h-10q-33 -41 -76 -72q-39 -29 -94 -50q-55 -22 -133 -22
q-139 0 -221 92q-82 91 -82 242q0 25 4 50q4 26 8 53l78 444h72l-78 -444q-4 -25 -7 -48q-3 -24 -3 -47q0 -123 64 -196q65 -74 188 -74q61 0 117 27t102 74q45 47 77 111q32 65 44 142l79 455h72l-154 -870q-33 -186 -137 -283q-104 -96 -274 -96q-80 0 -141 22
q-61 23 -105 61q-43 38 -67 88q-25 50 -33 105h76q20 -92 82 -148t200 -56q123 0 211 73q88 74 117 234z" />
    <glyph glyph-name="glyph515" horiz-adv-x="3149" 
d="M569 879h-147v-408h-72v408h-145v63h364v-63zM1063 811q66 0 112 -50t46 -122q0 -74 -46.5 -124t-111.5 -50q-59 0 -96 43v-162h-70v459h49l19 -39q16 20 41.5 32.5t56.5 12.5zM1057 528q39 0 67.5 32t28.5 79q0 43 -28.5 74.5t-67.5 31.5q-41 0 -68.5 -31.5t-27.5 -74.5
q0 -47 27.5 -79t68.5 -32zM772 805h76l-158 -389q-33 -70 -100 -70q-14 0 -21 2v58q47 0 64 40l12 33l-129 326h76l90 -238zM1436 811q66 0 110.5 -49t44.5 -121q0 -4 -1 -9t-1 -9v-13h-243q4 -35 29.5 -59.5t60.5 -24.5q25 0 45 8.5t30 26.5h72q-18 -47 -59 -71.5
t-88 -24.5q-66 0 -113 50t-47 124q0 35 12 66.5t33.5 55t51.5 37t63 13.5zM1526 666q-2 35 -30 58.5t-60 23.5q-33 0 -59.5 -21.5t-30.5 -60.5h180zM1923 879h-147v-408h-72v408h-145v63h364v-63zM2417 811q66 0 111.5 -50t45.5 -122q0 -74 -46 -124t-111 -50q-59 0 -97 43
v-162h-69v459h49l18 -39q16 20 42 32.5t57 12.5zM2410 528q39 0 68 32t29 79q0 43 -29 74.5t-68 31.5q-41 0 -68.5 -31.5t-27.5 -74.5q0 -47 27.5 -79t68.5 -32zM2126 805h76l-158 -389q-33 -70 -100 -70q-14 0 -21 2v58q47 0 64 40l12 33l-129 326h76l90 -238zM2789 811
q66 0 111 -49t45 -121q0 -4 -1 -9t-1 -9v-13h-244q4 -35 30 -59.5t60 -24.5q25 0 45.5 8.5t30.5 26.5h72q-18 -47 -59.5 -71.5t-88.5 -24.5q-66 0 -112.5 50t-46.5 124q0 35 12 66.5t33.5 55t51 37t62.5 13.5zM2879 666q-2 35 -29.5 58.5t-60.5 23.5t-59.5 -21.5
t-30.5 -60.5h180z" />
    <glyph glyph-name="one.frac" horiz-adv-x="440" 
d="M297 1124l-27 54l193 112h41l-105 -594h-61l90 506z" />
    <glyph glyph-name="two.frac" horiz-adv-x="550" 
d="M301 758h283l-13 -62h-378l10 52l229 202q43 39 74 67t49 50q18 23 27 42q8 19 8 38q0 45 -30 68q-30 24 -81 24q-117 0 -143 -113h-62q18 86 74 130q55 44 141 44q70 0 116 -42t46 -105t-43 -113q-43 -49 -125 -120z" />
    <glyph glyph-name="three.frac" horiz-adv-x="512" 
d="M498 1010q23 -10 43 -27q16 -16 29 -40t14 -62q0 -90 -58 -143q-57 -52 -155 -52q-80 0 -129 47t-49 113v14h61q0 -113 125 -112q66 0 105 34q40 35 40 97q0 47 -31 75q-32 29 -94 29h-51l10 61h62q63 0 97 29t34 76q0 45 -30 68t-77 22q-53 0 -90 -26t-47 -87h-61
q12 86 69 130t140 44q68 0 112 -40q45 -41 45 -105q0 -45 -17 -73t-40 -44q-24 -20 -57 -28z" />
    <glyph glyph-name="four.frac" horiz-adv-x="481" 
d="M494 881h81l-10 -62h-82l-22 -123h-62l23 123h-277l11 62l338 409h71zM432 881l57 315l-260 -315h203z" />
    <glyph glyph-name="zero.frac" horiz-adv-x="593" 
d="M221 938q0 74 22 140q22 67 59 116q38 49 88 78t108 28q88 0 147 -67q59 -68 60 -184q0 -74 -22 -141t-59 -115q-38 -49 -88 -78t-108 -29q-88 0 -147 68q-60 67 -60 184zM643 1038q0 94 -41 148q-41 53 -110 53q-41 0 -79 -24t-67 -63q-29 -40 -46 -93t-17 -111
q0 -94 41 -147t110 -53q41 0 79 23q38 24 67 64t46 93t17 110z" />
    <glyph glyph-name="five.frac" horiz-adv-x="522" 
d="M457 1075q72 0 117 -48q46 -48 47 -120q0 -98 -59 -159q-58 -61 -163 -62q-80 0 -128 45t-48 105v14h62q0 -53 36 -78t89 -24q66 0 106 39q41 40 41 112q0 53 -30 84t-91 31q-35 0 -57 -12q-23 -11 -39 -25q-18 -16 -31 -35h-61l102 348h307l-10 -61h-256l-53 -189
q10 8 29 17q14 6 36 12q23 6 54 6z" />
    <glyph glyph-name="six.frac" horiz-adv-x="512" 
d="M387 686q-78 0 -129 50t-51 120q0 41 12 76t31 63q18 29 40 54t40 47l164 194h75l-194 -225l16 4t20 4q11 2 27 2q68 0 117 -47t49 -119q0 -98 -59 -160q-60 -63 -158 -63zM416 1014q-55 0 -101 -40q-45 -40 -45 -104q0 -55 35 -89t92 -33q63 0 104 42q40 42 40 103
q0 53 -31 87t-94 34z" />
    <glyph glyph-name="seven.frac" horiz-adv-x="471" 
d="M319 1290h369l-8 -51l-352 -543h-74l346 533h-291z" />
    <glyph glyph-name="eight.frac" horiz-adv-x="512" 
d="M475 1300q68 0 113 -43t45 -106q0 -45 -17 -74q-16 -29 -36 -45q-23 -20 -54 -33q20 -12 39 -30q14 -16 27 -39q12 -23 12 -56q0 -86 -57 -137t-156 -51q-78 0 -128 46t-50 114q0 47 19 80t42 51q27 23 64 35q-16 10 -29 26q-10 14 -19 35q-9 20 -9 49q0 76 55 127
t139 51zM418 973q-63 0 -104 -34q-40 -34 -40 -81q0 -53 35 -82t90 -28q63 0 104 33q40 34 40 81q0 49 -33 80t-92 31zM465 1239q-55 0 -89 -33t-34 -80q0 -43 29 -67q29 -25 78 -25q55 0 89 33t33 80q0 43 -28 67q-29 25 -78 25z" />
    <glyph glyph-name="nine.frac" horiz-adv-x="512" 
d="M467 1300q78 0 129 -50t51 -120q0 -41 -12 -75q-12 -35 -31 -65q-18 -30 -40 -54q-22 -25 -40 -45l-164 -195h-75l194 226q-8 -4 -16 -7q-20 -4 -47 -4q-68 0 -117 47t-49 119q0 98 59 161q60 62 158 62zM438 973q55 0 101 40q45 40 45 103q0 55 -35 89t-92 34
q-63 0 -104 -42q-40 -42 -40 -103q0 -53 31 -87t94 -34z" />
    <glyph glyph-name="one.dnom" horiz-adv-x="440" 
d="M174 428l-27 53l193 113h41l-105 -594h-61l90 506z" />
    <glyph glyph-name="two.dnom" horiz-adv-x="501" 
d="M152 61h282l-12 -61h-379l10 51l230 203q43 39 73 67q31 28 50 50q18 23 26 42t8 38q0 45 -29 68q-30 24 -81 24q-117 0 -144 -113h-61q18 86 74 130q55 44 141 44q70 0 116 -42t46 -105t-43 -113q-43 -49 -125 -121z" />
    <glyph glyph-name="three.dnom" horiz-adv-x="512" 
d="M389 313q23 -10 43 -26q16 -16 30 -40q13 -24 13 -63q0 -90 -57 -142t-156 -52q-80 0 -129 47t-49 113v14h61q0 -113 125 -113q66 0 106 35t40 96q0 47 -32 76t-93 29h-51l10 61h61q63 0 98 29q34 29 33 76q0 45 -29 67q-30 23 -77 23q-53 0 -90 -26t-47 -87h-62
q12 86 70 130q57 44 139 44q68 0 113 -41t45 -104q0 -45 -18 -73q-17 -28 -40 -44q-24 -21 -57 -29z" />
    <glyph glyph-name="four.dnom" horiz-adv-x="481" 
d="M385 184h82l-10 -61h-82l-23 -123h-61l22 123h-276l10 61l338 410h72zM324 184l57 316l-260 -316h203z" />
    <glyph glyph-name="zero.dnom" horiz-adv-x="593" 
d="M109 242q0 74 21 140q22 67 59 116q38 49 89 77q50 29 107 29q88 0 147 -67q59 -68 60 -185q0 -74 -22 -140q-22 -67 -59 -116q-38 -49 -88 -78t-108 -28q-88 0 -147 67q-59 68 -59 185zM530 342q0 94 -41 147t-110 54q-41 0 -79 -24t-67 -63q-29 -40 -46 -94
q-17 -53 -17 -110q0 -94 41 -148q41 -53 111 -53q41 0 78 24q38 24 67 63q29 40 46 93q17 54 17 111z" />
    <glyph glyph-name="five.dnom" horiz-adv-x="522" 
d="M334 379q72 0 118 -48t46 -120q0 -98 -59 -160q-58 -61 -163 -61q-80 0 -128 45t-48 104v15h62q0 -53 36 -78t89 -25q66 0 106 40q41 40 41 112q0 53 -30 84t-91 30q-35 0 -57 -11q-23 -11 -39 -25q-18 -16 -31 -35h-61l102 348h308l-11 -62h-256l-53 -188q10 8 29 16
q14 6 37 13q22 6 53 6z" />
    <glyph glyph-name="six.dnom" horiz-adv-x="512" 
d="M270 -10q-78 0 -129 50t-51 120q0 41 12 76t31 63q18 29 40 53q22 25 40 47l164 195h76l-195 -225l16 4t20 4q11 2 28 2q68 0 116 -47q49 -47 49 -119q0 -98 -59 -161q-60 -62 -158 -62zM299 317q-55 0 -100 -39q-45 -40 -45 -104q0 -55 34 -89q35 -34 93 -34
q63 0 103 42t40 104q0 53 -31 87q-31 33 -94 33z" />
    <glyph glyph-name="seven.dnom" horiz-adv-x="471" 
d="M193 594h368l-8 -51l-352 -543h-74l346 532h-291z" />
    <glyph glyph-name="eight.dnom" horiz-adv-x="512" 
d="M350 604q68 0 113 -43t45 -106q0 -45 -16 -74t-37 -45q-23 -20 -54 -33q20 -12 39 -31q14 -16 27 -39q12 -23 12 -55q0 -86 -57 -137t-156 -51q-78 0 -128 46t-50 114q0 47 20 79q19 33 42 52q27 23 63 34q-16 10 -29 27q-10 14 -19 35q-9 20 -9 49q0 76 55 127t139 51z
M293 276q-63 0 -104 -33q-40 -34 -39 -81q0 -53 34 -82q35 -29 90 -29q63 0 104 34q40 34 40 81q0 49 -33 80q-33 30 -92 30zM340 543q-55 0 -89 -33t-34 -80q0 -43 29 -68t78 -24q55 0 89 33t33 80q0 43 -28 67q-29 25 -78 25z" />
    <glyph glyph-name="nine.dnom" horiz-adv-x="512" 
d="M344 604q78 0 129 -50t51 -120q0 -41 -12 -76t-31 -64q-18 -30 -40 -54q-22 -25 -40 -45l-163 -195h-76l194 225q-8 -4 -16 -6q-20 -4 -47 -4q-68 0 -117 47t-49 119q0 98 59 161q60 62 158 62zM315 276q55 0 101 40q45 40 45 104q0 55 -35 89t-92 34q-63 0 -104 -42
q-40 -42 -40 -104q0 -53 31 -87t94 -34z" />
    <glyph glyph-name="zero.tnum" 
d="M512 -10q-84 0 -159 35t-133 102q-58 68 -92 165t-34 220q0 178 49 325q49 146 129 248t185 159q104 56 215 56q82 0 157 -34q76 -35 135 -103q58 -68 92 -165t34 -220q0 -178 -50 -324q-49 -146 -129 -249q-80 -102 -184 -159q-104 -56 -215 -56zM518 61q104 0 196 58
q91 57 158 154q68 97 107 226q39 128 39 271q0 113 -28 198t-76 143t-112 88q-65 30 -136 30q-104 0 -196 -58q-91 -57 -159 -154t-106 -225q-39 -128 -39 -272q0 -113 28 -197q28 -85 75 -144q48 -58 113 -88q64 -30 136 -30z" />
    <glyph glyph-name="one.tnum" 
d="M770 1290l-215 -1218h287l-13 -72h-645l13 72h286l199 1122l-297 -184l-33 65l357 215h61z" />
    <glyph glyph-name="three.tnum" 
d="M252 973q12 76 49 137t93 103t126 65t148 22q78 0 142 -23q65 -24 110 -64t69 -93q25 -53 25 -112q0 -104 -44 -172t-98 -107q-63 -47 -141 -70q57 -25 103 -61q39 -33 70 -87q32 -54 32 -132q0 -86 -30 -158t-86 -123t-137 -80t-183 -28q-88 0 -161 26q-73 27 -124 72
t-80 105q-29 59 -29 124h72q2 -53 26 -100t66 -82q43 -35 104 -54q60 -19 138 -20q82 0 147 23q66 23 111 63q45 41 69 96q24 54 23 119q0 117 -78 190t-225 73h-61l12 71h51q86 0 156 24t120 63q50 40 76 96q27 55 27 116q0 102 -74 168t-211 66q-61 0 -117 -18
q-56 -17 -101 -49q-44 -32 -75 -80t-38 -109h-72z" />
    <glyph glyph-name="two.tnum" 
d="M852 72l-12 -72h-748l10 61l504 451q72 63 133 120q61 56 106 110q44 54 68 111q25 56 25 122q0 115 -75 184q-75 70 -197 70q-139 0 -232 -78q-92 -78 -115 -209h-71q12 84 51 151t96 112q57 46 130 71t153 24q72 0 133 -24q61 -25 105 -68t70 -100t26 -121
q0 -78 -26 -143q-26 -66 -71 -124t-103 -114q-58 -55 -126 -114l-471 -420h637z" />
    <glyph glyph-name="four.tnum" 
d="M977 317h-154l-55 -317h-72l56 317h-625l10 62l766 911h92l-159 -901h153zM764 389l143 801l-671 -801h528z" />
    <glyph glyph-name="five.tnum" 
d="M625 850q78 0 142 -30q65 -30 111 -80t71 -119q26 -70 26 -150q0 -109 -38 -198t-102 -152q-65 -63 -150 -97t-181 -34q-84 0 -153 26q-69 27 -118 72t-75 105q-27 59 -27 124h72q0 -51 22 -97q23 -46 63 -82t97 -56t131 -21q76 0 146 29t122 82q53 53 86 126t33 163
q0 143 -80 230t-219 87q-80 0 -138 -34t-99 -74q-47 -47 -80 -107h-72l211 727h614l-14 -71h-553l-141 -492q29 35 71 61q37 23 92 42q54 20 130 20z" />
    <glyph glyph-name="six.tnum" 
d="M500 -10q-78 0 -145 28q-67 29 -114 78q-48 49 -76 117t-28 145q0 66 13 119q12 53 38 104q27 50 67 102t95 116l426 491h90l-424 -485q18 12 43 22q23 8 55 16q32 7 76 7q78 0 144 -31t112 -83q47 -52 73 -121t26 -144q0 -106 -36 -196q-36 -89 -99 -152t-150 -98
q-86 -35 -186 -35zM604 778q-82 0 -153 -35q-72 -35 -125 -92t-84 -131t-31 -151q0 -68 21 -124q22 -56 61 -98q39 -41 94 -63q55 -23 125 -23q80 0 150 29t122 82q53 53 84 126t31 163q0 68 -20 126t-59 100q-38 42 -92 67q-54 24 -124 24z" />
    <glyph glyph-name="seven.tnum" 
d="M1108 1290l-12 -61l-779 -1229h-81l772 1219h-662l14 71h748z" />
    <glyph glyph-name="eight.tnum" 
d="M684 1300q68 0 126 -22q58 -23 101 -60q43 -38 68 -92q25 -53 25 -114q0 -117 -68 -211t-180 -131q82 -35 136 -114t54 -179q0 -82 -30 -153t-87 -123t-138 -82t-183 -29q-78 0 -146 24q-68 25 -118 69q-51 44 -80 106t-29 141q0 66 23 125t62 107q40 48 96 83t126 51
q-59 35 -101 101t-42 137q0 76 27 142q27 67 75 117q49 50 121 79q72 28 162 28zM520 61q80 0 145 24t110 66q46 42 72 97t25 117q0 137 -85 208q-85 72 -226 72q-80 0 -144 -23q-65 -24 -111 -66t-72 -97t-25 -117q0 -137 85 -209t226 -72zM672 1229q-70 0 -125 -23
t-94 -61q-39 -39 -60 -90q-20 -51 -20 -109q0 -98 68 -164q69 -66 190 -65q70 0 125 22q55 23 94 62t59 90t21 108q0 98 -69 164q-68 66 -189 66z" />
    <glyph glyph-name="nine.tnum" 
d="M688 1300q78 0 145 -28q67 -29 114 -78q48 -49 76 -117t28 -145q0 -66 -13 -119q-12 -53 -39 -103t-66 -103q-40 -52 -95 -115l-426 -492h-90l423 485q-18 -14 -43 -22q-23 -10 -55 -17q-33 -6 -76 -6q-78 0 -143 31q-66 31 -113 83t-72 121q-26 69 -26 144q0 106 36 196
q36 89 99 152t150 99q86 34 186 34zM584 512q82 0 153 35q72 35 125 92t84 131t31 152q0 68 -22 124t-60 97q-39 41 -94 63q-55 23 -125 23q-80 0 -150 -29t-123 -82t-84 -127t-30 -162q0 -68 20 -126t59 -100q38 -42 92 -66q54 -25 124 -25z" />
    <glyph glyph-name="at.case" horiz-adv-x="1525" 
d="M1055 440q-25 -41 -62 -71q-33 -29 -85 -51t-124 -21q-59 0 -110 21q-51 22 -89 61t-60 90t-21 111q0 86 30 154q30 69 77 118q48 49 112 75q63 26 131 25q72 0 120 -23q48 -24 77 -52q29 -29 41 -54l12 -24h10l37 143h41l-70 -387q-4 -12 -4 -25v-24q0 -63 32 -106
q32 -42 101 -42q39 0 78 17q39 16 72 55t53 106t21 166q0 104 -36 201q-36 96 -106 168t-173 115t-236 43q-141 0 -268 -52q-126 -52 -219 -143q-93 -90 -147 -214t-54 -265q0 -111 38 -208q39 -97 110 -170t172 -115t226 -42q72 0 131 13q59 12 103 28q51 18 92 43l27 -63
q-47 -27 -103 -47q-47 -16 -114 -31q-68 -14 -148 -14q-131 0 -243 47t-192 127q-81 80 -127 187q-46 108 -46 231q0 164 60 303t165 240q104 101 246 159q141 57 303 57q135 0 248 -48t193 -130q81 -82 125 -187t44 -218q0 -115 -24 -195q-25 -80 -66 -130t-94 -73
t-111 -22q-63 0 -99 21q-36 22 -56 51q-23 31 -31 71h-10zM854 891q-59 0 -110 -23q-50 -23 -87 -62q-37 -40 -58 -94q-22 -54 -21 -118q0 -111 64 -173q65 -62 159 -63q55 0 104 25t87 68t61 98t22 117q0 96 -61 160q-62 65 -160 65z" />
    <glyph glyph-name="parenleft.case" horiz-adv-x="512" 
d="M664 1421q-63 -84 -136 -187q-72 -103 -132 -226t-100 -268q-40 -144 -40 -310q0 -135 19 -247t42 -197q27 -98 62 -181l-57 -30q-39 90 -70 196q-27 92 -47 213t-21 262q0 98 19 195q18 96 48 186t67 172q38 82 79 152q94 164 215 305z" />
    <glyph glyph-name="parenright.case" horiz-adv-x="512" 
d="M41 -190q63 84 135 187t132 226t101 267q40 144 40 311q0 133 -20 246q-19 113 -42 198q-27 98 -61 180l57 31q37 -90 68 -196q27 -92 48 -214q22 -122 21 -262q0 -100 -18 -196t-49 -186q-31 -89 -70 -171t-78 -151q-94 -164 -213 -305z" />
    <glyph glyph-name="bracketleft.case" horiz-adv-x="563" 
d="M203 -143h246l-13 -72h-317l293 1659h317l-14 -72h-246z" />
    <glyph glyph-name="bracketright.case" horiz-adv-x="563" 
d="M520 1372h-246l15 72h317l-293 -1659h-315l10 72h246z" />
    <glyph glyph-name="braceleft.case" horiz-adv-x="614" 
d="M188 645q78 0 123 43t60 121l71 412q23 117 86 170t181 53h71l-14 -72h-72q-78 0 -121 -33t-59 -118l-74 -422q-12 -68 -38 -106t-54 -56q-33 -23 -69 -27q35 -14 57 -41q20 -23 33 -61q12 -39 2 -100l-64 -365q-31 -186 142 -186h51l-13 -72h-51q-109 0 -165 71t-35 187
l63 365q14 78 -17 127q-32 49 -104 49l10 61v0z" />
    <glyph glyph-name="braceright.case" horiz-adv-x="614" 
d="M586 584q-78 0 -123 -43t-60 -121l-71 -412q-23 -117 -86 -170t-180 -53h-72l14 72h72q78 0 121 32q43 33 59 119l74 422q10 66 37 105t55 57q33 23 70 26q-35 12 -58 39q-20 23 -34 63q-13 40 -1 101l64 365q31 186 -141 186h-52l13 72h51q109 0 165 -71t36 -187
l-64 -365q-14 -78 18 -127t103 -49z" />
    <glyph glyph-name="guilsinglleft.case" horiz-adv-x="471" 
d="M256 610l168 -313h-82l-170 317l283 318h86z" />
    <glyph glyph-name="guilsinglright.case" horiz-adv-x="471" 
d="M426 618l-168 314h82l170 -318l-283 -317h-86z" />
    <glyph glyph-name="guillemotleft.case" horiz-adv-x="778" 
d="M563 610l168 -313h-82l-170 317l283 318h86zM256 610l168 -313h-82l-170 317l283 318h86z" />
    <glyph glyph-name="guillemotright.case" horiz-adv-x="778" 
d="M426 618l-168 314h82l170 -318l-283 -317h-86zM733 618l-168 314h82l170 -318l-282 -317h-86z" />
    </font>
</defs>
</svg>
