<?xml version="1.0" standalone="no"?>
<!DOCTYPE svg PUBLIC "-//W3C//DTD SVG 1.1//EN" "http://www.w3.org/Graphics/SVG/1.1/DTD/svg11.dtd" >
<svg>
<metadata>
Created by FontForge 20120731 at Wed Jul 10 05:02:43 2019
 By www-data
Copyright (c) 2018 by TypeType. Designers Ivan Gladkikh, Pavel Emelyanov. Technical designers Marina Khodak, Vika Usmanova, Nadyr Rakhimov. All rights reserved.
</metadata>
<defs>
<font id="TTCommons-BlackItalic" horiz-adv-x="540" >
  <font-face 
    font-family="TT Commons Black Italic"
    font-weight="900"
    font-style="italic"
    font-stretch="normal"
    units-per-em="1000"
    panose-1="2 0 5 3 2 0 0 9 0 4"
    ascent="700"
    descent="-300"
    x-height="460"
    cap-height="630"
    bbox="-190 -310 1438 885"
    underline-thickness="50"
    underline-position="-200"
    unicode-range="U+000D-FB06"
  />
<missing-glyph horiz-adv-x="0" 
 />
    <glyph glyph-name="ff" unicode="ff" horiz-adv-x="682" 
d="M100 430h55l1 5q20 100 72.5 145t139.5 45q17 0 33 -3t28 -6q14 -4 27 -9l-27 -158q-6 1 -12 3q-5 1 -12 2t-15 1q-14 0 -22.5 -4t-14.5 -9q-7 -5 -11 -12h113l5 25q20 100 72.5 145t139.5 45q17 0 33 -3t28 -6q14 -4 27 -9l-28 -158q-5 1 -11 3q-5 1 -12 2t-15 1
q-19 0 -30.5 -7.5t-18.5 -15.5q-8 -10 -13 -22h93l-28 -160h-90l-47 -270h-180l47 270h-120l-47 -270h-180l47 270h-55z" />
    <glyph glyph-name="uniFB01" unicode="fi" horiz-adv-x="600" 
d="M560 0h-180l47 270h-120l-47 -270h-180l47 270h-55l28 160h55l5 25q20 100 72.5 145t139.5 45q17 0 33 -3t28 -6q14 -4 27 -9l-28 -158q-5 1 -11 3q-5 1 -12 2t-15 1q-19 0 -30.5 -7.5t-18.5 -15.5q-8 -10 -13 -22h303zM470 544q0 21 8 38.5t22.5 30t33 20t39.5 7.5
q40 0 64.5 -23.5t24.5 -57.5q0 -21 -8 -39t-21.5 -31.5t-32 -21t-39.5 -7.5q-42 0 -66.5 24.5t-24.5 59.5z" />
    <glyph glyph-name="uniFB02" unicode="fl" horiz-adv-x="600" 
d="M560 0h-180l83 474q-8 2 -17 5q-8 2 -18 4t-22 2q-25 0 -39.5 -8.5t-22.5 -19.5q-10 -12 -13 -27h94l-28 -160h-90l-47 -270h-180l47 270h-55l28 160h55l6 30q10 51 32.5 88t54.5 61t72 35t85 11q23 0 43.5 -4t36.5 -9q18 -5 34 -12h152z" />
    <glyph glyph-name="ffi" unicode="ffi" horiz-adv-x="900" 
d="M860 0h-180l47 270h-120l-47 -270h-180l47 270h-120l-47 -270h-180l47 270h-55l28 160h55l1 5q20 100 72.5 145t139.5 45q17 0 33 -3t28 -6q14 -4 27 -9l-27 -158q-6 1 -12 3q-5 1 -12 2t-15 1q-14 0 -22.5 -4t-14.5 -9q-7 -5 -11 -12h113l5 25q20 100 72.5 145t139.5 45
q17 0 33 -3t28 -6q14 -4 27 -9l-28 -158q-5 1 -11 3q-5 1 -12 2t-15 1q-19 0 -30.5 -7.5t-18.5 -15.5q-8 -10 -13 -22h303zM770 544q0 21 8 38.5t22.5 30t33 20t39.5 7.5q40 0 64.5 -23.5t24.5 -57.5q0 -21 -8 -39t-21.5 -31.5t-32 -21t-39.5 -7.5q-42 0 -66.5 24.5
t-24.5 59.5z" />
    <glyph glyph-name="ffl" unicode="ffl" horiz-adv-x="900" 
d="M860 0h-180l83 474q-8 2 -17 5q-8 2 -18 4t-22 2q-25 0 -39.5 -8.5t-22.5 -19.5q-10 -12 -13 -27h94l-28 -160h-90l-47 -270h-180l47 270h-120l-47 -270h-180l47 270h-55l28 160h55l1 5q20 100 72.5 145t139.5 45q17 0 33 -3t28 -6q14 -4 27 -9l-27 -158q-6 1 -12 3
q-5 1 -12 2t-15 1q-14 0 -22.5 -4t-14.5 -9q-7 -5 -11 -12h113l6 30q10 51 32.5 88t54.5 61t72 35t85 11q23 0 43.5 -4t36.5 -9q18 -5 34 -12h152z" />
    <glyph glyph-name="f_f_j" unicode="ffj" horiz-adv-x="900" 
d="M695 88l32 182h-120l-47 -270h-180l47 270h-120l-47 -270h-180l47 270h-55l28 160h55l1 5q20 100 72.5 145t139.5 45q17 0 33 -3t28 -6q14 -4 27 -9l-27 -158q-6 1 -12 3q-5 1 -12 2t-15 1q-14 0 -22.5 -4t-14.5 -9q-7 -5 -11 -12h113l5 25q20 100 72.5 145t139.5 45
q17 0 33 -3t28 -6q14 -4 27 -9l-28 -158q-5 1 -11 3q-5 1 -12 2t-15 1q-19 0 -30.5 -7.5t-18.5 -15.5q-8 -10 -13 -22h303l-60 -342l-15 -84q-15 -87 -68 -130.5t-130 -43.5q-23 0 -41.5 2.5t-31.5 6.5q-15 4 -26 10l27 156q5 -2 10 -3t11.5 -1.5t15.5 -0.5q29 0 43 14
t20 46zM770 544q0 21 8 38.5t22.5 30t33 20t39.5 7.5q40 0 64.5 -23.5t24.5 -57.5q0 -21 -8 -39t-21.5 -31.5t-32 -21t-39.5 -7.5q-42 0 -66.5 24.5t-24.5 59.5z" />
    <glyph glyph-name="f_j" unicode="fj" horiz-adv-x="600" 
d="M395 88l32 182h-120l-47 -270h-180l47 270h-55l28 160h55l5 25q20 100 72.5 145t139.5 45q17 0 33 -3t28 -6q14 -4 27 -9l-28 -158q-5 1 -11 3q-5 1 -12 2t-15 1q-19 0 -30.5 -7.5t-18.5 -15.5q-8 -10 -13 -22h303l-60 -342l-15 -84q-15 -87 -68 -130.5t-130 -43.5
q-23 0 -40 2.5t-28 6.5q-13 4 -22 9l27 155q1 -1 5 -2t23 -1q29 0 43 14t20 46zM470 544q0 21 8 38.5t22.5 30t33 20t39.5 7.5q40 0 64.5 -23.5t24.5 -57.5q0 -21 -8 -39t-21.5 -31.5t-32 -21t-39.5 -7.5q-42 0 -66.5 24.5t-24.5 59.5z" />
    <glyph glyph-name="f_t" unicode="ft" horiz-adv-x="698" 
d="M100 440h55l3 15q10 53 29.5 89t46.5 58.5t61.5 32.5t75.5 10q17 0 33 -3t28 -6q14 -4 27 -9l-29 -159q-5 1 -11 3q-5 2 -12.5 3t-16.5 1q-17 0 -27.5 -5.5t-15.5 -12.5q-7 -8 -9 -17h87q27 0 40.5 10.5t18.5 39.5l10 60h160l-19 -110h90l-28 -160h-90l-9 -50
q-6 -34 5.5 -52t37.5 -18q8 0 14.5 0.5t11.5 1.5t10 3l-29 -165q-9 -3 -20 -5q-22 -5 -52 -5q-81 0 -124.5 42t-43.5 118q0 13 1.5 26.5t3.5 27.5l14 76h-120l-49 -280h-180l49 280h-55z" />
    <glyph glyph-name="f_h" unicode="fh" horiz-adv-x="890" 
d="M745 470q36 0 65.5 -11.5t50.5 -33t32.5 -51t11.5 -65.5q0 -20 -3 -39l-47 -270h-180l39 225q5 32 -8.5 51t-40.5 19q-23 0 -41 -14.5t-24 -50.5l-40 -230h-180l83 474q-8 2 -17 5q-8 2 -18 4t-22 2q-25 0 -39.5 -8.5t-22.5 -19.5q-10 -12 -13 -27h94l-28 -160h-90
l-47 -270h-180l47 270h-55l28 160h55l6 30q10 51 32.5 88t54.5 61t72 35t85 11q23 0 43.5 -4t36.5 -9q18 -5 34 -12h152l-36 -200q14 11 32 20q15 8 35 14t43 6z" />
    <glyph glyph-name="f_k" unicode="fk" horiz-adv-x="850" 
d="M660 0l-67 189l-33 -189h-180l83 474q-8 2 -17 5q-8 2 -18 4t-22 2q-25 0 -39.5 -8.5t-22.5 -19.5q-10 -12 -13 -27h94l-28 -160h-90l-47 -270h-180l47 270h-55l28 160h55l6 30q10 51 32.5 88t54.5 61t72 35t85 11q23 0 43.5 -4t36.5 -9q18 -5 34 -12h152l-61 -345
l121 175h198l-166 -222l97 -238h-200z" />
    <glyph glyph-name="f_b" unicode="fb" horiz-adv-x="905" 
d="M636 434q12 10 28 18q14 7 32.5 12.5t41.5 5.5q38 0 72 -15t59.5 -42.5t40 -66.5t14.5 -86q0 -60 -20.5 -109.5t-54 -85t-75.5 -55.5t-85 -20q-35 0 -61 9.5t-43 20.5q-20 13 -35 30l-35 -50h-135l83 474q-8 2 -17 5q-8 2 -18 4t-22 2q-25 0 -39.5 -8.5t-22.5 -19.5
q-10 -12 -13 -27h94l-28 -160h-90l-47 -270h-180l47 270h-55l28 160h55l6 30q10 51 32.5 88t54.5 61t72 35t85 11q23 0 43.5 -4t36.5 -9q18 -5 34 -12h152zM664 155q32 0 54.5 22t22.5 62q0 29 -18 47.5t-47 18.5q-32 0 -55 -23.5t-23 -61.5q0 -29 19 -47t47 -18z" />
    <glyph glyph-name="f_f_h" unicode="ffh" horiz-adv-x="1190" 
d="M1045 470q36 0 65.5 -11.5t50.5 -33t32.5 -51t11.5 -65.5q0 -20 -3 -39l-47 -270h-180l39 225q5 32 -8.5 51t-40.5 19q-23 0 -41 -14.5t-24 -50.5l-40 -230h-180l83 474q-8 2 -17 5q-8 2 -18 4t-22 2q-25 0 -39.5 -8.5t-22.5 -19.5q-10 -12 -13 -27h94l-28 -160h-90
l-47 -270h-180l47 270h-120l-47 -270h-180l47 270h-55l28 160h55l1 5q20 100 72.5 145t139.5 45q17 0 33 -3t28 -6q14 -4 27 -9l-27 -158q-6 1 -12 3q-5 1 -12 2t-15 1q-14 0 -22.5 -4t-14.5 -9q-7 -5 -11 -12h113l6 30q10 51 32.5 88t54.5 61t72 35t85 11q23 0 43.5 -4
t36.5 -9q18 -5 34 -12h152l-36 -200q14 11 32 20q15 8 35 14t43 6z" />
    <glyph glyph-name="f_f_k" unicode="ffk" horiz-adv-x="1150" 
d="M960 0l-67 189l-33 -189h-180l83 474q-8 2 -17 5q-8 2 -18 4t-22 2q-25 0 -39.5 -8.5t-22.5 -19.5q-10 -12 -13 -27h94l-28 -160h-90l-47 -270h-180l47 270h-120l-47 -270h-180l47 270h-55l28 160h55l1 5q20 100 72.5 145t139.5 45q17 0 33 -3t28 -6q14 -4 27 -9
l-27 -158q-6 1 -12 3q-5 1 -12 2t-15 1q-14 0 -22.5 -4t-14.5 -9q-7 -5 -11 -12h113l6 30q10 51 32.5 88t54.5 61t72 35t85 11q23 0 43.5 -4t36.5 -9q18 -5 34 -12h152l-61 -345l121 175h198l-166 -222l97 -238h-200z" />
    <glyph glyph-name="f_f_b" unicode="ffb" horiz-adv-x="1205" 
d="M936 434q12 10 28 18q14 7 32.5 12.5t41.5 5.5q38 0 72 -15t59.5 -42.5t40 -66.5t14.5 -86q0 -60 -20.5 -109.5t-54 -85t-75.5 -55.5t-85 -20q-35 0 -61 9.5t-43 20.5q-20 13 -35 30l-35 -50h-135l83 474q-8 2 -17 5q-8 2 -18 4t-22 2q-25 0 -39.5 -8.5t-22.5 -19.5
q-10 -12 -13 -27h94l-28 -160h-90l-47 -270h-180l47 270h-120l-47 -270h-180l47 270h-55l28 160h55l1 5q20 100 72.5 145t139.5 45q17 0 33 -3t28 -6q14 -4 27 -9l-27 -158q-6 1 -12 3q-5 1 -12 2t-15 1q-14 0 -22.5 -4t-14.5 -9q-7 -5 -11 -12h113l6 30q10 51 32.5 88
t54.5 61t72 35t85 11q23 0 43.5 -4t36.5 -9q18 -5 34 -12h152zM964 155q32 0 54.5 22t22.5 62q0 29 -18 47.5t-47 18.5q-32 0 -55 -23.5t-23 -61.5q0 -29 19 -47t47 -18z" />
    <glyph glyph-name=".notdef" horiz-adv-x="0" 
 />
    <glyph glyph-name=".null" horiz-adv-x="0" 
 />
    <glyph glyph-name=".null" horiz-adv-x="0" 
 />
    <glyph glyph-name="nonmarkingreturn" unicode="&#xd;" horiz-adv-x="0" 
 />
    <glyph glyph-name="space" unicode=" " horiz-adv-x="240" 
 />
    <glyph glyph-name="exclam" unicode="!" horiz-adv-x="310" 
d="M163 630h210l-93 -410h-170zM75 75q0 21 7.5 40.5t21 33.5t32 22.5t40.5 8.5q41 0 66.5 -24t25.5 -61q0 -46 -30 -75.5t-75 -29.5q-41 0 -64.5 24t-23.5 61z" />
    <glyph glyph-name="quotedbl" unicode="&#x22;" horiz-adv-x="435" 
d="M466 405h-155l40 225h155zM266 405h-155l40 225h155z" />
    <glyph glyph-name="numbersign" unicode="#" horiz-adv-x="655" 
d="M173 500h90l48 130h150l-48 -130h75l48 130h150l-48 -130h95l-54 -135h-90l-38 -100h95l-54 -135h-90l-47 -130h-150l47 130h-75l-47 -130h-150l47 130h-95l54 135h90l38 100h-95zM325 260h75l40 110h-75z" />
    <glyph glyph-name="dollar" unicode="$" horiz-adv-x="560" 
d="M196 7q-60 21 -96.5 68.5t-42.5 134.5l198 20q0 -21 12 -40.5t41 -19.5q20 0 31.5 8t11.5 22q0 12 -18 21.5t-45.5 20t-59.5 24.5t-59.5 36t-45.5 54t-18 78q0 40 16.5 74t44.5 60.5t64.5 44t76.5 23.5l13 74h180l-16 -92q54 -21 85.5 -67t35.5 -121l-198 -20
q0 26 -12 38t-32 12q-14 0 -23 -6t-9 -16q0 -13 18 -22.5t45.5 -20t59 -24t59 -35t45.5 -53t18 -77.5q0 -38 -13.5 -73t-39.5 -63t-63.5 -48t-85.5 -28l-14 -74h-180z" />
    <glyph glyph-name="percent" unicode="%" horiz-adv-x="695" 
d="M240 530q-16 0 -27.5 -11t-11.5 -28q0 -14 9.5 -22.5t23.5 -8.5q16 0 27 11t11 28q0 14 -9 22.5t-23 8.5zM389 507q0 -31 -12.5 -59.5t-34 -50t-51 -34.5t-62.5 -13q-32 0 -58.5 10.5t-45.5 28.5t-30 42t-11 51q0 33 13.5 61.5t36 50t52.5 34t63 12.5q31 0 57 -10.5
t44.5 -28.5t28.5 -42t10 -52zM726 630l-496 -630h-150l496 630h150zM572 170q-16 0 -27.5 -11t-11.5 -28q0 -14 9.5 -22.5t23.5 -8.5q16 0 27 11t11 28q0 14 -9 22.5t-23 8.5zM721 147q0 -31 -12.5 -59.5t-34 -50t-51 -34.5t-62.5 -13q-32 0 -58.5 10.5t-45.5 28.5t-30 42
t-11 51q0 33 13.5 61.5t36 50t52.5 34t63 12.5q31 0 57 -10.5t44.5 -28.5t28.5 -42t10 -52z" />
    <glyph glyph-name="ampersand" unicode="&#x26;" horiz-adv-x="635" 
d="M441 0l-40 47q-23 -17 -50 -29q-23 -11 -55.5 -19.5t-71.5 -8.5q-97 0 -145 44t-48 116q0 45 23.5 79.5t52.5 57.5q33 27 77 48q-11 16 -19 35q-8 17 -13.5 39.5t-5.5 48.5q0 39 14 72t41.5 57.5t68 38.5t93.5 14q40 0 73 -13t56 -34.5t36 -49t13 -56.5q0 -38 -20 -68.5
t-44 -53.5q-28 -26 -63 -47l32 -39l36 36h193l-139 -140l145 -175h-240zM338 410q10 6 19 14q8 7 14 16t6 20t-7.5 20.5t-21.5 9.5q-17 0 -24.5 -10t-7.5 -23q0 -8 3 -16.5t8 -15.5q4 -8 11 -15zM272 155q12 0 21 7q4 4 7 8l-41 50q-7 -4 -11 -8t-7 -10.5t-3 -14.5
q0 -14 10 -23t24 -9z" />
    <glyph glyph-name="quotesingle" unicode="'" horiz-adv-x="245" 
d="M151 630h165l-40 -225h-165z" />
    <glyph glyph-name="parenleft" unicode="(" horiz-adv-x="385" 
d="M458 575q-49 -55 -88 -122q-17 -29 -32.5 -62.5t-28 -71.5t-20 -79.5t-7.5 -85.5q0 -59 8 -109.5t18 -88.5q11 -44 26 -81l-167 -100q-27 46 -48 103q-18 49 -32.5 116t-14.5 147q0 78 18.5 148.5t47 129.5t61 106.5t61 81t47.5 51l19 17.5l132 -100v0z" />
    <glyph glyph-name="parenright" unicode=")" horiz-adv-x="385" 
d="M7 -125q49 55 88 122q16 28 32 62t28.5 71.5t20 79t7.5 86.5q0 58 -8 109t-18 89q-11 44 -26 81l167 100q26 -47 47 -104q18 -49 33 -115.5t15 -146.5q0 -79 -18.5 -149t-47 -129t-61 -106.5t-61 -81t-47.5 -51l-19 -17.5z" />
    <glyph glyph-name="asterisk" unicode="*" horiz-adv-x="400" 
d="M344 535l91 35l16 -105l-93 -20l48 -70l-93 -68l-39 86l-65 -86l-83 68l72 70l-87 20l54 105l79 -35l12 95h110z" />
    <glyph glyph-name="plus" unicode="+" horiz-adv-x="480" 
d="M162 45l22 125h-120l30 170h120l22 125h170l-22 -125h120l-30 -170h-120l-22 -125h-170z" />
    <glyph glyph-name="comma" unicode="," horiz-adv-x="250" 
d="M135 180q41 0 66 -25.5t25 -73.5q0 -32 -13 -65t-34.5 -61.5t-50 -51t-59.5 -33.5l-27 50q15 7 29 18q12 9 24 22t19 30q-37 3 -58 26.5t-21 58.5q0 23 8 42t21.5 33t31.5 22t39 8z" />
    <glyph glyph-name="hyphen" unicode="-" horiz-adv-x="400" 
d="M389 170h-320l30 170h320z" />
    <glyph glyph-name="period" unicode="." horiz-adv-x="250" 
d="M35 75q0 21 7.5 40.5t21 33.5t32 22.5t40.5 8.5q41 0 66.5 -24t25.5 -61q0 -46 -30 -75.5t-75 -29.5q-41 0 -64.5 24t-23.5 61z" />
    <glyph glyph-name="slash" unicode="/" horiz-adv-x="445" 
d="M157 -180h-188l402 810h189z" />
    <glyph glyph-name="zero" unicode="0" horiz-adv-x="630" 
d="M353 180q25 0 45 14.5t34 38.5t22 54.5t8 61.5q0 51 -19.5 76t-52.5 25q-19 0 -38 -10.5t-34.5 -32.5t-25.5 -54.5t-10 -76.5q0 -50 21 -73t50 -23zM664 368q0 -71 -22 -138.5t-64 -121t-103 -86t-138 -32.5q-55 0 -102 19.5t-81.5 55.5t-54 86.5t-19.5 112.5
q0 84 26 153t70.5 118.5t102 77t120.5 27.5q62 0 111 -19t83.5 -54.5t52.5 -86t18 -112.5z" />
    <glyph glyph-name="one" unicode="1" horiz-adv-x="390" 
d="M451 630l-111 -630h-200l69 396l-65 -39l-65 153l202 120h170z" />
    <glyph glyph-name="two" unicode="2" horiz-adv-x="530" 
d="M368 190h165l-33 -190h-470l22 130l231 201q23 20 38 34.5t23.5 25t11.5 18t3 14.5q0 12 -8.5 19.5t-23.5 7.5q-17 0 -32.5 -14t-17.5 -36l-188 20q7 47 29.5 87.5t56.5 70t77.5 46t92.5 16.5q60 0 104 -15t73 -40.5t43.5 -59.5t14.5 -71q0 -35 -12.5 -65t-33.5 -56.5
t-49 -50.5t-58 -47z" />
    <glyph glyph-name="three" unicode="3" 
d="M102 440q5 42 27 78.5t56.5 63.5t79 42.5t94.5 15.5q63 0 107.5 -15t72.5 -39.5t41 -56t13 -64.5q0 -35 -18 -60.5t-40 -43.5q-26 -21 -57 -36q22 -13 40 -31q15 -16 27.5 -40.5t12.5 -57.5q0 -39 -16 -76.5t-48 -66t-81.5 -46t-115.5 -17.5q-44 0 -88.5 11t-80 35.5
t-57.5 64.5t-22 99l204 20q2 -14 7 -25q5 -10 14 -17.5t26 -7.5q20 0 31 13.5t11 29.5q0 14 -11 25.5t-31 11.5h-56l26 150h59q19 0 30.5 7.5t11.5 26.5q0 11 -9 18.5t-20 7.5q-14 0 -23 -6t-14 -14q-6 -9 -10 -20z" />
    <glyph glyph-name="four" unicode="4" horiz-adv-x="550" 
d="M557 100h-60l-17 -100h-200l17 100h-260l28 160l296 370h230l-62 -350h60zM267 280h72l21 116z" />
    <glyph glyph-name="five" unicode="5" horiz-adv-x="545" 
d="M314 414q10 4 21 8q10 3 23.5 5.5t30.5 2.5q43 0 77 -15t57 -41t35.5 -61.5t12.5 -75.5q0 -54 -21 -99.5t-57.5 -78t-86 -51t-105.5 -18.5q-43 0 -86 11t-77.5 35t-56.5 62t-22 92l200 19q2 -11 7 -20q5 -8 13 -13.5t22 -5.5q26 0 40.5 17t14.5 49q0 19 -11 31.5
t-29 12.5q-13 0 -22.5 -5t-15.5 -10q-7 -7 -12 -15h-181l112 380h400l-29 -160h-235z" />
    <glyph glyph-name="six" unicode="6" 
d="M315 270q-21 0 -37 -15t-16 -41q0 -19 12 -31.5t34 -12.5q23 0 39 15.5t16 41.5q0 20 -13 31.5t-35 11.5zM404 439q34 -8 64 -24t52.5 -41.5t35.5 -60t13 -78.5q0 -53 -20 -98t-55 -77.5t-83 -51t-103 -18.5q-57 0 -104 15.5t-80 43.5t-51 66.5t-18 84.5q0 40 13 75
t35.5 68t52 66.5t62.5 70.5l132 150h223z" />
    <glyph glyph-name="seven" unicode="7" horiz-adv-x="490" 
d="M584 630l-30 -165l-296 -465h-218l282 440h-222l34 190h450z" />
    <glyph glyph-name="eight" unicode="8" horiz-adv-x="560" 
d="M365 207q0 17 -10.5 30t-31.5 13q-20 0 -35 -15t-15 -41q0 -20 11.5 -32t28.5 -12q20 0 36 15.5t16 41.5zM183 345q-16 13 -28 31q-11 15 -19 36.5t-8 48.5q0 35 17.5 67.5t49 57t75 39.5t94.5 15q64 0 109.5 -14.5t74 -38.5t41.5 -54.5t13 -63.5q0 -34 -15.5 -58.5
t-34.5 -41.5q-22 -19 -49 -34q21 -13 38 -32q14 -17 26 -43t12 -61q0 -41 -18.5 -79t-53 -67t-85 -46t-114.5 -17q-66 0 -114 14.5t-79 40.5t-46 60.5t-15 75.5q0 45 20 75.5t44 50.5q28 23 65 38zM368 485q-16 0 -29 -11.5t-13 -34.5q0 -16 9 -25t23 -9t27 12t13 34
q0 15 -8.5 24.5t-21.5 9.5z" />
    <glyph glyph-name="nine" unicode="9" 
d="M339 360q21 0 37 15t16 41q0 19 -12 31.5t-34 12.5q-23 0 -39 -15.5t-16 -41.5q0 -20 13 -31.5t35 -11.5zM250 191q-34 7 -64 23.5t-52.5 42t-35.5 60t-13 78.5q0 53 20 98t55 77.5t82.5 51t103.5 18.5q57 0 104 -15.5t80 -43.5t51 -66.5t18 -84.5q0 -41 -13 -75.5
t-35.5 -67.5t-52 -66.5t-62.5 -70.5l-132 -150h-223z" />
    <glyph glyph-name="colon" unicode=":" horiz-adv-x="250" 
d="M35 75q0 21 7.5 40.5t21 33.5t32 22.5t40.5 8.5q41 0 66.5 -24t25.5 -61q0 -46 -30 -75.5t-75 -29.5q-41 0 -64.5 24t-23.5 61zM85 355q0 21 7.5 40.5t21 33.5t32 22.5t40.5 8.5q41 0 66.5 -24t25.5 -61q0 -46 -30 -75.5t-75 -29.5q-41 0 -64.5 24t-23.5 61z" />
    <glyph glyph-name="semicolon" unicode=";" horiz-adv-x="250" 
d="M85 355q0 21 7.5 40.5t21 33.5t32 22.5t40.5 8.5q41 0 66.5 -24t25.5 -61q0 -46 -30 -75.5t-75 -29.5q-41 0 -64.5 24t-23.5 61zM135 180q41 0 66 -25.5t25 -73.5q0 -32 -13 -65t-34.5 -61.5t-50 -51t-59.5 -33.5l-27 50q15 7 29 18q12 9 24 22t19 30q-37 3 -58 26.5
t-21 58.5q0 23 8 42t21.5 33t31.5 22t39 8z" />
    <glyph glyph-name="less" unicode="&#x3c;" horiz-adv-x="475" 
d="M462 155l-27 -155l-369 150l28 160l422 150l-30 -165l-216 -70z" />
    <glyph glyph-name="equal" unicode="=" horiz-adv-x="480" 
d="M449 80h-390l25 145h390zM485 285h-390l25 145h390z" />
    <glyph glyph-name="greater" unicode="&#x3e;" horiz-adv-x="475" 
d="M93 305l28 155l368 -150l-28 -160l-421 -150l29 165l216 70z" />
    <glyph glyph-name="question" unicode="?" horiz-adv-x="475" 
d="M547 476q0 -36 -11 -61t-28 -44t-38 -35t-41.5 -32.5t-38 -36.5t-27.5 -47h-180q7 56 31 91t50 57.5t46.5 37t20.5 31.5q0 10 -6.5 16.5t-17.5 6.5q-14 0 -22 -7.5t-13 -15.5q-5 -10 -7 -22l-179 20q5 43 27 80t55 65t75 44t89 16q55 0 95.5 -13.5t67 -36t39.5 -52
t13 -62.5zM153 75q0 21 7.5 40.5t21 33.5t32 22.5t40.5 8.5q41 0 66.5 -24t25.5 -61q0 -46 -30 -75.5t-75 -29.5q-41 0 -64.5 24t-23.5 61z" />
    <glyph glyph-name="at" unicode="@" horiz-adv-x="765" 
d="M466 565q69 0 127.5 -22.5t100.5 -61.5t65.5 -91t23.5 -110q0 -59 -15 -102.5t-40.5 -72t-60 -42t-72.5 -13.5q-28 0 -46.5 9.5t-29.5 20.5q-13 13 -22 30q-11 -17 -28 -30q-14 -11 -36.5 -20.5t-54.5 -9.5q-28 0 -53.5 12t-44.5 32.5t-30.5 48t-11.5 59.5q0 45 14.5 82
t38.5 62.5t54 39.5t62 14q21 0 36.5 -6t25.5 -13q11 -9 20 -19l16 28h105l-26 -150q-7 -38 2.5 -59t31.5 -21q18 0 33.5 22t15.5 79q0 39 -14 74t-41.5 62t-69 42.5t-95.5 15.5q-57 0 -106 -19t-84 -53.5t-55 -82t-20 -103.5q0 -42 16.5 -79t45.5 -64.5t68 -43t84 -15.5
q34 0 60 7t44 15q21 10 37 23l47 -85q-21 -20 -51 -35q-26 -14 -63.5 -24.5t-88.5 -10.5q-67 0 -124.5 23.5t-100 64t-66.5 93.5t-24 113q0 84 31 154.5t85 122t127 80.5t157 29zM405 160q27 0 42 21.5t15 53.5q0 23 -13 39t-31 16q-23 0 -40.5 -18.5t-17.5 -54.5
q0 -23 14 -40t31 -17z" />
    <glyph glyph-name="A" unicode="A" horiz-adv-x="640" 
d="M402 420l-67 -150h80zM262 110l-49 -110h-218l321 630h240l99 -630h-212l-11 110h-170z" />
    <glyph glyph-name="B" unicode="B" horiz-adv-x="615" 
d="M445 630q58 0 98 -13t64.5 -34.5t35.5 -49t11 -55.5q0 -45 -19.5 -73.5t-42.5 -45.5q-27 -19 -62 -29q27 -12 49 -32q18 -17 33.5 -44.5t15.5 -67.5q0 -38 -15 -71.5t-43 -59t-68.5 -40.5t-91.5 -15h-360l111 630h284zM294 250l-18 -100h73q34 0 50.5 14.5t16.5 40.5
q0 19 -15.5 32t-47.5 13h-59zM334 480l-16 -90h62q27 0 42 13t15 34q0 17 -11.5 30t-37.5 13h-54z" />
    <glyph glyph-name="C" unicode="C" horiz-adv-x="690" 
d="M287 303q0 -25 8.5 -47.5t24 -39t37.5 -26.5t49 -10q30 0 52 10.5t36 23.5q17 15 29 35l190 -20q-22 -67 -64 -120q-18 -23 -42 -44t-55 -38t-69.5 -27t-84.5 -10q-70 0 -128 23t-99.5 63t-64.5 94.5t-23 118.5q0 75 29.5 139t79 111t114 74t135.5 27q51 0 91 -10.5
t71 -27t53.5 -38.5t37.5 -44q36 -53 49 -120l-207 -20q-7 19 -21 35q-12 13 -32 24t-51 11q-28 0 -54 -10.5t-46.5 -30t-32.5 -46.5t-12 -60z" />
    <glyph glyph-name="D" unicode="D" horiz-adv-x="650" 
d="M391 630q65 0 118.5 -22.5t91 -61.5t58 -92t20.5 -114q0 -72 -28 -134.5t-77.5 -108t-116 -71.5t-143.5 -26h-264l111 630h230zM329 450l-48 -270h44q31 0 58.5 11t48 30t32.5 45t12 57q0 26 -7.5 49t-23 40.5t-38.5 27.5t-53 10h-25z" />
    <glyph glyph-name="E" unicode="E" horiz-adv-x="580" 
d="M161 630h490l-30 -170h-290l-11 -60h265l-28 -160h-265l-13 -70h300l-29 -170h-500z" />
    <glyph glyph-name="F" unicode="F" horiz-adv-x="545" 
d="M161 630h475l-32 -180h-275l-14 -80h220l-32 -180h-220l-33 -190h-200z" />
    <glyph glyph-name="G" unicode="G" horiz-adv-x="715" 
d="M413 340h325l-59 -340h-125l-14 55q-21 -19 -47 -33q-23 -12 -53.5 -22t-68.5 -10q-60 0 -112.5 23t-91.5 63t-61.5 94.5t-22.5 118.5q0 75 29.5 139t79 111t114 74t135.5 27q54 0 96 -9.5t73.5 -25t54 -35t37.5 -40.5q36 -48 46 -110l-208 -21q-8 14 -23 25
q-13 10 -33.5 18t-51.5 8q-28 0 -54 -10.5t-46.5 -30t-32.5 -46.5t-12 -60q0 -25 8 -47.5t23.5 -39t40 -26.5t57.5 -10q23 0 41 6t29 14q13 9 23 20h-117z" />
    <glyph glyph-name="H" unicode="H" horiz-adv-x="690" 
d="M751 630l-111 -630h-200l39 225h-190l-39 -225h-200l111 630h200l-38 -215h190l38 215h200z" />
    <glyph glyph-name="I" unicode="I" horiz-adv-x="300" 
d="M250 0h-200l111 630h200z" />
    <glyph glyph-name="J" unicode="J" horiz-adv-x="535" 
d="M528 207q-18 -101 -84.5 -159t-171.5 -58q-120 0 -177 57.5t-61 166.5l204 21q0 -23 10.5 -39.5t34.5 -16.5q21 0 32.5 12t15.5 33l72 406h200z" />
    <glyph glyph-name="K" unicode="K" horiz-adv-x="620" 
d="M405 0l-108 270l-47 -270h-200l111 630h200l-47 -265l182 265h228l-237 -312l143 -318h-225z" />
    <glyph glyph-name="L" unicode="L" horiz-adv-x="530" 
d="M161 630h200l-78 -440h270l-33 -190h-470z" />
    <glyph glyph-name="M" unicode="M" horiz-adv-x="830" 
d="M678 630h213l-111 -630h-200l52 295l-187 -295h-60l-83 295l-52 -295h-200l111 630h207l96 -330z" />
    <glyph glyph-name="N" unicode="N" horiz-adv-x="700" 
d="M761 630l-111 -630h-190l-157 305l-53 -305h-200l111 630h190l156 -306l54 306h200z" />
    <glyph glyph-name="O" unicode="O" horiz-adv-x="720" 
d="M406 180q30 0 56.5 10.5t46 29.5t31 45.5t11.5 57.5q0 26 -8 49t-23.5 40.5t-37.5 27.5t-50 10t-54 -10.5t-46.5 -30t-32.5 -46.5t-12 -60q0 -25 8.5 -47.5t24 -39t37.5 -26.5t49 -10zM754 340q0 -71 -28.5 -134.5t-77.5 -111.5t-115 -76t-141 -28q-70 0 -127 24
t-97.5 64.5t-62.5 95t-22 115.5q0 75 29.5 139t79 111t114 74t135.5 27q67 0 124.5 -22.5t99.5 -62t65.5 -94.5t23.5 -121z" />
    <glyph glyph-name="P" unicode="P" horiz-adv-x="595" 
d="M405 630q54 0 99 -14.5t77.5 -42t50 -66.5t17.5 -88q0 -56 -19.5 -101.5t-57 -78.5t-91 -51t-122.5 -18h-80l-29 -170h-200l111 630h244zM329 450l-18 -100h58q35 0 51 15t16 41q0 20 -15 32t-44 12h-48z" />
    <glyph glyph-name="Q" unicode="Q" horiz-adv-x="720" 
d="M754 340q0 -51 -13 -91t-28 -69q-18 -34 -41 -61l40 -44l-124 -105l-45 52q-18 -9 -42 -16q-20 -6 -48 -11t-61 -5q-70 0 -127 24t-97.5 64.5t-62.5 95t-22 115.5q0 75 29.5 139t79 111t114 74t135.5 27q67 0 124.5 -22.5t99.5 -62t65.5 -94.5t23.5 -121zM409 178l-33 37
l124 105l41 -50q2 5 5 13q2 7 3.5 16.5t1.5 23.5q0 26 -8 49.5t-23.5 41t-37.5 28t-50 10.5t-54 -11t-46.5 -30.5t-32.5 -47t-12 -60.5q0 -25 8.5 -47.5t24 -40t37.5 -27.5t49 -10h3z" />
    <glyph glyph-name="R" unicode="R" horiz-adv-x="620" 
d="M410 630q64 0 111 -15t78 -42.5t46 -65.5t15 -83q0 -53 -20.5 -90t-44.5 -60q-28 -27 -64 -44l94 -230h-217l-67 190h-58l-33 -190h-200l111 630h249zM384 365q31 0 47 12.5t16 35.5q0 42 -58 42h-59l-16 -90h70z" />
    <glyph glyph-name="S" unicode="S" horiz-adv-x="560" 
d="M103 434q0 46 21 84t56 65t79.5 42t92.5 15q55 0 100 -11.5t77 -37t51 -65.5t23 -96l-198 -20q0 26 -12 38t-32 12q-14 0 -23 -6t-9 -16q0 -13 18 -22.5t45.5 -20t59 -24t59 -35t45.5 -53t18 -77.5q0 -42 -18 -81t-51 -69t-80.5 -48t-106.5 -18q-58 0 -105 11.5
t-80.5 37.5t-53.5 68t-24 103l198 20q0 -21 12 -40.5t41 -19.5q20 0 31.5 8t11.5 22q0 12 -18 21.5t-45.5 20t-59.5 24.5t-59.5 36t-45.5 54t-18 78z" />
    <glyph glyph-name="T" unicode="T" horiz-adv-x="560" 
d="M380 0h-200l77 440h-165l34 190h530l-34 -190h-165z" />
    <glyph glyph-name="U" unicode="U" horiz-adv-x="670" 
d="M673 270q-25 -141 -103 -210.5t-206 -69.5q-59 0 -109 16.5t-86.5 47.5t-57 76t-20.5 102q0 29 6 62l60 336h200l-62 -347q-8 -48 13.5 -75.5t66.5 -27.5q41 0 65 20.5t33 69.5l64 360h200z" />
    <glyph glyph-name="V" unicode="V" horiz-adv-x="630" 
d="M736 630l-306 -630h-240l-84 630h212l33 -380l167 380h218z" />
    <glyph glyph-name="W" unicode="W" horiz-adv-x="910" 
d="M355 0h-180l-69 630h212l23 -320l147 320h140l33 -320l137 320h218l-291 -630h-180l-36 335z" />
    <glyph glyph-name="X" unicode="X" horiz-adv-x="620" 
d="M726 630l-240 -310l139 -320h-222l-66 170l-124 -170h-228l251 320l-130 310h222l56 -160l114 160h228z" />
    <glyph glyph-name="Y" unicode="Y" horiz-adv-x="620" 
d="M243 220l-147 410h217l63 -205l137 205h223l-293 -410l-38 -220h-200z" />
    <glyph glyph-name="Z" unicode="Z" horiz-adv-x="580" 
d="M333 190h250l-33 -190h-520l29 165l283 275h-225l34 190h495l-30 -165z" />
    <glyph glyph-name="bracketleft" unicode="[" horiz-adv-x="365" 
d="M240 0h95l-32 -180h-285l143 810h285l-32 -180h-95z" />
    <glyph glyph-name="backslash" unicode="\" horiz-adv-x="445" 
d="M111 630h185l117 -810h-185z" />
    <glyph glyph-name="bracketright" unicode="]" horiz-adv-x="365" 
d="M204 450h-95l32 180h285l-143 -810h-284l31 180h95z" />
    <glyph glyph-name="asciicircum" unicode="^" horiz-adv-x="460" 
d="M352 330l-38 125l-82 -125h-154l203 300h120l97 -300h-146z" />
    <glyph glyph-name="underscore" unicode="_" horiz-adv-x="295" 
d="M276 -220h-334l30 170h334z" />
    <glyph glyph-name="grave" unicode="`" horiz-adv-x="315" 
d="M395 500h-151l-102 140h186z" />
    <glyph glyph-name="a" unicode="a" horiz-adv-x="495" 
d="M255 120q26 0 39 20t18 45l2 10q-51 0 -72 -12t-21 -32q0 -11 8.5 -21t25.5 -10zM317 470q37 0 72 -11t62 -32t43 -52t16 -71q0 -16 -3 -34l-47 -270h-130l-16 40q-17 -14 -37 -25q-17 -10 -41 -17.5t-53 -7.5q-72 0 -111.5 32.5t-39.5 92.5q0 80 79 122.5t219 42.5
q0 16 -7.5 28t-27.5 12q-10 0 -16.5 -4t-11.5 -9t-8 -12l-169 20q8 43 34 77q11 15 28 29t40 25t54 17.5t71 6.5z" />
    <glyph glyph-name="b" unicode="b" horiz-adv-x="565" 
d="M296 434q12 10 28 18q14 7 32.5 12.5t41.5 5.5q38 0 72 -15t59.5 -42.5t40 -66.5t14.5 -86q0 -60 -20.5 -109.5t-54 -85t-75.5 -55.5t-85 -20q-35 0 -61 9.5t-43 20.5q-20 13 -35 30l-35 -50h-135l111 630h180zM324 155q32 0 54.5 22t22.5 62q0 29 -18 47.5t-47 18.5
q-32 0 -55 -23.5t-23 -61.5q0 -29 19 -47t47 -18z" />
    <glyph glyph-name="c" unicode="c" horiz-adv-x="535" 
d="M336 470q101 0 159.5 -51.5t69.5 -138.5l-182 -20q-3 12 -11 22q-7 8 -19 15.5t-33 7.5q-31 0 -53 -22.5t-22 -58.5q0 -29 17.5 -49t47.5 -20q18 0 31 7t22 15q10 10 17 23l167 -20q-18 -54 -51 -95q-14 -18 -33 -35t-43.5 -30.5t-54.5 -21.5t-66 -8q-53 0 -96.5 17.5
t-75 47.5t-48.5 70.5t-17 87.5q0 52 22.5 99t60.5 82t87.5 55.5t103.5 20.5z" />
    <glyph glyph-name="d" unicode="d" horiz-adv-x="565" 
d="M455 630h180l-111 -630h-135l-16 40q-15 -14 -34 -25q-17 -10 -40.5 -17.5t-52.5 -7.5q-38 0 -72 15t-59.5 42.5t-40 66.5t-14.5 86q0 60 20.5 109.5t54 85t75.5 55.5t85 20q35 0 58.5 -7t37.5 -15q17 -10 27 -22zM320 305q-32 0 -54.5 -22t-22.5 -62q0 -29 18 -47.5
t47 -18.5q32 0 55 23.5t23 61.5q0 29 -19 47t-47 18z" />
    <glyph glyph-name="e" unicode="e" 
d="M531 145q-12 -31 -33.5 -59t-51 -49.5t-67 -34t-80.5 -12.5q-53 0 -96.5 17.5t-75 47.5t-48.5 70.5t-17 87.5q0 52 22.5 99t60.5 82t87.5 55.5t103.5 20.5q49 0 89.5 -16t69 -43t44 -62.5t15.5 -74.5q0 -20 -2 -36t-4 -28q-3 -14 -5 -25h-300q0 -20 13 -35t42 -15
q17 0 29.5 4.5t20.5 9.5q10 6 16 15zM384 275q0 23 -14.5 39t-40.5 16q-29 0 -48 -14.5t-27 -40.5h130z" />
    <glyph glyph-name="f" unicode="f" horiz-adv-x="380" 
d="M100 430h55l3 15q20 100 72.5 145t139.5 45q17 0 33 -3t28 -6q14 -4 27 -9l-27 -159q-6 1 -12 3q-5 2 -12.5 3t-16.5 1q-17 0 -27 -5.5t-15 -12.5q-6 -8 -9 -17h86l-28 -160h-90l-47 -270h-180l47 270h-55z" />
    <glyph glyph-name="g" unicode="g" horiz-adv-x="565" 
d="M356 65q-12 -10 -28 -18q-14 -7 -32.5 -12t-41.5 -5q-40 0 -74.5 14.5t-60 40.5t-40 62t-14.5 79q0 52 20 96.5t52.5 77.5t73.5 51.5t84 18.5q35 0 62 -9.5t44 -20.5q20 -13 34 -30l36 50h135l-77 -430q-8 -45 -29.5 -81.5t-53.5 -63t-74 -41t-90 -14.5q-44 0 -78 7
t-59 18.5t-42.5 26.5t-28.5 30q-26 36 -30 83l191 20q3 -10 10 -18q6 -7 16 -12t26 -5q27 0 41.5 17.5t22.5 47.5zM311 180q14 0 27.5 6t23.5 16.5t16 24.5t6 29q0 26 -16.5 45t-42.5 19q-27 0 -49.5 -22.5t-22.5 -56.5q0 -26 16 -43.5t42 -17.5z" />
    <glyph glyph-name="h" unicode="h" horiz-adv-x="550" 
d="M405 470q36 0 65.5 -11.5t50.5 -33t32.5 -51t11.5 -65.5q0 -20 -3 -39l-47 -270h-180l39 225q5 32 -8.5 51t-40.5 19q-54 0 -65 -65l-40 -230h-180l111 630h180l-36 -200q14 11 31 20q14 8 34 14t45 6z" />
    <glyph glyph-name="i" unicode="i" horiz-adv-x="260" 
d="M138 584q0 21 8 38.5t22.5 30t33 20t39.5 7.5q40 0 64.5 -23.5t24.5 -57.5q0 -21 -8 -39t-21.5 -31.5t-32 -21t-39.5 -7.5q-42 0 -66.5 24.5t-24.5 59.5zM220 0h-180l81 460h180z" />
    <glyph glyph-name="j" unicode="j" horiz-adv-x="260" 
d="M120 460h180l-81 -456q-15 -87 -68 -130.5t-130 -43.5q-23 0 -41 2.5t-31 6.5q-15 4 -26 10l27 156q4 -2 9 -3t11.5 -1.5t15.5 -0.5q29 0 43 14t20 46zM137 584q0 21 8 38.5t22.5 30t33 20t39.5 7.5q40 0 64.5 -23.5t24.5 -57.5q0 -21 -8 -39t-21.5 -31.5t-32 -21
t-39.5 -7.5q-42 0 -66.5 24.5t-24.5 59.5z" />
    <glyph glyph-name="k" unicode="k" horiz-adv-x="510" 
d="M320 0l-67 190l-33 -190h-180l111 630h180l-61 -345l121 175h198l-166 -222l97 -238h-200z" />
    <glyph glyph-name="l" unicode="l" horiz-adv-x="260" 
d="M220 0h-180l111 630h180z" />
    <glyph glyph-name="m" unicode="m" horiz-adv-x="775" 
d="M645 470q66 0 107.5 -36t41.5 -106q0 -10 -1 -21t-3 -22l-50 -285h-180l43 245q5 26 -6 38t-30 12q-35 0 -44 -50l-43 -245h-180l43 245q5 25 -6 37.5t-30 12.5q-35 0 -44 -50l-43 -245h-180l81 460h130l15 -40q15 14 33 25q16 9 38 17t51 8q34 0 56 -8.5t36 -19.5
q16 -12 25 -27q17 15 39 27q19 11 44 19.5t57 8.5z" />
    <glyph glyph-name="n" unicode="n" horiz-adv-x="550" 
d="M397 470q39 0 70.5 -11.5t53 -32.5t33.5 -50t12 -65q0 -22 -4 -41l-47 -270h-180l39 225q5 32 -8.5 51t-40.5 19q-54 0 -65 -65l-40 -230h-180l81 460h130l15 -40q17 14 38 25q18 9 42 17t51 8z" />
    <glyph glyph-name="o" unicode="o" horiz-adv-x="550" 
d="M62 212q0 52 22 99t59.5 82.5t86.5 56t104 20.5q53 0 96.5 -18t74 -49t47.5 -71t17 -85q0 -53 -22.5 -99.5t-60.5 -81.5t-87 -55.5t-103 -20.5q-53 0 -96.5 18t-74 48t-47 70.5t-16.5 85.5zM310 155q32 0 54.5 22t22.5 62q0 29 -18 47.5t-47 18.5q-32 0 -55 -23.5
t-23 -61.5q0 -29 19 -47t47 -18z" />
    <glyph glyph-name="p" unicode="p" horiz-adv-x="565" 
d="M271 420q17 14 37 25q17 9 40 17t50 8q38 0 72 -15t59.5 -42.5t40 -66.5t14.5 -86q0 -60 -20.5 -109.5t-54 -85t-75.5 -55.5t-85 -20q-32 0 -55 7t-38 15q-18 10 -30 23l-35 -195h-180l110 620h135zM324 155q32 0 54.5 22t22.5 62q0 29 -18 47.5t-47 18.5
q-32 0 -55 -23.5t-23 -61.5q0 -29 19 -47t47 -18z" />
    <glyph glyph-name="q" unicode="q" horiz-adv-x="565" 
d="M470 460h135l-109 -620h-180l32 184q-12 -10 -27 -17q-14 -7 -32.5 -12t-42.5 -5q-38 0 -72 15t-59.5 42.5t-40 66.5t-14.5 86q0 60 20.5 109.5t54 85t75.5 55.5t85 20q35 0 61.5 -9.5t43.5 -20.5q20 -13 34 -30zM320 305q-32 0 -54.5 -22t-22.5 -62q0 -29 18 -47.5
t47 -18.5q32 0 55 23.5t23 61.5q0 29 -19 47t-47 18z" />
    <glyph glyph-name="r" unicode="r" horiz-adv-x="375" 
d="M372 470q13 0 24 -2t19 -4q9 -3 16 -6l-33 -183q-7 2 -16 5q-8 2 -17.5 3.5t-20.5 1.5q-34 0 -57.5 -20t-31.5 -65l-35 -200h-180l81 460h130l14 -40q14 14 31 25q14 9 33.5 17t42.5 8z" />
    <glyph glyph-name="s" unicode="s" horiz-adv-x="465" 
d="M212 155q0 -11 9 -20.5t24 -9.5q16 0 26 5t10 16q0 9 -15 15t-37.5 13t-49 16t-49 24.5t-37.5 39t-15 58.5q0 29 14.5 57.5t41.5 51t65 36t86 13.5q59 0 99.5 -13.5t66 -34.5t37.5 -47t14 -50l-174 -20q0 14 -7.5 22t-22.5 8q-10 0 -16.5 -5.5t-6.5 -11.5q0 -9 15 -15
t37.5 -12t48.5 -15.5t48.5 -24.5t37.5 -39t15 -60q0 -31 -15.5 -60.5t-43.5 -52t-68.5 -36t-89.5 -13.5q-62 0 -104 13t-67.5 34t-37 46.5t-13.5 51.5z" />
    <glyph glyph-name="t" unicode="t" horiz-adv-x="400" 
d="M300 230q-6 -34 5.5 -52t37.5 -18q8 0 14.5 0.5t11.5 1.5t10 3l-29 -165q-9 -3 -20 -5q-22 -5 -52 -5q-81 0 -124.5 42t-43.5 118q0 13 1.5 26.5t3.5 27.5l17 96h-65l27 150h35q27 0 40.5 10.5t18.5 39.5l12 70h160l-19 -110h90l-29 -160h-90z" />
    <glyph glyph-name="u" unicode="u" horiz-adv-x="555" 
d="M258 237q-5 -29 7 -50.5t41 -21.5q25 0 42.5 15.5t23.5 49.5l41 230h180l-81 -460h-130l-16 40q-18 -14 -38 -25q-17 -10 -40.5 -17.5t-50.5 -7.5q-42 0 -73.5 12.5t-52.5 34t-32 51.5t-11 66q0 11 1 22.5t3 23.5l46 260h180z" />
    <glyph glyph-name="v" unicode="v" horiz-adv-x="520" 
d="M258 460l27 -270l123 270h193l-241 -460h-210l-79 460h187z" />
    <glyph glyph-name="w" unicode="w" horiz-adv-x="740" 
d="M300 0h-155l-74 460h187l16 -220l104 220h130l26 -220l94 220h193l-236 -460h-155l-27 220z" />
    <glyph glyph-name="x" unicode="x" horiz-adv-x="500" 
d="M303 350l80 110h193l-175 -225l104 -235h-192l-45 115l-85 -115h-198l186 235l-95 225h187z" />
    <glyph glyph-name="y" unicode="y" horiz-adv-x="520" 
d="M71 460h187l32 -240l118 240h193l-261 -460q-28 -49 -52.5 -81.5t-51 -52t-57 -28t-69.5 -8.5q-30 0 -52 5q-12 2 -22 5l29 160h45q15 0 25 3.5t17 8.5t12 13z" />
    <glyph glyph-name="z" unicode="z" horiz-adv-x="475" 
d="M242 295h-160l29 165h405l-26 -145l-186 -150h170l-29 -165h-415l25 145z" />
    <glyph glyph-name="braceleft" unicode="{" horiz-adv-x="390" 
d="M82 300q17 0 31 7q12 5 23.5 17.5t16.5 35.5l14 80q10 56 26.5 92.5t44 58.5t67.5 30.5t96 8.5h70l-32 -180h-30q-50 0 -59 -50l-12 -70q-6 -32 -21 -52t-32 -32q-19 -14 -41 -21q20 -7 34 -21q12 -12 20.5 -32t2.5 -52l-12 -64q-5 -25 8 -40.5t39 -15.5h24l-32 -180h-70
q-85 0 -128 38t-43 107q0 11 1 22t3 23l14 80q4 23 -2.5 34.5t-17.5 17.5q-12 6 -29 8z" />
    <glyph glyph-name="bar" unicode="|" horiz-adv-x="430" 
d="M281 -160h-190l140 790h190z" />
    <glyph glyph-name="braceright" unicode="}" horiz-adv-x="390" 
d="M388 150q-17 -2 -31 -8q-12 -6 -24 -17.5t-16 -34.5l-14 -80q-10 -56 -26.5 -92.5t-44 -58.5t-67.5 -30.5t-96 -8.5h-70l32 180h30q50 0 59 50l12 70q5 32 20.5 52t32.5 32q19 14 41 21q-21 7 -35 21q-12 12 -20 32t-2 52l12 64q5 25 -8 40.5t-39 15.5h-24l32 180h70
q85 0 128 -38t43 -107q0 -11 -1 -22t-3 -23l-14 -80q-5 -23 2 -35.5t18 -17.5q12 -7 29 -7z" />
    <glyph glyph-name="asciitilde" unicode="~" horiz-adv-x="480" 
d="M540 355q-6 -49 -21 -84.5t-36.5 -59t-47.5 -35t-52 -11.5t-48.5 7t-41 15.5t-33.5 15.5t-26 7q-20 0 -31.5 -10.5t-18.5 -29.5l-143 10q6 49 21 84.5t36.5 59t47.5 35t52 11.5t48 -7t41 -15.5t34 -15.5t26 -7q20 0 31.5 10.5t18.5 29.5z" />
    <glyph glyph-name="nonbreakingspace" unicode="&#xa0;" horiz-adv-x="240" 
 />
    <glyph glyph-name="exclamdown" unicode="&#xa1;" horiz-adv-x="310" 
d="M231 -170h-210l93 410h170zM319 385q0 -21 -7.5 -40.5t-21 -33.5t-32 -22.5t-40.5 -8.5q-41 0 -66.5 24t-25.5 61q0 46 30 75.5t75 29.5q41 0 64.5 -24t23.5 -61z" />
    <glyph glyph-name="cent" unicode="&#xa2;" horiz-adv-x="535" 
d="M177 15q-57 28 -89 80.5t-32 117.5q0 43 15.5 82.5t42.5 71.5t63 56t78 36l13 71h180l-14 -79q54 -22 85.5 -66t39.5 -105l-182 -20q-3 12 -11 22q-7 8 -19 15.5t-33 7.5q-31 0 -53 -22.5t-22 -58.5q0 -29 17.5 -49t47.5 -20q18 0 31 7t22 15q10 10 17 23l167 -20
q-13 -43 -39 -79q-22 -32 -58 -61.5t-90 -42.5l-14 -77h-180z" />
    <glyph glyph-name="sterling" unicode="&#xa3;" horiz-adv-x="545" 
d="M322 240q-2 -15 -8 -25t-13 -15q-8 -7 -18 -10h270l-33 -190h-490l33 190q52 -2 59 50h-40l25 140h40l8 50q16 98 76 154t166 56q40 0 71 -8.5t54 -22t38.5 -31.5t25.5 -36q24 -43 27 -97l-189 -20v9q0 16 -6.5 26t-23.5 10q-15 0 -24.5 -9t-13.5 -31l-9 -50h110
l-25 -140h-110z" />
    <glyph glyph-name="currency" unicode="&#xa4;" horiz-adv-x="595" 
d="M39 0zM91 375h55l45 255h230q57 0 101 -15t73 -40.5t44 -58.5t15 -69q0 -44 -19 -82t-55 -66t-89 -43.5t-120 -15.5h-49l-5 -30h150l-23 -130h-150l-14 -80h-200l14 80h-55l23 130h55l5 30h-55zM374 375q31 0 49 15.5t18 41.5q0 23 -15 38t-42 15h-19l-19 -110h28z" />
    <glyph glyph-name="yen" unicode="&#xa5;" horiz-adv-x="620" 
d="M130 200h115l5 30h-115l23 130h45l-102 270h217l63 -205l137 205h223l-198 -270h40l-23 -130h-110l-5 -30h110l-23 -130h-110l-12 -70h-200l12 70h-115z" />
    <glyph glyph-name="brokenbar" unicode="&#xa6;" horiz-adv-x="430" 
d="M421 630l-55 -310h-190l55 310h190zM146 150h190l-55 -310h-190z" />
    <glyph glyph-name="section" unicode="&#xa7;" horiz-adv-x="505" 
d="M411 120q9 -13 16 -28q6 -13 11.5 -30t5.5 -36q0 -32 -12 -59.5t-37 -48t-62 -32t-86 -11.5q-91 0 -143 43t-54 112l162 20q0 -18 7 -31.5t26 -13.5q11 0 21 7.5t10 21.5q0 13 -14.5 24t-35.5 22t-46.5 24.5t-46.5 33t-35.5 45.5t-14.5 63q0 43 15.5 71.5t34.5 45.5
t35 24.5l16 7.5q-10 12 -17 27q-6 13 -11 29t-5 36q0 31 13 59t37.5 49t61 33t84.5 12q91 0 142.5 -43.5t55.5 -111.5l-163 -20q0 19 -6 32t-26 13q-12 0 -21.5 -6.5t-9.5 -22.5q0 -15 14.5 -26t35.5 -21.5t46.5 -23t46.5 -31t35.5 -45.5t14.5 -66q0 -42 -15.5 -70.5
t-34.5 -46t-35 -24.5zM278 305q-4 -4 -8 -9q-3 -5 -5.5 -11t-2.5 -15q0 -17 8 -28.5t19 -18.5q12 -8 28 -13q4 3 8 8q3 5 5.5 11.5t2.5 15.5q0 17 -8.5 28.5t-19.5 18.5q-12 8 -27 13z" />
    <glyph glyph-name="dieresis" unicode="&#xa8;" horiz-adv-x="430" 
d="M295 581q0 -18 -7.5 -34.5t-20.5 -29t-30.5 -20t-36.5 -7.5q-34 0 -55.5 23.5t-21.5 55.5q0 18 8 34.5t20.5 29t29.5 20t35 7.5q34 0 56.5 -23.5t22.5 -55.5zM495 581q0 -18 -7.5 -34.5t-20.5 -29t-30.5 -20t-36.5 -7.5q-34 0 -55.5 23.5t-21.5 55.5q0 18 8 34.5t20.5 29
t29.5 20t35 7.5q34 0 56.5 -23.5t22.5 -55.5z" />
    <glyph glyph-name="copyright" unicode="&#xa9;" horiz-adv-x="750" 
d="M447 380q-29 0 -47 -19t-18 -51q0 -23 13.5 -41.5t36.5 -18.5q17 0 28 6t19 14q9 9 14 20l104 -10q-11 -39 -33 -70q-19 -26 -53 -48t-88 -22q-33 0 -63 12.5t-52 34t-35 50t-13 59.5q0 43 14.5 79t40.5 61.5t61.5 39.5t76.5 14q54 0 84.5 -22t46.5 -48q18 -31 25 -70
l-115 -10q-3 11 -8 20q-5 8 -14 14t-25 6zM413 90q52 0 98 17.5t80.5 50t54.5 77.5t20 100q0 41 -15.5 78.5t-43.5 65.5t-67.5 44.5t-86.5 16.5q-54 0 -100 -18t-80.5 -50.5t-54 -77.5t-19.5 -99q0 -42 16.5 -79t45 -65t68 -44.5t84.5 -16.5zM773 352q0 -74 -29 -140
t-79.5 -115.5t-119.5 -78t-149 -28.5q-66 0 -121.5 23t-96 62t-63 91.5t-22.5 111.5q0 77 29.5 143t81 115t120 76.5t146.5 27.5q65 0 120.5 -23t96 -62t63.5 -91.5t23 -111.5z" />
    <glyph glyph-name="ordfeminine" unicode="&#xaa;" horiz-adv-x="340" 
d="M274 635q26 0 50 -8t41.5 -23.5t25.5 -38.5t3 -52l-29 -163h-82l-6 28q-11 -10 -25 -17q-12 -6 -28 -11t-35 -5q-43 0 -67.5 21.5t-24.5 53.5q0 23 10 41.5t32 31.5t58 20t87 7q0 11 -4.5 18t-16.5 7q-10 0 -18 -8q-4 -4 -5 -7h-103q5 45 39.5 75t97.5 30zM237 420
q32 0 37 35l2 15q-35 0 -48 -9.5t-13 -22.5q0 -8 5.5 -13t16.5 -5z" />
    <glyph glyph-name="guillemotleft" unicode="&#xab;" horiz-adv-x="585" 
d="M328 50h-170l-89 175l151 175h175l-154 -179zM563 50h-170l-89 175l151 175h175l-154 -179z" />
    <glyph glyph-name="logicalnot" unicode="&#xac;" horiz-adv-x="505" 
d="M329 250h-255l30 170h435l-47 -265h-180z" />
    <glyph glyph-name="uni00AD" unicode="&#xad;" horiz-adv-x="400" 
d="M389 170h-320l30 170h320z" />
    <glyph glyph-name="registered" unicode="&#xae;" horiz-adv-x="750" 
d="M773 352q0 -74 -30 -140t-81 -115.5t-119.5 -78t-146.5 -28.5q-66 0 -121.5 23t-96 62t-63 91.5t-22.5 111.5q0 77 29.5 143t81 115t120 76.5t146.5 27.5q65 0 120.5 -23t96 -62t63.5 -91.5t23 -111.5zM584 158q38 35 60 82t22 100q0 41 -16.5 77.5t-45 63.5t-67.5 43
t-84 16q-54 0 -100 -18t-80.5 -50.5t-54 -77.5t-19.5 -99q0 -42 15.5 -79t43.5 -65t66.5 -44.5t83.5 -16.5q38 0 68 9.5t53 20.5q26 13 47 30h-107l-52 100h-10l-18 -100h-110l58 330h131q28 0 50.5 -8.5t38.5 -23t24 -33.5t8 -40q0 -27 -11 -45.5t-25 -30.5
q-16 -14 -36 -23zM455 345q12 0 19.5 5.5t7.5 14.5q0 8 -6.5 14t-20.5 6h-25l-7 -40h32z" />
    <glyph glyph-name="macron" unicode="&#xaf;" horiz-adv-x="350" 
d="M409 510h-290l24 135h290z" />
    <glyph glyph-name="degree" unicode="&#xb0;" horiz-adv-x="340" 
d="M398 510q0 -30 -12 -56.5t-33 -46t-49 -31t-59 -11.5q-29 0 -53.5 10t-41.5 26.5t-26.5 39t-9.5 47.5q0 31 12 58t32.5 46.5t48 31t58.5 11.5q29 0 53.5 -9.5t42 -26.5t27.5 -39.5t10 -49.5zM257 535q-14 0 -25.5 -11t-11.5 -28q0 -13 8.5 -22t22.5 -9q17 0 28.5 10
t11.5 29q0 14 -9 22.5t-25 8.5z" />
    <glyph glyph-name="plusminus" unicode="&#xb1;" horiz-adv-x="480" 
d="M445 0h-410l29 165h120l14 80h-120l30 170h120l22 125h170l-22 -125h120l-30 -170h-120l-14 -80h120z" />
    <glyph glyph-name="twosuperior" unicode="&#xb2;" horiz-adv-x="289" 
d="M363 510l-17 -100h-260l14 80l131 90q12 8 21.5 17t9.5 20q0 13 -14 13q-8 0 -15.5 -6.5t-8.5 -18.5l-106 10q5 49 44.5 79.5t103.5 30.5q59 0 91.5 -28t32.5 -65q0 -33 -21.5 -55.5t-56.5 -46.5l-29 -20h80z" />
    <glyph glyph-name="threesuperior" unicode="&#xb3;" horiz-adv-x="295" 
d="M114 625q8 45 43 72.5t107 27.5q31 0 54.5 -7.5t39.5 -19.5t24.5 -27.5t8.5 -30.5q0 -21 -8 -34.5t-18 -21.5q-11 -10 -26 -14q9 -8 17 -18q7 -8 12.5 -20t5.5 -27q0 -45 -36.5 -72.5t-102.5 -27.5q-76 0 -111.5 29t-35.5 71l123 10q0 -8 4 -14t14 -6q19 0 19 16
q0 14 -19 14h-28l14 80h25q9 0 16 3.5t7 11.5q0 15 -20 15q-8 0 -12.5 -3t-6.5 -7q-3 -4 -4 -10z" />
    <glyph glyph-name="acute" unicode="&#xb4;" horiz-adv-x="315" 
d="M207 640h193l-124 -140h-158z" />
    <glyph glyph-name="mu" unicode="&#xb5;" horiz-adv-x="555" 
d="M121 460h180l-39 -220q-6 -34 5.5 -54.5t40.5 -20.5q25 0 43 15t24 50l41 230h180l-81 -460h-130l-16 40q-11 -14 -27 -25q-14 -10 -33.5 -17.5t-45.5 -7.5q-8 0 -15.5 1t-13.5 3l-14 4l-29 -158h-180z" />
    <glyph glyph-name="paragraph" unicode="&#xb6;" horiz-adv-x="595" 
d="M640 630l-127 -720h-145l97 550h-50l-97 -550h-145l61 350q-35 0 -63.5 13t-49 36.5t-31.5 55t-11 67.5q0 42 16.5 78t45.5 62.5t67 42t82 15.5h350z" />
    <glyph glyph-name="periodcentered" unicode="&#xb7;" horiz-adv-x="240" 
d="M75 305q0 21 7.5 40.5t21 33.5t32 22.5t40.5 8.5q41 0 66.5 -24t25.5 -61q0 -46 -30 -75.5t-75 -29.5q-41 0 -64.5 24t-23.5 61z" />
    <glyph glyph-name="cedilla" unicode="&#xb8;" horiz-adv-x="280" 
d="M137 -40q25 -5 45 -16q17 -9 31.5 -25t14.5 -42q0 -46 -36.5 -76.5t-112.5 -30.5q-19 0 -34.5 2t-27.5 4q-14 3 -25 6l9 60l12 -4q10 -3 27 -3q63 0 63 41q0 12 -11.5 23t-37.5 11h-10l51 90h65z" />
    <glyph glyph-name="onesuperior" unicode="&#xb9;" horiz-adv-x="275" 
d="M341 720l-54 -310h-125l28 161l-25 -14l-42 88l133 75h85z" />
    <glyph glyph-name="ordmasculine" unicode="&#xba;" horiz-adv-x="330" 
d="M244 450q17 0 26.5 14.5t9.5 31.5q0 14 -7.5 24t-19.5 10q-11 0 -23 -11t-12 -35q0 -15 8 -24.5t18 -9.5zM396 502q0 -30 -12.5 -58.5t-34.5 -50t-52 -35t-65 -13.5q-29 0 -52.5 10.5t-41 28.5t-27 42.5t-9.5 51.5q0 33 13.5 61.5t35.5 50t51 33.5t60 12q29 0 53.5 -10.5
t42.5 -28.5t28 -42t10 -52z" />
    <glyph glyph-name="guillemotright" unicode="&#xbb;" horiz-adv-x="585" 
d="M192 229l-87 171h170l89 -175l-151 -175h-175zM427 229l-87 171h170l89 -175l-151 -175h-175z" />
    <glyph glyph-name="onequarter" unicode="&#xbc;" horiz-adv-x="690" 
d="M75 0zM75 0l496 630h154l-496 -630h-154zM328 630l-54 -310h-125l28 161l-25 -14l-42 88l133 75h85zM683 60h-30l-10 -60h-125l10 60h-135l13 70l141 180h150l-26 -150h30zM559 150l11 60l-48 -60h37z" />
    <glyph glyph-name="onehalf" unicode="&#xbd;" horiz-adv-x="710" 
d="M75 0zM75 0l496 630h154l-496 -630h-154zM329 630l-54 -310h-125l28 161l-25 -14l-42 88l133 75h85zM695 100l-17 -100h-260l14 80l131 90q12 8 21.5 17t9.5 20q0 13 -14 13q-8 0 -15.5 -6.5t-8.5 -18.5l-106 10q5 49 44.5 79.5t103.5 30.5q59 0 91.5 -28t32.5 -65
q0 -33 -21.5 -55.5t-56.5 -46.5l-29 -20h80z" />
    <glyph glyph-name="threequarters" unicode="&#xbe;" horiz-adv-x="725" 
d="M82 0zM107 0l496 630h154l-496 -630h-154zM715 60h-30l-10 -60h-125l10 60h-135l13 70l141 180h150l-26 -150h30zM591 150l11 60l-48 -60h37zM108 535q8 45 43 72.5t107 27.5q31 0 54.5 -7.5t39.5 -19.5t24.5 -27.5t8.5 -30.5q0 -21 -8 -34.5t-18 -21.5q-11 -10 -26 -14
q9 -8 17 -18q7 -8 12.5 -20t5.5 -27q0 -45 -36.5 -72.5t-102.5 -27.5q-76 0 -111.5 29t-35.5 71l123 10q0 -8 4 -14t14 -6q19 0 19 16q0 14 -19 14h-28l14 80h25q9 0 16 3.5t7 11.5q0 15 -20 15q-8 0 -12.5 -3t-6.5 -7q-3 -4 -4 -10z" />
    <glyph glyph-name="questiondown" unicode="&#xbf;" horiz-adv-x="475" 
d="M15 -6q0 33 10.5 56.5t27 41.5t37 33t41 31.5t38.5 36t30 47.5h180q-7 -53 -31 -85.5t-50 -54t-46.5 -36.5t-20.5 -31q0 -10 6.5 -16.5t17.5 -6.5q14 0 21.5 7t12.5 15q5 10 8 23l179 -20q-5 -43 -27 -80.5t-55 -65t-75.5 -43.5t-88.5 -16q-55 0 -95.5 13.5t-67 36
t-39.5 52t-13 62.5zM409 385q0 -21 -7.5 -40.5t-21 -33.5t-32 -22.5t-40.5 -8.5q-41 0 -66.5 24t-25.5 61q0 46 30 75.5t75 29.5q41 0 64.5 -24t23.5 -61z" />
    <glyph glyph-name="Agrave" unicode="&#xc0;" horiz-adv-x="640" 
d="M0 0zM402 420l-67 -150h80zM262 110l-49 -110h-218l321 630h240l99 -630h-212l-11 110h-170zM507 695h-151l-102 140h186z" />
    <glyph glyph-name="Aacute" unicode="&#xc1;" horiz-adv-x="640" 
d="M0 0zM402 420l-67 -150h80zM262 110l-49 -110h-218l321 630h240l99 -630h-212l-11 110h-170zM447 835h193l-124 -140h-158z" />
    <glyph glyph-name="Acircumflex" unicode="&#xc2;" horiz-adv-x="640" 
d="M0 0zM402 420l-67 -150h80zM262 110l-49 -110h-218l321 630h240l99 -630h-212l-11 110h-170zM449 745l-49 -55h-153l130 145h170l80 -145h-147z" />
    <glyph glyph-name="Atilde" unicode="&#xc3;" horiz-adv-x="640" 
d="M0 0zM402 420l-67 -150h80zM262 110l-49 -110h-218l321 630h240l99 -630h-212l-11 110h-170zM269 690q5 75 35.5 107.5t68.5 32.5q19 0 33.5 -4.5t27.5 -10.5t24 -10.5t22 -4.5q23 0 23 25l108 -10q-5 -75 -35.5 -107.5t-68.5 -32.5q-19 0 -33.5 4.5t-27.5 10.5t-24 10.5
t-22 4.5q-23 0 -23 -25z" />
    <glyph glyph-name="Adieresis" unicode="&#xc4;" horiz-adv-x="640" 
d="M0 0zM402 420l-67 -150h80zM262 110l-49 -110h-218l321 630h240l99 -630h-212l-11 110h-170zM430 771q0 -18 -7.5 -34.5t-20.5 -29t-30.5 -20t-36.5 -7.5q-34 0 -55.5 23.5t-21.5 55.5q0 18 8 34.5t20.5 29t29.5 20t35 7.5q34 0 56.5 -23.5t22.5 -55.5zM630 771
q0 -18 -7.5 -34.5t-20.5 -29t-30.5 -20t-36.5 -7.5q-34 0 -55.5 23.5t-21.5 55.5q0 18 8 34.5t20.5 29t29.5 20t35 7.5q34 0 56.5 -23.5t22.5 -55.5z" />
    <glyph glyph-name="Aring" unicode="&#xc5;" horiz-adv-x="640" 
d="M0 0zM402 420l-67 -150h80zM262 110l-49 -110h-218l321 630h240l99 -630h-212l-11 110h-170zM560 785q0 -24 -9.5 -44.5t-25.5 -36.5t-38.5 -25t-47.5 -9q-53 0 -82.5 27t-29.5 69q0 50 34.5 82t86.5 32q51 0 81.5 -27t30.5 -68zM440 740q17 0 28 10t11 29q0 13 -9 22
t-25 9q-15 0 -25.5 -11t-10.5 -28q0 -11 8 -21t23 -10z" />
    <glyph glyph-name="AE" unicode="&#xc6;" horiz-adv-x="900" 
d="M419 110h-161l-69 -110h-219l411 630h590l-30 -170h-260l-11 -60h235l-28 -160h-235l-13 -70h270l-29 -170h-470zM480 454l-112 -174h81z" />
    <glyph glyph-name="Ccedilla" unicode="&#xc7;" horiz-adv-x="690" 
d="M288 303q0 -25 8.5 -47.5t24 -39t37.5 -26.5t49 -10q30 0 52 10.5t36 23.5q17 15 29 35l190 -20q-22 -66 -63 -118q-18 -22 -41.5 -43.5t-53.5 -38.5t-67.5 -27.5t-83.5 -11.5l-17 -30q25 -5 45 -16q17 -9 31.5 -25t14.5 -42q0 -46 -36.5 -76.5t-112.5 -30.5
q-19 0 -34.5 2t-27.5 4q-14 3 -25 6l9 60l12 -4q10 -3 27 -3q63 0 63 41q0 12 -11.5 23t-37.5 11h-10l48 85q-59 8 -106.5 33.5t-81.5 64.5t-52.5 89t-18.5 107q0 75 29.5 139t79 111t114 74t135.5 27q51 0 91 -10.5t71 -27t53.5 -38.5t37.5 -44q36 -53 49 -120l-207 -20
q-7 19 -21 35q-12 13 -32 24t-51 11q-28 0 -54 -10.5t-46.5 -30t-32.5 -46.5t-12 -60z" />
    <glyph glyph-name="Egrave" unicode="&#xc8;" horiz-adv-x="580" 
d="M50 0zM161 630h490l-30 -170h-290l-11 -60h265l-28 -160h-265l-13 -70h300l-29 -170h-500zM500 696h-151l-102 140h186z" />
    <glyph glyph-name="Eacute" unicode="&#xc9;" horiz-adv-x="580" 
d="M50 0zM161 630h490l-30 -170h-290l-11 -60h265l-28 -160h-265l-13 -70h300l-29 -170h-500zM409 835h193l-124 -140h-158z" />
    <glyph glyph-name="Ecircumflex" unicode="&#xca;" horiz-adv-x="580" 
d="M50 0zM161 630h490l-30 -170h-290l-11 -60h265l-28 -160h-265l-13 -70h300l-29 -170h-500zM424 745l-49 -55h-153l130 145h170l80 -145h-147z" />
    <glyph glyph-name="Edieresis" unicode="&#xcb;" horiz-adv-x="580" 
d="M50 0zM161 630h490l-30 -170h-290l-11 -60h265l-28 -160h-265l-13 -70h300l-29 -170h-500zM410 771q0 -18 -7.5 -34.5t-20.5 -29t-30.5 -20t-36.5 -7.5q-34 0 -55.5 23.5t-21.5 55.5q0 18 8 34.5t20.5 29t29.5 20t35 7.5q34 0 56.5 -23.5t22.5 -55.5zM610 771
q0 -18 -7.5 -34.5t-20.5 -29t-30.5 -20t-36.5 -7.5q-34 0 -55.5 23.5t-21.5 55.5q0 18 8 34.5t20.5 29t29.5 20t35 7.5q34 0 56.5 -23.5t22.5 -55.5z" />
    <glyph glyph-name="Igrave" unicode="&#xcc;" horiz-adv-x="300" 
d="M50 0zM250 0h-200l111 630h200zM345 695h-151l-102 140h186z" />
    <glyph glyph-name="Iacute" unicode="&#xcd;" horiz-adv-x="300" 
d="M50 0zM250 0h-200l111 630h200zM282 835h193l-124 -140h-158z" />
    <glyph glyph-name="Icircumflex" unicode="&#xce;" horiz-adv-x="300" 
d="M50 0zM250 0h-200l111 630h200zM279 745l-49 -55h-153l130 145h170l80 -145h-147z" />
    <glyph glyph-name="Idieresis" unicode="&#xcf;" horiz-adv-x="300" 
d="M50 0zM265 771q0 -18 -7.5 -34.5t-20.5 -29t-30.5 -20t-36.5 -7.5q-34 0 -55.5 23.5t-21.5 55.5q0 18 8 34.5t20.5 29t29.5 20t35 7.5q34 0 56.5 -23.5t22.5 -55.5zM465 771q0 -18 -7.5 -34.5t-20.5 -29t-30.5 -20t-36.5 -7.5q-34 0 -55.5 23.5t-21.5 55.5q0 18 8 34.5
t20.5 29t29.5 20t35 7.5q34 0 56.5 -23.5t22.5 -55.5zM250 0h-200l111 630h200z" />
    <glyph glyph-name="Eth" unicode="&#xd0;" horiz-adv-x="675" 
d="M60 0zM88 390h55l43 240h230q65 0 118.5 -22.5t91 -61.5t58 -92t20.5 -114q0 -72 -28 -134.5t-77.5 -108t-116 -71.5t-143.5 -26h-264l40 230h-55zM354 450l-11 -60h70l-28 -160h-70l-9 -50h44q31 0 58.5 11t48 30t32.5 45t12 57q0 26 -7.5 49t-23 40.5t-38.5 27.5
t-53 10h-25z" />
    <glyph glyph-name="Ntilde" unicode="&#xd1;" horiz-adv-x="700" 
d="M50 0zM761 630l-111 -630h-190l-157 305l-53 -305h-200l111 630h190l156 -306l54 306h200zM304 700q5 75 35.5 107.5t68.5 32.5q19 0 33.5 -4.5t27.5 -10.5t24 -10.5t22 -4.5q23 0 23 25l108 -10q-5 -75 -35.5 -107.5t-68.5 -32.5q-19 0 -33.5 4.5t-27.5 10.5t-24 10.5
t-22 4.5q-23 0 -23 -25z" />
    <glyph glyph-name="Ograve" unicode="&#xd2;" horiz-adv-x="720" 
d="M83 0zM406 180q30 0 56.5 10.5t46 29.5t31 45.5t11.5 57.5q0 26 -8 49t-23.5 40.5t-37.5 27.5t-50 10t-54 -10.5t-46.5 -30t-32.5 -46.5t-12 -60q0 -25 8.5 -47.5t24 -39t37.5 -26.5t49 -10zM754 340q0 -71 -28.5 -134.5t-77.5 -111.5t-115 -76t-141 -28q-70 0 -127 24
t-97.5 64.5t-62.5 95t-22 115.5q0 75 29.5 139t79 111t114 74t135.5 27q67 0 124.5 -22.5t99.5 -62t65.5 -94.5t23.5 -121zM530 695h-151l-102 140h186z" />
    <glyph glyph-name="Oacute" unicode="&#xd3;" horiz-adv-x="720" 
d="M83 0zM406 180q30 0 56.5 10.5t46 29.5t31 45.5t11.5 57.5q0 26 -8 49t-23.5 40.5t-37.5 27.5t-50 10t-54 -10.5t-46.5 -30t-32.5 -46.5t-12 -60q0 -25 8.5 -47.5t24 -39t37.5 -26.5t49 -10zM754 340q0 -71 -28.5 -134.5t-77.5 -111.5t-115 -76t-141 -28q-70 0 -127 24
t-97.5 64.5t-62.5 95t-22 115.5q0 75 29.5 139t79 111t114 74t135.5 27q67 0 124.5 -22.5t99.5 -62t65.5 -94.5t23.5 -121zM467 835h193l-124 -140h-158z" />
    <glyph glyph-name="Ocircumflex" unicode="&#xd4;" horiz-adv-x="720" 
d="M83 0zM406 180q30 0 56.5 10.5t46 29.5t31 45.5t11.5 57.5q0 26 -8 49t-23.5 40.5t-37.5 27.5t-50 10t-54 -10.5t-46.5 -30t-32.5 -46.5t-12 -60q0 -25 8.5 -47.5t24 -39t37.5 -26.5t49 -10zM754 340q0 -71 -28.5 -134.5t-77.5 -111.5t-115 -76t-141 -28q-70 0 -127 24
t-97.5 64.5t-62.5 95t-22 115.5q0 75 29.5 139t79 111t114 74t135.5 27q67 0 124.5 -22.5t99.5 -62t65.5 -94.5t23.5 -121zM469 745l-49 -55h-153l130 145h170l80 -145h-147z" />
    <glyph glyph-name="Otilde" unicode="&#xd5;" horiz-adv-x="720" 
d="M83 0zM406 180q30 0 56.5 10.5t46 29.5t31 45.5t11.5 57.5q0 26 -8 49t-23.5 40.5t-37.5 27.5t-50 10t-54 -10.5t-46.5 -30t-32.5 -46.5t-12 -60q0 -25 8.5 -47.5t24 -39t37.5 -26.5t49 -10zM754 340q0 -71 -28.5 -134.5t-77.5 -111.5t-115 -76t-141 -28q-70 0 -127 24
t-97.5 64.5t-62.5 95t-22 115.5q0 75 29.5 139t79 111t114 74t135.5 27q67 0 124.5 -22.5t99.5 -62t65.5 -94.5t23.5 -121zM299 700q5 75 35.5 107.5t68.5 32.5q19 0 33.5 -4.5t27.5 -10.5t24 -10.5t22 -4.5q23 0 23 25l108 -10q-5 -75 -35.5 -107.5t-68.5 -32.5
q-19 0 -33.5 4.5t-27.5 10.5t-24 10.5t-22 4.5q-23 0 -23 -25z" />
    <glyph glyph-name="Odieresis" unicode="&#xd6;" horiz-adv-x="720" 
d="M83 0zM406 180q30 0 56.5 10.5t46 29.5t31 45.5t11.5 57.5q0 26 -8 49t-23.5 40.5t-37.5 27.5t-50 10t-54 -10.5t-46.5 -30t-32.5 -46.5t-12 -60q0 -25 8.5 -47.5t24 -39t37.5 -26.5t49 -10zM754 340q0 -71 -28.5 -134.5t-77.5 -111.5t-115 -76t-141 -28q-70 0 -127 24
t-97.5 64.5t-62.5 95t-22 115.5q0 75 29.5 139t79 111t114 74t135.5 27q67 0 124.5 -22.5t99.5 -62t65.5 -94.5t23.5 -121zM450 771q0 -18 -7.5 -34.5t-20.5 -29t-30.5 -20t-36.5 -7.5q-34 0 -55.5 23.5t-21.5 55.5q0 18 8 34.5t20.5 29t29.5 20t35 7.5q34 0 56.5 -23.5
t22.5 -55.5zM650 771q0 -18 -7.5 -34.5t-20.5 -29t-30.5 -20t-36.5 -7.5q-34 0 -55.5 23.5t-21.5 55.5q0 18 8 34.5t20.5 29t29.5 20t35 7.5q34 0 56.5 -23.5t22.5 -55.5z" />
    <glyph glyph-name="multiply" unicode="&#xd7;" horiz-adv-x="480" 
d="M394 255l79 -95l-125 -110l-79 95l-111 -95l-95 110l111 95l-78 95l125 110l79 -95l111 95l95 -110z" />
    <glyph glyph-name="Oslash" unicode="&#xd8;" horiz-adv-x="730" 
d="M751 340q0 -69 -27.5 -132.5t-76 -112t-114 -77t-140.5 -28.5q-40 0 -71 7t-53 15q-26 10 -45 23l-56 -45l-116 140l54 43q-7 15 -11 33q-5 16 -8 36.5t-3 46.5q0 75 29.5 139t79 111t114 74t135.5 27q42 0 74.5 -8t55.5 -18q26 -11 47 -25l63 51l116 -140l-66 -53
q5 -13 9 -30q4 -14 7 -34t3 -43zM286 302l180 145q-4 1 -9 2t-11.5 2t-14.5 1q-27 0 -53 -11t-46.5 -30.5t-33 -47t-12.5 -60.5v-1zM405 178q25 0 50.5 10.5t45.5 29t33 43.5t15 55l-169 -136q5 -1 9 -1q4 -1 8 -1h8z" />
    <glyph glyph-name="Ugrave" unicode="&#xd9;" horiz-adv-x="670" 
d="M91 0zM673 270q-25 -141 -103 -210.5t-206 -69.5q-59 0 -109 16.5t-86.5 47.5t-57 76t-20.5 102q0 29 6 62l60 336h200l-62 -347q-8 -48 13.5 -75.5t66.5 -27.5q41 0 65 20.5t33 69.5l64 360h200zM528 695h-151l-102 140h186z" />
    <glyph glyph-name="Uacute" unicode="&#xda;" horiz-adv-x="670" 
d="M91 0zM673 270q-25 -141 -103 -210.5t-206 -69.5q-59 0 -109 16.5t-86.5 47.5t-57 76t-20.5 102q0 29 6 62l60 336h200l-62 -347q-8 -48 13.5 -75.5t66.5 -27.5q41 0 65 20.5t33 69.5l64 360h200zM462 835h193l-124 -140h-158z" />
    <glyph glyph-name="Ucircumflex" unicode="&#xdb;" horiz-adv-x="670" 
d="M91 0zM673 270q-25 -141 -103 -210.5t-206 -69.5q-59 0 -109 16.5t-86.5 47.5t-57 76t-20.5 102q0 29 6 62l60 336h200l-62 -347q-8 -48 13.5 -75.5t66.5 -27.5q41 0 65 20.5t33 69.5l64 360h200zM464 745l-49 -55h-153l130 145h170l80 -145h-147z" />
    <glyph glyph-name="Udieresis" unicode="&#xdc;" horiz-adv-x="670" 
d="M91 0zM673 270q-25 -141 -103 -210.5t-206 -69.5q-59 0 -109 16.5t-86.5 47.5t-57 76t-20.5 102q0 29 6 62l60 336h200l-62 -347q-8 -48 13.5 -75.5t66.5 -27.5q41 0 65 20.5t33 69.5l64 360h200zM450 771q0 -18 -7.5 -34.5t-20.5 -29t-30.5 -20t-36.5 -7.5
q-34 0 -55.5 23.5t-21.5 55.5q0 18 8 34.5t20.5 29t29.5 20t35 7.5q34 0 56.5 -23.5t22.5 -55.5zM650 771q0 -18 -7.5 -34.5t-20.5 -29t-30.5 -20t-36.5 -7.5q-34 0 -55.5 23.5t-21.5 55.5q0 18 8 34.5t20.5 29t29.5 20t35 7.5q34 0 56.5 -23.5t22.5 -55.5z" />
    <glyph glyph-name="Yacute" unicode="&#xdd;" horiz-adv-x="620" 
d="M96 0zM243 220l-147 410h217l63 -205l137 205h223l-293 -410l-38 -220h-200zM427 835h193l-124 -140h-158z" />
    <glyph glyph-name="Thorn" unicode="&#xde;" horiz-adv-x="660" 
d="M315 370l-16 -90h115q31 0 47 14t16 36q0 17 -11.5 28.5t-35.5 11.5h-115zM461 550q52 0 93.5 -15t71 -42t45.5 -65t16 -84q0 -54 -19.5 -98.5t-55 -77t-85.5 -50.5t-110 -18h-150l-17 -100h-200l111 630h200l-15 -80h115z" />
    <glyph glyph-name="germandbls" unicode="&#xdf;" horiz-adv-x="555" 
d="M489 335q22 -13 40 -31q15 -16 27.5 -41t12.5 -60q0 -45 -16 -82.5t-46.5 -64t-75 -41.5t-101.5 -15h-70l28 160h50q26 0 39 12.5t13 32.5q0 14 -10.5 24.5t-29.5 10.5h-48l27 155q32 0 45 12.5t13 29.5q0 14 -10.5 26t-31.5 12q-23 0 -34.5 -12.5t-15.5 -32.5l-75 -430
h-180l75 430q16 96 82 153t175 57q44 0 80.5 -13.5t63 -36.5t41.5 -53t15 -63q0 -35 -13 -61.5t-29 -43.5q-18 -20 -41 -34z" />
    <glyph glyph-name="agrave" unicode="&#xe0;" horiz-adv-x="495" 
d="M32 0zM255 120q26 0 39 20t18 45l2 10q-51 0 -72 -12t-21 -32q0 -11 8.5 -21t25.5 -10zM317 470q37 0 72 -11t62 -32t43 -52t16 -71q0 -16 -3 -34l-47 -270h-130l-16 40q-17 -14 -37 -25q-17 -10 -41 -17.5t-53 -7.5q-72 0 -111.5 32.5t-39.5 92.5q0 80 79 122.5
t219 42.5q0 16 -7.5 28t-27.5 12q-10 0 -16.5 -4t-11.5 -9t-8 -12l-169 20q8 43 34 77q11 15 28 29t40 25t54 17.5t71 6.5zM415 514h-151l-102 140h186z" />
    <glyph glyph-name="aacute" unicode="&#xe1;" horiz-adv-x="495" 
d="M32 0zM255 120q26 0 39 20t18 45l2 10q-51 0 -72 -12t-21 -32q0 -11 8.5 -21t25.5 -10zM317 470q37 0 72 -11t62 -32t43 -52t16 -71q0 -16 -3 -34l-47 -270h-130l-16 40q-17 -14 -37 -25q-17 -10 -41 -17.5t-53 -7.5q-72 0 -111.5 32.5t-39.5 92.5q0 80 79 122.5
t219 42.5q0 16 -7.5 28t-27.5 12q-10 0 -16.5 -4t-11.5 -9t-8 -12l-169 20q8 43 34 77q11 15 28 29t40 25t54 17.5t71 6.5zM342 654h193l-124 -140h-158z" />
    <glyph glyph-name="acircumflex" unicode="&#xe2;" horiz-adv-x="495" 
d="M32 0zM255 120q26 0 39 20t18 45l2 10q-51 0 -72 -12t-21 -32q0 -11 8.5 -21t25.5 -10zM317 470q37 0 72 -11t62 -32t43 -52t16 -71q0 -16 -3 -34l-47 -270h-130l-16 40q-17 -14 -37 -25q-17 -10 -41 -17.5t-53 -7.5q-72 0 -111.5 32.5t-39.5 92.5q0 80 79 122.5
t219 42.5q0 16 -7.5 28t-27.5 12q-10 0 -16.5 -4t-11.5 -9t-8 -12l-169 20q8 43 34 77q11 15 28 29t40 25t54 17.5t71 6.5zM344 565l-49 -55h-153l130 145h170l80 -145h-147z" />
    <glyph glyph-name="atilde" unicode="&#xe3;" horiz-adv-x="495" 
d="M32 0zM255 120q26 0 39 20t18 45l2 10q-51 0 -72 -12t-21 -32q0 -11 8.5 -21t25.5 -10zM317 470q37 0 72 -11t62 -32t43 -52t16 -71q0 -16 -3 -34l-47 -270h-130l-16 40q-17 -14 -37 -25q-17 -10 -41 -17.5t-53 -7.5q-72 0 -111.5 32.5t-39.5 92.5q0 80 79 122.5
t219 42.5q0 16 -7.5 28t-27.5 12q-10 0 -16.5 -4t-11.5 -9t-8 -12l-169 20q8 43 34 77q11 15 28 29t40 25t54 17.5t71 6.5zM171 515q5 75 35.5 107.5t68.5 32.5q19 0 33.5 -4.5t27.5 -10.5t24 -10.5t22 -4.5q23 0 23 25l108 -10q-5 -75 -35.5 -107.5t-68.5 -32.5
q-19 0 -33.5 4.5t-27.5 10.5t-24 10.5t-22 4.5q-23 0 -23 -25z" />
    <glyph glyph-name="adieresis" unicode="&#xe4;" horiz-adv-x="495" 
d="M32 0zM255 120q26 0 39 20t18 45l2 10q-51 0 -72 -12t-21 -32q0 -11 8.5 -21t25.5 -10zM317 470q37 0 72 -11t62 -32t43 -52t16 -71q0 -16 -3 -34l-47 -270h-130l-16 40q-17 -14 -37 -25q-17 -10 -41 -17.5t-53 -7.5q-72 0 -111.5 32.5t-39.5 92.5q0 80 79 122.5
t219 42.5q0 16 -7.5 28t-27.5 12q-10 0 -16.5 -4t-11.5 -9t-8 -12l-169 20q8 43 34 77q11 15 28 29t40 25t54 17.5t71 6.5zM325 591q0 -18 -7.5 -34.5t-20.5 -29t-30.5 -20t-36.5 -7.5q-34 0 -55.5 23.5t-21.5 55.5q0 18 8 34.5t20.5 29t29.5 20t35 7.5q34 0 56.5 -23.5
t22.5 -55.5zM525 591q0 -18 -7.5 -34.5t-20.5 -29t-30.5 -20t-36.5 -7.5q-34 0 -55.5 23.5t-21.5 55.5q0 18 8 34.5t20.5 29t29.5 20t35 7.5q34 0 56.5 -23.5t22.5 -55.5z" />
    <glyph glyph-name="aring" unicode="&#xe5;" horiz-adv-x="495" 
d="M32 0zM255 120q26 0 39 20t18 45l2 10q-51 0 -72 -12t-21 -32q0 -11 8.5 -21t25.5 -10zM317 470q37 0 72 -11t62 -32t43 -52t16 -71q0 -16 -3 -34l-47 -270h-130l-16 40q-17 -14 -37 -25q-17 -10 -41 -17.5t-53 -7.5q-72 0 -111.5 32.5t-39.5 92.5q0 80 79 122.5
t219 42.5q0 16 -7.5 28t-27.5 12q-10 0 -16.5 -4t-11.5 -9t-8 -12l-169 20q8 43 34 77q11 15 28 29t40 25t54 17.5t71 6.5zM467 610q0 -24 -9.5 -44.5t-25.5 -36.5t-38.5 -25t-47.5 -9q-53 0 -82.5 27t-29.5 69q0 50 34.5 82t86.5 32q51 0 81.5 -27t30.5 -68zM347 565
q17 0 28 10t11 29q0 13 -9 22t-25 9q-15 0 -25.5 -11t-10.5 -28q0 -11 8 -21t23 -10z" />
    <glyph glyph-name="ae" unicode="&#xe6;" horiz-adv-x="775" 
d="M316 470q35 0 61 -8.5t43 -19.5q19 -12 33 -27q13 15 31 27q16 11 41 19.5t61 8.5q46 0 84.5 -15.5t66 -42.5t42.5 -63t15 -76q0 -15 -2.5 -29.5t-5.5 -26.5q-4 -14 -7 -27h-302q0 -23 17 -39t43 -16q17 0 28 4.5t17 10.5q7 6 11 15l171 -20q-11 -28 -32.5 -56t-53 -50
t-72 -35.5t-89.5 -13.5q-36 0 -62.5 10t-43.5 22q-20 14 -34 33q-17 -19 -43 -33q-22 -12 -56 -22t-81 -10q-40 0 -70.5 10.5t-51 27.5t-31 38.5t-11.5 44.5q0 37 17 68.5t53 53.5t92 34.5t134 12.5v9q0 15 -9.5 23t-22.5 8q-11 0 -18 -4t-11 -9t-7 -12l-172 20q10 43 37 77
q12 15 28.5 29t39.5 25t53 17.5t69 6.5zM563 330q-26 0 -43.5 -16t-22.5 -39h120q0 20 -14.5 37.5t-39.5 17.5zM252 120q21 0 39 18.5t22 56.5q-51 0 -72.5 -13t-21.5 -33q0 -13 9.5 -21t23.5 -8z" />
    <glyph glyph-name="ccedilla" unicode="&#xe7;" horiz-adv-x="535" 
d="M336 470q101 0 159.5 -51.5t69.5 -138.5l-182 -20q-3 12 -11 22q-7 8 -19 15.5t-33 7.5q-31 0 -53 -22.5t-22 -58.5q0 -29 17.5 -49t47.5 -20q18 0 31 7t22 15q10 10 17 23l167 -20q-17 -52 -49 -92q-14 -18 -32 -35t-41 -30.5t-52 -22t-64 -9.5l-17 -31q25 -5 45 -16
q17 -9 31.5 -25t14.5 -42q0 -46 -36.5 -76.5t-112.5 -30.5q-19 0 -34.5 2t-27.5 4q-14 3 -25 6l9 60l12 -4q10 -3 27 -3q63 0 63 41q0 12 -11.5 23t-37.5 11h-10l48 85q-42 8 -76 28t-58.5 48.5t-37.5 64.5t-13 77q0 52 22.5 99t60.5 82t87.5 55.5t103.5 20.5z" />
    <glyph glyph-name="egrave" unicode="&#xe8;" 
d="M62 0zM531 145q-12 -31 -33.5 -59t-51 -49.5t-67 -34t-80.5 -12.5q-53 0 -96.5 17.5t-75 47.5t-48.5 70.5t-17 87.5q0 52 22.5 99t60.5 82t87.5 55.5t103.5 20.5q49 0 89.5 -16t69 -43t44 -62.5t15.5 -74.5q0 -20 -2 -36t-4 -28q-3 -14 -5 -25h-300q0 -20 13 -35t42 -15
q17 0 29.5 4.5t20.5 9.5q10 6 16 15zM384 275q0 23 -14.5 39t-40.5 16q-29 0 -48 -14.5t-27 -40.5h130zM430 514h-151l-102 140h186z" />
    <glyph glyph-name="eacute" unicode="&#xe9;" 
d="M62 0zM531 145q-12 -31 -33.5 -59t-51 -49.5t-67 -34t-80.5 -12.5q-53 0 -96.5 17.5t-75 47.5t-48.5 70.5t-17 87.5q0 52 22.5 99t60.5 82t87.5 55.5t103.5 20.5q49 0 89.5 -16t69 -43t44 -62.5t15.5 -74.5q0 -20 -2 -36t-4 -28q-3 -14 -5 -25h-300q0 -20 13 -35t42 -15
q17 0 29.5 4.5t20.5 9.5q10 6 16 15zM384 275q0 23 -14.5 39t-40.5 16q-29 0 -48 -14.5t-27 -40.5h130zM357 654h193l-124 -140h-158z" />
    <glyph glyph-name="ecircumflex" unicode="&#xea;" 
d="M62 0zM531 145q-12 -31 -33.5 -59t-51 -49.5t-67 -34t-80.5 -12.5q-53 0 -96.5 17.5t-75 47.5t-48.5 70.5t-17 87.5q0 52 22.5 99t60.5 82t87.5 55.5t103.5 20.5q49 0 89.5 -16t69 -43t44 -62.5t15.5 -74.5q0 -20 -2 -36t-4 -28q-3 -14 -5 -25h-300q0 -20 13 -35t42 -15
q17 0 29.5 4.5t20.5 9.5q10 6 16 15zM384 275q0 23 -14.5 39t-40.5 16q-29 0 -48 -14.5t-27 -40.5h130zM354 565l-49 -55h-153l130 145h170l80 -145h-147z" />
    <glyph glyph-name="edieresis" unicode="&#xeb;" 
d="M62 0zM531 145q-12 -31 -33.5 -59t-51 -49.5t-67 -34t-80.5 -12.5q-53 0 -96.5 17.5t-75 47.5t-48.5 70.5t-17 87.5q0 52 22.5 99t60.5 82t87.5 55.5t103.5 20.5q49 0 89.5 -16t69 -43t44 -62.5t15.5 -74.5q0 -20 -2 -36t-4 -28q-3 -14 -5 -25h-300q0 -20 13 -35t42 -15
q17 0 29.5 4.5t20.5 9.5q10 6 16 15zM384 275q0 23 -14.5 39t-40.5 16q-29 0 -48 -14.5t-27 -40.5h130zM340 591q0 -18 -7.5 -34.5t-20.5 -29t-30.5 -20t-36.5 -7.5q-34 0 -55.5 23.5t-21.5 55.5q0 18 8 34.5t20.5 29t29.5 20t35 7.5q34 0 56.5 -23.5t22.5 -55.5zM540 591
q0 -18 -7.5 -34.5t-20.5 -29t-30.5 -20t-36.5 -7.5q-34 0 -55.5 23.5t-21.5 55.5q0 18 8 34.5t20.5 29t29.5 20t35 7.5q34 0 56.5 -23.5t22.5 -55.5z" />
    <glyph glyph-name="igrave" unicode="&#xec;" horiz-adv-x="260" 
d="M32 0zM220 0h-180l81 460h180zM285 510h-151l-102 140h186z" />
    <glyph glyph-name="iacute" unicode="&#xed;" horiz-adv-x="260" 
d="M40 0zM220 0h-180l81 460h180zM232 650h193l-124 -140h-158z" />
    <glyph glyph-name="icircumflex" unicode="&#xee;" horiz-adv-x="260" 
d="M17 0zM220 0h-180l81 460h180zM219 565l-49 -55h-153l130 145h170l80 -145h-147z" />
    <glyph glyph-name="idieresis" unicode="&#xef;" horiz-adv-x="260" 
d="M38 0zM220 0h-180l81 460h180zM210 591q0 -18 -7.5 -34.5t-20.5 -29t-30.5 -20t-36.5 -7.5q-34 0 -55.5 23.5t-21.5 55.5q0 18 8 34.5t20.5 29t29.5 20t35 7.5q34 0 56.5 -23.5t22.5 -55.5zM410 591q0 -18 -7.5 -34.5t-20.5 -29t-30.5 -20t-36.5 -7.5q-34 0 -55.5 23.5
t-21.5 55.5q0 18 8 34.5t20.5 29t29.5 20t35 7.5q34 0 56.5 -23.5t22.5 -55.5z" />
    <glyph glyph-name="eth" unicode="&#xf0;" horiz-adv-x="575" 
d="M292 554q-8 3 -17 5q-8 2 -17.5 3t-20.5 2l70 128q29 -5 52 -13t39 -16q18 -9 32 -18l91 60l45 -85l-57 -38q43 -47 66.5 -104.5t23.5 -117.5q0 -91 -24 -160t-64.5 -115.5t-94 -70t-113.5 -23.5q-56 0 -100.5 17.5t-76 46.5t-48.5 68t-17 83q0 52 20.5 97t54.5 77.5
t78.5 51t92.5 18.5q31 0 54.5 -6t40.5 -13q19 -8 33 -18q-6 29 -19 50.5t-30 37.5l-63 -41l-45 85zM241 217q0 -29 22.5 -45t50.5 -16q34 0 56 20t22 48q0 24 -18.5 43t-52.5 19q-35 0 -57.5 -20t-22.5 -49z" />
    <glyph glyph-name="ntilde" unicode="&#xf1;" horiz-adv-x="550" 
d="M40 0zM397 470q39 0 70.5 -11.5t53 -32.5t33.5 -50t12 -65q0 -22 -4 -41l-47 -270h-180l39 225q5 32 -8.5 51t-40.5 19q-54 0 -65 -65l-40 -230h-180l81 460h130l15 -40q17 14 38 25q18 9 42 17t51 8zM204 525q5 75 35.5 107.5t68.5 32.5q19 0 33.5 -4.5t27.5 -10.5
t24 -10.5t22 -4.5q23 0 23 25l108 -10q-5 -75 -35.5 -107.5t-68.5 -32.5q-19 0 -33.5 4.5t-27.5 10.5t-24 10.5t-22 4.5q-23 0 -23 -25z" />
    <glyph glyph-name="ograve" unicode="&#xf2;" horiz-adv-x="550" 
d="M62 0zM62 212q0 52 22 99t59.5 82.5t86.5 56t104 20.5q53 0 96.5 -18t74 -49t47.5 -71t17 -85q0 -53 -22.5 -99.5t-60.5 -81.5t-87 -55.5t-103 -20.5q-53 0 -96.5 18t-74 48t-47 70.5t-16.5 85.5zM310 155q32 0 54.5 22t22.5 62q0 29 -18 47.5t-47 18.5q-32 0 -55 -23.5
t-23 -61.5q0 -29 19 -47t47 -18zM420 510h-151l-102 140h186z" />
    <glyph glyph-name="oacute" unicode="&#xf3;" horiz-adv-x="550" 
d="M62 0zM62 212q0 52 22 99t59.5 82.5t86.5 56t104 20.5q53 0 96.5 -18t74 -49t47.5 -71t17 -85q0 -53 -22.5 -99.5t-60.5 -81.5t-87 -55.5t-103 -20.5q-53 0 -96.5 18t-74 48t-47 70.5t-16.5 85.5zM310 155q32 0 54.5 22t22.5 62q0 29 -18 47.5t-47 18.5q-32 0 -55 -23.5
t-23 -61.5q0 -29 19 -47t47 -18zM362 650h193l-124 -140h-158z" />
    <glyph glyph-name="ocircumflex" unicode="&#xf4;" horiz-adv-x="550" 
d="M62 0zM62 212q0 52 22 99t59.5 82.5t86.5 56t104 20.5q53 0 96.5 -18t74 -49t47.5 -71t17 -85q0 -53 -22.5 -99.5t-60.5 -81.5t-87 -55.5t-103 -20.5q-53 0 -96.5 18t-74 48t-47 70.5t-16.5 85.5zM310 155q32 0 54.5 22t22.5 62q0 29 -18 47.5t-47 18.5q-32 0 -55 -23.5
t-23 -61.5q0 -29 19 -47t47 -18zM364 565l-49 -55h-153l130 145h170l80 -145h-147z" />
    <glyph glyph-name="otilde" unicode="&#xf5;" horiz-adv-x="550" 
d="M62 0zM62 212q0 52 22 99t59.5 82.5t86.5 56t104 20.5q53 0 96.5 -18t74 -49t47.5 -71t17 -85q0 -53 -22.5 -99.5t-60.5 -81.5t-87 -55.5t-103 -20.5q-53 0 -96.5 18t-74 48t-47 70.5t-16.5 85.5zM310 155q32 0 54.5 22t22.5 62q0 29 -18 47.5t-47 18.5q-32 0 -55 -23.5
t-23 -61.5q0 -29 19 -47t47 -18zM199 520q5 75 35.5 107.5t68.5 32.5q19 0 33.5 -4.5t27.5 -10.5t24 -10.5t22 -4.5q23 0 23 25l108 -10q-5 -75 -35.5 -107.5t-68.5 -32.5q-19 0 -33.5 4.5t-27.5 10.5t-24 10.5t-22 4.5q-23 0 -23 -25z" />
    <glyph glyph-name="odieresis" unicode="&#xf6;" horiz-adv-x="550" 
d="M62 0zM62 212q0 52 22 99t59.5 82.5t86.5 56t104 20.5q53 0 96.5 -18t74 -49t47.5 -71t17 -85q0 -53 -22.5 -99.5t-60.5 -81.5t-87 -55.5t-103 -20.5q-53 0 -96.5 18t-74 48t-47 70.5t-16.5 85.5zM310 155q32 0 54.5 22t22.5 62q0 29 -18 47.5t-47 18.5q-32 0 -55 -23.5
t-23 -61.5q0 -29 19 -47t47 -18zM350 591q0 -18 -7.5 -34.5t-20.5 -29t-30.5 -20t-36.5 -7.5q-34 0 -55.5 23.5t-21.5 55.5q0 18 8 34.5t20.5 29t29.5 20t35 7.5q34 0 56.5 -23.5t22.5 -55.5zM550 591q0 -18 -7.5 -34.5t-20.5 -29t-30.5 -20t-36.5 -7.5q-34 0 -55.5 23.5
t-21.5 55.5q0 18 8 34.5t20.5 29t29.5 20t35 7.5q34 0 56.5 -23.5t22.5 -55.5z" />
    <glyph glyph-name="divide" unicode="&#xf7;" horiz-adv-x="480" 
d="M249 0q-14 0 -28.5 4.5t-26 14t-19 23t-7.5 31.5q0 37 26.5 62t64.5 25q37 0 59 -20.5t22 -51.5q0 -37 -26.5 -62.5t-64.5 -25.5zM91 320h410l-23 -130h-410zM310 350q-14 0 -28.5 4.5t-26 14t-19 23t-7.5 31.5q0 37 26.5 62t64.5 25q37 0 59 -20.5t22 -51.5
q0 -37 -26.5 -62.5t-64.5 -25.5z" />
    <glyph glyph-name="oslash" unicode="&#xf8;" horiz-adv-x="560" 
d="M91 118q-20 45 -20 94q0 52 22 99t59.5 82.5t86.5 56t104 20.5q42 0 77 -11t64 -31l53 42l74 -95l-51 -40q18 -42 18 -88q0 -53 -22.5 -99.5t-60.5 -81.5t-87 -55.5t-103 -20.5q-40 0 -73.5 10t-61.5 27l-47 -37l-74 95zM323 135q39 0 67.5 27t29.5 76l-123 -100
q12 -3 26 -3zM338 325q-41 0 -70 -29t-30 -76l125 102q-11 3 -25 3z" />
    <glyph glyph-name="ugrave" unicode="&#xf9;" horiz-adv-x="555" 
d="M68 0zM258 237q-5 -29 7 -50.5t41 -21.5q25 0 42.5 15.5t23.5 49.5l41 230h180l-81 -460h-130l-16 40q-18 -14 -38 -25q-17 -10 -40.5 -17.5t-50.5 -7.5q-42 0 -73.5 12.5t-52.5 34t-32 51.5t-11 66q0 11 1 22.5t3 23.5l46 260h180zM445 514h-151l-102 140h186z" />
    <glyph glyph-name="uacute" unicode="&#xfa;" horiz-adv-x="555" 
d="M68 0zM258 237q-5 -29 7 -50.5t41 -21.5q25 0 42.5 15.5t23.5 49.5l41 230h180l-81 -460h-130l-16 40q-18 -14 -38 -25q-17 -10 -40.5 -17.5t-50.5 -7.5q-42 0 -73.5 12.5t-52.5 34t-32 51.5t-11 66q0 11 1 22.5t3 23.5l46 260h180zM367 655h193l-124 -140h-158z" />
    <glyph glyph-name="ucircumflex" unicode="&#xfb;" horiz-adv-x="555" 
d="M68 0zM258 237q-5 -29 7 -50.5t41 -21.5q25 0 42.5 15.5t23.5 49.5l41 230h180l-81 -460h-130l-16 40q-18 -14 -38 -25q-17 -10 -40.5 -17.5t-50.5 -7.5q-42 0 -73.5 12.5t-52.5 34t-32 51.5t-11 66q0 11 1 22.5t3 23.5l46 260h180zM374 565l-49 -55h-153l130 145h170
l80 -145h-147z" />
    <glyph glyph-name="udieresis" unicode="&#xfc;" horiz-adv-x="555" 
d="M68 0zM258 237q-5 -29 7 -50.5t41 -21.5q25 0 42.5 15.5t23.5 49.5l41 230h180l-81 -460h-130l-16 40q-18 -14 -38 -25q-17 -10 -40.5 -17.5t-50.5 -7.5q-42 0 -73.5 12.5t-52.5 34t-32 51.5t-11 66q0 11 1 22.5t3 23.5l46 260h180zM360 591q0 -18 -7.5 -34.5t-20.5 -29
t-30.5 -20t-36.5 -7.5q-34 0 -55.5 23.5t-21.5 55.5q0 18 8 34.5t20.5 29t29.5 20t35 7.5q34 0 56.5 -23.5t22.5 -55.5zM560 591q0 -18 -7.5 -34.5t-20.5 -29t-30.5 -20t-36.5 -7.5q-34 0 -55.5 23.5t-21.5 55.5q0 18 8 34.5t20.5 29t29.5 20t35 7.5q34 0 56.5 -23.5
t22.5 -55.5z" />
    <glyph glyph-name="yacute" unicode="&#xfd;" horiz-adv-x="520" 
d="M36 0zM71 460h187l32 -240l118 240h193l-261 -460q-28 -49 -52.5 -81.5t-51 -52t-57 -28t-69.5 -8.5q-30 0 -52 5q-12 2 -22 5l29 160h45q15 0 25 3.5t17 8.5t12 13zM352 654h193l-124 -140h-158z" />
    <glyph glyph-name="thorn" unicode="&#xfe;" horiz-adv-x="565" 
d="M296 434q12 10 28 18q14 7 32.5 12.5t41.5 5.5q38 0 72 -15t59.5 -42.5t40 -66.5t14.5 -86q0 -60 -20.5 -109.5t-54 -85t-75.5 -55.5t-85 -20q-32 0 -55 7t-38 15q-18 10 -30 23l-35 -195h-180l140 790h180zM324 155q32 0 54.5 22t22.5 62q0 29 -18 47.5t-47 18.5
q-32 0 -55 -23.5t-23 -61.5q0 -29 19 -47t47 -18z" />
    <glyph glyph-name="ydieresis" unicode="&#xff;" horiz-adv-x="520" 
d="M36 0zM71 460h187l32 -240l118 240h193l-261 -460q-28 -49 -52.5 -81.5t-51 -52t-57 -28t-69.5 -8.5q-30 0 -52 5q-12 2 -22 5l29 160h45q15 0 25 3.5t17 8.5t12 13zM340 591q0 -18 -7.5 -34.5t-20.5 -29t-30.5 -20t-36.5 -7.5q-34 0 -55.5 23.5t-21.5 55.5q0 18 8 34.5
t20.5 29t29.5 20t35 7.5q34 0 56.5 -23.5t22.5 -55.5zM540 591q0 -18 -7.5 -34.5t-20.5 -29t-30.5 -20t-36.5 -7.5q-34 0 -55.5 23.5t-21.5 55.5q0 18 8 34.5t20.5 29t29.5 20t35 7.5q34 0 56.5 -23.5t22.5 -55.5z" />
    <glyph glyph-name="Amacron" unicode="&#x100;" horiz-adv-x="640" 
d="M0 0zM402 420l-67 -150h80zM262 110l-49 -110h-218l321 630h240l99 -630h-212l-11 110h-170zM589 700h-290l24 135h290z" />
    <glyph glyph-name="amacron" unicode="&#x101;" horiz-adv-x="495" 
d="M32 0zM255 120q26 0 39 20t18 45l2 10q-51 0 -72 -12t-21 -32q0 -11 8.5 -21t25.5 -10zM317 470q37 0 72 -11t62 -32t43 -52t16 -71q0 -16 -3 -34l-47 -270h-130l-16 40q-17 -14 -37 -25q-17 -10 -41 -17.5t-53 -7.5q-72 0 -111.5 32.5t-39.5 92.5q0 80 79 122.5
t219 42.5q0 16 -7.5 28t-27.5 12q-10 0 -16.5 -4t-11.5 -9t-8 -12l-169 20q8 43 34 77q11 15 28 29t40 25t54 17.5t71 6.5zM484 520h-290l24 135h290z" />
    <glyph glyph-name="Abreve" unicode="&#x102;" horiz-adv-x="640" 
d="M0 0zM402 420l-67 -150h80zM262 110l-49 -110h-218l321 630h240l99 -630h-212l-11 110h-170zM437 680q-75 0 -112.5 40.5t-39.5 104.5h120q0 -11 4 -20q4 -8 12 -14t23 -6q14 0 21.5 6t12.5 14q5 9 7 20h120q-1 -30 -15 -56.5t-36.5 -46t-52.5 -31t-64 -11.5z" />
    <glyph glyph-name="abreve" unicode="&#x103;" horiz-adv-x="495" 
d="M32 0zM255 120q26 0 39 20t18 45l2 10q-51 0 -72 -12t-21 -32q0 -11 8.5 -21t25.5 -10zM317 470q37 0 72 -11t62 -32t43 -52t16 -71q0 -16 -3 -34l-47 -270h-130l-16 40q-17 -14 -37 -25q-17 -10 -41 -17.5t-53 -7.5q-72 0 -111.5 32.5t-39.5 92.5q0 80 79 122.5
t219 42.5q0 16 -7.5 28t-27.5 12q-10 0 -16.5 -4t-11.5 -9t-8 -12l-169 20q8 43 34 77q11 15 28 29t40 25t54 17.5t71 6.5zM342 505q-75 0 -112.5 40.5t-39.5 104.5h120q0 -11 4 -20q4 -8 12 -14t23 -6q14 0 21.5 6t12.5 14q5 9 7 20h120q-1 -30 -15 -56.5t-36.5 -46
t-52.5 -31t-64 -11.5z" />
    <glyph glyph-name="Aogonek" unicode="&#x104;" horiz-adv-x="640" 
d="M432 110h-170l-49 -110h-218l321 630h240l99 -630h-122q1 0 -6 -5t-15.5 -15t-15.5 -23.5t-7 -29.5q0 -17 11.5 -29.5t32.5 -12.5q14 0 25 3q5 2 11 4l-15 -81q-9 -4 -20 -8q-10 -3 -24.5 -5.5t-33.5 -2.5q-51 0 -78 25.5t-27 59.5q0 29 11.5 51.5t25 37.5t25 23t10.5 8z
M402 420l-67 -150h80z" />
    <glyph glyph-name="aogonek" unicode="&#x105;" horiz-adv-x="495" 
d="M314 40q-17 -14 -37 -25q-17 -10 -41 -17.5t-53 -7.5q-72 0 -111.5 32.5t-39.5 92.5q0 80 79 122.5t219 42.5q0 16 -7.5 28t-27.5 12q-10 0 -16.5 -4t-11.5 -9t-8 -12l-169 20q8 43 34 77q11 15 28 29t40 25t54 17.5t71 6.5q37 0 72 -11t62 -32t43 -52t16 -71
q0 -16 -3 -34l-47 -270h-40q1 0 -6 -5t-15.5 -15t-15.5 -23.5t-7 -29.5q0 -17 11.5 -29.5t32.5 -12.5q14 0 25 3q5 2 11 4l-15 -81q-9 -4 -20 -8q-10 -3 -24.5 -5.5t-33.5 -2.5q-51 0 -78 25.5t-27 59.5q0 29 11.5 51.5t25 37.5t25 23t10.5 8zM255 120q26 0 39 20t18 45
l2 10q-51 0 -72 -12t-21 -32q0 -11 8.5 -21t25.5 -10z" />
    <glyph glyph-name="Cacute" unicode="&#x106;" horiz-adv-x="690" 
d="M83 0zM287 303q0 -25 8.5 -47.5t24 -39t37.5 -26.5t49 -10q30 0 52 10.5t36 23.5q17 15 29 35l190 -20q-22 -67 -64 -120q-18 -23 -42 -44t-55 -38t-69.5 -27t-84.5 -10q-70 0 -128 23t-99.5 63t-64.5 94.5t-23 118.5q0 75 29.5 139t79 111t114 74t135.5 27
q51 0 91 -10.5t71 -27t53.5 -38.5t37.5 -44q36 -53 49 -120l-207 -20q-7 19 -21 35q-12 13 -32 24t-51 11q-28 0 -54 -10.5t-46.5 -30t-32.5 -46.5t-12 -60zM472 835h193l-124 -140h-158z" />
    <glyph glyph-name="cacute" unicode="&#x107;" horiz-adv-x="535" 
d="M62 0zM336 470q101 0 159.5 -51.5t69.5 -138.5l-182 -20q-3 12 -11 22q-7 8 -19 15.5t-33 7.5q-31 0 -53 -22.5t-22 -58.5q0 -29 17.5 -49t47.5 -20q18 0 31 7t22 15q10 10 17 23l167 -20q-18 -54 -51 -95q-14 -18 -33 -35t-43.5 -30.5t-54.5 -21.5t-66 -8
q-53 0 -96.5 17.5t-75 47.5t-48.5 70.5t-17 87.5q0 52 22.5 99t60.5 82t87.5 55.5t103.5 20.5zM357 654h193l-124 -140h-158z" />
    <glyph glyph-name="Ccircumflex" unicode="&#x108;" horiz-adv-x="690" 
d="M83 0zM287 303q0 -25 8.5 -47.5t24 -39t37.5 -26.5t49 -10q30 0 52 10.5t36 23.5q17 15 29 35l190 -20q-22 -67 -64 -120q-18 -23 -42 -44t-55 -38t-69.5 -27t-84.5 -10q-70 0 -128 23t-99.5 63t-64.5 94.5t-23 118.5q0 75 29.5 139t79 111t114 74t135.5 27
q51 0 91 -10.5t71 -27t53.5 -38.5t37.5 -44q36 -53 49 -120l-207 -20q-7 19 -21 35q-12 13 -32 24t-51 11q-28 0 -54 -10.5t-46.5 -30t-32.5 -46.5t-12 -60zM484 745l-49 -55h-153l130 145h170l80 -145h-147z" />
    <glyph glyph-name="ccircumflex" unicode="&#x109;" horiz-adv-x="535" 
d="M62 0zM336 470q101 0 159.5 -51.5t69.5 -138.5l-182 -20q-3 12 -11 22q-7 8 -19 15.5t-33 7.5q-31 0 -53 -22.5t-22 -58.5q0 -29 17.5 -49t47.5 -20q18 0 31 7t22 15q10 10 17 23l167 -20q-18 -54 -51 -95q-14 -18 -33 -35t-43.5 -30.5t-54.5 -21.5t-66 -8
q-53 0 -96.5 17.5t-75 47.5t-48.5 70.5t-17 87.5q0 52 22.5 99t60.5 82t87.5 55.5t103.5 20.5zM359 565l-49 -55h-153l130 145h170l80 -145h-147z" />
    <glyph glyph-name="Ccaron" unicode="&#x10c;" horiz-adv-x="690" 
d="M83 0zM287 303q0 -25 8.5 -47.5t24 -39t37.5 -26.5t49 -10q30 0 52 10.5t36 23.5q17 15 29 35l190 -20q-22 -67 -64 -120q-18 -23 -42 -44t-55 -38t-69.5 -27t-84.5 -10q-70 0 -128 23t-99.5 63t-64.5 94.5t-23 118.5q0 75 29.5 139t79 111t114 74t135.5 27
q51 0 91 -10.5t71 -27t53.5 -38.5t37.5 -44q36 -53 49 -120l-207 -20q-7 19 -21 35q-12 13 -32 24t-51 11q-28 0 -54 -10.5t-46.5 -30t-32.5 -46.5t-12 -60zM524 835h153l-130 -145h-170l-80 145h147l31 -55z" />
    <glyph glyph-name="ccaron" unicode="&#x10d;" horiz-adv-x="535" 
d="M62 0zM336 470q101 0 159.5 -51.5t69.5 -138.5l-182 -20q-3 12 -11 22q-7 8 -19 15.5t-33 7.5q-31 0 -53 -22.5t-22 -58.5q0 -29 17.5 -49t47.5 -20q18 0 31 7t22 15q10 10 17 23l167 -20q-18 -54 -51 -95q-14 -18 -33 -35t-43.5 -30.5t-54.5 -21.5t-66 -8
q-53 0 -96.5 17.5t-75 47.5t-48.5 70.5t-17 87.5q0 52 22.5 99t60.5 82t87.5 55.5t103.5 20.5zM409 655h153l-130 -145h-170l-80 145h147l31 -55z" />
    <glyph glyph-name="Dcaron" unicode="&#x10e;" horiz-adv-x="650" 
d="M50 0zM391 630q65 0 118.5 -22.5t91 -61.5t58 -92t20.5 -114q0 -72 -28 -134.5t-77.5 -108t-116 -71.5t-143.5 -26h-264l111 630h230zM329 450l-48 -270h44q31 0 58.5 11t48 30t32.5 45t12 57q0 26 -7.5 49t-23 40.5t-38.5 27.5t-53 10h-25zM489 835h153l-130 -145h-170
l-80 145h147l31 -55z" />
    <glyph glyph-name="dcaron" unicode="&#x10f;" horiz-adv-x="690" 
d="M700 630h183l-95 -140h-148zM455 630h180l-111 -630h-135l-16 40q-15 -14 -34 -25q-17 -10 -40.5 -17.5t-52.5 -7.5q-38 0 -72 15t-59.5 42.5t-40 66.5t-14.5 86q0 60 20.5 109.5t54 85t75.5 55.5t85 20q35 0 58.5 -7t37.5 -15q17 -10 27 -22zM320 305q-32 0 -54.5 -22
t-22.5 -62q0 -29 18 -47.5t47 -18.5q32 0 55 23.5t23 61.5q0 29 -19 47t-47 18z" />
    <glyph glyph-name="Dcroat" unicode="&#x110;" horiz-adv-x="675" 
d="M88 390h55l43 240h230q65 0 118.5 -22.5t91 -61.5t58 -92t20.5 -114q0 -72 -28 -134.5t-77.5 -108t-116 -71.5t-143.5 -26h-264l40 230h-55zM354 450l-11 -60h70l-28 -160h-70l-9 -50h44q31 0 58.5 11t48 30t32.5 45t12 57q0 26 -7.5 49t-23 40.5t-38.5 27.5t-53 10h-25z
" />
    <glyph glyph-name="dcroat" unicode="&#x111;" horiz-adv-x="590" 
d="M423 445h-95l25 140h95l8 45h180l-8 -45h55l-25 -140h-55l-78 -445h-135l-17 42q-17 -15 -37 -26q-17 -10 -40.5 -18t-52.5 -8q-40 0 -74 14.5t-58.5 40t-38 60.5t-13.5 77q0 55 19 101t50.5 78.5t72 50.5t84.5 18q32 0 56 -7.5t40 -15.5q18 -11 31 -23zM306 145
q31 0 54 20t23 50q0 23 -18 41.5t-49 18.5t-53 -21t-22 -50q0 -23 18 -41t47 -18z" />
    <glyph glyph-name="Emacron" unicode="&#x112;" horiz-adv-x="580" 
d="M50 0zM161 630h490l-30 -170h-290l-11 -60h265l-28 -160h-265l-13 -70h300l-29 -170h-500zM554 700h-290l24 135h290z" />
    <glyph glyph-name="emacron" unicode="&#x113;" 
d="M62 0zM531 145q-12 -31 -33.5 -59t-51 -49.5t-67 -34t-80.5 -12.5q-53 0 -96.5 17.5t-75 47.5t-48.5 70.5t-17 87.5q0 52 22.5 99t60.5 82t87.5 55.5t103.5 20.5q49 0 89.5 -16t69 -43t44 -62.5t15.5 -74.5q0 -20 -2 -36t-4 -28q-3 -14 -5 -25h-300q0 -20 13 -35t42 -15
q17 0 29.5 4.5t20.5 9.5q10 6 16 15zM384 275q0 23 -14.5 39t-40.5 16q-29 0 -48 -14.5t-27 -40.5h130zM489 520h-290l24 135h290z" />
    <glyph glyph-name="Edotaccent" unicode="&#x116;" horiz-adv-x="580" 
d="M50 0zM161 630h490l-30 -170h-290l-11 -60h265l-28 -160h-265l-13 -70h300l-29 -170h-500zM334 763q0 19 8 37t22 31t32.5 21t40.5 8q41 0 65 -24.5t24 -57.5q0 -21 -8 -39t-22 -31.5t-32.5 -21t-39.5 -7.5q-42 0 -66 24t-24 60z" />
    <glyph glyph-name="edotaccent" unicode="&#x117;" 
d="M62 0zM531 145q-12 -31 -33.5 -59t-51 -49.5t-67 -34t-80.5 -12.5q-53 0 -96.5 17.5t-75 47.5t-48.5 70.5t-17 87.5q0 52 22.5 99t60.5 82t87.5 55.5t103.5 20.5q49 0 89.5 -16t69 -43t44 -62.5t15.5 -74.5q0 -20 -2 -36t-4 -28q-3 -14 -5 -25h-300q0 -20 13 -35t42 -15
q17 0 29.5 4.5t20.5 9.5q10 6 16 15zM384 275q0 23 -14.5 39t-40.5 16q-29 0 -48 -14.5t-27 -40.5h130zM259 583q0 19 8 37t22 31t32.5 21t40.5 8q41 0 65 -24.5t24 -57.5q0 -21 -8 -39t-22 -31.5t-32.5 -21t-39.5 -7.5q-42 0 -66 24t-24 60z" />
    <glyph glyph-name="Eogonek" unicode="&#x118;" horiz-adv-x="580" 
d="M161 630h490l-30 -170h-290l-11 -60h265l-28 -160h-265l-13 -70h300l-29 -170q1 0 -6 -5t-15.5 -15t-15.5 -23.5t-7 -29.5q0 -17 11.5 -29.5t32.5 -12.5q14 0 25 3q5 2 11 4l-15 -81q-9 -4 -20 -8q-10 -3 -24.5 -5.5t-33.5 -2.5q-51 0 -78 25.5t-27 59.5q0 29 11.5 51.5
t25 37.5t25 23t10.5 8h-410z" />
    <glyph glyph-name="eogonek" unicode="&#x119;" 
d="M531 145q-11 -29 -30.5 -55.5t-46.5 -47t-60.5 -34.5t-72.5 -17q-10 -8 -21.5 -24.5t-11.5 -39.5q0 -17 11.5 -29.5t32.5 -12.5q14 0 25 3q5 2 11 4l-15 -81q-9 -4 -20 -8q-10 -3 -24.5 -5.5t-33.5 -2.5q-51 0 -78 25.5t-27 59.5q0 25 8.5 45t20 34.5t22.5 24t17 13.5
q-40 9 -72.5 29t-55.5 48.5t-35.5 64t-12.5 74.5q0 52 22.5 99t60.5 82t87.5 55.5t103.5 20.5q49 0 89.5 -16t69 -43t44 -62.5t15.5 -74.5q0 -20 -2 -36t-4 -28q-3 -14 -5 -25h-300q0 -20 13 -35t42 -15q17 0 29.5 4.5t20.5 9.5q10 6 16 15zM384 275q0 23 -14.5 39t-40.5 16
q-29 0 -48 -14.5t-27 -40.5h130z" />
    <glyph glyph-name="Ecaron" unicode="&#x11a;" horiz-adv-x="580" 
d="M50 0zM161 630h490l-30 -170h-290l-11 -60h265l-28 -160h-265l-13 -70h300l-29 -170h-500zM469 835h153l-130 -145h-170l-80 145h147l31 -55z" />
    <glyph glyph-name="ecaron" unicode="&#x11b;" 
d="M62 0zM531 145q-12 -31 -33.5 -59t-51 -49.5t-67 -34t-80.5 -12.5q-53 0 -96.5 17.5t-75 47.5t-48.5 70.5t-17 87.5q0 52 22.5 99t60.5 82t87.5 55.5t103.5 20.5q49 0 89.5 -16t69 -43t44 -62.5t15.5 -74.5q0 -20 -2 -36t-4 -28q-3 -14 -5 -25h-300q0 -20 13 -35t42 -15
q17 0 29.5 4.5t20.5 9.5q10 6 16 15zM384 275q0 23 -14.5 39t-40.5 16q-29 0 -48 -14.5t-27 -40.5h130zM404 655h153l-130 -145h-170l-80 145h147l31 -55z" />
    <glyph glyph-name="Gbreve" unicode="&#x11e;" horiz-adv-x="715" 
d="M83 0zM413 340h325l-59 -340h-125l-14 55q-21 -19 -47 -33q-23 -12 -53.5 -22t-68.5 -10q-60 0 -112.5 23t-91.5 63t-61.5 94.5t-22.5 118.5q0 75 29.5 139t79 111t114 74t135.5 27q54 0 96 -9.5t73.5 -25t54 -35t37.5 -40.5q36 -48 46 -110l-208 -21q-8 14 -23 25
q-13 10 -33.5 18t-51.5 8q-28 0 -54 -10.5t-46.5 -30t-32.5 -46.5t-12 -60q0 -25 8 -47.5t23.5 -39t40 -26.5t57.5 -10q23 0 41 6t29 14q13 9 23 20h-117zM472 690q-75 0 -112.5 40.5t-39.5 104.5h120q0 -11 4 -20q4 -8 12 -14t23 -6q14 0 21.5 6t12.5 14q5 9 7 20h120
q-1 -30 -15 -56.5t-36.5 -46t-52.5 -31t-64 -11.5z" />
    <glyph glyph-name="gbreve" unicode="&#x11f;" horiz-adv-x="565" 
d="M44 0zM356 65q-12 -10 -28 -18q-14 -7 -32.5 -12t-41.5 -5q-40 0 -74.5 14.5t-60 40.5t-40 62t-14.5 79q0 52 20 96.5t52.5 77.5t73.5 51.5t84 18.5q35 0 62 -9.5t44 -20.5q20 -13 34 -30l36 50h135l-77 -430q-8 -45 -29.5 -81.5t-53.5 -63t-74 -41t-90 -14.5
q-44 0 -78 7t-59 18.5t-42.5 26.5t-28.5 30q-26 36 -30 83l191 20q3 -10 10 -18q6 -7 16 -12t26 -5q27 0 41.5 17.5t22.5 47.5zM311 180q14 0 27.5 6t23.5 16.5t16 24.5t6 29q0 26 -16.5 45t-42.5 19q-27 0 -49.5 -22.5t-22.5 -56.5q0 -26 16 -43.5t42 -17.5zM360 505
q-75 0 -112.5 40.5t-39.5 104.5h120q0 -11 4 -20q4 -8 12 -14t23 -6q14 0 21.5 6t12.5 14q5 9 7 20h120q-1 -30 -15 -56.5t-36.5 -46t-52.5 -31t-64 -11.5z" />
    <glyph glyph-name="Gcommaaccent" unicode="&#x122;" horiz-adv-x="715" 
d="M83 0zM413 340h325l-59 -340h-125l-14 55q-21 -19 -47 -33q-23 -12 -53.5 -22t-68.5 -10q-60 0 -112.5 23t-91.5 63t-61.5 94.5t-22.5 118.5q0 75 29.5 139t79 111t114 74t135.5 27q54 0 96 -9.5t73.5 -25t54 -35t37.5 -40.5q36 -48 46 -110l-208 -21q-8 14 -23 25
q-13 10 -33.5 18t-51.5 8q-28 0 -54 -10.5t-46.5 -30t-32.5 -46.5t-12 -60q0 -25 8 -47.5t23.5 -39t40 -26.5t57.5 -10q23 0 41 6t29 14q13 9 23 20h-117zM376 -50q32 0 54 -23t22 -59q0 -30 -10.5 -58.5t-28.5 -51.5t-43 -41t-54 -27l-19 43q13 6 24 14q10 7 20 17.5
t17 25.5q-30 0 -48.5 22.5t-18.5 52.5q0 37 25 61t60 24z" />
    <glyph glyph-name="gcommaaccent" unicode="&#x123;" horiz-adv-x="565" 
d="M367 505q-32 0 -54 23t-22 59q0 30 10.5 58.5t28.5 51.5t43 41t54 27l19 -43q-13 -6 -24 -14q-10 -7 -20 -18t-17 -25q30 0 48.5 -22.5t18.5 -52.5q0 -37 -25 -61t-60 -24zM356 65q-12 -10 -28 -18q-14 -7 -32.5 -12t-41.5 -5q-40 0 -74.5 14.5t-60 40.5t-40 62t-14.5 79
q0 52 20 96.5t52.5 77.5t73.5 51.5t84 18.5q35 0 62 -9.5t44 -20.5q20 -13 34 -30l36 50h135l-77 -430q-8 -45 -29.5 -81.5t-53.5 -63t-74 -41t-90 -14.5q-44 0 -78 7t-59 18.5t-42.5 26.5t-28.5 30q-26 36 -30 83l191 20q3 -10 10 -18q6 -7 16 -12t26 -5q27 0 41.5 17.5
t22.5 47.5zM311 180q14 0 27.5 6t23.5 16.5t16 24.5t6 29q0 26 -16.5 45t-42.5 19q-27 0 -49.5 -22.5t-22.5 -56.5q0 -26 16 -43.5t42 -17.5z" />
    <glyph glyph-name="Imacron" unicode="&#x12a;" horiz-adv-x="300" 
d="M50 0zM250 0h-200l111 630h200zM419 695h-290l24 135h290z" />
    <glyph glyph-name="imacron" unicode="&#x12b;" horiz-adv-x="260" 
d="M40 0zM220 0h-180l81 460h180zM364 520h-290l24 135h290z" />
    <glyph glyph-name="Iogonek" unicode="&#x12e;" horiz-adv-x="300" 
d="M162 630h200l-111 -630h-110q1 0 -6 -5t-15.5 -15t-15.5 -23.5t-7 -29.5q0 -17 11.5 -29.5t32.5 -12.5q14 0 25 3q5 2 11 4l-15 -81q-9 -4 -20 -8q-10 -3 -24.5 -5.5t-33.5 -2.5q-51 0 -78 25.5t-27 59.5q0 29 11.5 51.5t25 37.5t25 23t10.5 8z" />
    <glyph glyph-name="iogonek" unicode="&#x12f;" horiz-adv-x="260" 
d="M220 0h-90q1 0 -6 -5t-15.5 -15t-15.5 -23.5t-7 -29.5q0 -17 11.5 -29.5t32.5 -12.5q14 0 25 3q5 2 11 4l-15 -81q-9 -4 -20 -8q-10 -3 -24.5 -5.5t-33.5 -2.5q-51 0 -78 25.5t-27 59.5q0 29 11.5 51.5t25 37.5t25 23t10.5 8l81 460h180zM138 584q0 21 8 38.5t22.5 30
t33 20t39.5 7.5q40 0 64.5 -23.5t24.5 -57.5q0 -21 -8 -39t-21.5 -31.5t-32 -21t-39.5 -7.5q-42 0 -66.5 24.5t-24.5 59.5z" />
    <glyph glyph-name="Idotaccent" unicode="&#x130;" horiz-adv-x="300" 
d="M50 0zM184 763q0 19 8 37t22 31t32.5 21t40.5 8q41 0 65 -24.5t24 -57.5q0 -21 -8 -39t-22 -31.5t-32.5 -21t-39.5 -7.5q-42 0 -66 24t-24 60zM250 0h-200l111 630h200z" />
    <glyph glyph-name="dotlessi" unicode="&#x131;" horiz-adv-x="260" 
d="M220 0h-180l81 460h180z" />
    <glyph glyph-name="ij" unicode="&#x133;" horiz-adv-x="520" 
d="M309 57q-10 -8 -23 -14q-11 -5 -27.5 -9t-39.5 -4q-65 0 -104.5 38t-39.5 113q0 13 1.5 26.5t3.5 27.5l40 225h180l-36 -204q-5 -29 6 -42.5t34 -13.5q13 0 23 5q5 2 9 5l44 250h180l-81 -456q-15 -87 -68 -130.5t-130 -43.5q-23 0 -41 2.5t-31 6.5q-15 4 -26 10l27 156
q4 -2 9 -3t11.5 -1.5t15.5 -0.5q29 0 43 13.5t20 43.5zM137 584q0 21 8 38.5t22.5 30t33 20t39.5 7.5q40 0 64.5 -23.5t24.5 -57.5q0 -21 -8 -39t-21.5 -31.5t-32 -21t-39.5 -7.5q-42 0 -66.5 24.5t-24.5 59.5zM397 584q0 21 8 38.5t22.5 30t33 20t39.5 7.5q40 0 64.5 -23.5
t24.5 -57.5q0 -21 -8 -39t-21.5 -31.5t-32 -21t-39.5 -7.5q-42 0 -66.5 24.5t-24.5 59.5z" />
    <glyph glyph-name="Kcommaaccent" unicode="&#x136;" horiz-adv-x="620" 
d="M50 0zM405 0l-108 270l-47 -270h-200l111 630h200l-47 -265l182 265h228l-237 -312l143 -318h-225zM315 -50q32 0 54 -23t22 -59q0 -30 -10.5 -58.5t-28.5 -51.5t-43 -41t-54 -27l-19 43q13 6 24 14q10 7 20 17.5t17 25.5q-30 0 -48.5 22.5t-18.5 52.5q0 37 25 61t60 24z
" />
    <glyph glyph-name="kcommaaccent" unicode="&#x137;" horiz-adv-x="510" 
d="M40 0zM320 0l-67 190l-33 -190h-180l111 630h180l-61 -345l121 175h198l-166 -222l97 -238h-200zM270 -50q32 0 54 -23t22 -59q0 -30 -10.5 -58.5t-28.5 -51.5t-43 -41t-54 -27l-19 43q13 6 24 14q10 7 20 17.5t17 25.5q-30 0 -48.5 22.5t-18.5 52.5q0 37 25 61t60 24z
" />
    <glyph glyph-name="Lacute" unicode="&#x139;" horiz-adv-x="530" 
d="M50 0zM161 630h200l-78 -440h270l-33 -190h-470zM277 834h193l-124 -140h-158z" />
    <glyph glyph-name="lacute" unicode="&#x13a;" horiz-adv-x="260" 
d="M40 0zM220 0h-180l111 630h180zM262 835h193l-124 -140h-158z" />
    <glyph glyph-name="Lcommaaccent" unicode="&#x13b;" horiz-adv-x="530" 
d="M50 0zM161 630h200l-78 -440h270l-33 -190h-470zM285 -50q32 0 54 -23t22 -59q0 -30 -10.5 -58.5t-28.5 -51.5t-43 -41t-54 -27l-19 43q13 6 24 14q10 7 20 17.5t17 25.5q-30 0 -48.5 22.5t-18.5 52.5q0 37 25 61t60 24z" />
    <glyph glyph-name="lcommaaccent" unicode="&#x13c;" horiz-adv-x="260" 
d="M29 0zM219 0h-180l111 630h180zM114 -50q32 0 54 -23t22 -59q0 -30 -10.5 -58.5t-28.5 -51.5t-43 -41t-54 -27l-19 43q13 6 24 14q10 7 20 17.5t17 25.5q-30 0 -48.5 22.5t-18.5 52.5q0 37 25 61t60 24z" />
    <glyph glyph-name="Lcaron" unicode="&#x13d;" horiz-adv-x="530" 
d="M431 630h183l-95 -140h-148zM161 630h200l-78 -440h270l-33 -190h-470z" />
    <glyph glyph-name="lcaron" unicode="&#x13e;" horiz-adv-x="385" 
d="M396 630h183l-95 -140h-148zM220 0h-180l111 630h180z" />
    <glyph glyph-name="Lslash" unicode="&#x141;" horiz-adv-x="560" 
d="M61 291l77 41l53 298h200l-33 -184l100 55l-34 -191l-99 -53l-12 -67h270l-33 -190h-470l25 144l-78 -44z" />
    <glyph glyph-name="lslash" unicode="&#x142;" horiz-adv-x="330" 
d="M66 319l67 40l48 271h180l-27 -151l78 45l-32 -179l-78 -45l-52 -300h-180l31 180l-67 -40z" />
    <glyph glyph-name="Nacute" unicode="&#x143;" horiz-adv-x="700" 
d="M50 0zM761 630l-111 -630h-190l-157 305l-53 -305h-200l111 630h190l156 -306l54 306h200zM462 835h193l-124 -140h-158z" />
    <glyph glyph-name="nacute" unicode="&#x144;" horiz-adv-x="550" 
d="M40 0zM397 470q39 0 70.5 -11.5t53 -32.5t33.5 -50t12 -65q0 -22 -4 -41l-47 -270h-180l39 225q5 32 -8.5 51t-40.5 19q-54 0 -65 -65l-40 -230h-180l81 460h130l15 -40q17 14 38 25q18 9 42 17t51 8zM372 655h193l-124 -140h-158z" />
    <glyph glyph-name="Ncommaaccent" unicode="&#x145;" horiz-adv-x="700" 
d="M50 0zM761 630l-111 -630h-190l-157 305l-53 -305h-200l111 630h190l156 -306l54 306h200zM360 -50q32 0 54 -23t22 -59q0 -30 -10.5 -58.5t-28.5 -51.5t-43 -41t-54 -27l-19 43q13 6 24 14q10 7 20 17.5t17 25.5q-30 0 -48.5 22.5t-18.5 52.5q0 37 25 61t60 24z" />
    <glyph glyph-name="ncommaaccent" unicode="&#x146;" horiz-adv-x="550" 
d="M40 0zM397 470q39 0 70.5 -11.5t53 -32.5t33.5 -50t12 -65q0 -22 -4 -41l-47 -270h-180l39 225q5 32 -8.5 51t-40.5 19q-54 0 -65 -65l-40 -230h-180l81 460h130l15 -40q17 14 38 25q18 9 42 17t51 8zM270 -50q32 0 54 -23t22 -59q0 -30 -10.5 -58.5t-28.5 -51.5t-43 -41
t-54 -27l-19 43q13 6 24 14q10 7 20 17.5t17 25.5q-30 0 -48.5 22.5t-18.5 52.5q0 37 25 61t60 24z" />
    <glyph glyph-name="Ncaron" unicode="&#x147;" horiz-adv-x="700" 
d="M50 0zM761 630l-111 -630h-190l-157 305l-53 -305h-200l111 630h190l156 -306l54 306h200zM519 835h153l-130 -145h-170l-80 145h147l31 -55z" />
    <glyph glyph-name="ncaron" unicode="&#x148;" horiz-adv-x="550" 
d="M40 0zM397 470q39 0 70.5 -11.5t53 -32.5t33.5 -50t12 -65q0 -22 -4 -41l-47 -270h-180l39 225q5 32 -8.5 51t-40.5 19q-54 0 -65 -65l-40 -230h-180l81 460h130l15 -40q17 14 38 25q18 9 42 17t51 8zM419 655h153l-130 -145h-170l-80 145h147l31 -55z" />
    <glyph glyph-name="Omacron" unicode="&#x14c;" horiz-adv-x="720" 
d="M83 0zM406 180q30 0 56.5 10.5t46 29.5t31 45.5t11.5 57.5q0 26 -8 49t-23.5 40.5t-37.5 27.5t-50 10t-54 -10.5t-46.5 -30t-32.5 -46.5t-12 -60q0 -25 8.5 -47.5t24 -39t37.5 -26.5t49 -10zM754 340q0 -71 -28.5 -134.5t-77.5 -111.5t-115 -76t-141 -28q-70 0 -127 24
t-97.5 64.5t-62.5 95t-22 115.5q0 75 29.5 139t79 111t114 74t135.5 27q67 0 124.5 -22.5t99.5 -62t65.5 -94.5t23.5 -121zM604 695h-290l24 135h290z" />
    <glyph glyph-name="omacron" unicode="&#x14d;" horiz-adv-x="550" 
d="M62 0zM62 212q0 52 22 99t59.5 82.5t86.5 56t104 20.5q53 0 96.5 -18t74 -49t47.5 -71t17 -85q0 -53 -22.5 -99.5t-60.5 -81.5t-87 -55.5t-103 -20.5q-53 0 -96.5 18t-74 48t-47 70.5t-16.5 85.5zM310 155q32 0 54.5 22t22.5 62q0 29 -18 47.5t-47 18.5q-32 0 -55 -23.5
t-23 -61.5q0 -29 19 -47t47 -18zM499 520h-290l24 135h290z" />
    <glyph glyph-name="Ohungarumlaut" unicode="&#x150;" horiz-adv-x="720" 
d="M83 0zM406 180q30 0 56.5 10.5t46 29.5t31 45.5t11.5 57.5q0 26 -8 49t-23.5 40.5t-37.5 27.5t-50 10t-54 -10.5t-46.5 -30t-32.5 -46.5t-12 -60q0 -25 8.5 -47.5t24 -39t37.5 -26.5t49 -10zM754 340q0 -71 -28.5 -134.5t-77.5 -111.5t-115 -76t-141 -28q-70 0 -127 24
t-97.5 64.5t-62.5 95t-22 115.5q0 75 29.5 139t79 111t114 74t135.5 27q67 0 124.5 -22.5t99.5 -62t65.5 -94.5t23.5 -121zM392 835h163l-139 -140h-128zM595 835h163l-139 -140h-128z" />
    <glyph glyph-name="ohungarumlaut" unicode="&#x151;" horiz-adv-x="550" 
d="M62 0zM62 212q0 52 22 99t59.5 82.5t86.5 56t104 20.5q53 0 96.5 -18t74 -49t47.5 -71t17 -85q0 -53 -22.5 -99.5t-60.5 -81.5t-87 -55.5t-103 -20.5q-53 0 -96.5 18t-74 48t-47 70.5t-16.5 85.5zM310 155q32 0 54.5 22t22.5 62q0 29 -18 47.5t-47 18.5q-32 0 -55 -23.5
t-23 -61.5q0 -29 19 -47t47 -18zM292 650h163l-139 -140h-128zM495 650h163l-139 -140h-128z" />
    <glyph glyph-name="OE" unicode="&#x152;" horiz-adv-x="890" 
d="M426 450q-29 0 -56.5 -11t-48.5 -31t-34 -47t-13 -60q0 -24 8.5 -46t23.5 -38.5t35 -26.5t43 -10h27l50 270h-35zM951 630l-30 -170h-260l-11 -60h235l-28 -160h-235l-13 -70h270l-29 -170h-480q-64 0 -118.5 20.5t-94 58t-62 89.5t-22.5 114q0 78 28.5 142.5t79 110
t118.5 70.5t147 25h505z" />
    <glyph glyph-name="oe" unicode="&#x153;" horiz-adv-x="860" 
d="M856 145q-11 -31 -32.5 -59t-52.5 -49.5t-70.5 -34t-86.5 -12.5q-41 0 -70 11.5t-48 25.5q-22 17 -37 38q-18 -21 -43 -38q-21 -14 -51 -25.5t-69 -11.5q-53 0 -96.5 18t-74 48t-47 70.5t-16.5 85.5q0 52 22 99t59.5 82.5t86.5 56t104 20.5q47 0 79.5 -12t52.5 -26
q24 -17 39 -37q19 20 44 37q21 14 51 26t68 12q45 0 84 -15t67.5 -40.5t45 -61t16.5 -75.5q0 -20 -2.5 -36.5t-4.5 -27.5q-4 -13 -7 -24h-303q0 -23 17 -39t43 -16q17 0 28 4.5t19 10.5q9 6 14 15zM655 330q-26 0 -46 -16t-25 -39h126q0 23 -15 39t-40 16zM306 155
q32 0 51.5 21t19.5 63q0 27 -15.5 46.5t-39.5 19.5q-14 0 -28 -5t-25 -15.5t-18 -26.5t-7 -38q0 -29 19.5 -47t42.5 -18z" />
    <glyph glyph-name="Racute" unicode="&#x154;" horiz-adv-x="620" 
d="M50 0zM410 630q64 0 111 -15t78 -42.5t46 -65.5t15 -83q0 -53 -20.5 -90t-44.5 -60q-28 -27 -64 -44l94 -230h-217l-67 190h-58l-33 -190h-200l111 630h249zM384 365q31 0 47 12.5t16 35.5q0 42 -58 42h-59l-16 -90h70zM427 835h193l-124 -140h-158z" />
    <glyph glyph-name="racute" unicode="&#x155;" horiz-adv-x="370" 
d="M40 0zM372 470q13 0 24 -2t19 -4q9 -3 16 -6l-33 -183q-7 2 -16 5q-8 2 -17.5 3.5t-20.5 1.5q-34 0 -57.5 -20t-31.5 -65l-35 -200h-180l81 460h130l14 -40q14 14 31 25q14 9 33.5 17t42.5 8zM292 650h193l-124 -140h-158z" />
    <glyph glyph-name="Rcommaaccent" unicode="&#x156;" horiz-adv-x="620" 
d="M50 0zM410 630q64 0 111 -15t78 -42.5t46 -65.5t15 -83q0 -53 -20.5 -90t-44.5 -60q-28 -27 -64 -44l94 -230h-217l-67 190h-58l-33 -190h-200l111 630h249zM384 365q31 0 47 12.5t16 35.5q0 42 -58 42h-59l-16 -90h70zM325 -50q32 0 54 -23t22 -59q0 -30 -10.5 -58.5
t-28.5 -51.5t-43 -41t-54 -27l-19 43q13 6 24 14q10 7 20 17.5t17 25.5q-30 0 -48.5 22.5t-18.5 52.5q0 37 25 61t60 24z" />
    <glyph glyph-name="rcommaaccent" unicode="&#x157;" horiz-adv-x="370" 
d="M29 0zM371 470q13 0 24 -2t19 -4q9 -3 16 -6l-33 -183q-7 2 -16 5q-8 2 -17.5 3.5t-20.5 1.5q-34 0 -57.5 -20t-31.5 -65l-35 -200h-180l81 460h130l14 -40q14 14 31 25q14 9 33.5 17t42.5 8zM114 -50q32 0 54 -23t22 -59q0 -30 -10.5 -58.5t-28.5 -51.5t-43 -41t-54 -27
l-19 43q13 6 24 14q10 7 20 17.5t17 25.5q-30 0 -48.5 22.5t-18.5 52.5q0 37 25 61t60 24z" />
    <glyph glyph-name="Rcaron" unicode="&#x158;" horiz-adv-x="620" 
d="M50 0zM410 630q64 0 111 -15t78 -42.5t46 -65.5t15 -83q0 -53 -20.5 -90t-44.5 -60q-28 -27 -64 -44l94 -230h-217l-67 190h-58l-33 -190h-200l111 630h249zM384 365q31 0 47 12.5t16 35.5q0 42 -58 42h-59l-16 -90h70zM479 835h153l-130 -145h-170l-80 145h147l31 -55z
" />
    <glyph glyph-name="rcaron" unicode="&#x159;" horiz-adv-x="370" 
d="M40 0zM372 470q13 0 24 -2t19 -4q9 -3 16 -6l-33 -183q-7 2 -16 5q-8 2 -17.5 3.5t-20.5 1.5q-34 0 -57.5 -20t-31.5 -65l-35 -200h-180l81 460h130l14 -40q14 14 31 25q14 9 33.5 17t42.5 8zM349 655h153l-130 -145h-170l-80 145h147l31 -55z" />
    <glyph glyph-name="Sacute" unicode="&#x15a;" horiz-adv-x="560" 
d="M55 0zM103 434q0 46 21 84t56 65t79.5 42t92.5 15q55 0 100 -11.5t77 -37t51 -65.5t23 -96l-198 -20q0 26 -12 38t-32 12q-14 0 -23 -6t-9 -16q0 -13 18 -22.5t45.5 -20t59 -24t59 -35t45.5 -53t18 -77.5q0 -42 -18 -81t-51 -69t-80.5 -48t-106.5 -18q-58 0 -105 11.5
t-80.5 37.5t-53.5 68t-24 103l198 20q0 -21 12 -40.5t41 -19.5q20 0 31.5 8t11.5 22q0 12 -18 21.5t-45.5 20t-59.5 24.5t-59.5 36t-45.5 54t-18 78zM392 835h193l-124 -140h-158z" />
    <glyph glyph-name="sacute" unicode="&#x15b;" horiz-adv-x="465" 
d="M38 0zM212 155q0 -11 9 -20.5t24 -9.5q16 0 26 5t10 16q0 9 -15 15t-37.5 13t-49 16t-49 24.5t-37.5 39t-15 58.5q0 29 14.5 57.5t41.5 51t65 36t86 13.5q59 0 99.5 -13.5t66 -34.5t37.5 -47t14 -50l-174 -20q0 14 -7.5 22t-22.5 8q-10 0 -16.5 -5.5t-6.5 -11.5
q0 -9 15 -15t37.5 -12t48.5 -15.5t48.5 -24.5t37.5 -39t15 -60q0 -31 -15.5 -60.5t-43.5 -52t-68.5 -36t-89.5 -13.5q-62 0 -104 13t-67.5 34t-37 46.5t-13.5 51.5zM317 650h193l-124 -140h-158z" />
    <glyph glyph-name="Scedilla" unicode="&#x15e;" horiz-adv-x="560" 
d="M103 434q0 46 21 84t56 65t79.5 42t92.5 15q55 0 100 -11.5t77 -37t51 -65.5t23 -96l-198 -20q0 26 -12 38t-32 12q-14 0 -23 -6t-9 -16q0 -13 18 -22.5t45.5 -20t59 -24t59 -35t45.5 -53t18 -77.5q0 -42 -17.5 -80.5t-50 -68t-78.5 -48t-104 -19.5l-17 -30q25 -5 45 -16
q17 -9 31.5 -25t14.5 -42q0 -46 -36.5 -76.5t-112.5 -30.5q-19 0 -34.5 2t-27.5 4q-14 3 -25 6l9 60l12 -4q10 -3 27 -3q63 0 63 41q0 12 -11.5 23t-37.5 11h-10l47 83q-91 11 -145.5 61t-60.5 156l198 20q0 -21 12 -40.5t41 -19.5q20 0 31.5 8t11.5 22q0 12 -18 21.5
t-45.5 20t-59.5 24.5t-59.5 36t-45.5 54t-18 78z" />
    <glyph glyph-name="scedilla" unicode="&#x15f;" horiz-adv-x="465" 
d="M212 155q0 -11 9 -20.5t24 -9.5q16 0 26 5t10 16q0 9 -15 15t-37.5 13t-49 16t-49 24.5t-37.5 39t-15 58.5q0 29 14.5 57.5t41.5 51t65 36t86 13.5q59 0 99.5 -13.5t66 -34.5t37.5 -47t14 -50l-174 -20q0 14 -7.5 22t-22.5 8q-10 0 -16.5 -5.5t-6.5 -11.5q0 -9 15 -15
t37.5 -12t48.5 -15.5t48.5 -24.5t37.5 -39t15 -60q0 -30 -14.5 -58.5t-41.5 -51t-65.5 -37t-86.5 -15.5l-17 -30q25 -5 45 -16q17 -9 31.5 -25t14.5 -42q0 -46 -36.5 -76.5t-112.5 -30.5q-19 0 -34.5 2t-27.5 4q-14 3 -25 6l9 60l12 -4q10 -3 27 -3q63 0 63 41
q0 12 -11.5 23t-37.5 11h-10l47 83q-47 6 -78.5 20.5t-51 34t-28.5 42t-10 45.5z" />
    <glyph glyph-name="Scaron" unicode="&#x160;" horiz-adv-x="560" 
d="M55 0zM103 434q0 46 21 84t56 65t79.5 42t92.5 15q55 0 100 -11.5t77 -37t51 -65.5t23 -96l-198 -20q0 26 -12 38t-32 12q-14 0 -23 -6t-9 -16q0 -13 18 -22.5t45.5 -20t59 -24t59 -35t45.5 -53t18 -77.5q0 -42 -18 -81t-51 -69t-80.5 -48t-106.5 -18q-58 0 -105 11.5
t-80.5 37.5t-53.5 68t-24 103l198 20q0 -21 12 -40.5t41 -19.5q20 0 31.5 8t11.5 22q0 12 -18 21.5t-45.5 20t-59.5 24.5t-59.5 36t-45.5 54t-18 78zM440 835h153l-130 -145h-170l-80 145h147l31 -55z" />
    <glyph glyph-name="scaron" unicode="&#x161;" horiz-adv-x="465" 
d="M38 0zM212 155q0 -11 9 -20.5t24 -9.5q16 0 26 5t10 16q0 9 -15 15t-37.5 13t-49 16t-49 24.5t-37.5 39t-15 58.5q0 29 14.5 57.5t41.5 51t65 36t86 13.5q59 0 99.5 -13.5t66 -34.5t37.5 -47t14 -50l-174 -20q0 14 -7.5 22t-22.5 8q-10 0 -16.5 -5.5t-6.5 -11.5
q0 -9 15 -15t37.5 -12t48.5 -15.5t48.5 -24.5t37.5 -39t15 -60q0 -31 -15.5 -60.5t-43.5 -52t-68.5 -36t-89.5 -13.5q-62 0 -104 13t-67.5 34t-37 46.5t-13.5 51.5zM374 655h153l-130 -145h-170l-80 145h147l31 -55z" />
    <glyph glyph-name="Tcommaaccent" unicode="&#x162;" horiz-adv-x="560" 
d="M92 0zM380 0h-200l77 440h-165l34 190h530l-34 -190h-165zM275 -50q32 0 54 -23t22 -59q0 -30 -10.5 -58.5t-28.5 -51.5t-43 -41t-54 -27l-19 43q13 6 24 14q10 7 20 17.5t17 25.5q-30 0 -48.5 22.5t-18.5 52.5q0 37 25 61t60 24z" />
    <glyph glyph-name="tcommaaccent" unicode="&#x163;" horiz-adv-x="400" 
d="M67 0zM300 230q-6 -34 5.5 -52t37.5 -18q8 0 14.5 0.5t11.5 1.5t10 3l-29 -165q-9 -3 -20 -5q-22 -5 -52 -5q-81 0 -124.5 42t-43.5 118q0 13 1.5 26.5t3.5 27.5l17 96h-65l27 150h35q27 0 40.5 10.5t18.5 39.5l12 70h160l-19 -110h90l-29 -160h-90zM220 -50q32 0 54 -23
t22 -59q0 -30 -10.5 -58.5t-28.5 -51.5t-43 -41t-54 -27l-19 43q13 6 24 14q10 7 20 17.5t17 25.5q-30 0 -48.5 22.5t-18.5 52.5q0 37 25 61t60 24z" />
    <glyph glyph-name="Tcaron" unicode="&#x164;" horiz-adv-x="560" 
d="M92 0zM380 0h-200l77 440h-165l34 190h530l-34 -190h-165zM449 835h153l-130 -145h-170l-80 145h147l31 -55z" />
    <glyph glyph-name="tcaron" unicode="&#x165;" horiz-adv-x="450" 
d="M461 630h180l-95 -140h-145zM300 230q-6 -34 5.5 -52t37.5 -18q8 0 14.5 0.5t11.5 1.5t10 3l-29 -165q-9 -3 -20 -5q-22 -5 -52 -5q-81 0 -124.5 42t-43.5 118q0 13 1.5 26.5t3.5 27.5l17 96h-65l27 150h35q27 0 40.5 10.5t18.5 39.5l12 70h160l-19 -110h90l-29 -160h-90
z" />
    <glyph glyph-name="Umacron" unicode="&#x16a;" horiz-adv-x="670" 
d="M91 0zM673 270q-25 -141 -103 -210.5t-206 -69.5q-59 0 -109 16.5t-86.5 47.5t-57 76t-20.5 102q0 29 6 62l60 336h200l-62 -347q-8 -48 13.5 -75.5t66.5 -27.5q41 0 65 20.5t33 69.5l64 360h200zM594 695h-290l24 135h290z" />
    <glyph glyph-name="umacron" unicode="&#x16b;" horiz-adv-x="555" 
d="M68 0zM258 237q-5 -29 7 -50.5t41 -21.5q25 0 42.5 15.5t23.5 49.5l41 230h180l-81 -460h-130l-16 40q-18 -14 -38 -25q-17 -10 -40.5 -17.5t-50.5 -7.5q-42 0 -73.5 12.5t-52.5 34t-32 51.5t-11 66q0 11 1 22.5t3 23.5l46 260h180zM504 515h-290l24 135h290z" />
    <glyph glyph-name="Uring" unicode="&#x16e;" horiz-adv-x="670" 
d="M91 0zM673 270q-25 -141 -103 -210.5t-206 -69.5q-59 0 -109 16.5t-86.5 47.5t-57 76t-20.5 102q0 29 6 62l60 336h200l-62 -347q-8 -48 13.5 -75.5t66.5 -27.5q41 0 65 20.5t33 69.5l64 360h200zM575 790q0 -24 -9.5 -44.5t-25.5 -36.5t-38.5 -25t-47.5 -9
q-53 0 -82.5 27t-29.5 69q0 50 34.5 82t86.5 32q51 0 81.5 -27t30.5 -68zM455 745q17 0 28 10t11 29q0 13 -9 22t-25 9q-15 0 -25.5 -11t-10.5 -28q0 -11 8 -21t23 -10z" />
    <glyph glyph-name="uring" unicode="&#x16f;" horiz-adv-x="555" 
d="M68 0zM258 237q-5 -29 7 -50.5t41 -21.5q25 0 42.5 15.5t23.5 49.5l41 230h180l-81 -460h-130l-16 40q-18 -14 -38 -25q-17 -10 -40.5 -17.5t-50.5 -7.5q-42 0 -73.5 12.5t-52.5 34t-32 51.5t-11 66q0 11 1 22.5t3 23.5l46 260h180zM485 610q0 -24 -9.5 -44.5
t-25.5 -36.5t-38.5 -25t-47.5 -9q-53 0 -82.5 27t-29.5 69q0 50 34.5 82t86.5 32q51 0 81.5 -27t30.5 -68zM365 565q17 0 28 10t11 29q0 13 -9 22t-25 9q-15 0 -25.5 -11t-10.5 -28q0 -11 8 -21t23 -10z" />
    <glyph glyph-name="Uhungarumlaut" unicode="&#x170;" horiz-adv-x="670" 
d="M91 0zM673 270q-25 -141 -103 -210.5t-206 -69.5q-59 0 -109 16.5t-86.5 47.5t-57 76t-20.5 102q0 29 6 62l60 336h200l-62 -347q-8 -48 13.5 -75.5t66.5 -27.5q41 0 65 20.5t33 69.5l64 360h200zM382 835h163l-139 -140h-128zM585 835h163l-139 -140h-128z" />
    <glyph glyph-name="uhungarumlaut" unicode="&#x171;" horiz-adv-x="555" 
d="M68 0zM258 237q-5 -29 7 -50.5t41 -21.5q25 0 42.5 15.5t23.5 49.5l41 230h180l-81 -460h-130l-16 40q-18 -14 -38 -25q-17 -10 -40.5 -17.5t-50.5 -7.5q-42 0 -73.5 12.5t-52.5 34t-32 51.5t-11 66q0 11 1 22.5t3 23.5l46 260h180zM292 655h163l-139 -140h-128zM495 655
h163l-139 -140h-128z" />
    <glyph glyph-name="Uogonek" unicode="&#x172;" horiz-adv-x="670" 
d="M673 270q-23 -134 -95 -203t-187 -76q-10 -9 -21.5 -25t-11.5 -39q0 -17 11.5 -29.5t32.5 -12.5q14 0 25 3q5 2 11 4l-15 -81q-9 -4 -20 -8q-10 -3 -24.5 -5.5t-33.5 -2.5q-51 0 -78 25.5t-27 59.5q0 24 7.5 43t18 33.5t21.5 24t18 14.5q-47 7 -86.5 26.5t-68 49.5
t-44 70.5t-15.5 90.5q0 29 6 62l60 336h200l-62 -347q-8 -48 13.5 -75.5t66.5 -27.5q41 0 65 20.5t33 69.5l64 360h200z" />
    <glyph glyph-name="uogonek" unicode="&#x173;" horiz-adv-x="555" 
d="M366 40q-18 -14 -38 -25q-17 -10 -40.5 -17.5t-50.5 -7.5q-42 0 -73.5 12.5t-52.5 34t-32 51.5t-11 66q0 11 1 22.5t3 23.5l46 260h180l-40 -223q-5 -29 7 -50.5t41 -21.5q25 0 42.5 15.5t23.5 49.5l41 230h180l-81 -460h-40q1 0 -6 -5t-15.5 -15t-15.5 -23.5t-7 -29.5
q0 -17 11.5 -29.5t32.5 -12.5q14 0 25 3q5 2 11 4l-15 -81q-9 -4 -20 -8q-10 -3 -24.5 -5.5t-33.5 -2.5q-51 0 -78 25.5t-27 59.5q0 29 11.5 51.5t25 37.5t25 23t10.5 8z" />
    <glyph glyph-name="Ydieresis" unicode="&#x178;" horiz-adv-x="620" 
d="M96 0zM243 220l-147 410h217l63 -205l137 205h223l-293 -410l-38 -220h-200zM420 771q0 -18 -7.5 -34.5t-20.5 -29t-30.5 -20t-36.5 -7.5q-34 0 -55.5 23.5t-21.5 55.5q0 18 8 34.5t20.5 29t29.5 20t35 7.5q34 0 56.5 -23.5t22.5 -55.5zM620 771q0 -18 -7.5 -34.5
t-20.5 -29t-30.5 -20t-36.5 -7.5q-34 0 -55.5 23.5t-21.5 55.5q0 18 8 34.5t20.5 29t29.5 20t35 7.5q34 0 56.5 -23.5t22.5 -55.5z" />
    <glyph glyph-name="Zacute" unicode="&#x179;" horiz-adv-x="580" 
d="M30 0zM333 190h250l-33 -190h-520l29 165l283 275h-225l34 190h495l-30 -165zM407 835h193l-124 -140h-158z" />
    <glyph glyph-name="zacute" unicode="&#x17a;" horiz-adv-x="475" 
d="M30 0zM242 295h-160l29 165h405l-26 -145l-186 -150h170l-29 -165h-415l25 145zM322 655h193l-124 -140h-158z" />
    <glyph glyph-name="Zdotaccent" unicode="&#x17b;" horiz-adv-x="580" 
d="M30 0zM333 190h250l-33 -190h-520l29 165l283 275h-225l34 190h495l-30 -165zM324 763q0 19 8 37t22 31t32.5 21t40.5 8q41 0 65 -24.5t24 -57.5q0 -21 -8 -39t-22 -31.5t-32.5 -21t-39.5 -7.5q-42 0 -66 24t-24 60z" />
    <glyph glyph-name="zdotaccent" unicode="&#x17c;" horiz-adv-x="475" 
d="M30 0zM242 295h-160l29 165h405l-26 -145l-186 -150h170l-29 -165h-415l25 145zM229 593q0 19 8 37t22 31t32.5 21t40.5 8q41 0 65 -24.5t24 -57.5q0 -21 -8 -39t-22 -31.5t-32.5 -21t-39.5 -7.5q-42 0 -66 24t-24 60z" />
    <glyph glyph-name="Zcaron" unicode="&#x17d;" horiz-adv-x="580" 
d="M30 0zM333 190h250l-33 -190h-520l29 165l283 275h-225l34 190h495l-30 -165zM464 835h153l-130 -145h-170l-80 145h147l31 -55z" />
    <glyph glyph-name="zcaron" unicode="&#x17e;" horiz-adv-x="475" 
d="M30 0zM242 295h-160l29 165h405l-26 -145l-186 -150h170l-29 -165h-415l25 145zM374 655h153l-130 -145h-170l-80 145h147l31 -55z" />
    <glyph glyph-name="florin" unicode="&#x192;" horiz-adv-x="415" 
d="M280 -10q-14 -75 -60.5 -117.5t-129.5 -42.5q-23 0 -41.5 3t-31.5 7q-16 4 -27 10l35 155q4 -2 9 -3t10 -1.5t11 -0.5q26 0 42 16t23 54l30 160h-70l30 170h70l15 80q14 75 60.5 117.5t129.5 42.5q23 0 40.5 -3t31.5 -7q15 -4 28 -10l-35 -155q-4 1 -9 2t-10.5 2t-10.5 1
q-26 0 -41.5 -16t-23.5 -54h95l-30 -170h-95z" />
    <glyph glyph-name="Scommaaccent" unicode="&#x218;" horiz-adv-x="560" 
d="M56 0zM104 434q0 46 21 84t56 65t79.5 42t92.5 15q55 0 100 -11.5t77 -37t51 -65.5t23 -96l-198 -20q0 26 -12 38t-32 12q-14 0 -23 -6t-9 -16q0 -13 18 -22.5t45.5 -20t59 -24t59 -35t45.5 -53t18 -77.5q0 -42 -18 -81t-51 -69t-80.5 -48t-106.5 -18q-58 0 -105 11.5
t-80.5 37.5t-53.5 68t-24 103l198 20q0 -21 12 -40.5t41 -19.5q20 0 31.5 8t11.5 22q0 12 -18 21.5t-45.5 20t-59.5 24.5t-59.5 36t-45.5 54t-18 78zM298 -50q32 0 54 -23t22 -59q0 -30 -10.5 -58.5t-28.5 -51.5t-43 -41t-54 -27l-19 43q13 6 24 14q10 7 20 17.5t17 25.5
q-30 0 -48.5 22.5t-18.5 52.5q0 37 25 61t60 24z" />
    <glyph glyph-name="scommaaccent" unicode="&#x219;" horiz-adv-x="465" 
d="M38 0zM212 155q0 -11 9 -20.5t24 -9.5q16 0 26 5t10 16q0 9 -15 15t-37.5 13t-49 16t-49 24.5t-37.5 39t-15 58.5q0 29 14.5 57.5t41.5 51t65 36t86 13.5q59 0 99.5 -13.5t66 -34.5t37.5 -47t14 -50l-174 -20q0 14 -7.5 22t-22.5 8q-10 0 -16.5 -5.5t-6.5 -11.5
q0 -9 15 -15t37.5 -12t48.5 -15.5t48.5 -24.5t37.5 -39t15 -60q0 -31 -15.5 -60.5t-43.5 -52t-68.5 -36t-89.5 -13.5q-62 0 -104 13t-67.5 34t-37 46.5t-13.5 51.5zM235 -50q32 0 54 -23t22 -59q0 -30 -10.5 -58.5t-28.5 -51.5t-43 -41t-54 -27l-19 43q13 6 24 14
q10 7 20 17.5t17 25.5q-30 0 -48.5 22.5t-18.5 52.5q0 37 25 61t60 24z" />
    <glyph glyph-name="uni021A" unicode="&#x21a;" horiz-adv-x="560" 
d="M92 0zM380 0h-200l77 440h-165l34 190h530l-34 -190h-165zM275 -50q32 0 54 -23t22 -59q0 -30 -10.5 -58.5t-28.5 -51.5t-43 -41t-54 -27l-19 43q13 6 24 14q10 7 20 17.5t17 25.5q-30 0 -48.5 22.5t-18.5 52.5q0 37 25 61t60 24z" />
    <glyph glyph-name="uni021B" unicode="&#x21b;" horiz-adv-x="400" 
d="M67 0zM300 230q-6 -34 5.5 -52t37.5 -18q8 0 14.5 0.5t11.5 1.5t10 3l-29 -165q-9 -3 -20 -5q-22 -5 -52 -5q-81 0 -124.5 42t-43.5 118q0 13 1.5 26.5t3.5 27.5l17 96h-65l27 150h35q27 0 40.5 10.5t18.5 39.5l12 70h160l-19 -110h90l-29 -160h-90zM220 -50q32 0 54 -23
t22 -59q0 -30 -10.5 -58.5t-28.5 -51.5t-43 -41t-54 -27l-19 43q13 6 24 14q10 7 20 17.5t17 25.5q-30 0 -48.5 22.5t-18.5 52.5q0 37 25 61t60 24z" />
    <glyph glyph-name="afii57929" unicode="&#x2bc;" horiz-adv-x="220" 
d="M205 640q32 0 54 -23t22 -59q0 -30 -10.5 -58.5t-28.5 -51.5t-43 -41t-54 -27l-19 43q13 6 24 14q10 7 20 17.5t17 25.5q-30 0 -48.5 22.5t-18.5 52.5q0 37 25 61t60 24z" />
    <glyph glyph-name="circumflex" unicode="&#x2c6;" horiz-adv-x="440" 
d="M319 550l-49 -55h-153l130 145h170l80 -145h-147z" />
    <glyph glyph-name="caron" unicode="&#x2c7;" horiz-adv-x="440" 
d="M369 640h153l-130 -145h-170l-80 145h147l31 -55z" />
    <glyph glyph-name="breve" unicode="&#x2d8;" horiz-adv-x="380" 
d="M285 500q-75 0 -112.5 40.5t-39.5 104.5h120q0 -11 4 -20q4 -8 12 -14t23 -6q14 0 21.5 6t12.5 14q5 9 7 20h120q-1 -30 -15 -56.5t-36.5 -46t-52.5 -31t-64 -11.5z" />
    <glyph glyph-name="dotaccent" unicode="&#x2d9;" horiz-adv-x="250" 
d="M124 578q0 19 8 37t22 31t32.5 21t40.5 8q41 0 65 -24.5t24 -57.5q0 -21 -8 -39t-22 -31.5t-32.5 -21t-39.5 -7.5q-42 0 -66 24t-24 60z" />
    <glyph glyph-name="ring" unicode="&#x2da;" horiz-adv-x="290" 
d="M355 595q0 -24 -9.5 -44.5t-25.5 -36.5t-38.5 -25t-47.5 -9q-53 0 -82.5 27t-29.5 69q0 50 34.5 82t86.5 32q51 0 81.5 -27t30.5 -68zM235 550q17 0 28 10t11 29q0 13 -9 22t-25 9q-15 0 -25.5 -11t-10.5 -28q0 -11 8 -21t23 -10z" />
    <glyph glyph-name="ogonek" unicode="&#x2db;" horiz-adv-x="255" 
d="M162 0q1 0 -6 -5t-15.5 -15t-15.5 -23.5t-7 -29.5q0 -17 11.5 -29.5t32.5 -12.5q14 0 25 3q5 2 11 4l-15 -81q-9 -4 -20 -8q-10 -3 -24.5 -5.5t-33.5 -2.5q-51 0 -78 25.5t-27 59.5q0 29 11.5 51.5t25 37.5t25 23t10.5 8h90z" />
    <glyph glyph-name="tilde" unicode="&#x2dc;" horiz-adv-x="380" 
d="M119 505q5 75 35.5 107.5t68.5 32.5q19 0 33.5 -4.5t27.5 -10.5t24 -10.5t22 -4.5q23 0 23 25l108 -10q-5 -75 -35.5 -107.5t-68.5 -32.5q-19 0 -33.5 4.5t-27.5 10.5t-24 10.5t-22 4.5q-23 0 -23 -25z" />
    <glyph glyph-name="hungarumlaut" unicode="&#x2dd;" horiz-adv-x="500" 
d="M222 640h163l-139 -140h-128zM425 640h163l-139 -140h-128z" />
    <glyph glyph-name="afii10023" unicode="&#x401;" horiz-adv-x="580" 
d="M50 0zM161 630h490l-30 -170h-290l-11 -60h265l-28 -160h-265l-13 -70h300l-29 -170h-500zM410 771q0 -18 -7.5 -34.5t-20.5 -29t-30.5 -20t-36.5 -7.5q-34 0 -55.5 23.5t-21.5 55.5q0 18 8 34.5t20.5 29t29.5 20t35 7.5q34 0 56.5 -23.5t22.5 -55.5zM610 771
q0 -18 -7.5 -34.5t-20.5 -29t-30.5 -20t-36.5 -7.5q-34 0 -55.5 23.5t-21.5 55.5q0 18 8 34.5t20.5 29t29.5 20t35 7.5q34 0 56.5 -23.5t22.5 -55.5z" />
    <glyph glyph-name="afii10051" unicode="&#x402;" horiz-adv-x="685" 
d="M396 375q14 12 32 22q16 8 37.5 15.5t49.5 7.5q88 0 137.5 -53t49.5 -143q0 -62 -20 -112.5t-60.5 -86.5t-100.5 -55.5t-140 -19.5l31 180q38 0 59.5 17t21.5 45q0 23 -14.5 38t-41.5 15q-29 0 -50 -18t-28 -57l-29 -170h-200l79 450h-120l32 180h450l-32 -180h-130z" />
    <glyph glyph-name="afii10052" unicode="&#x403;" horiz-adv-x="510" 
d="M50 0zM161 630h450l-34 -190h-250l-77 -440h-200zM402 835h193l-124 -140h-158z" />
    <glyph glyph-name="afii10053" unicode="&#x404;" horiz-adv-x="690" 
d="M429 460q-32 0 -55.5 -11t-38.5 -24q-18 -16 -30 -35h186l-27 -155h-174q8 -19 23 -33q13 -12 34.5 -22t56.5 -10q26 0 47.5 10t36.5 22q18 14 31 32l191 -19q-22 -64 -63 -113q-18 -21 -41.5 -41t-54 -36t-69 -25.5t-84.5 -9.5q-70 0 -128 23t-99.5 63t-64.5 94.5
t-23 118.5q0 75 29.5 139t79 111t114 74t135.5 27q53 0 94 -10t72 -25.5t53 -36t37 -41.5q35 -49 44 -112l-208 -21q-7 18 -21 33q-12 12 -32 22.5t-51 10.5z" />
    <glyph glyph-name="afii10054" unicode="&#x405;" horiz-adv-x="560" 
d="M55 0zM103 434q0 46 21 84t56 65t79.5 42t92.5 15q55 0 100 -11.5t77 -37t51 -65.5t23 -96l-198 -20q0 26 -12 38t-32 12q-14 0 -23 -6t-9 -16q0 -13 18 -22.5t45.5 -20t59 -24t59 -35t45.5 -53t18 -77.5q0 -42 -18 -81t-51 -69t-80.5 -48t-106.5 -18q-58 0 -105 11.5
t-80.5 37.5t-53.5 68t-24 103l198 20q0 -21 12 -40.5t41 -19.5q20 0 31.5 8t11.5 22q0 12 -18 21.5t-45.5 20t-59.5 24.5t-59.5 36t-45.5 54t-18 78z" />
    <glyph glyph-name="afii10055" unicode="&#x406;" horiz-adv-x="300" 
d="M50 0zM250 0h-200l111 630h200z" />
    <glyph glyph-name="afii10056" unicode="&#x407;" horiz-adv-x="340" 
d="M70 0zM285 771q0 -18 -7.5 -34.5t-20.5 -29t-30.5 -20t-36.5 -7.5q-34 0 -55.5 23.5t-21.5 55.5q0 18 8 34.5t20.5 29t29.5 20t35 7.5q34 0 56.5 -23.5t22.5 -55.5zM485 771q0 -18 -7.5 -34.5t-20.5 -29t-30.5 -20t-36.5 -7.5q-34 0 -55.5 23.5t-21.5 55.5q0 18 8 34.5
t20.5 29t29.5 20t35 7.5q34 0 56.5 -23.5t22.5 -55.5zM270 0h-200l111 630h200z" />
    <glyph glyph-name="afii10057" unicode="&#x408;" horiz-adv-x="535" 
d="M34 0zM528 207q-18 -101 -84.5 -159t-171.5 -58q-120 0 -177 57.5t-61 166.5l204 21q0 -23 10.5 -39.5t34.5 -16.5q21 0 32.5 12t15.5 33l72 406h200z" />
    <glyph glyph-name="afii10058" unicode="&#x409;" horiz-adv-x="925" 
d="M401 0l77 440h-95l-64 -250q-27 -105 -84 -152.5t-151 -47.5q-15 0 -29.5 0.5t-25.5 2.5q-13 2 -24 4l32 183h30q30 0 46 14.5t27 55.5l97 380h475l-30 -170h31q52 0 96 -14.5t75.5 -42t49 -67t17.5 -88.5q0 -56 -19.5 -101.5t-56.5 -78t-90.5 -50.5t-122.5 -18h-261z
M650 280l-18 -100h32q39 0 56 15t17 41q0 20 -15.5 32t-46.5 12h-25z" />
    <glyph glyph-name="afii10059" unicode="&#x40a;" horiz-adv-x="945" 
d="M420 0l47 270h-170l-47 -270h-200l111 630h200l-32 -180h170l32 180h200l-32 -180h49q47 0 87 -13.5t69.5 -39.5t46.5 -63.5t17 -85.5q0 -56 -19.5 -101.5t-56.5 -78t-90.5 -50.5t-122.5 -18h-259zM667 270l-16 -90h45q30 0 44 13.5t14 31.5q0 45 -55 45h-32z" />
    <glyph glyph-name="afii10060" unicode="&#x40b;" horiz-adv-x="695" 
d="M494 170q6 34 -9 54.5t-47 20.5q-67 0 -79 -75l-29 -170h-200l79 450h-120l32 180h450l-32 -180h-130l-14 -75q14 12 32 22q16 8 39 15.5t54 7.5q39 0 72.5 -13t57.5 -37t37.5 -58.5t13.5 -78.5q0 -13 -1.5 -26t-3.5 -27l-31 -180h-200z" />
    <glyph glyph-name="afii10061" unicode="&#x40c;" horiz-adv-x="620" 
d="M50 0zM442 835h193l-124 -140h-158zM405 0l-108 270l-47 -270h-200l111 630h200l-47 -265l182 265h228l-237 -312l143 -318h-225z" />
    <glyph glyph-name="afii10062" unicode="&#x40e;" horiz-adv-x="600" 
d="M80 0zM721 630l-303 -470q-32 -49 -58.5 -81.5t-56 -52t-64 -28t-81.5 -8.5q-31 0 -54 5q-13 2 -24 5l33 188q6 -2 14 -4q7 -2 15.5 -3t18.5 -1q19 0 32 4.5t22 10.5q10 6 17 15l-131 420h212l55 -225l135 225h218zM420 680q-75 0 -112.5 40.5t-39.5 104.5h120
q0 -11 4 -20q4 -8 12 -14t23 -6q14 0 21.5 6t12.5 14q5 9 7 20h120q-1 -30 -15 -56.5t-36.5 -46t-52.5 -31t-64 -11.5z" />
    <glyph glyph-name="afii10145" unicode="&#x40f;" horiz-adv-x="690" 
d="M424 -115h-200l21 115h-195l111 630h200l-78 -440h190l78 440h200l-111 -630h-195z" />
    <glyph glyph-name="afii10017" unicode="&#x410;" horiz-adv-x="640" 
d="M0 0zM402 420l-67 -150h80zM262 110l-49 -110h-218l321 630h240l99 -630h-212l-11 110h-170z" />
    <glyph glyph-name="afii10018" unicode="&#x411;" horiz-adv-x="605" 
d="M371 170q22 0 37 10t15 36q0 15 -11.5 24.5t-29.5 9.5h-88l-15 -80h92zM50 0l111 630h480l-30 -170h-280l-7 -40h90q49 0 88 -14.5t66.5 -40t42 -60t14.5 -73.5q0 -48 -17.5 -90.5t-50.5 -74t-80.5 -49.5t-106.5 -18h-320z" />
    <glyph glyph-name="afii10019" unicode="&#x412;" horiz-adv-x="615" 
d="M50 0zM445 630q58 0 98 -13t64.5 -34.5t35.5 -49t11 -55.5q0 -45 -19.5 -73.5t-42.5 -45.5q-27 -19 -62 -29q27 -12 49 -32q18 -17 33.5 -44.5t15.5 -67.5q0 -38 -15 -71.5t-43 -59t-68.5 -40.5t-91.5 -15h-360l111 630h284zM294 250l-18 -100h73q34 0 50.5 14.5
t16.5 40.5q0 19 -15.5 32t-47.5 13h-59zM334 480l-16 -90h62q27 0 42 13t15 34q0 17 -11.5 30t-37.5 13h-54z" />
    <glyph glyph-name="afii10020" unicode="&#x413;" horiz-adv-x="510" 
d="M161 630h450l-34 -190h-250l-77 -440h-200z" />
    <glyph glyph-name="afii10021" unicode="&#x414;" horiz-adv-x="685" 
d="M708 190l-54 -305h-200l21 115h-275l-21 -115h-199l53 305h40q11 4 23 15q10 10 22 30t23 55l100 340h475l-78 -440h70zM482 440h-110l-41 -150q-9 -33 -22 -52.5t-25 -30.5q-14 -12 -28 -17h182z" />
    <glyph glyph-name="afii10022" unicode="&#x415;" horiz-adv-x="580" 
d="M50 0zM161 630h490l-30 -170h-290l-11 -60h265l-28 -160h-265l-13 -70h300l-29 -170h-500z" />
    <glyph glyph-name="afii10024" unicode="&#x416;" horiz-adv-x="900" 
d="M665 630l-45 -255l165 255h224l-218 -312l123 -318h-225l-90 260l-45 -260h-200l45 260l-180 -260h-229l239 322l-104 308h220l75 -255l45 255h200z" />
    <glyph glyph-name="afii10025" unicode="&#x417;" horiz-adv-x="550" 
d="M96 440q5 40 27 76.5t56.5 64t79 43.5t94.5 16q65 0 111 -14t75.5 -38t43.5 -54.5t14 -63.5q0 -40 -18 -67.5t-40 -44.5q-26 -20 -57 -33q22 -12 40 -31q15 -17 27.5 -43t12.5 -65t-19.5 -74.5t-55.5 -62.5t-87 -43t-114 -16q-44 0 -87.5 11t-78 35.5t-55.5 64.5t-21 99
l205 20q2 -14 8 -25q5 -10 14.5 -17.5t26.5 -7.5q23 0 35.5 11.5t12.5 27.5q0 17 -10.5 29t-30.5 12h-67l26 150h68q19 0 30.5 8t11.5 23q0 11 -8.5 20t-25.5 9q-14 0 -23.5 -6t-15.5 -14q-7 -9 -12 -20z" />
    <glyph glyph-name="afii10026" unicode="&#x418;" horiz-adv-x="700" 
d="M361 630l-56 -315l276 315h180l-111 -630h-200l55 315l-275 -315h-180l111 630h200z" />
    <glyph glyph-name="afii10027" unicode="&#x419;" horiz-adv-x="700" 
d="M361 630l-56 -315l276 315h180l-111 -630h-200l55 315l-275 -315h-180l111 630h200zM473 680q-75 0 -113 40.5t-40 104.5h120q1 -11 5 -20q4 -8 12 -14t23 -6q14 0 21 6t12 14q4 9 7 20h120q-1 -30 -14.5 -56.5t-36 -46t-52.5 -31t-64 -11.5z" />
    <glyph glyph-name="afii10028" unicode="&#x41a;" horiz-adv-x="620" 
d="M50 0zM405 0l-108 270l-47 -270h-200l111 630h200l-47 -265l182 265h228l-237 -312l143 -318h-225z" />
    <glyph glyph-name="afii10029" unicode="&#x41b;" horiz-adv-x="670" 
d="M732 630l-111 -630h-200l77 440h-115l-64 -250q-27 -105 -84 -152.5t-151 -47.5q-15 0 -29.5 0.5t-25.5 2.5q-13 2 -24 4l32 183h30q30 0 46 14.5t27 55.5l97 380h495z" />
    <glyph glyph-name="afii10030" unicode="&#x41c;" horiz-adv-x="830" 
d="M50 0zM678 630h213l-111 -630h-200l52 295l-187 -295h-60l-83 295l-52 -295h-200l111 630h207l96 -330z" />
    <glyph glyph-name="afii10031" unicode="&#x41d;" horiz-adv-x="690" 
d="M50 0zM751 630l-111 -630h-200l39 225h-190l-39 -225h-200l111 630h200l-38 -215h190l38 215h200z" />
    <glyph glyph-name="afii10032" unicode="&#x41e;" horiz-adv-x="720" 
d="M83 0zM406 180q30 0 56.5 10.5t46 29.5t31 45.5t11.5 57.5q0 26 -8 49t-23.5 40.5t-37.5 27.5t-50 10t-54 -10.5t-46.5 -30t-32.5 -46.5t-12 -60q0 -25 8.5 -47.5t24 -39t37.5 -26.5t49 -10zM754 340q0 -71 -28.5 -134.5t-77.5 -111.5t-115 -76t-141 -28q-70 0 -127 24
t-97.5 64.5t-62.5 95t-22 115.5q0 75 29.5 139t79 111t114 74t135.5 27q67 0 124.5 -22.5t99.5 -62t65.5 -94.5t23.5 -121z" />
    <glyph glyph-name="afii10033" unicode="&#x41f;" horiz-adv-x="690" 
d="M751 630l-111 -630h-200l77 440h-190l-77 -440h-200l111 630h590z" />
    <glyph glyph-name="afii10034" unicode="&#x420;" horiz-adv-x="595" 
d="M50 0zM405 630q54 0 99 -14.5t77.5 -42t50 -66.5t17.5 -88q0 -56 -19.5 -101.5t-57 -78.5t-91 -51t-122.5 -18h-80l-29 -170h-200l111 630h244zM329 450l-18 -100h58q35 0 51 15t16 41q0 20 -15 32t-44 12h-48z" />
    <glyph glyph-name="afii10035" unicode="&#x421;" horiz-adv-x="690" 
d="M83 0zM287 303q0 -25 8.5 -47.5t24 -39t37.5 -26.5t49 -10q30 0 52 10.5t36 23.5q17 15 29 35l190 -20q-22 -67 -64 -120q-18 -23 -42 -44t-55 -38t-69.5 -27t-84.5 -10q-70 0 -128 23t-99.5 63t-64.5 94.5t-23 118.5q0 75 29.5 139t79 111t114 74t135.5 27
q51 0 91 -10.5t71 -27t53.5 -38.5t37.5 -44q36 -53 49 -120l-207 -20q-7 19 -21 35q-12 13 -32 24t-51 11q-28 0 -54 -10.5t-46.5 -30t-32.5 -46.5t-12 -60z" />
    <glyph glyph-name="afii10036" unicode="&#x422;" horiz-adv-x="570" 
d="M97 0zM385 0h-200l77 440h-165l34 190h530l-34 -190h-165z" />
    <glyph glyph-name="afii10037" unicode="&#x423;" horiz-adv-x="600" 
d="M721 630l-303 -470q-32 -49 -58.5 -81.5t-56 -52t-64 -28t-81.5 -8.5q-31 0 -54 5q-13 2 -24 5l33 188q6 -2 14 -4q7 -2 15.5 -3t18.5 -1q19 0 32 4.5t22 10.5q10 6 17 15l-131 420h212l55 -225l135 225h218z" />
    <glyph glyph-name="afii10038" unicode="&#x424;" horiz-adv-x="790" 
d="M495 -5h-200l11 65q-54 8 -96.5 28.5t-72 52t-45.5 71.5t-16 87q0 63 26 115t70.5 89t102.5 57t123 20l10 60h200l-10 -60q54 -6 96.5 -27t72.5 -53t45.5 -73.5t15.5 -87.5q0 -63 -26.5 -114.5t-71 -88t-102.5 -56.5t-122 -20zM532 235q18 0 35.5 7t30.5 19.5t21 29
t8 36.5q0 32 -18 52t-47 26zM372 405q-19 0 -36 -7.5t-30 -20t-20.5 -29t-7.5 -35.5q0 -33 17.5 -52.5t46.5 -25.5z" />
    <glyph glyph-name="afii10039" unicode="&#x425;" horiz-adv-x="620" 
d="M0 0zM726 630l-240 -310l139 -320h-222l-66 170l-124 -170h-228l251 320l-130 310h222l56 -160l114 160h228z" />
    <glyph glyph-name="afii10040" unicode="&#x426;" horiz-adv-x="700" 
d="M490 0h-440l111 630h200l-78 -440h170l78 440h200l-78 -440h70l-54 -305h-200z" />
    <glyph glyph-name="afii10041" unicode="&#x427;" horiz-adv-x="650" 
d="M709 630l-111 -630h-200l30 174q-14 -4 -31 -7q-15 -3 -35 -5t-46 -2q-45 0 -83.5 15.5t-66.5 43t-44 65.5t-16 82q0 11 1 22t3 22l39 220h200l-34 -190q-8 -42 14 -68.5t64 -26.5q15 0 27.5 2.5t21.5 5.5q11 4 19 8l48 269h200z" />
    <glyph glyph-name="afii10042" unicode="&#x428;" horiz-adv-x="930" 
d="M50 0l111 630h200l-78 -440h115l78 440h200l-78 -440h115l78 440h200l-111 -630h-830z" />
    <glyph glyph-name="afii10043" unicode="&#x429;" horiz-adv-x="960" 
d="M750 0h-700l111 630h200l-78 -440h115l78 440h200l-78 -440h115l78 440h200l-78 -440h70l-54 -305h-200z" />
    <glyph glyph-name="afii10044" unicode="&#x42a;" horiz-adv-x="640" 
d="M105 0l77 440h-105l34 190h305l-30 -170h36q52 0 96 -14.5t75.5 -42t49 -67t17.5 -88.5q0 -56 -19.5 -101.5t-56.5 -78t-90.5 -50.5t-122.5 -18h-266zM354 280l-18 -100h39q38 0 55.5 15t17.5 41q0 20 -15 32t-46 12h-33z" />
    <glyph glyph-name="afii10045" unicode="&#x42b;" horiz-adv-x="865" 
d="M815 0h-200l111 630h200zM50 0l110 630h201l-30 -170h37q52 0 96 -14.5t75.5 -42t49 -67t17.5 -88.5q0 -56 -19.5 -101.5t-56.5 -78t-90.5 -50.5t-122.5 -18h-267zM299 280l-18 -100h40q39 0 56 15t17 41q0 20 -15.5 32t-46.5 12h-33z" />
    <glyph glyph-name="afii10046" unicode="&#x42c;" horiz-adv-x="595" 
d="M50 0l111 630h200l-30 -170h49q52 0 96 -14.5t75.5 -42t49 -67t17.5 -88.5q0 -56 -19.5 -101.5t-56.5 -78t-90.5 -50.5t-122.5 -18h-279zM299 280l-18 -100h52q39 0 56 15t17 41q0 20 -15.5 32t-46.5 12h-45z" />
    <glyph glyph-name="afii10047" unicode="&#x42d;" horiz-adv-x="680" 
d="M333 390h170q-11 34 -39.5 52t-66.5 18q-26 0 -47 -10.5t-35 -22.5q-18 -14 -30 -32l-192 20q24 63 65 112q18 21 41.5 41.5t53.5 36t67 25.5t82 10q67 0 124.5 -22.5t99.5 -62t65.5 -94.5t23.5 -121q0 -71 -28.5 -134.5t-77.5 -111.5t-115 -76t-141 -28q-47 0 -85 9.5
t-68 25.5t-53 36t-39 41q-39 49 -56 113l209 21q8 -19 23 -33q13 -13 34 -23t53 -10q42 0 70 17.5t45 47.5h-180z" />
    <glyph glyph-name="afii10048" unicode="&#x42e;" horiz-adv-x="940" 
d="M768 338q0 19 -6 39t-18.5 36t-31.5 26.5t-44 10.5q-23 0 -45.5 -10.5t-40.5 -31t-29 -50.5t-11 -68q0 -52 27.5 -81t69.5 -29q22 0 45 10.5t42 30.5t30.5 49.5t11.5 67.5zM373 400q25 67 67 120q18 22 41.5 44t53 38.5t66 27t80.5 10.5q65 0 118.5 -21t91.5 -59
t58.5 -90.5t20.5 -115.5q0 -80 -29.5 -147t-78.5 -115.5t-112 -75.5t-129 -27q-47 0 -84 10t-65.5 26t-48.5 36.5t-34 42.5q-33 51 -43 116h-58l-38 -220h-200l111 630h200l-41 -230h53z" />
    <glyph glyph-name="afii10049" unicode="&#x42f;" horiz-adv-x="620" 
d="M681 630l-111 -630h-200l33 190h-52l-133 -190h-223l187 247q-20 16 -35 38q-14 19 -24.5 46t-10.5 62q0 52 20 96t54.5 75t80.5 48.5t99 17.5h315zM434 365l16 90h-64q-65 0 -65 -49q0 -18 14 -29.5t34 -11.5h65z" />
    <glyph glyph-name="afii10065" unicode="&#x430;" horiz-adv-x="495" 
d="M32 0zM255 120q26 0 39 20t18 45l2 10q-51 0 -72 -12t-21 -32q0 -11 8.5 -21t25.5 -10zM317 470q37 0 72 -11t62 -32t43 -52t16 -71q0 -16 -3 -34l-47 -270h-130l-16 40q-17 -14 -37 -25q-17 -10 -41 -17.5t-53 -7.5q-72 0 -111.5 32.5t-39.5 92.5q0 80 79 122.5
t219 42.5q0 16 -7.5 28t-27.5 12q-10 0 -16.5 -4t-11.5 -9t-8 -12l-169 20q8 43 34 77q11 15 28 29t40 25t54 17.5t71 6.5z" />
    <glyph glyph-name="afii10066" unicode="&#x431;" horiz-adv-x="565" 
d="M382 450q48 0 85 -17.5t62.5 -46.5t38.5 -68.5t13 -82.5q0 -51 -20.5 -95.5t-56.5 -78t-86 -52.5t-109 -19q-51 0 -94 16.5t-73.5 48t-47.5 77.5t-17 104q0 90 25.5 164.5t77 129.5t128.5 87.5t180 38.5q18 1 36.5 1.5t32.5 1.5q17 1 33 1l-27 -155q-56 0 -105 -4.5
t-87.5 -16.5t-66 -32.5t-40.5 -51.5q13 14 31 25q15 9 37 17t50 8zM256 216q0 -23 18 -42t47 -19q31 0 54 20.5t23 49.5q0 23 -18.5 41.5t-47.5 18.5q-31 0 -53.5 -20t-22.5 -49z" />
    <glyph glyph-name="afii10067" unicode="&#x432;" horiz-adv-x="505" 
d="M279 340l-8 -50h40q15 0 22.5 8t7.5 18q0 9 -6.5 16.5t-20.5 7.5h-35zM40 0l81 460h260q36 0 64 -9.5t46.5 -25.5t28.5 -36.5t10 -42.5q0 -32 -12.5 -53.5t-26.5 -34.5q-18 -15 -39 -23q16 -8 28 -21q11 -11 20 -29t9 -45q0 -35 -14.5 -61.5t-39 -44t-57 -26t-68.5 -8.5
h-290zM251 180l-10 -60h52q16 0 25 9.5t9 21.5q0 11 -8.5 20t-26.5 9h-41z" />
    <glyph glyph-name="afii10068" unicode="&#x433;" horiz-adv-x="410" 
d="M452 295h-180l-52 -295h-180l81 460h360z" />
    <glyph glyph-name="afii10069" unicode="&#x434;" horiz-adv-x="555" 
d="M573 160l-45 -255h-180l17 95h-185l-17 -95h-179l44 255h30q11 4 22 14q9 8 19 22.5t17 38.5l65 225h390l-53 -300h55zM281 235q-6 -25 -15.5 -39.5t-17.5 -22.5q-10 -10 -20 -13h110l24 140h-65z" />
    <glyph glyph-name="afii10070" unicode="&#x435;" 
d="M62 0zM531 145q-12 -31 -33.5 -59t-51 -49.5t-67 -34t-80.5 -12.5q-53 0 -96.5 17.5t-75 47.5t-48.5 70.5t-17 87.5q0 52 22.5 99t60.5 82t87.5 55.5t103.5 20.5q49 0 89.5 -16t69 -43t44 -62.5t15.5 -74.5q0 -20 -2 -36t-4 -28q-3 -14 -5 -25h-300q0 -20 13 -35t42 -15
q17 0 29.5 4.5t20.5 9.5q10 6 16 15zM384 275q0 23 -14.5 39t-40.5 16q-29 0 -48 -14.5t-27 -40.5h130z" />
    <glyph glyph-name="afii10072" unicode="&#x436;" horiz-adv-x="710" 
d="M524 0l-44 180l-31 -180h-180l31 180l-106 -180h-204l165 244l-65 216h195l36 -165l29 165h180l-29 -165l94 165h199l-147 -223l77 -237h-200z" />
    <glyph glyph-name="afii10073" unicode="&#x437;" horiz-adv-x="470" 
d="M411 230q17 -7 31 -19q12 -11 22 -28t10 -43q0 -29 -13.5 -56t-42.5 -48t-73.5 -33.5t-106.5 -12.5q-39 0 -68 6.5t-51 17t-37 24t-25 27.5q-24 33 -28 75l179 20q0 -10 4 -18q3 -7 10 -12t21 -5q33 0 33 27q0 10 -8 17.5t-25 7.5h-43l20 110h50q34 0 34 25q0 8 -8 15.5
t-21 7.5q-14 0 -21.5 -5t-11.5 -10q-4 -7 -6 -15l-164 20q11 64 68 104.5t162 40.5q50 0 87.5 -11t63 -30t38.5 -44t13 -52q0 -28 -15 -47.5t-32 -31.5q-20 -15 -46 -24z" />
    <glyph glyph-name="afii10074" unicode="&#x438;" horiz-adv-x="555" 
d="M40 0l81 460h180l-36 -200l176 200h155l-81 -460h-180l35 200l-175 -200h-155z" />
    <glyph glyph-name="afii10075" unicode="&#x439;" horiz-adv-x="555" 
d="M40 0l81 460h180l-36 -200l176 200h155l-81 -460h-180l35 200l-175 -200h-155zM374 600q12 0 19.5 5t11.5 12q4 8 6 18h110q-2 -28 -15 -52t-33.5 -41t-46.5 -27t-54 -10q-68 0 -104.5 36.5t-36.5 93.5h110q1 -10 5 -18q3 -7 10 -12t18 -5z" />
    <glyph glyph-name="afii10076" unicode="&#x43a;" horiz-adv-x="510" 
d="M320 0l-67 190l-33 -190h-180l81 460h180l-31 -175l121 175h199l-167 -223l97 -237h-200z" />
    <glyph glyph-name="afii10077" unicode="&#x43b;" 
d="M581 460l-81 -460h-180l52 295h-65l-36 -145q-21 -85 -68.5 -122.5t-119.5 -37.5q-31 0 -54 5q-13 2 -24 5l27 155h20q26 0 39 13t21 42l64 250h405z" />
    <glyph glyph-name="afii10078" unicode="&#x43c;" horiz-adv-x="670" 
d="M373 235l145 225h193l-81 -460h-180l34 195l-124 -195h-50l-56 195l-34 -195h-180l81 460h187z" />
    <glyph glyph-name="afii10079" unicode="&#x43d;" horiz-adv-x="545" 
d="M586 460l-81 -460h-180l25 145h-105l-25 -145h-180l81 460h180l-27 -150h105l27 150h180z" />
    <glyph glyph-name="afii10080" unicode="&#x43e;" horiz-adv-x="550" 
d="M62 0zM62 212q0 52 22 99t59.5 82.5t86.5 56t104 20.5q53 0 96.5 -18t74 -49t47.5 -71t17 -85q0 -53 -22.5 -99.5t-60.5 -81.5t-87 -55.5t-103 -20.5q-53 0 -96.5 18t-74 48t-47 70.5t-16.5 85.5zM310 155q32 0 54.5 22t22.5 62q0 29 -18 47.5t-47 18.5q-32 0 -55 -23.5
t-23 -61.5q0 -29 19 -47t47 -18z" />
    <glyph glyph-name="afii10081" unicode="&#x43f;" horiz-adv-x="545" 
d="M586 460l-81 -460h-180l52 295h-105l-52 -295h-180l81 460h465z" />
    <glyph glyph-name="afii10082" unicode="&#x440;" horiz-adv-x="565" 
d="M11 0zM271 420q17 14 37 25q17 9 40 17t50 8q38 0 72 -15t59.5 -42.5t40 -66.5t14.5 -86q0 -60 -20.5 -109.5t-54 -85t-75.5 -55.5t-85 -20q-32 0 -55 7t-38 15q-18 10 -30 23l-35 -195h-180l110 620h135zM324 155q32 0 54.5 22t22.5 62q0 29 -18 47.5t-47 18.5
q-32 0 -55 -23.5t-23 -61.5q0 -29 19 -47t47 -18z" />
    <glyph glyph-name="afii10083" unicode="&#x441;" horiz-adv-x="535" 
d="M62 0zM336 470q101 0 159.5 -51.5t69.5 -138.5l-182 -20q-3 12 -11 22q-7 8 -19 15.5t-33 7.5q-31 0 -53 -22.5t-22 -58.5q0 -29 17.5 -49t47.5 -20q18 0 31 7t22 15q10 10 17 23l167 -20q-18 -54 -51 -95q-14 -18 -33 -35t-43.5 -30.5t-54.5 -21.5t-66 -8
q-53 0 -96.5 17.5t-75 47.5t-48.5 70.5t-17 87.5q0 52 22.5 99t60.5 82t87.5 55.5t103.5 20.5z" />
    <glyph glyph-name="afii10084" unicode="&#x442;" horiz-adv-x="460" 
d="M497 295h-125l-52 -295h-180l52 295h-125l29 165h430z" />
    <glyph glyph-name="afii10085" unicode="&#x443;" horiz-adv-x="520" 
d="M36 0zM71 460h187l32 -240l118 240h193l-261 -460q-28 -49 -52.5 -81.5t-51 -52t-57 -28t-69.5 -8.5q-30 0 -52 5q-12 2 -22 5l29 160h45q15 0 25 3.5t17 8.5t12 13z" />
    <glyph glyph-name="afii10086" unicode="&#x444;" horiz-adv-x="750" 
d="M395 630h180l-32 -178q8 5 18 9q8 3 20 6t28 3q31 0 60 -13.5t51.5 -38.5t35.5 -62t13 -83q0 -67 -20.5 -119.5t-52 -89t-70 -55.5t-73.5 -19q-20 0 -36.5 4t-27.5 9q-13 5 -23 13l-31 -176h-180l30 167q-9 -5 -20 -9q-10 -3 -23 -5.5t-29 -2.5q-31 0 -59 13t-49 38.5
t-33.5 62t-12.5 83.5q0 67 19.5 119.5t50.5 89t68.5 55.5t72.5 19q22 0 39 -4t29 -9q14 -5 24 -12zM341 293l-8 6q-4 2 -10.5 4t-14.5 2q-11 0 -23 -5.5t-21.5 -16.5t-15.5 -27.5t-6 -39.5q0 -30 14.5 -45.5t35.5 -15.5q9 0 19 4q4 2 7 4zM488 167l8 -6q4 -2 10 -4t15 -2
q11 0 23 5.5t21.5 16.5t15.5 27.5t6 39.5q0 30 -14.5 45.5t-35.5 15.5q-6 0 -10.5 -1t-8.5 -3t-7 -4z" />
    <glyph glyph-name="afii10087" unicode="&#x445;" horiz-adv-x="500" 
d="M0 0zM303 350l80 110h193l-175 -225l104 -235h-192l-45 115l-85 -115h-198l186 235l-95 225h187z" />
    <glyph glyph-name="afii10088" unicode="&#x446;" horiz-adv-x="560" 
d="M370 0h-330l81 460h180l-52 -295h95l52 295h180l-52 -295h55l-46 -260h-180z" />
    <glyph glyph-name="afii10089" unicode="&#x447;" horiz-adv-x="525" 
d="M565 460l-81 -460h-180l22 132q-10 -5 -24 -9q-12 -3 -29 -5.5t-39 -2.5q-34 0 -62.5 11.5t-49 32t-32 49t-11.5 62.5q0 17 3 35l28 155h180l-21 -121q-5 -29 7 -44t35 -15q11 0 19 2t14 4q7 3 12 7l29 167h180z" />
    <glyph glyph-name="afii10090" unicode="&#x448;" horiz-adv-x="750" 
d="M40 0l81 460h180l-52 -295h65l52 295h180l-52 -295h65l52 295h180l-81 -460h-670z" />
    <glyph glyph-name="afii10091" unicode="&#x449;" horiz-adv-x="775" 
d="M585 0h-545l81 460h180l-52 -295h65l52 295h180l-52 -295h65l52 295h180l-52 -295h55l-46 -260h-180z" />
    <glyph glyph-name="afii10092" unicode="&#x44a;" 
d="M95 0l52 295h-90l29 165h270l-22 -120h50q39 0 70.5 -11.5t54.5 -31.5t35.5 -47.5t12.5 -60.5q0 -42 -14.5 -77t-42 -59.5t-67 -38.5t-88.5 -14h-250zM305 200l-11 -60h41q18 0 26.5 10t8.5 21t-7.5 20t-22.5 9h-35z" />
    <glyph glyph-name="afii10093" unicode="&#x44b;" horiz-adv-x="715" 
d="M675 0h-180l81 460h180zM40 0l80 460h181l-22 -120h45q39 0 70.5 -11.5t54.5 -31.5t35.5 -47.5t12.5 -60.5q0 -42 -14.5 -77t-42 -59.5t-67 -38.5t-88.5 -14h-245zM250 200l-11 -60h41q18 0 26.5 10t8.5 21t-7.5 20t-22.5 9h-35z" />
    <glyph glyph-name="afii10094" unicode="&#x44c;" horiz-adv-x="490" 
d="M40 0l81 460h180l-22 -120h55q39 0 70.5 -11.5t54.5 -31.5t35.5 -47.5t12.5 -60.5q0 -42 -14.5 -77t-42 -59.5t-67 -38.5t-88.5 -14h-255zM250 200l-11 -60h46q18 0 26.5 10t8.5 21t-7.5 20t-22.5 9h-40z" />
    <glyph glyph-name="afii10095" unicode="&#x44d;" horiz-adv-x="520" 
d="M255 285h99q-8 40 -60 40q-16 0 -29 -7t-22 -15q-11 -10 -19 -22l-157 19q17 47 49 85q13 16 31.5 31t42 27t52.5 19.5t65 7.5q53 0 96.5 -18t74 -49t47.5 -71t17 -85q0 -53 -22.5 -99.5t-60.5 -81.5t-87 -55.5t-103 -20.5q-37 0 -66 7t-52 19t-40 27.5t-29 31.5
q-28 37 -39 85l165 20q4 -13 13 -23q8 -8 20 -15t32 -7q24 0 41.5 11t25.5 29h-105z" />
    <glyph glyph-name="afii10096" unicode="&#x44e;" horiz-adv-x="745" 
d="M528 305q-15 0 -27.5 -7t-22 -19t-15 -27t-5.5 -31q0 -30 17 -48t37 -18q26 0 47.5 22.5t21.5 62.5q0 28 -15 46.5t-38 18.5zM303 305q19 46 51 82q27 31 71 57t107 26q55 0 98.5 -17t72.5 -47t44.5 -70.5t15.5 -86.5q0 -56 -22 -103.5t-59 -82t-85 -54t-100 -19.5
q-69 0 -111.5 25t-65.5 55q-27 35 -39 80h-35l-26 -150h-180l81 460h180l-28 -155h30z" />
    <glyph glyph-name="afii10097" unicode="&#x44f;" horiz-adv-x="505" 
d="M304 330q-18 0 -27.5 -11.5t-9.5 -25.5q0 -13 8.5 -23t25.5 -10h29l13 70h-39zM128 170q-13 11 -23 28q-9 14 -16 34.5t-7 48.5q0 41 15 74t41 56.5t62.5 36t80.5 12.5h265l-81 -460h-180l22 130h-22l-97 -130h-198z" />
    <glyph glyph-name="afii10071" unicode="&#x451;" 
d="M62 0zM350 591q0 -18 -7.5 -34.5t-20.5 -29t-30.5 -20t-36.5 -7.5q-34 0 -55.5 23.5t-21.5 55.5q0 18 8 34.5t20.5 29t29.5 20t35 7.5q34 0 56.5 -23.5t22.5 -55.5zM550 591q0 -18 -7.5 -34.5t-20.5 -29t-30.5 -20t-36.5 -7.5q-34 0 -55.5 23.5t-21.5 55.5q0 18 8 34.5
t20.5 29t29.5 20t35 7.5q34 0 56.5 -23.5t22.5 -55.5zM531 145q-12 -31 -33.5 -59t-51 -49.5t-67 -34t-80.5 -12.5q-53 0 -96.5 17.5t-75 47.5t-48.5 70.5t-17 87.5q0 52 22.5 99t60.5 82t87.5 55.5t103.5 20.5q49 0 89.5 -16t69 -43t44 -62.5t15.5 -74.5q0 -20 -2 -36
t-4 -28q-3 -14 -5 -25h-300q0 -20 13 -35t42 -15q17 0 29.5 4.5t20.5 9.5q10 6 16 15zM384 275q0 23 -14.5 39t-40.5 16q-29 0 -48 -14.5t-27 -40.5h130z" />
    <glyph glyph-name="afii10099" unicode="&#x452;" horiz-adv-x="570" 
d="M313 385q13 11 31 20q15 8 37 14t49 6q72 0 113.5 -47.5t41.5 -129.5q0 -152 -80.5 -229.5t-230.5 -78.5l31 175q88 0 88 80q0 27 -14.5 41t-37.5 14t-41 -18.5t-23 -46.5l-32 -185h-180l78 445h-55l25 140h55l8 45h180l-8 -45h95l-25 -140h-95z" />
    <glyph glyph-name="afii10100" unicode="&#x453;" horiz-adv-x="410" 
d="M40 0zM452 295h-180l-52 -295h-180l81 460h360zM312 650h193l-124 -140h-158z" />
    <glyph glyph-name="afii10101" unicode="&#x454;" horiz-adv-x="530" 
d="M336 470q38 0 68 -7.5t53.5 -19.5t40 -27t28.5 -31q27 -38 37 -85l-171 -21q-3 12 -11 23q-7 8 -19 15.5t-31 7.5q-20 0 -33.5 -6t-21.5 -14q-10 -9 -15 -20h110l-20 -110h-101q3 -11 11 -20q7 -8 19.5 -14t33.5 -6q14 0 26.5 7t21.5 15q11 10 19 22l158 -19
q-22 -48 -56 -85q-15 -16 -33.5 -31.5t-41.5 -27.5t-50 -19t-59 -7q-53 0 -96.5 17.5t-75 47.5t-48.5 70.5t-17 87.5q0 52 22.5 99t60.5 82t87.5 55.5t103.5 20.5z" />
    <glyph glyph-name="afii10102" unicode="&#x455;" horiz-adv-x="465" 
d="M38 0zM212 155q0 -11 9 -20.5t24 -9.5q16 0 26 5t10 16q0 9 -15 15t-37.5 13t-49 16t-49 24.5t-37.5 39t-15 58.5q0 29 14.5 57.5t41.5 51t65 36t86 13.5q59 0 99.5 -13.5t66 -34.5t37.5 -47t14 -50l-174 -20q0 14 -7.5 22t-22.5 8q-10 0 -16.5 -5.5t-6.5 -11.5
q0 -9 15 -15t37.5 -12t48.5 -15.5t48.5 -24.5t37.5 -39t15 -60q0 -31 -15.5 -60.5t-43.5 -52t-68.5 -36t-89.5 -13.5q-62 0 -104 13t-67.5 34t-37 46.5t-13.5 51.5z" />
    <glyph glyph-name="afii10103" unicode="&#x456;" horiz-adv-x="260" 
d="M40 0zM138 584q0 21 8 38.5t22.5 30t33 20t39.5 7.5q40 0 64.5 -23.5t24.5 -57.5q0 -21 -8 -39t-21.5 -31.5t-32 -21t-39.5 -7.5q-42 0 -66.5 24.5t-24.5 59.5zM220 0h-180l81 460h180z" />
    <glyph glyph-name="afii10104" unicode="&#x457;" horiz-adv-x="290" 
d="M237 0h-180l81 460h180zM227 591q0 -18 -7.5 -34.5t-20.5 -29t-30.5 -20t-36.5 -7.5q-34 0 -55.5 23.5t-21.5 55.5q0 18 8 34.5t20.5 29t29.5 20t35 7.5q34 0 56.5 -23.5t22.5 -55.5zM427 591q0 -18 -7.5 -34.5t-20.5 -29t-30.5 -20t-36.5 -7.5q-34 0 -55.5 23.5
t-21.5 55.5q0 18 8 34.5t20.5 29t29.5 20t35 7.5q34 0 56.5 -23.5t22.5 -55.5z" />
    <glyph glyph-name="afii10105" unicode="&#x458;" horiz-adv-x="260" 
d="M0 0zM120 460h180l-81 -456q-15 -87 -68 -130.5t-130 -43.5q-23 0 -41 2.5t-31 6.5q-15 4 -26 10l27 156q4 -2 9 -3t11.5 -1.5t15.5 -0.5q29 0 43 14t20 46zM137 584q0 21 8 38.5t22.5 30t33 20t39.5 7.5q40 0 64.5 -23.5t24.5 -57.5q0 -21 -8 -39t-21.5 -31.5t-32 -21
t-39.5 -7.5q-42 0 -66.5 24.5t-24.5 59.5z" />
    <glyph glyph-name="afii10106" unicode="&#x459;" horiz-adv-x="735" 
d="M305 0l52 295h-50l-36 -145q-21 -85 -68.5 -122.5t-119.5 -37.5q-31 0 -54 5q-13 2 -24 5l27 155h20q26 0 39 13t21 42l64 250h390l-22 -120h35q39 0 70.5 -11.5t54.5 -31.5t35.5 -47.5t12.5 -60.5q0 -42 -14.5 -77t-42 -59.5t-67 -38.5t-88.5 -14h-235zM515 200l-11 -60
h26q18 0 26.5 10t8.5 21t-7.5 20t-22.5 9h-20z" />
    <glyph glyph-name="afii10107" unicode="&#x45a;" horiz-adv-x="735" 
d="M513 190l-9 -50h29q16 0 23.5 7.5t7.5 17.5q0 25 -29 25h-22zM305 0l29 165h-85l-29 -165h-180l81 460h180l-23 -130h85l23 130h180l-23 -130h34q39 0 71 -10t55 -28.5t36 -46t13 -61.5q0 -85 -56.5 -134.5t-155.5 -49.5h-235z" />
    <glyph glyph-name="afii10108" unicode="&#x45b;" horiz-adv-x="575" 
d="M422 425q36 0 65.5 -11.5t50.5 -33t32.5 -51t11.5 -65.5q0 -20 -3 -39l-39 -225h-180l31 180q5 32 -8.5 51t-40.5 19q-54 0 -65 -65l-32 -185h-180l78 445h-55l25 140h55l8 45h180l-8 -45h95l-25 -140h-95l-10 -60q13 11 30 20q14 8 34 14t45 6z" />
    <glyph glyph-name="afii10109" unicode="&#x45c;" horiz-adv-x="510" 
d="M40 0zM320 0l-67 190l-33 -190h-180l81 460h180l-31 -175l121 175h199l-167 -223l97 -237h-200zM357 650h193l-124 -140h-158z" />
    <glyph glyph-name="afii10110" unicode="&#x45e;" horiz-adv-x="520" 
d="M36 0zM71 460h187l32 -240l118 240h193l-261 -460q-28 -49 -52.5 -81.5t-51 -52t-57 -28t-69.5 -8.5q-30 0 -52 5q-12 2 -22 5l29 160h45q15 0 25 3.5t17 8.5t12 13zM348 600q12 0 19.5 5t11.5 12q4 8 6 18h110q-2 -28 -15 -52t-33.5 -41t-46.5 -27t-54 -10
q-68 0 -104.5 36.5t-36.5 93.5h110q1 -10 5 -18q3 -7 10 -12t18 -5z" />
    <glyph glyph-name="afii10193" unicode="&#x45f;" horiz-adv-x="545" 
d="M343 -95h-175l17 95h-145l81 460h180l-52 -295h105l52 295h180l-81 -460h-145z" />
    <glyph glyph-name="afii10050" unicode="&#x490;" horiz-adv-x="510" 
d="M161 630h250l19 110h200l-53 -300h-250l-77 -440h-200z" />
    <glyph glyph-name="afii10098" unicode="&#x491;" horiz-adv-x="410" 
d="M452 295h-180l-52 -295h-180l81 460h180l14 80h180z" />
    <glyph glyph-name="uni1E9E" unicode="&#x1e9e;" horiz-adv-x="650" 
d="M45 0zM555 366q29 -13 53 -33q20 -18 37 -46.5t17 -72.5q0 -47 -18.5 -86.5t-51.5 -68t-79.5 -44t-102.5 -15.5h-100l31 180h65q25 0 36 11.5t11 28.5q0 12 -9.5 21t-26.5 9h-63l19 110l89 80h-102q-37 0 -45 -40l-70 -400h-200l70 400q21 118 86 174t185 56h305
l-30 -170z" />
    <glyph glyph-name="endash" unicode="&#x2013;" horiz-adv-x="510" 
d="M499 170h-430l30 170h430z" />
    <glyph glyph-name="emdash" unicode="&#x2014;" horiz-adv-x="755" 
d="M744 170h-675l30 170h675z" />
    <glyph glyph-name="quoteleft" unicode="&#x2018;" horiz-adv-x="250" 
d="M188 340q-41 0 -66 25.5t-25 73.5q0 32 13 65t34.5 61.5t50 51t59.5 33.5l27 -50q-15 -8 -29 -19q-12 -9 -24 -21.5t-19 -29.5q37 -3 58 -26.5t21 -58.5q0 -23 -8 -42t-21.5 -33t-31.5 -22t-39 -8z" />
    <glyph glyph-name="quoteright" unicode="&#x2019;" horiz-adv-x="250" 
d="M218 650q41 0 66 -25.5t25 -73.5q0 -32 -13 -65t-34.5 -61.5t-50 -51t-59.5 -33.5l-27 50q15 7 29 18q12 9 24 22t19 30q-37 3 -58 26.5t-21 58.5q0 23 8 42t21.5 33t31.5 22t39 8z" />
    <glyph glyph-name="quotesinglbase" unicode="&#x201a;" horiz-adv-x="250" 
d="M135 180q41 0 66 -25.5t25 -73.5q0 -32 -13 -65t-34.5 -61.5t-50 -51t-59.5 -33.5l-27 50q15 7 29 18q12 9 24 22t19 30q-37 3 -58 26.5t-21 58.5q0 23 8 42t21.5 33t31.5 22t39 8z" />
    <glyph glyph-name="quotedblleft" unicode="&#x201c;" horiz-adv-x="470" 
d="M408 340q-41 0 -66 25.5t-25 73.5q0 32 13 65t34.5 61.5t50 51t59.5 33.5l27 -50q-15 -8 -29 -19q-12 -9 -24 -21.5t-19 -29.5q37 -3 58 -26.5t21 -58.5q0 -23 -8 -42t-21.5 -33t-31.5 -22t-39 -8zM188 340q-41 0 -66 25.5t-25 73.5q0 32 13 65t34.5 61.5t50 51
t59.5 33.5l27 -50q-15 -8 -29 -19q-12 -9 -24 -21.5t-19 -29.5q37 -3 58 -26.5t21 -58.5q0 -23 -8 -42t-21.5 -33t-31.5 -22t-39 -8z" />
    <glyph glyph-name="quotedblright" unicode="&#x201d;" horiz-adv-x="470" 
d="M218 650q41 0 66 -25.5t25 -73.5q0 -32 -13 -65t-34.5 -61.5t-50 -51t-59.5 -33.5l-27 50q15 7 29 18q12 9 24 22t19 30q-37 3 -58 26.5t-21 58.5q0 23 8 42t21.5 33t31.5 22t39 8zM438 650q41 0 66 -25.5t25 -73.5q0 -32 -13 -65t-34.5 -61.5t-50 -51t-59.5 -33.5
l-27 50q15 7 29 18q12 9 24 22t19 30q-37 3 -58 26.5t-21 58.5q0 23 8 42t21.5 33t31.5 22t39 8z" />
    <glyph glyph-name="quotedblbase" unicode="&#x201e;" horiz-adv-x="470" 
d="M135 180q41 0 66 -25.5t25 -73.5q0 -32 -13 -65t-34.5 -61.5t-50 -51t-59.5 -33.5l-27 50q15 7 29 18q12 9 24 22t19 30q-37 3 -58 26.5t-21 58.5q0 23 8 42t21.5 33t31.5 22t39 8zM355 180q41 0 66 -25.5t25 -73.5q0 -32 -13 -65t-34.5 -61.5t-50 -51t-59.5 -33.5
l-27 50q15 7 29 18q12 9 24 22t19 30q-37 3 -58 26.5t-21 58.5q0 23 8 42t21.5 33t31.5 22t39 8z" />
    <glyph glyph-name="dagger" unicode="&#x2020;" horiz-adv-x="465" 
d="M489 365h-105l-38 -215h-175l38 215h-105l29 165h105l18 100h175l-18 -100h105z" />
    <glyph glyph-name="daggerdbl" unicode="&#x2021;" horiz-adv-x="465" 
d="M137 555h105l14 75h175l-14 -75h105l-23 -135h-105l-11 -60h105l-24 -135h-105l-13 -75h-175l13 75h-105l24 135h105l11 60h-105z" />
    <glyph glyph-name="bullet" unicode="&#x2022;" horiz-adv-x="390" 
d="M350 278q0 -23 -11 -45t-29 -39.5t-41 -28t-48 -10.5q-21 0 -40 9t-33.5 24t-22.5 34.5t-8 40.5q0 24 11.5 46t29.5 39t41 27t47 10q21 0 40 -9t33 -23.5t22.5 -34t8.5 -40.5z" />
    <glyph glyph-name="ellipsis" unicode="&#x2026;" horiz-adv-x="730" 
d="M35 75q0 21 7.5 40.5t21 33.5t32 22.5t40.5 8.5q41 0 66.5 -24t25.5 -61q0 -46 -30 -75.5t-75 -29.5q-41 0 -64.5 24t-23.5 61zM275 75q0 21 7.5 40.5t21 33.5t32 22.5t40.5 8.5q41 0 66.5 -24t25.5 -61q0 -46 -30 -75.5t-75 -29.5q-41 0 -64.5 24t-23.5 61zM515 75
q0 21 7.5 40.5t21 33.5t32 22.5t40.5 8.5q41 0 66.5 -24t25.5 -61q0 -46 -30 -75.5t-75 -29.5q-41 0 -64.5 24t-23.5 61z" />
    <glyph glyph-name="perthousand" unicode="&#x2030;" horiz-adv-x="1000" 
d="M240 530q-16 0 -27.5 -11t-11.5 -28q0 -14 9.5 -22.5t23.5 -8.5q16 0 27 11t11 28q0 14 -9 22.5t-23 8.5zM389 507q0 -31 -12.5 -59.5t-34 -50t-51 -34.5t-62.5 -13q-32 0 -58.5 10.5t-45.5 28.5t-30 42t-11 51q0 33 13.5 61.5t36 50t52.5 34t63 12.5q31 0 57 -10.5
t44.5 -28.5t28.5 -42t10 -52zM726 630l-496 -630h-150l496 630h150zM552 170q-16 0 -27.5 -11t-11.5 -28q0 -14 9.5 -22.5t23.5 -8.5q16 0 27 11t11 28q0 14 -9 22.5t-23 8.5zM701 147q0 -31 -12.5 -59.5t-34 -50t-51 -34.5t-62.5 -13q-32 0 -58.5 10.5t-45.5 28.5t-30 42
t-11 51q0 33 13.5 61.5t36 50t52.5 34t63 12.5q31 0 57 -10.5t44.5 -28.5t28.5 -42t10 -52zM882 170q-16 0 -27.5 -11t-11.5 -28q0 -14 9.5 -22.5t23.5 -8.5q16 0 27 11t11 28q0 14 -9 22.5t-23 8.5zM1031 147q0 -31 -12.5 -59.5t-34 -50t-51 -34.5t-62.5 -13
q-32 0 -58.5 10.5t-45.5 28.5t-30 42t-11 51q0 33 13.5 61.5t36 50t52.5 34t63 12.5q31 0 57 -10.5t44.5 -28.5t28.5 -42t10 -52z" />
    <glyph glyph-name="guilsinglleft" unicode="&#x2039;" horiz-adv-x="370" 
d="M261 221l87 -171h-190l-89 175l151 175h195z" />
    <glyph glyph-name="guilsinglright" unicode="&#x203a;" horiz-adv-x="370" 
d="M192 229l-87 171h190l89 -175l-151 -175h-195z" />
    <glyph glyph-name="fraction" unicode="&#x2044;" horiz-adv-x="155" 
d="M-190 0l496 630h154l-496 -630h-154z" />
    <glyph glyph-name="zerosuperior" unicode="&#x2070;" horiz-adv-x="340" 
d="M264 615q-9 0 -16 -7t-11.5 -17t-6.5 -22t-2 -21q0 -17 5.5 -25t13.5 -8q9 0 22 14t13 51q0 17 -5 26t-13 9zM102 543q0 33 12 65.5t34 58.5t53 42t69 16q61 0 99.5 -38t38.5 -101q0 -41 -13.5 -74t-36 -57t-52 -37t-61.5 -13q-31 0 -57.5 10t-45.5 28t-29.5 43.5
t-10.5 56.5z" />
    <glyph glyph-name="foursuperior" unicode="&#x2074;" horiz-adv-x="305" 
d="M372 470h-30l-10 -60h-125l10 60h-135l13 70l141 180h150l-26 -150h30zM248 560l11 60l-48 -60h37z" />
    <glyph glyph-name="fivesuperior" unicode="&#x2075;" horiz-adv-x="305" 
d="M283 615q48 0 75.5 -27t27.5 -64q0 -51 -37.5 -85t-112.5 -34q-32 0 -57.5 7.5t-43.5 20.5t-27.5 30.5t-9.5 36.5l123 10q0 -4 3 -8q5 -7 16 -7q9 0 15.5 7t6.5 21q0 9 -5.5 15.5t-14.5 6.5q-10 0 -18 -8q-4 -4 -6 -7h-105l58 190h225l-14 -80h-125l-10 -30q4 1 9 2t11 2
t16 1z" />
    <glyph glyph-name="sixsuperior" unicode="&#x2076;" horiz-adv-x="300" 
d="M223 405q-29 0 -53 8.5t-41.5 23.5t-27.5 34t-10 40q0 32 15.5 59.5t44.5 59.5l80 90h131l-75 -85q37 -4 62.5 -32.5t25.5 -66.5q0 -27 -10.5 -51t-30 -42t-48 -28t-63.5 -10zM231 500q11 0 17 8t6 21q0 8 -5.5 14.5t-13.5 6.5q-9 0 -15.5 -7.5t-6.5 -21.5q0 -9 5 -15
t13 -6z" />
    <glyph glyph-name="sevensuperior" unicode="&#x2077;" horiz-adv-x="275" 
d="M391 720l-15 -90l-136 -220h-133l122 200h-102l19 110h245z" />
    <glyph glyph-name="eightsuperior" unicode="&#x2078;" horiz-adv-x="310" 
d="M239 535q-12 0 -20 -7t-8 -21q0 -9 6 -15.5t17 -6.5q13 0 20.5 8t7.5 21q0 8 -6 14.5t-17 6.5zM226 405q-68 0 -102.5 26.5t-34.5 64.5q0 21 9 35.5t20 22.5q12 10 29 16q-8 6 -13 15q-5 8 -8.5 18t-3.5 24q0 40 36 69t111 29q31 0 54 -7.5t39 -19.5t24 -27.5t8 -31.5
q0 -20 -7.5 -33t-16.5 -21q-11 -10 -23 -15q9 -7 17 -16q7 -8 12.5 -19.5t5.5 -25.5q0 -45 -38 -74.5t-118 -29.5zM256 605q9 0 15 6t6 14t-5 14t-14 6t-15 -6t-6 -16q0 -7 5.5 -12.5t13.5 -5.5z" />
    <glyph glyph-name="ninesuperior" unicode="&#x2079;" horiz-adv-x="300" 
d="M258 725q29 0 53 -8.5t41.5 -23.5t27.5 -34t10 -40q0 -32 -16.5 -60t-45.5 -61l-78 -88h-131l75 85q-37 4 -62.5 32.5t-25.5 66.5q0 27 10.5 51t30 42t48 28t63.5 10zM250 630q-11 0 -17 -8t-6 -21q0 -8 5.5 -14.5t13.5 -6.5q9 0 15.5 7.5t6.5 21.5q0 9 -5 15t-13 6z" />
    <glyph glyph-name="zeroinferior" unicode="&#x2080;" horiz-adv-x="340" 
d="M175 110q-9 0 -16 -7t-11.5 -17t-6.5 -22t-2 -21q0 -17 5.5 -25t13.5 -8q9 0 22 14t13 51q0 17 -5 26t-13 9zM13 38q0 33 12 65.5t34 58.5t53 42t69 16q61 0 99.5 -38t38.5 -101q0 -41 -13.5 -74t-36 -57t-52 -37t-61.5 -13q-31 0 -57.5 10t-45.5 28t-29.5 43.5
t-10.5 56.5z" />
    <glyph glyph-name="oneinferior" unicode="&#x2081;" horiz-adv-x="275" 
d="M252 215l-54 -310h-125l28 161l-25 -14l-42 88l133 75h85z" />
    <glyph glyph-name="twoinferior" unicode="&#x2082;" horiz-adv-x="289" 
d="M275 5l-17 -100h-260l14 80l131 90q12 8 21.5 17t9.5 20q0 13 -14 13q-8 0 -15.5 -6.5t-8.5 -18.5l-106 10q5 49 44.5 79.5t103.5 30.5q59 0 91.5 -28t32.5 -65q0 -33 -21.5 -55.5t-56.5 -46.5l-29 -20h80z" />
    <glyph glyph-name="threeinferior" unicode="&#x2083;" horiz-adv-x="295" 
d="M26 120q8 45 43 72.5t107 27.5q31 0 54.5 -7.5t39.5 -19.5t24.5 -27.5t8.5 -30.5q0 -21 -8 -34.5t-18 -21.5q-11 -10 -26 -14q9 -8 17 -18q7 -8 12.5 -20t5.5 -27q0 -45 -36.5 -72.5t-102.5 -27.5q-76 0 -111.5 29t-35.5 71l123 10q0 -8 4 -14t14 -6q19 0 19 16
q0 14 -19 14h-28l14 80h25q9 0 16 3.5t7 11.5q0 15 -20 15q-8 0 -12.5 -3t-6.5 -7q-3 -4 -4 -10z" />
    <glyph glyph-name="fourinferior" unicode="&#x2084;" horiz-adv-x="305" 
d="M284 -35h-30l-10 -60h-125l10 60h-135l13 70l141 180h150l-26 -150h30zM160 55l11 60l-48 -60h37z" />
    <glyph glyph-name="fiveinferior" unicode="&#x2085;" horiz-adv-x="305" 
d="M194 110q48 0 75.5 -27t27.5 -64q0 -51 -37.5 -85t-112.5 -34q-32 0 -57.5 7.5t-43.5 20.5t-27.5 30.5t-9.5 36.5l123 10q0 -4 3 -8q5 -7 16 -7q9 0 15.5 7t6.5 21q0 9 -5.5 15.5t-14.5 6.5q-10 0 -18 -8q-4 -4 -6 -7h-105l58 190h225l-14 -80h-125l-10 -30q4 1 9 2t11 2
t16 1z" />
    <glyph glyph-name="sixinferior" unicode="&#x2086;" horiz-adv-x="300" 
d="M134 -100q-29 0 -53 8.5t-41.5 23.5t-27.5 34t-10 40q0 32 15.5 59.5t44.5 59.5l80 90h131l-75 -85q37 -4 62.5 -32.5t25.5 -66.5q0 -27 -10.5 -51t-30 -42t-48 -28t-63.5 -10zM142 -5q11 0 17 8t6 21q0 8 -5.5 14.5t-13.5 6.5q-9 0 -15.5 -7.5t-6.5 -21.5q0 -9 5 -15
t13 -6z" />
    <glyph glyph-name="seveninferior" unicode="&#x2087;" horiz-adv-x="275" 
d="M302 215l-15 -90l-136 -220h-133l122 200h-102l19 110h245z" />
    <glyph glyph-name="eightinferior" unicode="&#x2088;" horiz-adv-x="310" 
d="M150 30q-12 0 -20 -7t-8 -21q0 -9 6 -15.5t17 -6.5q13 0 20.5 8t7.5 21q0 8 -6 14.5t-17 6.5zM137 -100q-68 0 -102.5 26.5t-34.5 64.5q0 21 9 35.5t20 22.5q12 10 29 16q-8 6 -13 15q-5 8 -8.5 18t-3.5 24q0 40 36 69t111 29q31 0 54 -7.5t39 -19.5t24 -27.5t8 -31.5
q0 -20 -7.5 -33t-16.5 -21q-11 -10 -23 -15q9 -7 17 -16q7 -8 12.5 -19.5t5.5 -25.5q0 -45 -38 -74.5t-118 -29.5zM167 100q9 0 15 6t6 14t-5 14t-14 6t-15 -6t-6 -16q0 -7 5.5 -12.5t13.5 -5.5z" />
    <glyph glyph-name="nineinferior" unicode="&#x2089;" horiz-adv-x="300" 
d="M169 220q29 0 53 -8.5t41.5 -23.5t27.5 -34t10 -40q0 -32 -16.5 -60t-45.5 -61l-78 -88h-131l75 85q-37 4 -62.5 32.5t-25.5 66.5q0 27 10.5 51t30 42t48 28t63.5 10zM161 125q-11 0 -17 -8t-6 -21q0 -8 5.5 -14.5t13.5 -6.5q9 0 15.5 7.5t6.5 21.5q0 9 -5 15t-13 6z" />
    <glyph glyph-name="Euro" unicode="&#x20ac;" horiz-adv-x="715" 
d="M82 415h57q22 50 56.5 91.5t77.5 71t91.5 46t98.5 16.5q53 0 94 -10t72.5 -25.5t54 -36t37.5 -41.5q36 -49 46 -112l-207 -20q-9 18 -23 32q-12 12 -31.5 22.5t-48.5 10.5q-26 0 -45 -7.5t-33 -15.5q-16 -10 -27 -22h130l-15 -85h-154l-6 -30h155l-15 -85h-121
q9 -13 23 -23q12 -8 31 -15t45 -7t47.5 10t36.5 22q18 14 31 33l191 -20q-28 -64 -72 -113q-19 -21 -43.5 -41t-54.5 -36t-66.5 -25.5t-79.5 -9.5q-63 0 -113.5 16.5t-88 46.5t-62.5 71t-37 91h-67l15 85h49l6 30h-50z" />
    <glyph glyph-name="uni20B4" unicode="&#x20b4;" horiz-adv-x="570" 
d="M72 210l15 85h500l-15 -85h-246q-10 -6 -17 -12q-6 -5 -11 -12.5t-5 -16.5q0 -13 11 -21t26 -8q19 0 34 13.5t18 36.5l177 -20q-7 -39 -25.5 -72t-50.5 -57t-78 -37.5t-108 -13.5q-51 0 -92.5 12t-70.5 32t-44.5 47t-15.5 56q0 16 4.5 29.5t10.5 23.5q6 11 15 20h-32z
M609 420l-15 -85h-500l15 85h246q8 5 15 11q6 5 11 12.5t5 15.5q0 13 -8.5 22t-27.5 9t-33.5 -13t-17.5 -37l-178 20q5 39 23.5 72t51 57t78.5 37.5t106 13.5q55 0 97.5 -13t71 -34.5t43 -48t14.5 -53.5q0 -17 -4.5 -30t-9.5 -22q-6 -11 -14 -19h31z" />
    <glyph glyph-name="uni20BD" unicode="&#x20bd;" horiz-adv-x="595" 
d="M91 375h55l45 255h230q57 0 101 -15t73 -40.5t44 -58.5t15 -69q0 -44 -19 -82t-55 -66t-89 -43.5t-120 -15.5h-49l-5 -30h150l-23 -130h-150l-14 -80h-200l14 80h-55l23 130h55l5 30h-55zM374 375q31 0 49 15.5t18 41.5q0 23 -15 38t-42 15h-19l-19 -110h28z" />
    <glyph glyph-name="afii61352" unicode="&#x2116;" horiz-adv-x="1050" 
d="M920 370q-15 0 -26 -11t-11 -27q0 -14 9.5 -23t24.5 -9q14 0 25.5 10.5t11.5 26.5q0 14 -9 23.5t-25 9.5zM1081 348q0 -33 -13.5 -64t-37.5 -54t-56 -37t-69 -14q-33 0 -60.5 11.5t-47 31t-30.5 45t-11 54.5q0 35 14 65.5t37.5 53.5t55 36.5t66.5 13.5t63 -11.5t48 -31
t30.5 -45.5t10.5 -54zM1010 0h-300l24 140h300zM761 630l-111 -630h-190l-157 305l-53 -305h-200l111 630h190l156 -306l54 306h200z" />
    <glyph glyph-name="trademark" unicode="&#x2122;" horiz-adv-x="660" 
d="M484 480l-20 -115h-110l47 265h97l48 -95l82 95h103l-47 -265h-110l20 115l-50 -60h-30zM144 365l28 160h-70l19 105h250l-19 -105h-70l-28 -160h-110z" />
    <glyph glyph-name="arrowleft" unicode="&#x2190;" horiz-adv-x="1000" 
d="M479 165v-210l-355 355l355 355v-210l-70 -70h575v-150h-575z" />
    <glyph glyph-name="arrowup" unicode="&#x2191;" horiz-adv-x="1000" 
d="M644 465v-575h-150v575l-70 -70h-210l355 355l355 -355h-210z" />
    <glyph glyph-name="arrowright" unicode="&#x2192;" horiz-adv-x="1000" 
d="M686 235h-575v150h575l-70 70v210l355 -355l-355 -355v210z" />
    <glyph glyph-name="arrowdown" unicode="&#x2193;" horiz-adv-x="1000" 
d="M688 245h210l-355 -355l-355 355h210l70 -70v575h150v-575z" />
    <glyph glyph-name="arrowboth" unicode="&#x2194;" horiz-adv-x="1000" 
d="M409 235l70 -70v-210l-355 355l355 355v-210l-70 -70h290l-70 70v210l355 -355l-355 -355v210l70 70h-290z" />
    <glyph glyph-name="arrowupdn" unicode="&#x2195;" horiz-adv-x="1000" 
d="M618 175l70 70h210l-355 -355l-355 355h210l70 -70v290l-70 -70h-210l355 355l355 -355h-210l-70 70v-290z" />
    <glyph glyph-name="uni2196" unicode="&#x2196;" horiz-adv-x="1000" 
d="M854 85l-105 -105l-405 405v-95l-150 -150v500h500l-150 -150h-95z" />
    <glyph glyph-name="uni2197" unicode="&#x2197;" horiz-adv-x="1000" 
d="M589 490h-95l-150 150h500v-500l-150 150v95l-405 -405l-105 105z" />
    <glyph glyph-name="uni2198" unicode="&#x2198;" horiz-adv-x="1000" 
d="M264 535l105 105l405 -405v95l150 150v-500h-500l150 150h95z" />
    <glyph glyph-name="uni2199" unicode="&#x2199;" horiz-adv-x="1000" 
d="M421 130h95l150 -150h-500v500l150 -150v-95l405 405l105 -105z" />
    <glyph glyph-name="minus" unicode="&#x2212;" horiz-adv-x="480" 
d="M469 170h-400l30 170h400z" />
    <glyph glyph-name="approxequal" unicode="&#x2248;" horiz-adv-x="480" 
d="M547 440q-9 -75 -51.5 -117.5t-106.5 -42.5q-26 0 -47.5 7t-39.5 15.5t-34 15.5t-31 7t-27.5 -10.5t-17.5 -29.5l-130 10q10 75 52 117.5t106 42.5q26 0 47.5 -7t39.5 -15.5t34 -15.5t31 -7t27.5 10.5t17.5 29.5zM25 90q9 75 51.5 117.5t106.5 42.5q26 0 47.5 -7
t39.5 -15.5t34 -15.5t31 -7t27.5 10.5t17.5 29.5l130 -10q-10 -75 -52 -117.5t-106 -42.5q-26 0 -47.5 7t-39.5 15.5t-34 15.5t-31 7t-27.5 -10.5t-17.5 -29.5z" />
    <glyph glyph-name="notequal" unicode="&#x2260;" horiz-adv-x="480" 
d="M57 5l44 75h-57l25 145h117l36 60h-142l25 145h197l44 75h166l-44 -75h57l-25 -145h-117l-36 -60h142l-25 -145h-197l-44 -75h-166z" />
    <glyph glyph-name="lessequal" unicode="&#x2264;" horiz-adv-x="475" 
d="M285 316l196 -50l-24 -136l-373 120l24 140l416 120l-25 -144zM456 120l-21 -120h-395l21 120h395z" />
    <glyph glyph-name="greaterequal" unicode="&#x2265;" horiz-adv-x="475" 
d="M106 374l23 136l374 -120l-24 -140l-417 -120l26 144l214 50zM456 120l-21 -120h-395l21 120h395z" />
    <glyph glyph-name="uni2460" unicode="&#x2460;" horiz-adv-x="1000" 
d="M123 320q0 92 34.5 172t94 139.5t139.5 94t172 34.5t172 -34.5t139.5 -94t94 -139.5t34.5 -172t-34.5 -172t-94 -139.5t-139.5 -94t-172 -34.5t-172 34.5t-139.5 94t-94 139.5t-34.5 172zM283 320q0 -58 22 -109t60 -89t89 -60t109 -22t109 22t89 60t60 89t22 109
t-22 109t-60 89t-89 60t-109 22t-109 -22t-89 -60t-60 -89t-22 -109zM643 520v-400h-130v250l-40 -25l-60 95l120 80h110z" />
    <glyph glyph-name="uni2461" unicode="&#x2461;" horiz-adv-x="1000" 
d="M123 320q0 92 34.5 172t94 139.5t139.5 94t172 34.5t172 -34.5t139.5 -94t94 -139.5t34.5 -172t-34.5 -172t-94 -139.5t-139.5 -94t-172 -34.5t-172 34.5t-139.5 94t-94 139.5t-34.5 172zM283 320q0 -58 22 -109t60 -89t89 -60t109 -22t109 22t89 60t60 89t22 109
t-22 109t-60 89t-89 60t-109 22t-109 -22t-89 -60t-60 -89t-22 -109zM718 240v-120h-300v80l145 150q3 5 7 10q3 5 5.5 11t2.5 14q0 15 -6 20t-14 5q-25 0 -25 -35l-125 15q2 30 13.5 55.5t32 44.5t48 29.5t61.5 10.5q75 0 115 -36t40 -89q0 -25 -8.5 -45.5t-19.5 -36.5
q-12 -18 -27 -33l-50 -50h105z" />
    <glyph glyph-name="uni2462" unicode="&#x2462;" horiz-adv-x="1000" 
d="M123 320q0 92 34.5 172t94 139.5t139.5 94t172 34.5t172 -34.5t139.5 -94t94 -139.5t34.5 -172t-34.5 -172t-94 -139.5t-139.5 -94t-172 -34.5t-172 34.5t-139.5 94t-94 139.5t-34.5 172zM283 320q0 -58 22 -109t60 -89t89 -60t109 -22t109 22t89 60t60 89t22 109
t-22 109t-60 89t-89 60t-109 22t-109 -22t-89 -60t-60 -89t-22 -109zM403 400q2 26 14 49.5t32.5 41.5t49 28.5t64.5 10.5q37 0 66 -9.5t49 -25.5t30 -37t10 -43q0 -23 -8.5 -38.5t-19.5 -26.5q-12 -12 -27 -20q18 -8 32 -21q12 -11 22.5 -29.5t10.5 -44.5q0 -24 -11 -47
t-31.5 -40t-50.5 -27.5t-67 -10.5q-39 0 -70 10.5t-52.5 29t-33.5 43t-14 52.5l130 15q0 -10 4 -18q3 -7 9 -12t17 -5q30 0 30 25t-30 25h-40v100h40q8 0 14 4.5t6 15.5t-6 15.5t-14 4.5t-12.5 -5t-7.5 -10q-4 -7 -5 -15z" />
    <glyph glyph-name="uni2463" unicode="&#x2463;" horiz-adv-x="1000" 
d="M123 320q0 92 34.5 172t94 139.5t139.5 94t172 34.5t172 -34.5t139.5 -94t94 -139.5t34.5 -172t-34.5 -172t-94 -139.5t-139.5 -94t-172 -34.5t-172 34.5t-139.5 94t-94 139.5t-34.5 172zM283 320q0 -58 22 -109t60 -89t89 -60t109 -22t109 22t89 60t60 89t22 109
t-22 109t-60 89t-89 60t-109 22t-109 -22t-89 -60t-60 -89t-22 -109zM723 180h-40v-60h-130v60h-165v110l149 230h146v-220h40v-120zM513 300h50v75z" />
    <glyph glyph-name="uni2464" unicode="&#x2464;" horiz-adv-x="1000" 
d="M123 320q0 92 34.5 172t94 139.5t139.5 94t172 34.5t172 -34.5t139.5 -94t94 -139.5t34.5 -172t-34.5 -172t-94 -139.5t-139.5 -94t-172 -34.5t-172 34.5t-139.5 94t-94 139.5t-34.5 172zM283 320q0 -58 22 -109t60 -89t89 -60t109 -22t109 22t89 60t60 89t22 109
t-22 109t-60 89t-89 60t-109 22t-109 -22t-89 -60t-60 -89t-22 -109zM598 390q28 0 52 -10t41 -27.5t27 -42.5t10 -55q0 -64 -42.5 -104.5t-117.5 -40.5q-38 0 -67.5 10.5t-50.5 28.5t-33 41.5t-14 49.5l130 10q2 -8 6 -13q3 -5 8.5 -8.5t15.5 -3.5q11 0 20.5 8t9.5 27
t-9.5 27t-20.5 8q-10 0 -15.5 -3t-8.5 -7q-4 -4 -6 -10h-120l30 245h255v-105h-150l-5 -35q6 2 14 5q7 2 17 3.5t24 1.5z" />
    <glyph glyph-name="uni2465" unicode="&#x2465;" horiz-adv-x="1000" 
d="M123 320q0 92 34.5 172t94 139.5t139.5 94t172 34.5t172 -34.5t139.5 -94t94 -139.5t34.5 -172t-34.5 -172t-94 -139.5t-139.5 -94t-172 -34.5t-172 34.5t-139.5 94t-94 139.5t-34.5 172zM283 320q0 -58 22 -109t60 -89t89 -60t109 -22t109 22t89 60t60 89t22 109
t-22 109t-60 89t-89 60t-109 22t-109 -22t-89 -60t-60 -89t-22 -109zM563 110q-38 0 -68 11.5t-52 31.5t-33.5 47.5t-11.5 59.5q0 28 9.5 54.5t20.5 46.5q13 24 30 44l80 115h140l-80 -115q56 -8 93 -46.5t37 -98.5q0 -32 -11.5 -59.5t-33.5 -47.5t-52.5 -31.5t-67.5 -11.5z
M533 260q0 -15 9.5 -22.5t20.5 -7.5t20.5 7.5t9.5 22.5t-9.5 22.5t-20.5 7.5t-20.5 -7.5t-9.5 -22.5z" />
    <glyph glyph-name="uni2466" unicode="&#x2466;" horiz-adv-x="1000" 
d="M123 320q0 92 34.5 172t94 139.5t139.5 94t172 34.5t172 -34.5t139.5 -94t94 -139.5t34.5 -172t-34.5 -172t-94 -139.5t-139.5 -94t-172 -34.5t-172 34.5t-139.5 94t-94 139.5t-34.5 172zM283 320q0 -58 22 -109t60 -89t89 -60t109 -22t109 22t89 60t60 89t22 109
t-22 109t-60 89t-89 60t-109 22t-109 -22t-89 -60t-60 -89t-22 -109zM713 520v-105l-140 -295h-140l135 280h-145v120h290z" />
    <glyph glyph-name="uni2467" unicode="&#x2467;" horiz-adv-x="1000" 
d="M123 320q0 92 34.5 172t94 139.5t139.5 94t172 34.5t172 -34.5t139.5 -94t94 -139.5t34.5 -172t-34.5 -172t-94 -139.5t-139.5 -94t-172 -34.5t-172 34.5t-139.5 94t-94 139.5t-34.5 172zM283 320q0 -58 22 -109t60 -89t89 -60t109 -22t109 22t89 60t60 89t22 109
t-22 109t-60 89t-89 60t-109 22t-109 -22t-89 -60t-60 -89t-22 -109zM563 215q11 0 20.5 7.5t9.5 22.5t-9.5 22.5t-20.5 7.5t-20.5 -7.5t-9.5 -22.5t9.5 -22.5t20.5 -7.5zM563 380q25 0 25 25t-25 25t-25 -25t25 -25zM563 110q-41 0 -73 10.5t-53.5 28.5t-32.5 41.5
t-11 49.5t10 44.5t22 29.5q14 13 33 21q-14 8 -25 19q-10 10 -17.5 25t-7.5 36q0 22 10 43t30 37t48.5 25.5t66.5 9.5q37 0 66 -9.5t49 -25.5t30 -37t10 -43q0 -21 -8 -36t-17 -25q-11 -11 -25 -19q18 -8 32 -21q12 -11 22.5 -29.5t10.5 -44.5t-11 -49.5t-32.5 -41.5
t-53.5 -28.5t-73 -10.5z" />
    <glyph glyph-name="uni2468" unicode="&#x2468;" horiz-adv-x="1000" 
d="M1003 320q0 -92 -34.5 -172t-94 -139.5t-139.5 -94t-172 -34.5t-172 34.5t-139.5 94t-94 139.5t-34.5 172t34.5 172t94 139.5t139.5 94t172 34.5t172 -34.5t139.5 -94t94 -139.5t34.5 -172zM843 320q0 58 -22 109t-60 89t-89 60t-109 22t-109 -22t-89 -60t-60 -89
t-22 -109t22 -109t60 -89t89 -60t109 -22t109 22t89 60t60 89t22 109zM563 530q37 0 67.5 -11.5t52.5 -31.5t33.5 -47.5t11.5 -59.5q0 -29 -9.5 -55t-20.5 -46q-13 -24 -30 -44l-80 -115h-140l80 115q-28 4 -52 15.5t-41 30.5t-27 44t-10 55q0 32 11.5 59.5t33.5 47.5
t52 31.5t68 11.5zM593 380q0 15 -9.5 22.5t-20.5 7.5t-20.5 -7.5t-9.5 -22.5t9.5 -22.5t20.5 -7.5t20.5 7.5t9.5 22.5z" />
    <glyph glyph-name="uni24EA" unicode="&#x24ea;" horiz-adv-x="1000" 
d="M1003 320q0 -92 -34.5 -172t-94 -139.5t-139.5 -94t-172 -34.5t-172 34.5t-139.5 94t-94 139.5t-34.5 172t34.5 172t94 139.5t139.5 94t172 34.5t172 -34.5t139.5 -94t94 -139.5t34.5 -172zM843 320q0 58 -22 109t-60 89t-89 60t-109 22t-109 -22t-89 -60t-60 -89
t-22 -109t22 -109t60 -89t89 -60t109 -22t109 22t89 60t60 89t22 109zM618 320q0 49 -16 69.5t-39 20.5t-39 -20.5t-16 -69.5t16 -69.5t39 -20.5t39 20.5t16 69.5zM748 320q0 -49 -14 -88t-39 -66t-59 -41.5t-73 -14.5t-73 14.5t-59 41.5t-39 66t-14 88t14 88t39 66t59 41.5
t73 14.5t73 -14.5t59 -41.5t39 -66t14 -88z" />
    <glyph glyph-name="uni24FF" unicode="&#x24ff;" horiz-adv-x="1000" 
d="M1003 320q0 -92 -34.5 -172t-94 -139.5t-139.5 -94t-172 -34.5t-172 34.5t-139.5 94t-94 139.5t-34.5 172t34.5 172t94 139.5t139.5 94t172 34.5t172 -34.5t139.5 -94t94 -139.5t34.5 -172zM618 320q0 -49 -16 -69.5t-39 -20.5t-39 20.5t-16 69.5t16 69.5t39 20.5
t39 -20.5t16 -69.5zM748 320q0 49 -14 88t-39 66t-59 41.5t-73 14.5t-73 -14.5t-59 -41.5t-39 -66t-14 -88t14 -88t39 -66t59 -41.5t73 -14.5t73 14.5t59 41.5t39 66t14 88z" />
    <glyph glyph-name="uni2776" unicode="&#x2776;" horiz-adv-x="1000" 
d="M123 320q0 92 34.5 172t94 139.5t139.5 94t172 34.5t172 -34.5t139.5 -94t94 -139.5t34.5 -172t-34.5 -172t-94 -139.5t-139.5 -94t-172 -34.5t-172 34.5t-139.5 94t-94 139.5t-34.5 172zM533 520l-120 -80l60 -95l40 25v-250h130v400h-110z" />
    <glyph glyph-name="uni2777" unicode="&#x2777;" horiz-adv-x="1000" 
d="M123 320q0 92 34.5 172t94 139.5t139.5 94t172 34.5t172 -34.5t139.5 -94t94 -139.5t34.5 -172t-34.5 -172t-94 -139.5t-139.5 -94t-172 -34.5t-172 34.5t-139.5 94t-94 139.5t-34.5 172zM613 240l50 50q15 15 27 33q11 16 19.5 36.5t8.5 45.5q0 53 -40 89t-115 36
q-34 0 -61.5 -10.5t-48 -29.5t-32 -44.5t-13.5 -55.5l125 -15q0 35 25 35q8 0 14 -5t6 -20q0 -8 -2.5 -14t-5.5 -11q-4 -5 -7 -10l-145 -150v-80h300v120h-105z" />
    <glyph glyph-name="uni2778" unicode="&#x2778;" horiz-adv-x="1000" 
d="M123 320q0 92 34.5 172t94 139.5t139.5 94t172 34.5t172 -34.5t139.5 -94t94 -139.5t34.5 -172t-34.5 -172t-94 -139.5t-139.5 -94t-172 -34.5t-172 34.5t-139.5 94t-94 139.5t-34.5 172zM533 385q1 8 5 15q3 5 7.5 10t12.5 5t14 -4.5t6 -15.5t-6 -15.5t-14 -4.5h-40
v-100h40q30 0 30 -25t-30 -25q-11 0 -17 5t-9 12q-4 8 -4 18l-130 -15q2 -28 14 -52.5t33.5 -43t52.5 -29t70 -10.5q37 0 67 10.5t50.5 27.5t31.5 40t11 47q0 26 -10.5 44.5t-22.5 29.5q-14 13 -32 21q15 8 27 20q11 11 19.5 26.5t8.5 38.5q0 22 -10 43t-30 37t-49 25.5
t-66 9.5q-36 0 -64.5 -10.5t-49 -28.5t-32.5 -41.5t-14 -49.5z" />
    <glyph glyph-name="uni2779" unicode="&#x2779;" horiz-adv-x="1000" 
d="M123 320q0 92 34.5 172t94 139.5t139.5 94t172 34.5t172 -34.5t139.5 -94t94 -139.5t34.5 -172t-34.5 -172t-94 -139.5t-139.5 -94t-172 -34.5t-172 34.5t-139.5 94t-94 139.5t-34.5 172zM723 300h-40v220h-146l-149 -230v-110h165v-60h130v60h40v120zM563 375v-75h-50z
" />
    <glyph glyph-name="uni277A" unicode="&#x277a;" horiz-adv-x="1000" 
d="M123 320q0 92 34.5 172t94 139.5t139.5 94t172 34.5t172 -34.5t139.5 -94t94 -139.5t34.5 -172t-34.5 -172t-94 -139.5t-139.5 -94t-172 -34.5t-172 34.5t-139.5 94t-94 139.5t-34.5 172zM598 390q-14 0 -24 -1.5t-17 -3.5q-8 -3 -14 -5l5 35h150v105h-255l-30 -245h120
q2 6 6 10q3 4 8.5 7t15.5 3q11 0 20.5 -8t9.5 -27t-9.5 -27t-20.5 -8q-10 0 -15.5 3.5t-8.5 8.5q-4 5 -6 13l-130 -10q2 -26 14 -49.5t33 -41.5t50.5 -28.5t67.5 -10.5q75 0 117.5 40.5t42.5 104.5q0 30 -10 55t-27 42.5t-41 27.5t-52 10z" />
    <glyph glyph-name="uni277B" unicode="&#x277b;" horiz-adv-x="1000" 
d="M123 320q0 92 34.5 172t94 139.5t139.5 94t172 34.5t172 -34.5t139.5 -94t94 -139.5t34.5 -172t-34.5 -172t-94 -139.5t-139.5 -94t-172 -34.5t-172 34.5t-139.5 94t-94 139.5t-34.5 172zM563 110q37 0 67.5 11.5t52.5 31.5t33.5 47.5t11.5 59.5q0 60 -37 98.5t-93 46.5
l80 115h-140l-80 -115q-17 -20 -30 -44q-11 -20 -20.5 -46.5t-9.5 -54.5q0 -32 11.5 -59.5t33.5 -47.5t52 -31.5t68 -11.5zM533 260q0 15 9.5 22.5t20.5 7.5t20.5 -7.5t9.5 -22.5t-9.5 -22.5t-20.5 -7.5t-20.5 7.5t-9.5 22.5z" />
    <glyph glyph-name="uni277C" unicode="&#x277c;" horiz-adv-x="1000" 
d="M123 320q0 92 34.5 172t94 139.5t139.5 94t172 34.5t172 -34.5t139.5 -94t94 -139.5t34.5 -172t-34.5 -172t-94 -139.5t-139.5 -94t-172 -34.5t-172 34.5t-139.5 94t-94 139.5t-34.5 172zM423 520v-120h145l-135 -280h140l140 295v105h-290z" />
    <glyph glyph-name="uni277D" unicode="&#x277d;" horiz-adv-x="1000" 
d="M123 320q0 92 34.5 172t94 139.5t139.5 94t172 34.5t172 -34.5t139.5 -94t94 -139.5t34.5 -172t-34.5 -172t-94 -139.5t-139.5 -94t-172 -34.5t-172 34.5t-139.5 94t-94 139.5t-34.5 172zM563 215q-11 0 -20.5 7.5t-9.5 22.5t9.5 22.5t20.5 7.5t20.5 -7.5t9.5 -22.5
t-9.5 -22.5t-20.5 -7.5zM563 380q-25 0 -25 25t25 25t25 -25t-25 -25zM563 110q41 0 73 10.5t53.5 28.5t32.5 41.5t11 49.5t-10.5 44.5t-22.5 29.5q-14 13 -32 21q14 8 25 19q9 10 17 25t8 36q0 22 -10 43t-30 37t-49 25.5t-66 9.5q-38 0 -66.5 -9.5t-48.5 -25.5t-30 -37
t-10 -43q0 -21 7.5 -36t17.5 -25q11 -11 25 -19q-19 -8 -33 -21q-12 -11 -22 -29.5t-10 -44.5t11 -49.5t32.5 -41.5t53.5 -28.5t73 -10.5z" />
    <glyph glyph-name="uni277E" unicode="&#x277e;" horiz-adv-x="1000" 
d="M1003 320q0 -92 -34.5 -172t-94 -139.5t-139.5 -94t-172 -34.5t-172 34.5t-139.5 94t-94 139.5t-34.5 172t34.5 172t94 139.5t139.5 94t172 34.5t172 -34.5t139.5 -94t94 -139.5t34.5 -172zM563 530q-38 0 -68 -11.5t-52 -31.5t-33.5 -47.5t-11.5 -59.5q0 -30 10 -55
t27 -44t41 -30.5t52 -15.5l-80 -115h140l80 115q17 20 30 44q11 20 20.5 46t9.5 55q0 32 -11.5 59.5t-33.5 47.5t-52.5 31.5t-67.5 11.5zM593 380q0 -15 -9.5 -22.5t-20.5 -7.5t-20.5 7.5t-9.5 22.5t9.5 22.5t20.5 7.5t20.5 -7.5t9.5 -22.5z" />
    <glyph glyph-name="commaaccent" unicode="&#xf6c3;" horiz-adv-x="220" 
d="M85 -45q32 0 54 -23t22 -59q0 -30 -10.5 -58.5t-28.5 -51.5t-43 -41t-54 -27l-19 43q13 6 24 14q10 7 20 17.5t17 25.5q-30 0 -48.5 22.5t-18.5 52.5q0 37 25 61t60 24z" />
    <glyph glyph-name="cyrBreve" unicode="&#xf6d1;" horiz-adv-x="380" 
d="M318 680q-75 0 -113 40.5t-40 104.5h120q1 -11 5 -20q4 -8 12 -14t23 -6q14 0 21 6t12 14q4 9 7 20h120q-1 -30 -14.5 -56.5t-36 -46t-52.5 -31t-64 -11.5z" />
    <glyph glyph-name="cyrbreve" unicode="&#xf6d4;" horiz-adv-x="350" 
d="M276 600q12 0 19.5 5t11.5 12q4 8 6 18h110q-2 -28 -15 -52t-33.5 -41t-46.5 -27t-54 -10q-68 0 -104.5 36.5t-36.5 93.5h110q1 -10 5 -18q3 -7 10 -12t18 -5z" />
    <glyph glyph-name="zero.osf" unicode="&#xf730;" horiz-adv-x="590" 
d="M334 180q24 0 40.5 14.5t16.5 39.5q0 20 -14.5 33t-40.5 13q-25 0 -40.5 -15t-15.5 -40q0 -20 14 -32.5t40 -12.5zM593 253q0 -56 -21.5 -104t-59 -83.5t-88 -56t-108.5 -20.5q-56 0 -100.5 17t-75.5 46.5t-47.5 69.5t-16.5 85q0 55 21 103.5t58 83.5t86 55.5t106 20.5
q52 0 97 -15.5t78 -44t52 -68.5t19 -89z" />
    <glyph glyph-name="one.osf" unicode="&#xf731;" horiz-adv-x="390" 
d="M421 460l-81 -460h-200l43 245l-64 -39l-70 134l202 120h170z" />
    <glyph glyph-name="two.osf" unicode="&#xf732;" horiz-adv-x="490" 
d="M514 314q0 -48 -26 -88t-65 -66h70l-28 -160h-425l15 90l205 121q26 16 39.5 29.5t13.5 33.5q0 12 -8 19t-21 7q-15 0 -26.5 -12.5t-13.5 -32.5l-171 20q4 41 23.5 76.5t50.5 62t72 41.5t90 15q46 0 84 -12.5t65 -33.5t41.5 -49.5t14.5 -60.5z" />
    <glyph glyph-name="three.osf" unicode="&#xf733;" horiz-adv-x="545" 
d="M532 67q0 -56 -20.5 -101.5t-56.5 -78t-86 -50t-108 -17.5q-48 0 -92 13t-77 38.5t-52.5 62.5t-19.5 86l207 20q2 -11 7 -20q5 -8 13 -14t22 -6q21 0 33.5 13t12.5 34q0 20 -13 31.5t-30 11.5q-10 0 -17.5 -1.5t-12.5 -3.5l-12 -4l-68 94l101 105h-157l32 180h430
l-20 -110l-121 -125q29 -13 52 -34q20 -19 36.5 -49t16.5 -75z" />
    <glyph glyph-name="four.osf" unicode="&#xf734;" horiz-adv-x="550" 
d="M540 0h-60l-30 -170h-200l30 170h-260l28 160l283 300h230l-50 -280h60zM250 180h71l16 91z" />
    <glyph glyph-name="five.osf" unicode="&#xf735;" horiz-adv-x="545" 
d="M30 0zM285 244q10 4 21 8q10 3 23.5 5.5t30.5 2.5q43 0 77 -15t57 -41t35.5 -61.5t12.5 -75.5q0 -54 -21 -99.5t-57.5 -78t-86 -51t-105.5 -18.5q-43 0 -86 11t-77.5 35t-56.5 62t-22 92l200 19q2 -11 7 -20q5 -8 13 -13.5t22 -5.5q26 0 40.5 17t14.5 49q0 19 -11 31.5
t-29 12.5q-13 0 -22.5 -5t-15.5 -10q-7 -7 -12 -15h-181l112 380h400l-29 -160h-235z" />
    <glyph glyph-name="six.osf" unicode="&#xf736;" 
d="M55 0zM315 270q-21 0 -37 -15t-16 -41q0 -19 12 -31.5t34 -12.5q23 0 39 15.5t16 41.5q0 20 -13 31.5t-35 11.5zM404 439q34 -8 64 -24t52.5 -41.5t35.5 -60t13 -78.5q0 -53 -20 -98t-55 -77.5t-83 -51t-103 -18.5q-57 0 -104 15.5t-80 43.5t-51 66.5t-18 84.5
q0 40 13 75t35.5 68t52 66.5t62.5 70.5l132 150h223z" />
    <glyph glyph-name="seven.osf" unicode="&#xf737;" horiz-adv-x="490" 
d="M11 0zM555 460l-30 -165l-296 -465h-218l282 440h-222l34 190h450z" />
    <glyph glyph-name="eight.osf" unicode="&#xf738;" horiz-adv-x="560" 
d="M54 0zM365 207q0 17 -10.5 30t-31.5 13q-20 0 -35 -15t-15 -41q0 -20 11.5 -32t28.5 -12q20 0 36 15.5t16 41.5zM183 345q-16 13 -28 31q-11 15 -19 36.5t-8 48.5q0 35 17.5 67.5t49 57t75 39.5t94.5 15q64 0 109.5 -14.5t74 -38.5t41.5 -54.5t13 -63.5
q0 -34 -15.5 -58.5t-34.5 -41.5q-22 -19 -49 -34q21 -13 38 -32q14 -17 26 -43t12 -61q0 -41 -18.5 -79t-53 -67t-85 -46t-114.5 -17q-66 0 -114 14.5t-79 40.5t-46 60.5t-15 75.5q0 45 20 75.5t44 50.5q28 23 65 38zM368 485q-16 0 -29 -11.5t-13 -34.5q0 -16 9 -25t23 -9
t27 12t13 34q0 15 -8.5 24.5t-21.5 9.5z" />
    <glyph glyph-name="nine.osf" unicode="&#xf739;" 
d="M52 0zM310 190q21 0 37 15t16 41q0 19 -12 31.5t-34 12.5q-23 0 -39 -15.5t-16 -41.5q0 -20 13 -31.5t35 -11.5zM221 21q-34 7 -64 23.5t-52.5 42t-35.5 60t-13 78.5q0 53 20 98t55 77.5t82.5 51t103.5 18.5q57 0 104 -15.5t80 -43.5t51 -66.5t18 -84.5q0 -41 -13 -75.5
t-35.5 -67.5t-52 -66.5t-62.5 -70.5l-132 -150h-223z" />
    <glyph glyph-name="s_t" unicode="&#xfb06;" horiz-adv-x="850" 
d="M751 230q-6 -34 5.5 -52t37.5 -18q8 0 14.5 0.5t11.5 1.5t10 3l-29 -165q-9 -3 -20 -5q-22 -5 -52 -5q-81 0 -124.5 42t-43.5 118q0 13 1.5 26.5t3.5 27.5l17 96h-45l27 150h25q21 0 34 11.5t13 29.5q0 25 -21.5 39.5t-53.5 14.5q-38 0 -61.5 -23.5t-23.5 -61.5
q0 -23 4 -39t8.5 -30.5t8.5 -29.5t4 -36l-174 -20q0 14 -7.5 22t-22.5 8q-10 0 -16.5 -5.5t-6.5 -11.5q0 -9 15 -15t37.5 -12t48.5 -15.5t48.5 -24.5t37.5 -39t15 -60q0 -31 -15.5 -60.5t-43.5 -52t-68.5 -36t-89.5 -13.5q-62 0 -104 13t-67.5 34t-37 46.5t-13.5 51.5
l174 20q0 -11 9 -20.5t24 -9.5q16 0 26 5t10 16q0 9 -15 15t-37.5 13t-49 16t-49 24.5t-37.5 39t-15 58.5q0 29 14.5 57.5t41 51t63.5 36t83 13.5q12 0 22 -1t18 -3l15 -3q0 48 16.5 89t48 72t77.5 48.5t105 17.5q42 0 81 -11.5t69.5 -34t48.5 -54.5t18 -74q0 -16 -3 -32
l-4 -24h90l-29 -160h-90z" />
    <glyph glyph-name="lslash.alt" horiz-adv-x="350" 
d="M66 330l67 41l46 259h180l-26 -143l79 48l-32 -180l-78 -45l-14 -79q-6 -34 5.5 -52.5t39.5 -18.5q8 0 13.5 0.5t10.5 1.5t10 3l-29 -162q-10 -4 -22 -7q-11 -2 -26 -4t-34 -2q-75 0 -116.5 44.5t-41.5 116.5q0 21 3 42l-67 -43z" />
    <glyph glyph-name="Germandbls" horiz-adv-x="650" 
d="M555 366q29 -13 53 -33q20 -18 37 -46.5t17 -72.5q0 -47 -18.5 -86.5t-51.5 -68t-79.5 -44t-102.5 -15.5h-100l31 180h65q25 0 36 11.5t11 28.5q0 12 -9.5 21t-26.5 9h-63l19 110l89 80h-102q-37 0 -45 -40l-70 -400h-200l70 400q21 118 86 174t185 56h305l-30 -170z" />
    <glyph glyph-name="a.alt" horiz-adv-x="565" 
d="M470 460h135l-81 -460h-135l-16 40q-15 -14 -34 -25q-17 -10 -40.5 -17.5t-52.5 -7.5q-38 0 -72 15t-59.5 42.5t-40 66.5t-14.5 86q0 60 20.5 109.5t54 85t75.5 55.5t85 20q35 0 61.5 -9.5t43.5 -20.5q20 -13 34 -30zM307 155q32 0 55 24t23 61q0 29 -18 47t-46 18
q-31 0 -54.5 -23.5t-23.5 -62.5q0 -28 17.5 -46t46.5 -18z" />
    <glyph glyph-name="afii10085.alt" horiz-adv-x="520" 
d="M74 460h187l32 -240l118 240h193l-350 -620h-198l111 193z" />
    <glyph glyph-name="l.alt" horiz-adv-x="320" 
d="M257 231q-6 -34 5.5 -52.5t39.5 -18.5q8 0 13.5 0.5t10.5 1.5t10 3l-29 -162q-10 -4 -22 -7q-11 -2 -26 -4t-34 -2q-75 0 -116.5 44t-41.5 116q0 11 1 22.5t3 23.5l77 434h180z" />
    <glyph glyph-name="y.alt" horiz-adv-x="555" 
d="M346 63q-13 -10 -29 -17q-14 -6 -33.5 -11t-43.5 -5q-39 0 -69 13t-51 35.5t-31.5 53t-10.5 65.5q0 23 4 42l39 221h180l-36 -205q-5 -26 7 -48t42 -22q29 0 44.5 17.5t20.5 47.5l37 210h180l-74 -420q-19 -106 -82 -158t-180 -52q-56 0 -96 14.5t-65.5 37.5t-37.5 51.5
t-13 56.5l177 21q2 -10 8 -18q5 -7 15 -12.5t27 -5.5q27 0 43 15.5t25 59.5z" />
    <glyph glyph-name="I.alt" horiz-adv-x="460" 
d="M209 450h-90l32 180h380l-32 -180h-90l-48 -270h90l-31 -180h-380l31 180h90z" />
    <glyph glyph-name="c_t" horiz-adv-x="900" 
d="M801 230q-6 -34 5.5 -52t37.5 -18q8 0 14.5 0.5t11.5 1.5t10 3l-29 -165q-9 -3 -20 -5q-22 -5 -52 -5q-81 0 -124.5 42t-43.5 118q0 13 1.5 26.5t3.5 27.5l17 96h-45l27 150h25q21 0 34 11.5t13 29.5q0 25 -21.5 39.5t-53.5 14.5q-38 0 -61.5 -23.5t-23.5 -61.5
q0 -34 6 -57.5t13 -43t13 -38t6 -41.5l-182 -20q-3 12 -11 22q-7 8 -19 15.5t-33 7.5q-31 0 -53 -22.5t-22 -58.5q0 -29 17.5 -49t47.5 -20q18 0 31 7t22 15q10 10 17 23l167 -20q-18 -54 -51 -95q-14 -18 -33 -35t-43.5 -30.5t-54.5 -21.5t-66 -8q-53 0 -96.5 17.5
t-75 47.5t-48.5 70.5t-17 87.5q0 52 23 99t60.5 82t86.5 55.5t102 20.5q11 0 20 -1t16 -2q8 -2 15 -3q0 49 16 90.5t47.5 71.5t77.5 47t106 17q42 0 81 -11.5t69.5 -34t48.5 -54.5t18 -74q0 -16 -3 -32l-4 -24h90l-29 -160h-90z" />
    <glyph glyph-name="foundryicon" horiz-adv-x="1538" 
d="M278 429h-72v-199h-35v199h-71v31h178v-31zM519 396q32 0 54.5 -24.5t22.5 -59.5q0 -36 -22.5 -60.5t-54.5 -24.5q-29 0 -47 21v-79h-34v224h24l9 -19q8 10 20.5 16t27.5 6zM516 258q19 0 33 15.5t14 38.5q0 21 -14 36.5t-33 15.5q-20 0 -33.5 -15.5t-13.5 -36.5
q0 -23 13.5 -38.5t33.5 -15.5zM377 393h37l-77 -190q-16 -34 -49 -34q-7 0 -10 1v28q23 0 31 20l6 16l-63 159h37l44 -116zM701 396q32 0 54 -24t22 -59q0 -2 -0.5 -4.5t-0.5 -4.5v-6h-119q2 -17 14.5 -29t29.5 -12q12 0 22 4t15 13h35q-9 -23 -29 -35t-43 -12
q-32 0 -55 24.5t-23 60.5q0 17 6 32.5t16.5 27t25 18t30.5 6.5zM745 325q-1 17 -14.5 28.5t-29.5 11.5t-29 -10.5t-15 -29.5h88zM939 429h-72v-199h-35v199h-71v31h178v-31zM1180 396q32 0 54.5 -24.5t22.5 -59.5q0 -36 -22.5 -60.5t-54.5 -24.5q-29 0 -47 21v-79h-34v224
h24l9 -19q8 10 20.5 16t27.5 6zM1177 258q19 0 33 15.5t14 38.5q0 21 -14 36.5t-33 15.5q-20 0 -33.5 -15.5t-13.5 -36.5q0 -23 13.5 -38.5t33.5 -15.5zM1038 393h37l-77 -190q-16 -34 -49 -34q-7 0 -10 1v28q23 0 31 20l6 16l-63 159h37l44 -116zM1362 396q32 0 54 -24
t22 -59q0 -2 -0.5 -4.5t-0.5 -4.5v-6h-119q2 -17 14.5 -29t29.5 -12q12 0 22 4t15 13h35q-9 -23 -29 -35t-43 -12q-32 0 -55 24.5t-23 60.5q0 17 6 32.5t16.5 27t25 18t30.5 6.5zM1406 325q-1 17 -14.5 28.5t-29.5 11.5t-29 -10.5t-15 -29.5h88z" />
    <glyph glyph-name="r_f" horiz-adv-x="648" 
d="M347 290q-33 0 -58 -19.5t-32 -58.5l-37 -212h-180l81 460h130l15 -41q11 8 28 15q14 6 36 11t53 5h41l1 5q10 53 28.5 89t45 58.5t61.5 32.5t78 10q17 0 33 -3t28 -6q14 -4 27 -9l-29 -159q-5 1 -11 3q-5 2 -12.5 3t-16.5 1q-15 0 -24.5 -4t-14.5 -9q-6 -5 -8 -12h84
l-28 -160h-90l-51 -290h-180l51 290h-49v0z" />
    <glyph glyph-name="r_t" horiz-adv-x="665" 
d="M347 290q-33 0 -58 -19.5t-32 -58.5l-37 -212h-180l81 460h130l15 -41q11 8 28 15q14 6 36 11t53 5h11q27 0 40.5 10.5t18.5 39.5l12 70h160l-21 -120h90l-28 -160h-90l-11 -60q-5 -30 6 -50t37 -20q8 0 14.5 0.5t11.5 1.5t10 3l-29 -163q-9 -3 -20 -6q-10 -2 -23 -4
t-29 -2q-75 0 -121.5 43.5t-46.5 121.5q0 21 5 49l16 86h-49v0z" />
    <glyph glyph-name="afii10065.alt" horiz-adv-x="565" 
d="M60 0zM470 460h135l-81 -460h-135l-16 40q-15 -14 -34 -25q-17 -10 -40.5 -17.5t-52.5 -7.5q-38 0 -72 15t-59.5 42.5t-40 66.5t-14.5 86q0 60 20.5 109.5t54 85t75.5 55.5t85 20q35 0 61.5 -9.5t43.5 -20.5q20 -13 34 -30zM307 155q32 0 55 24t23 61q0 29 -18 47t-46 18
q-31 0 -54.5 -23.5t-23.5 -62.5q0 -28 17.5 -46t46.5 -18z" />
    <glyph glyph-name="afii10110.alt" horiz-adv-x="520" 
d="M56 0zM350 505q-75 0 -112.5 40.5t-39.5 104.5h120q0 -11 4 -20q4 -8 12 -14t23 -6q14 0 21.5 6t12.5 14q5 9 7 20h120q-1 -30 -15 -56.5t-36.5 -46t-52.5 -31t-64 -11.5zM74 460h187l32 -240l118 240h193l-350 -620h-198l111 193z" />
    <glyph glyph-name="agrave.alt" horiz-adv-x="565" 
d="M60 0zM450 515h-151l-102 140h186zM470 460h135l-81 -460h-135l-16 40q-15 -14 -34 -25q-17 -10 -40.5 -17.5t-52.5 -7.5q-38 0 -72 15t-59.5 42.5t-40 66.5t-14.5 86q0 60 20.5 109.5t54 85t75.5 55.5t85 20q35 0 61.5 -9.5t43.5 -20.5q20 -13 34 -30zM307 155
q32 0 55 24t23 61q0 29 -18 47t-46 18q-31 0 -54.5 -23.5t-23.5 -62.5q0 -28 17.5 -46t46.5 -18z" />
    <glyph glyph-name="aacute.alt" horiz-adv-x="565" 
d="M60 0zM372 655h193l-124 -140h-158zM470 460h135l-81 -460h-135l-16 40q-15 -14 -34 -25q-17 -10 -40.5 -17.5t-52.5 -7.5q-38 0 -72 15t-59.5 42.5t-40 66.5t-14.5 86q0 60 20.5 109.5t54 85t75.5 55.5t85 20q35 0 61.5 -9.5t43.5 -20.5q20 -13 34 -30zM307 155
q32 0 55 24t23 61q0 29 -18 47t-46 18q-31 0 -54.5 -23.5t-23.5 -62.5q0 -28 17.5 -46t46.5 -18z" />
    <glyph glyph-name="abreve.alt" horiz-adv-x="565" 
d="M60 0zM370 505q-75 0 -112.5 40.5t-39.5 104.5h120q0 -11 4 -20q4 -8 12 -14t23 -6q14 0 21.5 6t12.5 14q5 9 7 20h120q-1 -30 -15 -56.5t-36.5 -46t-52.5 -31t-64 -11.5zM470 460h135l-81 -460h-135l-16 40q-15 -14 -34 -25q-17 -10 -40.5 -17.5t-52.5 -7.5
q-38 0 -72 15t-59.5 42.5t-40 66.5t-14.5 86q0 60 20.5 109.5t54 85t75.5 55.5t85 20q35 0 61.5 -9.5t43.5 -20.5q20 -13 34 -30zM307 155q32 0 55 24t23 61q0 29 -18 47t-46 18q-31 0 -54.5 -23.5t-23.5 -62.5q0 -28 17.5 -46t46.5 -18z" />
    <glyph glyph-name="acircumflex.alt" horiz-adv-x="565" 
d="M60 0zM379 565l-49 -55h-153l130 145h170l80 -145h-147zM470 460h135l-81 -460h-135l-16 40q-15 -14 -34 -25q-17 -10 -40.5 -17.5t-52.5 -7.5q-38 0 -72 15t-59.5 42.5t-40 66.5t-14.5 86q0 60 20.5 109.5t54 85t75.5 55.5t85 20q35 0 61.5 -9.5t43.5 -20.5
q20 -13 34 -30zM307 155q32 0 55 24t23 61q0 29 -18 47t-46 18q-31 0 -54.5 -23.5t-23.5 -62.5q0 -28 17.5 -46t46.5 -18z" />
    <glyph glyph-name="adieresis.alt" horiz-adv-x="565" 
d="M60 0zM360 591q0 -18 -7.5 -34.5t-20.5 -29t-30.5 -20t-36.5 -7.5q-34 0 -55.5 23.5t-21.5 55.5q0 18 8 34.5t20.5 29t29.5 20t35 7.5q34 0 56.5 -23.5t22.5 -55.5zM560 591q0 -18 -7.5 -34.5t-20.5 -29t-30.5 -20t-36.5 -7.5q-34 0 -55.5 23.5t-21.5 55.5q0 18 8 34.5
t20.5 29t29.5 20t35 7.5q34 0 56.5 -23.5t22.5 -55.5zM470 460h135l-81 -460h-135l-16 40q-15 -14 -34 -25q-17 -10 -40.5 -17.5t-52.5 -7.5q-38 0 -72 15t-59.5 42.5t-40 66.5t-14.5 86q0 60 20.5 109.5t54 85t75.5 55.5t85 20q35 0 61.5 -9.5t43.5 -20.5q20 -13 34 -30z
M307 155q32 0 55 24t23 61q0 29 -18 47t-46 18q-31 0 -54.5 -23.5t-23.5 -62.5q0 -28 17.5 -46t46.5 -18z" />
    <glyph glyph-name="amacron.alt" horiz-adv-x="565" 
d="M60 0zM519 520h-290l24 135h290zM470 460h135l-81 -460h-135l-16 40q-15 -14 -34 -25q-17 -10 -40.5 -17.5t-52.5 -7.5q-38 0 -72 15t-59.5 42.5t-40 66.5t-14.5 86q0 60 20.5 109.5t54 85t75.5 55.5t85 20q35 0 61.5 -9.5t43.5 -20.5q20 -13 34 -30zM307 155q32 0 55 24
t23 61q0 29 -18 47t-46 18q-31 0 -54.5 -23.5t-23.5 -62.5q0 -28 17.5 -46t46.5 -18z" />
    <glyph glyph-name="aogonek.alt" horiz-adv-x="565" 
d="M373 40q-15 -14 -34 -25q-17 -10 -40.5 -17.5t-52.5 -7.5q-38 0 -72 15t-59.5 42.5t-40 66.5t-14.5 86q0 60 20.5 109.5t54 85t75.5 55.5t85 20q35 0 61.5 -9.5t43.5 -20.5q20 -13 34 -30l36 50h135l-81 -460h-45q1 0 -6 -5t-15.5 -15t-15.5 -23.5t-7 -29.5
q0 -17 11.5 -29.5t32.5 -12.5q14 0 25 3q5 2 11 4l-15 -81q-9 -4 -20 -8q-10 -3 -24.5 -5.5t-33.5 -2.5q-51 0 -78 25.5t-27 59.5q0 29 11.5 51.5t25 37.5t25 23t10.5 8zM307 155q32 0 55 24t23 61q0 29 -18 47t-46 18q-31 0 -54.5 -23.5t-23.5 -62.5q0 -28 17.5 -46
t46.5 -18z" />
    <glyph glyph-name="aring.alt" horiz-adv-x="565" 
d="M60 0zM493 610q0 -24 -9.5 -44.5t-25.5 -36.5t-38.5 -25t-47.5 -9q-53 0 -82.5 27t-29.5 69q0 50 34.5 82t86.5 32q51 0 81.5 -27t30.5 -68zM373 565q17 0 28 10t11 29q0 13 -9 22t-25 9q-15 0 -25.5 -11t-10.5 -28q0 -11 8 -21t23 -10zM470 460h135l-81 -460h-135
l-16 40q-15 -14 -34 -25q-17 -10 -40.5 -17.5t-52.5 -7.5q-38 0 -72 15t-59.5 42.5t-40 66.5t-14.5 86q0 60 20.5 109.5t54 85t75.5 55.5t85 20q35 0 61.5 -9.5t43.5 -20.5q20 -13 34 -30zM307 155q32 0 55 24t23 61q0 29 -18 47t-46 18q-31 0 -54.5 -23.5t-23.5 -62.5
q0 -28 17.5 -46t46.5 -18z" />
    <glyph glyph-name="atilde.alt" horiz-adv-x="565" 
d="M60 0zM209 520q5 75 35.5 107.5t68.5 32.5q19 0 33.5 -4.5t27.5 -10.5t24 -10.5t22 -4.5q23 0 23 25l108 -10q-5 -75 -35.5 -107.5t-68.5 -32.5q-19 0 -33.5 4.5t-27.5 10.5t-24 10.5t-22 4.5q-23 0 -23 -25zM470 460h135l-81 -460h-135l-16 40q-15 -14 -34 -25
q-17 -10 -40.5 -17.5t-52.5 -7.5q-38 0 -72 15t-59.5 42.5t-40 66.5t-14.5 86q0 60 20.5 109.5t54 85t75.5 55.5t85 20q35 0 61.5 -9.5t43.5 -20.5q20 -13 34 -30zM307 155q32 0 55 24t23 61q0 29 -18 47t-46 18q-31 0 -54.5 -23.5t-23.5 -62.5q0 -28 17.5 -46t46.5 -18z
" />
    <glyph glyph-name="lacute.alt" horiz-adv-x="320" 
d="M67 0zM252 835h193l-124 -140h-158zM257 231q-6 -34 5.5 -52.5t39.5 -18.5q8 0 13.5 0.5t10.5 1.5t10 3l-29 -162q-10 -4 -22 -7q-11 -2 -26 -4t-34 -2q-75 0 -116.5 44t-41.5 116q0 11 1 22.5t3 23.5l77 434h180z" />
    <glyph glyph-name="lcaron.alt" horiz-adv-x="385" 
d="M396 630h183l-95 -140h-148zM257 231q-6 -34 5.5 -52.5t39.5 -18.5q8 0 13.5 0.5t10.5 1.5t10 3l-29 -162q-10 -4 -22 -7q-11 -2 -26 -4t-34 -2q-75 0 -116.5 44t-41.5 116q0 11 1 22.5t3 23.5l77 434h180z" />
    <glyph glyph-name="lcommaaccent.alt" horiz-adv-x="320" 
d="M67 0zM257 231q-6 -34 5.5 -52.5t39.5 -18.5q8 0 13.5 0.5t10.5 1.5t10 3l-29 -162q-10 -4 -22 -7q-11 -2 -26 -4t-34 -2q-75 0 -116.5 44t-41.5 116q0 11 1 22.5t3 23.5l77 434h180zM175 -50q32 0 54 -23t22 -59q0 -30 -10.5 -58.5t-28.5 -51.5t-43 -41t-54 -27l-19 43
q13 6 24 14q10 7 20 17.5t17 25.5q-30 0 -48.5 22.5t-18.5 52.5q0 37 25 61t60 24z" />
    <glyph glyph-name="Igrave.alt" horiz-adv-x="460" 
d="M40 0zM425 695h-151l-102 140h186zM209 450h-90l32 180h380l-32 -180h-90l-48 -270h90l-31 -180h-380l31 180h90z" />
    <glyph glyph-name="Iacute.alt" horiz-adv-x="460" 
d="M40 0zM357 835h193l-124 -140h-158zM209 450h-90l32 180h380l-32 -180h-90l-48 -270h90l-31 -180h-380l31 180h90z" />
    <glyph glyph-name="Icircumflex.alt" horiz-adv-x="460" 
d="M40 0zM369 745l-49 -55h-153l130 145h170l80 -145h-147zM209 450h-90l32 180h380l-32 -180h-90l-48 -270h90l-31 -180h-380l31 180h90z" />
    <glyph glyph-name="Idieresis.alt" horiz-adv-x="460" 
d="M40 0zM345 771q0 -18 -7.5 -34.5t-20.5 -29t-30.5 -20t-36.5 -7.5q-34 0 -55.5 23.5t-21.5 55.5q0 18 8 34.5t20.5 29t29.5 20t35 7.5q34 0 56.5 -23.5t22.5 -55.5zM545 771q0 -18 -7.5 -34.5t-20.5 -29t-30.5 -20t-36.5 -7.5q-34 0 -55.5 23.5t-21.5 55.5q0 18 8 34.5
t20.5 29t29.5 20t35 7.5q34 0 56.5 -23.5t22.5 -55.5zM209 450h-90l32 180h380l-32 -180h-90l-48 -270h90l-31 -180h-380l31 180h90z" />
    <glyph glyph-name="Idotaccent.alt" horiz-adv-x="460" 
d="M40 0zM259 763q0 19 8 37t22 31t32.5 21t40.5 8q41 0 65 -24.5t24 -57.5q0 -21 -8 -39t-22 -31.5t-32.5 -21t-39.5 -7.5q-42 0 -66 24t-24 60zM209 450h-90l32 180h380l-32 -180h-90l-48 -270h90l-31 -180h-380l31 180h90z" />
    <glyph glyph-name="Imacron.alt" horiz-adv-x="460" 
d="M40 0zM494 695h-290l24 135h290zM209 450h-90l32 180h380l-32 -180h-90l-48 -270h90l-31 -180h-380l31 180h90z" />
    <glyph glyph-name="Iogonek.alt" horiz-adv-x="460" 
d="M209 450h-90l32 180h380l-32 -180h-90l-48 -270h90l-31 -180q1 0 -6 -5t-15.5 -15t-15.5 -23.5t-7 -29.5q0 -17 11.5 -29.5t32.5 -12.5q14 0 25 3q5 2 11 4l-15 -81q-9 -4 -20 -8q-10 -3 -24.5 -5.5t-33.5 -2.5q-51 0 -78 25.5t-27 59.5q0 29 11.5 51.5t25 37.5t25 23
t10.5 8h-290l31 180h90z" />
    <glyph glyph-name="yacute.alt" horiz-adv-x="555" 
d="M48 0zM372 655h193l-124 -140h-158zM346 63q-13 -10 -29 -17q-14 -6 -33.5 -11t-43.5 -5q-39 0 -69 13t-51 35.5t-31.5 53t-10.5 65.5q0 23 4 42l39 221h180l-36 -205q-5 -26 7 -48t42 -22q29 0 44.5 17.5t20.5 47.5l37 210h180l-74 -420q-19 -106 -82 -158t-180 -52
q-56 0 -96 14.5t-65.5 37.5t-37.5 51.5t-13 56.5l177 21q2 -10 8 -18q5 -7 15 -12.5t27 -5.5q27 0 43 15.5t25 59.5z" />
    <glyph glyph-name="ydieresis.alt" horiz-adv-x="555" 
d="M48 0zM365 591q0 -18 -7.5 -34.5t-20.5 -29t-30.5 -20t-36.5 -7.5q-34 0 -55.5 23.5t-21.5 55.5q0 18 8 34.5t20.5 29t29.5 20t35 7.5q34 0 56.5 -23.5t22.5 -55.5zM565 591q0 -18 -7.5 -34.5t-20.5 -29t-30.5 -20t-36.5 -7.5q-34 0 -55.5 23.5t-21.5 55.5q0 18 8 34.5
t20.5 29t29.5 20t35 7.5q34 0 56.5 -23.5t22.5 -55.5zM346 63q-13 -10 -29 -17q-14 -6 -33.5 -11t-43.5 -5q-39 0 -69 13t-51 35.5t-31.5 53t-10.5 65.5q0 23 4 42l39 221h180l-36 -205q-5 -26 7 -48t42 -22q29 0 44.5 17.5t20.5 47.5l37 210h180l-74 -420
q-19 -106 -82 -158t-180 -52q-56 0 -96 14.5t-65.5 37.5t-37.5 51.5t-13 56.5l177 21q2 -10 8 -18q5 -7 15 -12.5t27 -5.5q27 0 43 15.5t25 59.5z" />
    <glyph glyph-name="zero.tab" 
d="M35 0zM308 180q25 0 45 14.5t34 38.5t22 54.5t8 61.5q0 51 -19.5 76t-52.5 25q-19 0 -38 -10.5t-34.5 -32.5t-25.5 -54.5t-10 -76.5q0 -50 21 -73t50 -23zM619 368q0 -71 -22 -138.5t-64 -121t-103 -86t-138 -32.5q-55 0 -102 19.5t-81.5 55.5t-54 86.5t-19.5 112.5
q0 84 26 153t70.5 118.5t102 77t120.5 27.5q62 0 111 -19t83.5 -54.5t52.5 -86t18 -112.5z" />
    <glyph glyph-name="one.tab" 
d="M213 190l36 205l-64 -39l-66 154l202 120h170l-78 -440h130l-33 -190h-460l33 190h130z" />
    <glyph glyph-name="two.tab" 
d="M35 0zM373 190h165l-33 -190h-470l22 130l231 201q23 20 38 34.5t23.5 25t11.5 18t3 14.5q0 12 -8.5 19.5t-23.5 7.5q-17 0 -32.5 -14t-17.5 -36l-188 20q7 47 29.5 87.5t56.5 70t77.5 46t92.5 16.5q60 0 104 -15t73 -40.5t43.5 -59.5t14.5 -71q0 -35 -12.5 -65
t-33.5 -56.5t-49 -50.5t-58 -47z" />
    <glyph glyph-name="three.tab" 
d="M49 0zM102 440q5 42 27 78.5t56.5 63.5t79 42.5t94.5 15.5q63 0 107.5 -15t72.5 -39.5t41 -56t13 -64.5q0 -35 -18 -60.5t-40 -43.5q-26 -21 -57 -36q22 -13 40 -31q15 -16 27.5 -40.5t12.5 -57.5q0 -39 -16 -76.5t-48 -66t-81.5 -46t-115.5 -17.5q-44 0 -88.5 11
t-80 35.5t-57.5 64.5t-22 99l204 20q2 -14 7 -25q5 -10 14 -17.5t26 -7.5q20 0 31 13.5t11 29.5q0 14 -11 25.5t-31 11.5h-56l26 150h59q19 0 30.5 7.5t11.5 26.5q0 11 -9 18.5t-20 7.5q-14 0 -23 -6t-14 -14q-6 -9 -10 -20z" />
    <glyph glyph-name="four.tab" 
d="M27 0zM547 100h-60l-17 -100h-200l17 100h-260l28 160l296 370h230l-62 -350h60zM257 280h72l21 116z" />
    <glyph glyph-name="five.tab" 
d="M59 0zM314 414q10 4 21 8q10 3 23.5 5.5t30.5 2.5q43 0 77 -15t57 -41t35.5 -61.5t12.5 -75.5q0 -54 -21 -99.5t-57.5 -78t-86 -51t-105.5 -18.5q-43 0 -86 11t-77.5 35t-56.5 62t-22 92l200 19q2 -11 7 -20q5 -8 13 -13.5t22 -5.5q26 0 40.5 17t14.5 49q0 19 -11 31.5
t-29 12.5q-13 0 -22.5 -5t-15.5 -10q-7 -7 -12 -15h-181l112 380h400l-29 -160h-235z" />
    <glyph glyph-name="six.tab" 
d="M50 0zM310 270q-21 0 -37 -15t-16 -41q0 -19 12 -31.5t34 -12.5q23 0 39 15.5t16 41.5q0 20 -13 31.5t-35 11.5zM399 439q34 -8 64 -24t52.5 -41.5t35.5 -60t13 -78.5q0 -53 -20 -98t-55 -77.5t-83 -51t-103 -18.5q-57 0 -104 15.5t-80 43.5t-51 66.5t-18 84.5
q0 40 13 75t35.5 68t52 66.5t62.5 70.5l132 150h223z" />
    <glyph glyph-name="seven.tab" 
d="M75 0zM619 630l-30 -165l-296 -465h-218l282 440h-222l34 190h450z" />
    <glyph glyph-name="eight.tab" 
d="M44 0zM355 207q0 17 -10.5 30t-31.5 13q-20 0 -35 -15t-15 -41q0 -20 11.5 -32t28.5 -12q20 0 36 15.5t16 41.5zM173 345q-16 13 -28 31q-11 15 -19 36.5t-8 48.5q0 35 17.5 67.5t49 57t75 39.5t94.5 15q64 0 109.5 -14.5t74 -38.5t41.5 -54.5t13 -63.5
q0 -34 -15.5 -58.5t-34.5 -41.5q-22 -19 -49 -34q21 -13 38 -32q14 -17 26 -43t12 -61q0 -41 -18.5 -79t-53 -67t-85 -46t-114.5 -17q-66 0 -114 14.5t-79 40.5t-46 60.5t-15 75.5q0 45 20 75.5t44 50.5q28 23 65 38zM358 485q-16 0 -29 -11.5t-13 -34.5q0 -16 9 -25t23 -9
t27 12t13 34q0 15 -8.5 24.5t-21.5 9.5z" />
    <glyph glyph-name="nine.tab" 
d="M86 0zM344 360q21 0 37 15t16 41q0 19 -12 31.5t-34 12.5q-23 0 -39 -15.5t-16 -41.5q0 -20 13 -31.5t35 -11.5zM255 191q-34 7 -64 23.5t-52.5 42t-35.5 60t-13 78.5q0 53 20 98t55 77.5t82.5 51t103.5 18.5q57 0 104 -15.5t80 -43.5t51 -66.5t18 -84.5q0 -41 -13 -75.5
t-35.5 -67.5t-52 -66.5t-62.5 -70.5l-132 -150h-223z" />
    <glyph glyph-name="at.case" horiz-adv-x="765" 
d="M89 0zM489 640q69 0 127.5 -22.5t100.5 -61.5t65.5 -91t23.5 -110q0 -59 -15 -102.5t-40.5 -72t-60 -42t-72.5 -13.5q-28 0 -46.5 9.5t-29.5 20.5q-13 13 -22 30q-11 -17 -28 -30q-14 -11 -36.5 -20.5t-54.5 -9.5q-28 0 -53.5 12t-44.5 32.5t-30.5 48t-11.5 59.5
q0 45 14.5 82t38.5 62.5t54 39.5t62 14q21 0 36.5 -6t25.5 -13q11 -9 20 -19l16 28h105l-26 -150q-7 -38 2.5 -59t31.5 -21q18 0 33.5 22t15.5 79q0 39 -14 74t-41.5 62t-69 42.5t-95.5 15.5q-57 0 -106 -19t-84 -53.5t-55 -82t-20 -103.5q0 -42 16.5 -79t45.5 -64.5t68 -43
t84 -15.5q34 0 60 7t44 15q21 10 37 23l47 -85q-21 -20 -51 -35q-26 -14 -63.5 -24.5t-88.5 -10.5q-67 0 -124.5 23.5t-100 64t-66.5 93.5t-24 113q0 84 31 154.5t85 122t127 80.5t157 29zM428 235q27 0 42 21.5t15 53.5q0 23 -13 39t-31 16q-23 0 -40.5 -18.5t-17.5 -54.5
q0 -23 14 -40t31 -17z" />
    <glyph glyph-name="parenleft.case" horiz-adv-x="385" 
d="M95 0zM481 650q-49 -55 -88 -122q-17 -29 -32.5 -62.5t-28 -71.5t-20 -79.5t-7.5 -85.5q0 -59 8 -109.5t18 -88.5q11 -44 26 -81l-167 -100q-27 46 -48 103q-18 49 -32.5 116t-14.5 147q0 78 18.5 148.5t47 129.5t61 106.5t61 81t47.5 51l19 17.5l132 -100v0z" />
    <glyph glyph-name="parenright.case" horiz-adv-x="385" 
d="M10 0zM10 -50q49 55 88 122q16 28 32 62t28.5 71.5t20 79t7.5 86.5q0 58 -8 109t-18 89q-11 44 -26 81l167 100q26 -47 47 -104q18 -49 33 -115.5t15 -146.5q0 -79 -18.5 -149t-47 -129t-61 -106.5t-61 -81t-47.5 -51l-19 -17.5z" />
    <glyph glyph-name="bracketleft.case" horiz-adv-x="365" 
d="M31 0zM253 75h95l-32 -180h-285l143 810h285l-32 -180h-95z" />
    <glyph glyph-name="bracketright.case" horiz-adv-x="365" 
d="M12 0zM217 525h-95l32 180h285l-143 -810h-284l31 180h95z" />
    <glyph glyph-name="braceleft.case" horiz-adv-x="400" 
d="M79 0zM105 375q17 0 31 7q12 5 23.5 17.5t16.5 35.5l14 80q10 56 26.5 92.5t44 58.5t67.5 30.5t96 8.5h70l-32 -180h-30q-50 0 -59 -50l-12 -70q-6 -32 -21 -52t-32 -32q-19 -14 -41 -21q20 -7 34 -21q12 -12 20.5 -32t2.5 -52l-12 -64q-5 -25 8 -40.5t39 -15.5h24
l-32 -180h-70q-85 0 -128 38t-43 107q0 11 1 22t3 23l14 80q4 23 -2.5 34.5t-17.5 17.5q-12 6 -29 8z" />
    <glyph glyph-name="braceright.case" horiz-adv-x="400" 
d="M12 0zM401 225q-17 -2 -31 -8q-12 -6 -24 -17.5t-16 -34.5l-14 -80q-10 -56 -26.5 -92.5t-44 -58.5t-67.5 -30.5t-96 -8.5h-70l32 180h30q50 0 59 50l12 70q5 32 20.5 52t32.5 32q19 14 41 21q-21 7 -35 21q-12 12 -20 32t-2 52l12 64q5 25 -8 40.5t-39 15.5h-24l32 180
h70q85 0 128 -38t43 -107q0 -11 -1 -22t-3 -23l-14 -80q-5 -23 2 -35.5t18 -17.5q12 -7 29 -7z" />
    <glyph glyph-name="exclamdown.case" horiz-adv-x="310" 
d="M265 0h-210l93 410h170zM353 555q0 -21 -7.5 -40.5t-21 -33.5t-32 -22.5t-40.5 -8.5q-41 0 -66.5 24t-25.5 61q0 46 30 75.5t75 29.5q41 0 64.5 -24t23.5 -61z" />
    <glyph glyph-name="questiondown.case" horiz-adv-x="475" 
d="M39 154q0 35 11 60.5t28 44.5t38 35t41.5 32.5t38 36t27.5 47.5h180q-7 -56 -31 -91t-50 -57.5t-46.5 -37.5t-20.5 -31q0 -10 6.5 -16.5t17.5 -6.5q14 0 21.5 7t12.5 15q5 10 8 23l179 -20q-5 -43 -27 -80.5t-55 -65t-75.5 -43.5t-88.5 -16q-55 0 -95.5 13.5t-67 36
t-39.5 52t-13 62.5zM433 555q0 -21 -7.5 -40.5t-21 -33.5t-32 -22.5t-40.5 -8.5q-41 0 -66.5 24t-25.5 61q0 46 30 75.5t75 29.5q41 0 64.5 -24t23.5 -61z" />
    <glyph glyph-name="guillemotleft.case" horiz-adv-x="585" 
d="M82 125zM341 125h-170l-89 175l151 175h175l-154 -179zM576 125h-170l-89 175l151 175h175l-154 -179z" />
    <glyph glyph-name="guillemotright.case" horiz-adv-x="585" 
d="M51 125zM205 304l-87 171h170l89 -175l-151 -175h-175zM440 304l-87 171h170l89 -175l-151 -175h-175z" />
    <glyph glyph-name="guilsinglleft.case" horiz-adv-x="370" 
d="M82 125zM274 296l87 -171h-190l-89 175l151 175h195z" />
    <glyph glyph-name="guilsinglright.case" horiz-adv-x="370" 
d="M51 125zM205 304l-87 171h190l89 -175l-151 -175h-195z" />
    <glyph glyph-name="hyphen.case" horiz-adv-x="400" 
d="M83 245zM403 245h-320l30 170h320z" />
    <glyph glyph-name="endash.case" horiz-adv-x="510" 
d="M83 245zM513 245h-430l30 170h430z" />
    <glyph glyph-name="emdash.case" horiz-adv-x="755" 
d="M83 245zM758 245h-675l30 170h675z" />
    <glyph glyph-name="bullet.case" horiz-adv-x="390" 
d="M124 195zM357 318q0 -23 -11 -45t-29 -39.5t-41 -28t-48 -10.5q-21 0 -40 9t-33.5 24t-22.5 34.5t-8 40.5q0 24 11.5 46t29.5 39t41 27t47 10q21 0 40 -9t33 -23.5t22.5 -34t8.5 -40.5z" />
    <glyph glyph-name="periodcentered.case" horiz-adv-x="240" 
d="M79 240zM79 325q0 21 7.5 40.5t21 33.5t32 22.5t40.5 8.5q41 0 66.5 -24t25.5 -61q0 -46 -30 -75.5t-75 -29.5q-41 0 -64.5 24t-23.5 61z" />
    <glyph glyph-name="zero.numr" horiz-adv-x="340" 
d="M249 525q-9 0 -16 -7t-11.5 -17t-6.5 -22t-2 -21q0 -17 5.5 -25t13.5 -8q9 0 22 14t13 51q0 17 -5 26t-13 9zM87 453q0 33 12 65.5t34 58.5t53 42t69 16q61 0 99.5 -38t38.5 -101q0 -41 -13.5 -74t-36 -57t-52 -37t-61.5 -13q-31 0 -57.5 10t-45.5 28t-29.5 43.5
t-10.5 56.5z" />
    <glyph glyph-name="one.numr" horiz-adv-x="275" 
d="M325 630l-54 -310h-125l28 161l-25 -14l-42 88l133 75h85z" />
    <glyph glyph-name="two.numr" horiz-adv-x="289" 
d="M347 420l-17 -100h-260l14 80l131 90q12 8 21.5 17t9.5 20q0 13 -14 13q-8 0 -15.5 -6.5t-8.5 -18.5l-106 10q5 49 44.5 79.5t103.5 30.5q59 0 91.5 -28t32.5 -65q0 -33 -21.5 -55.5t-56.5 -46.5l-29 -20h80z" />
    <glyph glyph-name="three.numr" horiz-adv-x="295" 
d="M98 535q8 45 43 72.5t107 27.5q31 0 54.5 -7.5t39.5 -19.5t24.5 -27.5t8.5 -30.5q0 -21 -8 -34.5t-18 -21.5q-11 -10 -26 -14q9 -8 17 -18q7 -8 12.5 -20t5.5 -27q0 -45 -36.5 -72.5t-102.5 -27.5q-76 0 -111.5 29t-35.5 71l123 10q0 -8 4 -14t14 -6q19 0 19 16
q0 14 -19 14h-28l14 80h25q9 0 16 3.5t7 11.5q0 15 -20 15q-8 0 -12.5 -3t-6.5 -7q-3 -4 -4 -10z" />
    <glyph glyph-name="four.numr" horiz-adv-x="305" 
d="M357 380h-30l-10 -60h-125l10 60h-135l13 70l141 180h150l-26 -150h30zM233 470l11 60l-48 -60h37z" />
    <glyph glyph-name="five.numr" horiz-adv-x="305" 
d="M267 525q48 0 75.5 -27t27.5 -64q0 -51 -37.5 -85t-112.5 -34q-32 0 -57.5 7.5t-43.5 20.5t-27.5 30.5t-9.5 36.5l123 10q0 -4 3 -8q5 -7 16 -7q9 0 15.5 7t6.5 21q0 9 -5.5 15.5t-14.5 6.5q-10 0 -18 -8q-4 -4 -6 -7h-105l58 190h225l-14 -80h-125l-10 -30q4 1 9 2t11 2
t16 1z" />
    <glyph glyph-name="six.numr" horiz-adv-x="300" 
d="M207 315q-29 0 -53 8.5t-41.5 23.5t-27.5 34t-10 40q0 32 15.5 59.5t44.5 59.5l80 90h131l-75 -85q37 -4 62.5 -32.5t25.5 -66.5q0 -27 -10.5 -51t-30 -42t-48 -28t-63.5 -10zM215 410q11 0 17 8t6 21q0 8 -5.5 14.5t-13.5 6.5q-9 0 -15.5 -7.5t-6.5 -21.5q0 -9 5 -15
t13 -6z" />
    <glyph glyph-name="seven.numr" horiz-adv-x="275" 
d="M375 630l-15 -90l-136 -220h-133l122 200h-102l19 110h245z" />
    <glyph glyph-name="eight.numr" horiz-adv-x="310" 
d="M223 445q-12 0 -20 -7t-8 -21q0 -9 6 -15.5t17 -6.5q13 0 20.5 8t7.5 21q0 8 -6 14.5t-17 6.5zM210 315q-68 0 -102.5 26.5t-34.5 64.5q0 21 9 35.5t20 22.5q12 10 29 16q-8 6 -13 15q-5 8 -8.5 18t-3.5 24q0 40 36 69t111 29q31 0 54 -7.5t39 -19.5t24 -27.5t8 -31.5
q0 -20 -7.5 -33t-16.5 -21q-11 -10 -23 -15q9 -7 17 -16q7 -8 12.5 -19.5t5.5 -25.5q0 -45 -38 -74.5t-118 -29.5zM240 515q9 0 15 6t6 14t-5 14t-14 6t-15 -6t-6 -16q0 -7 5.5 -12.5t13.5 -5.5z" />
    <glyph glyph-name="nine.numr" horiz-adv-x="300" 
d="M242 635q29 0 53 -8.5t41.5 -23.5t27.5 -34t10 -40q0 -32 -16.5 -60t-45.5 -61l-78 -88h-131l75 85q-37 4 -62.5 32.5t-25.5 66.5q0 27 10.5 51t30 42t48 28t63.5 10zM234 540q-11 0 -17 -8t-6 -21q0 -8 5.5 -14.5t13.5 -6.5q9 0 15.5 7.5t6.5 21.5q0 9 -5 15t-13 6z" />
    <glyph glyph-name="zero.dnom" horiz-adv-x="340" 
d="M192 205q-9 0 -16 -7t-11.5 -17t-6.5 -22t-2 -21q0 -17 5.5 -25t13.5 -8q9 0 22 14t13 51q0 17 -5 26t-13 9zM30 133q0 33 12 65.5t34 58.5t53 42t69 16q61 0 99.5 -38t38.5 -101q0 -41 -13.5 -74t-36 -57t-52 -37t-61.5 -13q-31 0 -57.5 10t-45.5 28t-29.5 43.5
t-10.5 56.5z" />
    <glyph glyph-name="one.dnom" horiz-adv-x="275" 
d="M269 310l-54 -310h-125l28 161l-25 -14l-42 88l133 75h85z" />
    <glyph glyph-name="two.dnom" horiz-adv-x="289" 
d="M291 100l-17 -100h-260l14 80l131 90q12 8 21.5 17t9.5 20q0 13 -14 13q-8 0 -15.5 -6.5t-8.5 -18.5l-106 10q5 49 44.5 79.5t103.5 30.5q59 0 91.5 -28t32.5 -65q0 -33 -21.5 -55.5t-56.5 -46.5l-29 -20h80z" />
    <glyph glyph-name="three.dnom" horiz-adv-x="295" 
d="M42 215q8 45 43 72.5t107 27.5q31 0 54.5 -7.5t39.5 -19.5t24.5 -27.5t8.5 -30.5q0 -21 -8 -34.5t-18 -21.5q-11 -10 -26 -14q9 -8 17 -18q7 -8 12.5 -20t5.5 -27q0 -45 -36.5 -72.5t-102.5 -27.5q-76 0 -111.5 29t-35.5 71l123 10q0 -8 4 -14t14 -6q19 0 19 16
q0 14 -19 14h-28l14 80h25q9 0 16 3.5t7 11.5q0 15 -20 15q-8 0 -12.5 -3t-6.5 -7q-3 -4 -4 -10z" />
    <glyph glyph-name="four.dnom" horiz-adv-x="305" 
d="M300 60h-30l-10 -60h-125l10 60h-135l13 70l141 180h150l-26 -150h30zM176 150l11 60l-48 -60h37z" />
    <glyph glyph-name="five.dnom" horiz-adv-x="305" 
d="M210 205q48 0 75.5 -27t27.5 -64q0 -51 -37.5 -85t-112.5 -34q-32 0 -57.5 7.5t-43.5 20.5t-27.5 30.5t-9.5 36.5l123 10q0 -4 3 -8q5 -7 16 -7q9 0 15.5 7t6.5 21q0 9 -5.5 15.5t-14.5 6.5q-10 0 -18 -8q-4 -4 -6 -7h-105l58 190h225l-14 -80h-125l-10 -30q4 1 9 2t11 2
t16 1z" />
    <glyph glyph-name="six.dnom" horiz-adv-x="300" 
d="M150 -5q-29 0 -53 8.5t-41.5 23.5t-27.5 34t-10 40q0 32 15.5 59.5t44.5 59.5l80 90h131l-75 -85q37 -4 62.5 -32.5t25.5 -66.5q0 -27 -10.5 -51t-30 -42t-48 -28t-63.5 -10zM158 90q11 0 17 8t6 21q0 8 -5.5 14.5t-13.5 6.5q-9 0 -15.5 -7.5t-6.5 -21.5q0 -9 5 -15
t13 -6z" />
    <glyph glyph-name="seven.dnom" horiz-adv-x="275" 
d="M319 310l-15 -90l-136 -220h-133l122 200h-102l19 110h245z" />
    <glyph glyph-name="eight.dnom" horiz-adv-x="310" 
d="M167 125q-12 0 -20 -7t-8 -21q0 -9 6 -15.5t17 -6.5q13 0 20.5 8t7.5 21q0 8 -6 14.5t-17 6.5zM154 -5q-68 0 -102.5 26.5t-34.5 64.5q0 21 9 35.5t20 22.5q12 10 29 16q-8 6 -13 15q-5 8 -8.5 18t-3.5 24q0 40 36 69t111 29q31 0 54 -7.5t39 -19.5t24 -27.5t8 -31.5
q0 -20 -7.5 -33t-16.5 -21q-11 -10 -23 -15q9 -7 17 -16q7 -8 12.5 -19.5t5.5 -25.5q0 -45 -38 -74.5t-118 -29.5zM184 195q9 0 15 6t6 14t-5 14t-14 6t-15 -6t-6 -16q0 -7 5.5 -12.5t13.5 -5.5z" />
    <glyph glyph-name="nine.dnom" horiz-adv-x="300" 
d="M185 315q29 0 53 -8.5t41.5 -23.5t27.5 -34t10 -40q0 -32 -16.5 -60t-45.5 -61l-78 -88h-131l75 85q-37 4 -62.5 32.5t-25.5 66.5q0 27 10.5 51t30 42t48 28t63.5 10zM177 220q-11 0 -17 -8t-6 -21q0 -8 5.5 -14.5t13.5 -6.5q9 0 15.5 7.5t6.5 21.5q0 9 -5 15t-13 6z" />
    <glyph glyph-name="zero.osftab" 
d="M51 0zM309 180q24 0 40.5 14.5t16.5 39.5q0 20 -14.5 33t-40.5 13q-25 0 -40.5 -15t-15.5 -40q0 -20 14 -32.5t40 -12.5zM568 253q0 -56 -21.5 -104t-59 -83.5t-88 -56t-108.5 -20.5q-56 0 -100.5 17t-75.5 46.5t-47.5 69.5t-16.5 85q0 55 21 103.5t58 83.5t86 55.5
t106 20.5q52 0 97 -15.5t78 -44t52 -68.5t19 -89z" />
    <glyph glyph-name="one.osftab" 
d="M461 460l-53 -300h130l-28 -160h-460l28 160h130l16 87l-65 -40l-70 133l202 120h170z" />
    <glyph glyph-name="two.osftab" 
d="M65 0zM539 314q0 -48 -26 -88t-65 -66h70l-28 -160h-425l15 90l205 121q26 16 39.5 29.5t13.5 33.5q0 12 -8 19t-21 7q-15 0 -26.5 -12.5t-13.5 -32.5l-171 20q4 41 23.5 76.5t50.5 62t72 41.5t90 15q46 0 84 -12.5t65 -33.5t41.5 -49.5t14.5 -60.5z" />
    <glyph glyph-name="three.osftab" 
d="M15 0zM527 67q0 -56 -20.5 -101.5t-56.5 -78t-86 -50t-108 -17.5q-48 0 -92 13t-77 38.5t-52.5 62.5t-19.5 86l207 20q2 -11 7 -20q5 -8 13 -14t22 -6q21 0 33.5 13t12.5 34q0 20 -13 31.5t-30 11.5q-10 0 -17.5 -1.5t-12.5 -3.5l-12 -4l-68 94l101 105h-157l32 180h430
l-20 -110l-121 -125q29 -13 52 -34q20 -19 36.5 -49t16.5 -75z" />
    <glyph glyph-name="four.osftab" 
d="M10 0zM530 0h-60l-30 -170h-200l30 170h-260l28 160l283 300h230l-50 -280h60zM240 180h71l16 91z" />
    <glyph glyph-name="five.osftab" 
d="M25 0zM280 244q10 4 21 8q10 3 23.5 5.5t30.5 2.5q43 0 77 -15t57 -41t35.5 -61.5t12.5 -75.5q0 -54 -21 -99.5t-57.5 -78t-86 -51t-105.5 -18.5q-43 0 -86 11t-77.5 35t-56.5 62t-22 92l200 19q2 -11 7 -20q5 -8 13 -13.5t22 -5.5q26 0 40.5 17t14.5 49q0 19 -11 31.5
t-29 12.5q-13 0 -22.5 -5t-15.5 -10q-7 -7 -12 -15h-181l112 380h400l-29 -160h-235z" />
    <glyph glyph-name="six.osftab" 
d="M50 0zM310 270q-21 0 -37 -15t-16 -41q0 -19 12 -31.5t34 -12.5q23 0 39 15.5t16 41.5q0 20 -13 31.5t-35 11.5zM399 439q34 -8 64 -24t52.5 -41.5t35.5 -60t13 -78.5q0 -53 -20 -98t-55 -77.5t-83 -51t-103 -18.5q-57 0 -104 15.5t-80 43.5t-51 66.5t-18 84.5
q0 40 13 75t35.5 68t52 66.5t62.5 70.5l132 150h223z" />
    <glyph glyph-name="seven.osftab" 
d="M40 0zM584 460l-30 -165l-296 -465h-218l282 440h-222l34 190h450z" />
    <glyph glyph-name="eight.osftab" 
d="M44 0zM355 207q0 17 -10.5 30t-31.5 13q-20 0 -35 -15t-15 -41q0 -20 11.5 -32t28.5 -12q20 0 36 15.5t16 41.5zM173 345q-16 13 -28 31q-11 15 -19 36.5t-8 48.5q0 35 17.5 67.5t49 57t75 39.5t94.5 15q64 0 109.5 -14.5t74 -38.5t41.5 -54.5t13 -63.5
q0 -34 -15.5 -58.5t-34.5 -41.5q-22 -19 -49 -34q21 -13 38 -32q14 -17 26 -43t12 -61q0 -41 -18.5 -79t-53 -67t-85 -46t-114.5 -17q-66 0 -114 14.5t-79 40.5t-46 60.5t-15 75.5q0 45 20 75.5t44 50.5q28 23 65 38zM358 485q-16 0 -29 -11.5t-13 -34.5q0 -16 9 -25t23 -9
t27 12t13 34q0 15 -8.5 24.5t-21.5 9.5z" />
    <glyph glyph-name="nine.osftab" 
d="M57 0zM315 190q21 0 37 15t16 41q0 19 -12 31.5t-34 12.5q-23 0 -39 -15.5t-16 -41.5q0 -20 13 -31.5t35 -11.5zM226 21q-34 7 -64 23.5t-52.5 42t-35.5 60t-13 78.5q0 53 20 98t55 77.5t82.5 51t103.5 18.5q57 0 104 -15.5t80 -43.5t51 -66.5t18 -84.5q0 -41 -13 -75.5
t-35.5 -67.5t-52 -66.5t-62.5 -70.5l-132 -150h-223z" />
    <glyph glyph-name="plus.lf" horiz-adv-x="480" 
d="M72 95zM170 95l22 125h-120l30 170h120l22 125h170l-22 -125h120l-30 -170h-120l-22 -125h-170z" />
    <glyph glyph-name="less.lf" horiz-adv-x="475" 
d="M74 50zM470 205l-27 -155l-369 150l28 160l422 150l-30 -165l-216 -70z" />
    <glyph glyph-name="equal.lf" horiz-adv-x="480" 
d="M67 130zM457 130h-390l25 145h390zM493 335h-390l25 145h390z" />
    <glyph glyph-name="greater.lf" horiz-adv-x="475" 
d="M48 50zM101 355l28 155l368 -150l-28 -160l-421 -150l29 165l216 70z" />
    <glyph glyph-name="asciitilde.lf" horiz-adv-x="480" 
d="M49 215zM548 405q-6 -49 -21 -84.5t-36.5 -59t-47.5 -35t-52 -11.5t-48.5 7t-41 15.5t-33.5 15.5t-26 7q-20 0 -31.5 -10.5t-18.5 -29.5l-143 10q6 49 21 84.5t36.5 59t47.5 35t52 11.5t48 -7t41 -15.5t34 -15.5t26 -7q20 0 31.5 10.5t18.5 29.5z" />
    <glyph glyph-name="logicalnot.lf" horiz-adv-x="505" 
d="M82 205zM337 300h-255l30 170h435l-47 -265h-180z" />
    <glyph glyph-name="plusminus.lf" horiz-adv-x="480" 
d="M43 50zM453 50h-410l29 165h120l14 80h-120l30 170h120l22 125h170l-22 -125h120l-30 -170h-120l-14 -80h120z" />
    <glyph glyph-name="minus.lf" horiz-adv-x="480" 
d="M77 220zM477 220h-400l30 170h400z" />
    <glyph glyph-name="multiply.lf" horiz-adv-x="480" 
d="M71 100zM402 305l79 -95l-125 -110l-79 95l-111 -95l-95 110l111 95l-78 95l125 110l79 -95l111 95l95 -110z" />
    <glyph glyph-name="divide.lf" horiz-adv-x="480" 
d="M76 50zM257 50q-14 0 -28.5 4.5t-26 14t-19 23t-7.5 31.5q0 37 26.5 62t64.5 25q37 0 59 -20.5t22 -51.5q0 -37 -26.5 -62.5t-64.5 -25.5zM99 370h410l-23 -130h-410zM318 400q-14 0 -28.5 4.5t-26 14t-19 23t-7.5 31.5q0 37 26.5 62t64.5 25q37 0 59 -20.5t22 -51.5
q0 -37 -26.5 -62.5t-64.5 -25.5z" />
    <glyph glyph-name="notequal.lf" horiz-adv-x="480" 
d="M52 55zM65 55l44 75h-57l25 145h117l36 60h-142l25 145h197l44 75h166l-44 -75h57l-25 -145h-117l-36 -60h142l-25 -145h-197l-44 -75h-166z" />
    <glyph glyph-name="approxequal.lf" horiz-adv-x="480" 
d="M33 125zM555 490q-9 -75 -51.5 -117.5t-106.5 -42.5q-26 0 -47.5 7t-39.5 15.5t-34 15.5t-31 7t-27.5 -10.5t-17.5 -29.5l-130 10q10 75 52 117.5t106 42.5q26 0 47.5 -7t39.5 -15.5t34 -15.5t31 -7t27.5 10.5t17.5 29.5zM33 140q9 75 51.5 117.5t106.5 42.5
q26 0 47.5 -7t39.5 -15.5t34 -15.5t31 -7t27.5 10.5t17.5 29.5l130 -10q-10 -75 -52 -117.5t-106 -42.5q-26 0 -47.5 7t-39.5 15.5t-34 15.5t-31 7t-27.5 -10.5t-17.5 -29.5z" />
    <glyph glyph-name="lessequal.lf" horiz-adv-x="475" 
d="M48 50zM293 366l196 -50l-24 -136l-373 120l24 140l416 120l-25 -144zM464 170l-21 -120h-395l21 120h395z" />
    <glyph glyph-name="greaterequal.lf" horiz-adv-x="475" 
d="M48 50zM114 424l23 136l374 -120l-24 -140l-417 -120l26 144l214 50zM464 170l-21 -120h-395l21 120h395z" />
    <glyph glyph-name="colon.lf" horiz-adv-x="250" 
d="M51 165q0 21 7.5 40.5t21 33.5t32 22.5t40.5 8.5q41 0 66.5 -24t25.5 -61q0 -46 -30 -75.5t-75 -29.5q-41 0 -64.5 24t-23.5 61zM93 405q0 21 7.5 40.5t21 33.5t32 22.5t40.5 8.5q41 0 66.5 -24t25.5 -61q0 -46 -30 -75.5t-75 -29.5q-41 0 -64.5 24t-23.5 61z" />
    <glyph glyph-name="a.smcp" horiz-adv-x="580" 
d="M363 370l-60 -140h70zM237 80l-34 -80h-208l286 550h220l94 -550h-202l-6 80h-150z" />
    <glyph glyph-name="aacute.smcp" horiz-adv-x="580" 
d="M0 0zM363 370l-60 -140h70zM237 80l-34 -80h-208l286 550h220l94 -550h-202l-6 80h-150zM402 750h193l-124 -140h-158z" />
    <glyph glyph-name="abreve.smcp" horiz-adv-x="580" 
d="M0 0zM363 370l-60 -140h70zM237 80l-34 -80h-208l286 550h220l94 -550h-202l-6 80h-150zM405 610q-75 0 -112.5 40.5t-39.5 104.5h120q0 -11 4 -20q4 -8 12 -14t23 -6q14 0 21.5 6t12.5 14q5 9 7 20h120q-1 -30 -15 -56.5t-36.5 -46t-52.5 -31t-64 -11.5z" />
    <glyph glyph-name="acircumflex.smcp" horiz-adv-x="580" 
d="M0 0zM363 370l-60 -140h70zM237 80l-34 -80h-208l286 550h220l94 -550h-202l-6 80h-150zM404 660l-49 -55h-153l130 145h170l80 -145h-147z" />
    <glyph glyph-name="adieresis.smcp" horiz-adv-x="580" 
d="M0 0zM363 370l-60 -140h70zM237 80l-34 -80h-208l286 550h220l94 -550h-202l-6 80h-150zM390 691q0 -18 -7.5 -34.5t-20.5 -29t-30.5 -20t-36.5 -7.5q-34 0 -55.5 23.5t-21.5 55.5q0 18 8 34.5t20.5 29t29.5 20t35 7.5q34 0 56.5 -23.5t22.5 -55.5zM590 691
q0 -18 -7.5 -34.5t-20.5 -29t-30.5 -20t-36.5 -7.5q-34 0 -55.5 23.5t-21.5 55.5q0 18 8 34.5t20.5 29t29.5 20t35 7.5q34 0 56.5 -23.5t22.5 -55.5z" />
    <glyph glyph-name="agrave.smcp" horiz-adv-x="580" 
d="M0 0zM363 370l-60 -140h70zM237 80l-34 -80h-208l286 550h220l94 -550h-202l-6 80h-150zM465 610h-151l-102 140h186z" />
    <glyph glyph-name="amacron.smcp" horiz-adv-x="580" 
d="M0 0zM363 370l-60 -140h70zM237 80l-34 -80h-208l286 550h220l94 -550h-202l-6 80h-150zM539 610h-290l24 135h290z" />
    <glyph glyph-name="aogonek.smcp" horiz-adv-x="580" 
d="M387 80h-150l-34 -80h-208l286 550h220l94 -550h-112q1 0 -6 -5t-15.5 -15t-15.5 -23.5t-7 -29.5q0 -17 11.5 -29.5t32.5 -12.5q14 0 25 3q5 2 11 4l-15 -81q-9 -4 -20 -8q-10 -3 -24.5 -5.5t-33.5 -2.5q-51 0 -78 25.5t-27 59.5q0 29 11.5 51.5t25 37.5t25 23t10.5 8z
M363 370l-60 -140h70z" />
    <glyph glyph-name="aring.smcp" horiz-adv-x="580" 
d="M0 0zM363 370l-60 -140h70zM237 80l-34 -80h-208l286 550h220l94 -550h-202l-6 80h-150zM515 705q0 -24 -9.5 -44.5t-25.5 -36.5t-38.5 -25t-47.5 -9q-53 0 -82.5 27t-29.5 69q0 50 34.5 82t86.5 32q51 0 81.5 -27t30.5 -68zM395 660q17 0 28 10t11 29q0 13 -9 22t-25 9
q-15 0 -25.5 -11t-10.5 -28q0 -11 8 -21t23 -10z" />
    <glyph glyph-name="atilde.smcp" horiz-adv-x="580" 
d="M0 0zM363 370l-60 -140h70zM237 80l-34 -80h-208l286 550h220l94 -550h-202l-6 80h-150zM229 615q5 75 35.5 107.5t68.5 32.5q19 0 33.5 -4.5t27.5 -10.5t24 -10.5t22 -4.5q23 0 23 25l108 -10q-5 -75 -35.5 -107.5t-68.5 -32.5q-19 0 -33.5 4.5t-27.5 10.5t-24 10.5
t-22 4.5q-23 0 -23 -25z" />
    <glyph glyph-name="ae.smcp" horiz-adv-x="810" 
d="M374 85h-142l-54 -85h-208l361 550h535l-26 -150h-220l-9 -50h200l-25 -145h-200l-10 -55h230l-26 -150h-420zM427 385l-91 -140h67z" />
    <glyph glyph-name="b.smcp" horiz-adv-x="555" 
d="M480 285q24 -9 42 -25q16 -14 29 -36.5t13 -54.5q0 -36 -13.5 -67t-41 -53.5t-68.5 -35.5t-96 -13h-300l96 550h268q48 0 82 -11.5t55.5 -30.5t31.5 -43t10 -49q0 -36 -17 -60.5t-37 -40.5q-24 -18 -54 -30zM294 340h43q20 0 32 9.5t12 27.5q0 14 -10 23.5t-27 9.5h-37z
M317 140q44 0 44 37q0 15 -10.5 24t-27.5 9h-51l-13 -70h58z" />
    <glyph glyph-name="c.smcp" horiz-adv-x="625" 
d="M360 160q28 0 47.5 9t32.5 20q15 13 25 30l177 -19q-18 -59 -56 -105q-17 -20 -39 -39t-52 -33.5t-67.5 -23.5t-84.5 -9q-61 0 -111 22t-86 58.5t-55.5 83t-19.5 94.5q0 65 25.5 122t70 99t104.5 66.5t129 24.5q48 0 85 -9t64.5 -24t47.5 -34t33 -38q31 -47 38 -105
l-187 -21q-9 17 -22 30q-11 11 -29.5 21t-44.5 10q-25 0 -47 -9.5t-38.5 -26t-26 -40t-9.5 -51.5q0 -45 25.5 -74t70.5 -29z" />
    <glyph glyph-name="cacute.smcp" horiz-adv-x="625" 
d="M70 0zM359 160q28 0 47.5 9t32.5 20q15 13 25 30l177 -19q-18 -59 -56 -105q-17 -20 -39 -39t-52 -33.5t-67.5 -23.5t-84.5 -9q-61 0 -111 22t-86 58.5t-55.5 83t-19.5 94.5q0 65 25.5 122t70 99t104.5 66.5t129 24.5q48 0 85 -9t64.5 -24t47.5 -34t33 -38
q31 -47 38 -105l-187 -21q-9 17 -22 30q-11 11 -29.5 21t-44.5 10q-25 0 -47 -9.5t-38.5 -26t-26 -40t-9.5 -51.5q0 -45 25.5 -74t70.5 -29zM422 750h193l-124 -140h-158z" />
    </font>
</defs>
</svg>
