<svg xmlns="http://www.w3.org/2000/svg" xmlns:xlink="http://www.w3.org/1999/xlink" width="154" zoomAndPan="magnify" viewBox="0 0 115.5 36.750001" height="49" preserveAspectRatio="xMidYMid meet" version="1.0"><defs><g/><clipPath id="5c97a05844"><path d="M 47 29 L 53 29 L 53 36.5 L 47 36.5 Z M 47 29 " clip-rule="nonzero"/></clipPath></defs><g fill="#28236b" fill-opacity="1"><g transform="translate(0.14189, 21.047076)"><g><path d="M 9.976562 -21.152344 L 1.5 -21.152344 L 1.5 0 L 6.621094 0 L 6.621094 -6.230469 L 9.976562 -6.230469 C 14.890625 -6.230469 17.347656 -9.976562 17.347656 -13.664062 C 17.347656 -17.347656 14.890625 -21.152344 9.976562 -21.152344 Z M 9.976562 -11.054688 L 6.621094 -11.054688 L 6.621094 -16.179688 L 9.976562 -16.179688 C 11.566406 -16.179688 12.34375 -14.832031 12.34375 -13.574219 C 12.34375 -12.34375 11.566406 -11.054688 9.976562 -11.054688 Z M 9.976562 -11.054688 "/></g></g></g><g fill="#28236b" fill-opacity="1"><g transform="translate(18.417685, 21.047076)"><g><path d="M 1.527344 -10.457031 C 1.527344 -4.285156 6.382812 0.300781 12.375 0.300781 C 18.367188 0.300781 23.25 -4.375 23.25 -10.457031 C 23.25 -16.628906 18.367188 -21.300781 12.375 -21.300781 C 6.382812 -21.300781 1.527344 -16.628906 1.527344 -10.457031 Z M 6.621094 -10.457031 C 6.621094 -14.441406 9.496094 -16.390625 12.375 -16.390625 C 15.25 -16.390625 18.097656 -14.410156 18.097656 -10.457031 C 18.097656 -6.53125 15.191406 -4.554688 12.3125 -4.554688 C 9.4375 -4.554688 6.621094 -6.5 6.621094 -10.457031 Z M 6.621094 -10.457031 "/></g></g></g><g fill="#28236b" fill-opacity="1"><g transform="translate(43.19486, 21.047076)"><g><path d="M 11.894531 -14.351562 L 17.046875 -14.351562 C 17.046875 -19.175781 13.003906 -21.273438 9.257812 -21.273438 C 4.792969 -21.273438 1.019531 -18.515625 1.257812 -13.902344 L 1.257812 -13.933594 C 1.648438 -9.109375 5.664062 -8.359375 9.046875 -8.03125 C 9.828125 -7.941406 12.222656 -7.878906 12.222656 -6.382812 C 12.222656 -5.183594 10.875 -4.703125 9.199219 -4.703125 C 8.03125 -4.703125 6.292969 -5.09375 6.292969 -7.160156 L 1.109375 -7.160156 C 1.109375 -1.828125 5.753906 0.269531 9.167969 0.269531 C 13.152344 0.269531 17.40625 -2.246094 17.40625 -6.621094 C 17.40625 -7.070312 17.347656 -7.609375 17.257812 -8.089844 C 16.359375 -11.863281 12.613281 -12.644531 9.648438 -13.03125 C 8.957031 -13.09375 6.472656 -13.121094 6.472656 -14.679688 C 6.472656 -15.820312 7.582031 -16.507812 9.167969 -16.507812 C 10.757812 -16.507812 11.894531 -15.757812 11.894531 -14.351562 Z M 11.894531 -14.351562 "/></g></g></g><g fill="#28236b" fill-opacity="1"><g transform="translate(0.652524, 34.234799)"><g><path d="M 1.597656 -4.277344 L 1.597656 -6.355469 L 0.707031 -6.355469 L 0.707031 0 L 1.597656 0 L 1.597656 -0.664062 C 1.953125 -0.128906 2.625 0.0742188 3.234375 0.0820312 C 4.949219 0.0820312 5.773438 -1.125 5.773438 -2.480469 C 5.773438 -3.804688 4.914062 -4.996094 3.25 -4.996094 C 2.640625 -4.996094 2.023438 -4.859375 1.597656 -4.277344 Z M 1.597656 -2.460938 C 1.597656 -3.632812 2.425781 -4.214844 3.25 -4.214844 C 4.339844 -4.214844 4.886719 -3.339844 4.886719 -2.460938 C 4.886719 -1.570312 4.332031 -0.707031 3.242188 -0.707031 C 2.425781 -0.707031 1.597656 -1.28125 1.597656 -2.460938 Z M 1.597656 -2.460938 "/></g></g></g><g fill="#28236b" fill-opacity="1"><g transform="translate(6.835216, 34.234799)"><g><path d="M 3.988281 -4.984375 L 3.140625 -2.796875 L 2.570312 -1.199219 L 2.015625 -2.804688 L 1.125 -4.984375 L 0.179688 -4.984375 L 2.097656 -0.253906 L 1.40625 1.515625 L 2.351562 1.515625 L 4.929688 -4.984375 Z M 3.988281 -4.984375 "/></g></g></g><g fill="#28236b" fill-opacity="1"><g transform="translate(11.93753, 34.234799)"><g/></g></g><g fill="#28236b" fill-opacity="1"><g transform="translate(14.198164, 34.234799)"><g><path d="M 1.296875 -3.496094 C 1.296875 -4.003906 1.808594 -4.214844 2.351562 -4.214844 C 2.886719 -4.214844 3.351562 -4.003906 3.394531 -3.570312 L 4.277344 -3.570312 C 4.214844 -4.59375 3.351562 -5.011719 2.378906 -5.011719 C 1.425781 -5.011719 0.417969 -4.613281 0.417969 -3.476562 C 0.417969 -2.378906 1.460938 -2.105469 2.34375 -2.070312 C 2.769531 -2.050781 3.53125 -1.960938 3.53125 -1.417969 C 3.53125 -0.835938 2.832031 -0.691406 2.386719 -0.691406 C 1.78125 -0.691406 1.269531 -0.960938 1.234375 -1.507812 L 0.34375 -1.507812 C 0.410156 -0.34375 1.351562 0.0820312 2.371094 0.0820312 C 3.296875 0.0820312 4.421875 -0.253906 4.421875 -1.398438 C 4.421875 -2.515625 3.367188 -2.804688 2.441406 -2.871094 C 2.007812 -2.898438 1.296875 -2.878906 1.296875 -3.496094 Z M 1.296875 -3.496094 "/></g></g></g><g fill="#28236b" fill-opacity="1"><g transform="translate(18.928239, 34.234799)"><g><path d="M 0.625 -6.175781 C 0.625 -5.828125 0.90625 -5.65625 1.179688 -5.65625 C 1.460938 -5.65625 1.734375 -5.828125 1.734375 -6.175781 C 1.734375 -6.519531 1.460938 -6.683594 1.191406 -6.683594 C 0.90625 -6.683594 0.625 -6.511719 0.625 -6.175781 Z M 0.734375 -4.96875 L 1.625 -4.96875 L 1.625 0 L 0.734375 0 Z M 0.734375 -4.96875 "/></g></g></g><g fill="#28236b" fill-opacity="1"><g transform="translate(21.370446, 34.234799)"><g><path d="M 2.371094 -3.460938 L 1.617188 -2.5625 L 1.617188 -6.355469 L 0.726562 -6.355469 L 0.726562 0 L 1.617188 0 L 1.617188 -1.5 L 2.253906 -2.179688 L 3.90625 0 L 4.929688 0 L 4.929688 -0.0820312 L 2.824219 -2.796875 L 4.804688 -4.914062 L 3.730469 -4.914062 Z M 2.371094 -3.460938 "/></g></g></g><g fill="#28236b" fill-opacity="1"><g transform="translate(26.427361, 34.234799)"><g><path d="M 5.765625 -2.453125 C 5.765625 -4.140625 4.457031 -4.996094 3.132812 -4.996094 C 1.796875 -4.996094 0.472656 -4.148438 0.472656 -2.453125 C 0.472656 -0.761719 1.789062 0.0898438 3.105469 0.0898438 C 4.441406 0.0898438 5.765625 -0.753906 5.765625 -2.453125 Z M 1.363281 -2.453125 C 1.363281 -3.625 2.242188 -4.203125 3.132812 -4.203125 C 4.003906 -4.203125 4.886719 -3.613281 4.886719 -2.453125 C 4.886719 -1.296875 4.003906 -0.707031 3.125 -0.707031 C 2.242188 -0.707031 1.363281 -1.289062 1.363281 -2.453125 Z M 1.363281 -2.453125 "/></g></g></g><g fill="#28236b" fill-opacity="1"><g transform="translate(32.728085, 34.234799)"><g><path d="M 5.511719 -6.355469 L 4.621094 -6.355469 L 4.621094 -4.277344 C 4.195312 -4.859375 3.578125 -4.996094 2.96875 -4.996094 C 1.308594 -4.996094 0.363281 -3.886719 0.363281 -2.480469 C 0.363281 -1.015625 1.261719 0.0820312 2.976562 0.0820312 C 3.597656 0.0742188 4.269531 -0.128906 4.621094 -0.664062 L 4.621094 0 L 5.511719 0 Z M 4.621094 -2.460938 C 4.621094 -1.28125 3.796875 -0.707031 2.960938 -0.707031 C 1.878906 -0.707031 1.253906 -1.453125 1.253906 -2.460938 C 1.253906 -3.339844 1.878906 -4.214844 2.96875 -4.214844 C 3.796875 -4.214844 4.621094 -3.632812 4.621094 -2.460938 Z M 4.621094 -2.460938 "/></g></g></g><g fill="#28236b" fill-opacity="1"><g transform="translate(38.938022, 34.234799)"><g><path d="M 0.625 -6.175781 C 0.625 -5.828125 0.90625 -5.65625 1.179688 -5.65625 C 1.460938 -5.65625 1.734375 -5.828125 1.734375 -6.175781 C 1.734375 -6.519531 1.460938 -6.683594 1.191406 -6.683594 C 0.90625 -6.683594 0.625 -6.511719 0.625 -6.175781 Z M 0.734375 -4.96875 L 1.625 -4.96875 L 1.625 0 L 0.734375 0 Z M 0.734375 -4.96875 "/></g></g></g><g fill="#28236b" fill-opacity="1"><g transform="translate(41.380229, 34.234799)"><g><path d="M 1.570312 -4.304688 L 1.570312 -4.914062 L 0.679688 -4.914062 L 0.679688 0 L 1.570312 0 L 1.570312 -2.667969 C 1.570312 -3.523438 2.078125 -4.195312 3.015625 -4.195312 C 4.085938 -4.195312 4.332031 -3.558594 4.332031 -2.632812 L 4.332031 0 L 5.210938 0 L 5.210938 -2.640625 C 5.210938 -4.050781 4.578125 -4.984375 3.078125 -4.984375 C 2.460938 -4.984375 1.933594 -4.832031 1.570312 -4.304688 Z M 1.570312 -4.304688 "/></g></g></g><g clip-path="url(#5c97a05844)"><g fill="#28236b" fill-opacity="1"><g transform="translate(47.263326, 34.234799)"><g><path d="M 5.601562 -0.179688 L 5.601562 -4.914062 L 4.722656 -4.914062 L 4.722656 -4.257812 C 4.359375 -4.792969 3.667969 -4.996094 3.058594 -4.996094 C 1.351562 -4.996094 0.453125 -3.785156 0.453125 -2.441406 C 0.453125 -1.109375 1.40625 -0.0078125 3.058594 -0.0078125 C 3.667969 -0.0078125 4.285156 -0.136719 4.714844 -0.699219 L 4.714844 -0.179688 C 4.714844 0.78125 3.824219 1.144531 3.023438 1.144531 C 2.386719 1.144531 1.570312 0.945312 1.570312 0.328125 L 0.691406 0.328125 C 0.691406 1.445312 1.84375 1.933594 3.078125 1.933594 C 4.296875 1.933594 5.601562 1.34375 5.601562 -0.179688 Z M 3.050781 -0.789062 C 1.96875 -0.789062 1.351562 -1.578125 1.34375 -2.441406 C 1.34375 -3.324219 1.96875 -4.214844 3.070312 -4.214844 C 4.160156 -4.214844 4.714844 -3.46875 4.714844 -2.578125 C 4.714844 -1.671875 4.160156 -0.789062 3.050781 -0.789062 Z M 3.050781 -0.789062 "/></g></g></g></g><g fill="#28236b" fill-opacity="1"><g transform="translate(53.56405, 34.234799)"><g><path d="M 0.90625 -1.089844 C 0.609375 -1.089844 0.363281 -0.863281 0.363281 -0.527344 C 0.363281 -0.253906 0.609375 0.0273438 0.90625 0.0273438 C 1.242188 0.0273438 1.480469 -0.253906 1.480469 -0.527344 C 1.480469 -0.863281 1.242188 -1.089844 0.90625 -1.089844 Z M 0.90625 -1.089844 "/></g></g></g><g fill="#28236b" fill-opacity="1"><g transform="translate(55.461527, 34.234799)"><g><path d="M 5.492188 -1.871094 L 4.578125 -1.871094 C 4.359375 -1.089844 3.703125 -0.707031 3.03125 -0.707031 C 2.1875 -0.707031 1.351562 -1.28125 1.351562 -2.460938 C 1.351562 -3.632812 2.199219 -4.203125 3.023438 -4.203125 C 3.695312 -4.203125 4.359375 -3.824219 4.578125 -3.042969 L 5.492188 -3.042969 C 5.25 -4.351562 4.132812 -4.996094 3.015625 -4.996094 C 1.734375 -4.996094 0.464844 -4.160156 0.464844 -2.460938 C 0.464844 -0.773438 1.726562 0.0742188 2.996094 0.0742188 C 4.113281 0.0742188 5.25 -0.554688 5.492188 -1.871094 Z M 5.492188 -1.871094 "/></g></g></g><g fill="#28236b" fill-opacity="1"><g transform="translate(61.408176, 34.234799)"><g><path d="M 5.765625 -2.453125 C 5.765625 -4.140625 4.457031 -4.996094 3.132812 -4.996094 C 1.796875 -4.996094 0.472656 -4.148438 0.472656 -2.453125 C 0.472656 -0.761719 1.789062 0.0898438 3.105469 0.0898438 C 4.441406 0.0898438 5.765625 -0.753906 5.765625 -2.453125 Z M 1.363281 -2.453125 C 1.363281 -3.625 2.242188 -4.203125 3.132812 -4.203125 C 4.003906 -4.203125 4.886719 -3.613281 4.886719 -2.453125 C 4.886719 -1.296875 4.003906 -0.707031 3.125 -0.707031 C 2.242188 -0.707031 1.363281 -1.289062 1.363281 -2.453125 Z M 1.363281 -2.453125 "/></g></g></g><g fill="#28236b" fill-opacity="1"><g transform="translate(67.7089, 34.234799)"><g><path d="M 1.6875 -4.304688 L 1.6875 -4.996094 L 0.800781 -4.996094 L 0.800781 0 L 1.6875 0 L 1.6875 -2.667969 C 1.6875 -3.632812 2.277344 -4.167969 3.058594 -4.167969 C 3.878906 -4.167969 4.140625 -3.449219 4.140625 -2.761719 L 4.140625 0 L 5.03125 0 L 5.03125 -2.769531 C 5.03125 -3.570312 5.464844 -4.167969 6.339844 -4.167969 C 7.191406 -4.167969 7.363281 -3.476562 7.363281 -2.789062 L 7.363281 0 L 8.253906 0 L 8.253906 -2.796875 C 8.253906 -4.039062 7.664062 -4.996094 6.3125 -4.996094 C 5.59375 -4.984375 5.039062 -4.6875 4.738281 -4.140625 C 4.375 -4.832031 3.757812 -4.996094 3.070312 -4.996094 C 2.496094 -4.996094 2.023438 -4.792969 1.6875 -4.304688 Z M 1.6875 -4.304688 "/></g></g></g></svg>